<?xml version="1.0" standalone="no"?>
<!DOCTYPE svg PUBLIC "-//W3C//DTD SVG 20010904//EN"
 "http://www.w3.org/TR/2001/REC-SVG-20010904/DTD/svg10.dtd">
<svg version="1.0" xmlns="http://www.w3.org/2000/svg"
 width="1912.000000pt" height="1912.000000pt" viewBox="0 0 1912.000000 1912.000000"
 preserveAspectRatio="xMidYMid meet">

<g transform="translate(0.000000,1912.000000) scale(0.100000,-0.100000)"
fill="#000000" stroke="none">
<path d="M9920 16791 l0 -1139 -87 -81 -88 -82 -3 976 -2 975 -1245 0 -1245 0
-2 -975 -3 -976 -82 61 -83 60 -2 420 -3 419 -290 3 -290 3 -46 27 c-26 15
-57 45 -70 65 l-24 38 -3 428 -3 427 -2014 2 c-1108 0 -2021 1 -2027 2 -10 1
-14 -93 -18 -424 -5 -455 -4 -444 -59 -503 -56 -61 -59 -62 -381 -64 l-295 -3
-3 -419 -2 -420 -93 -69 -92 -69 -365 -122 c-201 -67 -371 -125 -378 -129 -10
-7 -12 -1147 -10 -5672 l3 -5663 369 -124 370 -124 98 -72 98 -72 0 -420 -1
-420 298 -5 c259 -4 302 -7 330 -22 47 -26 82 -77 93 -138 6 -30 10 -223 10
-441 l0 -389 2018 0 c1109 0 2022 4 2029 8 9 6 13 112 15 433 l3 425 24 36
c13 19 40 46 59 59 35 24 38 24 341 29 l306 5 3 425 3 425 82 58 82 58 5 -973
5 -973 1242 -3 1243 -2 2 974 3 974 88 -83 87 -82 0 -1142 0 -1141 2763 2
2762 3 3 1140 2 1140 77 77 c43 43 81 78 85 78 5 0 8 -436 8 -970 l0 -970
1245 0 1245 0 0 7885 0 7885 -1245 0 -1245 0 0 -976 0 -976 -85 78 -85 77 -2
1141 -3 1141 -2762 3 -2763 2 0 -1139z m5500 -18 l0 -1137 88 -82 c59 -55 92
-94 98 -116 6 -21 16 -33 27 -33 17 0 18 50 17 1003 l-1 1002 1216 0 1215 0 0
-6870 c0 -6863 0 -6870 -20 -6870 -13 0 -20 -7 -20 -20 0 -13 7 -20 20 -20 20
0 20 -7 20 -970 l0 -970 -1215 0 -1215 0 0 974 c0 536 -3 981 -6 990 -4 10
-18 16 -35 16 -24 0 -29 -4 -29 -25 0 -18 -22 -46 -80 -101 l-80 -77 0 -1133
0 -1134 -2740 0 -2740 0 0 1134 0 1133 -82 81 c-46 44 -94 90 -108 102 -17 14
-21 23 -12 26 6 3 12 23 12 45 0 33 -3 39 -21 39 -19 0 -21 -5 -17 -45 3 -38
0 -45 -17 -47 -28 -4 -33 -38 -6 -38 l21 0 0 -970 0 -970 -1215 0 -1215 0 -2
988 -3 987 -32 3 c-28 3 -33 0 -33 -17 0 -15 -24 -39 -79 -79 l-80 -57 0 -417
-1 -418 -282 0 c-253 0 -287 -2 -324 -19 -49 -23 -107 -88 -122 -140 -8 -26
-12 -163 -12 -435 l0 -396 -2005 0 -2005 0 0 404 c0 275 -4 414 -11 437 -19
55 -55 95 -111 123 l-52 26 -278 0 -278 0 -1 418 0 417 -102 75 -102 75 -363
120 -362 120 0 5650 0 5650 350 117 c310 103 350 114 350 97 0 -12 7 -19 20
-19 15 0 20 7 20 25 0 19 21 40 100 100 l100 76 0 414 0 415 280 0 c305 0 326
3 383 58 63 60 62 48 67 507 l5 420 2003 3 2002 2 0 -392 c0 -249 4 -408 11
-433 17 -63 56 -112 112 -140 51 -25 51 -25 329 -25 l278 0 0 -415 0 -415 95
-71 c74 -54 97 -77 102 -100 3 -18 12 -29 22 -29 15 0 16 83 13 1005 l-3 1005
1216 0 1215 0 0 -1005 c0 -998 0 -1005 20 -1005 15 0 20 7 20 29 0 23 17 44
95 116 l95 87 0 1132 c0 623 3 1136 7 1139 3 4 1236 7 2740 7 l2733 0 0 -1137z"/>
<path d="M1457 15466 c-7 -19 1 -26 30 -26 16 0 23 6 23 20 0 14 -7 20 -24 20
-13 0 -26 -6 -29 -14z"/>
<path d="M1610 15460 c0 -16 7 -20 30 -20 23 0 30 4 30 20 0 16 -7 20 -30 20
-23 0 -30 -4 -30 -20z"/>
<path d="M1770 15460 c0 -15 7 -20 25 -20 18 0 25 5 25 20 0 15 -7 20 -25 20
-18 0 -25 -5 -25 -20z"/>
<path d="M1920 15460 c0 -16 7 -20 30 -20 23 0 30 4 30 20 0 16 -7 20 -30 20
-23 0 -30 -4 -30 -20z"/>
<path d="M2080 15460 c0 -16 7 -20 30 -20 23 0 30 4 30 20 0 16 -7 20 -30 20
-23 0 -30 -4 -30 -20z"/>
<path d="M2240 15460 c0 -15 7 -20 25 -20 18 0 25 5 25 20 0 15 -7 20 -25 20
-18 0 -25 -5 -25 -20z"/>
<path d="M2397 15473 c-17 -16 -5 -33 23 -33 23 0 30 4 30 20 0 14 -7 20 -23
20 -13 0 -27 -3 -30 -7z"/>
<path d="M2550 15460 c0 -16 7 -20 30 -20 23 0 30 4 30 20 0 16 -7 20 -30 20
-23 0 -30 -4 -30 -20z"/>
<path d="M2710 15460 c0 -15 7 -20 25 -20 18 0 25 5 25 20 0 15 -7 20 -25 20
-18 0 -25 -5 -25 -20z"/>
<path d="M2860 15460 c0 -16 7 -20 30 -20 23 0 30 4 30 20 0 16 -7 20 -30 20
-23 0 -30 -4 -30 -20z"/>
<path d="M3020 15460 c0 -15 7 -20 25 -20 18 0 25 5 25 20 0 15 -7 20 -25 20
-18 0 -25 -5 -25 -20z"/>
<path d="M3170 15460 c0 -16 7 -20 30 -20 23 0 30 4 30 20 0 16 -7 20 -30 20
-23 0 -30 -4 -30 -20z"/>
<path d="M3330 15460 c0 -16 7 -20 30 -20 23 0 30 4 30 20 0 16 -7 20 -30 20
-23 0 -30 -4 -30 -20z"/>
<path d="M3490 15460 c0 -15 7 -20 25 -20 18 0 25 5 25 20 0 15 -7 20 -25 20
-18 0 -25 -5 -25 -20z"/>
<path d="M3640 15460 c0 -16 7 -20 30 -20 23 0 30 4 30 20 0 16 -7 20 -30 20
-23 0 -30 -4 -30 -20z"/>
<path d="M3800 15460 c0 -16 7 -20 30 -20 23 0 30 4 30 20 0 16 -7 20 -30 20
-23 0 -30 -4 -30 -20z"/>
<path d="M3960 15460 c0 -15 7 -20 25 -20 18 0 25 5 25 20 0 15 -7 20 -25 20
-18 0 -25 -5 -25 -20z"/>
<path d="M4110 15460 c0 -16 7 -20 30 -20 23 0 30 4 30 20 0 16 -7 20 -30 20
-23 0 -30 -4 -30 -20z"/>
<path d="M4270 15460 c0 -15 7 -20 25 -20 18 0 25 5 25 20 0 15 -7 20 -25 20
-18 0 -25 -5 -25 -20z"/>
<path d="M4420 15460 c0 -16 7 -20 30 -20 23 0 30 4 30 20 0 16 -7 20 -30 20
-23 0 -30 -4 -30 -20z"/>
<path d="M4580 15460 c0 -16 7 -20 30 -20 23 0 30 4 30 20 0 16 -7 20 -30 20
-23 0 -30 -4 -30 -20z"/>
<path d="M4740 15460 c0 -15 7 -20 25 -20 18 0 25 5 25 20 0 15 -7 20 -25 20
-18 0 -25 -5 -25 -20z"/>
<path d="M4890 15460 c0 -16 7 -20 30 -20 23 0 30 4 30 20 0 16 -7 20 -30 20
-23 0 -30 -4 -30 -20z"/>
<path d="M5050 15460 c0 -16 7 -20 30 -20 23 0 30 4 30 20 0 16 -7 20 -30 20
-23 0 -30 -4 -30 -20z"/>
<path d="M5210 15460 c0 -15 7 -20 25 -20 18 0 25 5 25 20 0 15 -7 20 -25 20
-18 0 -25 -5 -25 -20z"/>
<path d="M5360 15460 c0 -16 7 -20 30 -20 23 0 30 4 30 20 0 16 -7 20 -30 20
-23 0 -30 -4 -30 -20z"/>
<path d="M5520 15460 c0 -15 7 -20 25 -20 18 0 25 5 25 20 0 15 -7 20 -25 20
-18 0 -25 -5 -25 -20z"/>
<path d="M5677 15473 c-17 -16 -5 -33 23 -33 23 0 30 4 30 20 0 14 -7 20 -23
20 -13 0 -27 -3 -30 -7z"/>
<path d="M5830 15460 c0 -16 7 -20 30 -20 23 0 30 4 30 20 0 16 -7 20 -30 20
-23 0 -30 -4 -30 -20z"/>
<path d="M5990 15460 c0 -15 7 -20 25 -20 18 0 25 5 25 20 0 15 -7 20 -25 20
-18 0 -25 -5 -25 -20z"/>
<path d="M6140 15460 c0 -16 7 -20 30 -20 23 0 30 4 30 20 0 16 -7 20 -30 20
-23 0 -30 -4 -30 -20z"/>
<path d="M6300 15460 c0 -16 7 -20 30 -20 23 0 30 4 30 20 0 16 -7 20 -30 20
-23 0 -30 -4 -30 -20z"/>
<path d="M6460 15460 c0 -15 7 -20 25 -20 18 0 25 5 25 20 0 15 -7 20 -25 20
-18 0 -25 -5 -25 -20z"/>
<path d="M6610 15460 c0 -16 7 -20 30 -20 23 0 30 4 30 20 0 16 -7 20 -30 20
-23 0 -30 -4 -30 -20z"/>
<path d="M6770 15460 c0 -15 7 -20 25 -20 18 0 25 5 25 20 0 15 -7 20 -25 20
-18 0 -25 -5 -25 -20z"/>
<path d="M6920 15460 c0 -16 7 -20 30 -20 23 0 30 4 30 20 0 16 -7 20 -30 20
-23 0 -30 -4 -30 -20z"/>
<path d="M7080 15460 c0 -16 7 -20 30 -20 23 0 30 4 30 20 0 16 -7 20 -30 20
-23 0 -30 -4 -30 -20z"/>
<path d="M7370 15460 c0 -16 7 -20 30 -20 23 0 30 4 30 20 0 16 -7 20 -30 20
-23 0 -30 -4 -30 -20z"/>
<path d="M7520 15460 c0 -16 7 -20 30 -20 23 0 30 4 30 20 0 16 -7 20 -30 20
-23 0 -30 -4 -30 -20z"/>
<path d="M7680 15460 c0 -16 7 -20 30 -20 23 0 30 4 30 20 0 16 -7 20 -30 20
-23 0 -30 -4 -30 -20z"/>
<path d="M7840 15460 c0 -15 7 -20 25 -20 18 0 25 5 25 20 0 15 -7 20 -25 20
-18 0 -25 -5 -25 -20z"/>
<path d="M7997 15473 c-17 -16 -5 -33 23 -33 23 0 30 4 30 20 0 14 -7 20 -23
20 -13 0 -27 -3 -30 -7z"/>
<path d="M8150 15460 c0 -16 7 -20 30 -20 23 0 30 4 30 20 0 16 -7 20 -30 20
-23 0 -30 -4 -30 -20z"/>
<path d="M8310 15460 c0 -15 7 -20 25 -20 18 0 25 5 25 20 0 15 -7 20 -25 20
-18 0 -25 -5 -25 -20z"/>
<path d="M8460 15460 c0 -16 7 -20 30 -20 23 0 30 4 30 20 0 16 -7 20 -30 20
-23 0 -30 -4 -30 -20z"/>
<path d="M8620 15460 c0 -16 7 -20 30 -20 23 0 30 4 30 20 0 16 -7 20 -30 20
-23 0 -30 -4 -30 -20z"/>
<path d="M8770 15460 c0 -16 7 -20 30 -20 23 0 30 4 30 20 0 16 -7 20 -30 20
-23 0 -30 -4 -30 -20z"/>
<path d="M8930 15460 c0 -16 7 -20 30 -20 23 0 30 4 30 20 0 16 -7 20 -30 20
-23 0 -30 -4 -30 -20z"/>
<path d="M9090 15460 c0 -15 7 -20 25 -20 18 0 25 5 25 20 0 15 -7 20 -25 20
-18 0 -25 -5 -25 -20z"/>
<path d="M9240 15460 c0 -16 7 -20 30 -20 23 0 30 4 30 20 0 16 -7 20 -30 20
-23 0 -30 -4 -30 -20z"/>
<path d="M9400 15460 c0 -16 7 -20 30 -20 23 0 30 4 30 20 0 16 -7 20 -30 20
-23 0 -30 -4 -30 -20z"/>
<path d="M9560 15460 c0 -15 7 -20 25 -20 18 0 25 5 25 20 0 15 -7 20 -25 20
-18 0 -25 -5 -25 -20z"/>
<path d="M9820 15460 c0 -16 7 -20 30 -20 23 0 30 4 30 20 0 16 -7 20 -30 20
-23 0 -30 -4 -30 -20z"/>
<path d="M9980 15460 c0 -16 7 -20 30 -20 23 0 30 4 30 20 0 16 -7 20 -30 20
-23 0 -30 -4 -30 -20z"/>
<path d="M10130 15460 c0 -16 7 -20 30 -20 23 0 30 4 30 20 0 16 -7 20 -30 20
-23 0 -30 -4 -30 -20z"/>
<path d="M10290 15460 c0 -16 7 -20 30 -20 23 0 30 4 30 20 0 16 -7 20 -30 20
-23 0 -30 -4 -30 -20z"/>
<path d="M10450 15460 c0 -15 7 -20 25 -20 18 0 25 5 25 20 0 15 -7 20 -25 20
-18 0 -25 -5 -25 -20z"/>
<path d="M10600 15460 c0 -16 7 -20 30 -20 23 0 30 4 30 20 0 16 -7 20 -30 20
-23 0 -30 -4 -30 -20z"/>
<path d="M10760 15460 c0 -16 7 -20 30 -20 23 0 30 4 30 20 0 16 -7 20 -30 20
-23 0 -30 -4 -30 -20z"/>
<path d="M10920 15460 c0 -15 7 -20 25 -20 18 0 25 5 25 20 0 15 -7 20 -25 20
-18 0 -25 -5 -25 -20z"/>
<path d="M11070 15460 c0 -16 7 -20 30 -20 23 0 30 4 30 20 0 16 -7 20 -30 20
-23 0 -30 -4 -30 -20z"/>
<path d="M11230 15461 c0 -17 6 -21 31 -21 24 0 30 4 27 18 -2 10 -14 18 -31
20 -22 3 -27 -1 -27 -17z"/>
<path d="M11380 15460 c0 -16 7 -20 30 -20 23 0 30 4 30 20 0 16 -7 20 -30 20
-23 0 -30 -4 -30 -20z"/>
<path d="M11540 15460 c0 -16 7 -20 30 -20 23 0 30 4 30 20 0 16 -7 20 -30 20
-23 0 -30 -4 -30 -20z"/>
<path d="M11700 15460 c0 -15 7 -20 25 -20 18 0 25 5 25 20 0 15 -7 20 -25 20
-18 0 -25 -5 -25 -20z"/>
<path d="M11850 15460 c0 -16 7 -20 30 -20 23 0 30 4 30 20 0 16 -7 20 -30 20
-23 0 -30 -4 -30 -20z"/>
<path d="M12010 15460 c0 -16 7 -20 30 -20 23 0 30 4 30 20 0 16 -7 20 -30 20
-23 0 -30 -4 -30 -20z"/>
<path d="M12170 15460 c0 -15 7 -20 25 -20 18 0 25 5 25 20 0 15 -7 20 -25 20
-18 0 -25 -5 -25 -20z"/>
<path d="M12320 15460 c0 -16 7 -20 30 -20 23 0 30 4 30 20 0 16 -7 20 -30 20
-23 0 -30 -4 -30 -20z"/>
<path d="M12480 15460 c0 -16 7 -20 30 -20 23 0 30 4 30 20 0 16 -7 20 -30 20
-23 0 -30 -4 -30 -20z"/>
<path d="M12637 15473 c-17 -16 -5 -33 23 -33 23 0 30 4 30 20 0 14 -7 20 -23
20 -13 0 -27 -3 -30 -7z"/>
<path d="M12790 15460 c0 -16 7 -20 30 -20 23 0 30 4 30 20 0 16 -7 20 -30 20
-23 0 -30 -4 -30 -20z"/>
<path d="M12950 15460 c0 -15 7 -20 25 -20 18 0 25 5 25 20 0 15 -7 20 -25 20
-18 0 -25 -5 -25 -20z"/>
<path d="M13100 15460 c0 -16 7 -20 30 -20 23 0 30 4 30 20 0 16 -7 20 -30 20
-23 0 -30 -4 -30 -20z"/>
<path d="M13260 15460 c0 -16 7 -20 30 -20 23 0 30 4 30 20 0 16 -7 20 -30 20
-23 0 -30 -4 -30 -20z"/>
<path d="M13420 15460 c0 -15 7 -20 25 -20 18 0 25 5 25 20 0 15 -7 20 -25 20
-18 0 -25 -5 -25 -20z"/>
<path d="M13570 15460 c0 -16 7 -20 30 -20 23 0 30 4 30 20 0 16 -7 20 -30 20
-23 0 -30 -4 -30 -20z"/>
<path d="M13730 15460 c0 -15 7 -20 25 -20 18 0 25 5 25 20 0 15 -7 20 -25 20
-18 0 -25 -5 -25 -20z"/>
<path d="M13880 15460 c0 -16 7 -20 30 -20 23 0 30 4 30 20 0 16 -7 20 -30 20
-23 0 -30 -4 -30 -20z"/>
<path d="M14040 15460 c0 -16 7 -20 30 -20 23 0 30 4 30 20 0 16 -7 20 -30 20
-23 0 -30 -4 -30 -20z"/>
<path d="M14200 15460 c0 -15 7 -20 25 -20 18 0 25 5 25 20 0 15 -7 20 -25 20
-18 0 -25 -5 -25 -20z"/>
<path d="M14350 15460 c0 -16 7 -20 30 -20 23 0 30 4 30 20 0 16 -7 20 -30 20
-23 0 -30 -4 -30 -20z"/>
<path d="M14510 15461 c0 -17 6 -21 31 -21 24 0 30 4 27 18 -2 10 -14 18 -31
20 -22 3 -27 -1 -27 -17z"/>
<path d="M14670 15460 c0 -15 7 -20 25 -20 18 0 25 5 25 20 0 15 -7 20 -25 20
-18 0 -25 -5 -25 -20z"/>
<path d="M14820 15460 c0 -16 7 -20 30 -20 23 0 30 4 30 20 0 16 -7 20 -30 20
-23 0 -30 -4 -30 -20z"/>
<path d="M14980 15460 c0 -15 7 -20 25 -20 18 0 25 5 25 20 0 15 -7 20 -25 20
-18 0 -25 -5 -25 -20z"/>
<path d="M15130 15460 c0 -16 7 -20 30 -20 23 0 30 4 30 20 0 16 -7 20 -30 20
-23 0 -30 -4 -30 -20z"/>
<path d="M15290 15460 c0 -16 7 -20 30 -20 23 0 30 4 30 20 0 16 -7 20 -30 20
-23 0 -30 -4 -30 -20z"/>
<path d="M15447 15466 c-7 -19 1 -26 30 -26 16 0 23 6 23 20 0 14 -7 20 -24
20 -13 0 -26 -6 -29 -14z"/>
<path d="M15730 15460 c0 -16 7 -20 30 -20 23 0 30 4 30 20 0 16 -7 20 -30 20
-23 0 -30 -4 -30 -20z"/>
<path d="M15890 15460 c0 -16 7 -20 30 -20 23 0 30 4 30 20 0 16 -7 20 -30 20
-23 0 -30 -4 -30 -20z"/>
<path d="M16050 15460 c0 -15 7 -20 25 -20 18 0 25 5 25 20 0 15 -7 20 -25 20
-18 0 -25 -5 -25 -20z"/>
<path d="M16200 15460 c0 -16 7 -20 30 -20 23 0 30 4 30 20 0 16 -7 20 -30 20
-23 0 -30 -4 -30 -20z"/>
<path d="M16360 15460 c0 -16 7 -20 30 -20 23 0 30 4 30 20 0 16 -7 20 -30 20
-23 0 -30 -4 -30 -20z"/>
<path d="M16520 15460 c0 -15 7 -20 25 -20 18 0 25 5 25 20 0 15 -7 20 -25 20
-18 0 -25 -5 -25 -20z"/>
<path d="M16670 15460 c0 -16 7 -20 30 -20 23 0 30 4 30 20 0 16 -7 20 -30 20
-23 0 -30 -4 -30 -20z"/>
<path d="M16830 15461 c0 -17 6 -21 31 -21 24 0 30 4 27 18 -2 10 -14 18 -31
20 -22 3 -27 -1 -27 -17z"/>
<path d="M16980 15460 c0 -16 7 -20 30 -20 23 0 30 4 30 20 0 16 -7 20 -30 20
-23 0 -30 -4 -30 -20z"/>
<path d="M17140 15460 c0 -16 7 -20 30 -20 23 0 30 4 30 20 0 16 -7 20 -30 20
-23 0 -30 -4 -30 -20z"/>
<path d="M17300 15460 c0 -15 7 -20 25 -20 18 0 25 5 25 20 0 15 -7 20 -25 20
-18 0 -25 -5 -25 -20z"/>
<path d="M17450 15460 c0 -16 7 -20 30 -20 23 0 30 4 30 20 0 16 -7 20 -30 20
-23 0 -30 -4 -30 -20z"/>
<path d="M17610 15460 c0 -16 7 -20 30 -20 23 0 30 4 30 20 0 16 -7 20 -30 20
-23 0 -30 -4 -30 -20z"/>
<path d="M17770 15460 c0 -15 7 -20 25 -20 18 0 25 5 25 20 0 15 -7 20 -25 20
-18 0 -25 -5 -25 -20z"/>
<path d="M17920 15460 c0 -16 7 -20 30 -20 23 0 30 4 30 20 0 16 -7 20 -30 20
-23 0 -30 -4 -30 -20z"/>
<path d="M7250 15290 c0 -33 3 -40 20 -40 17 0 20 7 20 40 0 33 -3 40 -20 40
-17 0 -20 -7 -20 -40z"/>
<path d="M15610 15290 c0 -36 3 -40 25 -40 17 0 25 5 25 18 0 37 -13 62 -31
62 -15 0 -19 -7 -19 -40z"/>
<path d="M9710 15280 c0 -33 3 -40 20 -40 17 0 20 7 20 40 0 33 -3 40 -20 40
-17 0 -20 -7 -20 -40z"/>
<path d="M1340 15270 c0 -23 4 -30 20 -30 16 0 20 7 20 30 0 23 -4 30 -20 30
-16 0 -20 -7 -20 -30z"/>
<path d="M7250 15135 c0 -38 3 -45 20 -45 17 0 20 7 20 45 0 38 -3 45 -20 45
-17 0 -20 -7 -20 -45z"/>
<path d="M15610 15140 c0 -28 5 -43 16 -47 19 -7 32 11 29 40 -1 12 -3 28 -4
35 0 6 -10 12 -21 12 -17 0 -20 -7 -20 -40z"/>
<path d="M9710 15120 c0 -33 3 -40 20 -40 17 0 20 7 20 40 0 33 -3 40 -20 40
-17 0 -20 -7 -20 -40z"/>
<path d="M1340 15110 c0 -23 4 -30 20 -30 16 0 20 7 20 30 0 23 -4 30 -20 30
-16 0 -20 -7 -20 -30z"/>
<path d="M7250 14975 c0 -38 3 -45 20 -45 17 0 20 7 20 45 0 38 -3 45 -20 45
-17 0 -20 -7 -20 -45z"/>
<path d="M15610 14980 c0 -27 5 -43 15 -47 22 -8 27 0 29 46 2 37 0 41 -21 41
-20 0 -23 -5 -23 -40z"/>
<path d="M9710 14970 c0 -33 3 -40 20 -40 17 0 20 7 20 40 0 33 -3 40 -20 40
-17 0 -20 -7 -20 -40z"/>
<path d="M1340 14955 c0 -18 5 -25 20 -25 15 0 20 7 20 25 0 18 -5 25 -20 25
-15 0 -20 -7 -20 -25z"/>
<path d="M7250 14825 c0 -38 3 -45 20 -45 17 0 20 7 20 45 0 38 -3 45 -20 45
-17 0 -20 -7 -20 -45z"/>
<path d="M15617 14863 c-4 -3 -7 -24 -7 -45 0 -34 3 -38 24 -38 25 0 27 10 17
83 -1 9 -25 9 -34 0z"/>
<path d="M9710 14810 c0 -33 3 -40 20 -40 17 0 20 7 20 40 0 33 -3 40 -20 40
-17 0 -20 -7 -20 -40z"/>
<path d="M1340 14800 c0 -23 4 -30 20 -30 16 0 20 7 20 30 0 23 -4 30 -20 30
-16 0 -20 -7 -20 -30z"/>
<path d="M7250 14665 c0 -38 3 -45 20 -45 17 0 20 7 20 45 0 38 -3 45 -20 45
-17 0 -20 -7 -20 -45z"/>
<path d="M15610 14664 c0 -41 2 -45 23 -42 22 3 23 9 18 76 -1 6 -10 12 -21
12 -17 0 -20 -7 -20 -46z"/>
<path d="M9710 14650 c0 -33 3 -40 20 -40 17 0 20 7 20 40 0 33 -3 40 -20 40
-17 0 -20 -7 -20 -40z"/>
<path d="M795 14670 c-6 -9 69 -94 302 -344 57 -61 87 -86 94 -79 7 7 -51 77
-183 221 -106 116 -196 211 -200 211 -4 1 -10 -4 -13 -9z"/>
<path d="M1340 14640 c0 -23 4 -30 20 -30 16 0 20 7 20 30 0 23 -4 30 -20 30
-16 0 -20 -7 -20 -30z"/>
<path d="M7250 14510 c0 -33 3 -40 20 -40 17 0 20 7 20 40 0 33 -3 40 -20 40
-17 0 -20 -7 -20 -40z"/>
<path d="M15610 14510 c0 -35 3 -40 23 -40 21 0 23 5 23 40 0 35 -3 40 -23 40
-20 0 -23 -5 -23 -40z"/>
<path d="M9710 14500 c0 -33 3 -40 20 -40 17 0 20 7 20 40 0 33 -3 40 -20 40
-17 0 -20 -7 -20 -40z"/>
<path d="M1340 14490 c0 -23 4 -30 20 -30 16 0 20 7 20 30 0 23 -4 30 -20 30
-16 0 -20 -7 -20 -30z"/>
<path d="M7250 14355 c0 -38 3 -45 20 -45 17 0 20 7 20 45 0 38 -3 45 -20 45
-17 0 -20 -7 -20 -45z"/>
<path d="M15617 14393 c-4 -3 -7 -24 -7 -45 0 -33 3 -38 24 -38 24 0 24 1 18
73 -2 17 -22 23 -35 10z"/>
<path d="M9710 14340 c0 -33 3 -40 20 -40 17 0 20 7 20 40 0 33 -3 40 -20 40
-17 0 -20 -7 -20 -40z"/>
<path d="M1340 14330 c0 -23 4 -30 20 -30 16 0 20 7 20 30 0 23 -4 30 -20 30
-16 0 -20 -7 -20 -30z"/>
<path d="M7250 14194 c0 -38 3 -45 18 -42 12 2 18 15 20 46 3 37 1 42 -17 42
-18 0 -21 -6 -21 -46z"/>
<path d="M15612 14198 c2 -35 7 -43 23 -43 16 0 21 8 23 43 3 39 2 42 -23 42
-25 0 -26 -3 -23 -42z"/>
<path d="M9710 14190 c0 -33 3 -40 20 -40 17 0 20 7 20 40 0 33 -3 40 -20 40
-17 0 -20 -7 -20 -40z"/>
<path d="M1340 14175 c0 -18 5 -25 20 -25 15 0 20 7 20 25 0 18 -5 25 -20 25
-15 0 -20 -7 -20 -25z"/>
<path d="M7250 14040 c0 -33 3 -40 20 -40 17 0 20 7 20 40 0 33 -3 40 -20 40
-17 0 -20 -7 -20 -40z"/>
<path d="M15610 14040 c0 -36 3 -40 25 -40 23 0 25 4 25 40 0 36 -2 40 -25 40
-22 0 -25 -4 -25 -40z"/>
<path d="M9710 14030 c0 -33 3 -40 20 -40 17 0 20 7 20 40 0 33 -3 40 -20 40
-17 0 -20 -7 -20 -40z"/>
<path d="M795 14040 c-4 -6 22 -41 57 -78 36 -37 124 -131 198 -210 90 -97
136 -140 143 -133 7 7 -25 48 -99 127 -60 64 -146 158 -192 208 -89 97 -96
103 -107 86z"/>
<path d="M1340 14020 c0 -23 4 -30 20 -30 16 0 20 7 20 30 0 23 -4 30 -20 30
-16 0 -20 -7 -20 -30z"/>
<path d="M7250 13885 c0 -38 3 -45 20 -45 17 0 20 7 20 45 0 38 -3 45 -20 45
-17 0 -20 -7 -20 -45z"/>
<path d="M15610 13886 c0 -39 3 -46 20 -46 22 0 21 -1 24 50 1 29 -3 36 -21
38 -21 3 -23 -1 -23 -42z"/>
<path d="M9710 13869 c0 -33 3 -40 18 -37 12 2 18 14 20 41 3 32 0 37 -17 37
-18 0 -21 -6 -21 -41z"/>
<path d="M1342 13863 c2 -17 10 -29 21 -31 13 -3 17 3 17 27 0 25 -4 31 -21
31 -16 0 -20 -5 -17 -27z"/>
<path d="M7250 13725 c0 -38 3 -45 20 -45 17 0 20 7 20 45 0 38 -3 45 -20 45
-17 0 -20 -7 -20 -45z"/>
<path d="M15610 13730 c0 -27 5 -43 15 -47 21 -7 23 -5 29 45 5 39 3 42 -20
42 -21 0 -24 -4 -24 -40z"/>
<path d="M9710 13720 c0 -33 3 -40 20 -40 17 0 20 7 20 40 0 33 -3 40 -20 40
-17 0 -20 -7 -20 -40z"/>
<path d="M1340 13705 c0 -18 5 -25 20 -25 15 0 20 7 20 25 0 18 -5 25 -20 25
-15 0 -20 -7 -20 -25z"/>
<path d="M7250 13575 c0 -38 3 -45 20 -45 17 0 20 7 20 45 0 38 -3 45 -20 45
-17 0 -20 -7 -20 -45z"/>
<path d="M15617 13614 c-4 -4 -7 -25 -7 -46 0 -33 3 -38 24 -38 21 0 23 4 22
42 -1 30 -6 44 -16 46 -9 1 -19 0 -23 -4z"/>
<path d="M9710 13560 c0 -33 3 -40 20 -40 17 0 20 7 20 40 0 33 -3 40 -20 40
-17 0 -20 -7 -20 -40z"/>
<path d="M1340 13550 c0 -23 4 -30 20 -30 16 0 20 7 20 30 0 23 -4 30 -20 30
-16 0 -20 -7 -20 -30z"/>
<path d="M7250 13415 c0 -38 3 -45 20 -45 17 0 20 7 20 45 0 38 -3 45 -20 45
-17 0 -20 -7 -20 -45z"/>
<path d="M15617 13453 c-4 -3 -7 -24 -7 -45 0 -31 3 -38 20 -38 19 0 22 7 22
50 0 11 0 25 -1 30 -1 11 -24 14 -34 3z"/>
<path d="M9710 13400 c0 -33 3 -40 20 -40 17 0 20 7 20 40 0 33 -3 40 -20 40
-17 0 -20 -7 -20 -40z"/>
<path d="M797 13424 c-15 -15 -33 7 221 -267 110 -118 169 -174 175 -168 11
11 7 16 -192 231 -64 68 -134 144 -156 168 -22 24 -44 40 -48 36z"/>
<path d="M1340 13390 c0 -23 4 -30 20 -30 16 0 20 7 20 30 0 23 -4 30 -20 30
-16 0 -20 -7 -20 -30z"/>
<path d="M7250 13260 c0 -33 3 -40 20 -40 17 0 20 7 20 40 0 33 -3 40 -20 40
-17 0 -20 -7 -20 -40z"/>
<path d="M15610 13260 c0 -35 3 -40 23 -40 20 0 23 5 23 40 1 35 -2 40 -23 40
-20 0 -23 -5 -23 -40z"/>
<path d="M9710 13250 c0 -33 3 -40 20 -40 17 0 20 7 20 40 0 33 -3 40 -20 40
-17 0 -20 -7 -20 -40z"/>
<path d="M1340 13240 c0 -23 4 -30 20 -30 16 0 20 7 20 30 0 23 -4 30 -20 30
-16 0 -20 -7 -20 -30z"/>
<path d="M7250 13105 c0 -38 3 -45 20 -45 17 0 20 7 20 45 0 38 -3 45 -20 45
-17 0 -20 -7 -20 -45z"/>
<path d="M15617 13143 c-4 -3 -7 -24 -7 -45 0 -31 4 -38 19 -38 21 0 33 24 26
55 -2 11 -4 23 -4 28 -1 9 -25 9 -34 0z"/>
<path d="M9710 13090 c0 -33 3 -40 20 -40 17 0 20 7 20 40 0 33 -3 40 -20 40
-17 0 -20 -7 -20 -40z"/>
<path d="M1340 13080 c0 -23 4 -30 20 -30 16 0 20 7 20 30 0 23 -4 30 -20 30
-16 0 -20 -7 -20 -30z"/>
<path d="M7250 12944 c0 -38 3 -45 18 -42 12 2 18 15 20 46 3 37 1 42 -17 42
-18 0 -21 -6 -21 -46z"/>
<path d="M15610 12950 c0 -28 5 -43 16 -47 21 -8 34 14 32 55 -2 26 -6 32 -25
32 -20 0 -23 -5 -23 -40z"/>
<path d="M9710 12940 c0 -33 3 -40 20 -40 17 0 20 7 20 40 0 33 -3 40 -20 40
-17 0 -20 -7 -20 -40z"/>
<path d="M1340 12925 c0 -18 5 -25 20 -25 15 0 20 7 20 25 0 18 -5 25 -20 25
-15 0 -20 -7 -20 -25z"/>
<path d="M7250 12790 c0 -33 3 -40 20 -40 17 0 20 7 20 40 0 33 -3 40 -20 40
-17 0 -20 -7 -20 -40z"/>
<path d="M15610 12790 c0 -36 2 -40 25 -40 24 0 26 3 23 40 -2 34 -5 40 -25
40 -20 0 -23 -5 -23 -40z"/>
<path d="M9710 12780 c0 -33 3 -40 20 -40 17 0 20 7 20 40 0 33 -3 40 -20 40
-17 0 -20 -7 -20 -40z"/>
<path d="M795 12791 c-4 -7 17 -37 47 -69 29 -32 116 -126 192 -210 77 -84
146 -152 154 -152 7 0 12 4 10 10 -3 11 -320 359 -366 403 -19 19 -32 25 -37
18z"/>
<path d="M1340 12770 c0 -23 4 -30 20 -30 16 0 20 7 20 30 0 23 -4 30 -20 30
-16 0 -20 -7 -20 -30z"/>
<path d="M7250 12635 c0 -38 3 -45 20 -45 17 0 20 7 20 45 0 38 -3 45 -20 45
-17 0 -20 -7 -20 -45z"/>
<path d="M15617 12674 c-4 -4 -7 -25 -7 -46 0 -31 4 -38 19 -38 22 0 29 14 27
55 -1 29 -23 45 -39 29z"/>
<path d="M9710 12620 c0 -33 3 -40 20 -40 17 0 20 7 20 40 0 33 -3 40 -20 40
-17 0 -20 -7 -20 -40z"/>
<path d="M1340 12610 c0 -23 4 -30 20 -30 16 0 20 7 20 30 0 23 -4 30 -20 30
-16 0 -20 -7 -20 -30z"/>
<path d="M7250 12475 c0 -38 3 -45 20 -45 17 0 20 7 20 45 0 38 -3 45 -20 45
-17 0 -20 -7 -20 -45z"/>
<path d="M15610 12480 c0 -28 5 -43 16 -47 21 -8 35 15 32 52 -2 23 -9 31 -25
33 -21 3 -23 -1 -23 -38z"/>
<path d="M9710 12470 c0 -33 3 -40 20 -40 17 0 20 7 20 40 0 33 -3 40 -20 40
-17 0 -20 -7 -20 -40z"/>
<path d="M1340 12455 c0 -18 5 -25 20 -25 15 0 20 7 20 25 0 18 -5 25 -20 25
-15 0 -20 -7 -20 -25z"/>
<path d="M12575 12385 c-100 -18 -172 -48 -252 -104 -148 -104 -235 -246 -263
-428 -6 -37 -12 -78 -15 -90 -5 -19 -1 -23 20 -23 24 0 25 2 19 39 -9 56 20
177 64 264 50 101 160 209 263 260 281 138 605 49 774 -213 60 -93 86 -170 91
-265 3 -72 5 -80 24 -83 22 -4 22 9 -2 138 -62 336 -392 566 -723 505z"/>
<path d="M7250 12325 c0 -38 3 -45 20 -45 17 0 20 7 20 45 0 38 -3 45 -20 45
-17 0 -20 -7 -20 -45z"/>
<path d="M15617 12364 c-4 -4 -7 -25 -7 -46 0 -33 3 -38 24 -38 21 0 23 4 22
42 -1 30 -6 44 -16 46 -9 1 -19 0 -23 -4z"/>
<path d="M9710 12310 c0 -33 3 -40 20 -40 17 0 20 7 20 40 0 33 -3 40 -20 40
-17 0 -20 -7 -20 -40z"/>
<path d="M1340 12300 c0 -23 4 -30 20 -30 16 0 20 7 20 30 0 23 -4 30 -20 30
-16 0 -20 -7 -20 -30z"/>
<path d="M7250 12165 c0 -38 3 -45 20 -45 17 0 20 7 20 45 0 38 -3 45 -20 45
-17 0 -20 -7 -20 -45z"/>
<path d="M15610 12165 c0 -38 3 -45 19 -45 23 0 35 31 27 66 -4 15 -14 24 -26
24 -17 0 -20 -7 -20 -45z"/>
<path d="M9710 12149 c0 -33 3 -40 18 -37 12 2 18 14 20 41 3 32 0 37 -17 37
-18 0 -21 -6 -21 -41z"/>
<path d="M795 12160 c-4 -6 17 -37 46 -68 29 -31 81 -86 114 -122 79 -84 176
-188 203 -219 17 -19 25 -22 34 -13 8 8 -4 27 -49 74 -74 79 -195 208 -208
224 -30 34 -116 124 -124 129 -5 3 -13 1 -16 -5z"/>
<path d="M1340 12140 c0 -23 4 -30 20 -30 16 0 20 7 20 30 0 23 -4 30 -20 30
-16 0 -20 -7 -20 -30z"/>
<path d="M7250 12010 c0 -33 3 -40 20 -40 17 0 20 7 20 40 0 33 -3 40 -20 40
-17 0 -20 -7 -20 -40z"/>
<path d="M15610 12010 c0 -35 3 -40 23 -40 20 0 23 5 24 40 1 36 -2 40 -23 40
-21 0 -24 -5 -24 -40z"/>
<path d="M9710 12000 c0 -33 3 -40 20 -40 17 0 20 7 20 40 0 33 -3 40 -20 40
-17 0 -20 -7 -20 -40z"/>
<path d="M1340 11990 c0 -23 4 -30 20 -30 16 0 20 7 20 30 0 23 -4 30 -20 30
-16 0 -20 -7 -20 -30z"/>
<path d="M7250 11856 c0 -40 3 -46 21 -46 18 0 20 5 17 42 -2 31 -8 44 -20 46
-15 3 -18 -4 -18 -42z"/>
<path d="M15617 11893 c-4 -3 -7 -24 -7 -45 0 -34 3 -38 26 -38 24 0 25 2 20
38 -3 20 -5 40 -6 45 0 9 -24 9 -33 0z"/>
<path d="M9710 11840 c0 -33 3 -40 20 -40 17 0 20 7 20 40 0 33 -3 40 -20 40
-17 0 -20 -7 -20 -40z"/>
<path d="M1340 11830 c0 -23 4 -30 20 -30 16 0 20 7 20 30 0 23 -4 30 -20 30
-16 0 -20 -7 -20 -30z"/>
<path d="M7250 11695 c0 -38 3 -45 20 -45 17 0 20 7 20 45 0 38 -3 45 -20 45
-17 0 -20 -7 -20 -45z"/>
<path d="M15610 11700 c0 -27 5 -43 15 -47 22 -8 28 1 30 47 2 36 -1 40 -22
40 -20 0 -23 -5 -23 -40z"/>
<path d="M9710 11691 c0 -35 3 -41 21 -41 17 0 20 5 17 37 -2 27 -8 39 -20 41
-15 3 -18 -4 -18 -37z"/>
<path d="M1340 11675 c0 -18 5 -25 20 -25 15 0 20 7 20 25 0 18 -5 25 -20 25
-15 0 -20 -7 -20 -25z"/>
<path d="M12047 11621 c-6 -26 7 -45 27 -38 23 9 21 57 -3 57 -10 0 -21 -9
-24 -19z"/>
<path d="M13277 11618 c-8 -27 -1 -38 24 -38 14 0 19 7 19 30 0 23 -5 30 -19
30 -11 0 -21 -9 -24 -22z"/>
<path d="M7250 11540 c0 -33 3 -40 20 -40 17 0 20 7 20 40 0 33 -3 40 -20 40
-17 0 -20 -7 -20 -40z"/>
<path d="M15610 11540 c0 -35 3 -40 23 -40 21 0 24 5 23 40 0 35 -3 40 -23 40
-20 0 -23 -5 -23 -40z"/>
<path d="M9710 11530 c0 -33 3 -40 20 -40 17 0 20 7 20 40 0 33 -3 40 -20 40
-17 0 -20 -7 -20 -40z"/>
<path d="M1340 11520 c0 -23 4 -30 20 -30 16 0 20 7 20 30 0 23 -4 30 -20 30
-16 0 -20 -7 -20 -30z"/>
<path d="M797 11534 c-8 -8 16 -38 96 -124 144 -154 272 -293 279 -304 5 -8
11 -7 20 2 10 10 2 23 -37 64 -28 28 -54 57 -60 63 -5 7 -61 66 -123 132 -62
67 -122 133 -133 147 -21 26 -31 31 -42 20z"/>
<path d="M12050 11449 c0 -24 4 -30 18 -27 10 2 18 14 20 31 3 22 -1 27 -17
27 -17 0 -21 -6 -21 -31z"/>
<path d="M13279 11478 c-11 -37 1 -64 25 -55 24 10 21 57 -4 57 -11 0 -20 -1
-21 -2z"/>
<path d="M7250 11385 c0 -38 3 -45 20 -45 17 0 20 7 20 45 0 38 -3 45 -20 45
-17 0 -20 -7 -20 -45z"/>
<path d="M15610 11384 c0 -41 2 -45 23 -42 22 3 23 9 18 76 -1 6 -10 12 -21
12 -17 0 -20 -7 -20 -46z"/>
<path d="M9710 11370 c0 -33 3 -40 20 -40 17 0 20 7 20 40 0 33 -3 40 -20 40
-17 0 -20 -7 -20 -40z"/>
<path d="M1340 11360 c0 -23 4 -30 20 -30 16 0 20 7 20 30 0 23 -4 30 -20 30
-16 0 -20 -7 -20 -30z"/>
<path d="M12046 11293 c6 -34 9 -37 29 -30 8 4 15 18 15 32 0 20 -5 25 -24 25
-21 0 -24 -4 -20 -27z"/>
<path d="M13276 11312 c-3 -5 -2 -19 1 -31 8 -31 37 -23 41 12 3 21 -1 27 -17
27 -11 0 -22 -4 -25 -8z"/>
<path d="M7250 11225 c0 -38 3 -45 20 -45 17 0 20 7 20 45 0 38 -3 45 -20 45
-17 0 -20 -7 -20 -45z"/>
<path d="M15610 11230 c0 -28 5 -43 16 -47 20 -8 33 13 29 46 -2 14 -4 29 -4
34 -1 4 -10 7 -21 7 -17 0 -20 -7 -20 -40z"/>
<path d="M9710 11222 c0 -43 6 -53 26 -45 9 3 14 20 14 44 0 32 -3 39 -20 39
-17 0 -20 -7 -20 -38z"/>
<path d="M1340 11205 c0 -18 5 -25 20 -25 15 0 20 7 20 25 0 18 -5 25 -20 25
-15 0 -20 -7 -20 -25z"/>
<path d="M12044 11135 c0 -19 5 -25 23 -25 18 0 23 6 23 25 0 19 -5 25 -23 25
-18 0 -23 -6 -23 -25z"/>
<path d="M13276 11151 c-10 -16 5 -41 25 -41 14 0 19 7 19 25 0 18 -5 25 -19
25 -11 0 -22 -4 -25 -9z"/>
<path d="M7250 11075 c0 -38 3 -45 20 -45 17 0 20 7 20 45 0 38 -3 45 -20 45
-17 0 -20 -7 -20 -45z"/>
<path d="M15617 11113 c-4 -3 -7 -24 -7 -45 0 -33 3 -38 24 -38 24 0 24 1 18
73 -2 17 -22 23 -35 10z"/>
<path d="M9710 11060 c0 -33 3 -40 20 -40 17 0 20 7 20 40 0 33 -3 40 -20 40
-17 0 -20 -7 -20 -40z"/>
<path d="M1340 11050 c0 -23 4 -30 20 -30 16 0 20 7 20 30 0 23 -4 30 -20 30
-16 0 -20 -7 -20 -30z"/>
<path d="M12045 10991 c-8 -27 1 -41 26 -41 16 0 20 6 17 27 -4 34 -33 43 -43
14z"/>
<path d="M13275 10991 c-8 -27 1 -41 26 -41 16 0 20 6 17 27 -4 34 -33 43 -43
14z"/>
<path d="M7250 10915 c0 -38 3 -45 20 -45 17 0 20 7 20 45 0 38 -3 45 -20 45
-17 0 -20 -7 -20 -45z"/>
<path d="M15610 10915 c0 -42 2 -46 22 -43 19 2 22 9 22 43 0 34 -3 41 -22 43
-20 3 -22 -1 -22 -43z"/>
<path d="M9710 10900 c0 -33 3 -40 20 -40 17 0 20 7 20 40 0 33 -3 40 -20 40
-17 0 -20 -7 -20 -40z"/>
<path d="M1340 10890 c0 -23 4 -30 20 -30 16 0 20 7 20 30 0 23 -4 30 -20 30
-16 0 -20 -7 -20 -30z"/>
<path d="M792 10901 c3 -10 127 -148 282 -313 87 -93 126 -125 126 -102 0 3
-24 32 -52 63 -29 32 -115 126 -192 209 -76 84 -145 152 -153 152 -8 0 -13 -4
-11 -9z"/>
<path d="M12044 10836 c-9 -24 3 -46 26 -46 17 0 21 5 18 27 -3 31 -34 44 -44
19z"/>
<path d="M13279 10840 c-5 -38 -3 -45 16 -45 14 0 21 8 23 28 3 22 -1 27 -17
27 -12 0 -22 -4 -22 -10z"/>
<path d="M7250 10760 c0 -33 3 -40 20 -40 17 0 20 7 20 40 0 33 -3 40 -20 40
-17 0 -20 -7 -20 -40z"/>
<path d="M15610 10760 c0 -36 3 -40 25 -40 23 0 25 4 25 40 0 36 -2 40 -25 40
-22 0 -25 -4 -25 -40z"/>
<path d="M9710 10750 c0 -33 3 -40 20 -40 17 0 20 7 20 40 0 33 -3 40 -20 40
-17 0 -20 -7 -20 -40z"/>
<path d="M1340 10740 c0 -23 4 -30 20 -30 16 0 20 7 20 30 0 23 -4 30 -20 30
-16 0 -20 -7 -20 -30z"/>
<path d="M12044 10676 c-9 -24 3 -46 26 -46 17 0 21 5 18 27 -3 31 -34 44 -44
19z"/>
<path d="M13279 10680 c-5 -38 -2 -45 19 -48 19 -3 22 1 22 27 0 24 -4 31 -20
31 -11 0 -21 -4 -21 -10z"/>
<path d="M7257 10644 c-4 -4 -7 -25 -7 -46 0 -32 3 -38 21 -38 18 0 20 5 17
42 -3 39 -16 57 -31 42z"/>
<path d="M15617 10644 c-4 -4 -7 -25 -7 -46 0 -34 3 -38 26 -38 23 0 25 3 22
42 -3 41 -22 60 -41 42z"/>
<path d="M9710 10590 c0 -33 3 -40 20 -40 17 0 20 7 20 40 0 33 -3 40 -20 40
-17 0 -20 -7 -20 -40z"/>
<path d="M1340 10580 c0 -23 4 -30 20 -30 16 0 20 7 20 30 0 23 -4 30 -20 30
-16 0 -20 -7 -20 -30z"/>
<path d="M12044 10503 c1 -21 6 -28 21 -28 14 0 21 8 23 28 3 23 0 27 -21 27
-20 0 -24 -5 -23 -27z"/>
<path d="M13276 10522 c-11 -18 2 -47 20 -47 13 0 20 8 22 28 3 21 -1 27 -17
27 -11 0 -22 -4 -25 -8z"/>
<path d="M7250 10445 c0 -38 3 -45 20 -45 17 0 20 7 20 45 0 38 -3 45 -20 45
-17 0 -20 -7 -20 -45z"/>
<path d="M15610 10450 c0 -27 5 -43 15 -47 22 -8 27 0 30 47 3 36 1 40 -21 40
-21 0 -24 -4 -24 -40z"/>
<path d="M9710 10440 c0 -33 3 -40 20 -40 17 0 20 7 20 40 0 33 -3 40 -20 40
-17 0 -20 -7 -20 -40z"/>
<path d="M1340 10425 c0 -18 5 -25 20 -25 15 0 20 7 20 25 0 18 -5 25 -20 25
-15 0 -20 -7 -20 -25z"/>
<path d="M12044 10345 c1 -19 7 -25 24 -25 17 0 22 6 22 25 0 20 -5 25 -24 25
-19 0 -24 -5 -22 -25z"/>
<path d="M13279 10368 c-1 -2 -3 -13 -4 -25 -2 -18 3 -23 21 -23 19 0 24 5 24
25 0 18 -5 25 -20 25 -11 0 -21 -1 -21 -2z"/>
<path d="M7250 10291 c0 -24 5 -41 14 -44 20 -8 26 2 26 45 0 31 -3 38 -20 38
-17 0 -20 -7 -20 -39z"/>
<path d="M15610 10290 c0 -35 3 -40 23 -40 23 0 25 8 18 73 -1 4 -10 7 -21 7
-17 0 -20 -7 -20 -40z"/>
<path d="M9710 10280 c0 -33 3 -40 20 -40 17 0 20 7 20 40 0 33 -3 40 -20 40
-17 0 -20 -7 -20 -40z"/>
<path d="M1340 10270 c0 -23 4 -30 20 -30 16 0 20 7 20 30 0 23 -4 30 -20 30
-16 0 -20 -7 -20 -30z"/>
<path d="M794 10279 c-3 -6 16 -34 43 -62 38 -40 230 -248 330 -357 9 -10 16
-11 24 -3 8 8 -43 69 -186 222 -108 116 -198 211 -200 211 -2 0 -7 -5 -11 -11z"/>
<path d="M12048 10203 c-7 -27 1 -43 23 -43 16 0 20 6 17 27 -3 32 -33 43 -40
16z"/>
<path d="M13275 10201 c-8 -27 1 -41 26 -41 16 0 20 6 17 27 -4 34 -33 43 -43
14z"/>
<path d="M7250 10135 c0 -38 3 -45 20 -45 17 0 20 7 20 45 0 38 -3 45 -20 45
-17 0 -20 -7 -20 -45z"/>
<path d="M15610 10136 c0 -38 3 -46 19 -46 22 0 29 14 27 55 -2 23 -7 31 -24
33 -20 3 -22 -1 -22 -42z"/>
<path d="M9710 10120 c0 -33 3 -40 20 -40 17 0 20 7 20 40 0 33 -3 40 -20 40
-17 0 -20 -7 -20 -40z"/>
<path d="M1340 10110 c0 -23 4 -30 20 -30 16 0 20 7 20 30 0 23 -4 30 -20 30
-16 0 -20 -7 -20 -30z"/>
<path d="M12048 10031 c-4 -27 -2 -31 19 -31 21 0 24 4 21 27 -4 40 -34 42
-40 4z"/>
<path d="M13275 10041 c-8 -27 1 -41 26 -41 16 0 20 6 17 27 -4 34 -33 43 -43
14z"/>
<path d="M7250 9975 c0 -38 3 -45 20 -45 17 0 20 7 20 45 0 38 -3 45 -20 45
-17 0 -20 -7 -20 -45z"/>
<path d="M15610 9980 c0 -27 5 -43 15 -47 22 -8 28 1 30 47 1 36 -1 40 -22 40
-20 0 -23 -5 -23 -40z"/>
<path d="M9710 9971 c0 -35 3 -41 21 -41 17 0 20 5 17 37 -2 27 -8 39 -20 41
-15 3 -18 -4 -18 -37z"/>
<path d="M1340 9955 c0 -18 5 -25 20 -25 15 0 20 7 20 25 0 18 -5 25 -20 25
-15 0 -20 -7 -20 -25z"/>
<path d="M12046 9892 c-10 -17 6 -52 26 -52 15 0 19 6 16 27 -3 27 -30 44 -42
25z"/>
<path d="M13275 9890 c-11 -18 6 -50 26 -50 14 0 19 7 19 30 0 23 -5 30 -19
30 -11 0 -23 -5 -26 -10z"/>
<path d="M7250 9825 c0 -38 3 -45 20 -45 17 0 20 7 20 45 0 38 -3 45 -20 45
-17 0 -20 -7 -20 -45z"/>
<path d="M15617 9863 c-4 -3 -7 -24 -7 -45 0 -31 4 -38 19 -38 21 0 33 24 26
55 -2 11 -4 23 -4 28 -1 9 -25 9 -34 0z"/>
<path d="M9710 9810 c0 -33 3 -40 20 -40 17 0 20 7 20 40 0 33 -3 40 -20 40
-17 0 -20 -7 -20 -40z"/>
<path d="M1340 9800 c0 -23 4 -30 20 -30 16 0 20 7 20 30 0 23 -4 30 -20 30
-16 0 -20 -7 -20 -30z"/>
<path d="M12044 9713 c2 -20 9 -28 22 -28 13 0 20 8 22 28 3 23 0 27 -22 27
-21 0 -24 -4 -22 -27z"/>
<path d="M13275 9730 c-3 -6 -3 -19 0 -31 10 -29 39 -20 43 14 3 21 -1 27 -17
27 -11 0 -23 -5 -26 -10z"/>
<path d="M7250 9665 c0 -38 3 -45 20 -45 17 0 20 7 20 45 0 38 -3 45 -20 45
-17 0 -20 -7 -20 -45z"/>
<path d="M15610 9665 c0 -38 3 -45 19 -45 23 0 35 31 27 66 -4 15 -14 24 -26
24 -17 0 -20 -7 -20 -45z"/>
<path d="M9710 9650 c0 -33 3 -40 20 -40 17 0 20 7 20 40 0 33 -3 40 -20 40
-17 0 -20 -7 -20 -40z"/>
<path d="M1340 9640 c0 -23 4 -30 20 -30 16 0 20 7 20 30 0 23 -4 30 -20 30
-16 0 -20 -7 -20 -30z"/>
<path d="M795 9650 c-4 -6 54 -74 127 -153 73 -78 161 -173 196 -211 45 -49
67 -65 74 -58 8 8 -25 50 -112 144 -144 155 -271 288 -276 288 -1 0 -6 -5 -9
-10z"/>
<path d="M12044 9553 c2 -20 9 -28 22 -28 13 0 20 8 22 28 3 23 0 27 -22 27
-21 0 -24 -4 -22 -27z"/>
<path d="M13275 9570 c-3 -6 -3 -19 0 -31 10 -29 39 -20 43 14 3 21 -1 27 -17
27 -11 0 -23 -5 -26 -10z"/>
<path d="M7250 9510 c0 -33 3 -40 20 -40 17 0 20 7 20 40 0 33 -3 40 -20 40
-17 0 -20 -7 -20 -40z"/>
<path d="M15610 9510 c0 -36 3 -40 25 -40 23 0 25 4 25 40 0 36 -2 40 -25 40
-22 0 -25 -4 -25 -40z"/>
<path d="M9710 9500 c0 -33 3 -40 20 -40 17 0 20 7 20 40 0 33 -3 40 -20 40
-17 0 -20 -7 -20 -40z"/>
<path d="M1340 9490 c0 -23 4 -30 20 -30 16 0 20 7 20 30 0 23 -4 30 -20 30
-16 0 -20 -7 -20 -30z"/>
<path d="M12044 9395 c1 -19 7 -25 24 -25 17 0 22 6 22 25 0 20 -5 25 -24 25
-19 0 -24 -5 -22 -25z"/>
<path d="M13277 9413 c-9 -20 0 -38 21 -41 18 -3 22 1 22 22 0 19 -5 26 -19
26 -11 0 -22 -3 -24 -7z"/>
<path d="M7250 9355 c0 -38 3 -45 20 -45 17 0 20 7 20 45 0 38 -3 45 -20 45
-17 0 -20 -7 -20 -45z"/>
<path d="M15617 9394 c-4 -4 -7 -25 -7 -46 0 -33 3 -38 24 -38 21 0 23 4 22
42 -1 30 -6 44 -16 46 -9 1 -19 0 -23 -4z"/>
<path d="M9710 9340 c0 -33 3 -40 20 -40 17 0 20 7 20 40 0 33 -3 40 -20 40
-17 0 -20 -7 -20 -40z"/>
<path d="M1340 9330 c0 -23 4 -30 20 -30 16 0 20 7 20 30 0 23 -4 30 -20 30
-16 0 -20 -7 -20 -30z"/>
<path d="M12048 9253 c-7 -27 1 -43 23 -43 16 0 20 6 17 27 -3 32 -33 43 -40
16z"/>
<path d="M13277 9262 c-12 -18 1 -47 22 -50 19 -3 22 0 19 25 -3 27 -30 44
-41 25z"/>
<path d="M7250 9195 c0 -38 3 -45 20 -45 17 0 20 7 20 45 0 38 -3 45 -20 45
-17 0 -20 -7 -20 -45z"/>
<path d="M15610 9200 c0 -28 5 -43 16 -47 21 -8 35 15 32 52 -2 23 -9 31 -25
33 -21 3 -23 -1 -23 -38z"/>
<path d="M9710 9190 c0 -33 3 -40 20 -40 17 0 20 7 20 40 0 33 -3 40 -20 40
-17 0 -20 -7 -20 -40z"/>
<path d="M1340 9175 c0 -18 5 -25 20 -25 15 0 20 7 20 25 0 18 -5 25 -20 25
-15 0 -20 -7 -20 -25z"/>
<path d="M12047 9095 c-9 -22 3 -46 22 -43 10 2 16 13 16 28 0 28 -29 40 -38
15z"/>
<path d="M13274 9095 c-9 -23 3 -45 26 -45 16 0 20 7 20 30 0 23 -4 30 -20 30
-11 0 -23 -7 -26 -15z"/>
<path d="M7250 9040 c0 -33 3 -40 20 -40 17 0 20 7 20 40 0 33 -3 40 -20 40
-17 0 -20 -7 -20 -40z"/>
<path d="M15610 9040 c0 -35 3 -40 23 -40 21 0 24 5 24 40 0 35 -3 40 -24 40
-20 0 -23 -5 -23 -40z"/>
<path d="M9710 9030 c0 -33 3 -40 20 -40 17 0 20 7 20 40 0 33 -3 40 -20 40
-17 0 -20 -7 -20 -40z"/>
<path d="M1347 9044 c-4 -4 -7 -18 -7 -31 0 -17 6 -23 21 -23 16 0 20 5 17 27
-3 26 -18 39 -31 27z"/>
<path d="M790 9022 c0 -4 88 -103 196 -220 132 -143 200 -210 207 -203 11 11
-8 33 -197 235 -63 67 -128 138 -147 159 -30 34 -59 48 -59 29z"/>
<path d="M12047 8935 c-9 -22 3 -46 22 -43 10 2 16 13 16 28 0 28 -29 40 -38
15z"/>
<path d="M13274 8935 c-9 -23 3 -45 26 -45 16 0 20 7 20 30 0 23 -4 30 -20 30
-11 0 -23 -7 -26 -15z"/>
<path d="M7250 8885 c0 -38 3 -45 20 -45 17 0 20 7 20 45 0 38 -3 45 -20 45
-17 0 -20 -7 -20 -45z"/>
<path d="M15610 8885 c0 -38 3 -45 19 -45 23 0 35 31 27 66 -4 15 -14 24 -26
24 -17 0 -20 -7 -20 -45z"/>
<path d="M9710 8869 c0 -33 3 -40 18 -37 12 2 18 14 20 41 3 32 0 37 -17 37
-18 0 -21 -6 -21 -41z"/>
<path d="M1340 8860 c0 -23 4 -30 20 -30 16 0 20 7 20 30 0 23 -4 30 -20 30
-16 0 -20 -7 -20 -30z"/>
<path d="M12047 8778 c-7 -23 5 -49 22 -46 9 2 17 15 19 31 3 21 -1 27 -17 27
-10 0 -21 -6 -24 -12z"/>
<path d="M13277 8783 c-10 -22 -1 -48 18 -48 14 0 21 8 23 28 3 21 -1 27 -17
27 -11 0 -22 -3 -24 -7z"/>
<path d="M7250 8725 c0 -38 3 -45 20 -45 17 0 20 7 20 45 0 38 -3 45 -20 45
-17 0 -20 -7 -20 -45z"/>
<path d="M15610 8730 c0 -28 5 -43 16 -47 21 -8 34 14 32 55 -2 26 -6 32 -25
32 -20 0 -23 -5 -23 -40z"/>
<path d="M9710 8720 c0 -33 3 -40 20 -40 17 0 20 7 20 40 0 33 -3 40 -20 40
-17 0 -20 -7 -20 -40z"/>
<path d="M1340 8705 c0 -18 5 -25 20 -25 15 0 20 7 20 25 0 18 -5 25 -20 25
-15 0 -20 -7 -20 -25z"/>
<path d="M12044 8605 c-2 -20 3 -25 22 -25 19 0 24 5 24 25 0 19 -5 25 -22 25
-17 0 -23 -6 -24 -25z"/>
<path d="M13274 8615 c-8 -20 4 -35 27 -35 14 0 19 7 19 25 0 18 -5 25 -20 25
-11 0 -23 -7 -26 -15z"/>
<path d="M7250 8576 c0 -40 3 -46 21 -46 18 0 20 5 17 42 -2 31 -8 44 -20 46
-15 3 -18 -4 -18 -42z"/>
<path d="M15617 8613 c-4 -3 -7 -24 -7 -45 0 -34 3 -38 26 -38 24 0 25 2 20
38 -3 20 -5 40 -6 45 0 9 -24 9 -33 0z"/>
<path d="M9710 8560 c0 -33 3 -40 20 -40 17 0 20 7 20 40 0 33 -3 40 -20 40
-17 0 -20 -7 -20 -40z"/>
<path d="M1340 8550 c0 -23 4 -30 20 -30 16 0 20 7 20 30 0 23 -4 30 -20 30
-16 0 -20 -7 -20 -30z"/>
<path d="M13275 8461 c-8 -27 1 -41 26 -41 16 0 20 6 17 27 -4 34 -33 43 -43
14z"/>
<path d="M12047 8463 c-4 -3 -7 -15 -7 -25 0 -13 7 -18 25 -18 20 0 25 5 25
25 0 18 -5 25 -18 25 -10 0 -22 -3 -25 -7z"/>
<path d="M7250 8415 c0 -38 3 -45 20 -45 17 0 20 7 20 45 0 38 -3 45 -20 45
-17 0 -20 -7 -20 -45z"/>
<path d="M15610 8415 c0 -38 3 -45 20 -45 21 0 22 2 23 35 0 45 -4 55 -23 55
-17 0 -20 -7 -20 -45z"/>
<path d="M9710 8400 c0 -33 3 -40 20 -40 17 0 20 7 20 40 0 33 -3 40 -20 40
-17 0 -20 -7 -20 -40z"/>
<path d="M1342 8393 c2 -17 10 -29 21 -31 13 -3 17 3 17 27 0 25 -4 31 -21 31
-16 0 -20 -5 -17 -27z"/>
<path d="M796 8401 c-8 -13 1 -23 234 -274 96 -104 158 -163 164 -157 10 10
-5 29 -168 205 -202 219 -223 239 -230 226z"/>
<path d="M12048 8296 c-6 -30 -2 -36 24 -36 15 0 19 6 16 27 -4 37 -34 43 -40
9z"/>
<path d="M13275 8301 c-8 -27 1 -41 26 -41 16 0 20 6 17 27 -4 34 -33 43 -43
14z"/>
<path d="M7250 8260 c0 -33 3 -40 20 -40 17 0 20 7 20 40 0 33 -3 40 -20 40
-17 0 -20 -7 -20 -40z"/>
<path d="M15610 8260 c0 -35 3 -40 23 -40 21 0 24 5 23 40 -1 35 -4 40 -23 40
-20 0 -23 -5 -23 -40z"/>
<path d="M9710 8250 c0 -33 3 -40 20 -40 17 0 20 7 20 40 0 33 -3 40 -20 40
-17 0 -20 -7 -20 -40z"/>
<path d="M1340 8240 c0 -23 4 -30 20 -30 16 0 20 7 20 30 0 23 -4 30 -20 30
-16 0 -20 -7 -20 -30z"/>
<path d="M12046 8138 c-3 -13 -1 -27 4 -32 15 -15 40 2 40 29 0 33 -35 35 -44
3z"/>
<path d="M13275 8140 c-8 -26 1 -40 26 -40 14 0 19 7 19 30 0 23 -5 30 -19 30
-11 0 -22 -9 -26 -20z"/>
<path d="M7250 8105 c0 -38 3 -45 20 -45 17 0 20 7 20 45 0 38 -3 45 -20 45
-17 0 -20 -7 -20 -45z"/>
<path d="M15617 8143 c-4 -3 -7 -24 -7 -45 0 -34 3 -38 24 -38 25 0 27 10 17
83 -1 9 -25 9 -34 0z"/>
<path d="M9710 8090 c0 -33 3 -40 20 -40 17 0 20 7 20 40 0 33 -3 40 -20 40
-17 0 -20 -7 -20 -40z"/>
<path d="M1340 8080 c0 -23 4 -30 20 -30 16 0 20 7 20 30 0 23 -4 30 -20 30
-16 0 -20 -7 -20 -30z"/>
<path d="M12045 7973 c8 -35 11 -37 30 -30 8 4 15 18 15 32 0 20 -5 25 -26 25
-24 0 -25 -3 -19 -27z"/>
<path d="M13275 7990 c-3 -6 -3 -19 0 -31 10 -29 39 -20 43 14 3 21 -1 27 -17
27 -11 0 -23 -5 -26 -10z"/>
<path d="M7250 7945 c0 -38 3 -45 20 -45 17 0 20 7 20 45 0 38 -3 45 -20 45
-17 0 -20 -7 -20 -45z"/>
<path d="M15612 7948 c2 -35 7 -43 23 -43 16 0 20 6 18 35 0 19 -1 38 -2 43
-1 4 -10 7 -22 7 -18 0 -20 -5 -17 -42z"/>
<path d="M9710 7942 c0 -43 6 -53 26 -45 9 3 14 20 14 44 0 32 -3 39 -20 39
-17 0 -20 -7 -20 -38z"/>
<path d="M1340 7925 c0 -18 5 -25 20 -25 15 0 20 7 20 25 0 18 -5 25 -20 25
-15 0 -20 -7 -20 -25z"/>
<path d="M12045 7813 c8 -35 11 -37 30 -30 8 4 15 18 15 32 0 20 -5 25 -26 25
-24 0 -25 -3 -19 -27z"/>
<path d="M13275 7830 c-3 -6 -3 -19 0 -31 10 -29 39 -20 43 14 3 21 -1 27 -17
27 -11 0 -23 -5 -26 -10z"/>
<path d="M7250 7790 c0 -33 3 -40 20 -40 17 0 20 7 20 40 0 33 -3 40 -20 40
-17 0 -20 -7 -20 -40z"/>
<path d="M15610 7790 c0 -33 3 -40 20 -40 12 0 21 8 24 23 9 42 4 57 -21 57
-20 0 -23 -5 -23 -40z"/>
<path d="M9710 7780 c0 -33 3 -40 20 -40 17 0 20 7 20 40 0 33 -3 40 -20 40
-17 0 -20 -7 -20 -40z"/>
<path d="M1340 7770 c0 -23 4 -30 20 -30 16 0 20 7 20 30 0 23 -4 30 -20 30
-16 0 -20 -7 -20 -30z"/>
<path d="M795 7770 c-4 -6 74 -98 176 -208 100 -108 188 -204 196 -212 9 -10
16 -11 23 -4 12 12 15 9 -136 172 -60 64 -138 148 -174 187 -72 78 -75 81 -85
65z"/>
<path d="M7250 7635 c0 -38 3 -45 20 -45 17 0 20 7 20 45 0 38 -3 45 -20 45
-17 0 -20 -7 -20 -45z"/>
<path d="M12042 7655 c-1 -21 3 -25 23 -25 20 0 25 5 25 25 0 19 -5 25 -23 25
-17 0 -23 -6 -25 -25z"/>
<path d="M13274 7658 c1 -16 8 -24 24 -26 18 -3 22 1 22 22 0 21 -5 26 -24 26
-18 0 -23 -5 -22 -22z"/>
<path d="M15612 7638 c2 -35 7 -43 23 -43 17 0 20 6 19 40 0 34 -4 41 -23 43
-20 3 -22 0 -19 -40z"/>
<path d="M9710 7620 c0 -33 3 -40 20 -40 17 0 20 7 20 40 0 33 -3 40 -20 40
-17 0 -20 -7 -20 -40z"/>
<path d="M1340 7610 c0 -23 4 -30 20 -30 16 0 20 7 20 30 0 23 -4 30 -20 30
-16 0 -20 -7 -20 -30z"/>
<path d="M12044 7516 c-9 -24 3 -46 26 -46 17 0 21 5 18 27 -3 31 -34 44 -44
19z"/>
<path d="M13278 7523 c-12 -23 -1 -48 20 -51 20 -3 23 0 20 25 -3 26 -31 45
-40 26z"/>
<path d="M7250 7474 c0 -38 3 -45 18 -42 12 2 18 15 20 46 3 37 1 42 -17 42
-18 0 -21 -6 -21 -46z"/>
<path d="M15612 7478 c2 -35 7 -43 23 -43 16 0 21 8 23 43 3 39 2 42 -23 42
-25 0 -26 -3 -23 -42z"/>
<path d="M9710 7470 c0 -33 3 -40 20 -40 17 0 20 7 20 40 0 33 -3 40 -20 40
-17 0 -20 -7 -20 -40z"/>
<path d="M1340 7455 c0 -18 5 -25 20 -25 15 0 20 7 20 25 0 18 -5 25 -20 25
-15 0 -20 -7 -20 -25z"/>
<path d="M7250 7326 c0 -40 3 -46 21 -46 18 0 20 5 17 42 -2 31 -8 44 -20 46
-15 3 -18 -4 -18 -42z"/>
<path d="M12048 7365 c-6 -7 17 -165 32 -212 51 -164 173 -305 325 -377 93
-45 133 -55 240 -62 257 -17 495 125 607 362 27 59 49 146 62 247 5 46 5 48
-16 45 -20 -3 -22 -8 -20 -58 10 -229 -192 -484 -437 -552 -81 -22 -224 -24
-306 -3 -252 64 -445 296 -449 537 -1 64 -4 78 -17 78 -9 0 -18 -2 -21 -5z"/>
<path d="M15617 7364 c-4 -4 -7 -25 -7 -46 0 -34 3 -38 26 -38 23 0 25 3 22
42 -3 41 -22 60 -41 42z"/>
<path d="M9710 7310 c0 -33 3 -40 20 -40 17 0 20 7 20 40 0 33 -3 40 -20 40
-17 0 -20 -7 -20 -40z"/>
<path d="M1340 7300 c0 -23 4 -30 20 -30 16 0 20 7 20 30 0 23 -4 30 -20 30
-16 0 -20 -7 -20 -30z"/>
<path d="M7250 7165 c0 -38 3 -45 20 -45 17 0 20 7 20 45 0 38 -3 45 -20 45
-17 0 -20 -7 -20 -45z"/>
<path d="M15610 7166 c0 -39 3 -46 20 -46 11 0 20 5 21 10 5 61 2 75 -19 78
-20 3 -22 -1 -22 -42z"/>
<path d="M9710 7149 c0 -33 3 -40 18 -37 12 2 18 14 20 41 3 32 0 37 -17 37
-18 0 -21 -6 -21 -41z"/>
<path d="M1342 7143 c2 -17 10 -29 21 -31 13 -3 17 3 17 27 0 25 -4 31 -21 31
-16 0 -20 -5 -17 -27z"/>
<path d="M797 7144 c-7 -8 16 -39 81 -109 273 -292 306 -325 315 -316 7 7 -25
48 -95 123 -58 62 -144 156 -192 208 -89 98 -98 105 -109 94z"/>
<path d="M7250 7010 c0 -33 3 -40 20 -40 17 0 20 7 20 40 0 33 -3 40 -20 40
-17 0 -20 -7 -20 -40z"/>
<path d="M15610 7010 c0 -35 3 -40 23 -40 23 0 25 8 18 73 -1 4 -10 7 -21 7
-17 0 -20 -7 -20 -40z"/>
<path d="M9710 7000 c0 -33 3 -40 20 -40 17 0 20 7 20 40 0 33 -3 40 -20 40
-17 0 -20 -7 -20 -40z"/>
<path d="M1340 6990 c0 -23 4 -30 20 -30 16 0 20 7 20 30 0 23 -4 30 -20 30
-16 0 -20 -7 -20 -30z"/>
<path d="M7250 6855 c0 -38 3 -45 20 -45 17 0 20 7 20 45 0 38 -3 45 -20 45
-17 0 -20 -7 -20 -45z"/>
<path d="M15617 6894 c-4 -4 -7 -25 -7 -46 0 -33 3 -38 24 -38 21 0 23 4 22
42 -1 30 -6 44 -16 46 -9 1 -19 0 -23 -4z"/>
<path d="M9710 6840 c0 -33 3 -40 20 -40 17 0 20 7 20 40 0 33 -3 40 -20 40
-17 0 -20 -7 -20 -40z"/>
<path d="M1340 6830 c0 -23 4 -30 20 -30 16 0 20 7 20 30 0 23 -4 30 -20 30
-16 0 -20 -7 -20 -30z"/>
<path d="M7250 6695 c0 -38 3 -45 20 -45 17 0 20 7 20 45 0 38 -3 45 -20 45
-17 0 -20 -7 -20 -45z"/>
<path d="M15612 6698 c2 -35 7 -43 23 -43 17 0 20 7 20 43 1 38 -2 42 -23 42
-21 0 -23 -4 -20 -42z"/>
<path d="M9710 6691 c0 -35 3 -41 21 -41 17 0 20 5 17 37 -2 27 -8 39 -20 41
-15 3 -18 -4 -18 -37z"/>
<path d="M1340 6675 c0 -18 5 -25 20 -25 15 0 20 7 20 25 0 18 -5 25 -20 25
-15 0 -20 -7 -20 -25z"/>
<path d="M7250 6540 c0 -33 3 -40 20 -40 17 0 20 7 20 40 0 33 -3 40 -20 40
-17 0 -20 -7 -20 -40z"/>
<path d="M15610 6540 c0 -35 3 -40 23 -40 19 0 22 5 23 40 1 35 -2 40 -23 40
-20 0 -23 -5 -23 -40z"/>
<path d="M9710 6530 c0 -33 3 -40 20 -40 17 0 20 7 20 40 0 33 -3 40 -20 40
-17 0 -20 -7 -20 -40z"/>
<path d="M1340 6520 c0 -23 4 -30 20 -30 16 0 20 7 20 30 0 23 -4 30 -20 30
-16 0 -20 -7 -20 -30z"/>
<path d="M795 6520 c-7 -12 0 -21 229 -268 105 -114 163 -169 169 -163 7 7 -3
25 -28 53 -79 88 -358 388 -361 388 -2 0 -6 -5 -9 -10z"/>
<path d="M7250 6385 c0 -38 3 -45 20 -45 17 0 20 7 20 45 0 38 -3 45 -20 45
-17 0 -20 -7 -20 -45z"/>
<path d="M15610 6386 c0 -39 3 -46 20 -46 38 0 41 83 2 88 -20 3 -22 -1 -22
-42z"/>
<path d="M9710 6370 c0 -33 3 -40 20 -40 17 0 20 7 20 40 0 33 -3 40 -20 40
-17 0 -20 -7 -20 -40z"/>
<path d="M1340 6360 c0 -23 4 -30 20 -30 16 0 20 7 20 30 0 23 -4 30 -20 30
-16 0 -20 -7 -20 -30z"/>
<path d="M7250 6224 c0 -38 3 -45 18 -42 12 2 18 15 20 46 3 37 1 42 -17 42
-18 0 -21 -6 -21 -46z"/>
<path d="M15610 6230 c0 -27 5 -43 15 -47 21 -8 26 -1 32 46 5 39 4 41 -21 41
-24 0 -26 -3 -26 -40z"/>
<path d="M9710 6220 c0 -33 3 -40 20 -40 17 0 20 7 20 40 0 33 -3 40 -20 40
-17 0 -20 -7 -20 -40z"/>
<path d="M1340 6205 c0 -18 5 -25 20 -25 15 0 20 7 20 25 0 18 -5 25 -20 25
-15 0 -20 -7 -20 -25z"/>
<path d="M7250 6075 c0 -38 3 -45 20 -45 17 0 20 7 20 45 0 38 -3 45 -20 45
-17 0 -20 -7 -20 -45z"/>
<path d="M15617 6114 c-4 -4 -7 -25 -7 -46 0 -33 3 -38 24 -38 21 0 23 4 22
42 -1 30 -6 44 -16 46 -9 1 -19 0 -23 -4z"/>
<path d="M9710 6060 c0 -33 3 -40 20 -40 17 0 20 7 20 40 0 33 -3 40 -20 40
-17 0 -20 -7 -20 -40z"/>
<path d="M1340 6050 c0 -23 4 -30 20 -30 16 0 20 7 20 30 0 23 -4 30 -20 30
-16 0 -20 -7 -20 -30z"/>
<path d="M7250 5915 c0 -38 3 -45 20 -45 17 0 20 7 20 45 0 38 -3 45 -20 45
-17 0 -20 -7 -20 -45z"/>
<path d="M15610 5916 c0 -38 3 -46 19 -46 22 0 29 14 27 55 -1 23 -6 31 -23
33 -21 3 -23 -1 -23 -42z"/>
<path d="M9710 5900 c0 -33 3 -40 20 -40 17 0 20 7 20 40 0 33 -3 40 -20 40
-17 0 -20 -7 -20 -40z"/>
<path d="M1340 5890 c0 -23 4 -30 20 -30 16 0 20 7 20 30 0 23 -4 30 -20 30
-16 0 -20 -7 -20 -30z"/>
<path d="M795 5890 c-4 -7 6 -26 28 -48 19 -21 105 -113 191 -207 145 -156
186 -193 186 -167 0 6 -64 79 -142 164 -233 251 -254 272 -263 258z"/>
<path d="M7250 5760 c0 -33 3 -40 20 -40 17 0 20 7 20 40 0 33 -3 40 -20 40
-17 0 -20 -7 -20 -40z"/>
<path d="M15610 5760 c0 -35 3 -40 23 -40 21 0 24 5 24 40 0 35 -3 40 -24 40
-20 0 -23 -5 -23 -40z"/>
<path d="M9710 5750 c0 -33 3 -40 20 -40 17 0 20 7 20 40 0 33 -3 40 -20 40
-17 0 -20 -7 -20 -40z"/>
<path d="M1347 5764 c-4 -4 -7 -18 -7 -31 0 -17 6 -23 21 -23 16 0 20 5 17 27
-3 26 -18 39 -31 27z"/>
<path d="M7250 5605 c0 -38 3 -45 20 -45 17 0 20 7 20 45 0 38 -3 45 -20 45
-17 0 -20 -7 -20 -45z"/>
<path d="M15617 5644 c-4 -4 -7 -25 -7 -46 0 -33 3 -38 24 -38 21 0 23 4 22
42 -1 30 -6 44 -16 46 -9 1 -19 0 -23 -4z"/>
<path d="M9710 5590 c0 -33 3 -40 20 -40 17 0 20 7 20 40 0 33 -3 40 -20 40
-17 0 -20 -7 -20 -40z"/>
<path d="M1340 5580 c0 -23 4 -30 20 -30 16 0 20 7 20 30 0 23 -4 30 -20 30
-16 0 -20 -7 -20 -30z"/>
<path d="M7250 5445 c0 -38 3 -45 20 -45 17 0 20 7 20 45 0 38 -3 45 -20 45
-17 0 -20 -7 -20 -45z"/>
<path d="M15612 5448 c2 -35 7 -43 23 -43 17 0 20 7 21 43 1 38 -1 42 -23 42
-22 0 -24 -3 -21 -42z"/>
<path d="M9710 5440 c0 -33 3 -40 20 -40 17 0 20 7 20 40 0 33 -3 40 -20 40
-17 0 -20 -7 -20 -40z"/>
<path d="M1340 5425 c0 -18 5 -25 20 -25 15 0 20 7 20 25 0 18 -5 25 -20 25
-15 0 -20 -7 -20 -25z"/>
<path d="M7250 5290 c0 -33 3 -40 20 -40 17 0 20 7 20 40 0 33 -3 40 -20 40
-17 0 -20 -7 -20 -40z"/>
<path d="M15610 5290 c0 -36 3 -40 25 -40 23 0 25 4 23 40 -1 35 -4 40 -25 40
-20 0 -23 -5 -23 -40z"/>
<path d="M9710 5280 c0 -33 3 -40 20 -40 17 0 20 7 20 40 0 33 -3 40 -20 40
-17 0 -20 -7 -20 -40z"/>
<path d="M1340 5270 c0 -23 4 -30 20 -30 16 0 20 7 20 30 0 23 -4 30 -20 30
-16 0 -20 -7 -20 -30z"/>
<path d="M795 5260 c-4 -6 44 -64 108 -133 63 -67 145 -156 182 -197 37 -41
74 -82 81 -90 10 -10 17 -11 25 -3 8 8 -39 66 -181 220 -106 114 -197 209
-201 211 -4 2 -10 -2 -14 -8z"/>
<path d="M7250 5135 c0 -38 3 -45 20 -45 17 0 20 7 20 45 0 38 -3 45 -20 45
-17 0 -20 -7 -20 -45z"/>
<path d="M15610 5136 c0 -38 3 -46 19 -46 22 0 28 13 27 55 -1 23 -6 31 -23
33 -21 3 -23 -1 -23 -42z"/>
<path d="M9710 5120 c0 -33 3 -40 20 -40 17 0 20 7 20 40 0 33 -3 40 -20 40
-17 0 -20 -7 -20 -40z"/>
<path d="M1342 5113 c2 -17 10 -29 21 -31 13 -3 17 3 17 27 0 25 -4 31 -21 31
-16 0 -20 -5 -17 -27z"/>
<path d="M7250 4975 c0 -38 3 -45 20 -45 17 0 20 7 20 45 0 38 -3 45 -20 45
-17 0 -20 -7 -20 -45z"/>
<path d="M15610 4980 c0 -27 5 -43 15 -47 22 -8 27 0 29 46 2 37 0 41 -21 41
-20 0 -23 -5 -23 -40z"/>
<path d="M9710 4970 c0 -33 3 -40 20 -40 17 0 20 7 20 40 0 33 -3 40 -20 40
-17 0 -20 -7 -20 -40z"/>
<path d="M1340 4955 c0 -18 5 -25 20 -25 15 0 20 7 20 25 0 18 -5 25 -20 25
-15 0 -20 -7 -20 -25z"/>
<path d="M7250 4825 c0 -38 3 -45 20 -45 17 0 20 7 20 45 0 38 -3 45 -20 45
-17 0 -20 -7 -20 -45z"/>
<path d="M15617 4863 c-4 -3 -7 -24 -7 -45 0 -34 3 -38 24 -38 25 0 27 10 17
83 -1 9 -25 9 -34 0z"/>
<path d="M9710 4810 c0 -33 3 -40 20 -40 17 0 20 7 20 40 0 33 -3 40 -20 40
-17 0 -20 -7 -20 -40z"/>
<path d="M1340 4800 c0 -23 4 -30 20 -30 16 0 20 7 20 30 0 23 -4 30 -20 30
-16 0 -20 -7 -20 -30z"/>
<path d="M7250 4665 c0 -38 3 -45 20 -45 17 0 20 7 20 45 0 38 -3 45 -20 45
-17 0 -20 -7 -20 -45z"/>
<path d="M15610 4664 c0 -41 2 -45 23 -42 17 2 22 10 23 33 1 42 -5 55 -27 55
-16 0 -19 -8 -19 -46z"/>
<path d="M9710 4650 c0 -33 3 -40 20 -40 17 0 20 7 20 40 0 33 -3 40 -20 40
-17 0 -20 -7 -20 -40z"/>
<path d="M1340 4640 c0 -23 4 -30 20 -30 16 0 20 7 20 30 0 23 -4 30 -20 30
-16 0 -20 -7 -20 -30z"/>
<path d="M790 4631 c0 -10 10 -22 103 -121 29 -30 106 -113 171 -183 83 -89
122 -125 130 -117 7 7 -4 25 -35 58 -65 67 -280 301 -314 340 -27 31 -55 42
-55 23z"/>
<path d="M7250 4510 c0 -33 3 -40 20 -40 17 0 20 7 20 40 0 33 -3 40 -20 40
-17 0 -20 -7 -20 -40z"/>
<path d="M15610 4510 c0 -33 3 -40 20 -40 12 0 21 8 24 23 9 42 4 57 -21 57
-20 0 -23 -5 -23 -40z"/>
<path d="M9710 4500 c0 -33 3 -40 20 -40 17 0 20 7 20 40 0 33 -3 40 -20 40
-17 0 -20 -7 -20 -40z"/>
<path d="M1340 4490 c0 -23 4 -30 20 -30 16 0 20 7 20 30 0 23 -4 30 -20 30
-16 0 -20 -7 -20 -30z"/>
<path d="M7250 4355 c0 -38 3 -45 20 -45 17 0 20 7 20 45 0 38 -3 45 -20 45
-17 0 -20 -7 -20 -45z"/>
<path d="M15617 4393 c-4 -3 -7 -24 -7 -45 0 -33 3 -38 24 -38 24 0 24 1 18
73 -2 17 -22 23 -35 10z"/>
<path d="M9710 4340 c0 -33 3 -40 20 -40 17 0 20 7 20 40 0 33 -3 40 -20 40
-17 0 -20 -7 -20 -40z"/>
<path d="M1340 4330 c0 -23 4 -30 20 -30 16 0 20 7 20 30 0 23 -4 30 -20 30
-16 0 -20 -7 -20 -30z"/>
<path d="M7250 4194 c0 -38 3 -45 18 -42 12 2 18 15 20 46 3 37 1 42 -17 42
-18 0 -21 -6 -21 -46z"/>
<path d="M15612 4198 c2 -35 7 -43 23 -43 16 0 21 8 23 43 3 39 2 42 -23 42
-25 0 -26 -3 -23 -42z"/>
<path d="M9710 4190 c0 -33 3 -40 20 -40 17 0 20 7 20 40 0 33 -3 40 -20 40
-17 0 -20 -7 -20 -40z"/>
<path d="M1340 4175 c0 -18 5 -25 20 -25 15 0 20 7 20 25 0 18 -5 25 -20 25
-15 0 -20 -7 -20 -25z"/>
<path d="M7250 4040 c0 -33 3 -40 20 -40 17 0 20 7 20 40 0 33 -3 40 -20 40
-17 0 -20 -7 -20 -40z"/>
<path d="M15610 4040 c0 -33 3 -40 20 -40 17 0 20 7 20 40 0 33 -3 40 -20 40
-17 0 -20 -7 -20 -40z"/>
<path d="M9710 4030 c0 -33 3 -40 20 -40 17 0 20 7 20 40 0 33 -3 40 -20 40
-17 0 -20 -7 -20 -40z"/>
<path d="M1340 4020 c0 -23 4 -30 20 -30 16 0 20 7 20 30 0 23 -4 30 -20 30
-16 0 -20 -7 -20 -30z"/>
<path d="M7250 3885 c0 -38 3 -45 20 -45 17 0 20 7 20 45 0 38 -3 45 -20 45
-17 0 -20 -7 -20 -45z"/>
<path d="M15610 3885 c0 -38 3 -45 19 -45 23 0 28 12 23 56 -3 25 -9 34 -23
34 -16 0 -19 -8 -19 -45z"/>
<path d="M9710 3869 c0 -33 3 -40 18 -37 12 2 18 14 20 41 3 32 0 37 -17 37
-18 0 -21 -6 -21 -41z"/>
<path d="M1342 3863 c2 -17 10 -29 21 -31 13 -3 17 3 17 27 0 25 -4 31 -21 31
-16 0 -20 -5 -17 -27z"/>
<path d="M7250 3725 c0 -38 3 -45 20 -45 17 0 20 7 20 45 0 38 -3 45 -20 45
-17 0 -20 -7 -20 -45z"/>
<path d="M15610 3730 c0 -27 5 -43 15 -47 21 -7 23 -4 30 45 5 40 3 42 -20 42
-23 0 -25 -4 -25 -40z"/>
<path d="M1340 3705 c0 -18 5 -25 20 -25 15 0 20 7 20 25 0 18 -5 25 -20 25
-15 0 -20 -7 -20 -25z"/>
<path d="M1430 3650 c0 -16 7 -20 30 -20 23 0 30 4 30 20 0 16 -7 20 -30 20
-23 0 -30 -4 -30 -20z"/>
<path d="M1590 3650 c0 -16 7 -20 30 -20 23 0 30 4 30 20 0 16 -7 20 -30 20
-23 0 -30 -4 -30 -20z"/>
<path d="M1740 3650 c0 -16 7 -20 30 -20 23 0 30 4 30 20 0 16 -7 20 -30 20
-23 0 -30 -4 -30 -20z"/>
<path d="M1900 3650 c0 -16 7 -20 30 -20 23 0 30 4 30 20 0 16 -7 20 -30 20
-23 0 -30 -4 -30 -20z"/>
<path d="M2060 3650 c0 -15 7 -20 25 -20 18 0 25 5 25 20 0 15 -7 20 -25 20
-18 0 -25 -5 -25 -20z"/>
<path d="M2210 3650 c0 -16 7 -20 30 -20 23 0 30 4 30 20 0 16 -7 20 -30 20
-23 0 -30 -4 -30 -20z"/>
<path d="M2370 3650 c0 -16 7 -20 30 -20 23 0 30 4 30 20 0 16 -7 20 -30 20
-23 0 -30 -4 -30 -20z"/>
<path d="M2530 3650 c0 -15 7 -20 25 -20 18 0 25 5 25 20 0 15 -7 20 -25 20
-18 0 -25 -5 -25 -20z"/>
<path d="M2680 3650 c0 -16 7 -20 30 -20 23 0 30 4 30 20 0 16 -7 20 -30 20
-23 0 -30 -4 -30 -20z"/>
<path d="M2840 3650 c0 -16 7 -20 30 -20 23 0 30 4 30 20 0 16 -7 20 -30 20
-23 0 -30 -4 -30 -20z"/>
<path d="M2990 3650 c0 -16 7 -20 30 -20 23 0 30 4 30 20 0 16 -7 20 -30 20
-23 0 -30 -4 -30 -20z"/>
<path d="M3150 3650 c0 -16 7 -20 30 -20 23 0 30 4 30 20 0 16 -7 20 -30 20
-23 0 -30 -4 -30 -20z"/>
<path d="M3310 3650 c0 -15 7 -20 25 -20 18 0 25 5 25 20 0 15 -7 20 -25 20
-18 0 -25 -5 -25 -20z"/>
<path d="M3460 3650 c0 -16 7 -20 30 -20 23 0 30 4 30 20 0 16 -7 20 -30 20
-23 0 -30 -4 -30 -20z"/>
<path d="M3620 3650 c0 -16 7 -20 30 -20 23 0 30 4 30 20 0 16 -7 20 -30 20
-23 0 -30 -4 -30 -20z"/>
<path d="M3780 3650 c0 -15 7 -20 25 -20 18 0 25 5 25 20 0 15 -7 20 -25 20
-18 0 -25 -5 -25 -20z"/>
<path d="M3930 3650 c0 -16 7 -20 30 -20 23 0 30 4 30 20 0 16 -7 20 -30 20
-23 0 -30 -4 -30 -20z"/>
<path d="M4090 3650 c0 -16 7 -20 30 -20 23 0 30 4 30 20 0 16 -7 20 -30 20
-23 0 -30 -4 -30 -20z"/>
<path d="M4240 3650 c0 -16 7 -20 30 -20 23 0 30 4 30 20 0 16 -7 20 -30 20
-23 0 -30 -4 -30 -20z"/>
<path d="M4400 3650 c0 -16 7 -20 30 -20 23 0 30 4 30 20 0 16 -7 20 -30 20
-23 0 -30 -4 -30 -20z"/>
<path d="M4560 3650 c0 -15 7 -20 25 -20 18 0 25 5 25 20 0 15 -7 20 -25 20
-18 0 -25 -5 -25 -20z"/>
<path d="M4717 3663 c-17 -16 -5 -33 23 -33 23 0 30 4 30 20 0 14 -7 20 -23
20 -13 0 -27 -3 -30 -7z"/>
<path d="M4870 3650 c0 -16 7 -20 30 -20 23 0 30 4 30 20 0 16 -7 20 -30 20
-23 0 -30 -4 -30 -20z"/>
<path d="M5030 3650 c0 -15 7 -20 25 -20 18 0 25 5 25 20 0 15 -7 20 -25 20
-18 0 -25 -5 -25 -20z"/>
<path d="M5180 3650 c0 -16 7 -20 30 -20 23 0 30 4 30 20 0 16 -7 20 -30 20
-23 0 -30 -4 -30 -20z"/>
<path d="M5340 3650 c0 -16 7 -20 30 -20 23 0 30 4 30 20 0 16 -7 20 -30 20
-23 0 -30 -4 -30 -20z"/>
<path d="M5490 3650 c0 -16 7 -20 30 -20 23 0 30 4 30 20 0 16 -7 20 -30 20
-23 0 -30 -4 -30 -20z"/>
<path d="M5650 3650 c0 -16 7 -20 30 -20 23 0 30 4 30 20 0 16 -7 20 -30 20
-23 0 -30 -4 -30 -20z"/>
<path d="M5810 3650 c0 -15 7 -20 25 -20 18 0 25 5 25 20 0 15 -7 20 -25 20
-18 0 -25 -5 -25 -20z"/>
<path d="M5960 3650 c0 -16 7 -20 30 -20 23 0 30 4 30 20 0 16 -7 20 -30 20
-23 0 -30 -4 -30 -20z"/>
<path d="M6120 3650 c0 -16 7 -20 30 -20 23 0 30 4 30 20 0 16 -7 20 -30 20
-23 0 -30 -4 -30 -20z"/>
<path d="M6280 3650 c0 -15 7 -20 25 -20 18 0 25 5 25 20 0 15 -7 20 -25 20
-18 0 -25 -5 -25 -20z"/>
<path d="M6430 3650 c0 -16 7 -20 30 -20 23 0 30 4 30 20 0 16 -7 20 -30 20
-23 0 -30 -4 -30 -20z"/>
<path d="M6590 3651 c0 -17 6 -21 31 -21 24 0 30 4 27 18 -2 10 -14 18 -31 20
-22 3 -27 -1 -27 -17z"/>
<path d="M6740 3650 c0 -16 7 -20 30 -20 23 0 30 4 30 20 0 16 -7 20 -30 20
-23 0 -30 -4 -30 -20z"/>
<path d="M6900 3650 c0 -16 7 -20 30 -20 23 0 30 4 30 20 0 16 -7 20 -30 20
-23 0 -30 -4 -30 -20z"/>
<path d="M7060 3650 c0 -15 7 -20 25 -20 18 0 25 5 25 20 0 15 -7 20 -25 20
-18 0 -25 -5 -25 -20z"/>
<path d="M7330 3650 c0 -16 7 -20 30 -20 23 0 30 4 30 20 0 16 -7 20 -30 20
-23 0 -30 -4 -30 -20z"/>
<path d="M7490 3650 c0 -15 7 -20 25 -20 18 0 25 5 25 20 0 15 -7 20 -25 20
-18 0 -25 -5 -25 -20z"/>
<path d="M7640 3650 c0 -16 7 -20 30 -20 23 0 30 4 30 20 0 16 -7 20 -30 20
-23 0 -30 -4 -30 -20z"/>
<path d="M7800 3650 c0 -16 7 -20 30 -20 23 0 30 4 30 20 0 16 -7 20 -30 20
-23 0 -30 -4 -30 -20z"/>
<path d="M7960 3650 c0 -15 7 -20 25 -20 18 0 25 5 25 20 0 15 -7 20 -25 20
-18 0 -25 -5 -25 -20z"/>
<path d="M8110 3650 c0 -16 7 -20 30 -20 23 0 30 4 30 20 0 16 -7 20 -30 20
-23 0 -30 -4 -30 -20z"/>
<path d="M8270 3650 c0 -15 7 -20 25 -20 18 0 25 5 25 20 0 15 -7 20 -25 20
-18 0 -25 -5 -25 -20z"/>
<path d="M8420 3650 c0 -16 7 -20 30 -20 23 0 30 4 30 20 0 16 -7 20 -30 20
-23 0 -30 -4 -30 -20z"/>
<path d="M8580 3650 c0 -16 7 -20 30 -20 23 0 30 4 30 20 0 16 -7 20 -30 20
-23 0 -30 -4 -30 -20z"/>
<path d="M8740 3650 c0 -15 7 -20 25 -20 18 0 25 5 25 20 0 15 -7 20 -25 20
-18 0 -25 -5 -25 -20z"/>
<path d="M8890 3650 c0 -16 7 -20 30 -20 23 0 30 4 30 20 0 16 -7 20 -30 20
-23 0 -30 -4 -30 -20z"/>
<path d="M9050 3650 c0 -16 7 -20 30 -20 23 0 30 4 30 20 0 16 -7 20 -30 20
-23 0 -30 -4 -30 -20z"/>
<path d="M9210 3650 c0 -15 7 -20 25 -20 18 0 25 5 25 20 0 15 -7 20 -25 20
-18 0 -25 -5 -25 -20z"/>
<path d="M9360 3650 c0 -16 7 -20 30 -20 23 0 30 4 30 20 0 16 -7 20 -30 20
-23 0 -30 -4 -30 -20z"/>
<path d="M9520 3650 c0 -15 7 -20 25 -20 18 0 25 5 25 20 0 15 -7 20 -25 20
-18 0 -25 -5 -25 -20z"/>
<path d="M9800 3650 c0 -16 7 -20 30 -20 23 0 30 4 30 20 0 16 -7 20 -30 20
-23 0 -30 -4 -30 -20z"/>
<path d="M9950 3650 c0 -16 7 -20 30 -20 23 0 30 4 30 20 0 16 -7 20 -30 20
-23 0 -30 -4 -30 -20z"/>
<path d="M10110 3650 c0 -16 7 -20 30 -20 23 0 30 4 30 20 0 16 -7 20 -30 20
-23 0 -30 -4 -30 -20z"/>
<path d="M10270 3650 c0 -15 7 -20 25 -20 18 0 25 5 25 20 0 15 -7 20 -25 20
-18 0 -25 -5 -25 -20z"/>
<path d="M10420 3650 c0 -16 7 -20 30 -20 23 0 30 4 30 20 0 16 -7 20 -30 20
-23 0 -30 -4 -30 -20z"/>
<path d="M10580 3650 c0 -16 7 -20 30 -20 23 0 30 4 30 20 0 16 -7 20 -30 20
-23 0 -30 -4 -30 -20z"/>
<path d="M10740 3650 c0 -15 7 -20 25 -20 18 0 25 5 25 20 0 15 -7 20 -25 20
-18 0 -25 -5 -25 -20z"/>
<path d="M10890 3650 c0 -16 7 -20 30 -20 23 0 30 4 30 20 0 16 -7 20 -30 20
-23 0 -30 -4 -30 -20z"/>
<path d="M11050 3650 c0 -16 7 -20 30 -20 23 0 30 4 30 20 0 16 -7 20 -30 20
-23 0 -30 -4 -30 -20z"/>
<path d="M11200 3650 c0 -16 7 -20 30 -20 23 0 30 4 30 20 0 16 -7 20 -30 20
-23 0 -30 -4 -30 -20z"/>
<path d="M11360 3650 c0 -16 7 -20 30 -20 23 0 30 4 30 20 0 16 -7 20 -30 20
-23 0 -30 -4 -30 -20z"/>
<path d="M11520 3650 c0 -15 7 -20 25 -20 18 0 25 5 25 20 0 15 -7 20 -25 20
-18 0 -25 -5 -25 -20z"/>
<path d="M11677 3663 c-17 -16 -5 -33 23 -33 23 0 30 4 30 20 0 14 -7 20 -23
20 -13 0 -27 -3 -30 -7z"/>
<path d="M11830 3650 c0 -16 7 -20 30 -20 23 0 30 4 30 20 0 16 -7 20 -30 20
-23 0 -30 -4 -30 -20z"/>
<path d="M11990 3650 c0 -15 7 -20 25 -20 18 0 25 5 25 20 0 15 -7 20 -25 20
-18 0 -25 -5 -25 -20z"/>
<path d="M12140 3650 c0 -16 7 -20 30 -20 23 0 30 4 30 20 0 16 -7 20 -30 20
-23 0 -30 -4 -30 -20z"/>
<path d="M12300 3650 c0 -16 7 -20 30 -20 23 0 30 4 30 20 0 16 -7 20 -30 20
-23 0 -30 -4 -30 -20z"/>
<path d="M12450 3650 c0 -16 7 -20 30 -20 23 0 30 4 30 20 0 16 -7 20 -30 20
-23 0 -30 -4 -30 -20z"/>
<path d="M12610 3650 c0 -16 7 -20 30 -20 23 0 30 4 30 20 0 16 -7 20 -30 20
-23 0 -30 -4 -30 -20z"/>
<path d="M12770 3650 c0 -15 7 -20 25 -20 18 0 25 5 25 20 0 15 -7 20 -25 20
-18 0 -25 -5 -25 -20z"/>
<path d="M12920 3650 c0 -16 7 -20 30 -20 23 0 30 4 30 20 0 16 -7 20 -30 20
-23 0 -30 -4 -30 -20z"/>
<path d="M13080 3650 c0 -16 7 -20 30 -20 23 0 30 4 30 20 0 16 -7 20 -30 20
-23 0 -30 -4 -30 -20z"/>
<path d="M13240 3650 c0 -15 7 -20 25 -20 18 0 25 5 25 20 0 15 -7 20 -25 20
-18 0 -25 -5 -25 -20z"/>
<path d="M13390 3650 c0 -16 7 -20 30 -20 23 0 30 4 30 20 0 16 -7 20 -30 20
-23 0 -30 -4 -30 -20z"/>
<path d="M13550 3651 c0 -17 6 -21 31 -21 24 0 30 4 27 18 -2 10 -14 18 -31
20 -22 3 -27 -1 -27 -17z"/>
<path d="M13700 3650 c0 -16 7 -20 30 -20 23 0 30 4 30 20 0 16 -7 20 -30 20
-23 0 -30 -4 -30 -20z"/>
<path d="M13860 3650 c0 -16 7 -20 30 -20 23 0 30 4 30 20 0 16 -7 20 -30 20
-23 0 -30 -4 -30 -20z"/>
<path d="M14020 3650 c0 -15 7 -20 25 -20 18 0 25 5 25 20 0 15 -7 20 -25 20
-18 0 -25 -5 -25 -20z"/>
<path d="M14170 3650 c0 -16 7 -20 30 -20 23 0 30 4 30 20 0 16 -7 20 -30 20
-23 0 -30 -4 -30 -20z"/>
<path d="M14330 3650 c0 -16 7 -20 30 -20 23 0 30 4 30 20 0 16 -7 20 -30 20
-23 0 -30 -4 -30 -20z"/>
<path d="M14490 3650 c0 -15 7 -20 25 -20 18 0 25 5 25 20 0 15 -7 20 -25 20
-18 0 -25 -5 -25 -20z"/>
<path d="M14640 3650 c0 -16 7 -20 30 -20 23 0 30 4 30 20 0 16 -7 20 -30 20
-23 0 -30 -4 -30 -20z"/>
<path d="M14800 3650 c0 -16 7 -20 30 -20 23 0 30 4 30 20 0 16 -7 20 -30 20
-23 0 -30 -4 -30 -20z"/>
<path d="M14957 3663 c-17 -16 -5 -33 23 -33 23 0 30 4 30 20 0 14 -7 20 -23
20 -13 0 -27 -3 -30 -7z"/>
<path d="M15110 3650 c0 -16 7 -20 30 -20 23 0 30 4 30 20 0 16 -7 20 -30 20
-23 0 -30 -4 -30 -20z"/>
<path d="M15270 3650 c0 -15 7 -20 25 -20 18 0 25 5 25 20 0 15 -7 20 -25 20
-18 0 -25 -5 -25 -20z"/>
<path d="M15420 3650 c0 -16 7 -20 30 -20 23 0 30 4 30 20 0 16 -7 20 -30 20
-23 0 -30 -4 -30 -20z"/>
<path d="M15700 3650 c0 -15 7 -20 25 -20 18 0 25 5 25 20 0 15 -7 20 -25 20
-18 0 -25 -5 -25 -20z"/>
<path d="M15850 3650 c0 -16 7 -20 30 -20 23 0 30 4 30 20 0 16 -7 20 -30 20
-23 0 -30 -4 -30 -20z"/>
<path d="M16010 3650 c0 -16 7 -20 30 -20 23 0 30 4 30 20 0 16 -7 20 -30 20
-23 0 -30 -4 -30 -20z"/>
<path d="M16160 3650 c0 -16 7 -20 30 -20 23 0 30 4 30 20 0 16 -7 20 -30 20
-23 0 -30 -4 -30 -20z"/>
<path d="M16320 3650 c0 -16 7 -20 30 -20 23 0 30 4 30 20 0 16 -7 20 -30 20
-23 0 -30 -4 -30 -20z"/>
<path d="M16480 3650 c0 -15 7 -20 25 -20 18 0 25 5 25 20 0 15 -7 20 -25 20
-18 0 -25 -5 -25 -20z"/>
<path d="M16637 3663 c-17 -16 -5 -33 23 -33 23 0 30 4 30 20 0 14 -7 20 -23
20 -13 0 -27 -3 -30 -7z"/>
<path d="M16790 3650 c0 -16 7 -20 30 -20 23 0 30 4 30 20 0 16 -7 20 -30 20
-23 0 -30 -4 -30 -20z"/>
<path d="M16950 3650 c0 -15 7 -20 25 -20 18 0 25 5 25 20 0 15 -7 20 -25 20
-18 0 -25 -5 -25 -20z"/>
<path d="M17100 3650 c0 -16 7 -20 30 -20 23 0 30 4 30 20 0 16 -7 20 -30 20
-23 0 -30 -4 -30 -20z"/>
<path d="M17260 3650 c0 -16 7 -20 30 -20 23 0 30 4 30 20 0 16 -7 20 -30 20
-23 0 -30 -4 -30 -20z"/>
<path d="M17410 3650 c0 -16 7 -20 30 -20 23 0 30 4 30 20 0 16 -7 20 -30 20
-23 0 -30 -4 -30 -20z"/>
<path d="M17570 3650 c0 -16 7 -20 30 -20 23 0 30 4 30 20 0 16 -7 20 -30 20
-23 0 -30 -4 -30 -20z"/>
<path d="M17730 3650 c0 -15 7 -20 25 -20 18 0 25 5 25 20 0 15 -7 20 -25 20
-18 0 -25 -5 -25 -20z"/>
<path d="M17880 3650 c0 -16 7 -20 30 -20 23 0 30 4 30 20 0 16 -7 20 -30 20
-23 0 -30 -4 -30 -20z"/>
</g>
</svg>
