<?xml version="1.0" encoding="iso-8859-1"?>
<!-- Uploaded to: SVGRepo, www.svgrepo.com, Transformed by: SVGRepo Tools -->
<!DOCTYPE svg PUBLIC "-//W3C//DTD SVG 1.1//EN" "http://www.w3.org/Graphics/SVG/1.1/DTD/svg11.dtd">
<svg fill="#000000" height="800px" width="800px" version="1.1" id="Capa_1" xmlns="http://www.w3.org/2000/svg" xmlns:xlink="http://www.w3.org/1999/xlink" 
	 viewBox="0 0 297.757 297.757" xml:space="preserve">
<g>
	<path d="M280.787,151.09h-75.01c-6.247,0-11.841,3.872-14.04,9.72l-9.297,24.719l-23.797,10.645l-21.323-17.582
		c-6.143-5.064-15.173-4.45-20.57,1.405l-18.729,20.311l-14.129-39.293c-2.141-5.954-7.788-9.925-14.115-9.925H16.97
		c-8.284,0-15,6.716-15,15v116.667c0,8.284,6.716,15,15,15h263.817c8.284,0,15-6.716,15-15V166.09
		C295.787,157.805,289.071,151.09,280.787,151.09z"/>
	<path d="M140.12,121.251c2.099,2.708,5.332,4.292,8.758,4.292c3.426,0,6.659-1.584,8.758-4.292l39.161-50.513
		c2.591-3.342,3.054-7.869,1.193-11.666c-1.861-3.798-5.722-6.205-9.951-6.205h-10.999V6.39c0-3.529-2.861-6.39-6.389-6.39h-43.546
		c-3.529,0-6.39,2.861-6.39,6.39l0,46.477h-10.999c-4.229,0-8.09,2.407-9.951,6.205c-1.861,3.798-1.398,8.324,1.193,11.666
		L140.12,121.251z"/>
</g>
<g>
</g>
<g>
</g>
<g>
</g>
<g>
</g>
<g>
</g>
<g>
</g>
<g>
</g>
<g>
</g>
<g>
</g>
<g>
</g>
<g>
</g>
<g>
</g>
<g>
</g>
<g>
</g>
<g>
</g>
</svg>
