<?xml version="1.0" encoding="iso-8859-1"?>
<!-- Uploaded to: SVGRepo, www.svgrepo.com, Transformed by: SVGRepo Tools -->
<svg fill="#000000" height="100px" width="100px" version="1.1" id="Capa_1" xmlns="http://www.w3.org/2000/svg" xmlns:xlink="http://www.w3.org/1999/xlink" 
	 viewBox="0 0 463 463" xml:space="preserve">
<g>
	<path d="M369.96,101.6l-18.314-61.048C356.17,36.266,359,30.209,359,23.5C359,10.542,348.458,0,335.5,0h-208
		C114.542,0,104,10.542,104,23.5c0,6.709,2.83,12.766,7.354,17.051L93.04,101.6C89.695,112.746,88,124.299,88,135.938v287.856
		c0,1.873,0.246,3.742,0.73,5.555l4.495,16.78c2.661,9.933,12.023,16.87,22.767,16.87h231.016c10.743,0,20.105-6.938,22.768-16.871
		l4.491-16.77c0.486-1.814,0.733-3.689,0.733-5.571v-287.85C375,124.299,373.305,112.746,369.96,101.6z M127.5,15h208
		c4.687,0,8.5,3.813,8.5,8.5s-3.813,8.5-8.5,8.5h-208c-4.687,0-8.5-3.813-8.5-8.5S122.813,15,127.5,15z M107.407,105.91
		l17.709-59.031C125.9,46.959,126.695,47,127.5,47h208c0.805,0,1.6-0.041,2.384-0.12l17.709,59.031
		c2.925,9.747,4.407,19.85,4.407,30.028V416H103v-43.518c8.024,1.671,16.234,2.518,24.5,2.518c65.893,0,119.5-53.607,119.5-119.5
		S193.393,136,127.5,136c-8.269,0-16.476,0.852-24.5,2.523v-2.585C103,125.76,104.482,115.657,107.407,105.91z M103,187.251
		c7.833-2.816,16.054-4.251,24.5-4.251c39.977,0,72.5,32.523,72.5,72.5S167.477,328,127.5,328c-8.441,0-16.665-1.427-24.5-4.242
		V187.251z M103,339.504c7.918,2.31,16.12,3.496,24.5,3.496c48.248,0,87.5-39.252,87.5-87.5S175.748,168,127.5,168
		c-8.383,0-16.584,1.19-24.5,3.499v-17.6c7.985-1.917,16.204-2.899,24.5-2.899c57.621,0,104.5,46.879,104.5,104.5
		S185.121,360,127.5,360c-8.293,0-16.515-0.975-24.5-2.891V339.504z M347.008,448H115.992c-3.967,0-7.37-2.365-8.277-5.752
		L104.702,431h253.597l-3.013,11.247C354.378,445.635,350.975,448,347.008,448z"/>
	<path d="M317.315,89.681c0.975,3.249,3.954,5.347,7.181,5.347c0.714,0,1.439-0.103,2.158-0.318c3.967-1.19,6.219-5.371,5.028-9.339
		l-4.808-16.025c-1.19-3.968-5.371-6.219-9.339-5.028c-3.967,1.19-6.219,5.371-5.028,9.339L317.315,89.681z"/>
	<path d="M326.452,121.038c1.027,4.888,1.548,9.901,1.548,14.9V255.5c0,4.143,3.357,7.5,7.5,7.5s7.5-3.357,7.5-7.5V135.938
		c0-6.034-0.629-12.085-1.868-17.984c-0.852-4.054-4.829-6.648-8.882-5.798C328.196,113.008,325.601,116.984,326.452,121.038z"/>
</g>
<g>
</g>
<g>
</g>
<g>
</g>
<g>
</g>
<g>
</g>
<g>
</g>
<g>
</g>
<g>
</g>
<g>
</g>
<g>
</g>
<g>
</g>
<g>
</g>
<g>
</g>
<g>
</g>
<g>
</g>
</svg>
