<?xml version="1.0" encoding="iso-8859-1"?>
<!-- Uploaded to: SVGRepo, www.svgrepo.com, Transformed by: SVGRepo Tools -->
<!DOCTYPE svg PUBLIC "-//W3C//DTD SVG 1.1//EN" "http://www.w3.org/Graphics/SVG/1.1/DTD/svg11.dtd">
<svg fill="#000000" height="800px" width="800px" version="1.1" id="Capa_1" xmlns="http://www.w3.org/2000/svg" xmlns:xlink="http://www.w3.org/1999/xlink" 
	 viewBox="0 0 295.718 295.718" xml:space="preserve">
<path d="M248.679,4.293C246.205,1.556,242.687,0,238.997,0H135.966l10.769,13.881c3.46,4.46,4.123,10.485,1.716,15.592
	l-10.347,21.943l17.837,24.105c4.928,6.659,3.524,16.053-3.135,20.98c-2.684,1.985-5.811,2.943-8.911,2.943
	c-4.594,0-9.127-2.103-12.069-6.078l-23.172-31.313c-3.285-4.439-3.865-10.325-1.51-15.32L117.393,25L97.997,0H56.719
	c-3.686,0-7.198,1.563-9.67,4.298c-2.472,2.735-3.682,6.392-3.307,10.059c1.441,14.081,5.228,36.576,15.185,58.727
	c15.82,35.2,41.199,78.937,73.932,83.699v108.935H90.525c-8.284,0-15,6.716-15,15s6.716,15,15,15h114.667c8.284,0,15-6.716,15-15
	s-6.716-15-15-15h-42.333V156.783c32.732-4.762,58.111-48.499,73.932-83.699c9.957-22.152,13.744-44.646,15.185-58.727
	C252.351,10.687,251.152,7.03,248.679,4.293z"/>
<g>
</g>
<g>
</g>
<g>
</g>
<g>
</g>
<g>
</g>
<g>
</g>
<g>
</g>
<g>
</g>
<g>
</g>
<g>
</g>
<g>
</g>
<g>
</g>
<g>
</g>
<g>
</g>
<g>
</g>
</svg>
