<svg height="800" width="800" xmlns="http://www.w3.org/2000/svg" viewBox="0 0 295.718 295.718">
	<path
		d="M248.679 4.293A13.046 13.046 0 00238.997 0H135.966l10.769 13.881a15.002 15.002 0 011.716 15.592l-10.347 21.943 17.837 24.105c4.928 6.659 3.524 16.053-3.135 20.98a14.94 14.94 0 01-8.911 2.943 14.979 14.979 0 01-12.069-6.078l-23.172-31.313a15.001 15.001 0 01-1.51-15.32L117.393 25 97.997 0H56.719a13.035 13.035 0 00-9.67 4.298 13.037 13.037 0 00-3.307 10.059c1.441 14.081 5.228 36.576 15.185 58.727 15.82 35.2 41.199 78.937 73.932 83.699v108.935H90.525c-8.284 0-15 6.716-15 15s6.716 15 15 15h114.667c8.284 0 15-6.716 15-15s-6.716-15-15-15h-42.333V156.783c32.732-4.762 58.111-48.499 73.932-83.699 9.957-22.152 13.744-44.646 15.185-58.727a13.036 13.036 0 00-3.297-10.064z" />
</svg>