<?xml version="1.0" encoding="iso-8859-1"?>
<!-- Uploaded to: SVGRepo, www.svgrepo.com, Transformed by: SVGRepo Tools -->
<svg fill="#000000" height="800px" width="800px" version="1.1" id="Layer_1" xmlns="http://www.w3.org/2000/svg" xmlns:xlink="http://www.w3.org/1999/xlink" 
	 viewBox="0 0 512 512" xml:space="preserve">
<g>
	<g>
		<g>
			<path d="M500.622,45.511H11.378C5.094,45.511,0,50.605,0,56.889v398.222c0,6.284,5.094,11.378,11.378,11.378h489.244
				c6.283,0,11.378-5.094,11.378-11.378V56.889C512,50.605,506.905,45.511,500.622,45.511z M210.489,68.267h91.022v45.441
				l-11.503-6.442c-3.454-1.935-7.664-1.934-11.118,0l-22.884,12.816l-22.888-12.816c-3.453-1.934-7.664-1.934-11.117,0
				l-11.512,6.444V68.267z M489.244,443.733H22.756V124.406h56.548c6.284,0,11.378-5.094,11.378-11.378
				c0-6.284-5.094-11.378-11.378-11.378H22.756V68.267h164.978v62.578c0,0.395,0.27,5.726,1.451,7.835
				c2.086,3.724,5.953,5.821,9.937,5.821c1.882,0,3.79-0.468,5.548-1.453l22.888-12.816l22.888,12.816
				c3.452,1.934,7.663,1.934,11.117,0l22.884-12.816l22.881,12.815c5.481,3.072,12.417,1.116,15.486-4.367
				c1.181-2.108,1.451-7.44,1.451-7.835V68.267h164.978v33.384h-56.548c-6.283,0-11.378,5.094-11.378,11.378
				c0,6.284,5.095,11.378,11.378,11.378h56.551V443.733z"/>
			<path d="M437.702,383.819H303.444c-6.283,0-11.378,5.094-11.378,11.378c0,6.284,5.095,11.378,11.378,11.378h134.258
				c6.283,0,11.378-5.094,11.378-11.378C449.08,388.913,443.986,383.819,437.702,383.819z"/>
			<path d="M307.769,283.763v67.062c0,6.284,5.095,11.378,11.378,11.378c6.283,0,11.378-5.094,11.378-11.378v-67.061l8.837,9.819
				c4.203,4.672,11.397,5.048,16.068,0.846c4.671-4.203,5.049-11.398,0.845-16.069l-28.671-31.858
				c-2.157-2.397-5.232-3.767-8.457-3.767s-6.299,1.369-8.457,3.767l-28.672,31.858c-4.204,4.671-3.825,11.865,0.845,16.069
				c2.174,1.957,4.896,2.921,7.608,2.921c3.112,0,6.213-1.271,8.461-3.767L307.769,283.763z"/>
			<path d="M422.001,242.735c-3.226,0-6.299,1.369-8.457,3.767l-28.672,31.858c-4.204,4.671-3.825,11.865,0.845,16.069
				c4.669,4.203,11.864,3.826,16.068-0.846l8.838-9.819v67.062c0,6.284,5.095,11.378,11.378,11.378
				c6.283,0,11.378-5.094,11.378-11.378v-67.063l8.838,9.819c2.247,2.496,5.346,3.767,8.461,3.767c2.712,0,5.433-0.964,7.608-2.921
				c4.671-4.204,5.049-11.398,0.845-16.069l-28.673-31.857C428.301,244.105,425.226,242.735,422.001,242.735z"/>
			<path d="M147.949,224.341c-43.08,0-78.128,35.048-78.128,78.128c0,1.98,2.298,10.138,3.878,12.106
				c4.272,5.324,9.18,6.877,12.545,7.244c0.662,0.072,1.312,0.106,1.952,0.106c7.708,0,13.912-4.99,19.432-9.433
				c3.466-2.79,8.214-6.609,10.741-6.609c2.162,0,2.885,0.486,6.455,4.329c2.719,2.929,6.327,6.8,11.747,9.247v54.502
				c0,5.437-4.424,9.861-9.861,9.861s-9.861-4.424-9.861-9.861v-4.033c0-6.284-5.094-11.378-11.378-11.378
				s-11.378,5.094-11.378,11.378v4.033c0,17.985,14.632,32.617,32.617,32.617s32.617-14.632,32.617-32.617v-54.498
				c5.425-2.446,9.034-6.32,11.756-9.251c3.568-3.842,4.292-4.328,6.452-4.328c2.526,0,7.273,3.82,10.738,6.609
				c5.979,4.812,12.762,10.263,21.383,9.326c3.366-0.366,8.273-1.921,12.544-7.244c1.579-1.968,3.876-10.122,3.876-12.105
				C226.076,259.389,191.028,224.341,147.949,224.341z M202.538,294.763c-6.441-5.185-14.459-11.637-25.004-11.637
				c-12.356,0-18.838,6.981-23.128,11.601c-3.568,3.842-4.292,4.328-6.452,4.328c-2.162,0-2.885-0.486-6.455-4.329
				c-4.289-4.619-10.773-11.6-23.13-11.6c-10.546,0-18.564,6.452-25.007,11.637c-0.083,0.066-0.179,0.143-0.265,0.213
				c3.67-26.999,26.862-47.879,54.851-47.879c27.988,0,51.178,20.878,54.85,47.875C202.714,294.904,202.619,294.828,202.538,294.763
				z"/>
			<path d="M386.048,124.407h1.138c6.283,0,11.378-5.094,11.378-11.378s-5.095-11.378-11.378-11.378h-1.138
				c-6.283,0-11.378,5.094-11.378,11.378S379.764,124.407,386.048,124.407z"/>
			<path d="M124.814,124.407h1.138c6.284,0,11.378-5.094,11.378-11.378s-5.094-11.378-11.378-11.378h-1.138
				c-6.284,0-11.378,5.094-11.378,11.378S118.53,124.407,124.814,124.407z"/>
		</g>
	</g>
</g>
<g>
</g>
<g>
</g>
<g>
</g>
<g>
</g>
<g>
</g>
<g>
</g>
<g>
</g>
<g>
</g>
<g>
</g>
<g>
</g>
<g>
</g>
<g>
</g>
<g>
</g>
<g>
</g>
<g>
</g>
</svg>
