<?xml version="1.0" ?><!-- Uploaded to: SVGRepo, www.svgrepo.com, Transformed by: SVGRepo Tools -->
<svg width="800px" height="800px" viewBox="0 0 24 24" version="1.1" xml:space="preserve" xmlns="http://www.w3.org/2000/svg" xmlns:xlink="http://www.w3.org/1999/xlink"><style type="text/css">
	.st0{opacity:0.2;fill:none;stroke:#000000;stroke-width:5.000000e-02;stroke-miterlimit:10;}
</style><g id="Layer_Grid"/><g id="Layer_2"><path d="M13,2h-2C9.9,2,9,2.9,9,4v1.4C7.8,5.9,6.8,7.2,6.6,8.7l-0.3,2.5l-2.6,1c-0.3,0.1-0.5,0.3-0.6,0.6C3,13,3,13.3,3.1,13.6   L5.8,19C5.3,19.1,5,19.5,5,20c0,0.6,0.4,1,1,1c0.5,0,0.6,0.1,1,0.3L7,21.4C7.5,21.7,8,22,9,22c1.1,0,1.6-0.4,2.1-0.7   c0.3-0.2,0.5-0.3,0.9-0.3c0.5,0,0.6,0.1,1,0.3c0.4,0.3,1,0.7,2.1,0.7c1,0,1.5-0.3,2-0.6l0.1-0.1c0.3-0.2,0.5-0.3,1-0.3   c0.6,0,1-0.4,1-1c0-0.5-0.3-0.8-0.8-1l2.7-5.4c0.1-0.3,0.1-0.5,0-0.8c-0.1-0.3-0.3-0.5-0.6-0.6l-2.6-1l-0.3-2.5   c-0.2-1.6-1.2-2.8-2.4-3.4V4C15,2.9,14.1,2,13,2z M11,4h2v1h-2V4z M16.5,12.8C16.5,12.8,16.5,12.8,16.5,12.8l2.2,0.8l-3,6.2   C15.4,19.9,15.3,20,15,20c-0.4,0-0.6-0.1-0.9-0.4c-0.4-0.3-1-0.8-2.1-0.8c-1.1,0-1.7,0.4-2.1,0.8C9.6,19.9,9.4,20,9,20   c-0.3,0-0.4-0.1-0.6-0.2l-3-6.2l2.1-0.8c0,0,0,0,0,0l3.5-1.4V17c0,0.6,0.4,1,1,1s1-0.4,1-1v-5.5L16.5,12.8z M15.4,9l0.2,1.3   l-3.2-1.3c-0.2-0.1-0.5-0.1-0.7,0l-3.2,1.3L8.6,9c0.2-1.2,1-2,2-2h2.9C14.4,7,15.3,7.8,15.4,9z"/></g></svg>