<?xml version="1.0" standalone="no"?>
<!DOCTYPE svg PUBLIC "-//W3C//DTD SVG 20010904//EN"
 "http://www.w3.org/TR/2001/REC-SVG-20010904/DTD/svg10.dtd">
<svg version="1.0" xmlns="http://www.w3.org/2000/svg"
 width="2301.000000pt" height="1749.000000pt" viewBox="0 0 2301.000000 1749.000000"
 preserveAspectRatio="xMidYMid meet">

<g transform="translate(0.000000,1749.000000) scale(0.100000,-0.100000)"
fill="#000000" stroke="none">
<path d="M1510 17071 c-192 -61 -357 -221 -445 -430 -54 -127 -76 -231 -82
-378 -5 -121 -7 -133 -24 -133 -19 0 -19 -69 -19 -2692 l0 -2693 -383 -125
-382 -126 -3 -2445 -2 -2445 357 -118 c197 -65 372 -123 389 -128 26 -9 60
-58 229 -332 110 -177 272 -438 360 -581 188 -302 555 -895 831 -1343 107
-171 210 -337 229 -368 34 -53 37 -64 46 -173 11 -139 31 -246 70 -363 125
-385 407 -682 734 -773 88 -24 311 -31 401 -12 464 99 825 580 860 1148 l7
104 142 230 c176 285 567 916 650 1050 140 225 596 963 709 1147 67 108 124
197 129 198 4 0 7 -587 7 -1305 l0 -1305 1721 0 c1509 0 1720 2 1716 15 -6 14
-84 123 -514 717 -106 147 -193 272 -193 276 0 5 57 44 128 87 121 75 602 372
952 590 181 112 203 126 760 471 212 131 457 283 545 337 88 55 181 113 208
128 l47 28 0 -1974 0 -1975 941 0 941 0 -6 27 c-3 16 -37 255 -76 533 -39 278
-77 548 -85 601 -8 53 -15 101 -15 108 0 8 264 11 1005 11 553 0 1005 -3 1005
-7 0 -13 -170 -1217 -176 -1246 l-6 -27 941 0 941 0 2 1975 3 1975 90 -57 c81
-51 201 -125 355 -221 30 -19 170 -105 310 -192 604 -373 1112 -687 1205 -745
55 -34 183 -114 285 -177 361 -223 390 -242 390 -248 0 -8 -69 -107 -180 -260
-46 -63 -164 -227 -263 -365 -99 -137 -197 -274 -219 -302 -21 -29 -41 -60
-44 -68 -6 -13 185 -15 1712 -13 l1719 3 3 5698 2 5697 -609 0 -609 0 -5 -457
c-4 -352 -8 -484 -21 -572 -83 -571 -301 -1037 -633 -1351 -197 -186 -432
-307 -663 -341 -125 -18 -322 -7 -440 26 -507 140 -926 640 -1105 1320 -77
290 -98 522 -93 1023 l3 352 -487 0 c-423 0 -488 -2 -488 -15 0 -8 -11 -137
-25 -287 -13 -150 -58 -651 -100 -1113 -41 -462 -86 -963 -100 -1113 -19 -208
-25 -335 -25 -537 l0 -265 -2672 2 -2673 3 -6 325 c-3 179 -9 345 -13 370 -4
25 -38 398 -77 830 -90 1021 -115 1299 -139 1559 -11 118 -20 221 -20 228 0
10 -94 13 -487 13 l-488 0 3 -362 c4 -384 -6 -568 -39 -765 -141 -842 -635
-1472 -1247 -1589 -95 -18 -289 -18 -384 0 -525 100 -970 580 -1172 1261 -92
310 -107 445 -113 998 l-5 457 -594 0 -594 0 0 1025 0 1025 -25 0 c-24 0 -25
2 -25 63 0 138 -51 350 -116 481 -88 175 -198 288 -365 373 l-74 38 -2090 2
c-1977 2 -2093 1 -2145 -16z m4254 -35 c216 -82 379 -276 457 -546 26 -86 49
-231 49 -302 l0 -57 -241 -3 -241 -3 -19 -25 c-10 -14 -23 -30 -29 -37 -18
-22 -11 -43 15 -43 20 0 25 5 25 25 0 51 24 56 291 53 l244 -3 0 -1043 c0
-986 1 -1042 18 -1042 10 0 17 8 17 20 0 20 7 20 580 20 l580 0 0 -352 c0
-194 5 -414 10 -488 47 -615 272 -1155 628 -1504 264 -259 551 -386 872 -386
328 0 622 132 882 396 323 328 523 771 604 1334 12 87 17 222 21 558 l5 442
453 0 454 0 5 -42 c3 -24 17 -171 31 -328 36 -415 67 -756 142 -1570 58 -640
67 -762 72 -1038 l6 -312 -27 0 c-22 0 -28 -5 -28 -22 l0 -23 2745 0 2745 0 0
23 c0 13 -6 22 -15 22 -13 0 -15 35 -15 256 0 242 5 312 95 1317 53 584 106
1186 120 1337 13 151 27 299 30 328 l6 52 454 0 453 0 5 -432 c5 -458 11 -536
57 -768 77 -386 234 -736 448 -1001 85 -105 243 -254 337 -317 89 -60 228
-129 322 -161 150 -50 370 -65 535 -36 544 95 1019 612 1213 1322 83 303 96
422 102 951 l5 442 579 0 579 0 0 -1650 c0 -1462 -2 -1649 -15 -1644 -25 10
-44 -3 -38 -26 4 -17 12 -21 29 -17 l24 4 0 -2668 c0 -2366 -2 -2669 -15
-2669 -8 0 -15 -9 -15 -20 0 -11 7 -20 15 -20 13 0 15 -153 15 -1315 l0 -1315
-1676 0 c-1508 0 -1676 2 -1670 15 5 13 178 256 428 600 204 281 261 361 264
370 2 5 -52 43 -119 84 -117 72 -211 129 -582 359 -93 58 -215 133 -270 167
-55 34 -183 114 -285 177 -102 63 -275 170 -385 238 -110 67 -216 133 -235
145 -19 13 -82 52 -140 87 -58 36 -202 125 -320 198 -118 73 -233 144 -256
158 -32 20 -40 30 -36 48 4 22 1 23 -62 23 -59 0 -66 -2 -66 -20 0 -12 7 -19
20 -19 20 0 20 -7 20 -1965 l0 -1965 -905 0 c-789 0 -905 2 -905 15 0 8 11 92
25 187 122 859 145 1036 140 1056 l-5 22 -1030 0 -1030 0 0 -23 c0 -13 38
-294 85 -626 47 -331 85 -609 85 -617 0 -12 -128 -14 -905 -14 l-905 0 0 1968
0 1969 30 -5 c25 -4 30 -1 30 16 0 18 -6 20 -60 21 -52 0 -60 -3 -60 -18 0
-11 -6 -21 -14 -24 -7 -3 -164 -99 -347 -213 -184 -114 -401 -249 -484 -299
-256 -158 -528 -326 -565 -350 -19 -12 -123 -77 -230 -143 -341 -209 -783
-483 -835 -517 -27 -17 -80 -50 -117 -71 -37 -21 -68 -41 -68 -44 0 -3 22 -34
48 -70 27 -36 172 -236 322 -445 150 -209 286 -398 302 -419 15 -22 28 -44 28
-48 0 -4 -754 -8 -1675 -8 l-1675 0 0 1314 0 1315 28 3 c16 2 27 9 27 18 0 12
-14 15 -62 17 -55 2 -63 0 -63 -17 0 -10 4 -20 10 -22 5 -1 -14 -41 -43 -88
-29 -47 -196 -317 -371 -600 -176 -283 -347 -560 -381 -615 -56 -89 -428 -690
-712 -1150 -58 -93 -111 -177 -118 -185 -7 -9 -15 -63 -19 -130 -31 -547 -371
-1015 -814 -1121 -124 -30 -322 -23 -435 15 -158 53 -288 137 -404 260 -215
228 -345 551 -355 881 -2 69 -3 72 -88 210 -48 77 -170 275 -272 440 -102 165
-307 496 -455 735 -148 239 -343 554 -433 700 -90 146 -217 351 -282 455 -101
164 -115 190 -98 193 30 5 26 42 -4 42 -13 0 -27 -6 -29 -12 -3 -7 -3 2 0 21
4 22 1 36 -7 41 -20 13 -42 0 -37 -21 4 -13 0 -19 -11 -18 -10 0 -174 53 -367
117 l-350 117 -3 2422 -2 2422 361 120 c315 104 364 118 376 105 18 -18 15
-18 47 11 31 29 34 55 6 55 -20 0 -20 5 -18 2668 l3 2667 244 3 c264 3 286 -1
293 -50 4 -31 48 -39 48 -9 0 12 -5 21 -10 21 -6 0 -15 11 -21 24 -19 42 -46
46 -291 46 l-231 0 6 133 c11 260 111 498 270 643 60 54 211 137 267 147 14 2
953 5 2087 6 l2063 1 64 -24z"/>
<path d="M1610 16040 c0 -13 7 -20 20 -20 13 0 20 7 20 20 0 13 -7 20 -20 20
-13 0 -20 -7 -20 -20z"/>
<path d="M1690 16040 c0 -13 7 -20 20 -20 13 0 20 7 20 20 0 13 -7 20 -20 20
-13 0 -20 -7 -20 -20z"/>
<path d="M1780 16040 c0 -13 7 -20 20 -20 13 0 20 7 20 20 0 13 -7 20 -20 20
-13 0 -20 -7 -20 -20z"/>
<path d="M1860 16040 c0 -13 7 -20 20 -20 13 0 20 7 20 20 0 13 -7 20 -20 20
-13 0 -20 -7 -20 -20z"/>
<path d="M1940 16040 c0 -15 7 -20 25 -20 18 0 25 5 25 20 0 15 -7 20 -25 20
-18 0 -25 -5 -25 -20z"/>
<path d="M2030 16040 c0 -13 7 -20 20 -20 13 0 20 7 20 20 0 13 -7 20 -20 20
-13 0 -20 -7 -20 -20z"/>
<path d="M2110 16040 c0 -13 7 -20 20 -20 13 0 20 7 20 20 0 13 -7 20 -20 20
-13 0 -20 -7 -20 -20z"/>
<path d="M2200 16040 c0 -13 7 -20 20 -20 13 0 20 7 20 20 0 13 -7 20 -20 20
-13 0 -20 -7 -20 -20z"/>
<path d="M2280 16040 c0 -13 7 -20 20 -20 13 0 20 7 20 20 0 13 -7 20 -20 20
-13 0 -20 -7 -20 -20z"/>
<path d="M2360 16040 c0 -15 7 -20 25 -20 18 0 25 5 25 20 0 15 -7 20 -25 20
-18 0 -25 -5 -25 -20z"/>
<path d="M2450 16040 c0 -13 7 -20 20 -20 13 0 20 7 20 20 0 13 -7 20 -20 20
-13 0 -20 -7 -20 -20z"/>
<path d="M2530 16040 c0 -14 7 -20 24 -20 19 0 23 4 19 20 -3 11 -14 20 -24
20 -12 0 -19 -7 -19 -20z"/>
<path d="M2620 16040 c0 -13 7 -20 20 -20 13 0 20 7 20 20 0 13 -7 20 -20 20
-13 0 -20 -7 -20 -20z"/>
<path d="M2700 16040 c0 -13 7 -20 20 -20 13 0 20 7 20 20 0 13 -7 20 -20 20
-13 0 -20 -7 -20 -20z"/>
<path d="M2780 16040 c0 -15 7 -20 25 -20 18 0 25 5 25 20 0 15 -7 20 -25 20
-18 0 -25 -5 -25 -20z"/>
<path d="M2870 16040 c0 -13 7 -20 20 -20 13 0 20 7 20 20 0 13 -7 20 -20 20
-13 0 -20 -7 -20 -20z"/>
<path d="M2950 16040 c0 -15 7 -20 25 -20 18 0 25 5 25 20 0 15 -7 20 -25 20
-18 0 -25 -5 -25 -20z"/>
<path d="M3040 16040 c0 -13 7 -20 20 -20 13 0 20 7 20 20 0 13 -7 20 -20 20
-13 0 -20 -7 -20 -20z"/>
<path d="M3120 16040 c0 -13 7 -20 20 -20 13 0 20 7 20 20 0 13 -7 20 -20 20
-13 0 -20 -7 -20 -20z"/>
<path d="M3210 16040 c0 -13 7 -20 20 -20 13 0 20 7 20 20 0 13 -7 20 -20 20
-13 0 -20 -7 -20 -20z"/>
<path d="M3290 16040 c0 -13 7 -20 20 -20 13 0 20 7 20 20 0 13 -7 20 -20 20
-13 0 -20 -7 -20 -20z"/>
<path d="M3370 16040 c0 -15 7 -20 25 -20 18 0 25 5 25 20 0 15 -7 20 -25 20
-18 0 -25 -5 -25 -20z"/>
<path d="M3460 16040 c0 -13 7 -20 20 -20 13 0 20 7 20 20 0 13 -7 20 -20 20
-13 0 -20 -7 -20 -20z"/>
<path d="M3540 16040 c0 -13 7 -20 20 -20 13 0 20 7 20 20 0 13 -7 20 -20 20
-13 0 -20 -7 -20 -20z"/>
<path d="M3630 16040 c0 -13 7 -20 20 -20 13 0 20 7 20 20 0 13 -7 20 -20 20
-13 0 -20 -7 -20 -20z"/>
<path d="M3710 16040 c0 -13 7 -20 20 -20 13 0 20 7 20 20 0 13 -7 20 -20 20
-13 0 -20 -7 -20 -20z"/>
<path d="M3790 16040 c0 -15 7 -20 25 -20 18 0 25 5 25 20 0 15 -7 20 -25 20
-18 0 -25 -5 -25 -20z"/>
<path d="M3880 16040 c0 -13 7 -20 20 -20 13 0 20 7 20 20 0 13 -7 20 -20 20
-13 0 -20 -7 -20 -20z"/>
<path d="M3960 16040 c0 -15 7 -20 25 -20 18 0 25 5 25 20 0 15 -7 20 -25 20
-18 0 -25 -5 -25 -20z"/>
<path d="M4050 16040 c0 -13 7 -20 20 -20 13 0 20 7 20 20 0 13 -7 20 -20 20
-13 0 -20 -7 -20 -20z"/>
<path d="M4130 16040 c0 -14 7 -20 24 -20 19 0 23 4 19 20 -3 11 -14 20 -24
20 -12 0 -19 -7 -19 -20z"/>
<path d="M4220 16040 c0 -13 7 -20 20 -20 13 0 20 7 20 20 0 13 -7 20 -20 20
-13 0 -20 -7 -20 -20z"/>
<path d="M4300 16040 c0 -13 7 -20 20 -20 13 0 20 7 20 20 0 13 -7 20 -20 20
-13 0 -20 -7 -20 -20z"/>
<path d="M4380 16040 c0 -15 7 -20 25 -20 18 0 25 5 25 20 0 15 -7 20 -25 20
-18 0 -25 -5 -25 -20z"/>
<path d="M4470 16040 c0 -13 7 -20 20 -20 13 0 20 7 20 20 0 13 -7 20 -20 20
-13 0 -20 -7 -20 -20z"/>
<path d="M4550 16040 c0 -13 7 -20 20 -20 13 0 20 7 20 20 0 13 -7 20 -20 20
-13 0 -20 -7 -20 -20z"/>
<path d="M4640 16040 c0 -13 7 -20 20 -20 13 0 20 7 20 20 0 13 -7 20 -20 20
-13 0 -20 -7 -20 -20z"/>
<path d="M4720 16040 c0 -13 7 -20 20 -20 13 0 20 7 20 20 0 13 -7 20 -20 20
-13 0 -20 -7 -20 -20z"/>
<path d="M4800 16040 c0 -15 7 -20 25 -20 18 0 25 5 25 20 0 15 -7 20 -25 20
-18 0 -25 -5 -25 -20z"/>
<path d="M4890 16040 c0 -13 7 -20 20 -20 13 0 20 7 20 20 0 13 -7 20 -20 20
-13 0 -20 -7 -20 -20z"/>
<path d="M4970 16040 c0 -15 7 -20 25 -20 18 0 25 5 25 20 0 15 -7 20 -25 20
-18 0 -25 -5 -25 -20z"/>
<path d="M5060 16040 c0 -13 7 -20 20 -20 13 0 20 7 20 20 0 13 -7 20 -20 20
-13 0 -20 -7 -20 -20z"/>
<path d="M5140 16040 c0 -13 7 -20 20 -20 13 0 20 7 20 20 0 13 -7 20 -20 20
-13 0 -20 -7 -20 -20z"/>
<path d="M5230 16040 c0 -13 7 -20 20 -20 13 0 20 7 20 20 0 13 -7 20 -20 20
-13 0 -20 -7 -20 -20z"/>
<path d="M5310 16040 c0 -13 7 -20 20 -20 13 0 20 7 20 20 0 13 -7 20 -20 20
-13 0 -20 -7 -20 -20z"/>
<path d="M5390 16040 c0 -15 7 -20 25 -20 18 0 25 5 25 20 0 15 -7 20 -25 20
-18 0 -25 -5 -25 -20z"/>
<path d="M5480 16040 c0 -13 7 -20 20 -20 13 0 20 7 20 20 0 13 -7 20 -20 20
-13 0 -20 -7 -20 -20z"/>
<path d="M5560 16040 c0 -13 7 -20 20 -20 13 0 20 7 20 20 0 13 -7 20 -20 20
-13 0 -20 -7 -20 -20z"/>
<path d="M5650 16040 c0 -13 7 -20 20 -20 13 0 20 7 20 20 0 13 -7 20 -20 20
-13 0 -20 -7 -20 -20z"/>
<path d="M3375 14610 c-3 -5 3 -10 14 -10 12 0 21 5 21 10 0 6 -6 10 -14 10
-8 0 -18 -4 -21 -10z"/>
<path d="M3450 14610 c0 -5 9 -10 19 -10 11 0 23 5 26 10 4 6 -5 10 -19 10
-14 0 -26 -4 -26 -10z"/>
<path d="M3548 14613 c6 -2 18 -2 25 0 6 3 1 5 -13 5 -14 0 -19 -2 -12 -5z"/>
<path d="M3625 14610 c3 -5 12 -7 20 -3 21 7 19 13 -6 13 -11 0 -18 -4 -14
-10z"/>
<path d="M3713 14609 c14 -8 22 -8 30 0 8 8 3 11 -18 11 -26 -1 -28 -2 -12
-11z"/>
<path d="M3790 14610 c0 -5 9 -10 20 -10 11 0 20 5 20 10 0 6 -9 10 -20 10
-11 0 -20 -4 -20 -10z"/>
<path d="M3290 14600 c0 -5 9 -10 20 -10 11 0 20 5 20 10 0 6 -9 10 -20 10
-11 0 -20 -4 -20 -10z"/>
<path d="M3880 14600 c19 -13 30 -13 30 0 0 6 -10 10 -22 10 -19 0 -20 -2 -8
-10z"/>
<path d="M3953 14597 c4 -13 35 -18 42 -7 3 4 -7 10 -21 13 -14 2 -23 0 -21
-6z"/>
<path d="M3205 14590 c3 -5 15 -10 26 -10 10 0 19 5 19 10 0 6 -12 10 -26 10
-14 0 -23 -4 -19 -10z"/>
<path d="M3120 14580 c0 -5 11 -10 25 -10 14 0 25 5 25 10 0 6 -11 10 -25 10
-14 0 -25 -4 -25 -10z"/>
<path d="M4040 14580 c20 -13 40 -13 40 0 0 6 -12 10 -27 10 -22 0 -25 -2 -13
-10z"/>
<path d="M3053 14573 c-21 -8 -15 -22 7 -16 11 3 20 9 20 14 0 10 -8 10 -27 2z"/>
<path d="M4120 14570 c0 -5 9 -10 20 -10 11 0 20 5 20 10 0 6 -9 10 -20 10
-11 0 -20 -4 -20 -10z"/>
<path d="M3385 14560 c-3 -5 3 -10 14 -10 12 0 21 5 21 10 0 6 -6 10 -14 10
-8 0 -18 -4 -21 -10z"/>
<path d="M3460 14560 c0 -5 9 -10 20 -10 11 0 20 5 20 10 0 6 -9 10 -20 10
-11 0 -20 -4 -20 -10z"/>
<path d="M3550 14560 c0 -5 9 -10 20 -10 11 0 20 5 20 10 0 6 -9 10 -20 10
-11 0 -20 -4 -20 -10z"/>
<path d="M3630 14560 c0 -5 9 -10 20 -10 11 0 20 5 20 10 0 6 -9 10 -20 10
-11 0 -20 -4 -20 -10z"/>
<path d="M3710 14560 c0 -5 9 -10 20 -10 11 0 20 5 20 10 0 6 -9 10 -20 10
-11 0 -20 -4 -20 -10z"/>
<path d="M3790 14560 c0 -5 11 -10 25 -10 14 0 25 5 25 10 0 6 -11 10 -25 10
-14 0 -25 -4 -25 -10z"/>
<path d="M2960 14550 c0 -5 9 -10 20 -10 11 0 20 5 20 10 0 6 -9 10 -20 10
-11 0 -20 -4 -20 -10z"/>
<path d="M3300 14550 c0 -5 9 -10 20 -10 11 0 20 5 20 10 0 6 -9 10 -20 10
-11 0 -20 -4 -20 -10z"/>
<path d="M3880 14550 c0 -5 9 -10 20 -10 11 0 20 5 20 10 0 6 -9 10 -20 10
-11 0 -20 -4 -20 -10z"/>
<path d="M4200 14550 c0 -5 9 -10 20 -10 11 0 20 5 20 10 0 6 -9 10 -20 10
-11 0 -20 -4 -20 -10z"/>
<path d="M3210 14540 c0 -5 9 -10 19 -10 11 0 23 5 26 10 4 6 -5 10 -19 10
-14 0 -26 -4 -26 -10z"/>
<path d="M3960 14540 c0 -5 9 -10 20 -10 11 0 20 5 20 10 0 6 -9 10 -20 10
-11 0 -20 -4 -20 -10z"/>
<path d="M2880 14530 c0 -5 9 -10 20 -10 11 0 20 5 20 10 0 6 -9 10 -20 10
-11 0 -20 -4 -20 -10z"/>
<path d="M3130 14530 c0 -5 9 -10 20 -10 11 0 20 5 20 10 0 6 -9 10 -20 10
-11 0 -20 -4 -20 -10z"/>
<path d="M4040 14530 c0 -5 9 -10 20 -10 11 0 20 5 20 10 0 6 -9 10 -20 10
-11 0 -20 -4 -20 -10z"/>
<path d="M4285 14530 c3 -5 13 -10 21 -10 8 0 14 5 14 10 0 6 -9 10 -21 10
-11 0 -17 -4 -14 -10z"/>
<path d="M3050 14520 c0 -5 9 -10 20 -10 11 0 20 5 20 10 0 6 -9 10 -20 10
-11 0 -20 -4 -20 -10z"/>
<path d="M4125 14520 c-3 -4 2 -11 11 -14 22 -8 34 -7 34 3 0 12 -39 21 -45
11z"/>
<path d="M2810 14510 c-8 -5 -12 -12 -9 -15 8 -8 39 5 39 16 0 11 -11 11 -30
-1z"/>
<path d="M2988 14512 c-10 -2 -18 -8 -18 -13 0 -11 11 -11 30 1 18 11 11 18
-12 12z"/>
<path d="M4360 14511 c0 -5 9 -11 20 -14 13 -3 20 0 20 9 0 8 -9 14 -20 14
-11 0 -20 -4 -20 -9z"/>
<path d="M4206 14501 c-6 -9 35 -24 43 -15 6 5 -18 24 -31 24 -4 0 -9 -4 -12
-9z"/>
<path d="M2896 14491 c-12 -5 -16 -10 -9 -14 13 -8 43 2 43 14 0 10 -8 10 -34
0z"/>
<path d="M4443 14487 c5 -15 37 -22 37 -9 0 5 -9 12 -21 15 -13 3 -19 1 -16
-6z"/>
<path d="M2725 14480 c-3 -5 3 -10 14 -10 12 0 21 5 21 10 0 6 -6 10 -14 10
-8 0 -18 -4 -21 -10z"/>
<path d="M4284 14479 c-3 -5 -1 -9 5 -9 5 0 16 -3 25 -6 9 -3 16 -2 16 4 0 13
-38 23 -46 11z"/>
<path d="M2816 14471 c-12 -5 -16 -10 -9 -14 13 -8 43 2 43 14 0 10 -8 10 -34
0z"/>
<path d="M4520 14460 c0 -13 28 -25 38 -16 3 4 0 11 -8 16 -20 13 -30 12 -30
0z"/>
<path d="M2645 14450 c-3 -5 3 -10 14 -10 11 0 23 5 26 10 3 6 -3 10 -14 10
-11 0 -23 -4 -26 -10z"/>
<path d="M4365 14450 c3 -5 15 -10 26 -10 10 0 19 5 19 10 0 6 -12 10 -26 10
-14 0 -23 -4 -19 -10z"/>
<path d="M2725 14440 c-3 -5 3 -10 14 -10 11 0 23 5 26 10 3 6 -3 10 -14 10
-11 0 -23 -4 -26 -10z"/>
<path d="M4446 14431 c-6 -9 35 -24 43 -15 6 5 -18 24 -31 24 -4 0 -9 -4 -12
-9z"/>
<path d="M4590 14431 c0 -11 31 -24 39 -16 3 3 -1 10 -9 15 -19 12 -30 12 -30
1z"/>
<path d="M2575 14419 c-4 -6 -5 -12 -2 -15 7 -7 37 7 37 17 0 13 -27 11 -35
-2z"/>
<path d="M2650 14405 c0 -13 4 -14 20 -5 11 6 20 13 20 15 0 3 -9 5 -20 5 -11
0 -20 -7 -20 -15z"/>
<path d="M4520 14401 c0 -12 39 -21 45 -11 3 4 -2 11 -11 14 -22 8 -34 7 -34
-3z"/>
<path d="M4670 14391 c0 -10 30 -24 37 -17 3 3 2 9 -2 15 -8 13 -35 15 -35 2z"/>
<path d="M2502 14383 c-6 -2 -10 -9 -7 -13 7 -11 35 -2 35 11 0 10 -8 10 -28
2z"/>
<path d="M2575 14379 c-4 -6 -5 -12 -2 -15 7 -7 37 7 37 17 0 13 -27 11 -35
-2z"/>
<path d="M4600 14371 c0 -11 31 -24 39 -16 3 3 -1 10 -9 15 -19 12 -30 12 -30
1z"/>
<path d="M4745 14361 c-3 -6 3 -15 14 -21 12 -6 22 -6 26 -1 3 6 -3 15 -14 21
-12 6 -22 6 -26 1z"/>
<path d="M2510 14350 c-20 -12 -5 -24 16 -12 9 5 12 12 7 15 -5 3 -15 2 -23
-3z"/>
<path d="M2430 14340 c-8 -5 -12 -12 -9 -15 8 -8 39 5 39 16 0 11 -11 11 -30
-1z"/>
<path d="M4680 14335 c0 -8 9 -15 20 -15 11 0 20 2 20 5 0 2 -9 9 -20 15 -16
9 -20 8 -20 -5z"/>
<path d="M4815 14320 c-3 -5 3 -14 14 -20 26 -13 35 2 11 18 -11 7 -21 8 -25
2z"/>
<path d="M2430 14305 c-13 -16 -3 -20 24 -9 9 3 13 10 10 15 -8 13 -20 11 -34
-6z"/>
<path d="M2375 14300 c-3 -5 -1 -10 4 -10 6 0 11 5 11 10 0 6 -2 10 -4 10 -3
0 -8 -4 -11 -10z"/>
<path d="M4750 14301 c0 -11 31 -24 39 -16 3 3 -1 10 -9 15 -19 12 -30 12 -30
1z"/>
<path d="M4895 13406 c0 -772 2 -873 15 -868 36 13 163 118 241 199 138 143
226 292 270 458 30 112 30 306 0 420 -43 163 -131 314 -265 454 -70 72 -237
211 -255 211 -3 0 -6 -393 -6 -874z m121 763 c132 -104 254 -255 324 -400 61
-127 82 -221 82 -364 0 -182 -51 -342 -161 -503 -70 -103 -235 -266 -318 -316
-10 -6 -13 161 -13 819 0 658 3 825 13 819 6 -4 39 -29 73 -55z"/>
<path d="M2285 14206 c-100 -79 -219 -203 -274 -285 -59 -86 -117 -211 -142
-306 -30 -112 -30 -307 -1 -418 45 -166 133 -316 266 -455 79 -83 224 -202
246 -202 7 0 10 257 10 865 0 691 -3 865 -13 865 -7 0 -49 -29 -92 -64z m75
-796 c0 -607 -3 -820 -11 -820 -18 0 -141 104 -213 180 -118 125 -206 281
-247 435 -29 112 -29 288 0 400 55 207 193 408 388 565 41 33 76 60 79 60 2 0
4 -369 4 -820z"/>
<path d="M4820 14262 c0 -4 9 -13 20 -20 16 -10 20 -10 20 2 0 8 -7 17 -16 20
-20 8 -24 8 -24 -2z"/>
<path d="M6310 13890 c0 -23 4 -30 20 -30 16 0 20 7 20 30 0 23 -4 30 -20 30
-16 0 -20 -7 -20 -30z"/>
<path d="M6310 13745 c0 -18 5 -25 20 -25 15 0 20 7 20 25 0 18 -5 25 -20 25
-15 0 -20 -7 -20 -25z"/>
<path d="M6310 13595 c0 -18 5 -25 20 -25 15 0 20 7 20 25 0 18 -5 25 -20 25
-15 0 -20 -7 -20 -25z"/>
<path d="M6310 13449 c0 -23 5 -29 21 -29 16 0 20 5 17 27 -4 39 -38 41 -38 2z"/>
<path d="M6310 13300 c0 -23 4 -30 20 -30 16 0 20 7 20 30 0 23 -4 30 -20 30
-16 0 -20 -7 -20 -30z"/>
<path d="M6310 13155 c0 -18 5 -25 20 -25 15 0 20 7 20 25 0 18 -5 25 -20 25
-15 0 -20 -7 -20 -25z"/>
<path d="M6310 13005 c0 -18 5 -25 20 -25 15 0 20 7 20 25 0 18 -5 25 -20 25
-15 0 -20 -7 -20 -25z"/>
<path d="M6310 12864 c0 -13 8 -24 20 -27 16 -4 20 0 20 22 0 20 -5 27 -20 27
-14 0 -20 -7 -20 -22z"/>
<path d="M6310 12715 c0 -18 5 -25 20 -25 15 0 20 7 20 25 0 18 -5 25 -20 25
-15 0 -20 -7 -20 -25z"/>
<path d="M2400 12580 c0 -5 5 -10 10 -10 6 0 10 5 10 10 0 6 -4 10 -10 10 -5
0 -10 -4 -10 -10z"/>
<path d="M6310 12565 c0 -18 5 -25 20 -25 15 0 20 7 20 25 0 18 -5 25 -20 25
-15 0 -20 -7 -20 -25z"/>
<path d="M2456 12551 c-4 -6 3 -15 14 -21 23 -12 27 2 6 19 -9 8 -16 8 -20 2z"/>
<path d="M2400 12530 c0 -13 28 -25 38 -16 3 4 0 11 -8 16 -20 13 -30 12 -30
0z"/>
<path d="M4820 12505 c-10 -12 -10 -15 3 -15 8 0 20 7 27 15 10 12 10 15 -3
15 -8 0 -20 -7 -27 -15z"/>
<path d="M4900 12510 c0 -5 5 -10 10 -10 6 0 10 5 10 10 0 6 -4 10 -10 10 -5
0 -10 -4 -10 -10z"/>
<path d="M2530 12501 c0 -11 31 -24 39 -16 3 3 -1 10 -9 15 -19 12 -30 12 -30
1z"/>
<path d="M2470 12491 c0 -6 9 -15 20 -21 13 -7 20 -7 20 -1 0 6 -9 15 -20 21
-13 7 -20 7 -20 1z"/>
<path d="M4837 12475 c-10 -7 -14 -16 -9 -19 5 -3 17 1 27 8 10 7 14 15 9 19
-5 3 -17 -1 -27 -8z"/>
<path d="M4750 12470 c-8 -5 -12 -12 -9 -15 8 -8 39 5 39 16 0 11 -11 11 -30
-1z"/>
<path d="M2600 12462 c0 -5 9 -12 21 -15 13 -3 19 -1 16 6 -5 15 -37 22 -37 9z"/>
<path d="M2545 12451 c-3 -6 3 -15 14 -21 12 -6 22 -6 26 -1 3 6 -3 15 -14 21
-12 6 -22 6 -26 1z"/>
<path d="M4674 12436 c-10 -8 -16 -17 -13 -20 3 -3 14 1 25 8 10 8 16 17 13
20 -3 3 -14 -1 -25 -8z"/>
<path d="M4764 12436 c-10 -8 -16 -17 -13 -20 3 -3 14 1 25 8 10 8 16 17 13
20 -3 3 -14 -1 -25 -8z"/>
<path d="M6310 12420 c0 -23 4 -30 20 -30 16 0 20 7 20 30 0 23 -4 30 -20 30
-16 0 -20 -7 -20 -30z"/>
<path d="M2683 12427 c5 -15 37 -22 37 -9 0 5 -9 12 -21 15 -13 3 -19 1 -16
-6z"/>
<path d="M2620 12410 c0 -13 28 -25 38 -16 3 4 0 11 -8 16 -20 13 -30 12 -30
0z"/>
<path d="M2760 12395 c0 -8 9 -15 20 -15 11 0 20 2 20 5 0 2 -9 9 -20 15 -16
9 -20 8 -20 -5z"/>
<path d="M4585 12401 c-10 -17 11 -21 31 -6 18 14 18 14 -3 15 -12 0 -24 -4
-28 -9z"/>
<path d="M4690 12400 c-20 -12 -5 -24 16 -12 9 5 12 12 7 15 -5 3 -15 2 -23
-3z"/>
<path d="M2700 12370 c0 -5 9 -10 21 -10 11 0 17 5 14 10 -3 6 -13 10 -21 10
-8 0 -14 -4 -14 -10z"/>
<path d="M2840 12364 c0 -8 9 -14 20 -14 11 0 20 4 20 9 0 5 -9 11 -20 14 -13
3 -20 0 -20 -9z"/>
<path d="M4505 12370 c-3 -5 3 -10 14 -10 11 0 23 5 26 10 3 6 -3 10 -14 10
-11 0 -23 -4 -26 -10z"/>
<path d="M4600 12360 c0 -5 6 -10 14 -10 8 0 18 5 21 10 3 6 -3 10 -14 10 -12
0 -21 -4 -21 -10z"/>
<path d="M4433 12353 c-14 -5 -18 -23 -5 -23 5 0 17 7 28 15 14 11 15 14 4 14
-8 0 -21 -3 -27 -6z"/>
<path d="M2775 12340 c3 -5 15 -10 26 -10 11 0 17 5 14 10 -3 6 -15 10 -26 10
-11 0 -17 -4 -14 -10z"/>
<path d="M2920 12341 c0 -11 31 -24 39 -16 3 3 -1 10 -9 15 -19 12 -30 12 -30
1z"/>
<path d="M4538 12342 c-10 -2 -18 -8 -18 -13 0 -13 27 -11 35 2 9 13 4 16 -17
11z"/>
<path d="M4350 12330 c-8 -5 -12 -12 -9 -15 8 -8 39 5 39 16 0 11 -11 11 -30
-1z"/>
<path d="M2856 12323 c-3 -3 -3 -10 0 -14 7 -12 44 -12 44 0 0 10 -36 21 -44
14z"/>
<path d="M3000 12321 c0 -11 31 -24 39 -16 3 3 -1 10 -9 15 -19 12 -30 12 -30
1z"/>
<path d="M4267 12313 c-13 -13 -7 -21 13 -16 11 3 20 9 20 14 0 10 -24 12 -33
2z"/>
<path d="M4450 12310 c-8 -5 -12 -12 -9 -15 8 -8 39 5 39 16 0 11 -11 11 -30
-1z"/>
<path d="M3080 12301 c0 -12 39 -21 45 -11 3 4 -2 11 -11 14 -22 8 -34 7 -34
-3z"/>
<path d="M2936 12291 c-6 -9 35 -24 43 -15 6 5 -18 24 -31 24 -4 0 -9 -4 -12
-9z"/>
<path d="M4180 12290 c0 -5 9 -10 20 -10 11 0 20 5 20 10 0 6 -9 10 -20 10
-11 0 -20 -4 -20 -10z"/>
<path d="M6310 12270 c0 -23 4 -30 20 -30 16 0 20 7 20 30 0 23 -4 30 -20 30
-16 0 -20 -7 -20 -30z"/>
<path d="M3165 12280 c3 -5 15 -10 26 -10 10 0 19 5 19 10 0 6 -12 10 -26 10
-14 0 -23 -4 -19 -10z"/>
<path d="M4095 12280 c-3 -5 3 -10 14 -10 12 0 21 5 21 10 0 6 -6 10 -14 10
-8 0 -18 -4 -21 -10z"/>
<path d="M4360 12280 c0 -5 6 -10 14 -10 8 0 18 5 21 10 3 6 -3 10 -14 10 -12
0 -21 -4 -21 -10z"/>
<path d="M3020 12271 c0 -11 31 -24 39 -16 3 3 -1 10 -9 15 -19 12 -30 12 -30
1z"/>
<path d="M3250 12270 c0 -5 9 -10 20 -10 11 0 20 5 20 10 0 6 -9 10 -20 10
-11 0 -20 -4 -20 -10z"/>
<path d="M4015 12270 c-3 -5 3 -10 14 -10 12 0 21 5 21 10 0 6 -6 10 -14 10
-8 0 -18 -4 -21 -10z"/>
<path d="M3330 12260 c0 -5 12 -10 26 -10 14 0 23 4 19 10 -3 6 -15 10 -26 10
-10 0 -19 -4 -19 -10z"/>
<path d="M3920 12260 c0 -5 11 -10 25 -10 14 0 25 5 25 10 0 6 -11 10 -25 10
-14 0 -25 -4 -25 -10z"/>
<path d="M4270 12260 c0 -5 9 -10 19 -10 11 0 23 5 26 10 4 6 -5 10 -19 10
-14 0 -26 -4 -26 -10z"/>
<path d="M3100 12252 c0 -5 9 -12 21 -15 13 -3 19 -1 16 6 -5 15 -37 22 -37 9z"/>
<path d="M3420 12250 c0 -5 9 -10 20 -10 11 0 20 5 20 10 0 6 -9 10 -20 10
-11 0 -20 -4 -20 -10z"/>
<path d="M3500 12250 c0 -5 9 -10 20 -10 11 0 20 5 20 10 0 6 -9 10 -20 10
-11 0 -20 -4 -20 -10z"/>
<path d="M3590 12249 c0 -5 9 -9 20 -9 11 0 20 4 20 8 0 4 -9 8 -20 9 -11 1
-20 -2 -20 -8z"/>
<path d="M3675 12250 c-3 -5 3 -10 14 -10 12 0 21 5 21 10 0 6 -6 10 -14 10
-8 0 -18 -4 -21 -10z"/>
<path d="M3760 12250 c0 -5 9 -10 20 -10 11 0 20 5 20 10 0 6 -9 10 -20 10
-11 0 -20 -4 -20 -10z"/>
<path d="M3840 12250 c0 -5 9 -10 20 -10 11 0 20 5 20 10 0 6 -9 10 -20 10
-11 0 -20 -4 -20 -10z"/>
<path d="M4200 12250 c-8 -5 -12 -12 -9 -15 8 -8 39 5 39 16 0 11 -11 11 -30
-1z"/>
<path d="M3185 12230 c3 -5 15 -10 26 -10 10 0 19 5 19 10 0 6 -12 10 -26 10
-14 0 -23 -4 -19 -10z"/>
<path d="M4110 12230 c0 -5 9 -10 20 -10 11 0 20 5 20 10 0 6 -9 10 -20 10
-11 0 -20 -4 -20 -10z"/>
<path d="M3270 12220 c0 -5 9 -10 20 -10 11 0 20 5 20 10 0 6 -9 10 -20 10
-11 0 -20 -4 -20 -10z"/>
<path d="M4020 12220 c0 -5 11 -10 25 -10 14 0 25 5 25 10 0 6 -11 10 -25 10
-14 0 -25 -4 -25 -10z"/>
<path d="M3350 12210 c0 -5 9 -10 20 -10 11 0 20 5 20 10 0 6 -9 10 -20 10
-11 0 -20 -4 -20 -10z"/>
<path d="M3940 12210 c0 -5 9 -10 20 -10 11 0 20 5 20 10 0 6 -9 10 -20 10
-11 0 -20 -4 -20 -10z"/>
<path d="M3435 12200 c3 -5 15 -10 26 -10 10 0 19 5 19 10 0 6 -12 10 -26 10
-14 0 -23 -4 -19 -10z"/>
<path d="M3520 12200 c0 -5 9 -10 20 -10 11 0 20 5 20 10 0 6 -9 10 -20 10
-11 0 -20 -4 -20 -10z"/>
<path d="M3690 12198 c0 -4 9 -8 20 -8 11 0 20 4 20 8 0 4 -9 8 -20 8 -11 0
-20 -4 -20 -8z"/>
<path d="M3770 12200 c0 -5 9 -10 20 -10 11 0 20 5 20 10 0 6 -9 10 -20 10
-11 0 -20 -4 -20 -10z"/>
<path d="M3860 12200 c0 -5 9 -10 20 -10 11 0 20 5 20 10 0 6 -9 10 -20 10
-11 0 -20 -4 -20 -10z"/>
<path d="M3613 12193 c9 -2 23 -2 30 0 6 3 -1 5 -18 5 -16 0 -22 -2 -12 -5z"/>
<path d="M6310 12125 c0 -18 5 -25 20 -25 15 0 20 7 20 25 0 18 -5 25 -20 25
-15 0 -20 -7 -20 -25z"/>
<path d="M6310 11975 c0 -18 5 -25 20 -25 15 0 20 7 20 25 0 18 -5 25 -20 25
-15 0 -20 -7 -20 -25z"/>
<path d="M6310 11830 c0 -23 4 -30 20 -30 16 0 20 7 20 30 0 23 -4 30 -20 30
-16 0 -20 -7 -20 -30z"/>
<path d="M6310 11680 c0 -23 4 -30 20 -30 16 0 20 7 20 30 0 23 -4 30 -20 30
-16 0 -20 -7 -20 -30z"/>
<path d="M6310 11535 c0 -18 5 -25 20 -25 15 0 20 7 20 25 0 18 -5 25 -20 25
-15 0 -20 -7 -20 -25z"/>
<path d="M6310 11385 c0 -18 5 -25 20 -25 15 0 20 7 20 25 0 18 -5 25 -20 25
-15 0 -20 -7 -20 -25z"/>
<path d="M6310 11240 c0 -19 5 -26 20 -26 15 0 20 7 20 26 0 19 -5 26 -20 26
-15 0 -20 -7 -20 -26z"/>
<path d="M6310 11095 c0 -18 5 -25 20 -25 15 0 20 7 20 25 0 18 -5 25 -20 25
-15 0 -20 -7 -20 -25z"/>
<path d="M6310 10945 c0 -18 5 -25 20 -25 15 0 20 7 20 25 0 18 -5 25 -20 25
-15 0 -20 -7 -20 -25z"/>
<path d="M6310 10795 c0 -18 5 -25 20 -25 15 0 20 7 20 25 0 18 -5 25 -20 25
-15 0 -20 -7 -20 -25z"/>
<path d="M1104 10745 c-8 -19 3 -35 26 -35 19 0 34 25 24 41 -8 14 -44 10 -50
-6z"/>
<path d="M1252 10738 c2 -15 11 -24 26 -26 18 -3 22 1 22 22 0 21 -5 26 -26
26 -21 0 -25 -4 -22 -22z"/>
<path d="M1400 10735 c0 -20 5 -25 25 -25 20 0 25 5 25 25 0 20 -5 25 -25 25
-20 0 -25 -5 -25 -25z"/>
<path d="M1543 10744 c-3 -8 -1 -20 5 -26 16 -16 47 -5 50 20 3 18 -1 22 -23
22 -14 0 -28 -7 -32 -16z"/>
<path d="M1690 10740 c0 -11 5 -21 10 -21 31 -4 40 -3 40 4 0 4 0 14 0 22 0 9
-9 15 -25 15 -18 0 -25 -5 -25 -20z"/>
<path d="M1842 10738 c4 -33 48 -34 48 -2 0 19 -5 24 -26 24 -21 0 -25 -4 -22
-22z"/>
<path d="M1990 10734 c0 -21 4 -25 23 -22 14 2 23 11 25 26 3 18 -1 22 -22 22
-21 0 -26 -5 -26 -26z"/>
<path d="M2134 10745 c-4 -9 -2 -21 4 -27 16 -16 47 -5 47 17 0 26 -42 34 -51
10z"/>
<path d="M2282 10738 c2 -15 11 -24 26 -26 18 -3 22 1 22 22 0 21 -5 26 -26
26 -21 0 -25 -4 -22 -22z"/>
<path d="M2430 10738 c0 -17 6 -23 25 -24 20 -2 25 3 25 22 0 19 -5 24 -25 24
-19 0 -25 -5 -25 -22z"/>
<path d="M2580 10734 c0 -21 4 -25 23 -22 14 2 23 11 25 26 3 18 -1 22 -22 22
-21 0 -26 -5 -26 -26z"/>
<path d="M2722 10738 c4 -31 53 -34 53 -3 0 15 -8 21 -28 23 -25 3 -28 0 -25
-20z"/>
<path d="M2870 10735 c0 -20 5 -25 25 -25 20 0 25 5 25 25 0 20 -5 25 -25 25
-20 0 -25 -5 -25 -25z"/>
<path d="M3020 10734 c0 -21 4 -25 23 -22 14 2 23 11 25 26 3 18 -1 22 -22 22
-21 0 -26 -5 -26 -26z"/>
<path d="M3168 10755 c-3 -3 -3 -15 -1 -26 7 -27 48 -22 48 6 0 19 -33 33 -47
20z"/>
<path d="M3310 10741 c0 -10 7 -21 15 -25 22 -8 47 4 41 21 -3 8 -6 17 -6 19
0 2 -11 4 -25 4 -18 0 -25 -5 -25 -19z"/>
<path d="M3462 10738 c2 -15 10 -23 23 -23 13 0 21 8 23 23 3 18 -1 22 -23 22
-22 0 -26 -4 -23 -22z"/>
<path d="M3612 10738 c2 -15 11 -24 26 -26 18 -3 22 1 22 22 0 21 -5 26 -26
26 -21 0 -25 -4 -22 -22z"/>
<path d="M3756 10744 c-8 -21 -8 -21 9 -28 23 -8 45 4 45 25 0 24 -45 26 -54
3z"/>
<path d="M3903 10745 c-7 -19 -2 -24 26 -30 17 -3 21 1 21 21 0 17 -5 24 -20
24 -11 0 -23 -7 -27 -15z"/>
<path d="M4052 10738 c2 -15 11 -24 26 -26 18 -3 22 1 22 22 0 21 -5 26 -26
26 -21 0 -25 -4 -22 -22z"/>
<path d="M4200 10736 c0 -32 44 -31 48 2 3 18 -1 22 -22 22 -21 0 -26 -5 -26
-24z"/>
<path d="M4350 10737 c0 -18 5 -23 23 -22 14 1 22 8 22 21 0 12 -8 20 -22 22
-18 3 -23 -1 -23 -21z"/>
<path d="M4492 10738 c4 -33 48 -34 48 -2 0 19 -5 24 -26 24 -21 0 -25 -4 -22
-22z"/>
<path d="M4640 10734 c0 -20 4 -25 16 -20 9 3 20 6 25 6 5 0 9 9 9 20 0 15 -7
20 -25 20 -20 0 -25 -5 -25 -26z"/>
<path d="M4790 10734 c0 -21 4 -25 23 -22 14 2 23 11 25 26 3 18 -1 22 -22 22
-21 0 -26 -5 -26 -26z"/>
<path d="M4932 10738 c4 -31 53 -34 53 -3 0 15 -8 21 -28 23 -25 3 -28 0 -25
-20z"/>
<path d="M5080 10735 c0 -20 5 -25 25 -25 20 0 25 5 25 25 0 20 -5 25 -25 25
-20 0 -25 -5 -25 -25z"/>
<path d="M5230 10736 c0 -32 44 -31 48 2 3 18 -1 22 -22 22 -21 0 -26 -5 -26
-24z"/>
<path d="M5380 10745 c0 -8 0 -18 0 -22 0 -7 9 -8 40 -4 6 0 10 10 10 21 0 15
-7 20 -25 20 -16 0 -25 -6 -25 -15z"/>
<path d="M5522 10738 c4 -31 53 -34 53 -3 0 15 -8 21 -28 23 -25 3 -28 0 -25
-20z"/>
<path d="M5670 10735 c0 -20 5 -25 25 -25 20 0 25 5 25 25 0 20 -5 25 -25 25
-20 0 -25 -5 -25 -25z"/>
<path d="M5820 10734 c0 -21 4 -25 23 -22 14 2 23 11 25 26 3 18 -1 22 -22 22
-21 0 -26 -5 -26 -26z"/>
<path d="M5968 10755 c-3 -3 -3 -15 -1 -26 7 -27 48 -22 48 6 0 19 -33 33 -47
20z"/>
<path d="M6110 10741 c0 -20 25 -35 41 -25 5 3 9 14 9 25 0 14 -7 19 -25 19
-18 0 -25 -5 -25 -19z"/>
<path d="M6260 10741 c0 -10 9 -21 19 -24 24 -6 31 0 31 25 0 13 -7 18 -25 18
-18 0 -25 -5 -25 -19z"/>
<path d="M6330 10740 c0 -11 3 -20 8 -21 4 0 15 -2 25 -4 12 -2 17 3 17 21 0
19 -5 24 -25 24 -18 0 -25 -5 -25 -20z"/>
<path d="M6482 10738 c4 -33 48 -34 48 -2 0 19 -5 24 -26 24 -21 0 -25 -4 -22
-22z"/>
<path d="M6630 10735 c0 -20 5 -25 25 -25 20 0 25 5 25 25 0 20 -5 25 -25 25
-20 0 -25 -5 -25 -25z"/>
<path d="M6773 10744 c-3 -8 -1 -20 5 -26 16 -16 47 -5 50 20 3 18 -1 22 -23
22 -14 0 -28 -7 -32 -16z"/>
<path d="M6922 10738 c4 -31 53 -34 53 -3 0 15 -8 21 -28 23 -25 3 -28 0 -25
-20z"/>
<path d="M7070 10740 c0 -11 4 -20 9 -20 5 0 16 -3 25 -6 12 -5 16 0 16 20 0
21 -5 26 -25 26 -18 0 -25 -5 -25 -20z"/>
<path d="M7220 10736 c0 -32 44 -31 48 2 3 18 -1 22 -22 22 -21 0 -26 -5 -26
-24z"/>
<path d="M7364 10745 c-8 -19 2 -32 23 -30 19 1 23 6 23 30 0 19 -39 20 -46 0z"/>
<path d="M7512 10738 c4 -33 48 -34 48 -2 0 19 -5 24 -26 24 -21 0 -25 -4 -22
-22z"/>
<path d="M7660 10734 c0 -21 4 -25 23 -22 14 2 23 11 25 26 3 18 -1 22 -22 22
-21 0 -26 -5 -26 -26z"/>
<path d="M7810 10736 c0 -20 4 -24 21 -21 28 6 33 11 26 30 -4 8 -16 15 -27
15 -15 0 -20 -7 -20 -24z"/>
<path d="M7956 10744 c-9 -23 0 -32 29 -26 18 3 24 9 21 19 -3 8 -6 17 -6 19
0 12 -39 2 -44 -12z"/>
<path d="M8102 10738 c2 -15 10 -23 23 -23 13 0 21 8 23 23 3 18 -1 22 -23 22
-22 0 -26 -4 -23 -22z"/>
<path d="M8252 10738 c2 -15 10 -23 23 -23 13 0 21 8 23 23 3 18 -1 22 -23 22
-22 0 -26 -4 -23 -22z"/>
<path d="M8396 10743 c-4 -9 -2 -20 5 -23 19 -12 49 1 49 21 0 24 -45 26 -54
2z"/>
<path d="M8543 10744 c-6 -16 11 -34 33 -34 13 0 25 35 16 44 -11 12 -43 5
-49 -10z"/>
<path d="M8692 10738 c2 -15 11 -24 26 -26 18 -3 22 1 22 22 0 21 -5 26 -26
26 -21 0 -25 -4 -22 -22z"/>
<path d="M8840 10735 c0 -20 5 -25 25 -25 20 0 25 5 25 25 0 20 -5 25 -25 25
-20 0 -25 -5 -25 -25z"/>
<path d="M8983 10744 c-3 -8 -1 -20 5 -26 16 -16 47 -5 50 20 3 18 -1 22 -23
22 -14 0 -28 -7 -32 -16z"/>
<path d="M9130 10740 c0 -11 3 -20 8 -21 4 0 15 -2 25 -4 12 -2 17 3 17 21 0
19 -5 24 -25 24 -18 0 -25 -5 -25 -20z"/>
<path d="M9280 10735 c0 -20 4 -24 23 -21 13 2 23 11 25 24 3 18 -2 22 -22 22
-21 0 -26 -5 -26 -25z"/>
<path d="M9430 10734 c0 -21 4 -25 23 -22 14 2 23 11 25 26 3 18 -1 22 -22 22
-21 0 -26 -5 -26 -26z"/>
<path d="M9574 10745 c-4 -9 -2 -21 4 -27 16 -16 47 -5 47 17 0 26 -42 34 -51
10z"/>
<path d="M9722 10738 c2 -15 11 -24 26 -26 18 -3 22 1 22 22 0 21 -5 26 -26
26 -21 0 -25 -4 -22 -22z"/>
<path d="M9870 10736 c0 -32 44 -31 48 2 3 18 -1 22 -22 22 -21 0 -26 -5 -26
-24z"/>
<path d="M10020 10736 c0 -18 5 -23 18 -21 9 2 20 4 25 4 4 1 7 10 7 21 0 15
-7 20 -25 20 -20 0 -25 -5 -25 -24z"/>
<path d="M10162 10738 c2 -17 9 -23 28 -23 38 0 35 39 -3 43 -25 3 -28 0 -25
-20z"/>
<path d="M10310 10735 c0 -20 4 -24 25 -23 19 2 25 8 25 25 0 18 -6 23 -25 23
-20 0 -25 -5 -25 -25z"/>
<path d="M10460 10735 c0 -20 4 -24 23 -21 13 2 23 11 25 24 3 18 -2 22 -22
22 -21 0 -26 -5 -26 -25z"/>
<path d="M10608 10754 c-9 -9 3 -44 16 -44 22 0 39 18 33 34 -6 15 -38 22 -49
10z"/>
<path d="M10750 10741 c0 -10 7 -21 15 -25 22 -8 47 4 41 21 -3 8 -6 17 -6 19
0 2 -11 4 -25 4 -18 0 -25 -5 -25 -19z"/>
<path d="M10902 10738 c2 -15 10 -23 23 -23 13 0 21 8 23 23 3 18 -1 22 -23
22 -22 0 -26 -4 -23 -22z"/>
<path d="M11050 10741 c0 -11 6 -21 13 -24 20 -7 37 4 37 24 0 14 -7 19 -25
19 -18 0 -25 -5 -25 -19z"/>
<path d="M11196 10744 c-4 -10 -2 -22 3 -27 15 -15 46 -3 46 18 0 26 -40 33
-49 9z"/>
<path d="M11343 10745 c-7 -19 -2 -24 26 -30 17 -3 21 1 21 21 0 17 -5 24 -20
24 -11 0 -23 -7 -27 -15z"/>
<path d="M11492 10738 c2 -15 11 -24 26 -26 18 -3 22 1 22 22 0 21 -5 26 -26
26 -21 0 -25 -4 -22 -22z"/>
<path d="M17230 10740 c0 -11 4 -20 9 -20 5 0 16 -3 25 -6 12 -5 16 0 16 20 0
21 -5 26 -25 26 -18 0 -25 -5 -25 -20z"/>
<path d="M17380 10735 c0 -20 4 -24 23 -21 13 2 23 11 25 24 3 18 -2 22 -22
22 -21 0 -26 -5 -26 -25z"/>
<path d="M17522 10738 c4 -31 53 -34 53 -3 0 15 -8 21 -28 23 -25 3 -28 0 -25
-20z"/>
<path d="M17670 10735 c0 -20 4 -24 25 -23 19 2 25 8 25 25 0 18 -6 23 -25 23
-20 0 -25 -5 -25 -25z"/>
<path d="M17820 10735 c0 -20 4 -24 23 -21 13 2 23 11 25 24 3 18 -2 22 -22
22 -21 0 -26 -5 -26 -25z"/>
<path d="M17964 10745 c-4 -9 -2 -21 4 -27 15 -15 54 1 50 20 -4 23 -46 28
-54 7z"/>
<path d="M18110 10741 c0 -10 7 -21 15 -25 22 -8 47 4 41 21 -3 8 -6 17 -6 19
0 2 -11 4 -25 4 -18 0 -25 -5 -25 -19z"/>
<path d="M18262 10738 c2 -15 10 -23 23 -23 13 0 21 8 23 23 3 18 -1 22 -23
22 -22 0 -26 -4 -23 -22z"/>
<path d="M18412 10738 c2 -15 10 -23 23 -23 13 0 21 8 23 23 3 18 -1 22 -23
22 -22 0 -26 -4 -23 -22z"/>
<path d="M18556 10745 c-9 -24 1 -35 27 -31 29 4 30 40 1 44 -13 2 -24 -4 -28
-13z"/>
<path d="M18703 10745 c-7 -19 -2 -24 26 -30 17 -3 21 1 21 21 0 17 -5 24 -20
24 -11 0 -23 -7 -27 -15z"/>
<path d="M18852 10738 c2 -13 12 -22 26 -24 18 -3 22 1 22 21 0 20 -5 25 -26
25 -20 0 -25 -4 -22 -22z"/>
<path d="M19000 10736 c0 -32 44 -31 48 2 3 18 -1 22 -22 22 -21 0 -26 -5 -26
-24z"/>
<path d="M19150 10746 c0 -9 0 -19 0 -23 0 -4 10 -7 23 -7 15 0 22 5 22 19 0
13 -8 21 -22 23 -16 2 -23 -2 -23 -12z"/>
<path d="M19292 10738 c4 -33 48 -34 48 -2 0 19 -5 24 -26 24 -21 0 -25 -4
-22 -22z"/>
<path d="M19440 10735 c0 -20 4 -24 25 -23 19 2 25 8 25 25 0 18 -6 23 -25 23
-20 0 -25 -5 -25 -25z"/>
<path d="M19590 10734 c0 -21 4 -25 23 -22 14 2 23 11 25 26 3 18 -1 22 -22
22 -21 0 -26 -5 -26 -26z"/>
<path d="M19734 10745 c-4 -9 -2 -21 4 -27 16 -16 47 -5 47 17 0 26 -42 34
-51 10z"/>
<path d="M19880 10735 c0 -20 5 -25 25 -25 20 0 25 5 25 25 0 20 -5 25 -25 25
-20 0 -25 -5 -25 -25z"/>
<path d="M20030 10736 c0 -32 44 -31 48 2 3 18 -1 22 -22 22 -21 0 -26 -5 -26
-24z"/>
<path d="M20180 10736 c0 -18 5 -23 18 -21 9 2 20 4 25 4 4 1 7 10 7 21 0 15
-7 20 -25 20 -20 0 -25 -5 -25 -24z"/>
<path d="M20322 10738 c4 -31 53 -34 53 -3 0 15 -8 21 -28 23 -25 3 -28 0 -25
-20z"/>
<path d="M20470 10735 c0 -20 5 -25 25 -25 20 0 25 5 25 25 0 20 -5 25 -25 25
-20 0 -25 -5 -25 -25z"/>
<path d="M20620 10735 c0 -22 4 -26 23 -23 14 2 22 10 22 23 0 13 -8 21 -22
23 -19 3 -23 -1 -23 -23z"/>
<path d="M20768 10755 c-3 -3 -3 -15 -1 -26 7 -27 48 -22 48 6 0 19 -33 33
-47 20z"/>
<path d="M20910 10741 c0 -20 25 -35 41 -25 5 3 9 14 9 25 0 14 -7 19 -25 19
-18 0 -25 -5 -25 -19z"/>
<path d="M21060 10736 c0 -32 44 -31 48 2 3 18 -1 22 -22 22 -21 0 -26 -5 -26
-24z"/>
<path d="M21204 10745 c-8 -21 2 -32 28 -30 15 1 24 9 26 23 3 18 -2 22 -23
22 -14 0 -28 -7 -31 -15z"/>
<path d="M21352 10738 c2 -17 9 -23 28 -23 38 0 35 39 -3 43 -25 3 -28 0 -25
-20z"/>
<path d="M21500 10735 c0 -20 4 -24 25 -23 19 2 25 8 25 25 0 18 -6 23 -25 23
-20 0 -25 -5 -25 -25z"/>
<path d="M21650 10737 c0 -17 6 -23 25 -25 21 -1 25 3 25 23 0 20 -5 25 -25
25 -19 0 -25 -5 -25 -23z"/>
<path d="M21793 10744 c-3 -8 -1 -20 5 -26 16 -16 47 -5 50 20 3 18 -1 22 -23
22 -14 0 -28 -7 -32 -16z"/>
<path d="M21940 10741 c0 -21 22 -33 44 -25 8 3 12 13 9 25 -7 26 -53 27 -53
0z"/>
<path d="M22092 10738 c4 -33 48 -34 48 -2 0 19 -5 24 -26 24 -21 0 -25 -4
-22 -22z"/>
<path d="M22240 10741 c0 -24 13 -33 34 -25 27 10 20 44 -9 44 -18 0 -25 -5
-25 -19z"/>
<path d="M11690 10635 c0 -18 5 -25 20 -25 15 0 20 7 20 25 0 18 -5 25 -20 25
-15 0 -20 -7 -20 -25z"/>
<path d="M6310 10615 c0 -18 5 -25 20 -25 15 0 20 7 20 25 0 18 -5 25 -20 25
-15 0 -20 -7 -20 -25z"/>
<path d="M17060 10615 c0 -18 5 -25 20 -25 15 0 20 7 20 25 0 18 -5 25 -20 25
-15 0 -20 -7 -20 -25z"/>
<path d="M937 10583 c-9 -20 0 -38 21 -41 18 -3 22 1 22 22 0 19 -5 26 -19 26
-11 0 -22 -3 -24 -7z"/>
<path d="M11690 10485 c0 -18 5 -25 20 -25 15 0 20 7 20 25 0 18 -5 25 -20 25
-15 0 -20 -7 -20 -25z"/>
<path d="M6310 10465 c0 -18 5 -25 20 -25 15 0 20 7 20 25 0 18 -5 25 -20 25
-15 0 -20 -7 -20 -25z"/>
<path d="M17060 10465 c0 -22 4 -26 23 -23 14 2 22 10 22 23 0 13 -8 21 -22
23 -19 3 -23 -1 -23 -23z"/>
<path d="M937 10433 c-9 -20 0 -38 21 -41 18 -3 22 1 22 22 0 19 -5 26 -19 26
-11 0 -22 -3 -24 -7z"/>
<path d="M11690 10339 c0 -22 5 -29 20 -29 15 0 20 7 20 28 0 21 -5 28 -20 29
-16 1 -20 -4 -20 -28z"/>
<path d="M6310 10320 c0 -23 4 -30 20 -30 16 0 20 7 20 30 0 23 -4 30 -20 30
-16 0 -20 -7 -20 -30z"/>
<path d="M17063 10334 c-7 -20 1 -37 20 -40 12 -2 17 5 17 25 0 29 -27 40 -37
15z"/>
<path d="M942 10283 c-13 -25 -4 -43 19 -43 16 0 20 6 17 27 -4 32 -23 41 -36
16z"/>
<path d="M11690 10197 c0 -13 3 -26 6 -30 12 -12 34 6 34 29 0 17 -6 24 -20
24 -14 0 -20 -7 -20 -23z"/>
<path d="M6310 10175 c0 -18 5 -25 20 -25 15 0 20 7 20 25 0 18 -5 25 -20 25
-15 0 -20 -7 -20 -25z"/>
<path d="M17060 10175 c0 -18 5 -25 19 -25 24 0 33 13 25 34 -10 27 -44 20
-44 -9z"/>
<path d="M937 10143 c-14 -13 -6 -41 12 -46 25 -6 31 0 31 30 0 22 -27 33 -43
16z"/>
<path d="M11690 10045 c0 -18 5 -25 20 -25 15 0 20 7 20 25 0 18 -5 25 -20 25
-15 0 -20 -7 -20 -25z"/>
<path d="M6310 10025 c0 -18 5 -25 20 -25 15 0 20 7 20 25 0 18 -5 25 -20 25
-15 0 -20 -7 -20 -25z"/>
<path d="M17060 10025 c0 -18 5 -25 19 -25 12 0 20 9 23 25 4 21 1 25 -18 25
-19 0 -24 -5 -24 -25z"/>
<path d="M939 9998 c-11 -38 -7 -48 16 -48 20 0 25 5 25 25 0 18 -5 25 -20 25
-11 0 -20 -1 -21 -2z"/>
<path d="M11690 9895 c0 -18 5 -25 20 -25 15 0 20 7 20 25 0 18 -5 25 -20 25
-15 0 -20 -7 -20 -25z"/>
<path d="M6310 9878 c0 -21 5 -28 20 -28 15 0 20 7 20 28 0 21 -5 28 -20 28
-15 0 -20 -7 -20 -28z"/>
<path d="M17066 9903 c-3 -4 -6 -17 -6 -30 0 -16 6 -23 19 -23 24 0 30 9 22
35 -6 20 -23 29 -35 18z"/>
<path d="M930 9841 c0 -23 14 -41 31 -41 14 0 19 7 19 25 0 20 -5 25 -25 25
-14 0 -25 -4 -25 -9z"/>
<path d="M11694 9765 c-8 -21 3 -47 19 -43 6 3 13 14 15 25 4 24 -26 40 -34
18z"/>
<path d="M6310 9730 c0 -23 4 -30 20 -30 16 0 20 7 20 30 0 23 -4 30 -20 30
-16 0 -20 -7 -20 -30z"/>
<path d="M17062 9733 c2 -22 8 -27 23 -25 26 5 25 4 18 30 -3 13 -13 22 -25
22 -15 0 -19 -6 -16 -27z"/>
<path d="M938 9703 c-11 -22 -2 -48 17 -48 15 0 20 7 20 25 0 24 -28 41 -37
23z"/>
<path d="M11690 9605 c0 -18 5 -25 20 -25 15 0 20 7 20 25 0 18 -5 25 -20 25
-15 0 -20 -7 -20 -25z"/>
<path d="M6310 9585 c0 -18 5 -25 20 -25 15 0 20 7 20 25 0 18 -5 25 -20 25
-15 0 -20 -7 -20 -25z"/>
<path d="M17060 9585 c0 -18 5 -25 20 -25 15 0 20 7 20 25 0 18 -5 25 -20 25
-15 0 -20 -7 -20 -25z"/>
<path d="M939 9558 c-1 -2 -3 -13 -4 -25 -2 -18 3 -23 21 -23 19 0 24 5 24 25
0 18 -5 25 -20 25 -11 0 -21 -1 -21 -2z"/>
<path d="M11690 9455 c0 -18 5 -25 20 -25 15 0 20 7 20 25 0 18 -5 25 -20 25
-15 0 -20 -7 -20 -25z"/>
<path d="M6310 9435 c0 -18 5 -25 20 -25 15 0 20 7 20 25 0 18 -5 25 -20 25
-15 0 -20 -7 -20 -25z"/>
<path d="M17060 9435 c0 -18 5 -25 18 -25 25 0 31 7 25 31 -8 29 -43 25 -43
-6z"/>
<path d="M934 9388 c1 -16 8 -24 24 -26 18 -3 22 1 22 22 0 21 -5 26 -24 26
-18 0 -23 -5 -22 -22z"/>
<path d="M11690 9305 c0 -18 5 -25 20 -25 15 0 20 7 20 25 0 18 -5 25 -20 25
-15 0 -20 -7 -20 -25z"/>
<path d="M6310 9288 c0 -21 5 -28 20 -28 15 0 20 7 20 29 0 24 -4 29 -20 28
-15 -1 -20 -8 -20 -29z"/>
<path d="M17073 9313 c-21 -8 -16 -53 6 -53 21 0 33 22 25 45 -6 16 -11 17
-31 8z"/>
<path d="M934 9238 c1 -16 8 -24 24 -26 18 -3 22 1 22 22 0 21 -5 26 -24 26
-18 0 -23 -5 -22 -22z"/>
<path d="M11690 9162 c0 -21 5 -28 20 -29 16 -1 20 4 20 28 0 22 -5 29 -20 29
-15 0 -20 -7 -20 -28z"/>
<path d="M6310 9140 c0 -23 4 -30 20 -30 16 0 20 7 20 30 0 23 -4 30 -20 30
-16 0 -20 -7 -20 -30z"/>
<path d="M17062 9143 c4 -39 38 -41 38 -2 0 23 -5 29 -21 29 -16 0 -20 -5 -17
-27z"/>
<path d="M935 9099 c-4 -12 -2 -26 3 -31 17 -17 42 -1 42 27 0 32 -35 35 -45
4z"/>
<path d="M11690 9015 c0 -18 5 -25 20 -25 15 0 20 7 20 25 0 18 -5 25 -20 25
-15 0 -20 -7 -20 -25z"/>
<path d="M6310 8995 c0 -18 5 -25 20 -25 15 0 20 7 20 25 0 18 -5 25 -20 25
-15 0 -20 -7 -20 -25z"/>
<path d="M17060 8995 c0 -18 5 -25 20 -25 15 0 20 7 20 25 0 18 -5 25 -20 25
-15 0 -20 -7 -20 -25z"/>
<path d="M930 8945 c0 -20 5 -25 25 -25 20 0 25 5 25 25 0 20 -5 25 -25 25
-20 0 -25 -5 -25 -25z"/>
<path d="M11690 8865 c0 -18 5 -25 20 -25 15 0 20 7 20 25 0 18 -5 25 -20 25
-15 0 -20 -7 -20 -25z"/>
<path d="M6310 8845 c0 -18 5 -25 20 -25 15 0 20 7 20 25 0 18 -5 25 -20 25
-15 0 -20 -7 -20 -25z"/>
<path d="M17060 8845 c0 -18 5 -25 20 -25 11 0 20 4 20 9 0 5 3 16 6 25 5 12
0 16 -20 16 -21 0 -26 -5 -26 -25z"/>
<path d="M932 8795 c-1 -21 3 -25 23 -25 20 0 25 5 25 25 0 19 -5 25 -23 25
-17 0 -23 -6 -25 -25z"/>
<path d="M11690 8720 c0 -23 4 -30 20 -30 16 0 20 7 20 30 0 23 -4 30 -20 30
-16 0 -20 -7 -20 -30z"/>
<path d="M6310 8700 c0 -19 5 -26 20 -26 15 0 20 7 20 26 0 19 -5 26 -20 26
-15 0 -20 -7 -20 -26z"/>
<path d="M17064 8715 c-8 -21 -1 -38 18 -41 17 -2 30 27 19 42 -11 15 -31 15
-37 -1z"/>
<path d="M939 8671 c-5 -40 -3 -46 19 -49 20 -3 23 0 20 25 -3 27 -36 47 -39
24z"/>
<path d="M11690 8571 c0 -24 3 -28 20 -24 13 3 20 14 20 29 0 17 -6 24 -20 24
-15 0 -20 -7 -20 -29z"/>
<path d="M6310 8555 c0 -18 5 -25 20 -25 15 0 20 7 20 25 0 18 -5 25 -20 25
-15 0 -20 -7 -20 -25z"/>
<path d="M17060 8555 c0 -29 34 -36 44 -9 8 21 -1 34 -25 34 -14 0 -19 -7 -19
-25z"/>
<path d="M935 8520 c-3 -6 -3 -19 0 -31 10 -29 39 -20 43 14 3 21 -1 27 -17
27 -11 0 -23 -5 -26 -10z"/>
<path d="M11690 8425 c0 -18 5 -25 20 -25 15 0 20 7 20 25 0 18 -5 25 -20 25
-15 0 -20 -7 -20 -25z"/>
<path d="M6310 8405 c0 -18 5 -25 20 -25 15 0 20 7 20 25 0 18 -5 25 -20 25
-15 0 -20 -7 -20 -25z"/>
<path d="M17060 8405 c0 -22 4 -26 23 -23 14 2 22 10 22 23 0 13 -8 21 -22 23
-19 3 -23 -1 -23 -23z"/>
<path d="M936 8364 c-10 -27 -7 -34 19 -34 20 0 25 5 25 25 0 29 -34 36 -44 9z"/>
<path d="M11690 8275 c0 -18 5 -25 20 -25 15 0 20 7 20 25 0 18 -5 25 -20 25
-15 0 -20 -7 -20 -25z"/>
<path d="M6310 8260 c0 -23 4 -30 20 -30 16 0 20 7 20 30 0 23 -4 30 -20 30
-16 0 -20 -7 -20 -30z"/>
<path d="M17065 8282 c-3 -3 -5 -16 -5 -29 0 -20 5 -24 23 -21 20 3 24 11 18
46 -1 9 -28 12 -36 4z"/>
<path d="M932 8208 c2 -15 11 -24 26 -26 18 -3 22 1 22 22 0 21 -5 26 -26 26
-21 0 -25 -4 -22 -22z"/>
<path d="M11694 8146 c-8 -22 3 -49 19 -43 6 2 12 14 12 27 0 27 -22 39 -31
16z"/>
<path d="M6310 8110 c0 -23 4 -30 20 -30 16 0 20 7 20 30 0 23 -4 30 -20 30
-16 0 -20 -7 -20 -30z"/>
<path d="M17060 8115 c0 -28 27 -45 40 -25 12 20 -1 50 -21 50 -14 0 -19 -7
-19 -25z"/>
<path d="M947 8082 c-27 -6 -18 -46 11 -50 18 -3 22 1 22 22 0 28 -7 34 -33
28z"/>
<path d="M11690 7985 c0 -18 5 -25 20 -25 15 0 20 7 20 25 0 18 -5 25 -20 25
-15 0 -20 -7 -20 -25z"/>
<path d="M6310 7965 c0 -18 5 -25 20 -25 15 0 20 7 20 25 0 18 -5 25 -20 25
-15 0 -20 -7 -20 -25z"/>
<path d="M17060 7964 c0 -21 4 -25 23 -22 32 4 33 48 1 48 -19 0 -24 -5 -24
-26z"/>
<path d="M938 7928 c-8 -21 2 -38 23 -38 14 0 19 7 19 25 0 18 -5 25 -19 25
-10 0 -21 -6 -23 -12z"/>
<path d="M11690 7835 c0 -18 5 -25 20 -25 15 0 20 7 20 25 0 18 -5 25 -20 25
-15 0 -20 -7 -20 -25z"/>
<path d="M6310 7815 c0 -18 5 -25 20 -25 15 0 20 7 20 25 0 18 -5 25 -20 25
-15 0 -20 -7 -20 -25z"/>
<path d="M17060 7815 c0 -29 34 -36 44 -9 8 21 -1 34 -25 34 -14 0 -19 -7 -19
-25z"/>
<path d="M937 7783 c-9 -20 0 -38 21 -41 18 -3 22 1 22 22 0 19 -5 26 -19 26
-11 0 -22 -3 -24 -7z"/>
<path d="M11690 7685 c0 -18 5 -25 20 -25 15 0 20 7 20 25 0 18 -5 25 -20 25
-15 0 -20 -7 -20 -25z"/>
<path d="M6310 7670 c0 -23 4 -30 20 -30 16 0 20 7 20 30 0 23 -4 30 -20 30
-16 0 -20 -7 -20 -30z"/>
<path d="M17067 7693 c-4 -3 -7 -17 -7 -30 0 -16 6 -23 20 -23 16 0 20 7 20
30 0 28 -17 40 -33 23z"/>
<path d="M935 7623 c2 -10 4 -21 4 -25 1 -5 10 -8 21 -8 15 0 20 7 20 25 0 20
-5 25 -24 25 -18 0 -23 -5 -21 -17z"/>
<path d="M11690 7540 c0 -19 6 -26 20 -27 15 -1 20 4 20 25 0 21 -5 28 -20 28
-15 0 -20 -7 -20 -26z"/>
<path d="M6310 7520 c0 -23 4 -30 20 -30 16 0 20 7 20 30 0 23 -4 30 -20 30
-16 0 -20 -7 -20 -30z"/>
<path d="M17062 7524 c3 -25 36 -45 39 -23 5 37 2 44 -19 47 -20 3 -23 0 -20
-24z"/>
<path d="M943 7492 c-19 -12 -9 -47 13 -47 13 0 19 7 19 24 0 26 -13 35 -32
23z"/>
<path d="M11690 7395 c0 -18 5 -25 20 -25 15 0 20 7 20 25 0 18 -5 25 -20 25
-15 0 -20 -7 -20 -25z"/>
<path d="M6310 7375 c0 -18 5 -25 20 -25 15 0 20 7 20 25 0 18 -5 25 -20 25
-15 0 -20 -7 -20 -25z"/>
<path d="M17060 7375 c0 -18 5 -25 19 -25 24 0 33 13 25 34 -10 27 -44 20 -44
-9z"/>
<path d="M939 7348 c-1 -2 -3 -13 -4 -25 -2 -18 3 -23 21 -23 19 0 24 5 24 25
0 18 -5 25 -20 25 -11 0 -21 -1 -21 -2z"/>
<path d="M11690 7245 c0 -18 5 -25 20 -25 15 0 20 7 20 25 0 18 -5 25 -20 25
-15 0 -20 -7 -20 -25z"/>
<path d="M6310 7225 c0 -18 5 -25 20 -25 15 0 20 7 20 25 0 18 -5 25 -20 25
-15 0 -20 -7 -20 -25z"/>
<path d="M17060 7225 c0 -18 5 -25 19 -25 24 0 33 13 25 34 -10 27 -44 20 -44
-9z"/>
<path d="M932 7175 c-1 -21 3 -25 23 -25 20 0 25 5 25 25 0 19 -5 25 -23 25
-17 0 -23 -6 -25 -25z"/>
<path d="M11703 7123 c-7 -2 -13 -16 -13 -29 0 -17 6 -24 20 -24 16 0 20 7 20
30 0 30 -4 33 -27 23z"/>
<path d="M6310 7080 c0 -19 5 -26 20 -26 15 0 20 7 20 26 0 19 -5 26 -20 26
-15 0 -20 -7 -20 -26z"/>
<path d="M17063 7093 c-7 -19 4 -44 19 -41 19 4 26 18 21 37 -5 21 -33 23 -40
4z"/>
<path d="M938 7053 c-11 -22 -2 -48 17 -48 15 0 20 7 20 25 0 24 -28 41 -37
23z"/>
<path d="M11690 6957 c0 -13 3 -26 6 -30 12 -12 34 6 34 29 0 17 -6 24 -20 24
-14 0 -20 -7 -20 -23z"/>
<path d="M6310 6935 c0 -18 5 -25 20 -25 15 0 20 7 20 25 0 18 -5 25 -20 25
-15 0 -20 -7 -20 -25z"/>
<path d="M17060 6935 c0 -20 5 -25 26 -25 20 0 25 4 20 16 -3 9 -6 20 -6 25 0
5 -9 9 -20 9 -15 0 -20 -7 -20 -25z"/>
<path d="M939 6900 c-5 -38 -3 -45 16 -45 14 0 21 8 23 28 3 22 -1 27 -17 27
-12 0 -22 -4 -22 -10z"/>
<path d="M11690 6805 c0 -18 5 -25 20 -25 15 0 20 7 20 25 0 18 -5 25 -20 25
-15 0 -20 -7 -20 -25z"/>
<path d="M6310 6785 c0 -18 5 -25 20 -25 15 0 20 7 20 25 0 18 -5 25 -20 25
-15 0 -20 -7 -20 -25z"/>
<path d="M17060 6785 c0 -18 5 -25 20 -25 15 0 20 7 20 25 0 18 -5 25 -20 25
-15 0 -20 -7 -20 -25z"/>
<path d="M930 6735 c0 -20 5 -25 25 -25 20 0 25 5 25 25 0 20 -5 25 -25 25
-20 0 -25 -5 -25 -25z"/>
<path d="M11690 6655 c0 -18 5 -25 20 -25 15 0 20 7 20 25 0 18 -5 25 -20 25
-15 0 -20 -7 -20 -25z"/>
<path d="M6310 6635 c0 -18 5 -25 20 -25 15 0 20 7 20 25 0 18 -5 25 -20 25
-15 0 -20 -7 -20 -25z"/>
<path d="M17060 6635 c0 -22 4 -26 23 -23 14 2 22 10 22 23 0 13 -8 21 -22 23
-19 3 -23 -1 -23 -23z"/>
<path d="M934 6588 c1 -16 8 -24 24 -26 18 -3 22 1 22 22 0 21 -5 26 -24 26
-18 0 -23 -5 -22 -22z"/>
<path d="M11696 6533 c-3 -4 -6 -17 -6 -30 0 -16 6 -23 20 -23 14 0 20 7 20
24 0 23 -22 41 -34 29z"/>
<path d="M6310 6492 c0 -21 5 -28 20 -29 16 -1 20 4 20 28 0 22 -5 29 -20 29
-15 0 -20 -7 -20 -28z"/>
<path d="M17060 6496 c0 -23 23 -41 40 -31 5 3 7 13 5 23 -2 9 -4 20 -4 25 -1
4 -10 7 -21 7 -14 0 -20 -7 -20 -24z"/>
<path d="M937 6462 c-11 -22 0 -47 21 -50 20 -3 23 0 20 24 -3 25 -33 43 -41
26z"/>
<path d="M11690 6365 c0 -14 2 -25 4 -25 2 0 11 -3 20 -6 13 -5 16 1 16 25 0
24 -4 31 -20 31 -15 0 -20 -7 -20 -25z"/>
<path d="M6310 6345 c0 -18 5 -25 20 -25 15 0 20 7 20 25 0 18 -5 25 -20 25
-15 0 -20 -7 -20 -25z"/>
<path d="M17060 6345 c0 -31 35 -35 43 -6 6 24 0 31 -25 31 -13 0 -18 -7 -18
-25z"/>
<path d="M935 6299 c-5 -14 -2 -25 6 -30 21 -13 34 -5 37 24 3 21 -1 27 -17
27 -11 0 -22 -9 -26 -21z"/>
<path d="M11690 6215 c0 -18 5 -25 20 -25 15 0 20 7 20 25 0 18 -5 25 -20 25
-15 0 -20 -7 -20 -25z"/>
<path d="M6310 6195 c0 -18 5 -25 20 -25 15 0 20 7 20 25 0 18 -5 25 -20 25
-15 0 -20 -7 -20 -25z"/>
<path d="M17060 6195 c0 -18 5 -25 20 -25 15 0 20 7 20 25 0 18 -5 25 -20 25
-15 0 -20 -7 -20 -25z"/>
<path d="M933 6145 c0 -20 5 -25 23 -25 19 0 24 5 24 25 0 20 -5 25 -24 25
-18 0 -23 -5 -23 -25z"/>
<path d="M11690 6065 c0 -18 5 -25 20 -25 15 0 20 7 20 25 0 18 -5 25 -20 25
-15 0 -20 -7 -20 -25z"/>
<path d="M6310 6050 c0 -23 4 -30 20 -30 16 0 20 7 20 30 0 23 -4 30 -20 30
-16 0 -20 -7 -20 -30z"/>
<path d="M17066 6072 c-3 -3 -6 -16 -6 -29 0 -16 6 -23 20 -23 11 0 20 4 20 9
0 5 3 16 6 24 5 14 -29 31 -40 19z"/>
<path d="M935 6003 c2 -10 4 -21 4 -25 1 -5 10 -8 21 -8 15 0 20 7 20 25 0 20
-5 25 -24 25 -18 0 -23 -5 -21 -17z"/>
<path d="M11690 5920 c0 -19 5 -26 20 -26 15 0 20 7 20 28 0 21 -5 26 -20 25
-14 -1 -20 -8 -20 -27z"/>
<path d="M6310 5902 c0 -21 5 -28 20 -28 15 0 20 7 20 28 0 21 -5 28 -20 28
-15 0 -20 -7 -20 -28z"/>
<path d="M17062 5904 c3 -25 36 -45 39 -23 5 37 2 44 -19 47 -20 3 -23 0 -20
-24z"/>
<path d="M933 5864 c-8 -22 4 -43 24 -40 11 2 18 11 18 26 0 26 -33 37 -42 14z"/>
<path d="M11690 5775 c0 -18 5 -25 20 -25 15 0 20 7 20 25 0 18 -5 25 -20 25
-15 0 -20 -7 -20 -25z"/>
<path d="M6310 5755 c0 -18 5 -25 20 -25 15 0 20 7 20 25 0 18 -5 25 -20 25
-15 0 -20 -7 -20 -25z"/>
<path d="M17060 5755 c0 -20 5 -25 24 -25 19 0 22 4 18 25 -3 16 -11 25 -23
25 -14 0 -19 -7 -19 -25z"/>
<path d="M939 5723 c0 -5 -2 -16 -4 -25 -2 -13 3 -18 21 -18 19 0 24 5 24 25
0 18 -5 25 -20 25 -11 0 -20 -3 -21 -7z"/>
<path d="M11690 5625 c0 -18 5 -25 20 -25 15 0 20 7 20 25 0 18 -5 25 -20 25
-15 0 -20 -7 -20 -25z"/>
<path d="M6310 5605 c0 -18 5 -25 20 -25 15 0 20 7 20 25 0 18 -5 25 -20 25
-15 0 -20 -7 -20 -25z"/>
<path d="M17060 5605 c0 -22 4 -26 23 -23 14 2 22 10 22 23 0 13 -8 21 -22 23
-19 3 -23 -1 -23 -23z"/>
<path d="M933 5555 c0 -20 5 -25 23 -25 19 0 24 5 24 25 0 20 -5 25 -24 25
-18 0 -23 -5 -23 -25z"/>
<path d="M11690 5478 c0 -21 5 -28 20 -28 15 0 20 7 20 28 0 21 -5 28 -20 28
-15 0 -20 -7 -20 -28z"/>
<path d="M6310 5460 c0 -23 4 -30 20 -30 16 0 20 7 20 30 0 23 -4 30 -20 30
-16 0 -20 -7 -20 -30z"/>
<path d="M17066 5483 c-3 -4 -6 -17 -6 -30 0 -29 35 -32 43 -4 7 28 -19 52
-37 34z"/>
<path d="M1130 5360 c0 -15 7 -20 25 -20 18 0 25 5 25 20 0 15 -7 20 -25 20
-18 0 -25 -5 -25 -20z"/>
<path d="M1272 5363 c2 -11 14 -19 31 -21 22 -3 27 1 27 17 0 17 -6 21 -31 21
-24 0 -30 -4 -27 -17z"/>
<path d="M1420 5360 c0 -15 7 -20 25 -20 18 0 25 5 25 20 0 15 -7 20 -25 20
-18 0 -25 -5 -25 -20z"/>
<path d="M1570 5360 c0 -15 7 -20 25 -20 18 0 25 5 25 20 0 15 -7 20 -25 20
-18 0 -25 -5 -25 -20z"/>
<path d="M1710 5360 c0 -16 7 -20 30 -20 23 0 30 4 30 20 0 16 -7 20 -30 20
-23 0 -30 -4 -30 -20z"/>
<path d="M1860 5360 c0 -16 7 -20 30 -20 23 0 30 4 30 20 0 16 -7 20 -30 20
-23 0 -30 -4 -30 -20z"/>
<path d="M2010 5360 c0 -15 7 -20 25 -20 18 0 25 5 25 20 0 15 -7 20 -25 20
-18 0 -25 -5 -25 -20z"/>
<path d="M2160 5360 c0 -15 7 -20 25 -20 18 0 25 5 25 20 0 15 -7 20 -25 20
-18 0 -25 -5 -25 -20z"/>
<path d="M2307 5360 c-4 -17 0 -20 24 -20 22 0 29 5 29 20 0 14 -7 20 -24 20
-15 0 -26 -7 -29 -20z"/>
<path d="M2450 5360 c0 -16 7 -20 30 -20 23 0 30 4 30 20 0 16 -7 20 -30 20
-23 0 -30 -4 -30 -20z"/>
<path d="M2600 5360 c0 -15 7 -20 25 -20 18 0 25 5 25 20 0 15 -7 20 -25 20
-18 0 -25 -5 -25 -20z"/>
<path d="M2750 5360 c0 -15 7 -20 25 -20 18 0 25 5 25 20 0 15 -7 20 -25 20
-18 0 -25 -5 -25 -20z"/>
<path d="M2890 5360 c0 -16 7 -20 30 -20 23 0 30 4 30 20 0 16 -7 20 -30 20
-23 0 -30 -4 -30 -20z"/>
<path d="M3040 5360 c0 -15 7 -20 25 -20 18 0 25 5 25 20 0 15 -7 20 -25 20
-18 0 -25 -5 -25 -20z"/>
<path d="M3190 5360 c0 -15 7 -20 25 -20 18 0 25 5 25 20 0 15 -7 20 -25 20
-18 0 -25 -5 -25 -20z"/>
<path d="M3330 5360 c0 -16 7 -20 30 -20 23 0 30 4 30 20 0 16 -7 20 -30 20
-23 0 -30 -4 -30 -20z"/>
<path d="M3480 5360 c0 -15 7 -20 29 -20 24 0 28 3 24 20 -3 13 -14 20 -29 20
-17 0 -24 -6 -24 -20z"/>
<path d="M3630 5360 c0 -15 7 -20 25 -20 18 0 25 5 25 20 0 15 -7 20 -25 20
-18 0 -25 -5 -25 -20z"/>
<path d="M3780 5360 c0 -15 7 -20 25 -20 18 0 25 5 25 20 0 15 -7 20 -25 20
-18 0 -25 -5 -25 -20z"/>
<path d="M3920 5360 c0 -16 7 -20 30 -20 23 0 30 4 30 20 0 16 -7 20 -30 20
-23 0 -30 -4 -30 -20z"/>
<path d="M4070 5360 c0 -16 7 -20 30 -20 23 0 30 4 30 20 0 16 -7 20 -30 20
-23 0 -30 -4 -30 -20z"/>
<path d="M4220 5360 c0 -15 7 -20 25 -20 18 0 25 5 25 20 0 15 -7 20 -25 20
-18 0 -25 -5 -25 -20z"/>
<path d="M4370 5360 c0 -15 7 -20 25 -20 18 0 25 5 25 20 0 15 -7 20 -25 20
-18 0 -25 -5 -25 -20z"/>
<path d="M4510 5360 c0 -17 5 -21 28 -18 16 2 27 9 27 18 0 9 -11 16 -27 18
-23 3 -28 -1 -28 -18z"/>
<path d="M4660 5360 c0 -15 7 -20 25 -20 18 0 25 5 25 20 0 15 -7 20 -25 20
-18 0 -25 -5 -25 -20z"/>
<path d="M4810 5360 c0 -15 7 -20 25 -20 18 0 25 5 25 20 0 15 -7 20 -25 20
-18 0 -25 -5 -25 -20z"/>
<path d="M4960 5360 c0 -15 7 -20 25 -20 18 0 25 5 25 20 0 15 -7 20 -25 20
-18 0 -25 -5 -25 -20z"/>
<path d="M5100 5360 c0 -15 7 -20 28 -20 21 0 28 5 28 20 0 15 -7 20 -28 20
-21 0 -28 -5 -28 -20z"/>
<path d="M5250 5360 c0 -15 7 -20 25 -20 18 0 25 5 25 20 0 15 -7 20 -25 20
-18 0 -25 -5 -25 -20z"/>
<path d="M5400 5360 c0 -15 7 -20 25 -20 18 0 25 5 25 20 0 15 -7 20 -25 20
-18 0 -25 -5 -25 -20z"/>
<path d="M5547 5373 c-17 -16 -5 -33 23 -33 23 0 30 4 30 20 0 14 -7 20 -23
20 -13 0 -27 -3 -30 -7z"/>
<path d="M5690 5360 c0 -14 7 -20 23 -20 13 0 26 3 30 6 12 12 -6 34 -29 34
-17 0 -24 -6 -24 -20z"/>
<path d="M5840 5360 c0 -15 7 -20 25 -20 18 0 25 5 25 20 0 15 -7 20 -25 20
-18 0 -25 -5 -25 -20z"/>
<path d="M5990 5360 c0 -15 7 -20 25 -20 18 0 25 5 25 20 0 15 -7 20 -25 20
-18 0 -25 -5 -25 -20z"/>
<path d="M6130 5360 c0 -16 7 -20 30 -20 23 0 30 4 30 20 0 16 -7 20 -30 20
-23 0 -30 -4 -30 -20z"/>
<path d="M6500 5360 c0 -15 7 -20 25 -20 18 0 25 5 25 20 0 15 -7 20 -25 20
-18 0 -25 -5 -25 -20z"/>
<path d="M6650 5360 c0 -15 7 -20 25 -20 18 0 25 5 25 20 0 15 -7 20 -25 20
-18 0 -25 -5 -25 -20z"/>
<path d="M6800 5360 c0 -15 7 -20 25 -20 18 0 25 5 25 20 0 15 -7 20 -25 20
-18 0 -25 -5 -25 -20z"/>
<path d="M6947 5360 c-4 -16 0 -20 22 -20 20 0 27 5 28 20 1 15 -4 20 -21 20
-15 0 -26 -7 -29 -20z"/>
<path d="M7090 5360 c0 -15 7 -20 25 -20 18 0 25 5 25 20 0 15 -7 20 -25 20
-18 0 -25 -5 -25 -20z"/>
<path d="M7240 5360 c0 -15 7 -20 25 -20 18 0 25 5 25 20 0 15 -7 20 -25 20
-18 0 -25 -5 -25 -20z"/>
<path d="M7387 5373 c-17 -16 -5 -33 23 -33 23 0 30 4 30 20 0 14 -7 20 -23
20 -13 0 -27 -3 -30 -7z"/>
<path d="M7530 5360 c0 -16 7 -20 31 -20 24 0 30 3 25 16 -3 9 -6 18 -6 20 0
2 -11 4 -25 4 -18 0 -25 -5 -25 -20z"/>
<path d="M7680 5360 c0 -15 7 -20 25 -20 18 0 25 5 25 20 0 15 -7 20 -25 20
-18 0 -25 -5 -25 -20z"/>
<path d="M7830 5360 c0 -15 7 -20 25 -20 18 0 25 5 25 20 0 15 -7 20 -25 20
-18 0 -25 -5 -25 -20z"/>
<path d="M7970 5360 c0 -16 7 -20 30 -20 23 0 30 4 30 20 0 16 -7 20 -30 20
-23 0 -30 -4 -30 -20z"/>
<path d="M8120 5360 c0 -15 7 -20 25 -20 18 0 25 5 25 20 0 15 -7 20 -25 20
-18 0 -25 -5 -25 -20z"/>
<path d="M8270 5360 c0 -15 7 -20 25 -20 18 0 25 5 25 20 0 15 -7 20 -25 20
-18 0 -25 -5 -25 -20z"/>
<path d="M8420 5360 c0 -15 7 -20 25 -20 18 0 25 5 25 20 0 15 -7 20 -25 20
-18 0 -25 -5 -25 -20z"/>
<path d="M8563 5360 c1 -14 8 -20 27 -20 19 0 26 6 27 20 1 16 -4 20 -27 20
-23 0 -28 -4 -27 -20z"/>
<path d="M8710 5360 c0 -15 7 -20 25 -20 18 0 25 5 25 20 0 15 -7 20 -25 20
-18 0 -25 -5 -25 -20z"/>
<path d="M8860 5360 c0 -15 7 -20 25 -20 18 0 25 5 25 20 0 15 -7 20 -25 20
-18 0 -25 -5 -25 -20z"/>
<path d="M9007 5360 c-4 -17 0 -20 24 -20 22 0 29 5 29 20 0 14 -7 20 -24 20
-15 0 -26 -7 -29 -20z"/>
<path d="M9150 5360 c0 -17 5 -21 28 -18 16 2 27 9 27 18 0 9 -11 16 -27 18
-23 3 -28 -1 -28 -18z"/>
<path d="M9300 5360 c0 -15 7 -20 25 -20 18 0 25 5 25 20 0 15 -7 20 -25 20
-18 0 -25 -5 -25 -20z"/>
<path d="M9450 5360 c0 -15 7 -20 25 -20 18 0 25 5 25 20 0 15 -7 20 -25 20
-18 0 -25 -5 -25 -20z"/>
<path d="M9595 5370 c-10 -16 4 -30 31 -30 17 0 24 5 24 20 0 15 -7 20 -24 20
-14 0 -28 -4 -31 -10z"/>
<path d="M9740 5360 c0 -15 7 -20 28 -20 21 0 28 5 29 20 1 16 -4 20 -28 20
-22 0 -29 -5 -29 -20z"/>
<path d="M9890 5360 c0 -15 7 -20 25 -20 18 0 25 5 25 20 0 15 -7 20 -25 20
-18 0 -25 -5 -25 -20z"/>
<path d="M10040 5360 c0 -15 7 -20 25 -20 18 0 25 5 25 20 0 15 -7 20 -25 20
-18 0 -25 -5 -25 -20z"/>
<path d="M10183 5360 c1 -14 8 -20 27 -20 19 0 26 6 27 20 1 16 -4 20 -27 20
-23 0 -28 -4 -27 -20z"/>
<path d="M10330 5360 c0 -15 7 -20 25 -20 18 0 25 5 25 20 0 15 -7 20 -25 20
-18 0 -25 -5 -25 -20z"/>
<path d="M10480 5360 c0 -15 7 -20 25 -20 18 0 25 5 25 20 0 15 -7 20 -25 20
-18 0 -25 -5 -25 -20z"/>
<path d="M10630 5360 c0 -15 7 -20 25 -20 18 0 25 5 25 20 0 15 -7 20 -25 20
-18 0 -25 -5 -25 -20z"/>
<path d="M10770 5360 c0 -16 7 -20 30 -20 23 0 30 4 30 20 0 16 -7 20 -30 20
-23 0 -30 -4 -30 -20z"/>
<path d="M10920 5360 c0 -15 7 -20 25 -20 18 0 25 5 25 20 0 15 -7 20 -25 20
-18 0 -25 -5 -25 -20z"/>
<path d="M11070 5360 c0 -15 7 -20 25 -20 18 0 25 5 25 20 0 15 -7 20 -25 20
-18 0 -25 -5 -25 -20z"/>
<path d="M11217 5360 c-4 -17 0 -20 24 -20 22 0 29 5 29 20 0 14 -7 20 -24 20
-15 0 -26 -7 -29 -20z"/>
<path d="M11360 5361 c0 -17 6 -21 31 -21 24 0 30 4 27 18 -2 10 -14 18 -31
20 -22 3 -27 -1 -27 -17z"/>
<path d="M11510 5360 c0 -15 7 -20 25 -20 18 0 25 5 25 20 0 15 -7 20 -25 20
-18 0 -25 -5 -25 -20z"/>
<path d="M11880 5360 c0 -15 7 -20 25 -20 18 0 25 5 25 20 0 15 -7 20 -25 20
-18 0 -25 -5 -25 -20z"/>
<path d="M12024 5360 c0 -15 7 -20 27 -20 36 0 33 34 -2 38 -19 2 -25 -2 -25
-18z"/>
<path d="M12170 5360 c0 -15 7 -20 25 -20 18 0 25 5 25 20 0 15 -7 20 -25 20
-18 0 -25 -5 -25 -20z"/>
<path d="M12320 5360 c0 -15 7 -20 25 -20 18 0 25 5 25 20 0 15 -7 20 -25 20
-18 0 -25 -5 -25 -20z"/>
<path d="M12470 5360 c0 -15 7 -20 25 -20 18 0 25 5 25 20 0 15 -7 20 -25 20
-18 0 -25 -5 -25 -20z"/>
<path d="M12610 5360 c0 -16 7 -20 30 -20 23 0 30 4 30 20 0 16 -7 20 -30 20
-23 0 -30 -4 -30 -20z"/>
<path d="M12760 5360 c0 -15 7 -20 25 -20 18 0 25 5 25 20 0 15 -7 20 -25 20
-18 0 -25 -5 -25 -20z"/>
<path d="M12910 5360 c0 -15 7 -20 25 -20 18 0 25 5 25 20 0 15 -7 20 -25 20
-18 0 -25 -5 -25 -20z"/>
<path d="M13055 5370 c-10 -16 4 -30 31 -30 17 0 24 5 24 20 0 15 -7 20 -24
20 -14 0 -28 -4 -31 -10z"/>
<path d="M13200 5361 c0 -17 6 -21 31 -21 24 0 30 4 27 18 -2 10 -14 18 -31
20 -22 3 -27 -1 -27 -17z"/>
<path d="M13350 5360 c0 -15 7 -20 25 -20 18 0 25 5 25 20 0 15 -7 20 -25 20
-18 0 -25 -5 -25 -20z"/>
<path d="M13500 5360 c0 -15 7 -20 25 -20 18 0 25 5 25 20 0 15 -7 20 -25 20
-18 0 -25 -5 -25 -20z"/>
<path d="M13647 5360 c-4 -17 0 -20 24 -20 22 0 29 5 29 20 0 14 -7 20 -24 20
-15 0 -26 -7 -29 -20z"/>
<path d="M13790 5360 c0 -15 7 -20 25 -20 18 0 25 5 25 20 0 15 -7 20 -25 20
-18 0 -25 -5 -25 -20z"/>
<path d="M13940 5360 c0 -15 7 -20 25 -20 18 0 25 5 25 20 0 15 -7 20 -25 20
-18 0 -25 -5 -25 -20z"/>
<path d="M14090 5360 c0 -15 7 -20 25 -20 18 0 25 5 25 20 0 15 -7 20 -25 20
-18 0 -25 -5 -25 -20z"/>
<path d="M14235 5370 c-10 -16 4 -30 31 -30 17 0 24 5 24 20 0 15 -7 20 -24
20 -14 0 -28 -4 -31 -10z"/>
<path d="M14380 5360 c0 -15 7 -20 25 -20 18 0 25 5 25 20 0 15 -7 20 -25 20
-18 0 -25 -5 -25 -20z"/>
<path d="M14530 5360 c0 -15 7 -20 25 -20 18 0 25 5 25 20 0 15 -7 20 -25 20
-18 0 -25 -5 -25 -20z"/>
<path d="M14670 5360 c0 -16 7 -20 30 -20 23 0 30 4 30 20 0 16 -7 20 -30 20
-23 0 -30 -4 -30 -20z"/>
<path d="M14820 5360 c0 -16 7 -20 30 -20 23 0 30 4 30 20 0 16 -7 20 -30 20
-23 0 -30 -4 -30 -20z"/>
<path d="M14970 5360 c0 -15 7 -20 25 -20 18 0 25 5 25 20 0 15 -7 20 -25 20
-18 0 -25 -5 -25 -20z"/>
<path d="M15120 5360 c0 -15 7 -20 25 -20 18 0 25 5 25 20 0 15 -7 20 -25 20
-18 0 -25 -5 -25 -20z"/>
<path d="M15264 5360 c0 -15 7 -20 28 -20 21 0 28 5 28 20 0 15 -7 20 -28 20
-21 0 -28 -5 -28 -20z"/>
<path d="M15410 5360 c0 -16 7 -20 30 -20 23 0 30 4 30 20 0 16 -7 20 -30 20
-23 0 -30 -4 -30 -20z"/>
<path d="M15560 5360 c0 -15 7 -20 25 -20 18 0 25 5 25 20 0 15 -7 20 -25 20
-18 0 -25 -5 -25 -20z"/>
<path d="M15710 5360 c0 -15 7 -20 25 -20 18 0 25 5 25 20 0 15 -7 20 -25 20
-18 0 -25 -5 -25 -20z"/>
<path d="M15850 5360 c0 -16 7 -20 30 -20 23 0 30 4 30 20 0 16 -7 20 -30 20
-23 0 -30 -4 -30 -20z"/>
<path d="M16000 5360 c0 -15 7 -20 25 -20 18 0 25 5 25 20 0 15 -7 20 -25 20
-18 0 -25 -5 -25 -20z"/>
<path d="M16150 5360 c0 -15 7 -20 25 -20 18 0 25 5 25 20 0 15 -7 20 -25 20
-18 0 -25 -5 -25 -20z"/>
<path d="M16297 5373 c-17 -16 -5 -33 23 -33 23 0 30 4 30 20 0 14 -7 20 -23
20 -13 0 -27 -3 -30 -7z"/>
<path d="M16440 5360 c0 -15 7 -20 29 -20 24 0 28 3 24 20 -3 13 -14 20 -29
20 -17 0 -24 -6 -24 -20z"/>
<path d="M16590 5360 c0 -15 7 -20 25 -20 18 0 25 5 25 20 0 15 -7 20 -25 20
-18 0 -25 -5 -25 -20z"/>
<path d="M16740 5360 c0 -15 7 -20 25 -20 18 0 25 5 25 20 0 15 -7 20 -25 20
-18 0 -25 -5 -25 -20z"/>
<path d="M16883 5360 c1 -15 8 -20 29 -20 21 0 28 5 28 20 0 15 -7 20 -29 20
-24 0 -29 -4 -28 -20z"/>
<path d="M17250 5360 c0 -16 7 -20 30 -20 23 0 30 4 30 20 0 16 -7 20 -30 20
-23 0 -30 -4 -30 -20z"/>
<path d="M17400 5360 c0 -15 7 -20 25 -20 18 0 25 5 25 20 0 15 -7 20 -25 20
-18 0 -25 -5 -25 -20z"/>
<path d="M17550 5360 c0 -15 7 -20 25 -20 18 0 25 5 25 20 0 15 -7 20 -25 20
-18 0 -25 -5 -25 -20z"/>
<path d="M17690 5360 c0 -16 7 -20 30 -20 23 0 30 4 30 20 0 16 -7 20 -30 20
-23 0 -30 -4 -30 -20z"/>
<path d="M17840 5360 c0 -15 7 -20 25 -20 18 0 25 5 25 20 0 15 -7 20 -25 20
-18 0 -25 -5 -25 -20z"/>
<path d="M17990 5360 c0 -15 7 -20 25 -20 18 0 25 5 25 20 0 15 -7 20 -25 20
-18 0 -25 -5 -25 -20z"/>
<path d="M18137 5373 c-17 -16 -5 -33 23 -33 23 0 30 4 30 20 0 14 -7 20 -23
20 -13 0 -27 -3 -30 -7z"/>
<path d="M18280 5360 c0 -15 7 -20 29 -20 24 0 28 3 24 20 -3 13 -14 20 -29
20 -17 0 -24 -6 -24 -20z"/>
<path d="M18430 5360 c0 -15 7 -20 25 -20 18 0 25 5 25 20 0 15 -7 20 -25 20
-18 0 -25 -5 -25 -20z"/>
<path d="M18580 5360 c0 -15 7 -20 25 -20 18 0 25 5 25 20 0 15 -7 20 -25 20
-18 0 -25 -5 -25 -20z"/>
<path d="M18723 5360 c1 -15 8 -20 29 -20 21 0 28 5 28 20 0 15 -7 20 -29 20
-24 0 -29 -4 -28 -20z"/>
<path d="M18870 5360 c0 -16 7 -20 30 -20 23 0 30 4 30 20 0 16 -7 20 -30 20
-23 0 -30 -4 -30 -20z"/>
<path d="M19020 5360 c0 -15 7 -20 25 -20 18 0 25 5 25 20 0 15 -7 20 -25 20
-18 0 -25 -5 -25 -20z"/>
<path d="M19170 5360 c0 -15 7 -20 25 -20 18 0 25 5 25 20 0 15 -7 20 -25 20
-18 0 -25 -5 -25 -20z"/>
<path d="M19310 5360 c0 -17 5 -21 28 -18 16 2 27 9 27 18 0 9 -11 16 -27 18
-23 3 -28 -1 -28 -18z"/>
<path d="M19460 5360 c0 -15 7 -20 25 -20 18 0 25 5 25 20 0 15 -7 20 -25 20
-18 0 -25 -5 -25 -20z"/>
<path d="M19610 5360 c0 -15 7 -20 25 -20 18 0 25 5 25 20 0 15 -7 20 -25 20
-18 0 -25 -5 -25 -20z"/>
<path d="M19760 5360 c0 -15 7 -20 25 -20 18 0 25 5 25 20 0 15 -7 20 -25 20
-18 0 -25 -5 -25 -20z"/>
<path d="M19900 5360 c0 -15 7 -20 29 -20 24 0 28 3 24 20 -3 13 -14 20 -29
20 -17 0 -24 -6 -24 -20z"/>
<path d="M20050 5360 c0 -15 7 -20 25 -20 18 0 25 5 25 20 0 15 -7 20 -25 20
-18 0 -25 -5 -25 -20z"/>
<path d="M20200 5360 c0 -15 7 -20 25 -20 18 0 25 5 25 20 0 15 -7 20 -25 20
-18 0 -25 -5 -25 -20z"/>
<path d="M20347 5373 c-17 -16 -5 -33 23 -33 23 0 30 4 30 20 0 14 -7 20 -23
20 -13 0 -27 -3 -30 -7z"/>
<path d="M20490 5360 c0 -16 7 -20 31 -20 24 0 30 3 25 16 -3 9 -6 18 -6 20 0
2 -11 4 -25 4 -18 0 -25 -5 -25 -20z"/>
<path d="M20640 5360 c0 -15 7 -20 25 -20 18 0 25 5 25 20 0 15 -7 20 -25 20
-18 0 -25 -5 -25 -20z"/>
<path d="M20790 5360 c0 -15 7 -20 25 -20 18 0 25 5 25 20 0 15 -7 20 -25 20
-18 0 -25 -5 -25 -20z"/>
<path d="M20937 5373 c-17 -16 -5 -33 23 -33 23 0 30 4 30 20 0 14 -7 20 -23
20 -13 0 -27 -3 -30 -7z"/>
<path d="M21080 5360 c0 -15 7 -20 25 -20 18 0 25 5 25 20 0 15 -7 20 -25 20
-18 0 -25 -5 -25 -20z"/>
<path d="M21230 5360 c0 -15 7 -20 25 -20 18 0 25 5 25 20 0 15 -7 20 -25 20
-18 0 -25 -5 -25 -20z"/>
<path d="M21380 5360 c0 -15 7 -20 25 -20 18 0 25 5 25 20 0 15 -7 20 -25 20
-18 0 -25 -5 -25 -20z"/>
<path d="M21524 5364 c3 -9 6 -18 6 -20 0 -2 10 -4 23 -4 16 0 23 6 23 20 0
15 -7 20 -29 20 -22 0 -28 -4 -23 -16z"/>
<path d="M21670 5360 c0 -15 7 -20 25 -20 18 0 25 5 25 20 0 15 -7 20 -25 20
-18 0 -25 -5 -25 -20z"/>
<path d="M21820 5360 c0 -15 7 -20 25 -20 18 0 25 5 25 20 0 15 -7 20 -25 20
-18 0 -25 -5 -25 -20z"/>
<path d="M21967 5360 c-4 -17 0 -20 24 -20 22 0 29 5 29 20 0 14 -7 20 -24 20
-15 0 -26 -7 -29 -20z"/>
<path d="M22110 5360 c0 -17 5 -21 28 -18 16 2 27 9 27 18 0 9 -11 16 -27 18
-23 3 -28 -1 -28 -18z"/>
<path d="M22260 5360 c0 -15 7 -20 25 -20 18 0 25 5 25 20 0 15 -7 20 -25 20
-18 0 -25 -5 -25 -20z"/>
</g>
</svg>
