<?xml version="1.0" standalone="no"?>
<!DOCTYPE svg PUBLIC "-//W3C//DTD SVG 20010904//EN"
 "http://www.w3.org/TR/2001/REC-SVG-20010904/DTD/svg10.dtd">
<svg version="1.0" xmlns="http://www.w3.org/2000/svg"
 width="2845.000000pt" height="1629.000000pt" viewBox="0 0 2845.000000 1629.000000"
 preserveAspectRatio="xMidYMid meet">

<g transform="translate(0.000000,1629.000000) scale(0.100000,-0.100000)"
fill="#000000" stroke="none">
<path d="M5240 14899 c-258 -22 -570 -76 -810 -140 -815 -216 -1574 -657
-2148 -1247 -135 -138 -293 -321 -389 -447 -58 -77 -64 -82 -142 -114 -67 -28
-113 -58 -251 -170 -339 -274 -528 -427 -648 -526 -68 -55 -146 -118 -175
-141 -29 -22 -52 -47 -52 -55 0 -8 -4 -17 -8 -20 -5 -3 6 -55 23 -115 17 -60
146 -500 285 -979 140 -478 322 -1104 405 -1390 83 -286 171 -587 195 -670 48
-164 136 -466 220 -755 29 -102 184 -633 343 -1180 160 -547 311 -1065 335
-1150 57 -195 236 -809 243 -832 3 -10 11 -18 19 -18 7 0 15 -5 17 -11 3 -8
229 -19 723 -35 396 -14 720 -26 721 -27 1 -1 81 -373 179 -827 97 -454 186
-865 196 -915 11 -49 35 -162 54 -250 19 -88 84 -392 145 -675 147 -684 160
-743 160 -752 0 -4 7 -8 15 -8 8 0 15 -4 15 -10 0 -5 11 -10 24 -10 13 0 244
36 513 80 268 45 625 103 793 130 168 28 338 55 378 62 58 10 72 15 72 30 0 9
6 15 13 13 7 -3 69 86 157 223 79 125 173 272 208 326 41 63 65 112 68 135 2
20 -9 96 -24 169 -16 72 -25 132 -21 132 3 0 42 -16 85 -36 44 -20 162 -74
264 -119 102 -46 266 -120 365 -165 99 -45 239 -108 310 -140 72 -31 150 -67
175 -78 172 -80 300 -136 330 -145 28 -8 70 -4 200 17 754 124 700 113 700
131 0 7 4 15 10 17 5 2 -22 174 -65 408 -40 223 -137 752 -215 1175 -77 424
-177 970 -221 1215 -45 245 -82 445 -83 446 0 1 -12 4 -26 7 -21 5 -30 -1 -57
-42 -39 -56 -39 -57 -13 -71 17 -9 24 -7 40 12 11 13 19 18 20 13 0 -10 114
-636 325 -1790 58 -319 137 -752 176 -963 38 -210 67 -387 64 -391 -2 -5 -26
-12 -52 -16 -27 -3 -212 -33 -413 -66 l-364 -60 -161 72 c-88 40 -284 128
-435 197 -151 69 -318 144 -370 167 -418 184 -577 260 -593 281 -10 13 -25 24
-33 24 -13 0 -16 -4 -18 -32 -1 -7 -4 -15 -7 -18 -4 -3 8 -81 27 -175 19 -93
32 -175 29 -182 -2 -6 -61 -101 -131 -210 -70 -109 -153 -238 -185 -288 -32
-49 -69 -106 -83 -126 l-25 -36 -193 -32 c-106 -17 -494 -80 -862 -141 -369
-60 -671 -108 -673 -106 -2 1 -39 171 -84 377 -44 206 -118 550 -164 764 -81
378 -212 986 -260 1210 -44 207 -174 810 -199 925 -18 83 -22 116 -13 122 6 3
33 10 59 13 42 6 48 10 48 30 0 13 -3 26 -7 28 -5 3 -39 -1 -78 -8 -60 -12
-156 -11 -665 6 -327 10 -653 22 -724 27 l-130 7 -53 185 c-30 102 -69 237
-88 300 -19 63 -115 396 -215 740 -100 344 -211 724 -246 845 -36 121 -82 281
-104 355 -22 74 -98 338 -170 585 -72 248 -146 502 -165 565 -18 63 -70 239
-114 390 -43 151 -138 475 -209 720 -72 245 -155 531 -185 635 -67 231 -298
1024 -413 1417 -46 158 -84 293 -84 302 0 8 38 45 83 83 116 95 417 338 571
464 71 57 181 146 245 198 70 56 145 107 188 127 39 19 74 34 77 34 3 0 11
-20 17 -45 10 -40 14 -45 33 -39 31 9 30 9 16 68 l-13 54 69 89 c561 724 1326
1271 2178 1557 536 180 1030 255 1601 243 612 -12 1144 -126 1718 -367 223
-93 703 -354 713 -387 2 -7 6 -19 8 -27 3 -9 14 -12 31 -8 16 3 24 10 21 17
-5 15 551 21 3464 35 1075 5 2211 12 2524 15 l569 6 -7 -65 -7 -66 31 0 c28 0
30 2 30 38 l1 37 31 -40 c54 -67 229 -244 301 -304 176 -145 223 -180 382
-286 192 -127 270 -172 470 -272 573 -287 1194 -467 1840 -533 156 -16 640
-40 797 -40 790 1 1710 184 2380 476 l100 43 -5 -28 c-5 -24 -2 -30 16 -35 34
-9 35 -8 42 34 4 22 10 42 14 45 4 2 82 -21 172 -52 90 -30 261 -88 379 -129
255 -86 1059 -359 1825 -619 303 -103 660 -224 795 -270 135 -46 499 -169 810
-275 311 -106 689 -234 840 -285 487 -165 1243 -422 1315 -447 39 -14 69 -29
68 -34 -1 -5 -65 -139 -143 -299 -78 -159 -161 -330 -185 -380 -24 -49 -129
-265 -234 -479 -105 -214 -191 -390 -191 -391 0 -2 -92 -191 -205 -420 -113
-230 -205 -419 -205 -420 0 -1 -81 -168 -181 -371 -100 -203 -212 -432 -249
-509 -37 -77 -127 -261 -200 -410 -73 -148 -163 -333 -200 -410 -79 -164 -227
-466 -405 -830 -70 -143 -160 -327 -200 -410 -40 -82 -130 -267 -200 -410
-223 -456 -346 -707 -400 -820 -29 -60 -130 -267 -225 -460 -95 -192 -185
-377 -200 -411 -31 -69 9 -43 -475 -309 -137 -76 -360 -198 -495 -273 -135
-74 -333 -183 -440 -242 -107 -59 -305 -168 -440 -243 -722 -398 -847 -466
-975 -537 -77 -42 -171 -94 -210 -115 -38 -21 -79 -44 -90 -52 -11 -7 -31 -13
-45 -13 -23 0 -1817 534 -1827 544 -4 4 37 330 192 1541 25 193 66 515 92 718
26 202 50 372 53 377 4 6 23 4 54 -6 52 -18 54 -17 58 15 3 20 -6 26 -60 46
-35 13 -95 26 -133 30 l-69 7 0 -25 c0 -23 5 -27 45 -33 39 -5 45 -10 45 -30
0 -13 -45 -376 -100 -806 -55 -431 -116 -904 -135 -1053 -87 -677 -104 -819
-102 -821 7 -6 1881 -564 1896 -564 9 0 21 4 26 9 6 4 48 28 95 53 47 25 144
78 215 118 72 40 225 124 340 188 236 129 655 360 1420 782 77 43 322 178 545
300 506 278 513 282 525 295 6 5 23 37 39 70 163 334 273 560 376 770 67 138
146 300 175 360 29 61 136 280 239 489 102 208 186 379 186 381 0 2 84 173
186 382 103 208 208 423 234 478 26 55 114 235 195 400 81 165 178 363 215
440 37 77 130 266 205 420 76 154 163 334 195 400 32 66 128 264 215 440 87
176 183 374 215 440 61 127 184 380 395 810 70 143 158 323 195 400 38 77 147
302 244 500 96 198 171 362 166 363 -6 2 -10 11 -10 21 0 13 -36 29 -152 68
-288 97 -684 231 -1188 403 -769 261 -1040 353 -1340 455 -405 137 -1320 448
-1930 655 -1395 474 -1626 552 -1641 557 -8 2 -47 -10 -85 -27 -176 -81 -295
-128 -499 -195 -485 -161 -976 -258 -1540 -306 -293 -25 -849 -13 -1240 27
-1005 101 -2047 536 -2692 1125 -101 93 -227 228 -281 302 -18 26 -44 49 -55
52 -12 3 -1502 -3 -3312 -13 l-3290 -19 -145 85 c-629 372 -1305 594 -2000
657 -178 16 -654 18 -820 4z"/>
<path d="M8190 13916 c0 -68 11 -96 36 -96 22 0 24 4 24 43 0 66 -9 87 -36 87
-21 0 -24 -5 -24 -34z"/>
<path d="M14756 13844 c-11 -80 -9 -86 22 -82 26 3 27 6 30 66 3 60 2 62 -21
62 -21 0 -25 -6 -31 -46z"/>
<path d="M8220 13666 c0 -67 11 -96 34 -92 25 4 30 23 21 82 -5 38 -9 44 -31
44 -21 0 -24 -5 -24 -34z"/>
<path d="M14735 13596 c-9 -59 -4 -80 21 -84 25 -4 34 19 34 86 0 38 -2 42
-24 42 -22 0 -26 -6 -31 -44z"/>
<path d="M8257 13453 c-11 -3 -16 -11 -13 -26 3 -12 8 -39 11 -59 5 -32 10
-38 30 -38 28 0 29 7 19 84 -7 45 -11 48 -47 39z"/>
<path d="M14716 13378 c-3 -13 -6 -42 -6 -65 0 -39 2 -43 24 -43 16 0 26 7 30
23 9 34 7 97 -3 97 -5 0 -16 3 -24 6 -9 3 -17 -3 -21 -18z"/>
<path d="M8277 13204 c-5 -5 -1 -51 9 -101 4 -23 37 -32 49 -14 3 5 2 35 -1
65 -6 49 -10 56 -29 56 -12 0 -24 -3 -28 -6z"/>
<path d="M14696 13142 c-2 -4 -6 -32 -7 -62 -3 -52 -2 -55 22 -58 24 -3 27 1
33 44 10 77 9 84 -18 84 -14 0 -27 -3 -30 -8z"/>
<path d="M8306 12918 c11 -84 12 -86 40 -80 24 4 26 8 20 41 -3 20 -6 46 -6
59 0 18 -6 22 -30 22 -30 0 -30 -1 -24 -42z"/>
<path d="M21080 12908 c-6 -24 -13 -50 -16 -59 -3 -12 4 -19 22 -23 14 -4 27
-6 28 -4 8 11 25 112 20 119 -3 5 -14 9 -24 9 -14 0 -22 -11 -30 -42z"/>
<path d="M14670 12856 c0 -24 -3 -51 -6 -59 -3 -10 4 -17 22 -21 14 -4 27 -6
29 -4 1 2 5 31 8 66 l7 62 -30 0 c-29 0 -30 -2 -30 -44z"/>
<path d="M1918 12733 c-21 -5 -21 -4 -5 -68 13 -50 37 -69 59 -47 11 11 -17
123 -30 121 -4 -1 -15 -3 -24 -6z"/>
<path d="M8336 12712 c-3 -5 -2 -34 1 -65 6 -55 7 -57 36 -57 28 0 29 2 23 31
-3 17 -6 47 -6 65 0 29 -3 34 -24 34 -14 0 -27 -4 -30 -8z"/>
<path d="M21025 12698 c-12 -35 -26 -100 -23 -104 3 -2 15 -5 28 -6 20 -3 25
3 36 47 16 58 12 75 -16 75 -11 0 -23 -6 -25 -12z"/>
<path d="M14650 12628 c0 -13 -3 -40 -6 -60 -6 -37 -6 -38 25 -38 30 0 31 1
31 44 0 24 3 51 6 60 5 13 -1 16 -25 16 -25 0 -31 -4 -31 -22z"/>
<path d="M1981 12491 c-12 -8 -12 -17 1 -63 14 -52 30 -66 57 -49 11 7 10 18
-3 65 -16 55 -27 64 -55 47z"/>
<path d="M8365 12408 c4 -35 8 -64 10 -66 1 -2 15 0 29 4 23 5 26 11 22 33 -3
14 -7 41 -8 59 -2 28 -6 32 -31 32 l-29 0 7 -62z"/>
<path d="M20965 12458 c-10 -32 -26 -100 -23 -103 2 -1 13 -6 25 -9 19 -6 23
-2 32 31 19 71 18 88 -7 91 -12 2 -24 -3 -27 -10z"/>
<path d="M14626 12364 c-11 -80 -9 -86 22 -82 26 3 27 5 27 63 0 53 -2 60 -21
63 -18 3 -22 -4 -28 -44z"/>
<path d="M2044 12246 c-3 -8 1 -36 8 -63 12 -41 17 -48 38 -45 13 1 25 4 27 5
1 2 -5 29 -14 60 -12 44 -20 57 -35 57 -10 0 -21 -6 -24 -14z"/>
<path d="M8402 12221 c-10 -6 -12 -22 -7 -65 7 -53 9 -56 35 -56 30 0 30 -1
14 98 -5 32 -17 39 -42 23z"/>
<path d="M20891 12174 c-14 -62 -15 -59 16 -68 19 -6 23 -3 28 21 4 15 11 41
16 57 11 35 5 46 -25 46 -20 0 -25 -8 -35 -56z"/>
<path d="M14606 12129 c-12 -61 -7 -86 16 -92 12 -4 24 -4 27 -1 3 2 7 31 9
64 4 58 4 60 -21 60 -19 0 -26 -6 -31 -31z"/>
<path d="M2108 12015 c-2 -3 2 -32 11 -65 15 -57 17 -61 41 -55 14 4 26 8 27
9 2 1 -5 28 -14 59 -13 47 -20 57 -38 57 -12 0 -24 -2 -27 -5z"/>
<path d="M20831 11934 c-11 -47 -11 -58 0 -65 27 -17 37 -8 52 50 13 52 13 61
0 65 -32 13 -40 4 -52 -50z"/>
<path d="M8420 11953 c0 -16 3 -45 7 -66 5 -31 9 -38 27 -35 24 3 32 39 21 95
-5 27 -11 33 -30 33 -21 0 -25 -5 -25 -27z"/>
<path d="M14586 11903 c-4 -8 -6 -37 -6 -64 0 -45 2 -49 24 -49 18 0 25 7 30
31 12 63 8 86 -18 91 -16 3 -27 0 -30 -9z"/>
<path d="M2193 11779 c-27 -10 -27 -4 -7 -65 20 -60 24 -64 51 -54 21 9 21 10
6 62 -19 64 -22 68 -50 57z"/>
<path d="M20768 11691 c-15 -58 -15 -59 6 -65 11 -3 24 -6 28 -6 10 0 31 98
24 115 -3 8 -14 15 -24 15 -15 0 -23 -13 -34 -59z"/>
<path d="M8468 11733 c-13 -3 -18 -14 -18 -41 0 -62 10 -82 38 -82 24 0 25 1
19 56 -6 62 -13 73 -39 67z"/>
<path d="M14561 11605 c-2 -63 -1 -65 22 -65 20 0 25 6 31 38 12 77 9 92 -22
92 -29 0 -29 -1 -31 -65z"/>
<path d="M2258 11543 c-22 -5 -22 -2 -2 -69 12 -42 20 -54 35 -54 28 0 32 21
16 76 -14 49 -20 55 -49 47z"/>
<path d="M20710 11468 c-6 -24 -13 -50 -16 -59 -4 -14 19 -28 47 -29 9 0 31
109 24 120 -3 5 -15 10 -25 10 -14 0 -22 -11 -30 -42z"/>
<path d="M8480 11441 c0 -65 7 -81 36 -81 26 0 30 19 18 93 -6 31 -11 37 -30
37 -22 0 -24 -4 -24 -49z"/>
<path d="M14540 11383 c0 -21 -3 -48 -6 -60 -5 -18 -1 -23 20 -29 15 -3 28 -5
30 -3 2 2 6 32 9 67 l7 62 -30 0 c-28 0 -30 -3 -30 -37z"/>
<path d="M2328 11303 c-22 -5 -22 -7 -3 -71 16 -51 27 -60 54 -43 11 7 10 18
-3 65 -9 31 -20 55 -24 55 -4 -1 -15 -3 -24 -6z"/>
<path d="M20650 11228 c-6 -24 -13 -50 -16 -59 -3 -11 3 -19 18 -22 29 -8 33
-3 47 56 13 53 9 67 -19 67 -14 0 -22 -11 -30 -42z"/>
<path d="M8505 11213 c2 -16 7 -45 10 -66 5 -34 9 -37 28 -31 30 9 29 6 22 68
-7 53 -9 56 -36 56 -25 0 -28 -3 -24 -27z"/>
<path d="M14525 11166 c-2 -6 -6 -35 -10 -63 l-6 -53 31 0 c28 0 30 2 30 38 0
20 3 47 6 58 5 17 0 22 -21 26 -15 3 -28 1 -30 -6z"/>
<path d="M2391 11061 c-12 -8 -12 -17 1 -63 14 -52 30 -66 56 -49 11 7 10 18
-3 65 -16 55 -26 64 -54 47z"/>
<path d="M20595 11018 c-12 -35 -26 -100 -23 -104 3 -2 15 -5 28 -6 20 -3 25
3 36 47 16 58 12 75 -16 75 -11 0 -23 -6 -25 -12z"/>
<path d="M8545 10992 c-6 -4 -9 -32 -7 -64 4 -57 4 -58 34 -58 l29 0 -7 58
c-3 31 -8 60 -11 65 -5 9 -25 9 -38 -1z"/>
<path d="M14500 10912 c0 -11 -3 -40 -6 -66 -7 -44 -6 -46 19 -46 33 0 35 4
38 70 3 53 2 55 -24 58 -21 3 -27 -1 -27 -16z"/>
<path d="M2454 10824 c-8 -3 -6 -22 6 -62 16 -49 21 -57 41 -54 13 1 24 4 26
6 3 2 -3 29 -12 60 -16 55 -27 64 -61 50z"/>
<path d="M20522 10733 c-6 -31 -11 -58 -9 -59 1 -1 12 -5 24 -8 19 -6 23 -2
32 31 26 98 26 93 -6 93 -27 0 -30 -4 -41 -57z"/>
<path d="M8564 10713 c3 -21 6 -50 6 -65 0 -23 4 -28 24 -28 33 0 36 7 29 73
-6 55 -7 57 -36 57 -29 0 -29 -1 -23 -37z"/>
<path d="M14475 10636 c-9 -59 -4 -80 21 -84 25 -4 34 19 34 86 0 38 -2 42
-24 42 -22 0 -26 -6 -31 -44z"/>
<path d="M2533 10589 c-22 -8 -22 -9 -7 -61 19 -64 23 -68 51 -57 22 8 22 9 7
61 -19 64 -23 68 -51 57z"/>
<path d="M20461 10494 c-14 -62 -15 -59 16 -68 19 -6 23 -3 28 21 4 15 11 41
16 57 11 35 5 46 -25 46 -20 0 -25 -8 -35 -56z"/>
<path d="M8611 10502 c-21 -3 -23 -7 -17 -40 3 -21 6 -47 6 -59 0 -19 6 -23
30 -23 l29 0 -6 53 c-7 65 -12 73 -42 69z"/>
<path d="M14456 10418 c-3 -13 -6 -42 -6 -65 0 -39 2 -43 24 -43 16 0 26 7 30
23 9 34 7 97 -3 97 -5 0 -16 3 -24 6 -9 3 -17 -3 -21 -18z"/>
<path d="M2598 10353 c-22 -5 -22 -4 -1 -70 12 -39 22 -53 35 -53 27 0 31 22
16 76 -14 49 -20 55 -50 47z"/>
<path d="M20401 10254 c-14 -61 -15 -59 15 -68 19 -6 23 0 36 53 17 65 15 71
-17 71 -18 0 -24 -9 -34 -56z"/>
<path d="M8620 10242 c0 -11 3 -40 6 -66 6 -43 9 -47 33 -44 24 3 25 6 23 44
-6 75 -8 79 -35 82 -21 3 -27 -1 -27 -16z"/>
<path d="M14431 10125 c-2 -63 -1 -65 22 -65 22 0 25 5 32 55 7 63 3 75 -29
75 -21 0 -23 -5 -25 -65z"/>
<path d="M2662 10111 c-22 -13 13 -121 39 -121 28 0 32 21 16 76 -14 49 -30
62 -55 45z"/>
<path d="M20337 10013 c-8 -32 -15 -58 -14 -59 1 -1 14 -4 28 -7 25 -6 27 -4
41 53 8 33 12 62 10 65 -3 3 -15 5 -27 5 -18 0 -25 -10 -38 -57z"/>
<path d="M8650 9991 c0 -10 3 -39 6 -64 5 -34 10 -44 23 -42 9 2 21 4 27 4 6
1 10 11 8 24 -13 95 -14 97 -39 97 -18 0 -25 -6 -25 -19z"/>
<path d="M14408 9883 c-2 -32 -3 -59 -2 -61 1 -2 13 -5 28 -8 20 -3 26 0 26
14 0 11 3 40 6 66 l7 46 -31 0 c-30 0 -30 -1 -34 -57z"/>
<path d="M2731 9871 c-11 -7 -10 -18 3 -65 16 -55 27 -64 55 -47 11 7 10 18
-3 65 -16 55 -27 64 -55 47z"/>
<path d="M20280 9788 c-6 -24 -13 -51 -16 -60 -3 -12 0 -18 10 -18 8 0 21 -2
28 -5 10 -4 18 8 26 45 17 72 16 80 -13 80 -20 0 -26 -7 -35 -42z"/>
<path d="M8693 9763 c-14 -5 -17 -62 -7 -100 4 -16 14 -23 30 -23 21 0 24 5
24 34 0 79 -13 103 -47 89z"/>
<path d="M14396 9688 c-2 -7 -7 -37 -10 -65 -5 -53 -5 -53 23 -53 27 0 29 2
34 58 2 31 4 58 3 58 0 1 -11 5 -24 8 -14 5 -23 3 -26 -6z"/>
<path d="M2794 9625 c-3 -8 2 -37 11 -65 15 -45 20 -50 38 -44 12 4 23 8 25 9
2 2 -4 28 -13 59 -13 43 -21 56 -36 56 -11 0 -22 -7 -25 -15z"/>
<path d="M20220 9548 c-6 -24 -13 -51 -16 -60 -4 -13 0 -18 15 -18 12 0 24 -1
28 -2 6 -3 32 84 33 110 0 6 -11 12 -25 12 -20 0 -26 -7 -35 -42z"/>
<path d="M8709 9513 c-2 -15 2 -69 7 -95 4 -19 12 -28 24 -28 28 0 33 16 25
76 -6 49 -9 54 -31 54 -13 0 -24 -3 -25 -7z"/>
<path d="M14370 9431 c0 -10 -3 -39 -6 -65 l-7 -48 29 4 c28 3 29 5 32 66 3
61 2 62 -23 62 -18 0 -25 -5 -25 -19z"/>
<path d="M2878 9403 c-21 -5 -22 -23 -4 -83 12 -39 17 -45 37 -42 13 2 25 5
27 7 5 4 -32 125 -38 124 -3 -1 -13 -3 -22 -6z"/>
<path d="M20165 9338 c-12 -35 -26 -100 -23 -104 3 -2 15 -5 28 -6 20 -3 25 3
36 47 19 69 18 75 -11 75 -14 0 -28 -6 -30 -12z"/>
<path d="M8753 9273 c-19 -4 -21 -9 -17 -41 11 -77 13 -82 41 -82 25 0 26 1
19 46 -3 26 -6 55 -6 65 0 11 -3 18 -7 18 -5 -1 -18 -4 -30 -6z"/>
<path d="M14344 9144 c-7 -59 1 -74 35 -70 12 2 17 17 19 64 3 60 2 62 -22 62
-22 0 -25 -5 -32 -56z"/>
<path d="M2937 9163 c-11 -3 -16 -11 -13 -21 3 -9 10 -36 17 -59 12 -42 22
-49 52 -37 13 4 13 13 -1 65 -9 32 -21 58 -27 58 -5 -1 -18 -3 -28 -6z"/>
<path d="M20107 9103 c-8 -16 -30 -104 -26 -107 2 -2 14 -7 26 -10 19 -6 23
-2 32 31 25 97 25 93 -2 93 -14 0 -28 -3 -30 -7z"/>
<path d="M8767 9023 c-3 -5 -2 -34 0 -65 5 -57 6 -58 36 -58 30 0 30 0 23 46
-3 26 -6 55 -6 65 0 13 -7 19 -24 19 -14 0 -27 -3 -29 -7z"/>
<path d="M14326 8938 c-3 -13 -6 -42 -6 -65 0 -39 2 -43 24 -43 28 0 36 16 36
75 0 30 -5 45 -16 49 -25 10 -31 7 -38 -16z"/>
<path d="M3008 8923 c-22 -5 -22 -4 -1 -70 16 -51 25 -59 56 -47 13 4 12 13
-2 61 -17 58 -23 64 -53 56z"/>
<path d="M20031 8814 c-14 -61 -15 -59 16 -68 22 -7 24 -5 38 59 3 17 8 38 11
48 4 13 -1 17 -24 17 -27 0 -30 -4 -41 -56z"/>
<path d="M8796 8723 c8 -72 8 -71 40 -65 23 4 25 8 20 35 -3 16 -6 42 -6 58 0
26 -4 29 -31 29 l-30 0 7 -57z"/>
<path d="M14301 8645 c-2 -63 -1 -65 22 -65 20 0 25 6 31 38 12 77 9 92 -22
92 -29 0 -29 -1 -31 -65z"/>
<path d="M3072 8681 c-11 -7 -10 -18 3 -65 16 -55 26 -64 54 -47 12 8 12 17
-1 63 -14 52 -30 66 -56 49z"/>
<path d="M19970 8575 c-14 -60 -15 -60 16 -69 19 -6 23 0 36 53 17 65 15 71
-17 71 -18 0 -24 -9 -35 -55z"/>
<path d="M8832 8532 c-9 -6 -11 -24 -6 -65 7 -55 8 -57 37 -57 28 0 29 2 23
31 -3 17 -6 47 -6 65 0 35 -18 44 -48 26z"/>
<path d="M3153 8449 c-27 -10 -27 -11 -7 -78 13 -46 17 -51 37 -45 31 9 31 7
11 72 -18 55 -21 59 -41 51z"/>
<path d="M14278 8404 c-3 -51 -1 -58 20 -67 12 -6 24 -8 26 -6 2 2 7 32 11 67
l7 62 -30 0 c-30 0 -30 -1 -34 -56z"/>
<path d="M19910 8339 c-14 -65 -14 -64 16 -73 18 -6 22 0 33 49 15 69 15 69
-13 76 -22 6 -25 3 -36 -52z"/>
<path d="M8855 8228 c4 -35 8 -64 10 -66 1 -2 14 0 28 3 23 6 25 11 21 43 -11
77 -13 82 -40 82 -26 0 -26 0 -19 -62z"/>
<path d="M3218 8213 c-21 -5 -22 -23 -4 -83 12 -39 17 -45 37 -42 13 2 25 5
27 7 5 5 -31 125 -37 124 -3 -1 -14 -3 -23 -6z"/>
<path d="M14265 8206 c-2 -6 -6 -35 -9 -63 l-5 -53 29 0 c26 0 30 4 30 29 0
16 3 42 6 58 5 27 3 31 -21 35 -15 3 -28 1 -30 -6z"/>
<path d="M19847 8098 c-15 -58 -15 -60 6 -67 30 -11 33 -8 46 43 16 63 14 73
-13 78 -22 5 -26 0 -39 -54z"/>
<path d="M8893 8043 c-14 -5 -16 -37 -7 -94 6 -34 8 -36 33 -30 22 7 26 12 23
42 -7 84 -14 97 -49 82z"/>
<path d="M3284 7973 c-21 -4 -21 -5 -7 -64 13 -51 19 -59 39 -59 12 0 25 4 28
8 5 9 -26 123 -34 121 -3 -1 -15 -4 -26 -6z"/>
<path d="M14240 7952 c0 -11 -3 -40 -6 -66 l-7 -46 32 0 c30 0 31 1 33 50 0
28 1 56 2 63 1 6 -11 13 -26 15 -22 3 -28 -1 -28 -16z"/>
<path d="M19794 7891 c-3 -14 -10 -41 -15 -60 -10 -40 -11 -38 20 -43 22 -3
26 3 38 47 17 68 17 72 -12 77 -21 4 -26 1 -31 -21z"/>
<path d="M8913 7738 c3 -35 6 -64 7 -65 0 -2 11 -3 25 -3 22 0 25 4 25 34 0
69 -11 96 -37 96 -25 0 -25 -1 -20 -62z"/>
<path d="M3347 7733 c-11 -3 -16 -11 -13 -21 3 -9 10 -36 17 -59 12 -42 22
-49 51 -38 12 5 12 15 -1 65 -9 33 -20 59 -26 59 -5 -1 -18 -3 -28 -6z"/>
<path d="M14216 7689 c-11 -59 -7 -87 14 -94 32 -10 40 3 40 66 0 55 -1 59
-24 59 -18 0 -25 -7 -30 -31z"/>
<path d="M19731 7641 c-24 -91 -24 -88 3 -93 23 -5 27 -1 41 47 20 69 19 72
-10 77 -22 5 -26 1 -34 -31z"/>
<path d="M8960 7552 c-25 -3 -26 -5 -20 -55 7 -64 14 -77 40 -70 21 6 25 29
12 93 -6 30 -11 35 -32 32z"/>
<path d="M3413 7492 c-10 -6 -9 -20 2 -61 16 -63 18 -65 45 -56 19 6 21 12 15
42 -14 76 -30 95 -62 75z"/>
<path d="M14196 7456 c-3 -12 -6 -40 -6 -63 0 -39 2 -43 24 -43 26 0 36 21 36
81 0 31 -4 37 -24 41 -19 4 -26 0 -30 -16z"/>
<path d="M19665 7385 c-20 -69 -19 -72 10 -77 22 -5 26 -1 34 31 24 91 24 88
-3 93 -23 5 -27 1 -41 -47z"/>
<path d="M8973 7304 c-7 -3 -10 -19 -7 -42 11 -76 13 -82 39 -82 28 0 29 7 19
84 -7 45 -17 53 -51 40z"/>
<path d="M3476 7251 c-4 -6 1 -35 9 -66 15 -50 19 -55 38 -49 31 9 31 8 15 66
-11 40 -20 54 -35 56 -12 2 -24 -1 -27 -7z"/>
<path d="M14176 7208 c-3 -13 -6 -42 -6 -65 0 -39 2 -43 24 -43 20 0 24 6 30
46 10 76 8 84 -18 84 -16 0 -26 -7 -30 -22z"/>
<path d="M19615 7186 c-9 -28 -25 -92 -25 -102 0 -7 11 -14 25 -16 26 -5 27
-4 40 57 3 17 8 37 11 46 5 19 -45 34 -51 15z"/>
<path d="M8997 7003 c6 -67 13 -78 43 -68 19 6 21 12 16 44 -3 20 -6 46 -6 59
0 18 -6 22 -29 22 l-30 0 6 -57z"/>
<path d="M3563 7022 c-27 -4 -28 -12 -7 -81 13 -46 17 -51 37 -45 31 9 31 7
11 71 -17 50 -22 58 -41 55z"/>
<path d="M14157 6973 c-4 -3 -7 -30 -7 -59 0 -45 3 -54 21 -59 11 -4 22 -5 24
-3 2 2 7 31 11 66 6 61 6 62 -18 62 -14 0 -28 -3 -31 -7z"/>
<path d="M19541 6906 c-16 -63 -14 -73 13 -78 22 -5 26 0 39 53 16 63 14 69
-18 69 -18 0 -25 -9 -34 -44z"/>
<path d="M9034 6812 c-7 -4 -9 -28 -6 -64 4 -56 5 -58 34 -58 l29 0 -6 53 c-4
28 -8 58 -10 65 -5 13 -24 16 -41 4z"/>
<path d="M3628 6783 c-21 -5 -22 -18 -6 -78 10 -36 16 -45 34 -45 13 0 25 4
28 8 6 10 -25 122 -33 121 -3 -1 -14 -3 -23 -6z"/>
<path d="M14136 6729 c-2 -8 -7 -38 -10 -66 l-5 -53 29 0 c27 0 30 3 31 33 0
17 3 44 5 60 3 15 0 27 -5 27 -5 0 -16 3 -25 6 -9 3 -18 0 -20 -7z"/>
<path d="M19481 6664 c-15 -67 -15 -68 13 -75 21 -6 24 -2 35 47 15 67 15 68
-13 75 -21 6 -24 2 -35 -47z"/>
<path d="M9055 6508 c4 -35 9 -65 11 -67 2 -2 14 -1 28 3 24 6 25 9 20 54 -8
68 -11 72 -40 72 l-26 0 7 -62z"/>
<path d="M3687 6543 c-12 -3 -16 -10 -13 -20 4 -9 11 -35 17 -59 8 -30 17 -44
28 -44 36 0 40 13 24 73 -16 56 -20 59 -56 50z"/>
<path d="M14110 6463 c0 -15 -3 -45 -6 -65 -6 -37 -6 -38 25 -38 30 0 31 2 33
45 1 25 2 53 2 63 1 11 -8 18 -26 20 -25 3 -28 0 -28 -25z"/>
<path d="M19417 6417 c-14 -55 -14 -60 1 -64 31 -8 36 -4 49 39 18 62 16 75
-11 80 -22 5 -26 0 -39 -55z"/>
<path d="M9080 6306 c0 -7 3 -34 6 -60 6 -42 9 -46 34 -46 27 0 27 1 23 48 -3
26 -6 53 -8 60 -6 17 -55 16 -55 -2z"/>
<path d="M3753 6302 c-9 -6 -8 -20 4 -62 8 -30 17 -56 18 -58 1 -2 14 0 27 3
l24 6 -15 60 c-15 58 -28 70 -58 51z"/>
<path d="M14086 6203 c-10 -65 -8 -80 16 -86 30 -8 31 -5 38 64 6 59 6 59 -21
59 -23 0 -27 -5 -33 -37z"/>
<path d="M19364 6211 c-3 -14 -10 -39 -15 -55 -13 -42 -12 -46 19 -46 26 0 30
4 40 51 16 67 16 66 -13 71 -21 4 -26 1 -31 -21z"/>
<path d="M9110 6050 c0 -14 3 -42 6 -62 6 -32 11 -38 30 -38 22 0 24 4 24 53
0 62 -8 77 -38 74 -16 -1 -22 -8 -22 -27z"/>
<path d="M3816 6062 c-3 -5 2 -35 11 -66 14 -50 18 -56 37 -50 30 9 30 9 15
66 -11 41 -19 54 -36 56 -11 2 -24 -1 -27 -6z"/>
<path d="M14067 5963 c-13 -74 -9 -93 17 -93 13 0 27 7 30 16 9 25 7 104 -3
104 -5 0 -16 2 -24 6 -10 4 -16 -5 -20 -33z"/>
<path d="M19301 5963 c-24 -93 -24 -90 3 -95 24 -5 27 -1 41 45 17 58 19 77 6
77 -5 0 -16 3 -25 6 -11 4 -17 -5 -25 -33z"/>
<path d="M12880 5831 l0 -31 65 0 c56 0 65 2 62 18 -5 32 -16 39 -72 41 l-55
2 0 -30z"/>
<path d="M13129 5844 c-5 -6 -7 -19 -3 -28 5 -12 20 -16 65 -16 58 0 59 0 59
29 0 29 -1 29 -56 28 -30 -1 -60 -7 -65 -13z"/>
<path d="M13370 5846 c0 -39 12 -46 71 -46 59 0 59 0 59 30 l0 30 -65 0 c-49
0 -65 -3 -65 -14z"/>
<path d="M13620 5836 c0 -29 16 -35 80 -32 41 1 45 4 48 29 3 27 3 27 -62 27
-63 0 -66 -1 -66 -24z"/>
<path d="M13872 5833 c3 -27 6 -28 56 -29 54 -1 69 8 69 39 0 14 -10 17 -64
17 -64 0 -64 0 -61 -27z"/>
<path d="M14032 5813 c-62 -63 -188 -201 -527 -578 -153 -170 -282 -312 -285
-315 -3 -3 -66 -72 -140 -155 -124 -139 -213 -238 -365 -405 -60 -65 -131
-144 -325 -360 -57 -63 -140 -155 -185 -205 -258 -283 -528 -584 -535 -596 -5
-6 -1552 -39 -1866 -39 l-61 0 -26 128 c-14 70 -46 224 -71 342 -24 118 -103
496 -175 840 -72 344 -162 775 -200 959 -39 184 -68 338 -65 343 3 4 23 8 45
8 36 0 39 2 39 26 l0 27 -102 -6 c-135 -8 -150 -13 -146 -46 2 -19 8 -25 21
-23 17 3 17 2 1 -23 -16 -24 -16 -26 2 -40 27 -20 29 -19 54 23 l23 37 8 -25
c5 -14 106 -491 224 -1060 119 -569 236 -1132 261 -1250 25 -118 48 -228 51
-245 3 -16 15 -39 26 -49 19 -19 37 -19 836 -8 449 7 889 15 978 18 l162 6
201 224 c111 124 207 230 213 237 7 7 52 57 102 112 49 55 92 102 95 105 3 3
66 73 140 155 124 139 213 238 365 405 65 71 164 181 325 360 56 63 119 133
139 155 20 22 106 117 191 211 85 93 249 275 364 402 115 128 211 232 213 232
2 0 1 -19 -2 -42 -8 -60 -138 -1130 -245 -2013 -50 -407 -108 -884 -129 -1060
-22 -176 -38 -321 -38 -321 1 -1 283 -50 627 -109 344 -58 711 -121 815 -140
307 -54 346 -59 353 -48 4 5 14 10 22 10 9 0 67 40 129 89 142 111 180 141
228 179 196 153 273 217 268 225 -3 4 0 10 6 12 6 2 20 69 32 151 11 81 23
147 26 147 6 -1 54 -44 196 -179 45 -42 145 -137 225 -211 79 -74 160 -151
180 -170 123 -120 507 -481 582 -548 31 -27 64 -52 75 -55 53 -16 874 -150
879 -144 4 4 35 192 70 419 35 227 120 782 189 1233 69 451 153 1001 187 1222
60 389 61 403 44 422 -18 20 -18 20 -67 -17 -52 -38 -58 -52 -34 -72 12 -10
18 -10 30 0 9 7 18 11 20 8 3 -3 -57 -414 -134 -914 -77 -500 -185 -1208 -241
-1574 -56 -366 -104 -667 -106 -669 -4 -4 -777 126 -820 138 -12 3 -100 81
-195 172 -96 91 -214 203 -264 249 -372 347 -790 746 -790 755 -1 5 -6 19 -12
30 -9 15 -16 18 -28 10 -9 -5 -16 -14 -15 -19 1 -5 -3 -12 -10 -16 -6 -4 -20
-72 -31 -151 -28 -208 -27 -206 -52 -222 -12 -8 -71 -54 -132 -103 -60 -49
-151 -120 -201 -159 -50 -38 -130 -101 -177 -138 l-86 -68 -733 126 c-403 69
-789 136 -858 147 -69 12 -128 24 -132 27 -4 4 10 150 32 326 21 176 60 491
85 700 25 209 66 542 90 740 25 198 60 493 80 655 56 468 114 941 121 988 l5
44 50 -7 c48 -7 49 -6 49 18 0 27 -7 31 -78 42 -41 7 -44 5 -90 -42z"/>
<path d="M11190 5840 c-37 -4 -45 -9 -45 -25 0 -18 8 -20 63 -23 l62 -3 0 30
c0 22 -4 29 -17 28 -10 -1 -38 -4 -63 -7z"/>
<path d="M11395 5842 c-3 -3 -5 -16 -5 -29 0 -22 4 -23 65 -23 l65 0 0 30 0
31 -60 -2 c-33 -1 -62 -4 -65 -7z"/>
<path d="M11640 5820 l0 -31 63 3 c59 3 62 4 65 31 l3 27 -65 0 -66 0 0 -30z"/>
<path d="M11890 5820 l0 -31 63 3 c59 3 62 4 62 28 0 24 -3 25 -63 28 l-62 3
0 -31z"/>
<path d="M12133 5829 c5 -30 25 -39 80 -37 45 1 47 3 47 30 0 28 0 28 -65 28
-60 0 -65 -2 -62 -21z"/>
<path d="M12382 5823 c2 -16 9 -28 16 -27 6 1 35 2 62 3 46 1 50 3 50 26 0 24
-2 25 -66 25 l-65 0 3 -27z"/>
<path d="M12630 5825 c0 -24 2 -25 65 -25 63 0 65 1 65 25 0 24 -2 25 -65 25
-63 0 -65 -1 -65 -25z"/>
<path d="M3903 5832 c-27 -4 -28 -8 -7 -78 14 -49 18 -54 37 -48 31 9 31 9 17
61 -17 64 -21 69 -47 65z"/>
<path d="M9660 5810 l0 -30 65 0 c50 0 65 3 65 14 0 29 -30 46 -81 46 -48 0
-49 -1 -49 -30z"/>
<path d="M9910 5808 c0 -27 1 -28 60 -28 59 0 60 0 60 28 0 28 -1 28 -60 28
-59 -1 -60 -2 -60 -28z"/>
<path d="M10156 5825 c-12 -33 4 -45 65 -45 59 0 59 0 59 30 0 30 0 30 -59 30
-43 0 -60 -4 -65 -15z"/>
<path d="M10400 5809 l0 -30 63 5 c34 2 63 5 65 5 1 1 2 12 2 26 0 24 -2 25
-65 25 l-65 0 0 -31z"/>
<path d="M10652 5813 c3 -25 7 -27 43 -26 85 2 85 2 85 28 0 24 -2 25 -66 25
-65 0 -65 0 -62 -27z"/>
<path d="M10900 5815 c0 -25 1 -26 63 -23 54 3 62 5 62 23 0 18 -8 20 -62 23
-62 3 -63 2 -63 -23z"/>
<path d="M9410 5805 c0 -24 2 -25 65 -25 63 0 65 1 65 25 0 24 -2 25 -65 25
-63 0 -65 -1 -65 -25z"/>
<path d="M14320 5796 c0 -27 3 -28 82 -41 31 -5 37 -3 43 16 9 29 -1 36 -67
44 -57 6 -58 6 -58 -19z"/>
<path d="M8855 5776 c-55 -10 -60 -13 -57 -36 1 -13 3 -25 5 -26 1 -1 35 3 75
9 69 11 72 12 72 39 0 32 -3 32 -95 14z"/>
<path d="M14566 5764 c-13 -33 -14 -32 87 -49 36 -6 37 -5 37 23 0 27 -3 30
-46 36 -66 9 -71 8 -78 -10z"/>
<path d="M19246 5749 c-32 -111 -32 -116 -1 -121 22 -5 26 -1 34 31 22 80 23
91 13 91 -6 0 -17 3 -26 6 -9 3 -18 0 -20 -7z"/>
<path d="M8640 5739 c-25 -5 -55 -12 -67 -15 -24 -5 -32 -37 -13 -49 12 -8
150 15 150 24 -1 17 -13 51 -19 50 -3 -1 -26 -5 -51 -10z"/>
<path d="M14810 5716 c0 -21 6 -25 58 -34 59 -10 72 -5 72 29 0 17 -43 29
-102 29 -23 0 -28 -4 -28 -24z"/>
<path d="M15056 5684 c-4 -14 -6 -28 -4 -29 2 -2 31 -7 66 -11 62 -7 62 -6 62
19 0 22 -5 26 -42 32 -24 3 -50 9 -59 11 -12 3 -19 -4 -23 -22z"/>
<path d="M8357 5688 c-44 -10 -48 -13 -45 -37 3 -29 7 -29 104 -10 47 9 51 12
46 34 -5 28 -22 30 -105 13z"/>
<path d="M15300 5642 c0 -28 2 -30 56 -37 43 -5 59 -3 65 7 15 23 10 36 -18
42 -106 19 -103 19 -103 -12z"/>
<path d="M8127 5645 c-32 -7 -60 -14 -62 -17 -2 -2 -1 -14 2 -27 5 -20 10 -22
37 -17 17 4 50 9 74 13 38 5 42 8 42 34 0 33 -4 34 -93 14z"/>
<path d="M15545 5609 c-9 -29 1 -36 68 -44 57 -6 57 -6 57 20 0 28 -4 31 -72
40 -41 5 -47 4 -53 -16z"/>
<path d="M7930 5609 c-19 -4 -52 -10 -72 -13 -29 -5 -38 -12 -38 -27 0 -11 7
-22 15 -25 23 -9 145 16 144 30 -2 33 -14 42 -49 35z"/>
<path d="M3968 5593 c-22 -5 -22 -15 -3 -80 13 -43 18 -50 35 -46 11 3 22 9
25 13 6 9 -26 120 -34 119 -3 -1 -14 -3 -23 -6z"/>
<path d="M8948 5554 c-16 -25 -28 -49 -28 -54 0 -13 43 -35 47 -24 2 5 17 29
33 54 28 41 29 46 13 58 -27 19 -36 14 -65 -34z"/>
<path d="M15790 5567 c0 -27 7 -31 76 -42 37 -6 42 -4 47 17 8 31 2 35 -65 43
-57 7 -58 7 -58 -18z"/>
<path d="M7633 5557 c-49 -9 -53 -12 -53 -39 0 -28 1 -29 38 -22 107 18 107
19 110 47 4 31 -4 32 -95 14z"/>
<path d="M16035 5529 c-9 -27 -7 -28 56 -38 62 -10 69 -8 69 23 0 20 -6 24
-46 30 -68 9 -72 8 -79 -15z"/>
<path d="M7420 5519 c-25 -5 -55 -12 -67 -15 -24 -5 -29 -20 -15 -42 11 -17
152 5 152 24 0 18 -11 44 -19 43 -3 -1 -26 -5 -51 -10z"/>
<path d="M16280 5488 c0 -15 6 -28 13 -29 6 0 33 -4 59 -8 44 -7 47 -7 51 18
3 14 5 27 4 28 -1 0 -30 5 -64 10 l-63 10 0 -29z"/>
<path d="M19185 5506 c-9 -28 -25 -92 -25 -102 0 -7 11 -14 24 -16 21 -4 25 1
40 53 9 32 16 60 16 63 0 10 -52 12 -55 2z"/>
<path d="M7175 5475 c-5 -2 -27 -6 -47 -10 -32 -5 -38 -10 -38 -30 0 -20 5
-25 24 -25 24 0 127 18 132 23 2 2 1 13 -3 25 -5 21 -35 28 -68 17z"/>
<path d="M16524 5455 c-3 -14 -5 -28 -3 -30 2 -2 32 -7 67 -11 62 -7 62 -6 62
19 0 22 -5 26 -42 32 -24 3 -51 9 -60 11 -12 4 -19 -2 -24 -21z"/>
<path d="M6905 5426 c-56 -10 -60 -13 -57 -36 2 -14 5 -26 7 -28 1 -1 34 3 74
10 68 12 71 13 71 40 0 32 -2 32 -95 14z"/>
<path d="M16770 5416 c0 -31 4 -33 67 -42 48 -6 50 -5 55 19 5 28 8 27 -84 42
-35 5 -38 4 -38 -19z"/>
<path d="M6695 5388 c-87 -14 -95 -17 -95 -38 0 -10 5 -22 10 -25 17 -10 150
15 149 28 -2 37 -13 43 -64 35z"/>
<path d="M17010 5376 c0 -28 15 -35 85 -39 36 -2 40 0 43 24 2 16 -2 26 -10
26 -7 0 -37 3 -65 7 -52 8 -53 7 -53 -18z"/>
<path d="M4029 5353 c-15 -4 -15 -9 -1 -64 16 -58 29 -70 59 -51 9 6 8 21 -4
65 -16 55 -20 59 -54 50z"/>
<path d="M17260 5351 c0 -5 -3 -16 -6 -24 -6 -15 0 -17 89 -32 36 -6 37 -5 37
23 0 27 -3 30 -46 36 -62 8 -74 8 -74 -3z"/>
<path d="M6413 5338 c-46 -8 -53 -13 -53 -33 0 -37 3 -37 136 -10 17 4 20 10
16 30 -5 28 -13 29 -99 13z"/>
<path d="M17500 5296 c0 -21 6 -25 58 -34 59 -10 72 -5 72 29 0 12 -13 18 -46
23 -77 10 -84 9 -84 -18z"/>
<path d="M6200 5299 c-90 -17 -92 -18 -84 -42 3 -12 8 -23 9 -25 1 -1 34 3 74
9 69 12 71 13 71 40 0 31 -1 31 -70 18z"/>
<path d="M17747 5263 c-3 -15 -4 -29 -3 -30 2 -2 30 -6 64 -9 61 -7 62 -7 62
19 0 22 -5 26 -42 32 -24 3 -50 9 -59 11 -12 3 -18 -4 -22 -23z"/>
<path d="M19119 5253 c-5 -13 -12 -41 -15 -62 -6 -35 -4 -39 19 -43 23 -4 26
-1 37 41 6 25 13 53 16 62 3 12 -3 18 -21 22 -21 3 -28 0 -36 -20z"/>
<path d="M8721 5219 c-28 -40 -32 -51 -21 -64 20 -24 33 -18 67 32 33 48 34
56 4 72 -14 8 -23 0 -50 -40z"/>
<path d="M5918 5248 c-37 -8 -48 -15 -48 -29 0 -11 7 -22 15 -25 15 -6 133 11
142 20 3 2 2 14 -2 25 -7 23 -29 25 -107 9z"/>
<path d="M17990 5222 c0 -28 2 -30 55 -37 61 -7 75 -3 75 25 0 14 -10 21 -37
25 -21 4 -50 9 -65 11 -25 5 -28 3 -28 -24z"/>
<path d="M5688 5208 c-55 -10 -58 -12 -58 -39 0 -16 1 -29 3 -29 8 0 124 22
138 26 11 3 15 12 11 29 -5 27 -7 28 -94 13z"/>
<path d="M18237 5188 c-8 -30 -2 -35 66 -43 56 -6 57 -6 57 19 0 26 -7 30 -76
41 -37 6 -42 4 -47 -17z"/>
<path d="M5505 5172 c-119 -20 -126 -23 -119 -45 9 -31 6 -30 83 -17 55 9 71
16 71 28 0 26 -13 38 -35 34z"/>
<path d="M18480 5146 c0 -26 7 -30 77 -41 36 -6 42 -4 48 15 10 30 -1 37 -67
45 -57 6 -58 6 -58 -19z"/>
<path d="M5193 5118 c-45 -8 -53 -13 -53 -32 0 -13 2 -25 5 -28 6 -5 142 16
150 23 2 3 2 15 -2 27 -6 24 -17 25 -100 10z"/>
<path d="M18726 5114 c-13 -33 -14 -32 87 -49 36 -6 37 -5 37 23 0 26 -4 30
-37 36 -60 9 -80 7 -87 -10z"/>
<path d="M4093 5112 c-9 -5 -8 -21 5 -65 15 -55 17 -58 41 -52 14 4 27 7 28 8
1 1 -6 28 -14 60 -16 56 -30 68 -60 49z"/>
<path d="M4955 5076 c-55 -11 -60 -14 -57 -36 1 -13 4 -25 6 -27 2 -2 35 2 75
9 68 12 71 13 71 40 0 32 -2 32 -95 14z"/>
<path d="M8598 5043 c-8 -10 -24 -32 -36 -49 l-22 -32 24 -15 c23 -15 24 -14
60 36 33 47 34 53 19 65 -22 16 -27 15 -45 -5z"/>
<path d="M4735 5035 c-5 -2 -27 -6 -47 -10 -38 -6 -46 -18 -29 -44 8 -12 20
-13 81 -2 64 12 71 15 68 35 -2 15 -11 21 -33 23 -16 1 -34 0 -40 -2z"/>
<path d="M4463 4987 c-46 -8 -53 -13 -53 -33 0 -12 3 -25 8 -27 7 -5 140 18
147 25 2 2 2 14 -2 26 -6 24 -17 25 -100 9z"/>
<path d="M19350 4981 c0 -5 -3 -16 -6 -24 -4 -11 11 -20 55 -35 51 -17 60 -18
65 -5 12 31 5 40 -47 56 -62 20 -67 20 -67 8z"/>
<path d="M18880 4940 c-45 -39 -45 -39 -25 -59 20 -19 20 -19 65 20 37 32 43
42 34 56 -17 27 -26 25 -74 -17z"/>
<path d="M19585 4903 c-12 -32 -3 -43 50 -59 59 -19 59 -19 69 13 6 19 0 23
-53 40 -51 17 -61 18 -66 6z"/>
<path d="M8437 4812 c-33 -43 -34 -48 -20 -64 9 -10 19 -18 23 -18 9 0 70 86
70 99 0 6 -9 15 -19 21 -16 8 -24 3 -54 -38z"/>
<path d="M19819 4813 c-5 -14 -8 -27 -7 -28 8 -8 112 -34 118 -30 4 3 10 14
13 24 4 17 -5 23 -55 40 l-59 20 -10 -26z"/>
<path d="M20055 4740 c-4 -12 -3 -25 2 -30 9 -8 105 -41 109 -37 1 1 5 14 9
28 6 24 3 27 -38 37 -24 7 -51 14 -60 18 -10 3 -18 -2 -22 -16z"/>
<path d="M18484 4644 c-49 -35 -54 -47 -30 -72 10 -10 21 -6 59 23 51 39 53
42 33 67 -11 16 -16 14 -62 -18z"/>
<path d="M20290 4671 c0 -5 -3 -16 -6 -24 -4 -11 11 -20 55 -35 51 -17 60 -18
65 -5 12 31 5 42 -41 57 -53 18 -73 20 -73 7z"/>
<path d="M8318 4642 c-8 -9 -25 -32 -38 -51 -23 -33 -23 -34 -5 -47 26 -20 28
-19 63 31 37 53 38 56 13 72 -15 10 -22 9 -33 -5z"/>
<path d="M20526 4593 c-12 -31 -4 -40 50 -57 47 -15 58 -16 65 -4 17 26 8 37
-50 56 -52 18 -60 18 -65 5z"/>
<path d="M18277 4495 c-42 -32 -46 -37 -35 -55 7 -11 17 -20 21 -20 7 0 60 36
90 61 9 7 -9 49 -21 49 -4 0 -28 -16 -55 -35z"/>
<path d="M20761 4508 c-11 -28 -8 -31 53 -52 52 -17 62 -14 68 18 2 15 -8 22
-52 37 -30 10 -56 19 -58 19 -1 0 -7 -10 -11 -22z"/>
<path d="M8149 4404 c-31 -46 -31 -46 -12 -66 20 -19 20 -19 57 32 30 41 35
54 25 66 -20 24 -37 16 -70 -32z"/>
<path d="M20995 4429 c-9 -27 -5 -30 60 -50 l53 -16 7 24 c7 30 11 26 -49 47
-62 20 -63 20 -71 -5z"/>
<path d="M18075 4348 c-39 -29 -43 -41 -23 -65 8 -10 20 -6 54 17 52 37 59 47
44 65 -17 21 -29 18 -75 -17z"/>
<path d="M21230 4361 c0 -5 -2 -16 -5 -23 -4 -10 10 -19 48 -31 69 -22 74 -22
79 7 4 21 -1 26 -45 40 -56 18 -77 20 -77 7z"/>
<path d="M21466 4274 c-4 -14 -6 -27 -4 -29 9 -7 110 -36 113 -33 3 2 6 15 7
27 2 19 -4 26 -32 36 -78 27 -77 27 -84 -1z"/>
<path d="M8010 4206 c-35 -52 -37 -62 -11 -76 17 -8 25 -3 57 41 36 49 37 52
19 65 -27 20 -31 18 -65 -30z"/>
<path d="M17877 4205 c-42 -32 -46 -37 -35 -55 7 -11 17 -20 21 -20 11 0 97
62 97 69 -1 8 -26 41 -31 41 -2 0 -25 -16 -52 -35z"/>
<path d="M21703 4203 c-3 -10 -8 -21 -10 -25 -1 -3 24 -15 57 -27 l61 -20 8
22 c11 27 8 30 -53 51 -60 20 -55 20 -63 -1z"/>
<path d="M21936 4124 c-11 -28 -7 -33 50 -51 48 -15 57 -15 65 -3 17 27 9 38
-38 54 -58 20 -69 20 -77 0z"/>
<path d="M17690 4069 c-14 -12 -34 -27 -44 -35 -19 -13 -19 -14 -2 -33 18 -20
19 -20 62 9 52 37 59 47 44 65 -17 20 -30 18 -60 -6z"/>
<path d="M22176 4053 c-12 -31 -4 -40 50 -57 61 -19 59 -20 68 10 6 19 0 24
-53 42 -52 17 -60 18 -65 5z"/>
<path d="M7870 4006 c-35 -52 -37 -62 -11 -76 17 -8 24 -3 54 39 34 47 35 50
18 65 -10 9 -20 16 -24 16 -3 0 -20 -20 -37 -44z"/>
<path d="M22409 3975 c-1 -8 -2 -20 -3 -27 -1 -6 23 -19 53 -30 43 -14 56 -15
63 -6 18 30 7 45 -45 61 -65 21 -67 21 -68 2z"/>
<path d="M17477 3914 c-41 -30 -46 -37 -37 -54 6 -11 15 -20 21 -20 9 0 59 33
92 61 8 6 -12 49 -23 49 -3 0 -26 -16 -53 -36z"/>
<path d="M22647 3903 c-16 -16 -5 -44 21 -54 43 -17 92 -23 92 -11 0 6 2 17 5
24 4 10 -10 19 -48 31 -61 19 -61 19 -70 10z"/>
<path d="M7724 3798 c-34 -48 -35 -52 -18 -65 26 -19 30 -17 64 31 35 52 36
57 11 73 -18 11 -24 7 -57 -39z"/>
<path d="M22876 3814 c-10 -27 -7 -30 50 -48 47 -15 58 -16 65 -4 16 25 4 41
-41 54 -58 18 -67 17 -74 -2z"/>
<path d="M17275 3769 c-49 -36 -51 -41 -27 -62 18 -16 21 -15 65 19 39 31 45
39 36 55 -13 26 -27 24 -74 -12z"/>
<path d="M23116 3744 c-12 -32 -5 -41 50 -58 31 -10 58 -16 60 -14 2 2 5 15 6
27 2 19 -4 26 -32 36 -73 26 -77 26 -84 9z"/>
<path d="M23350 3671 c0 -5 -3 -16 -6 -24 -4 -11 11 -20 55 -35 51 -17 60 -18
65 -5 12 31 5 40 -47 56 -62 20 -67 20 -67 8z"/>
<path d="M17089 3634 c-19 -14 -40 -29 -48 -33 -10 -6 -11 -13 -2 -30 7 -11
16 -21 21 -21 12 0 100 62 100 70 0 4 -8 14 -18 23 -17 16 -21 15 -53 -9z"/>
<path d="M7581 3594 c-25 -36 -29 -49 -20 -60 19 -24 37 -16 69 31 26 37 29
49 20 60 -20 24 -34 18 -69 -31z"/>
<path d="M23586 3584 c-11 -28 -7 -33 49 -50 59 -19 59 -19 69 12 6 19 0 24
-43 38 -62 20 -67 20 -75 0z"/>
<path d="M16876 3480 c-21 -16 -41 -31 -43 -34 -6 -6 16 -46 25 -46 4 0 28 16
55 36 41 30 46 37 37 54 -14 27 -28 25 -74 -10z"/>
<path d="M7440 3390 c-31 -49 -32 -51 -14 -65 11 -8 21 -14 24 -14 3 0 20 22
39 50 33 48 33 50 15 64 -10 8 -22 15 -25 15 -4 0 -21 -23 -39 -50z"/>
<path d="M16677 3334 c-48 -35 -54 -49 -26 -67 11 -7 28 0 62 24 26 18 47 36
47 39 0 4 -8 14 -18 23 -16 14 -21 13 -65 -19z"/>
<path d="M7301 3193 c-24 -34 -31 -51 -24 -62 18 -28 32 -22 67 26 32 44 33
49 19 65 -9 10 -19 18 -23 18 -3 0 -21 -21 -39 -47z"/>
<path d="M16475 3189 c-48 -36 -49 -39 -31 -64 13 -18 16 -17 64 19 46 33 50
39 39 57 -16 25 -25 24 -72 -12z"/>
<path d="M16276 3044 c-47 -36 -52 -50 -25 -67 11 -7 28 0 62 23 38 27 44 36
36 51 -16 31 -25 30 -73 -7z"/>
<path d="M7156 2987 c-33 -47 -34 -53 -19 -64 27 -20 36 -16 70 36 l32 49 -23
16 c-23 14 -24 13 -60 -37z"/>
</g>
</svg>
