<?xml version="1.0" encoding="utf-8"?>
<!-- Generator: Adobe Illustrator 20.1.0, SVG Export Plug-In . SVG Version: 6.00 Build 0)  -->
<svg version="1.1" id="Layer_1" xmlns="http://www.w3.org/2000/svg" xmlns:xlink="http://www.w3.org/1999/xlink" x="0px" y="0px"
	 viewBox="0 0 612 792" style="enable-background:new 0 0 612 792;" xml:space="preserve">
<style type="text/css">
	.st0{fill:none;stroke:#000000;stroke-width:2;stroke-miterlimit:10;}
	.st1{fill:none;stroke:#939598;stroke-width:2;stroke-miterlimit:10;stroke-dasharray:12;}
</style>
<path class="st0" d="M24,252h262.5c7,0,12.7,1.9,12.7,4.3v87.4c0,2.4-5.7,4.3-12.7,4.3H24c-7,0-12.7-1.9-12.7-4.3v-87.4
	C11.2,253.9,17,252,24,252z"/>
<path class="st0" d="M24,156h262.5c7,0,12.7,1.9,12.7,4.3v87.4c0,2.4-5.7,4.3-12.7,4.3H24c-7,0-12.7-1.9-12.7-4.3v-87.4
	C11.2,157.9,17,156,24,156z"/>
<path class="st0" d="M24,636h262.5c7,0,12.7,1.9,12.7,4.3v87.4c0,2.4-5.7,4.3-12.7,4.3H24c-7,0-12.7-1.9-12.7-4.3v-87.4
	C11.3,638,17,636,24,636z"/>
<path class="st0" d="M24,348h262.5c7,0,12.7,1.9,12.7,4.3v87.4c0,2.4-5.7,4.3-12.7,4.3H24c-7,0-12.7-1.9-12.7-4.3v-87.4
	C11.2,349.9,17,348,24,348z"/>
<path class="st0" d="M24,444h262.5c7,0,12.7,1.9,12.7,4.3v87.4c0,2.4-5.7,4.3-12.7,4.3H24c-7,0-12.7-1.9-12.7-4.3v-87.4
	C11.2,446,17,444,24,444z"/>
<path class="st0" d="M24,540h262.5c7,0,12.7,1.9,12.7,4.3v87.4c0,2.4-5.7,4.3-12.7,4.3H24c-7,0-12.7-1.9-12.7-4.3v-87.4
	C11.2,542,17,540,24,540z"/>
<path class="st0" d="M24,60h262.5c7,0,12.7,1.9,12.7,4.3v87.4c0,2.4-5.7,4.3-12.7,4.3H24c-7,0-12.7-1.9-12.7-4.3V64.3
	C11.2,61.9,17,60,24,60z"/>
<path class="st0" d="M325.5,252H588c7,0,12.7,1.9,12.7,4.3v87.4c0,2.4-5.7,4.3-12.7,4.3H325.5c-7,0-12.7-1.9-12.7-4.3v-87.4
	C312.8,253.9,318.5,252,325.5,252z"/>
<path class="st0" d="M325.5,156H588c7,0,12.7,1.9,12.7,4.3v87.4c0,2.4-5.7,4.3-12.7,4.3H325.5c-7,0-12.7-1.9-12.7-4.3v-87.4
	C312.8,157.9,318.5,156,325.5,156z"/>
<path class="st0" d="M325.5,636H588c7,0,12.7,1.9,12.7,4.3v87.4c0,2.4-5.7,4.3-12.7,4.3H325.5c-7,0-12.7-1.9-12.7-4.3v-87.4
	C312.8,638,318.5,636,325.5,636z"/>
<path class="st0" d="M325.5,348H588c7,0,12.7,1.9,12.7,4.3v87.4c0,2.4-5.7,4.3-12.7,4.3H325.5c-7,0-12.7-1.9-12.7-4.3v-87.4
	C312.8,349.9,318.5,348,325.5,348z"/>
<path class="st0" d="M325.5,444H588c7,0,12.7,1.9,12.7,4.3v87.4c0,2.4-5.7,4.3-12.7,4.3H325.5c-7,0-12.7-1.9-12.7-4.3v-87.4
	C312.8,446,318.5,444,325.5,444z"/>
<path class="st0" d="M325.5,540H588c7,0,12.7,1.9,12.7,4.3v87.4c0,2.4-5.7,4.3-12.7,4.3H325.5c-7,0-12.7-1.9-12.7-4.3v-87.4
	C312.8,542,318.5,540,325.5,540z"/>
<path class="st0" d="M325.5,60H588c7,0,12.7,1.9,12.7,4.3v87.4c0,2.4-5.7,4.3-12.7,4.3H325.5c-7,0-12.7-1.9-12.7-4.3V64.3
	C312.8,61.9,318.5,60,325.5,60z"/>
<line class="st1" x1="306" y1="0" x2="306" y2="792"/>
<rect class="st0" width="612" height="792"/>
</svg>
