<?xml version="1.0" encoding="utf-8"?>
<!-- Generator: Adobe Illustrator 20.1.0, SVG Export Plug-In . SVG Version: 6.00 Build 0)  -->
<svg version="1.1" id="Template" xmlns="http://www.w3.org/2000/svg" xmlns:xlink="http://www.w3.org/1999/xlink" x="0px" y="0px"
	 viewBox="0 0 612 792" style="enable-background:new 0 0 612 792;" xml:space="preserve">
<style type="text/css">
	.st0{fill-rule:evenodd;clip-rule:evenodd;fill:none;stroke:#000000;stroke-width:2;stroke-miterlimit:2.6131;}
</style>
<g>
	<path class="st0" d="M24.5,36h265.9c6.1,0,11,2.9,11,6.5v131c0,3.6-5,6.5-11,6.5H24.5c-6.1,0-11-2.9-11-6.5v-131
		C13.5,38.9,18.5,36,24.5,36z"/>
	<path class="st0" d="M24.5,180h265.9c6.1,0,11,2.9,11,6.5v131c0,3.6-5,6.5-11,6.5H24.5c-6.1,0-11-2.9-11-6.5v-131
		C13.5,182.9,18.5,180,24.5,180z"/>
	<path class="st0" d="M24.5,324h265.9c6.1,0,11,2.9,11,6.5v131c0,3.6-5,6.5-11,6.5H24.5c-6.1,0-11-2.9-11-6.5v-131
		C13.5,326.9,18.5,324,24.5,324z"/>
	<path class="st0" d="M24.5,468h265.9c6.1,0,11,2.9,11,6.5v131c0,3.6-5,6.5-11,6.5H24.5c-6.1,0-11-2.9-11-6.5v-131
		C13.5,470.9,18.5,468,24.5,468z"/>
	<path class="st0" d="M24.5,612h265.9c6.1,0,11,2.9,11,6.5v131c0,3.6-5,6.5-11,6.5H24.5c-6.1,0-11-2.9-11-6.5v-131
		C13.5,614.9,18.5,612,24.5,612z"/>
	<path class="st0" d="M321.5,36h265.9c6.1,0,11,2.9,11,6.5v131c0,3.6-5,6.5-11,6.5H321.5c-6.1,0-11-2.9-11-6.5v-131
		C310.5,38.9,315.5,36,321.5,36z"/>
	<path class="st0" d="M321.5,180h265.9c6.1,0,11,2.9,11,6.5v131c0,3.6-5,6.5-11,6.5H321.5c-6.1,0-11-2.9-11-6.5v-131
		C310.5,182.9,315.5,180,321.5,180z"/>
	<path class="st0" d="M321.5,324h265.9c6.1,0,11,2.9,11,6.5v131c0,3.6-5,6.5-11,6.5H321.5c-6.1,0-11-2.9-11-6.5v-131
		C310.5,326.9,315.5,324,321.5,324z"/>
	<path class="st0" d="M321.5,468h265.9c6.1,0,11,2.9,11,6.5v131c0,3.6-5,6.5-11,6.5H321.5c-6.1,0-11-2.9-11-6.5v-131
		C310.5,470.9,315.5,468,321.5,468z"/>
	<path class="st0" d="M321.5,612h265.9c6.1,0,11,2.9,11,6.5v131c0,3.6-5,6.5-11,6.5H321.5c-6.1,0-11-2.9-11-6.5v-131
		C310.5,614.9,315.5,612,321.5,612z"/>
</g>
<rect y="0" class="st0" width="612" height="792"/>
</svg>
