<?xml version="1.0" encoding="utf-8"?>
<!-- Generator: Adobe Illustrator 20.1.0, SVG Export Plug-In . SVG Version: 6.00 Build 0)  -->
<svg version="1.1" id="Layer_1" xmlns="http://www.w3.org/2000/svg" xmlns:xlink="http://www.w3.org/1999/xlink" x="0px" y="0px"
	 viewBox="0 0 612 792" style="enable-background:new 0 0 612 792;" xml:space="preserve">
<style type="text/css">
	.st0{fill:none;stroke:#000000;stroke-width:2;stroke-miterlimit:10;}
</style>
<path class="st0" d="M306,38.6c48.3,0,87.8,39.4,87.8,87.8c0,48.3-39.4,87.7-87.8,87.7s-87.8-39.4-87.8-87.7
	C218.3,78,257.7,38.6,306,38.6z"/>
<path class="st0" d="M499.6,38.6c48.3,0,87.8,39.4,87.8,87.8c0,48.3-39.4,87.7-87.8,87.7c-48.3,0-87.7-39.4-87.7-87.7
	C411.8,78,451.2,38.6,499.6,38.6z"/>
<path class="st0" d="M112.4,577.9c48.3,0,87.7,39.4,87.7,87.8c0,48.3-39.4,87.8-87.7,87.8c-48.3,0-87.8-39.4-87.8-87.8
	C24.7,617.4,64.1,577.9,112.4,577.9z"/>
<path class="st0" d="M306,577.9c48.3,0,87.8,39.4,87.8,87.8c0,48.3-39.4,87.8-87.8,87.8s-87.8-39.4-87.8-87.8
	C218.3,617.4,257.7,577.9,306,577.9z"/>
<path class="st0" d="M499.6,577.9c48.3,0,87.8,39.4,87.8,87.8c0,48.3-39.4,87.8-87.8,87.8c-48.3,0-87.7-39.4-87.7-87.8
	C411.8,617.4,451.2,577.9,499.6,577.9z"/>
<path class="st0" d="M112.4,218.4c48.3,0,87.7,39.4,87.7,87.8c0,48.3-39.4,87.8-87.7,87.8c-48.3,0-87.8-39.4-87.8-87.8
	C24.7,257.8,64.1,218.4,112.4,218.4z"/>
<path class="st0" d="M306,218.4c48.3,0,87.8,39.4,87.8,87.8c0,48.3-39.4,87.8-87.8,87.8s-87.8-39.4-87.8-87.8
	C218.3,257.8,257.7,218.4,306,218.4z"/>
<path class="st0" d="M499.6,218.4c48.3,0,87.8,39.4,87.8,87.8c0,48.3-39.4,87.8-87.8,87.8c-48.3,0-87.7-39.4-87.7-87.8
	C411.8,257.8,451.2,218.4,499.6,218.4z"/>
<path class="st0" d="M112.4,398.1c48.3,0,87.7,39.4,87.7,87.8c0,48.3-39.4,87.8-87.7,87.8c-48.3,0-87.8-39.4-87.8-87.8
	C24.7,437.6,64.1,398.1,112.4,398.1z"/>
<path class="st0" d="M306,398.1c48.3,0,87.8,39.4,87.8,87.8c0,48.3-39.4,87.8-87.8,87.8s-87.8-39.4-87.8-87.8
	C218.3,437.6,257.7,398.1,306,398.1z"/>
<path class="st0" d="M499.6,398.1c48.3,0,87.8,39.4,87.8,87.8c0,48.3-39.4,87.8-87.8,87.8c-48.3,0-87.7-39.4-87.7-87.8
	C411.8,437.6,451.2,398.1,499.6,398.1z"/>
<path class="st0" d="M112.4,38.6c48.3,0,87.7,39.4,87.7,87.8c0,48.3-39.4,87.7-87.7,87.7c-48.3,0-87.8-39.4-87.8-87.7
	C24.7,78,64.1,38.6,112.4,38.6z"/>
<rect class="st0" width="612" height="792"/>
</svg>
