<?xml version="1.0" encoding="utf-8"?>
<!-- Generator: Adobe Illustrator 20.1.0, SVG Export Plug-In . SVG Version: 6.00 Build 0)  -->
<svg version="1.1" id="Layer_1" xmlns="http://www.w3.org/2000/svg" xmlns:xlink="http://www.w3.org/1999/xlink" x="0px" y="0px"
	 viewBox="0 0 612 792" style="enable-background:new 0 0 612 792;" xml:space="preserve">
<style type="text/css">
	.st0{fill-rule:evenodd;clip-rule:evenodd;fill:none;stroke:#000000;stroke-width:2;stroke-miterlimit:2.6131;}
</style>
<path class="st0" d="M19.4,180h177.1c3.3,0,5.9,1.5,5.9,3.2v65.5c0,1.8-2.7,3.2-5.9,3.2H19.4c-3.3,0-5.9-1.5-5.9-3.2v-65.5
	C13.5,181.5,16.2,180,19.4,180z"/>
<path class="st0" d="M19.4,252h177.1c3.3,0,5.9,1.5,5.9,3.2v65.5c0,1.8-2.7,3.2-5.9,3.2H19.4c-3.3,0-5.9-1.5-5.9-3.2v-65.5
	C13.5,253.5,16.2,252,19.4,252z"/>
<path class="st0" d="M19.4,108h177.1c3.3,0,5.9,1.5,5.9,3.2v65.5c0,1.8-2.7,3.2-5.9,3.2H19.4c-3.3,0-5.9-1.5-5.9-3.2v-65.5
	C13.5,109.5,16.2,108,19.4,108z"/>
<path class="st0" d="M19.4,36h177.1c3.3,0,5.9,1.5,5.9,3.2v65.5c0,1.8-2.7,3.2-5.9,3.2H19.4c-3.3,0-5.9-1.5-5.9-3.2V39.2
	C13.5,37.5,16.1,36,19.4,36z"/>
<path class="st0" d="M19.4,324h177.1c3.3,0,5.9,1.5,5.9,3.2v65.5c0,1.8-2.7,3.2-5.9,3.2H19.4c-3.3,0-5.9-1.5-5.9-3.2v-65.5
	C13.5,325.5,16.2,324,19.4,324z"/>
<path class="st0" d="M19.4,396h177.1c3.3,0,5.9,1.5,5.9,3.2v65.5c0,1.8-2.7,3.2-5.9,3.2H19.4c-3.3,0-5.9-1.5-5.9-3.2v-65.5
	C13.5,397.5,16.2,396,19.4,396z"/>
<path class="st0" d="M19.4,468h177.1c3.3,0,5.9,1.5,5.9,3.2v65.5c0,1.8-2.7,3.2-5.9,3.2H19.4c-3.3,0-5.9-1.5-5.9-3.2v-65.5
	C13.5,469.5,16.2,468,19.4,468z"/>
<path class="st0" d="M19.4,540h177.1c3.3,0,5.9,1.5,5.9,3.2v65.5c0,1.8-2.7,3.2-5.9,3.2H19.4c-3.3,0-5.9-1.5-5.9-3.2v-65.5
	C13.5,541.5,16.2,540,19.4,540z"/>
<path class="st0" d="M19.4,612h177.1c3.3,0,5.9,1.5,5.9,3.2v65.5c0,1.8-2.7,3.2-5.9,3.2H19.4c-3.3,0-5.9-1.5-5.9-3.2v-65.5
	C13.5,613.5,16.2,612,19.4,612z"/>
<path class="st0" d="M19.4,684h177.1c3.3,0,5.9,1.5,5.9,3.2v65.5c0,1.8-2.7,3.2-5.9,3.2H19.4c-3.3,0-5.9-1.5-5.9-3.2v-65.5
	C13.5,685.5,16.1,684,19.4,684z"/>
<g>
	<path class="st0" d="M19.4,180h177.1c3.3,0,5.9,1.5,5.9,3.2v65.5c0,1.8-2.7,3.2-5.9,3.2H19.4c-3.3,0-5.9-1.5-5.9-3.2v-65.5
		C13.5,181.5,16.2,180,19.4,180z"/>
	<path class="st0" d="M19.4,252h177.1c3.3,0,5.9,1.5,5.9,3.2v65.5c0,1.8-2.7,3.2-5.9,3.2H19.4c-3.3,0-5.9-1.5-5.9-3.2v-65.5
		C13.5,253.5,16.2,252,19.4,252z"/>
	<path class="st0" d="M19.4,108h177.1c3.3,0,5.9,1.5,5.9,3.2v65.5c0,1.8-2.7,3.2-5.9,3.2H19.4c-3.3,0-5.9-1.5-5.9-3.2v-65.5
		C13.5,109.5,16.2,108,19.4,108z"/>
	<path class="st0" d="M19.4,36h177.1c3.3,0,5.9,1.5,5.9,3.2v65.5c0,1.8-2.7,3.2-5.9,3.2H19.4c-3.3,0-5.9-1.5-5.9-3.2V39.2
		C13.5,37.5,16.1,36,19.4,36z"/>
	<path class="st0" d="M19.4,324h177.1c3.3,0,5.9,1.5,5.9,3.2v65.5c0,1.8-2.7,3.2-5.9,3.2H19.4c-3.3,0-5.9-1.5-5.9-3.2v-65.5
		C13.5,325.5,16.2,324,19.4,324z"/>
	<path class="st0" d="M19.4,396h177.1c3.3,0,5.9,1.5,5.9,3.2v65.5c0,1.8-2.7,3.2-5.9,3.2H19.4c-3.3,0-5.9-1.5-5.9-3.2v-65.5
		C13.5,397.5,16.2,396,19.4,396z"/>
	<path class="st0" d="M19.4,468h177.1c3.3,0,5.9,1.5,5.9,3.2v65.5c0,1.8-2.7,3.2-5.9,3.2H19.4c-3.3,0-5.9-1.5-5.9-3.2v-65.5
		C13.5,469.5,16.2,468,19.4,468z"/>
	<path class="st0" d="M19.4,540h177.1c3.3,0,5.9,1.5,5.9,3.2v65.5c0,1.8-2.7,3.2-5.9,3.2H19.4c-3.3,0-5.9-1.5-5.9-3.2v-65.5
		C13.5,541.5,16.2,540,19.4,540z"/>
	<path class="st0" d="M19.4,612h177.1c3.3,0,5.9,1.5,5.9,3.2v65.5c0,1.8-2.7,3.2-5.9,3.2H19.4c-3.3,0-5.9-1.5-5.9-3.2v-65.5
		C13.5,613.5,16.2,612,19.4,612z"/>
	<path class="st0" d="M19.4,684h177.1c3.3,0,5.9,1.5,5.9,3.2v65.5c0,1.8-2.7,3.2-5.9,3.2H19.4c-3.3,0-5.9-1.5-5.9-3.2v-65.5
		C13.5,685.5,16.1,684,19.4,684z"/>
</g>
<g>
	<path class="st0" d="M217.4,180h177.1c3.3,0,5.9,1.5,5.9,3.2v65.5c0,1.8-2.7,3.2-5.9,3.2H217.4c-3.3,0-5.9-1.5-5.9-3.2v-65.5
		C211.5,181.5,214.2,180,217.4,180z"/>
	<path class="st0" d="M217.4,252h177.1c3.3,0,5.9,1.5,5.9,3.2v65.5c0,1.8-2.7,3.2-5.9,3.2H217.4c-3.3,0-5.9-1.5-5.9-3.2v-65.5
		C211.5,253.5,214.2,252,217.4,252z"/>
	<path class="st0" d="M217.4,108h177.1c3.3,0,5.9,1.5,5.9,3.2v65.5c0,1.8-2.7,3.2-5.9,3.2H217.4c-3.3,0-5.9-1.5-5.9-3.2v-65.5
		C211.5,109.5,214.2,108,217.4,108z"/>
	<path class="st0" d="M217.4,36h177.1c3.3,0,5.9,1.5,5.9,3.2v65.5c0,1.8-2.7,3.2-5.9,3.2H217.4c-3.3,0-5.9-1.5-5.9-3.2V39.2
		C211.4,37.5,214.1,36,217.4,36z"/>
	<path class="st0" d="M217.4,324h177.1c3.3,0,5.9,1.5,5.9,3.2v65.5c0,1.8-2.7,3.2-5.9,3.2H217.4c-3.3,0-5.9-1.5-5.9-3.2v-65.5
		C211.5,325.5,214.2,324,217.4,324z"/>
	<path class="st0" d="M217.4,396h177.1c3.3,0,5.9,1.5,5.9,3.2v65.5c0,1.8-2.7,3.2-5.9,3.2H217.4c-3.3,0-5.9-1.5-5.9-3.2v-65.5
		C211.5,397.5,214.2,396,217.4,396z"/>
	<path class="st0" d="M217.4,468h177.1c3.3,0,5.9,1.5,5.9,3.2v65.5c0,1.8-2.7,3.2-5.9,3.2H217.4c-3.3,0-5.9-1.5-5.9-3.2v-65.5
		C211.5,469.5,214.2,468,217.4,468z"/>
	<path class="st0" d="M217.4,540h177.1c3.3,0,5.9,1.5,5.9,3.2v65.5c0,1.8-2.7,3.2-5.9,3.2H217.4c-3.3,0-5.9-1.5-5.9-3.2v-65.5
		C211.5,541.5,214.2,540,217.4,540z"/>
	<path class="st0" d="M217.4,612h177.1c3.3,0,5.9,1.5,5.9,3.2v65.5c0,1.8-2.7,3.2-5.9,3.2H217.4c-3.3,0-5.9-1.5-5.9-3.2v-65.5
		C211.5,613.5,214.2,612,217.4,612z"/>
	<path class="st0" d="M217.4,684h177.1c3.3,0,5.9,1.5,5.9,3.2v65.5c0,1.8-2.7,3.2-5.9,3.2H217.4c-3.3,0-5.9-1.5-5.9-3.2v-65.5
		C211.4,685.5,214.1,684,217.4,684z"/>
</g>
<g>
	<path class="st0" d="M415.5,180h177.1c3.3,0,5.9,1.5,5.9,3.2v65.5c0,1.8-2.7,3.2-5.9,3.2H415.5c-3.3,0-5.9-1.5-5.9-3.2v-65.5
		C409.6,181.5,412.2,180,415.5,180z"/>
	<path class="st0" d="M415.5,252h177.1c3.3,0,5.9,1.5,5.9,3.2v65.5c0,1.8-2.7,3.2-5.9,3.2H415.5c-3.3,0-5.9-1.5-5.9-3.2v-65.5
		C409.6,253.5,412.2,252,415.5,252z"/>
	<path class="st0" d="M415.5,108h177.1c3.3,0,5.9,1.5,5.9,3.2v65.5c0,1.8-2.7,3.2-5.9,3.2H415.5c-3.3,0-5.9-1.5-5.9-3.2v-65.5
		C409.6,109.5,412.2,108,415.5,108z"/>
	<path class="st0" d="M415.5,36h177.1c3.3,0,5.9,1.5,5.9,3.2v65.5c0,1.8-2.7,3.2-5.9,3.2H415.5c-3.3,0-5.9-1.5-5.9-3.2V39.2
		C409.5,37.5,412.2,36,415.5,36z"/>
	<path class="st0" d="M415.5,324h177.1c3.3,0,5.9,1.5,5.9,3.2v65.5c0,1.8-2.7,3.2-5.9,3.2H415.5c-3.3,0-5.9-1.5-5.9-3.2v-65.5
		C409.6,325.5,412.2,324,415.5,324z"/>
	<path class="st0" d="M415.5,396h177.1c3.3,0,5.9,1.5,5.9,3.2v65.5c0,1.8-2.7,3.2-5.9,3.2H415.5c-3.3,0-5.9-1.5-5.9-3.2v-65.5
		C409.6,397.5,412.2,396,415.5,396z"/>
	<path class="st0" d="M415.5,468h177.1c3.3,0,5.9,1.5,5.9,3.2v65.5c0,1.8-2.7,3.2-5.9,3.2H415.5c-3.3,0-5.9-1.5-5.9-3.2v-65.5
		C409.6,469.5,412.2,468,415.5,468z"/>
	<path class="st0" d="M415.5,540h177.1c3.3,0,5.9,1.5,5.9,3.2v65.5c0,1.8-2.7,3.2-5.9,3.2H415.5c-3.3,0-5.9-1.5-5.9-3.2v-65.5
		C409.6,541.5,412.2,540,415.5,540z"/>
	<path class="st0" d="M415.5,612h177.1c3.3,0,5.9,1.5,5.9,3.2v65.5c0,1.8-2.7,3.2-5.9,3.2H415.5c-3.3,0-5.9-1.5-5.9-3.2v-65.5
		C409.6,613.5,412.2,612,415.5,612z"/>
	<path class="st0" d="M415.5,684h177.1c3.3,0,5.9,1.5,5.9,3.2v65.5c0,1.8-2.7,3.2-5.9,3.2H415.5c-3.3,0-5.9-1.5-5.9-3.2v-65.5
		C409.5,685.5,412.2,684,415.5,684z"/>
</g>
<rect y="0" class="st0" width="612" height="792"/>
</svg>
