<?xml version="1.0" encoding="utf-8"?>
<!-- Generator: Adobe Illustrator 20.1.0, SVG Export Plug-In . SVG Version: 6.00 Build 0)  -->
<svg version="1.1" id="Layer_1" xmlns="http://www.w3.org/2000/svg" xmlns:xlink="http://www.w3.org/1999/xlink" x="0px" y="0px"
	 viewBox="0 0 612 792" style="enable-background:new 0 0 612 792;" xml:space="preserve">
<style type="text/css">
	.st0{fill:none;stroke:#000000;stroke-width:2;stroke-miterlimit:10;}
	.st1{fill:none;stroke:#939598;stroke-width:2;stroke-miterlimit:10;stroke-dasharray:9,4.464;}
</style>
<g>
	<path class="st0" d="M22.1,71.7h119.2c1.9,0,3.4,0.5,3.4,1.1v33.8c0,0.6-1.5,1.1-3.4,1.1H22.1c-1.9,0-3.4-0.5-3.4-1.1V72.8
		C18.7,72.2,20.2,71.7,22.1,71.7z"/>
	<path class="st0" d="M170.8,71.7h119.2c1.9,0,3.4,0.5,3.4,1.1v33.8c0,0.6-1.5,1.1-3.4,1.1H170.8c-1.9,0-3.4-0.5-3.4-1.1V72.8
		C167.3,72.2,168.9,71.7,170.8,71.7z"/>
	<path class="st0" d="M319.7,71.7h119.2c1.9,0,3.4,0.5,3.4,1.1v33.8c0,0.6-1.5,1.1-3.4,1.1H319.7c-1.9,0-3.4-0.5-3.4-1.1V72.8
		C316.3,72.2,317.8,71.7,319.7,71.7z"/>
	<path class="st0" d="M468.4,71.7h119.2c1.9,0,3.4,0.5,3.4,1.1v33.8c0,0.6-1.5,1.1-3.4,1.1H468.4c-1.9,0-3.4-0.5-3.4-1.1V72.8
		C465,72.2,466.6,71.7,468.4,71.7z"/>
</g>
<g>
	<path class="st0" d="M22.1,686.8h119.2c1.9,0,3.4,0.5,3.4,1.1v33.8c0,0.6-1.5,1.1-3.4,1.1H22.1c-1.9,0-3.4-0.5-3.4-1.1v-33.8
		C18.7,687.3,20.2,686.8,22.1,686.8z"/>
	<path class="st0" d="M170.8,686.8h119.2c1.9,0,3.4,0.5,3.4,1.1v33.8c0,0.6-1.5,1.1-3.4,1.1H170.8c-1.9,0-3.4-0.5-3.4-1.1v-33.8
		C167.3,687.3,168.9,686.8,170.8,686.8z"/>
	<path class="st0" d="M319.7,686.8h119.2c1.9,0,3.4,0.5,3.4,1.1v33.8c0,0.6-1.5,1.1-3.4,1.1H319.7c-1.9,0-3.4-0.5-3.4-1.1v-33.8
		C316.3,687.3,317.8,686.8,319.7,686.8z"/>
	<path class="st0" d="M468.4,686.8h119.2c1.9,0,3.4,0.5,3.4,1.1v33.8c0,0.6-1.5,1.1-3.4,1.1H468.4c-1.9,0-3.4-0.5-3.4-1.1v-33.8
		C465,687.3,466.6,686.8,468.4,686.8z"/>
</g>
<g>
	<path class="st0" d="M22.1,650.6h119.2c1.9,0,3.4,0.5,3.4,1.1v33.8c0,0.6-1.5,1.1-3.4,1.1H22.1c-1.9,0-3.4-0.5-3.4-1.1v-33.8
		C18.7,651.1,20.2,650.6,22.1,650.6z"/>
	<path class="st0" d="M170.8,650.6h119.2c1.9,0,3.4,0.5,3.4,1.1v33.8c0,0.6-1.5,1.1-3.4,1.1H170.8c-1.9,0-3.4-0.5-3.4-1.1v-33.8
		C167.3,651.1,168.9,650.6,170.8,650.6z"/>
	<path class="st0" d="M319.7,650.6h119.2c1.9,0,3.4,0.5,3.4,1.1v33.8c0,0.6-1.5,1.1-3.4,1.1H319.7c-1.9,0-3.4-0.5-3.4-1.1v-33.8
		C316.3,651.1,317.8,650.6,319.7,650.6z"/>
	<path class="st0" d="M468.4,650.6h119.2c1.9,0,3.4,0.5,3.4,1.1v33.8c0,0.6-1.5,1.1-3.4,1.1H468.4c-1.9,0-3.4-0.5-3.4-1.1v-33.8
		C465,651.1,466.6,650.6,468.4,650.6z"/>
</g>
<g>
	<path class="st0" d="M22.1,614.4h119.2c1.9,0,3.4,0.5,3.4,1.1v33.8c0,0.6-1.5,1.1-3.4,1.1H22.1c-1.9,0-3.4-0.5-3.4-1.1v-33.8
		C18.7,614.9,20.2,614.4,22.1,614.4z"/>
	<path class="st0" d="M170.8,614.4h119.2c1.9,0,3.4,0.5,3.4,1.1v33.8c0,0.6-1.5,1.1-3.4,1.1H170.8c-1.9,0-3.4-0.5-3.4-1.1v-33.8
		C167.3,614.9,168.9,614.4,170.8,614.4z"/>
	<path class="st0" d="M319.7,614.4h119.2c1.9,0,3.4,0.5,3.4,1.1v33.8c0,0.6-1.5,1.1-3.4,1.1H319.7c-1.9,0-3.4-0.5-3.4-1.1v-33.8
		C316.3,614.9,317.8,614.4,319.7,614.4z"/>
	<path class="st0" d="M468.4,614.4h119.2c1.9,0,3.4,0.5,3.4,1.1v33.8c0,0.6-1.5,1.1-3.4,1.1H468.4c-1.9,0-3.4-0.5-3.4-1.1v-33.8
		C465,614.9,466.6,614.4,468.4,614.4z"/>
</g>
<g>
	<path class="st0" d="M22.1,578.3h119.2c1.9,0,3.4,0.5,3.4,1.1v33.8c0,0.6-1.5,1.1-3.4,1.1H22.1c-1.9,0-3.4-0.5-3.4-1.1v-33.8
		C18.7,578.8,20.2,578.3,22.1,578.3z"/>
	<path class="st0" d="M170.8,578.3h119.2c1.9,0,3.4,0.5,3.4,1.1v33.8c0,0.6-1.5,1.1-3.4,1.1H170.8c-1.9,0-3.4-0.5-3.4-1.1v-33.8
		C167.3,578.8,168.9,578.3,170.8,578.3z"/>
	<path class="st0" d="M319.7,578.3h119.2c1.9,0,3.4,0.5,3.4,1.1v33.8c0,0.6-1.5,1.1-3.4,1.1H319.7c-1.9,0-3.4-0.5-3.4-1.1v-33.8
		C316.3,578.8,317.8,578.3,319.7,578.3z"/>
	<path class="st0" d="M468.4,578.3h119.2c1.9,0,3.4,0.5,3.4,1.1v33.8c0,0.6-1.5,1.1-3.4,1.1H468.4c-1.9,0-3.4-0.5-3.4-1.1v-33.8
		C465,578.8,466.6,578.3,468.4,578.3z"/>
</g>
<g>
	<path class="st0" d="M22.1,542.1h119.2c1.9,0,3.4,0.5,3.4,1.1V577c0,0.6-1.5,1.1-3.4,1.1H22.1c-1.9,0-3.4-0.5-3.4-1.1v-33.8
		C18.7,542.6,20.2,542.1,22.1,542.1z"/>
	<path class="st0" d="M170.8,542.1h119.2c1.9,0,3.4,0.5,3.4,1.1V577c0,0.6-1.5,1.1-3.4,1.1H170.8c-1.9,0-3.4-0.5-3.4-1.1v-33.8
		C167.3,542.6,168.9,542.1,170.8,542.1z"/>
	<path class="st0" d="M319.7,542.1h119.2c1.9,0,3.4,0.5,3.4,1.1V577c0,0.6-1.5,1.1-3.4,1.1H319.7c-1.9,0-3.4-0.5-3.4-1.1v-33.8
		C316.3,542.6,317.8,542.1,319.7,542.1z"/>
	<path class="st0" d="M468.4,542.1h119.2c1.9,0,3.4,0.5,3.4,1.1V577c0,0.6-1.5,1.1-3.4,1.1H468.4c-1.9,0-3.4-0.5-3.4-1.1v-33.8
		C465,542.6,466.6,542.1,468.4,542.1z"/>
</g>
<g>
	<path class="st0" d="M22.1,505.9h119.2c1.9,0,3.4,0.5,3.4,1.1v33.8c0,0.6-1.5,1.1-3.4,1.1H22.1c-1.9,0-3.4-0.5-3.4-1.1V507
		C18.7,506.4,20.2,505.9,22.1,505.9z"/>
	<path class="st0" d="M170.8,505.9h119.2c1.9,0,3.4,0.5,3.4,1.1v33.8c0,0.6-1.5,1.1-3.4,1.1H170.8c-1.9,0-3.4-0.5-3.4-1.1V507
		C167.3,506.4,168.9,505.9,170.8,505.9z"/>
	<path class="st0" d="M319.7,505.9h119.2c1.9,0,3.4,0.5,3.4,1.1v33.8c0,0.6-1.5,1.1-3.4,1.1H319.7c-1.9,0-3.4-0.5-3.4-1.1V507
		C316.3,506.4,317.8,505.9,319.7,505.9z"/>
	<path class="st0" d="M468.4,505.9h119.2c1.9,0,3.4,0.5,3.4,1.1v33.8c0,0.6-1.5,1.1-3.4,1.1H468.4c-1.9,0-3.4-0.5-3.4-1.1V507
		C465,506.4,466.6,505.9,468.4,505.9z"/>
</g>
<g>
	<path class="st0" d="M22.1,469.7h119.2c1.9,0,3.4,0.5,3.4,1.1v33.8c0,0.6-1.5,1.1-3.4,1.1H22.1c-1.9,0-3.4-0.5-3.4-1.1v-33.8
		C18.7,470.2,20.2,469.7,22.1,469.7z"/>
	<path class="st0" d="M170.8,469.7h119.2c1.9,0,3.4,0.5,3.4,1.1v33.8c0,0.6-1.5,1.1-3.4,1.1H170.8c-1.9,0-3.4-0.5-3.4-1.1v-33.8
		C167.3,470.2,168.9,469.7,170.8,469.7z"/>
	<path class="st0" d="M319.7,469.7h119.2c1.9,0,3.4,0.5,3.4,1.1v33.8c0,0.6-1.5,1.1-3.4,1.1H319.7c-1.9,0-3.4-0.5-3.4-1.1v-33.8
		C316.3,470.2,317.8,469.7,319.7,469.7z"/>
	<path class="st0" d="M468.4,469.7h119.2c1.9,0,3.4,0.5,3.4,1.1v33.8c0,0.6-1.5,1.1-3.4,1.1H468.4c-1.9,0-3.4-0.5-3.4-1.1v-33.8
		C465,470.2,466.6,469.7,468.4,469.7z"/>
</g>
<g>
	<path class="st0" d="M22.1,433.5h119.2c1.9,0,3.4,0.5,3.4,1.1v33.8c0,0.6-1.5,1.1-3.4,1.1H22.1c-1.9,0-3.4-0.5-3.4-1.1v-33.8
		C18.7,434,20.2,433.5,22.1,433.5z"/>
	<path class="st0" d="M170.8,433.5h119.2c1.9,0,3.4,0.5,3.4,1.1v33.8c0,0.6-1.5,1.1-3.4,1.1H170.8c-1.9,0-3.4-0.5-3.4-1.1v-33.8
		C167.3,434,168.9,433.5,170.8,433.5z"/>
	<path class="st0" d="M319.7,433.5h119.2c1.9,0,3.4,0.5,3.4,1.1v33.8c0,0.6-1.5,1.1-3.4,1.1H319.7c-1.9,0-3.4-0.5-3.4-1.1v-33.8
		C316.3,434,317.8,433.5,319.7,433.5z"/>
	<path class="st0" d="M468.4,433.5h119.2c1.9,0,3.4,0.5,3.4,1.1v33.8c0,0.6-1.5,1.1-3.4,1.1H468.4c-1.9,0-3.4-0.5-3.4-1.1v-33.8
		C465,434,466.6,433.5,468.4,433.5z"/>
</g>
<g>
	<path class="st0" d="M22.1,397.3h119.2c1.9,0,3.4,0.5,3.4,1.1v33.8c0,0.6-1.5,1.1-3.4,1.1H22.1c-1.9,0-3.4-0.5-3.4-1.1v-33.8
		C18.7,397.8,20.2,397.3,22.1,397.3z"/>
	<path class="st0" d="M170.8,397.3h119.2c1.9,0,3.4,0.5,3.4,1.1v33.8c0,0.6-1.5,1.1-3.4,1.1H170.8c-1.9,0-3.4-0.5-3.4-1.1v-33.8
		C167.3,397.8,168.9,397.3,170.8,397.3z"/>
	<path class="st0" d="M319.7,397.3h119.2c1.9,0,3.4,0.5,3.4,1.1v33.8c0,0.6-1.5,1.1-3.4,1.1H319.7c-1.9,0-3.4-0.5-3.4-1.1v-33.8
		C316.3,397.8,317.8,397.3,319.7,397.3z"/>
	<path class="st0" d="M468.4,397.3h119.2c1.9,0,3.4,0.5,3.4,1.1v33.8c0,0.6-1.5,1.1-3.4,1.1H468.4c-1.9,0-3.4-0.5-3.4-1.1v-33.8
		C465,397.8,466.6,397.3,468.4,397.3z"/>
</g>
<g>
	<path class="st0" d="M22.1,361.2h119.2c1.9,0,3.4,0.5,3.4,1.1v33.8c0,0.6-1.5,1.1-3.4,1.1H22.1c-1.9,0-3.4-0.5-3.4-1.1v-33.8
		C18.7,361.6,20.2,361.2,22.1,361.2z"/>
	<path class="st0" d="M170.8,361.2h119.2c1.9,0,3.4,0.5,3.4,1.1v33.8c0,0.6-1.5,1.1-3.4,1.1H170.8c-1.9,0-3.4-0.5-3.4-1.1v-33.8
		C167.3,361.6,168.9,361.2,170.8,361.2z"/>
	<path class="st0" d="M319.7,361.2h119.2c1.9,0,3.4,0.5,3.4,1.1v33.8c0,0.6-1.5,1.1-3.4,1.1H319.7c-1.9,0-3.4-0.5-3.4-1.1v-33.8
		C316.3,361.6,317.8,361.2,319.7,361.2z"/>
	<path class="st0" d="M468.4,361.2h119.2c1.9,0,3.4,0.5,3.4,1.1v33.8c0,0.6-1.5,1.1-3.4,1.1H468.4c-1.9,0-3.4-0.5-3.4-1.1v-33.8
		C465,361.6,466.6,361.2,468.4,361.2z"/>
</g>
<g>
	<path class="st0" d="M22.1,325h119.2c1.9,0,3.4,0.5,3.4,1.1v33.8c0,0.6-1.5,1.1-3.4,1.1H22.1c-1.9,0-3.4-0.5-3.4-1.1v-33.8
		C18.7,325.5,20.2,325,22.1,325z"/>
	<path class="st0" d="M170.8,325h119.2c1.9,0,3.4,0.5,3.4,1.1v33.8c0,0.6-1.5,1.1-3.4,1.1H170.8c-1.9,0-3.4-0.5-3.4-1.1v-33.8
		C167.3,325.5,168.9,325,170.8,325z"/>
	<path class="st0" d="M319.7,325h119.2c1.9,0,3.4,0.5,3.4,1.1v33.8c0,0.6-1.5,1.1-3.4,1.1H319.7c-1.9,0-3.4-0.5-3.4-1.1v-33.8
		C316.3,325.5,317.8,325,319.7,325z"/>
	<path class="st0" d="M468.4,325h119.2c1.9,0,3.4,0.5,3.4,1.1v33.8c0,0.6-1.5,1.1-3.4,1.1H468.4c-1.9,0-3.4-0.5-3.4-1.1v-33.8
		C465,325.5,466.6,325,468.4,325z"/>
</g>
<g>
	<path class="st0" d="M22.1,288.8h119.2c1.9,0,3.4,0.5,3.4,1.1v33.8c0,0.6-1.5,1.1-3.4,1.1H22.1c-1.9,0-3.4-0.5-3.4-1.1v-33.8
		C18.7,289.3,20.2,288.8,22.1,288.8z"/>
	<path class="st0" d="M170.8,288.8h119.2c1.9,0,3.4,0.5,3.4,1.1v33.8c0,0.6-1.5,1.1-3.4,1.1H170.8c-1.9,0-3.4-0.5-3.4-1.1v-33.8
		C167.3,289.3,168.9,288.8,170.8,288.8z"/>
	<path class="st0" d="M319.7,288.8h119.2c1.9,0,3.4,0.5,3.4,1.1v33.8c0,0.6-1.5,1.1-3.4,1.1H319.7c-1.9,0-3.4-0.5-3.4-1.1v-33.8
		C316.3,289.3,317.8,288.8,319.7,288.8z"/>
	<path class="st0" d="M468.4,288.8h119.2c1.9,0,3.4,0.5,3.4,1.1v33.8c0,0.6-1.5,1.1-3.4,1.1H468.4c-1.9,0-3.4-0.5-3.4-1.1v-33.8
		C465,289.3,466.6,288.8,468.4,288.8z"/>
</g>
<g>
	<path class="st0" d="M22.1,252.6h119.2c1.9,0,3.4,0.5,3.4,1.1v33.8c0,0.6-1.5,1.1-3.4,1.1H22.1c-1.9,0-3.4-0.5-3.4-1.1v-33.8
		C18.7,253.1,20.2,252.6,22.1,252.6z"/>
	<path class="st0" d="M170.8,252.6h119.2c1.9,0,3.4,0.5,3.4,1.1v33.8c0,0.6-1.5,1.1-3.4,1.1H170.8c-1.9,0-3.4-0.5-3.4-1.1v-33.8
		C167.3,253.1,168.9,252.6,170.8,252.6z"/>
	<path class="st0" d="M319.7,252.6h119.2c1.9,0,3.4,0.5,3.4,1.1v33.8c0,0.6-1.5,1.1-3.4,1.1H319.7c-1.9,0-3.4-0.5-3.4-1.1v-33.8
		C316.3,253.1,317.8,252.6,319.7,252.6z"/>
	<path class="st0" d="M468.4,252.6h119.2c1.9,0,3.4,0.5,3.4,1.1v33.8c0,0.6-1.5,1.1-3.4,1.1H468.4c-1.9,0-3.4-0.5-3.4-1.1v-33.8
		C465,253.1,466.6,252.6,468.4,252.6z"/>
</g>
<g>
	<path class="st0" d="M22.1,216.4h119.2c1.9,0,3.4,0.5,3.4,1.1v33.8c0,0.6-1.5,1.1-3.4,1.1H22.1c-1.9,0-3.4-0.5-3.4-1.1v-33.8
		C18.7,216.9,20.2,216.4,22.1,216.4z"/>
	<path class="st0" d="M170.8,216.4h119.2c1.9,0,3.4,0.5,3.4,1.1v33.8c0,0.6-1.5,1.1-3.4,1.1H170.8c-1.9,0-3.4-0.5-3.4-1.1v-33.8
		C167.3,216.9,168.9,216.4,170.8,216.4z"/>
	<path class="st0" d="M319.7,216.4h119.2c1.9,0,3.4,0.5,3.4,1.1v33.8c0,0.6-1.5,1.1-3.4,1.1H319.7c-1.9,0-3.4-0.5-3.4-1.1v-33.8
		C316.3,216.9,317.8,216.4,319.7,216.4z"/>
	<path class="st0" d="M468.4,216.4h119.2c1.9,0,3.4,0.5,3.4,1.1v33.8c0,0.6-1.5,1.1-3.4,1.1H468.4c-1.9,0-3.4-0.5-3.4-1.1v-33.8
		C465,216.9,466.6,216.4,468.4,216.4z"/>
</g>
<g>
	<path class="st0" d="M22.1,180.2h119.2c1.9,0,3.4,0.5,3.4,1.1v33.8c0,0.6-1.5,1.1-3.4,1.1H22.1c-1.9,0-3.4-0.5-3.4-1.1v-33.8
		C18.7,180.7,20.2,180.2,22.1,180.2z"/>
	<path class="st0" d="M170.8,180.2h119.2c1.9,0,3.4,0.5,3.4,1.1v33.8c0,0.6-1.5,1.1-3.4,1.1H170.8c-1.9,0-3.4-0.5-3.4-1.1v-33.8
		C167.3,180.7,168.9,180.2,170.8,180.2z"/>
	<path class="st0" d="M319.7,180.2h119.2c1.9,0,3.4,0.5,3.4,1.1v33.8c0,0.6-1.5,1.1-3.4,1.1H319.7c-1.9,0-3.4-0.5-3.4-1.1v-33.8
		C316.3,180.7,317.8,180.2,319.7,180.2z"/>
	<path class="st0" d="M468.4,180.2h119.2c1.9,0,3.4,0.5,3.4,1.1v33.8c0,0.6-1.5,1.1-3.4,1.1H468.4c-1.9,0-3.4-0.5-3.4-1.1v-33.8
		C465,180.7,466.6,180.2,468.4,180.2z"/>
</g>
<g>
	<path class="st0" d="M22.1,144h119.2c1.9,0,3.4,0.5,3.4,1.1V179c0,0.6-1.5,1.1-3.4,1.1H22.1c-1.9,0-3.4-0.5-3.4-1.1v-33.8
		C18.7,144.5,20.2,144,22.1,144z"/>
	<path class="st0" d="M170.8,144h119.2c1.9,0,3.4,0.5,3.4,1.1V179c0,0.6-1.5,1.1-3.4,1.1H170.8c-1.9,0-3.4-0.5-3.4-1.1v-33.8
		C167.3,144.5,168.9,144,170.8,144z"/>
	<path class="st0" d="M319.7,144h119.2c1.9,0,3.4,0.5,3.4,1.1V179c0,0.6-1.5,1.1-3.4,1.1H319.7c-1.9,0-3.4-0.5-3.4-1.1v-33.8
		C316.3,144.5,317.8,144,319.7,144z"/>
	<path class="st0" d="M468.4,144h119.2c1.9,0,3.4,0.5,3.4,1.1V179c0,0.6-1.5,1.1-3.4,1.1H468.4c-1.9,0-3.4-0.5-3.4-1.1v-33.8
		C465,144.5,466.6,144,468.4,144z"/>
</g>
<g>
	<path class="st0" d="M22.1,107.9h119.2c1.9,0,3.4,0.5,3.4,1.1v33.8c0,0.6-1.5,1.1-3.4,1.1H22.1c-1.9,0-3.4-0.5-3.4-1.1v-33.8
		C18.7,108.4,20.2,107.9,22.1,107.9z"/>
	<path class="st0" d="M170.8,107.9h119.2c1.9,0,3.4,0.5,3.4,1.1v33.8c0,0.6-1.5,1.1-3.4,1.1H170.8c-1.9,0-3.4-0.5-3.4-1.1v-33.8
		C167.3,108.4,168.9,107.9,170.8,107.9z"/>
	<path class="st0" d="M319.7,107.9h119.2c1.9,0,3.4,0.5,3.4,1.1v33.8c0,0.6-1.5,1.1-3.4,1.1H319.7c-1.9,0-3.4-0.5-3.4-1.1v-33.8
		C316.3,108.4,317.8,107.9,319.7,107.9z"/>
	<path class="st0" d="M468.4,107.9h119.2c1.9,0,3.4,0.5,3.4,1.1v33.8c0,0.6-1.5,1.1-3.4,1.1H468.4c-1.9,0-3.4-0.5-3.4-1.1v-33.8
		C465,108.4,466.6,107.9,468.4,107.9z"/>
</g>
<g>
	<path class="st0" d="M22.1,723h119.2c1.9,0,3.4,0.5,3.4,1.1v33.8c0,0.6-1.5,1.1-3.4,1.1H22.1c-1.9,0-3.4-0.5-3.4-1.1v-33.8
		C18.7,723.5,20.2,723,22.1,723z"/>
	<path class="st0" d="M170.8,723h119.2c1.9,0,3.4,0.5,3.4,1.1v33.8c0,0.6-1.5,1.1-3.4,1.1H170.8c-1.9,0-3.4-0.5-3.4-1.1v-33.8
		C167.3,723.5,168.9,723,170.8,723z"/>
	<path class="st0" d="M319.7,723h119.2c1.9,0,3.4,0.5,3.4,1.1v33.8c0,0.6-1.5,1.1-3.4,1.1H319.7c-1.9,0-3.4-0.5-3.4-1.1v-33.8
		C316.3,723.5,317.8,723,319.7,723z"/>
	<path class="st0" d="M468.4,723h119.2c1.9,0,3.4,0.5,3.4,1.1v33.8c0,0.6-1.5,1.1-3.4,1.1H468.4c-1.9,0-3.4-0.5-3.4-1.1v-33.8
		C465,723.5,466.6,723,468.4,723z"/>
</g>
<g>
	<path class="st0" d="M22.1,35.5h119.2c1.9,0,3.4,0.5,3.4,1.1v33.8c0,0.6-1.5,1.1-3.4,1.1H22.1c-1.9,0-3.4-0.5-3.4-1.1V36.6
		C18.7,36,20.2,35.5,22.1,35.5z"/>
	<path class="st0" d="M170.8,35.5h119.2c1.9,0,3.4,0.5,3.4,1.1v33.8c0,0.6-1.5,1.1-3.4,1.1H170.8c-1.9,0-3.4-0.5-3.4-1.1V36.6
		C167.3,36,168.9,35.5,170.8,35.5z"/>
	<path class="st0" d="M319.7,35.5h119.2c1.9,0,3.4,0.5,3.4,1.1v33.8c0,0.6-1.5,1.1-3.4,1.1H319.7c-1.9,0-3.4-0.5-3.4-1.1V36.6
		C316.3,36,317.8,35.5,319.7,35.5z"/>
	<path class="st0" d="M468.4,35.5h119.2c1.9,0,3.4,0.5,3.4,1.1v33.8c0,0.6-1.5,1.1-3.4,1.1H468.4c-1.9,0-3.4-0.5-3.4-1.1V36.6
		C465,36,466.6,35.5,468.4,35.5z"/>
</g>
<line class="st1" x1="155.8" y1="0" x2="155.8" y2="792"/>
<line class="st1" x1="305" y1="0" x2="305" y2="792"/>
<line class="st1" x1="454" y1="0" x2="454" y2="792"/>
<rect x="0" class="st0" width="612" height="792"/>
</svg>
