<?xml version="1.0" encoding="utf-8"?>
<!-- Generator: Adobe Illustrator 25.4.1, SVG Export Plug-In . SVG Version: 6.00 Build 0)  -->
<svg version="1.1" id="Layer_3" xmlns="http://www.w3.org/2000/svg" xmlns:xlink="http://www.w3.org/1999/xlink" x="0px" y="0px"
	 viewBox="0 0 612 792" style="enable-background:new 0 0 612 792;" xml:space="preserve">
<style type="text/css">
	.st0{fill:none;stroke:#1A1617;stroke-width:2;}
</style>
<rect class="st0" width="612" height="792"/>
<g>
	<g>
		<circle class="st0" cx="523.8" cy="95" r="58.5"/>
		<circle class="st0" cx="378.6" cy="95" r="58.5"/>
		<circle class="st0" cx="233.4" cy="95" r="58.5"/>
		<circle class="st0" cx="88.2" cy="95" r="58.5"/>
	</g>
	<g>
		<circle class="st0" cx="523.8" cy="215.4" r="58.5"/>
		<circle class="st0" cx="378.6" cy="215.4" r="58.5"/>
		<circle class="st0" cx="233.4" cy="215.4" r="58.5"/>
		<circle class="st0" cx="88.2" cy="215.4" r="58.5"/>
	</g>
	<g>
		<circle class="st0" cx="523.8" cy="335.8" r="58.5"/>
		<circle class="st0" cx="378.6" cy="335.8" r="58.5"/>
		<circle class="st0" cx="233.4" cy="335.8" r="58.5"/>
		<circle class="st0" cx="88.2" cy="335.8" r="58.5"/>
	</g>
	<g>
		<circle class="st0" cx="523.8" cy="456.2" r="58.5"/>
		<circle class="st0" cx="378.6" cy="456.2" r="58.5"/>
		<circle class="st0" cx="233.4" cy="456.2" r="58.5"/>
		<circle class="st0" cx="88.2" cy="456.2" r="58.5"/>
	</g>
	<g>
		<circle class="st0" cx="523.8" cy="576.6" r="58.5"/>
		<circle class="st0" cx="378.6" cy="576.6" r="58.5"/>
		<circle class="st0" cx="233.4" cy="576.6" r="58.5"/>
		<circle class="st0" cx="88.2" cy="576.6" r="58.5"/>
	</g>
	<g>
		<circle class="st0" cx="523.8" cy="697" r="58.5"/>
		<circle class="st0" cx="378.6" cy="697" r="58.5"/>
		<circle class="st0" cx="233.4" cy="697" r="58.5"/>
		<circle class="st0" cx="88.2" cy="697" r="58.5"/>
	</g>
</g>
</svg>
