<?xml version="1.0" encoding="utf-8"?>
<!-- Generator: Adobe Illustrator 20.1.0, SVG Export Plug-In . SVG Version: 6.00 Build 0)  -->
<svg version="1.1" id="Layer_2" xmlns="http://www.w3.org/2000/svg" xmlns:xlink="http://www.w3.org/1999/xlink" x="0px" y="0px"
	 viewBox="0 0 612 792" style="enable-background:new 0 0 612 792;" xml:space="preserve">
<style type="text/css">
	.st0{fill:none;stroke:#000000;stroke-width:2;}
</style>
<g>
	<path class="st0" d="M299.6,154.2c0,2.5-2,4.5-4.5,4.5h-279c-2.5,0-4.5-2-4.5-4.5v-86c0-2.5,2-4.5,4.5-4.5h279c2.5,0,4.5,2,4.5,4.5
		V154.2z"/>
	<path class="st0" d="M599.1,154.2c0,2.5-2,4.5-4.5,4.5h-279c-2.5,0-4.5-2-4.5-4.5v-86c0-2.5,2-4.5,4.5-4.5h279c2.5,0,4.5,2,4.5,4.5
		V154.2z"/>
</g>
<g>
	<path class="st0" d="M299.6,723.5c0,2.5-2,4.5-4.5,4.5h-279c-2.5,0-4.5-2-4.5-4.5v-86c0-2.5,2-4.5,4.5-4.5h279c2.5,0,4.5,2,4.5,4.5
		V723.5z"/>
	<path class="st0" d="M599.1,723.5c0,2.5-2,4.5-4.5,4.5h-279c-2.5,0-4.5-2-4.5-4.5v-86c0-2.5,2-4.5,4.5-4.5h279c2.5,0,4.5,2,4.5,4.5
		V723.5z"/>
</g>
<g>
	<path class="st0" d="M299.6,249.1c0,2.5-2,4.5-4.5,4.5h-279c-2.5,0-4.5-2-4.5-4.5v-86c0-2.5,2-4.5,4.5-4.5h279c2.5,0,4.5,2,4.5,4.5
		V249.1z"/>
	<path class="st0" d="M599.1,249.1c0,2.5-2,4.5-4.5,4.5h-279c-2.5,0-4.5-2-4.5-4.5v-86c0-2.5,2-4.5,4.5-4.5h279c2.5,0,4.5,2,4.5,4.5
		V249.1z"/>
</g>
<g>
	<path class="st0" d="M299.6,344c0,2.5-2,4.5-4.5,4.5h-279c-2.5,0-4.5-2-4.5-4.5v-86c0-2.5,2-4.5,4.5-4.5h279c2.5,0,4.5,2,4.5,4.5
		V344z"/>
	<path class="st0" d="M599.1,344c0,2.5-2,4.5-4.5,4.5h-279c-2.5,0-4.5-2-4.5-4.5v-86c0-2.5,2-4.5,4.5-4.5h279c2.5,0,4.5,2,4.5,4.5
		V344z"/>
</g>
<g>
	<path class="st0" d="M299.6,438.9c0,2.5-2,4.5-4.5,4.5h-279c-2.5,0-4.5-2-4.5-4.5v-86c0-2.5,2-4.5,4.5-4.5h279c2.5,0,4.5,2,4.5,4.5
		V438.9z"/>
	<path class="st0" d="M599.1,438.9c0,2.5-2,4.5-4.5,4.5h-279c-2.5,0-4.5-2-4.5-4.5v-86c0-2.5,2-4.5,4.5-4.5h279c2.5,0,4.5,2,4.5,4.5
		V438.9z"/>
</g>
<g>
	<path class="st0" d="M299.6,533.7c0,2.5-2,4.5-4.5,4.5h-279c-2.5,0-4.5-2-4.5-4.5v-86c0-2.5,2-4.5,4.5-4.5h279c2.5,0,4.5,2,4.5,4.5
		V533.7z"/>
	<path class="st0" d="M599.1,533.7c0,2.5-2,4.5-4.5,4.5h-279c-2.5,0-4.5-2-4.5-4.5v-86c0-2.5,2-4.5,4.5-4.5h279c2.5,0,4.5,2,4.5,4.5
		V533.7z"/>
</g>
<g>
	<path class="st0" d="M299.6,628.6c0,2.5-2,4.5-4.5,4.5h-279c-2.5,0-4.5-2-4.5-4.5v-86c0-2.5,2-4.5,4.5-4.5h279c2.5,0,4.5,2,4.5,4.5
		V628.6z"/>
	<path class="st0" d="M599.1,628.6c0,2.5-2,4.5-4.5,4.5h-279c-2.5,0-4.5-2-4.5-4.5v-86c0-2.5,2-4.5,4.5-4.5h279c2.5,0,4.5,2,4.5,4.5
		V628.6z"/>
</g>
<rect class="st0" width="612" height="792"/>
</svg>
