<?xml version="1.0" encoding="utf-8"?>
<!-- Generator: Adobe Illustrator 20.1.0, SVG Export Plug-In . SVG Version: 6.00 Build 0)  -->
<svg version="1.1" id="Layer_1" xmlns="http://www.w3.org/2000/svg" xmlns:xlink="http://www.w3.org/1999/xlink" x="0px" y="0px"
	 viewBox="0 0 612 792" style="enable-background:new 0 0 612 792;" xml:space="preserve">
<style type="text/css">
	.st0{fill:none;stroke:#000000;stroke-width:2;stroke-miterlimit:10;}
	.st1{fill:none;stroke:#000000;stroke-width:2;}
</style>
<path class="st0" d="M38.9,36h241.7c1.6,0,2.9,0.4,2.9,1V83c0,0.5-1.3,1-2.9,1H38.9c-1.6,0-2.9-0.4-2.9-1V37
	C36,36.4,37.3,36,38.9,36z"/>
<path class="st0" d="M38.9,276h241.7c1.6,0,2.9,0.4,2.9,1V323c0,0.5-1.3,1-2.9,1H38.9c-1.6,0-2.9-0.4-2.9-1V277
	C36,276.4,37.3,276,38.9,276z"/>
<path class="st0" d="M38.9,84h241.7c1.6,0,2.9,0.4,2.9,1V131c0,0.5-1.3,1-2.9,1H38.9c-1.6,0-2.9-0.4-2.9-1V85
	C36,84.4,37.3,84,38.9,84z"/>
<path class="st0" d="M38.9,132h241.7c1.6,0,2.9,0.4,2.9,1V179c0,0.5-1.3,1-2.9,1H38.9c-1.6,0-2.9-0.4-2.9-1V133
	C36,132.4,37.3,132,38.9,132z"/>
<path class="st0" d="M38.9,180h241.7c1.6,0,2.9,0.4,2.9,1V227c0,0.5-1.3,1-2.9,1H38.9c-1.6,0-2.9-0.4-2.9-1V181
	C36,180.4,37.3,180,38.9,180z"/>
<path class="st0" d="M38.9,228h241.7c1.6,0,2.9,0.4,2.9,1V275c0,0.5-1.3,1-2.9,1H38.9c-1.6,0-2.9-0.4-2.9-1V229
	C36,228.4,37.3,228,38.9,228z"/>
<path class="st0" d="M38.9,324h241.7c1.6,0,2.9,0.4,2.9,1V371c0,0.5-1.3,1-2.9,1H38.9c-1.6,0-2.9-0.4-2.9-1V325
	C36,324.4,37.3,324,38.9,324z"/>
<path class="st0" d="M38.9,372h241.7c1.6,0,2.9,0.4,2.9,1V419c0,0.5-1.3,1-2.9,1H38.9c-1.6,0-2.9-0.4-2.9-1V373
	C36,372.4,37.3,372,38.9,372z"/>
<path class="st0" d="M38.9,420h241.7c1.6,0,2.9,0.4,2.9,1V467c0,0.5-1.3,1-2.9,1H38.9c-1.6,0-2.9-0.4-2.9-1V421
	C36,420.4,37.3,420,38.9,420z"/>
<path class="st0" d="M38.9,468h241.7c1.6,0,2.9,0.4,2.9,1V515c0,0.5-1.3,1-2.9,1H38.9c-1.6,0-2.9-0.4-2.9-1V469
	C36,468.4,37.3,468,38.9,468z"/>
<path class="st0" d="M38.9,516h241.7c1.6,0,2.9,0.4,2.9,1V563c0,0.5-1.3,1-2.9,1H38.9c-1.6,0-2.9-0.4-2.9-1V517
	C36,516.4,37.3,516,38.9,516z"/>
<path class="st0" d="M38.9,564h241.7c1.6,0,2.9,0.4,2.9,1V611c0,0.5-1.3,1-2.9,1H38.9c-1.6,0-2.9-0.4-2.9-1V565
	C36,564.4,37.3,564,38.9,564z"/>
<path class="st0" d="M38.9,612h241.7c1.6,0,2.9,0.4,2.9,1V659c0,0.5-1.3,1-2.9,1H38.9c-1.6,0-2.9-0.4-2.9-1V613
	C36,612.4,37.3,612,38.9,612z"/>
<path class="st0" d="M38.9,660h241.7c1.6,0,2.9,0.4,2.9,1V707c0,0.5-1.3,1-2.9,1H38.9c-1.6,0-2.9-0.4-2.9-1V661
	C36,660.4,37.3,660,38.9,660z"/>
<path class="st0" d="M38.9,708h241.7c1.6,0,2.9,0.4,2.9,1V755c0,0.5-1.3,1-2.9,1H38.9c-1.6,0-2.9-0.4-2.9-1V709
	C36,708.4,37.3,708,38.9,708z"/>
<path class="st0" d="M331.4,36h241.7c1.6,0,2.9,0.4,2.9,1V83c0,0.5-1.3,1-2.9,1H331.4c-1.6,0-2.9-0.4-2.9-1V37
	C328.5,36.4,329.8,36,331.4,36z"/>
<path class="st0" d="M331.4,276h241.7c1.6,0,2.9,0.4,2.9,1V323c0,0.5-1.3,1-2.9,1H331.4c-1.6,0-2.9-0.4-2.9-1V277
	C328.5,276.4,329.8,276,331.4,276z"/>
<path class="st0" d="M331.4,84h241.7c1.6,0,2.9,0.4,2.9,1V131c0,0.5-1.3,1-2.9,1H331.4c-1.6,0-2.9-0.4-2.9-1V85
	C328.5,84.4,329.8,84,331.4,84z"/>
<path class="st0" d="M331.4,132h241.7c1.6,0,2.9,0.4,2.9,1V179c0,0.5-1.3,1-2.9,1H331.4c-1.6,0-2.9-0.4-2.9-1V133
	C328.5,132.4,329.8,132,331.4,132z"/>
<path class="st0" d="M331.4,180h241.7c1.6,0,2.9,0.4,2.9,1V227c0,0.5-1.3,1-2.9,1H331.4c-1.6,0-2.9-0.4-2.9-1V181
	C328.5,180.4,329.8,180,331.4,180z"/>
<path class="st0" d="M331.4,228h241.7c1.6,0,2.9,0.4,2.9,1V275c0,0.5-1.3,1-2.9,1H331.4c-1.6,0-2.9-0.4-2.9-1V229
	C328.5,228.4,329.8,228,331.4,228z"/>
<path class="st0" d="M331.4,324h241.7c1.6,0,2.9,0.4,2.9,1V371c0,0.5-1.3,1-2.9,1H331.4c-1.6,0-2.9-0.4-2.9-1V325
	C328.5,324.4,329.8,324,331.4,324z"/>
<path class="st0" d="M331.4,372h241.7c1.6,0,2.9,0.4,2.9,1V419c0,0.5-1.3,1-2.9,1H331.4c-1.6,0-2.9-0.4-2.9-1V373
	C328.5,372.4,329.8,372,331.4,372z"/>
<path class="st0" d="M331.4,420h241.7c1.6,0,2.9,0.4,2.9,1V467c0,0.5-1.3,1-2.9,1H331.4c-1.6,0-2.9-0.4-2.9-1V421
	C328.5,420.4,329.8,420,331.4,420z"/>
<path class="st0" d="M331.4,468h241.7c1.6,0,2.9,0.4,2.9,1V515c0,0.5-1.3,1-2.9,1H331.4c-1.6,0-2.9-0.4-2.9-1V469
	C328.5,468.4,329.8,468,331.4,468z"/>
<path class="st0" d="M331.4,516h241.7c1.6,0,2.9,0.4,2.9,1V563c0,0.5-1.3,1-2.9,1H331.4c-1.6,0-2.9-0.4-2.9-1V517
	C328.5,516.4,329.8,516,331.4,516z"/>
<path class="st0" d="M331.4,564h241.7c1.6,0,2.9,0.4,2.9,1V611c0,0.5-1.3,1-2.9,1H331.4c-1.6,0-2.9-0.4-2.9-1V565
	C328.5,564.4,329.8,564,331.4,564z"/>
<path class="st0" d="M331.4,612h241.7c1.6,0,2.9,0.4,2.9,1V659c0,0.5-1.3,1-2.9,1H331.4c-1.6,0-2.9-0.4-2.9-1V613
	C328.5,612.4,329.8,612,331.4,612z"/>
<path class="st0" d="M331.4,660h241.7c1.6,0,2.9,0.4,2.9,1V707c0,0.5-1.3,1-2.9,1H331.4c-1.6,0-2.9-0.4-2.9-1V661
	C328.5,660.4,329.8,660,331.4,660z"/>
<path class="st0" d="M331.4,708h241.7c1.6,0,2.9,0.4,2.9,1V755c0,0.5-1.3,1-2.9,1H331.4c-1.6,0-2.9-0.4-2.9-1V709
	C328.5,708.4,329.8,708,331.4,708z"/>
<rect class="st1" width="612" height="792"/>
</svg>
