<?xml version="1.0" encoding="utf-8"?>
<!-- Generator: Adobe Illustrator 20.1.0, SVG Export Plug-In . SVG Version: 6.00 Build 0)  -->
<svg version="1.1" id="Layer_1" xmlns="http://www.w3.org/2000/svg" xmlns:xlink="http://www.w3.org/1999/xlink" x="0px" y="0px"
	 viewBox="0 0 612 792" style="enable-background:new 0 0 612 792;" xml:space="preserve">
<style type="text/css">
	.st0{fill:none;stroke:#000000;stroke-width:2;stroke-miterlimit:10;}
</style>
<g>
	<path class="st0" d="M303.1,47.2c92.3,0,167.6,75.3,167.6,167.6s-75.3,167.6-167.6,167.6c-92.3,0-167.6-75.3-167.6-167.6
		S210.7,47.2,303.1,47.2z"/>
	<path class="st0" d="M303.1,190.5c13.4,0,24.3,10.9,24.3,24.3c0,13.4-10.9,24.3-24.3,24.3c-13.4,0-24.3-10.9-24.3-24.3
		C278.8,201.5,289.7,190.5,303.1,190.5z"/>
</g>
<g>
	<path class="st0" d="M303.1,409.5c92.3,0,167.6,75.3,167.6,167.6c0,92.3-75.3,167.6-167.6,167.6c-92.3,0-167.6-75.3-167.6-167.6
		C135.4,484.8,210.7,409.5,303.1,409.5z"/>
	<path class="st0" d="M303.1,552.9c13.4,0,24.3,10.9,24.3,24.3c0,13.4-10.9,24.3-24.3,24.3c-13.4,0-24.3-10.9-24.3-24.3
		C278.8,563.8,289.7,552.9,303.1,552.9z"/>
</g>
<rect x="54" y="47.2" class="st0" width="18" height="335.2"/>
<rect x="540" y="409.5" class="st0" width="18" height="335.2"/>
<rect x="54" y="409.5" class="st0" width="18" height="335.2"/>
<rect x="540" y="47.2" class="st0" width="18" height="335.2"/>
<rect class="st0" width="612" height="792"/>
</svg>
