<?xml version="1.0" encoding="utf-8"?>
<!-- Generator: Adobe Illustrator 20.1.0, SVG Export Plug-In . SVG Version: 6.00 Build 0)  -->
<svg version="1.1" id="Layer_1" xmlns="http://www.w3.org/2000/svg" xmlns:xlink="http://www.w3.org/1999/xlink" x="0px" y="0px"
	 viewBox="0 0 612 792" style="enable-background:new 0 0 612 792;" xml:space="preserve">
<style type="text/css">
	.st0{fill:none;stroke:#000000;stroke-width:2;stroke-miterlimit:10;}
</style>
<path class="st0" d="M481.5,47.2c14.9,0,27,12.1,27,27c0,14.9-12.1,27-27,27c-14.9,0-27-12.1-27-27
	C454.5,59.4,466.6,47.2,481.5,47.2z"/>
<path class="st0" d="M423,47.2c14.9,0,27,12.1,27,27c0,14.9-12.1,27-27,27c-14.9,0-27-12.1-27-27C396,59.4,408.1,47.2,423,47.2z"/>
<path class="st0" d="M130.5,47.2c14.9,0,27,12.1,27,27c0,14.9-12.1,27-27,27s-27-12.1-27-27C103.5,59.4,115.6,47.2,130.5,47.2z"/>
<path class="st0" d="M189,47.2c14.9,0,27,12.1,27,27c0,14.9-12.1,27-27,27c-14.9,0-27-12.1-27-27C162,59.4,174.1,47.2,189,47.2z"/>
<path class="st0" d="M247.5,47.2c14.9,0,27,12.1,27,27c0,14.9-12.1,27-27,27c-14.9,0-27-12.1-27-27
	C220.5,59.4,232.6,47.2,247.5,47.2z"/>
<path class="st0" d="M306,47.2c14.9,0,27,12.1,27,27c0,14.9-12.1,27-27,27s-27-12.1-27-27C279,59.4,291.1,47.2,306,47.2z"/>
<path class="st0" d="M364.5,47.2c14.9,0,27,12.1,27,27c0,14.9-12.1,27-27,27s-27-12.1-27-27C337.5,59.4,349.6,47.2,364.5,47.2z"/>
<path class="st0" d="M72,47.2c14.9,0,27,12.1,27,27c0,14.9-12.1,27-27,27s-27-12.1-27-27C45,59.4,57.1,47.2,72,47.2z"/>
<path class="st0" d="M540,47.2c14.9,0,27,12.1,27,27c0,14.9-12.1,27-27,27s-27-12.1-27-27C513,59.4,525.1,47.2,540,47.2z"/>
<path class="st0" d="M481.5,632.3c14.9,0,27,12.1,27,27c0,14.9-12.1,27-27,27c-14.9,0-27-12.1-27-27
	C454.5,644.4,466.6,632.3,481.5,632.3z"/>
<path class="st0" d="M423,632.3c14.9,0,27,12.1,27,27c0,14.9-12.1,27-27,27c-14.9,0-27-12.1-27-27C396,644.4,408.1,632.3,423,632.3z
	"/>
<path class="st0" d="M130.5,632.3c14.9,0,27,12.1,27,27c0,14.9-12.1,27-27,27s-27-12.1-27-27C103.5,644.4,115.6,632.3,130.5,632.3z"
	/>
<path class="st0" d="M189,632.3c14.9,0,27,12.1,27,27c0,14.9-12.1,27-27,27c-14.9,0-27-12.1-27-27C162,644.4,174.1,632.3,189,632.3z
	"/>
<path class="st0" d="M247.5,632.3c14.9,0,27,12.1,27,27c0,14.9-12.1,27-27,27c-14.9,0-27-12.1-27-27
	C220.5,644.4,232.6,632.3,247.5,632.3z"/>
<path class="st0" d="M306,632.3c14.9,0,27,12.1,27,27c0,14.9-12.1,27-27,27s-27-12.1-27-27C279,644.4,291.1,632.3,306,632.3z"/>
<path class="st0" d="M364.5,632.3c14.9,0,27,12.1,27,27c0,14.9-12.1,27-27,27s-27-12.1-27-27C337.5,644.4,349.6,632.3,364.5,632.3z"
	/>
<path class="st0" d="M72,632.3c14.9,0,27,12.1,27,27c0,14.9-12.1,27-27,27s-27-12.1-27-27C45,644.4,57.1,632.3,72,632.3z"/>
<path class="st0" d="M540,632.3c14.9,0,27,12.1,27,27c0,14.9-12.1,27-27,27s-27-12.1-27-27C513,644.4,525.1,632.3,540,632.3z"/>
<path class="st0" d="M481.5,573.8c14.9,0,27,12.1,27,27s-12.1,27-27,27c-14.9,0-27-12.1-27-27S466.6,573.8,481.5,573.8z"/>
<path class="st0" d="M423,573.8c14.9,0,27,12.1,27,27s-12.1,27-27,27c-14.9,0-27-12.1-27-27S408.1,573.8,423,573.8z"/>
<path class="st0" d="M130.5,573.8c14.9,0,27,12.1,27,27s-12.1,27-27,27s-27-12.1-27-27S115.6,573.8,130.5,573.8z"/>
<path class="st0" d="M189,573.8c14.9,0,27,12.1,27,27s-12.1,27-27,27c-14.9,0-27-12.1-27-27S174.1,573.8,189,573.8z"/>
<path class="st0" d="M247.5,573.8c14.9,0,27,12.1,27,27s-12.1,27-27,27c-14.9,0-27-12.1-27-27S232.6,573.8,247.5,573.8z"/>
<path class="st0" d="M306,573.8c14.9,0,27,12.1,27,27s-12.1,27-27,27s-27-12.1-27-27S291.1,573.8,306,573.8z"/>
<path class="st0" d="M364.5,573.8c14.9,0,27,12.1,27,27s-12.1,27-27,27s-27-12.1-27-27S349.6,573.8,364.5,573.8z"/>
<path class="st0" d="M72,573.8c14.9,0,27,12.1,27,27s-12.1,27-27,27s-27-12.1-27-27S57.1,573.8,72,573.8z"/>
<path class="st0" d="M540,573.8c14.9,0,27,12.1,27,27s-12.1,27-27,27s-27-12.1-27-27S525.1,573.8,540,573.8z"/>
<path class="st0" d="M481.5,515.3c14.9,0,27,12.1,27,27c0,14.9-12.1,27-27,27c-14.9,0-27-12.1-27-27
	C454.5,527.4,466.6,515.3,481.5,515.3z"/>
<path class="st0" d="M423,515.3c14.9,0,27,12.1,27,27c0,14.9-12.1,27-27,27c-14.9,0-27-12.1-27-27C396,527.4,408.1,515.3,423,515.3z
	"/>
<path class="st0" d="M130.5,515.3c14.9,0,27,12.1,27,27c0,14.9-12.1,27-27,27s-27-12.1-27-27C103.5,527.4,115.6,515.3,130.5,515.3z"
	/>
<path class="st0" d="M189,515.3c14.9,0,27,12.1,27,27c0,14.9-12.1,27-27,27c-14.9,0-27-12.1-27-27C162,527.4,174.1,515.3,189,515.3z
	"/>
<path class="st0" d="M247.5,515.3c14.9,0,27,12.1,27,27c0,14.9-12.1,27-27,27c-14.9,0-27-12.1-27-27
	C220.5,527.4,232.6,515.3,247.5,515.3z"/>
<path class="st0" d="M306,515.3c14.9,0,27,12.1,27,27c0,14.9-12.1,27-27,27s-27-12.1-27-27C279,527.4,291.1,515.3,306,515.3z"/>
<path class="st0" d="M364.5,515.3c14.9,0,27,12.1,27,27c0,14.9-12.1,27-27,27s-27-12.1-27-27C337.5,527.4,349.6,515.3,364.5,515.3z"
	/>
<path class="st0" d="M72,515.3c14.9,0,27,12.1,27,27c0,14.9-12.1,27-27,27s-27-12.1-27-27C45,527.4,57.1,515.3,72,515.3z"/>
<path class="st0" d="M540,515.3c14.9,0,27,12.1,27,27c0,14.9-12.1,27-27,27s-27-12.1-27-27C513,527.4,525.1,515.3,540,515.3z"/>
<path class="st0" d="M481.5,456.8c14.9,0,27,12.1,27,27s-12.1,27-27,27c-14.9,0-27-12.1-27-27S466.6,456.8,481.5,456.8z"/>
<path class="st0" d="M423,456.8c14.9,0,27,12.1,27,27s-12.1,27-27,27c-14.9,0-27-12.1-27-27S408.1,456.8,423,456.8z"/>
<path class="st0" d="M130.5,456.8c14.9,0,27,12.1,27,27s-12.1,27-27,27s-27-12.1-27-27S115.6,456.8,130.5,456.8z"/>
<path class="st0" d="M189,456.8c14.9,0,27,12.1,27,27s-12.1,27-27,27c-14.9,0-27-12.1-27-27S174.1,456.8,189,456.8z"/>
<path class="st0" d="M247.5,456.8c14.9,0,27,12.1,27,27s-12.1,27-27,27c-14.9,0-27-12.1-27-27S232.6,456.8,247.5,456.8z"/>
<path class="st0" d="M306,456.8c14.9,0,27,12.1,27,27s-12.1,27-27,27s-27-12.1-27-27S291.1,456.8,306,456.8z"/>
<path class="st0" d="M364.5,456.8c14.9,0,27,12.1,27,27s-12.1,27-27,27s-27-12.1-27-27S349.6,456.8,364.5,456.8z"/>
<path class="st0" d="M72,456.8c14.9,0,27,12.1,27,27s-12.1,27-27,27s-27-12.1-27-27S57.1,456.8,72,456.8z"/>
<path class="st0" d="M540,456.8c14.9,0,27,12.1,27,27s-12.1,27-27,27s-27-12.1-27-27S525.1,456.8,540,456.8z"/>
<path class="st0" d="M481.5,398.3c14.9,0,27,12.1,27,27c0,14.9-12.1,27-27,27c-14.9,0-27-12.1-27-27
	C454.5,410.4,466.6,398.3,481.5,398.3z"/>
<path class="st0" d="M423,398.3c14.9,0,27,12.1,27,27c0,14.9-12.1,27-27,27c-14.9,0-27-12.1-27-27C396,410.4,408.1,398.3,423,398.3z
	"/>
<path class="st0" d="M130.5,398.3c14.9,0,27,12.1,27,27c0,14.9-12.1,27-27,27s-27-12.1-27-27C103.5,410.4,115.6,398.3,130.5,398.3z"
	/>
<path class="st0" d="M189,398.3c14.9,0,27,12.1,27,27c0,14.9-12.1,27-27,27c-14.9,0-27-12.1-27-27C162,410.4,174.1,398.3,189,398.3z
	"/>
<path class="st0" d="M247.5,398.3c14.9,0,27,12.1,27,27c0,14.9-12.1,27-27,27c-14.9,0-27-12.1-27-27
	C220.5,410.4,232.6,398.3,247.5,398.3z"/>
<path class="st0" d="M306,398.3c14.9,0,27,12.1,27,27c0,14.9-12.1,27-27,27s-27-12.1-27-27C279,410.4,291.1,398.3,306,398.3z"/>
<path class="st0" d="M364.5,398.3c14.9,0,27,12.1,27,27c0,14.9-12.1,27-27,27s-27-12.1-27-27C337.5,410.4,349.6,398.3,364.5,398.3z"
	/>
<path class="st0" d="M72,398.3c14.9,0,27,12.1,27,27c0,14.9-12.1,27-27,27s-27-12.1-27-27C45,410.4,57.1,398.3,72,398.3z"/>
<path class="st0" d="M540,398.3c14.9,0,27,12.1,27,27c0,14.9-12.1,27-27,27s-27-12.1-27-27C513,410.4,525.1,398.3,540,398.3z"/>
<path class="st0" d="M481.5,339.7c14.9,0,27,12.1,27,27s-12.1,27-27,27c-14.9,0-27-12.1-27-27S466.6,339.7,481.5,339.7z"/>
<path class="st0" d="M423,339.7c14.9,0,27,12.1,27,27s-12.1,27-27,27c-14.9,0-27-12.1-27-27S408.1,339.7,423,339.7z"/>
<path class="st0" d="M130.5,339.7c14.9,0,27,12.1,27,27s-12.1,27-27,27s-27-12.1-27-27S115.6,339.7,130.5,339.7z"/>
<path class="st0" d="M189,339.7c14.9,0,27,12.1,27,27s-12.1,27-27,27c-14.9,0-27-12.1-27-27S174.1,339.7,189,339.7z"/>
<path class="st0" d="M247.5,339.7c14.9,0,27,12.1,27,27s-12.1,27-27,27c-14.9,0-27-12.1-27-27S232.6,339.7,247.5,339.7z"/>
<path class="st0" d="M306,339.7c14.9,0,27,12.1,27,27s-12.1,27-27,27s-27-12.1-27-27S291.1,339.7,306,339.7z"/>
<path class="st0" d="M364.5,339.7c14.9,0,27,12.1,27,27s-12.1,27-27,27s-27-12.1-27-27S349.6,339.7,364.5,339.7z"/>
<path class="st0" d="M72,339.7c14.9,0,27,12.1,27,27s-12.1,27-27,27s-27-12.1-27-27S57.1,339.7,72,339.7z"/>
<path class="st0" d="M540,339.7c14.9,0,27,12.1,27,27s-12.1,27-27,27s-27-12.1-27-27S525.1,339.7,540,339.7z"/>
<path class="st0" d="M481.5,281.2c14.9,0,27,12.1,27,27c0,14.9-12.1,27-27,27c-14.9,0-27-12.1-27-27
	C454.5,293.4,466.6,281.2,481.5,281.2z"/>
<path class="st0" d="M423,281.2c14.9,0,27,12.1,27,27c0,14.9-12.1,27-27,27c-14.9,0-27-12.1-27-27C396,293.4,408.1,281.2,423,281.2z
	"/>
<path class="st0" d="M130.5,281.2c14.9,0,27,12.1,27,27c0,14.9-12.1,27-27,27s-27-12.1-27-27C103.5,293.4,115.6,281.2,130.5,281.2z"
	/>
<path class="st0" d="M189,281.2c14.9,0,27,12.1,27,27c0,14.9-12.1,27-27,27c-14.9,0-27-12.1-27-27C162,293.4,174.1,281.2,189,281.2z
	"/>
<path class="st0" d="M247.5,281.2c14.9,0,27,12.1,27,27c0,14.9-12.1,27-27,27c-14.9,0-27-12.1-27-27
	C220.5,293.4,232.6,281.2,247.5,281.2z"/>
<path class="st0" d="M306,281.2c14.9,0,27,12.1,27,27c0,14.9-12.1,27-27,27s-27-12.1-27-27C279,293.4,291.1,281.2,306,281.2z"/>
<path class="st0" d="M364.5,281.2c14.9,0,27,12.1,27,27c0,14.9-12.1,27-27,27s-27-12.1-27-27C337.5,293.4,349.6,281.2,364.5,281.2z"
	/>
<path class="st0" d="M72,281.2c14.9,0,27,12.1,27,27c0,14.9-12.1,27-27,27s-27-12.1-27-27C45,293.4,57.1,281.2,72,281.2z"/>
<path class="st0" d="M540,281.2c14.9,0,27,12.1,27,27c0,14.9-12.1,27-27,27s-27-12.1-27-27C513,293.4,525.1,281.2,540,281.2z"/>
<path class="st0" d="M481.5,222.7c14.9,0,27,12.1,27,27c0,14.9-12.1,27-27,27c-14.9,0-27-12.1-27-27
	C454.5,234.9,466.6,222.7,481.5,222.7z"/>
<path class="st0" d="M423,222.7c14.9,0,27,12.1,27,27c0,14.9-12.1,27-27,27c-14.9,0-27-12.1-27-27C396,234.9,408.1,222.7,423,222.7z
	"/>
<path class="st0" d="M130.5,222.7c14.9,0,27,12.1,27,27c0,14.9-12.1,27-27,27s-27-12.1-27-27C103.5,234.9,115.6,222.7,130.5,222.7z"
	/>
<path class="st0" d="M189,222.7c14.9,0,27,12.1,27,27c0,14.9-12.1,27-27,27c-14.9,0-27-12.1-27-27C162,234.9,174.1,222.7,189,222.7z
	"/>
<path class="st0" d="M247.5,222.7c14.9,0,27,12.1,27,27c0,14.9-12.1,27-27,27c-14.9,0-27-12.1-27-27
	C220.5,234.9,232.6,222.7,247.5,222.7z"/>
<path class="st0" d="M306,222.7c14.9,0,27,12.1,27,27c0,14.9-12.1,27-27,27s-27-12.1-27-27C279,234.9,291.1,222.7,306,222.7z"/>
<path class="st0" d="M364.5,222.7c14.9,0,27,12.1,27,27c0,14.9-12.1,27-27,27s-27-12.1-27-27C337.5,234.9,349.6,222.7,364.5,222.7z"
	/>
<path class="st0" d="M72,222.7c14.9,0,27,12.1,27,27c0,14.9-12.1,27-27,27s-27-12.1-27-27C45,234.9,57.1,222.7,72,222.7z"/>
<path class="st0" d="M540,222.7c14.9,0,27,12.1,27,27c0,14.9-12.1,27-27,27s-27-12.1-27-27C513,234.9,525.1,222.7,540,222.7z"/>
<path class="st0" d="M481.5,164.2c14.9,0,27,12.1,27,27s-12.1,27-27,27c-14.9,0-27-12.1-27-27S466.6,164.2,481.5,164.2z"/>
<path class="st0" d="M423,164.2c14.9,0,27,12.1,27,27s-12.1,27-27,27c-14.9,0-27-12.1-27-27S408.1,164.2,423,164.2z"/>
<path class="st0" d="M130.5,164.2c14.9,0,27,12.1,27,27s-12.1,27-27,27s-27-12.1-27-27S115.6,164.2,130.5,164.2z"/>
<path class="st0" d="M189,164.2c14.9,0,27,12.1,27,27s-12.1,27-27,27c-14.9,0-27-12.1-27-27S174.1,164.2,189,164.2z"/>
<path class="st0" d="M247.5,164.2c14.9,0,27,12.1,27,27s-12.1,27-27,27c-14.9,0-27-12.1-27-27S232.6,164.2,247.5,164.2z"/>
<path class="st0" d="M306,164.2c14.9,0,27,12.1,27,27s-12.1,27-27,27s-27-12.1-27-27S291.1,164.2,306,164.2z"/>
<path class="st0" d="M364.5,164.2c14.9,0,27,12.1,27,27s-12.1,27-27,27s-27-12.1-27-27S349.6,164.2,364.5,164.2z"/>
<path class="st0" d="M72,164.2c14.9,0,27,12.1,27,27s-12.1,27-27,27s-27-12.1-27-27S57.1,164.2,72,164.2z"/>
<path class="st0" d="M540,164.2c14.9,0,27,12.1,27,27s-12.1,27-27,27s-27-12.1-27-27S525.1,164.2,540,164.2z"/>
<path class="st0" d="M481.5,105.7c14.9,0,27,12.1,27,27c0,14.9-12.1,27-27,27c-14.9,0-27-12.1-27-27
	C454.5,117.9,466.6,105.7,481.5,105.7z"/>
<path class="st0" d="M423,105.7c14.9,0,27,12.1,27,27c0,14.9-12.1,27-27,27c-14.9,0-27-12.1-27-27C396,117.9,408.1,105.7,423,105.7z
	"/>
<path class="st0" d="M130.5,105.7c14.9,0,27,12.1,27,27c0,14.9-12.1,27-27,27s-27-12.1-27-27C103.5,117.9,115.6,105.7,130.5,105.7z"
	/>
<path class="st0" d="M189,105.7c14.9,0,27,12.1,27,27c0,14.9-12.1,27-27,27c-14.9,0-27-12.1-27-27C162,117.9,174.1,105.7,189,105.7z
	"/>
<path class="st0" d="M247.5,105.7c14.9,0,27,12.1,27,27c0,14.9-12.1,27-27,27c-14.9,0-27-12.1-27-27
	C220.5,117.9,232.6,105.7,247.5,105.7z"/>
<path class="st0" d="M306,105.7c14.9,0,27,12.1,27,27c0,14.9-12.1,27-27,27s-27-12.1-27-27C279,117.9,291.1,105.7,306,105.7z"/>
<path class="st0" d="M364.5,105.7c14.9,0,27,12.1,27,27c0,14.9-12.1,27-27,27s-27-12.1-27-27C337.5,117.9,349.6,105.7,364.5,105.7z"
	/>
<path class="st0" d="M72,105.7c14.9,0,27,12.1,27,27c0,14.9-12.1,27-27,27s-27-12.1-27-27C45,117.9,57.1,105.7,72,105.7z"/>
<path class="st0" d="M540,105.7c14.9,0,27,12.1,27,27c0,14.9-12.1,27-27,27s-27-12.1-27-27C513,117.9,525.1,105.7,540,105.7z"/>
<path class="st0" d="M481.5,690.8c14.9,0,27,12.1,27,27s-12.1,27-27,27c-14.9,0-27-12.1-27-27S466.6,690.8,481.5,690.8z"/>
<path class="st0" d="M423,690.8c14.9,0,27,12.1,27,27s-12.1,27-27,27c-14.9,0-27-12.1-27-27S408.1,690.8,423,690.8z"/>
<path class="st0" d="M130.5,690.8c14.9,0,27,12.1,27,27s-12.1,27-27,27s-27-12.1-27-27S115.6,690.8,130.5,690.8z"/>
<path class="st0" d="M189,690.8c14.9,0,27,12.1,27,27s-12.1,27-27,27c-14.9,0-27-12.1-27-27S174.1,690.8,189,690.8z"/>
<path class="st0" d="M247.5,690.8c14.9,0,27,12.1,27,27s-12.1,27-27,27c-14.9,0-27-12.1-27-27S232.6,690.8,247.5,690.8z"/>
<path class="st0" d="M306,690.8c14.9,0,27,12.1,27,27s-12.1,27-27,27s-27-12.1-27-27S291.1,690.8,306,690.8z"/>
<path class="st0" d="M364.5,690.8c14.9,0,27,12.1,27,27s-12.1,27-27,27s-27-12.1-27-27S349.6,690.8,364.5,690.8z"/>
<path class="st0" d="M72,690.8c14.9,0,27,12.1,27,27s-12.1,27-27,27s-27-12.1-27-27S57.1,690.8,72,690.8z"/>
<path class="st0" d="M540,690.8c14.9,0,27,12.1,27,27s-12.1,27-27,27s-27-12.1-27-27S525.1,690.8,540,690.8z"/>
<rect class="st0" width="612" height="792"/>
</svg>
