<?xml version="1.0" encoding="utf-8"?>
<!-- Generator: Adobe Illustrator 21.1.0, SVG Export Plug-In . SVG Version: 6.00 Build 0)  -->
<svg version="1.1" id="Layer_1" xmlns="http://www.w3.org/2000/svg" xmlns:xlink="http://www.w3.org/1999/xlink" x="0px" y="0px"
	 viewBox="0 0 612 792" style="enable-background:new 0 0 612 792;" xml:space="preserve">
<style type="text/css">
	.st0{fill:none;stroke:#000000;stroke-width:2;stroke-miterlimit:10;}
</style>
<path class="st0" d="M196.3,34.8c92,0,167.1,75,167.1,167.1c0,92-75,167.1-167.1,167.1S29.2,294,29.2,201.9
	C29.2,109.8,104.2,34.8,196.3,34.8z"/>
<path class="st0" d="M196.3,143.3c32.2,0,58.5,26.3,58.5,58.5s-26.3,58.5-58.5,58.5s-58.5-26.3-58.5-58.5S164,143.3,196.3,143.3z"/>
<path class="st0" d="M196.3,180.4c11.8,0,21.4,9.6,21.4,21.4c0,11.8-9.6,21.4-21.4,21.4c-11.8,0-21.4-9.6-21.4-21.4
	C174.9,190,184.5,180.4,196.3,180.4z"/>
<path class="st0" d="M415.7,423.1c92,0,167.1,75,167.1,167.1c0,92-75,167.1-167.1,167.1s-167.1-75-167.1-167.1
	C248.7,498.2,323.7,423.1,415.7,423.1z"/>
<path class="st0" d="M415.7,531.7c32.2,0,58.5,26.3,58.5,58.5s-26.3,58.5-58.5,58.5s-58.5-26.3-58.5-58.5S383.5,531.7,415.7,531.7z"
	/>
<path class="st0" d="M415.7,568.8c11.8,0,21.4,9.6,21.4,21.4c0,11.8-9.6,21.4-21.4,21.4s-21.4-9.6-21.4-21.4
	C394.4,578.4,404,568.8,415.7,568.8z"/>
<rect x="37.6" y="410.4" class="st0" width="128.7" height="338.4"/>
<rect x="190.9" y="410.4" class="st0" width="18" height="338.4"/>
<rect x="445.7" y="43.2" class="st0" width="128.7" height="338.4"/>
<rect x="403.1" y="43.2" class="st0" width="18" height="338.4"/>
<rect class="st0" width="612" height="792"/>
</svg>
