<?xml version="1.0" encoding="utf-8"?>
<!-- Generator: Adobe Illustrator 20.1.0, SVG Export Plug-In . SVG Version: 6.00 Build 0)  -->
<svg version="1.1" id="Layer_1" xmlns="http://www.w3.org/2000/svg" xmlns:xlink="http://www.w3.org/1999/xlink" x="0px" y="0px"
	 viewBox="0 0 612 792" style="enable-background:new 0 0 612 792;" xml:space="preserve">
<style type="text/css">
	.st0{fill:none;stroke:#000000;stroke-width:2;stroke-miterlimit:10;}
</style>
<g>
	<path class="st0" d="M291,180H21c-5,0-9-4-9-9V81c0-5,4-9,9-9h270c5,0,9,4,9,9v90C300,176,296,180,291,180z"/>
	<path class="st0" d="M591,180H321c-5,0-9-4-9-9V81c0-5,4-9,9-9h270c5,0,9,4,9,9v90C600,176,596,180,591,180z"/>
	<path class="st0" d="M291,288H21c-5,0-9-4-9-9v-90c0-5,4-9,9-9h270c5,0,9,4,9,9v90C300,284,296,288,291,288z"/>
	<path class="st0" d="M591,288H321c-5,0-9-4-9-9v-90c0-5,4-9,9-9h270c5,0,9,4,9,9v90C600,284,596,288,591,288z"/>
	<path class="st0" d="M291,396H21c-5,0-9-4-9-9v-90c0-5,4-9,9-9h270c5,0,9,4,9,9v90C300,392,296,396,291,396z"/>
	<path class="st0" d="M591,396H321c-5,0-9-4-9-9v-90c0-5,4-9,9-9h270c5,0,9,4,9,9v90C600,392,596,396,591,396z"/>
	<path class="st0" d="M291,504H21c-5,0-9-4-9-9v-90c0-5,4-9,9-9h270c5,0,9,4,9,9v90C300,500,296,504,291,504z"/>
	<path class="st0" d="M591,504H321c-5,0-9-4-9-9v-90c0-5,4-9,9-9h270c5,0,9,4,9,9v90C600,500,596,504,591,504z"/>
	<path class="st0" d="M291,612H21c-5,0-9-4-9-9v-90c0-5,4-9,9-9h270c5,0,9,4,9,9v90C300,608,296,612,291,612z"/>
	<path class="st0" d="M591,612H321c-5,0-9-4-9-9v-90c0-5,4-9,9-9h270c5,0,9,4,9,9v90C600,608,596,612,591,612z"/>
	<path class="st0" d="M291,720H21c-5,0-9-4-9-9v-90c0-5,4-9,9-9h270c5,0,9,4,9,9v90C300,716,296,720,291,720z"/>
	<path class="st0" d="M591,720H321c-5,0-9-4-9-9v-90c0-5,4-9,9-9h270c5,0,9,4,9,9v90C600,716,596,720,591,720z"/>
</g>
<rect x="0" class="st0" width="612" height="792"/>
</svg>
