<?xml version="1.0" encoding="utf-8"?>
<!-- Generator: Adobe Illustrator 20.1.0, SVG Export Plug-In . SVG Version: 6.00 Build 0)  -->
<svg version="1.1" id="Layer_1" xmlns="http://www.w3.org/2000/svg" xmlns:xlink="http://www.w3.org/1999/xlink" x="0px" y="0px"
	 viewBox="0 0 612 792" style="enable-background:new 0 0 612 792;" xml:space="preserve">
<style type="text/css">
	.st0{fill:none;stroke:#000000;stroke-width:2;stroke-miterlimit:10;}
</style>
<path class="st0" d="M43.9,414h114.7c3.1,0,5.7,6.5,5.7,14.5v304c0,8-2.6,14.5-5.7,14.5H43.9c-3.1,0-5.7-6.5-5.7-14.5v-304
	C38.3,420.5,40.8,414,43.9,414z"/>
<path class="st0" d="M453.4,45h114.7c3.1,0,5.7,6.5,5.7,14.5v304c0,8-2.6,14.5-5.7,14.5H453.4c-3.1,0-5.7-6.5-5.7-14.5v-304
	C447.8,51.5,450.3,45,453.4,45z"/>
<path class="st0" d="M204.8,45c91.7,0,166.5,74.8,166.5,166.5c0,91.7-74.8,166.5-166.5,166.5C113,378,38.3,303.2,38.3,211.5
	C38.3,119.8,113,45,204.8,45z"/>
<path class="st0" d="M204.8,153c32.2,0,58.5,26.3,58.5,58.5S237,270,204.8,270c-32.2,0-58.5-26.3-58.5-58.5S172.5,153,204.8,153z"/>
<path class="st0" d="M407.3,414c91.7,0,166.5,74.8,166.5,166.5S499,747,407.3,747s-166.5-74.8-166.5-166.5S315.5,414,407.3,414z"/>
<path class="st0" d="M407.3,522c32.2,0,58.5,26.3,58.5,58.5S439.5,639,407.3,639s-58.5-26.3-58.5-58.5S375,522,407.3,522z"/>
<path class="st0" d="M193.6,414h19.5c0.5,0,1,2.3,1,5.1v322.8c0,2.8-0.4,5.1-1,5.1h-19.5c-0.5,0-1-2.3-1-5.1V419.1
	C192.7,416.3,193.1,414,193.6,414z"/>
<path class="st0" d="M398.9,45h19.5c0.5,0,1,2.3,1,5.1v322.8c0,2.8-0.4,5.1-1,5.1h-19.5c-0.5,0-1-2.3-1-5.1V50.1
	C397.9,47.3,398.3,45,398.9,45z"/>
<rect class="st0" width="612" height="792"/>
</svg>
