<?xml version="1.0" encoding="utf-8"?>
<!-- Generator: Adobe Illustrator 20.1.0, SVG Export Plug-In . SVG Version: 6.00 Build 0)  -->
<svg version="1.1" id="Layer_1" xmlns="http://www.w3.org/2000/svg" xmlns:xlink="http://www.w3.org/1999/xlink" x="0px" y="0px"
	 viewBox="0 0 612 792" style="enable-background:new 0 0 612 792;" xml:space="preserve">
<style type="text/css">
	.st0{fill:none;stroke:#000000;stroke-width:2;stroke-miterlimit:10;}
</style>
<path class="st0" d="M468,36c19.8,0,36,16.2,36,36c0,19.8-16.2,36-36,36c-19.8,0-36-16.2-36-36C432,52.2,448.2,36,468,36z"/>
<path class="st0" d="M387,36c19.8,0,36,16.2,36,36c0,19.8-16.2,36-36,36s-36-16.2-36-36C351,52.2,367.2,36,387,36z"/>
<path class="st0" d="M144,36c19.8,0,36,16.2,36,36c0,19.8-16.2,36-36,36s-36-16.2-36-36C108,52.2,124.2,36,144,36z"/>
<path class="st0" d="M225,36c19.8,0,36,16.2,36,36c0,19.8-16.2,36-36,36s-36-16.2-36-36C189,52.2,205.2,36,225,36z"/>
<path class="st0" d="M306,36c19.8,0,36,16.2,36,36c0,19.8-16.2,36-36,36s-36-16.2-36-36C270,52.2,286.2,36,306,36z"/>
<path class="st0" d="M63,36c19.8,0,36,16.2,36,36c0,19.8-16.2,36-36,36S27,91.8,27,72C27,52.2,43.2,36,63,36z"/>
<path class="st0" d="M549,36c19.8,0,36,16.2,36,36c0,19.8-16.2,36-36,36c-19.8,0-36-16.2-36-36C513,52.2,529.2,36,549,36z"/>
<path class="st0" d="M468,198c19.8,0,36,16.2,36,36c0,19.8-16.2,36-36,36c-19.8,0-36-16.2-36-36C432,214.2,448.2,198,468,198z"/>
<path class="st0" d="M387,198c19.8,0,36,16.2,36,36c0,19.8-16.2,36-36,36s-36-16.2-36-36C351,214.2,367.2,198,387,198z"/>
<path class="st0" d="M144,198c19.8,0,36,16.2,36,36c0,19.8-16.2,36-36,36s-36-16.2-36-36C108,214.2,124.2,198,144,198z"/>
<path class="st0" d="M225,198c19.8,0,36,16.2,36,36c0,19.8-16.2,36-36,36s-36-16.2-36-36C189,214.2,205.2,198,225,198z"/>
<path class="st0" d="M306,198c19.8,0,36,16.2,36,36c0,19.8-16.2,36-36,36s-36-16.2-36-36C270,214.2,286.2,198,306,198z"/>
<path class="st0" d="M63,198c19.8,0,36,16.2,36,36c0,19.8-16.2,36-36,36s-36-16.2-36-36C27,214.2,43.2,198,63,198z"/>
<path class="st0" d="M549,198c19.8,0,36,16.2,36,36c0,19.8-16.2,36-36,36c-19.8,0-36-16.2-36-36C513,214.2,529.2,198,549,198z"/>
<path class="st0" d="M468,603c19.8,0,36,16.2,36,36s-16.2,36-36,36c-19.8,0-36-16.2-36-36S448.2,603,468,603z"/>
<path class="st0" d="M387,603c19.8,0,36,16.2,36,36s-16.2,36-36,36s-36-16.2-36-36S367.2,603,387,603z"/>
<path class="st0" d="M144,603c19.8,0,36,16.2,36,36s-16.2,36-36,36s-36-16.2-36-36S124.2,603,144,603z"/>
<path class="st0" d="M225,603c19.8,0,36,16.2,36,36s-16.2,36-36,36s-36-16.2-36-36S205.2,603,225,603z"/>
<path class="st0" d="M306,603c19.8,0,36,16.2,36,36s-16.2,36-36,36s-36-16.2-36-36S286.2,603,306,603z"/>
<path class="st0" d="M63,603c19.8,0,36,16.2,36,36s-16.2,36-36,36s-36-16.2-36-36S43.2,603,63,603z"/>
<path class="st0" d="M549,603c19.8,0,36,16.2,36,36s-16.2,36-36,36c-19.8,0-36-16.2-36-36S529.2,603,549,603z"/>
<path class="st0" d="M468,360c19.8,0,36,16.2,36,36s-16.2,36-36,36c-19.8,0-36-16.2-36-36S448.2,360,468,360z"/>
<path class="st0" d="M387,360c19.8,0,36,16.2,36,36s-16.2,36-36,36s-36-16.2-36-36S367.2,360,387,360z"/>
<path class="st0" d="M144,360c19.8,0,36,16.2,36,36s-16.2,36-36,36s-36-16.2-36-36S124.2,360,144,360z"/>
<path class="st0" d="M225,360c19.8,0,36,16.2,36,36s-16.2,36-36,36s-36-16.2-36-36S205.2,360,225,360z"/>
<path class="st0" d="M306,360c19.8,0,36,16.2,36,36s-16.2,36-36,36s-36-16.2-36-36S286.2,360,306,360z"/>
<path class="st0" d="M63,360c19.8,0,36,16.2,36,36s-16.2,36-36,36s-36-16.2-36-36S43.2,360,63,360z"/>
<path class="st0" d="M549,360c19.8,0,36,16.2,36,36s-16.2,36-36,36c-19.8,0-36-16.2-36-36S529.2,360,549,360z"/>
<path class="st0" d="M468,522c19.8,0,36,16.2,36,36c0,19.8-16.2,36-36,36c-19.8,0-36-16.2-36-36C432,538.2,448.2,522,468,522z"/>
<path class="st0" d="M387,522c19.8,0,36,16.2,36,36c0,19.8-16.2,36-36,36s-36-16.2-36-36C351,538.2,367.2,522,387,522z"/>
<path class="st0" d="M144,522c19.8,0,36,16.2,36,36c0,19.8-16.2,36-36,36s-36-16.2-36-36C108,538.2,124.2,522,144,522z"/>
<path class="st0" d="M225,522c19.8,0,36,16.2,36,36c0,19.8-16.2,36-36,36s-36-16.2-36-36C189,538.2,205.2,522,225,522z"/>
<path class="st0" d="M306,522c19.8,0,36,16.2,36,36c0,19.8-16.2,36-36,36s-36-16.2-36-36C270,538.2,286.2,522,306,522z"/>
<path class="st0" d="M63,522c19.8,0,36,16.2,36,36c0,19.8-16.2,36-36,36s-36-16.2-36-36C27,538.2,43.2,522,63,522z"/>
<path class="st0" d="M549,522c19.8,0,36,16.2,36,36c0,19.8-16.2,36-36,36c-19.8,0-36-16.2-36-36C513,538.2,529.2,522,549,522z"/>
<path class="st0" d="M468,117c19.8,0,36,16.2,36,36c0,19.8-16.2,36-36,36c-19.8,0-36-16.2-36-36C432,133.2,448.2,117,468,117z"/>
<path class="st0" d="M387,117c19.8,0,36,16.2,36,36c0,19.8-16.2,36-36,36s-36-16.2-36-36C351,133.2,367.2,117,387,117z"/>
<path class="st0" d="M144,117c19.8,0,36,16.2,36,36c0,19.8-16.2,36-36,36s-36-16.2-36-36C108,133.2,124.2,117,144,117z"/>
<path class="st0" d="M225,117c19.8,0,36,16.2,36,36c0,19.8-16.2,36-36,36s-36-16.2-36-36C189,133.2,205.2,117,225,117z"/>
<path class="st0" d="M306,117c19.8,0,36,16.2,36,36c0,19.8-16.2,36-36,36s-36-16.2-36-36C270,133.2,286.2,117,306,117z"/>
<path class="st0" d="M63,117c19.8,0,36,16.2,36,36c0,19.8-16.2,36-36,36s-36-16.2-36-36C27,133.2,43.2,117,63,117z"/>
<path class="st0" d="M549,117c19.8,0,36,16.2,36,36c0,19.8-16.2,36-36,36c-19.8,0-36-16.2-36-36C513,133.2,529.2,117,549,117z"/>
<path class="st0" d="M468,279c19.8,0,36,16.2,36,36c0,19.8-16.2,36-36,36c-19.8,0-36-16.2-36-36C432,295.2,448.2,279,468,279z"/>
<path class="st0" d="M387,279c19.8,0,36,16.2,36,36c0,19.8-16.2,36-36,36s-36-16.2-36-36C351,295.2,367.2,279,387,279z"/>
<path class="st0" d="M144,279c19.8,0,36,16.2,36,36c0,19.8-16.2,36-36,36s-36-16.2-36-36C108,295.2,124.2,279,144,279z"/>
<path class="st0" d="M225,279c19.8,0,36,16.2,36,36c0,19.8-16.2,36-36,36s-36-16.2-36-36C189,295.2,205.2,279,225,279z"/>
<path class="st0" d="M306,279c19.8,0,36,16.2,36,36c0,19.8-16.2,36-36,36s-36-16.2-36-36C270,295.2,286.2,279,306,279z"/>
<path class="st0" d="M63,279c19.8,0,36,16.2,36,36c0,19.8-16.2,36-36,36s-36-16.2-36-36C27,295.2,43.2,279,63,279z"/>
<path class="st0" d="M549,279c19.8,0,36,16.2,36,36c0,19.8-16.2,36-36,36c-19.8,0-36-16.2-36-36C513,295.2,529.2,279,549,279z"/>
<path class="st0" d="M468,441c19.8,0,36,16.2,36,36s-16.2,36-36,36c-19.8,0-36-16.2-36-36S448.2,441,468,441z"/>
<path class="st0" d="M387,441c19.8,0,36,16.2,36,36s-16.2,36-36,36s-36-16.2-36-36S367.2,441,387,441z"/>
<path class="st0" d="M144,441c19.8,0,36,16.2,36,36s-16.2,36-36,36s-36-16.2-36-36S124.2,441,144,441z"/>
<path class="st0" d="M225,441c19.8,0,36,16.2,36,36s-16.2,36-36,36s-36-16.2-36-36S205.2,441,225,441z"/>
<path class="st0" d="M306,441c19.8,0,36,16.2,36,36s-16.2,36-36,36s-36-16.2-36-36S286.2,441,306,441z"/>
<path class="st0" d="M63,441c19.8,0,36,16.2,36,36s-16.2,36-36,36s-36-16.2-36-36S43.2,441,63,441z"/>
<path class="st0" d="M549,441c19.8,0,36,16.2,36,36s-16.2,36-36,36c-19.8,0-36-16.2-36-36S529.2,441,549,441z"/>
<path class="st0" d="M468,684c19.8,0,36,16.2,36,36s-16.2,36-36,36c-19.8,0-36-16.2-36-36S448.2,684,468,684z"/>
<path class="st0" d="M387,684c19.8,0,36,16.2,36,36s-16.2,36-36,36s-36-16.2-36-36S367.2,684,387,684z"/>
<path class="st0" d="M144,684c19.8,0,36,16.2,36,36s-16.2,36-36,36s-36-16.2-36-36S124.2,684,144,684z"/>
<path class="st0" d="M225,684c19.8,0,36,16.2,36,36s-16.2,36-36,36s-36-16.2-36-36S205.2,684,225,684z"/>
<path class="st0" d="M306,684c19.8,0,36,16.2,36,36s-16.2,36-36,36s-36-16.2-36-36S286.2,684,306,684z"/>
<path class="st0" d="M63,684c19.8,0,36,16.2,36,36s-16.2,36-36,36s-36-16.2-36-36S43.2,684,63,684z"/>
<path class="st0" d="M549,684c19.8,0,36,16.2,36,36s-16.2,36-36,36c-19.8,0-36-16.2-36-36S529.2,684,549,684z"/>
<rect class="st0" width="612" height="792"/>
</svg>
