<?xml version="1.0" encoding="utf-8"?>
<!-- Generator: Adobe Illustrator 20.1.0, SVG Export Plug-In . SVG Version: 6.00 Build 0)  -->
<svg version="1.1" id="Layer_1" xmlns="http://www.w3.org/2000/svg" xmlns:xlink="http://www.w3.org/1999/xlink" x="0px" y="0px"
	 viewBox="0 0 612 792" style="enable-background:new 0 0 612 792;" xml:space="preserve">
<style type="text/css">
	.st0{fill:none;stroke:#000000;stroke-width:2;stroke-miterlimit:2.6131;}
</style>
<circle class="st0" cx="83.3" cy="247.5" r="72"/>
<circle class="st0" cx="83.3" cy="544.5" r="72"/>
<circle class="st0" cx="83.3" cy="396" r="72"/>
<circle class="st0" cx="83.3" cy="99" r="72"/>
<circle class="st0" cx="83.3" cy="693" r="72"/>
<circle class="st0" cx="231.8" cy="247.5" r="72"/>
<circle class="st0" cx="231.8" cy="544.5" r="72"/>
<circle class="st0" cx="231.8" cy="396" r="72"/>
<circle class="st0" cx="231.8" cy="99" r="72"/>
<circle class="st0" cx="231.8" cy="693" r="72"/>
<circle class="st0" cx="380.3" cy="247.5" r="72"/>
<circle class="st0" cx="380.3" cy="544.5" r="72"/>
<circle class="st0" cx="380.3" cy="396" r="72"/>
<circle class="st0" cx="380.3" cy="99" r="72"/>
<circle class="st0" cx="380.3" cy="693" r="72"/>
<circle class="st0" cx="528.8" cy="247.5" r="72"/>
<circle class="st0" cx="528.8" cy="544.5" r="72"/>
<circle class="st0" cx="528.8" cy="396" r="72"/>
<circle class="st0" cx="528.8" cy="99" r="72"/>
<circle class="st0" cx="528.8" cy="693" r="72"/>
<rect class="st0" width="612" height="792"/>
</svg>
