<?xml version="1.0" encoding="utf-8"?>
<!-- Generator: Adobe Illustrator 21.1.0, SVG Export Plug-In . SVG Version: 6.00 Build 0)  -->
<svg version="1.1" id="Template" xmlns="http://www.w3.org/2000/svg" xmlns:xlink="http://www.w3.org/1999/xlink" x="0px" y="0px"
	 viewBox="0 0 614 794" style="enable-background:new 0 0 614 794;" xml:space="preserve">
<style type="text/css">
	.st0{fill:none;stroke:#231F20;stroke-width:2;}
</style>
<title>SL1211</title>
<rect x="1" y="1" class="st0" width="612" height="792"/>
<path class="st0" d="M46,61.3h234c5,0,9,4,9,9v180c0,5-4,9-9,9H46c-5,0-9-4-9-9v-180C37,65.3,41,61.3,46,61.3z"/>
<path class="st0" d="M46,279.3h234c5,0,9,4,9,9v180c0,5-4,9-9,9H46c-5,0-9-4-9-9v-180C37,283.3,41,279.3,46,279.3z"/>
<path class="st0" d="M46,497.3h234c5,0,9,4,9,9v180c0,5-4,9-9,9H46c-5,0-9-4-9-9v-180C37,501.4,41,497.3,46,497.3z"/>
<path class="st0" d="M334.1,61.7h234c5,0,9,4,9,9v180c0,5-4,9-9,9h-234c-5,0-9-4-9-9v-180C325.1,65.7,329.1,61.7,334.1,61.7z"/>
<path class="st0" d="M334.1,279.7h234c5,0,9,4,9,9v180c0,5-4,9-9,9h-234c-5,0-9-4-9-9v-180C325.1,283.8,329.1,279.7,334.1,279.7z"/>
<path class="st0" d="M334.1,497.8h234c5,0,9,4,9,9v180c0,5-4,9-9,9h-234c-5,0-9-4-9-9v-180C325.1,501.8,329.1,497.8,334.1,497.8z"/>
</svg>
