<?xml version="1.0" encoding="utf-8"?>
<!-- Generator: Adobe Illustrator 20.1.0, SVG Export Plug-In . SVG Version: 6.00 Build 0)  -->
<svg version="1.1" id="Layer_1" xmlns="http://www.w3.org/2000/svg" xmlns:xlink="http://www.w3.org/1999/xlink" x="0px" y="0px"
	 viewBox="0 0 612 792" style="enable-background:new 0 0 612 792;" xml:space="preserve">
<style type="text/css">
	.st0{fill:none;stroke:#000000;stroke-width:2;stroke-miterlimit:10;}
</style>
<path class="st0" d="M16.6,36h185.8c2.9,0,5.3,4,5.3,8.9v180.2c0,4.9-2.4,8.9-5.3,8.9H16.6c-2.9,0-5.3-4-5.3-8.9V44.9
	C11.3,40,13.7,36,16.6,36z"/>
<path class="st0" d="M16.6,252h185.8c2.9,0,5.3,4,5.3,8.9v180.2c0,4.9-2.4,8.9-5.3,8.9H16.6c-2.9,0-5.3-4-5.3-8.9V260.9
	C11.3,256,13.7,252,16.6,252z"/>
<path class="st0" d="M16.6,468h185.8c2.9,0,5.3,4,5.3,8.9v180.2c0,4.9-2.4,8.9-5.3,8.9H16.6c-2.9,0-5.3-4-5.3-8.9V476.9
	C11.3,472,13.7,468,16.6,468z"/>
<path class="st0" d="M15.3,720h90.1c2.2,0,4.1,0.7,4.1,1.6v32.8c0,0.9-1.8,1.6-4.1,1.6H15.3c-2.2,0-4.1-0.7-4.1-1.6v-32.8
	C11.3,720.7,13.1,720,15.3,720z"/>
<path class="st0" d="M506.5,675.7h90.1c2.2,0,4.1,0.7,4.1,1.6v32.8c0,0.9-1.8,1.6-4.1,1.6h-90.1c-2.2,0-4.1-0.7-4.1-1.6v-32.8
	C502.5,676.4,504.3,675.7,506.5,675.7z"/>
<path class="st0" d="M506.5,720h90.1c2.2,0,4.1,0.7,4.1,1.6v32.8c0,0.9-1.8,1.6-4.1,1.6h-90.1c-2.2,0-4.1-0.7-4.1-1.6v-32.8
	C502.5,720.7,504.3,720,506.5,720z"/>
<path class="st0" d="M15.3,675.7h90.1c2.2,0,4.1,0.7,4.1,1.6v32.8c0,0.9-1.8,1.6-4.1,1.6H15.3c-2.2,0-4.1-0.7-4.1-1.6v-32.8
	C11.3,676.4,13.1,675.7,15.3,675.7z"/>
<path class="st0" d="M113.6,675.7h90.1c2.2,0,4.1,0.7,4.1,1.6v32.8c0,0.9-1.8,1.6-4.1,1.6h-90.1c-2.2,0-4.1-0.7-4.1-1.6v-32.8
	C109.5,676.4,111.3,675.7,113.6,675.7z"/>
<path class="st0" d="M211.8,675.7h90.1c2.2,0,4.1,0.7,4.1,1.6v32.8c0,0.9-1.8,1.6-4.1,1.6h-90.1c-2.2,0-4.1-0.7-4.1-1.6v-32.8
	C207.8,676.4,209.6,675.7,211.8,675.7z"/>
<path class="st0" d="M310.1,675.7h90.1c2.2,0,4.1,0.7,4.1,1.6v32.8c0,0.9-1.8,1.6-4.1,1.6h-90.1c-2.2,0-4.1-0.7-4.1-1.6v-32.8
	C306,676.4,307.8,675.7,310.1,675.7z"/>
<path class="st0" d="M408.3,675.7h90.1c2.2,0,4.1,0.7,4.1,1.6v32.8c0,0.9-1.8,1.6-4.1,1.6h-90.1c-2.2,0-4.1-0.7-4.1-1.6v-32.8
	C404.2,676.4,406.1,675.7,408.3,675.7z"/>
<path class="st0" d="M211.8,720h90.1c2.2,0,4.1,0.7,4.1,1.6v32.8c0,0.9-1.8,1.6-4.1,1.6h-90.1c-2.2,0-4.1-0.7-4.1-1.6v-32.8
	C207.8,720.7,209.6,720,211.8,720z"/>
<path class="st0" d="M310.1,720h90.1c2.2,0,4.1,0.7,4.1,1.6v32.8c0,0.9-1.8,1.6-4.1,1.6h-90.1c-2.2,0-4.1-0.7-4.1-1.6v-32.8
	C306,720.7,307.8,720,310.1,720z"/>
<path class="st0" d="M408.3,720h90.1c2.2,0,4.1,0.7,4.1,1.6v32.8c0,0.9-1.8,1.6-4.1,1.6h-90.1c-2.2,0-4.1-0.7-4.1-1.6v-32.8
	C404.2,720.7,406.1,720,408.3,720z"/>
<path class="st0" d="M113.6,720h90.1c2.2,0,4.1,0.7,4.1,1.6v32.8c0,0.9-1.8,1.6-4.1,1.6h-90.1c-2.2,0-4.1-0.7-4.1-1.6v-32.8
	C109.5,720.7,111.3,720,113.6,720z"/>
<path class="st0" d="M213.1,36h185.8c2.9,0,5.3,4,5.3,8.9v180.2c0,4.9-2.4,8.9-5.3,8.9H213.1c-2.9,0-5.3-4-5.3-8.9V44.9
	C207.7,40,210.2,36,213.1,36z"/>
<path class="st0" d="M213.1,252h185.8c2.9,0,5.3,4,5.3,8.9v180.2c0,4.9-2.4,8.9-5.3,8.9H213.1c-2.9,0-5.3-4-5.3-8.9V260.9
	C207.7,256,210.2,252,213.1,252z"/>
<path class="st0" d="M213.1,468h185.8c2.9,0,5.3,4,5.3,8.9v180.2c0,4.9-2.4,8.9-5.3,8.9H213.1c-2.9,0-5.3-4-5.3-8.9V476.9
	C207.7,472,210.2,468,213.1,468z"/>
<path class="st0" d="M409.6,36h185.8c2.9,0,5.3,4,5.3,8.9v180.2c0,4.9-2.4,8.9-5.3,8.9H409.6c-2.9,0-5.3-4-5.3-8.9V44.9
	C404.2,40,406.6,36,409.6,36z"/>
<path class="st0" d="M409.6,252h185.8c2.9,0,5.3,4,5.3,8.9v180.2c0,4.9-2.4,8.9-5.3,8.9H409.6c-2.9,0-5.3-4-5.3-8.9V260.9
	C404.2,256,406.6,252,409.6,252z"/>
<path class="st0" d="M409.6,468h185.8c2.9,0,5.3,4,5.3,8.9v180.2c0,4.9-2.4,8.9-5.3,8.9H409.6c-2.9,0-5.3-4-5.3-8.9V476.9
	C404.2,472,406.6,468,409.6,468z"/>
<rect x="0" class="st0" width="612" height="792"/>
</svg>
