<?xml version="1.0" encoding="utf-8"?>
<!-- Generator: Adobe Illustrator 20.1.0, SVG Export Plug-In . SVG Version: 6.00 Build 0)  -->
<svg version="1.1" id="Layer_1" xmlns="http://www.w3.org/2000/svg" xmlns:xlink="http://www.w3.org/1999/xlink" x="0px" y="0px"
	 viewBox="0 0 612 792" style="enable-background:new 0 0 612 792;" xml:space="preserve">
<style type="text/css">
	.st0{fill:none;stroke:#000000;stroke-width:2;stroke-miterlimit:10;}
</style>
<path class="st0" d="M306,409.5c91.6,0,166.3,74.7,166.3,166.3c0,91.6-74.7,166.3-166.3,166.3c-91.6,0-166.3-74.7-166.3-166.3
	C139.7,484.2,214.4,409.5,306,409.5z"/>
<path class="st0" d="M306,517.3c32.2,0,58.5,26.3,58.5,58.5s-26.3,58.5-58.5,58.5c-32.2,0-58.5-26.3-58.5-58.5
	S273.8,517.3,306,517.3z"/>
<path class="st0" d="M306,49.9c91.6,0,166.3,74.7,166.3,166.3c0,91.6-74.7,166.3-166.3,166.3c-91.6,0-166.3-74.7-166.3-166.3
	C139.7,124.6,214.4,49.9,306,49.9z"/>
<path class="st0" d="M306,157.7c32.2,0,58.5,26.3,58.5,58.5s-26.3,58.5-58.5,58.5c-32.2,0-58.5-26.3-58.5-58.5
	S273.8,157.7,306,157.7z"/>
<path class="st0" d="M36.6,403.7h15.1c0.3,0,0.6,1.6,0.6,3.6v331.2c0,2-0.3,3.6-0.6,3.6H36.6c-0.3,0-0.6-1.6-0.6-3.6V407.3
	C36,405.3,36.3,403.7,36.6,403.7z"/>
<path class="st0" d="M70.8,403.7h15.1c0.3,0,0.6,1.6,0.6,3.6v331.2c0,2-0.3,3.6-0.6,3.6H70.8c-0.3,0-0.6-1.6-0.6-3.6V407.3
	C70.2,405.3,70.5,403.7,70.8,403.7z"/>
<path class="st0" d="M70.8,49.9h15.1c0.3,0,0.6,1.6,0.6,3.6v331.2c0,2-0.3,3.6-0.6,3.6H70.8c-0.3,0-0.6-1.6-0.6-3.6V53.5
	C70.2,51.5,70.5,49.9,70.8,49.9z"/>
<path class="st0" d="M36.6,49.9h15.1c0.3,0,0.6,1.6,0.6,3.6v331.2c0,2-0.3,3.6-0.6,3.6H36.6c-0.3,0-0.6-1.6-0.6-3.6V53.5
	C36,51.5,36.3,49.9,36.6,49.9z"/>
<rect class="st0" width="612" height="792"/>
</svg>
