<?xml version="1.0" encoding="utf-8"?>
<!-- Generator: Adobe Illustrator 21.1.0, SVG Export Plug-In . SVG Version: 6.00 Build 0)  -->
<svg version="1.1" id="Layer_1" xmlns="http://www.w3.org/2000/svg" xmlns:xlink="http://www.w3.org/1999/xlink" x="0px" y="0px"
	 viewBox="0 0 612 792" style="enable-background:new 0 0 612 792;" xml:space="preserve">
<style type="text/css">
	.st0{fill:none;stroke:#000000;stroke-width:2;}
</style>
<g>
	<path class="st0" d="M207,767.2c0,3.7-3,6.8-6.8,6.8H15.8c-3.7,0-6.8-3-6.8-6.8v-18c0-3.7,3-6.8,6.8-6.8h184.5c3.7,0,6.8,3,6.8,6.8
		v18H207z"/>
	<path class="st0" d="M405,767.2c0,3.7-3,6.8-6.8,6.8H213.8c-3.7,0-6.8-3-6.8-6.8v-18c0-3.7,3-6.8,6.8-6.8h184.5
		c3.7,0,6.8,3,6.8,6.8L405,767.2L405,767.2z"/>
	<path class="st0" d="M603,767.2c0,3.7-3,6.8-6.8,6.8H411.8c-3.7,0-6.8-3-6.8-6.8v-18c0-3.7,3-6.8,6.8-6.8h184.5
		c3.7,0,6.8,3,6.8,6.8L603,767.2L603,767.2z"/>
</g>
<g>
	<path class="st0" d="M207,727c0,3.7-3,6.8-6.8,6.8H15.8c-3.7,0-6.8-3-6.8-6.8v-18c0-3.7,3-6.8,6.8-6.8h184.5c3.7,0,6.8,3,6.8,6.8
		v18H207z"/>
	<path class="st0" d="M405,727c0,3.7-3,6.8-6.8,6.8H213.8c-3.7,0-6.8-3-6.8-6.8v-18c0-3.7,3-6.8,6.8-6.8h184.5c3.7,0,6.8,3,6.8,6.8
		L405,727L405,727z"/>
	<path class="st0" d="M603,727c0,3.7-3,6.8-6.8,6.8H411.8c-3.7,0-6.8-3-6.8-6.8v-18c0-3.7,3-6.8,6.8-6.8h184.5c3.7,0,6.8,3,6.8,6.8
		L603,727L603,727z"/>
</g>
<g>
	<path class="st0" d="M207,686.7c0,3.7-3,6.8-6.8,6.8H15.8c-3.7,0-6.8-3-6.8-6.8v-18c0-3.7,3-6.8,6.8-6.8h184.5c3.7,0,6.8,3,6.8,6.8
		v18H207z"/>
	<path class="st0" d="M405,686.7c0,3.7-3,6.8-6.8,6.8H213.8c-3.7,0-6.8-3-6.8-6.8v-18c0-3.7,3-6.8,6.8-6.8h184.5
		c3.7,0,6.8,3,6.8,6.8L405,686.7L405,686.7z"/>
	<path class="st0" d="M603,686.7c0,3.7-3,6.8-6.8,6.8H411.8c-3.7,0-6.8-3-6.8-6.8v-18c0-3.7,3-6.8,6.8-6.8h184.5
		c3.7,0,6.8,3,6.8,6.8L603,686.7L603,686.7z"/>
</g>
<g>
	<path class="st0" d="M207,606.2c0,3.7-3,6.8-6.8,6.8H15.8c-3.7,0-6.8-3-6.8-6.8v-18c0-3.7,3-6.8,6.8-6.8h184.5c3.7,0,6.8,3,6.8,6.8
		v18H207z"/>
	<path class="st0" d="M405,606.2c0,3.7-3,6.8-6.8,6.8H213.8c-3.7,0-6.8-3-6.8-6.8v-18c0-3.7,3-6.8,6.8-6.8h184.5
		c3.7,0,6.8,3,6.8,6.8L405,606.2L405,606.2z"/>
	<path class="st0" d="M603,606.2c0,3.7-3,6.8-6.8,6.8H411.8c-3.7,0-6.8-3-6.8-6.8v-18c0-3.7,3-6.8,6.8-6.8h184.5
		c3.7,0,6.8,3,6.8,6.8L603,606.2L603,606.2z"/>
</g>
<g>
	<path class="st0" d="M207,566c0,3.7-3,6.8-6.8,6.8H15.8c-3.7,0-6.8-3-6.8-6.8v-18c0-3.7,3-6.8,6.8-6.8h184.5c3.7,0,6.8,3,6.8,6.8
		v18H207z"/>
	<path class="st0" d="M405,566c0,3.7-3,6.8-6.8,6.8H213.8c-3.7,0-6.8-3-6.8-6.8v-18c0-3.7,3-6.8,6.8-6.8h184.5c3.7,0,6.8,3,6.8,6.8
		L405,566L405,566z"/>
	<path class="st0" d="M603,566c0,3.7-3,6.8-6.8,6.8H411.8c-3.7,0-6.8-3-6.8-6.8v-18c0-3.7,3-6.8,6.8-6.8h184.5c3.7,0,6.8,3,6.8,6.8
		L603,566L603,566z"/>
</g>
<g>
	<path class="st0" d="M207,485.5c0,3.7-3,6.8-6.8,6.8H15.8c-3.7,0-6.8-3-6.8-6.8v-18c0-3.7,3-6.8,6.8-6.8h184.5c3.7,0,6.8,3,6.8,6.8
		v18H207z"/>
	<path class="st0" d="M405,485.5c0,3.7-3,6.8-6.8,6.8H213.8c-3.7,0-6.8-3-6.8-6.8v-18c0-3.7,3-6.8,6.8-6.8h184.5
		c3.7,0,6.8,3,6.8,6.8L405,485.5L405,485.5z"/>
	<path class="st0" d="M603,485.5c0,3.7-3,6.8-6.8,6.8H411.8c-3.7,0-6.8-3-6.8-6.8v-18c0-3.7,3-6.8,6.8-6.8h184.5
		c3.7,0,6.8,3,6.8,6.8L603,485.5L603,485.5z"/>
</g>
<g>
	<path class="st0" d="M207,445.2c0,3.7-3,6.8-6.8,6.8H15.8c-3.7,0-6.8-3-6.8-6.8v-18c0-3.7,3-6.8,6.8-6.8h184.5c3.7,0,6.8,3,6.8,6.8
		v18H207z"/>
	<path class="st0" d="M405,445.2c0,3.7-3,6.8-6.8,6.8H213.8c-3.7,0-6.8-3-6.8-6.8v-18c0-3.7,3-6.8,6.8-6.8h184.5
		c3.7,0,6.8,3,6.8,6.8L405,445.2L405,445.2z"/>
	<path class="st0" d="M603,445.2c0,3.7-3,6.8-6.8,6.8H411.8c-3.7,0-6.8-3-6.8-6.8v-18c0-3.7,3-6.8,6.8-6.8h184.5
		c3.7,0,6.8,3,6.8,6.8L603,445.2L603,445.2z"/>
</g>
<g>
	<path class="st0" d="M207,405c0,3.7-3,6.8-6.8,6.8H15.8c-3.7,0-6.8-3-6.8-6.8v-18c0-3.7,3-6.8,6.8-6.8h184.5c3.7,0,6.8,3,6.8,6.8
		v18H207z"/>
	<path class="st0" d="M405,405c0,3.7-3,6.8-6.8,6.8H213.8c-3.7,0-6.8-3-6.8-6.8v-18c0-3.7,3-6.8,6.8-6.8h184.5c3.7,0,6.8,3,6.8,6.8
		L405,405L405,405z"/>
	<path class="st0" d="M603,405c0,3.7-3,6.8-6.8,6.8H411.8c-3.7,0-6.8-3-6.8-6.8v-18c0-3.7,3-6.8,6.8-6.8h184.5c3.7,0,6.8,3,6.8,6.8
		L603,405L603,405z"/>
</g>
<g>
	<path class="st0" d="M207,324.5c0,3.7-3,6.8-6.8,6.8H15.8c-3.7,0-6.8-3-6.8-6.8v-18c0-3.7,3-6.8,6.8-6.8h184.5c3.7,0,6.8,3,6.8,6.8
		v18H207z"/>
	<path class="st0" d="M405,324.5c0,3.7-3,6.8-6.8,6.8H213.8c-3.7,0-6.8-3-6.8-6.8v-18c0-3.7,3-6.8,6.8-6.8h184.5
		c3.7,0,6.8,3,6.8,6.8L405,324.5L405,324.5z"/>
	<path class="st0" d="M603,324.5c0,3.7-3,6.8-6.8,6.8H411.8c-3.7,0-6.8-3-6.8-6.8v-18c0-3.7,3-6.8,6.8-6.8h184.5
		c3.7,0,6.8,3,6.8,6.8L603,324.5L603,324.5z"/>
</g>
<g>
	<path class="st0" d="M207,284.2c0,3.7-3,6.8-6.8,6.8H15.8c-3.7,0-6.8-3-6.8-6.8v-18c0-3.7,3-6.8,6.8-6.8h184.5c3.7,0,6.8,3,6.8,6.8
		v18H207z"/>
	<path class="st0" d="M405,284.2c0,3.7-3,6.8-6.8,6.8H213.8c-3.7,0-6.8-3-6.8-6.8v-18c0-3.7,3-6.8,6.8-6.8h184.5
		c3.7,0,6.8,3,6.8,6.8L405,284.2L405,284.2z"/>
	<path class="st0" d="M603,284.2c0,3.7-3,6.8-6.8,6.8H411.8c-3.7,0-6.8-3-6.8-6.8v-18c0-3.7,3-6.8,6.8-6.8h184.5
		c3.7,0,6.8,3,6.8,6.8L603,284.2L603,284.2z"/>
</g>
<g>
	<path class="st0" d="M207,203.7c0,3.7-3,6.8-6.8,6.8H15.8c-3.7,0-6.8-3-6.8-6.8v-18c0-3.7,3-6.8,6.8-6.8h184.5c3.7,0,6.8,3,6.8,6.8
		v18H207z"/>
	<path class="st0" d="M405,203.7c0,3.7-3,6.8-6.8,6.8H213.8c-3.7,0-6.8-3-6.8-6.8v-18c0-3.7,3-6.8,6.8-6.8h184.5
		c3.7,0,6.8,3,6.8,6.8L405,203.7L405,203.7z"/>
	<path class="st0" d="M603,203.7c0,3.7-3,6.8-6.8,6.8H411.8c-3.7,0-6.8-3-6.8-6.8v-18c0-3.7,3-6.8,6.8-6.8h184.5
		c3.7,0,6.8,3,6.8,6.8L603,203.7L603,203.7z"/>
</g>
<g>
	<path class="st0" d="M207,123.2c0,3.7-3,6.7-6.8,6.7H15.8c-3.7,0-6.8-3-6.8-6.7v-18c0-3.7,3-6.8,6.8-6.8h184.5c3.7,0,6.8,3,6.8,6.8
		v18H207z"/>
	<path class="st0" d="M405,123.2c0,3.7-3,6.7-6.8,6.7H213.8c-3.7,0-6.8-3-6.8-6.7v-18c0-3.7,3-6.8,6.8-6.8h184.5
		c3.7,0,6.8,3,6.8,6.8L405,123.2L405,123.2z"/>
	<path class="st0" d="M603,123.2c0,3.7-3,6.7-6.8,6.7H411.8c-3.7,0-6.8-3-6.8-6.7v-18c0-3.7,3-6.8,6.8-6.8h184.5
		c3.7,0,6.8,3,6.8,6.8L603,123.2L603,123.2z"/>
</g>
<g>
	<path class="st0" d="M207,83c0,3.7-3,6.8-6.8,6.8H15.8C12,89.7,9,86.7,9,83V65c0-3.7,3-6.8,6.8-6.8h184.5c3.7,0,6.8,3,6.8,6.8v18
		H207z"/>
	<path class="st0" d="M405,83c0,3.7-3,6.8-6.8,6.8H213.8c-3.7,0-6.8-3-6.8-6.8V65c0-3.7,3-6.8,6.8-6.8h184.5c3.7,0,6.8,3,6.8,6.8
		L405,83L405,83z"/>
	<path class="st0" d="M603,83c0,3.7-3,6.8-6.8,6.8H411.8c-3.7,0-6.8-3-6.8-6.8V65c0-3.7,3-6.8,6.8-6.8h184.5c3.7,0,6.8,3,6.8,6.8
		L603,83L603,83z"/>
</g>
<g>
	<path class="st0" d="M207,42.7c0,3.7-3,6.8-6.8,6.8H15.8c-3.7,0-6.8-3-6.8-6.8v-18C9,21,12,18,15.8,18h184.5c3.7,0,6.8,3,6.8,6.8
		v17.9H207z"/>
	<path class="st0" d="M405,42.7c0,3.7-3,6.8-6.8,6.8H213.8c-3.7,0-6.8-3-6.8-6.8v-18c0-3.7,3-6.8,6.8-6.8h184.5c3.7,0,6.8,3,6.8,6.8
		L405,42.7L405,42.7z"/>
	<path class="st0" d="M603,42.7c0,3.7-3,6.8-6.8,6.8H411.8c-3.7,0-6.8-3-6.8-6.8v-18c0-3.7,3-6.8,6.8-6.8h184.5c3.7,0,6.8,3,6.8,6.8
		L603,42.7L603,42.7z"/>
</g>
<g>
	<path class="st0" d="M207,163.5c0,3.7-3,6.8-6.8,6.8H15.8c-3.7,0-6.8-3-6.8-6.8v-18c0-3.7,3-6.8,6.8-6.8h184.5c3.7,0,6.8,3,6.8,6.8
		v18H207z"/>
	<path class="st0" d="M405,163.5c0,3.7-3,6.8-6.8,6.8H213.8c-3.7,0-6.8-3-6.8-6.8v-18c0-3.7,3-6.8,6.8-6.8h184.5
		c3.7,0,6.8,3,6.8,6.8L405,163.5L405,163.5z"/>
	<path class="st0" d="M603,163.5c0,3.7-3,6.8-6.8,6.8H411.8c-3.7,0-6.8-3-6.8-6.8v-18c0-3.7,3-6.8,6.8-6.8h184.5
		c3.7,0,6.8,3,6.8,6.8L603,163.5L603,163.5z"/>
</g>
<g>
	<path class="st0" d="M207,364.7c0,3.7-3,6.8-6.8,6.8H15.8c-3.7,0-6.8-3-6.8-6.8v-18c0-3.7,3-6.8,6.8-6.8h184.5c3.7,0,6.8,3,6.8,6.8
		v18H207z"/>
	<path class="st0" d="M405,364.7c0,3.7-3,6.8-6.8,6.8H213.8c-3.7,0-6.8-3-6.8-6.8v-18c0-3.7,3-6.8,6.8-6.8h184.5
		c3.7,0,6.8,3,6.8,6.8L405,364.7L405,364.7z"/>
	<path class="st0" d="M603,364.7c0,3.7-3,6.8-6.8,6.8H411.8c-3.7,0-6.8-3-6.8-6.8v-18c0-3.7,3-6.8,6.8-6.8h184.5
		c3.7,0,6.8,3,6.8,6.8L603,364.7L603,364.7z"/>
</g>
<g>
	<path class="st0" d="M207,244c0,3.7-3,6.8-6.8,6.8H15.8c-3.7,0-6.8-3-6.8-6.8v-18c0-3.7,3-6.8,6.8-6.8h184.5c3.7,0,6.8,3,6.8,6.8
		v18H207z"/>
	<path class="st0" d="M405,244c0,3.7-3,6.8-6.8,6.8H213.8c-3.7,0-6.8-3-6.8-6.8v-18c0-3.7,3-6.8,6.8-6.8h184.5c3.7,0,6.8,3,6.8,6.8
		L405,244L405,244z"/>
	<path class="st0" d="M603,244c0,3.7-3,6.8-6.8,6.8H411.8c-3.7,0-6.8-3-6.8-6.8v-18c0-3.7,3-6.8,6.8-6.8h184.5c3.7,0,6.8,3,6.8,6.8
		L603,244L603,244z"/>
</g>
<g>
	<path class="st0" d="M207,525.7c0,3.7-3,6.8-6.8,6.8H15.8c-3.7,0-6.8-3-6.8-6.8v-18c0-3.7,3-6.8,6.8-6.8h184.5c3.7,0,6.8,3,6.8,6.8
		v18H207z"/>
	<path class="st0" d="M405,525.7c0,3.7-3,6.8-6.8,6.8H213.8c-3.7,0-6.8-3-6.8-6.8v-18c0-3.7,3-6.8,6.8-6.8h184.5
		c3.7,0,6.8,3,6.8,6.8L405,525.7L405,525.7z"/>
	<path class="st0" d="M603,525.7c0,3.7-3,6.8-6.8,6.8H411.8c-3.7,0-6.8-3-6.8-6.8v-18c0-3.7,3-6.8,6.8-6.8h184.5
		c3.7,0,6.8,3,6.8,6.8L603,525.7L603,525.7z"/>
</g>
<g>
	<path class="st0" d="M207,646.5c0,3.7-3,6.8-6.8,6.8H15.8c-3.7,0-6.8-3-6.8-6.8v-18c0-3.7,3-6.8,6.8-6.8h184.5c3.7,0,6.8,3,6.8,6.8
		v18H207z"/>
	<path class="st0" d="M405,646.5c0,3.7-3,6.8-6.8,6.8H213.8c-3.7,0-6.8-3-6.8-6.8v-18c0-3.7,3-6.8,6.8-6.8h184.5
		c3.7,0,6.8,3,6.8,6.8L405,646.5L405,646.5z"/>
	<path class="st0" d="M603,646.5c0,3.7-3,6.8-6.8,6.8H411.8c-3.7,0-6.8-3-6.8-6.8v-18c0-3.7,3-6.8,6.8-6.8h184.5
		c3.7,0,6.8,3,6.8,6.8L603,646.5L603,646.5z"/>
</g>
<rect class="st0" width="612" height="792"/>
</svg>
