<?xml version="1.0" encoding="utf-8"?>
<!-- Generator: Adobe Illustrator 20.1.0, SVG Export Plug-In . SVG Version: 6.00 Build 0)  -->
<svg version="1.1" id="Layer_1" xmlns="http://www.w3.org/2000/svg" xmlns:xlink="http://www.w3.org/1999/xlink" x="0px" y="0px"
	 viewBox="0 0 612 792" style="enable-background:new 0 0 612 792;" xml:space="preserve">
<style type="text/css">
	.st0{fill:none;stroke:#000000;stroke-width:2;}
</style>
<g>
	<g>
		<path class="st0" d="M91,37c0,2.5-2,4.5-4.5,4.5h-63c-2.5,0-4.5-2-4.5-4.5v-9c0-2.5,2-4.5,4.5-4.5h63c2.5,0,4.5,2,4.5,4.5V37z"/>
		<path class="st0" d="M91,766c0,2.5-2,4.5-4.5,4.5h-63c-2.5,0-4.5-2-4.5-4.5v-9c0-2.5,2-4.5,4.5-4.5h63c2.5,0,4.5,2,4.5,4.5V766z"
			/>
		<path class="st0" d="M91,739c0,2.5-2,4.5-4.5,4.5h-63c-2.5,0-4.5-2-4.5-4.5v-9c0-2.5,2-4.5,4.5-4.5h63c2.5,0,4.5,2,4.5,4.5V739z"
			/>
		<path class="st0" d="M91,712c0,2.5-2,4.5-4.5,4.5h-63c-2.5,0-4.5-2-4.5-4.5v-9c0-2.5,2-4.5,4.5-4.5h63c2.5,0,4.5,2,4.5,4.5V712z"
			/>
		<path class="st0" d="M91,685c0,2.5-2,4.5-4.5,4.5h-63c-2.5,0-4.5-2-4.5-4.5v-9c0-2.5,2-4.5,4.5-4.5h63c2.5,0,4.5,2,4.5,4.5V685z"
			/>
		<path class="st0" d="M91,658c0,2.5-2,4.5-4.5,4.5h-63c-2.5,0-4.5-2-4.5-4.5v-9c0-2.5,2-4.5,4.5-4.5h63c2.5,0,4.5,2,4.5,4.5V658z"
			/>
		<path class="st0" d="M91,631c0,2.5-2,4.5-4.5,4.5h-63c-2.5,0-4.5-2-4.5-4.5v-9c0-2.5,2-4.5,4.5-4.5h63c2.5,0,4.5,2,4.5,4.5V631z"
			/>
		<path class="st0" d="M91,604c0,2.5-2,4.5-4.5,4.5h-63c-2.5,0-4.5-2-4.5-4.5v-9c0-2.5,2-4.5,4.5-4.5h63c2.5,0,4.5,2,4.5,4.5V604z"
			/>
		<path class="st0" d="M91,577c0,2.5-2,4.5-4.5,4.5h-63c-2.5,0-4.5-2-4.5-4.5v-9c0-2.5,2-4.5,4.5-4.5h63c2.5,0,4.5,2,4.5,4.5V577z"
			/>
		<path class="st0" d="M91,550c0,2.5-2,4.5-4.5,4.5h-63c-2.5,0-4.5-2-4.5-4.5v-9c0-2.5,2-4.5,4.5-4.5h63c2.5,0,4.5,2,4.5,4.5V550z"
			/>
		<path class="st0" d="M91,523c0,2.5-2,4.5-4.5,4.5h-63c-2.5,0-4.5-2-4.5-4.5v-9c0-2.5,2-4.5,4.5-4.5h63c2.5,0,4.5,2,4.5,4.5V523z"
			/>
		<path class="st0" d="M91,496c0,2.5-2,4.5-4.5,4.5h-63c-2.5,0-4.5-2-4.5-4.5v-9c0-2.5,2-4.5,4.5-4.5h63c2.5,0,4.5,2,4.5,4.5V496z"
			/>
		<path class="st0" d="M91,469c0,2.5-2,4.5-4.5,4.5h-63c-2.5,0-4.5-2-4.5-4.5v-9c0-2.5,2-4.5,4.5-4.5h63c2.5,0,4.5,2,4.5,4.5V469z"
			/>
		<path class="st0" d="M91,442c0,2.5-2,4.5-4.5,4.5h-63c-2.5,0-4.5-2-4.5-4.5v-9c0-2.5,2-4.5,4.5-4.5h63c2.5,0,4.5,2,4.5,4.5V442z"
			/>
		<path class="st0" d="M91,415c0,2.5-2,4.5-4.5,4.5h-63c-2.5,0-4.5-2-4.5-4.5v-9c0-2.5,2-4.5,4.5-4.5h63c2.5,0,4.5,2,4.5,4.5V415z"
			/>
		<path class="st0" d="M91,388c0,2.5-2,4.5-4.5,4.5h-63c-2.5,0-4.5-2-4.5-4.5v-9c0-2.5,2-4.5,4.5-4.5h63c2.5,0,4.5,2,4.5,4.5V388z"
			/>
		<path class="st0" d="M91,361c0,2.5-2,4.5-4.5,4.5h-63c-2.5,0-4.5-2-4.5-4.5v-9c0-2.5,2-4.5,4.5-4.5h63c2.5,0,4.5,2,4.5,4.5V361z"
			/>
		<path class="st0" d="M91,334c0,2.5-2,4.5-4.5,4.5h-63c-2.5,0-4.5-2-4.5-4.5v-9c0-2.5,2-4.5,4.5-4.5h63c2.5,0,4.5,2,4.5,4.5V334z"
			/>
		<path class="st0" d="M91,307c0,2.5-2,4.5-4.5,4.5h-63c-2.5,0-4.5-2-4.5-4.5v-9c0-2.5,2-4.5,4.5-4.5h63c2.5,0,4.5,2,4.5,4.5V307z"
			/>
		<path class="st0" d="M91,280c0,2.5-2,4.5-4.5,4.5h-63c-2.5,0-4.5-2-4.5-4.5v-9c0-2.5,2-4.5,4.5-4.5h63c2.5,0,4.5,2,4.5,4.5V280z"
			/>
		<path class="st0" d="M91,253c0,2.5-2,4.5-4.5,4.5h-63c-2.5,0-4.5-2-4.5-4.5v-9c0-2.5,2-4.5,4.5-4.5h63c2.5,0,4.5,2,4.5,4.5V253z"
			/>
		<path class="st0" d="M91,226c0,2.5-2,4.5-4.5,4.5h-63c-2.5,0-4.5-2-4.5-4.5v-9c0-2.5,2-4.5,4.5-4.5h63c2.5,0,4.5,2,4.5,4.5V226z"
			/>
		<path class="st0" d="M91,199c0,2.5-2,4.5-4.5,4.5h-63c-2.5,0-4.5-2-4.5-4.5v-9c0-2.5,2-4.5,4.5-4.5h63c2.5,0,4.5,2,4.5,4.5V199z"
			/>
		<path class="st0" d="M91,172c0,2.5-2,4.5-4.5,4.5h-63c-2.5,0-4.5-2-4.5-4.5v-9c0-2.5,2-4.5,4.5-4.5h63c2.5,0,4.5,2,4.5,4.5V172z"
			/>
		<path class="st0" d="M91,145c0,2.5-2,4.5-4.5,4.5h-63c-2.5,0-4.5-2-4.5-4.5v-9c0-2.5,2-4.5,4.5-4.5h63c2.5,0,4.5,2,4.5,4.5V145z"
			/>
		<path class="st0" d="M91,118c0,2.5-2,4.5-4.5,4.5h-63c-2.5,0-4.5-2-4.5-4.5v-9c0-2.5,2-4.5,4.5-4.5h63c2.5,0,4.5,2,4.5,4.5V118z"
			/>
		<path class="st0" d="M91,91c0,2.5-2,4.5-4.5,4.5h-63c-2.5,0-4.5-2-4.5-4.5v-9c0-2.5,2-4.5,4.5-4.5h63c2.5,0,4.5,2,4.5,4.5V91z"/>
		<path class="st0" d="M91,64c0,2.5-2,4.5-4.5,4.5h-63c-2.5,0-4.5-2-4.5-4.5v-9c0-2.5,2-4.5,4.5-4.5h63c2.5,0,4.5,2,4.5,4.5V64z"/>
	</g>
	<g>
		<path class="st0" d="M595,37c0,2.5-2,4.5-4.5,4.5h-63c-2.5,0-4.5-2-4.5-4.5v-9c0-2.5,2-4.5,4.5-4.5h63c2.5,0,4.5,2,4.5,4.5V37z"/>
		<path class="st0" d="M595,766c0,2.5-2,4.5-4.5,4.5h-63c-2.5,0-4.5-2-4.5-4.5v-9c0-2.5,2-4.5,4.5-4.5h63c2.5,0,4.5,2,4.5,4.5V766z"
			/>
		<path class="st0" d="M595,739c0,2.5-2,4.5-4.5,4.5h-63c-2.5,0-4.5-2-4.5-4.5v-9c0-2.5,2-4.5,4.5-4.5h63c2.5,0,4.5,2,4.5,4.5V739z"
			/>
		<path class="st0" d="M595,712c0,2.5-2,4.5-4.5,4.5h-63c-2.5,0-4.5-2-4.5-4.5v-9c0-2.5,2-4.5,4.5-4.5h63c2.5,0,4.5,2,4.5,4.5V712z"
			/>
		<path class="st0" d="M595,685c0,2.5-2,4.5-4.5,4.5h-63c-2.5,0-4.5-2-4.5-4.5v-9c0-2.5,2-4.5,4.5-4.5h63c2.5,0,4.5,2,4.5,4.5V685z"
			/>
		<path class="st0" d="M595,658c0,2.5-2,4.5-4.5,4.5h-63c-2.5,0-4.5-2-4.5-4.5v-9c0-2.5,2-4.5,4.5-4.5h63c2.5,0,4.5,2,4.5,4.5V658z"
			/>
		<path class="st0" d="M595,631c0,2.5-2,4.5-4.5,4.5h-63c-2.5,0-4.5-2-4.5-4.5v-9c0-2.5,2-4.5,4.5-4.5h63c2.5,0,4.5,2,4.5,4.5V631z"
			/>
		<path class="st0" d="M595,604c0,2.5-2,4.5-4.5,4.5h-63c-2.5,0-4.5-2-4.5-4.5v-9c0-2.5,2-4.5,4.5-4.5h63c2.5,0,4.5,2,4.5,4.5V604z"
			/>
		<path class="st0" d="M595,577c0,2.5-2,4.5-4.5,4.5h-63c-2.5,0-4.5-2-4.5-4.5v-9c0-2.5,2-4.5,4.5-4.5h63c2.5,0,4.5,2,4.5,4.5V577z"
			/>
		<path class="st0" d="M595,550c0,2.5-2,4.5-4.5,4.5h-63c-2.5,0-4.5-2-4.5-4.5v-9c0-2.5,2-4.5,4.5-4.5h63c2.5,0,4.5,2,4.5,4.5V550z"
			/>
		<path class="st0" d="M595,523c0,2.5-2,4.5-4.5,4.5h-63c-2.5,0-4.5-2-4.5-4.5v-9c0-2.5,2-4.5,4.5-4.5h63c2.5,0,4.5,2,4.5,4.5V523z"
			/>
		<path class="st0" d="M595,496c0,2.5-2,4.5-4.5,4.5h-63c-2.5,0-4.5-2-4.5-4.5v-9c0-2.5,2-4.5,4.5-4.5h63c2.5,0,4.5,2,4.5,4.5V496z"
			/>
		<path class="st0" d="M595,469c0,2.5-2,4.5-4.5,4.5h-63c-2.5,0-4.5-2-4.5-4.5v-9c0-2.5,2-4.5,4.5-4.5h63c2.5,0,4.5,2,4.5,4.5V469z"
			/>
		<path class="st0" d="M595,442c0,2.5-2,4.5-4.5,4.5h-63c-2.5,0-4.5-2-4.5-4.5v-9c0-2.5,2-4.5,4.5-4.5h63c2.5,0,4.5,2,4.5,4.5V442z"
			/>
		<path class="st0" d="M595,415c0,2.5-2,4.5-4.5,4.5h-63c-2.5,0-4.5-2-4.5-4.5v-9c0-2.5,2-4.5,4.5-4.5h63c2.5,0,4.5,2,4.5,4.5V415z"
			/>
		<path class="st0" d="M595,388c0,2.5-2,4.5-4.5,4.5h-63c-2.5,0-4.5-2-4.5-4.5v-9c0-2.5,2-4.5,4.5-4.5h63c2.5,0,4.5,2,4.5,4.5V388z"
			/>
		<path class="st0" d="M595,361c0,2.5-2,4.5-4.5,4.5h-63c-2.5,0-4.5-2-4.5-4.5v-9c0-2.5,2-4.5,4.5-4.5h63c2.5,0,4.5,2,4.5,4.5V361z"
			/>
		<path class="st0" d="M595,334c0,2.5-2,4.5-4.5,4.5h-63c-2.5,0-4.5-2-4.5-4.5v-9c0-2.5,2-4.5,4.5-4.5h63c2.5,0,4.5,2,4.5,4.5V334z"
			/>
		<path class="st0" d="M595,307c0,2.5-2,4.5-4.5,4.5h-63c-2.5,0-4.5-2-4.5-4.5v-9c0-2.5,2-4.5,4.5-4.5h63c2.5,0,4.5,2,4.5,4.5V307z"
			/>
		<path class="st0" d="M595,280c0,2.5-2,4.5-4.5,4.5h-63c-2.5,0-4.5-2-4.5-4.5v-9c0-2.5,2-4.5,4.5-4.5h63c2.5,0,4.5,2,4.5,4.5V280z"
			/>
		<path class="st0" d="M595,253c0,2.5-2,4.5-4.5,4.5h-63c-2.5,0-4.5-2-4.5-4.5v-9c0-2.5,2-4.5,4.5-4.5h63c2.5,0,4.5,2,4.5,4.5V253z"
			/>
		<path class="st0" d="M595,226c0,2.5-2,4.5-4.5,4.5h-63c-2.5,0-4.5-2-4.5-4.5v-9c0-2.5,2-4.5,4.5-4.5h63c2.5,0,4.5,2,4.5,4.5V226z"
			/>
		<path class="st0" d="M595,199c0,2.5-2,4.5-4.5,4.5h-63c-2.5,0-4.5-2-4.5-4.5v-9c0-2.5,2-4.5,4.5-4.5h63c2.5,0,4.5,2,4.5,4.5V199z"
			/>
		<path class="st0" d="M595,172c0,2.5-2,4.5-4.5,4.5h-63c-2.5,0-4.5-2-4.5-4.5v-9c0-2.5,2-4.5,4.5-4.5h63c2.5,0,4.5,2,4.5,4.5V172z"
			/>
		<path class="st0" d="M595,145c0,2.5-2,4.5-4.5,4.5h-63c-2.5,0-4.5-2-4.5-4.5v-9c0-2.5,2-4.5,4.5-4.5h63c2.5,0,4.5,2,4.5,4.5V145z"
			/>
		<path class="st0" d="M595,118c0,2.5-2,4.5-4.5,4.5h-63c-2.5,0-4.5-2-4.5-4.5v-9c0-2.5,2-4.5,4.5-4.5h63c2.5,0,4.5,2,4.5,4.5V118z"
			/>
		<path class="st0" d="M595,91c0,2.5-2,4.5-4.5,4.5h-63c-2.5,0-4.5-2-4.5-4.5v-9c0-2.5,2-4.5,4.5-4.5h63c2.5,0,4.5,2,4.5,4.5V91z"/>
		<path class="st0" d="M595,64c0,2.5-2,4.5-4.5,4.5h-63c-2.5,0-4.5-2-4.5-4.5v-9c0-2.5,2-4.5,4.5-4.5h63c2.5,0,4.5,2,4.5,4.5V64z"/>
	</g>
	<g>
		<path class="st0" d="M511,37c0,2.5-2,4.5-4.5,4.5h-63c-2.5,0-4.5-2-4.5-4.5v-9c0-2.5,2-4.5,4.5-4.5h63c2.5,0,4.5,2,4.5,4.5V37z"/>
		<path class="st0" d="M511,766c0,2.5-2,4.5-4.5,4.5h-63c-2.5,0-4.5-2-4.5-4.5v-9c0-2.5,2-4.5,4.5-4.5h63c2.5,0,4.5,2,4.5,4.5V766z"
			/>
		<path class="st0" d="M511,739c0,2.5-2,4.5-4.5,4.5h-63c-2.5,0-4.5-2-4.5-4.5v-9c0-2.5,2-4.5,4.5-4.5h63c2.5,0,4.5,2,4.5,4.5V739z"
			/>
		<path class="st0" d="M511,712c0,2.5-2,4.5-4.5,4.5h-63c-2.5,0-4.5-2-4.5-4.5v-9c0-2.5,2-4.5,4.5-4.5h63c2.5,0,4.5,2,4.5,4.5V712z"
			/>
		<path class="st0" d="M511,685c0,2.5-2,4.5-4.5,4.5h-63c-2.5,0-4.5-2-4.5-4.5v-9c0-2.5,2-4.5,4.5-4.5h63c2.5,0,4.5,2,4.5,4.5V685z"
			/>
		<path class="st0" d="M511,658c0,2.5-2,4.5-4.5,4.5h-63c-2.5,0-4.5-2-4.5-4.5v-9c0-2.5,2-4.5,4.5-4.5h63c2.5,0,4.5,2,4.5,4.5V658z"
			/>
		<path class="st0" d="M511,631c0,2.5-2,4.5-4.5,4.5h-63c-2.5,0-4.5-2-4.5-4.5v-9c0-2.5,2-4.5,4.5-4.5h63c2.5,0,4.5,2,4.5,4.5V631z"
			/>
		<path class="st0" d="M511,604c0,2.5-2,4.5-4.5,4.5h-63c-2.5,0-4.5-2-4.5-4.5v-9c0-2.5,2-4.5,4.5-4.5h63c2.5,0,4.5,2,4.5,4.5V604z"
			/>
		<path class="st0" d="M511,577c0,2.5-2,4.5-4.5,4.5h-63c-2.5,0-4.5-2-4.5-4.5v-9c0-2.5,2-4.5,4.5-4.5h63c2.5,0,4.5,2,4.5,4.5V577z"
			/>
		<path class="st0" d="M511,550c0,2.5-2,4.5-4.5,4.5h-63c-2.5,0-4.5-2-4.5-4.5v-9c0-2.5,2-4.5,4.5-4.5h63c2.5,0,4.5,2,4.5,4.5V550z"
			/>
		<path class="st0" d="M511,523c0,2.5-2,4.5-4.5,4.5h-63c-2.5,0-4.5-2-4.5-4.5v-9c0-2.5,2-4.5,4.5-4.5h63c2.5,0,4.5,2,4.5,4.5V523z"
			/>
		<path class="st0" d="M511,496c0,2.5-2,4.5-4.5,4.5h-63c-2.5,0-4.5-2-4.5-4.5v-9c0-2.5,2-4.5,4.5-4.5h63c2.5,0,4.5,2,4.5,4.5V496z"
			/>
		<path class="st0" d="M511,469c0,2.5-2,4.5-4.5,4.5h-63c-2.5,0-4.5-2-4.5-4.5v-9c0-2.5,2-4.5,4.5-4.5h63c2.5,0,4.5,2,4.5,4.5V469z"
			/>
		<path class="st0" d="M511,442c0,2.5-2,4.5-4.5,4.5h-63c-2.5,0-4.5-2-4.5-4.5v-9c0-2.5,2-4.5,4.5-4.5h63c2.5,0,4.5,2,4.5,4.5V442z"
			/>
		<path class="st0" d="M511,415c0,2.5-2,4.5-4.5,4.5h-63c-2.5,0-4.5-2-4.5-4.5v-9c0-2.5,2-4.5,4.5-4.5h63c2.5,0,4.5,2,4.5,4.5V415z"
			/>
		<path class="st0" d="M511,388c0,2.5-2,4.5-4.5,4.5h-63c-2.5,0-4.5-2-4.5-4.5v-9c0-2.5,2-4.5,4.5-4.5h63c2.5,0,4.5,2,4.5,4.5V388z"
			/>
		<path class="st0" d="M511,361c0,2.5-2,4.5-4.5,4.5h-63c-2.5,0-4.5-2-4.5-4.5v-9c0-2.5,2-4.5,4.5-4.5h63c2.5,0,4.5,2,4.5,4.5V361z"
			/>
		<path class="st0" d="M511,334c0,2.5-2,4.5-4.5,4.5h-63c-2.5,0-4.5-2-4.5-4.5v-9c0-2.5,2-4.5,4.5-4.5h63c2.5,0,4.5,2,4.5,4.5V334z"
			/>
		<path class="st0" d="M511,307c0,2.5-2,4.5-4.5,4.5h-63c-2.5,0-4.5-2-4.5-4.5v-9c0-2.5,2-4.5,4.5-4.5h63c2.5,0,4.5,2,4.5,4.5V307z"
			/>
		<path class="st0" d="M511,280c0,2.5-2,4.5-4.5,4.5h-63c-2.5,0-4.5-2-4.5-4.5v-9c0-2.5,2-4.5,4.5-4.5h63c2.5,0,4.5,2,4.5,4.5V280z"
			/>
		<path class="st0" d="M511,253c0,2.5-2,4.5-4.5,4.5h-63c-2.5,0-4.5-2-4.5-4.5v-9c0-2.5,2-4.5,4.5-4.5h63c2.5,0,4.5,2,4.5,4.5V253z"
			/>
		<path class="st0" d="M511,226c0,2.5-2,4.5-4.5,4.5h-63c-2.5,0-4.5-2-4.5-4.5v-9c0-2.5,2-4.5,4.5-4.5h63c2.5,0,4.5,2,4.5,4.5V226z"
			/>
		<path class="st0" d="M511,199c0,2.5-2,4.5-4.5,4.5h-63c-2.5,0-4.5-2-4.5-4.5v-9c0-2.5,2-4.5,4.5-4.5h63c2.5,0,4.5,2,4.5,4.5V199z"
			/>
		<path class="st0" d="M511,172c0,2.5-2,4.5-4.5,4.5h-63c-2.5,0-4.5-2-4.5-4.5v-9c0-2.5,2-4.5,4.5-4.5h63c2.5,0,4.5,2,4.5,4.5V172z"
			/>
		<path class="st0" d="M511,145c0,2.5-2,4.5-4.5,4.5h-63c-2.5,0-4.5-2-4.5-4.5v-9c0-2.5,2-4.5,4.5-4.5h63c2.5,0,4.5,2,4.5,4.5V145z"
			/>
		<path class="st0" d="M511,118c0,2.5-2,4.5-4.5,4.5h-63c-2.5,0-4.5-2-4.5-4.5v-9c0-2.5,2-4.5,4.5-4.5h63c2.5,0,4.5,2,4.5,4.5V118z"
			/>
		<path class="st0" d="M511,91c0,2.5-2,4.5-4.5,4.5h-63c-2.5,0-4.5-2-4.5-4.5v-9c0-2.5,2-4.5,4.5-4.5h63c2.5,0,4.5,2,4.5,4.5V91z"/>
		<path class="st0" d="M511,64c0,2.5-2,4.5-4.5,4.5h-63c-2.5,0-4.5-2-4.5-4.5v-9c0-2.5,2-4.5,4.5-4.5h63c2.5,0,4.5,2,4.5,4.5V64z"/>
	</g>
	<g>
		<path class="st0" d="M427,37c0,2.5-2,4.5-4.5,4.5h-63c-2.5,0-4.5-2-4.5-4.5v-9c0-2.5,2-4.5,4.5-4.5h63c2.5,0,4.5,2,4.5,4.5V37z"/>
		<path class="st0" d="M427,766c0,2.5-2,4.5-4.5,4.5h-63c-2.5,0-4.5-2-4.5-4.5v-9c0-2.5,2-4.5,4.5-4.5h63c2.5,0,4.5,2,4.5,4.5V766z"
			/>
		<path class="st0" d="M427,739c0,2.5-2,4.5-4.5,4.5h-63c-2.5,0-4.5-2-4.5-4.5v-9c0-2.5,2-4.5,4.5-4.5h63c2.5,0,4.5,2,4.5,4.5V739z"
			/>
		<path class="st0" d="M427,712c0,2.5-2,4.5-4.5,4.5h-63c-2.5,0-4.5-2-4.5-4.5v-9c0-2.5,2-4.5,4.5-4.5h63c2.5,0,4.5,2,4.5,4.5V712z"
			/>
		<path class="st0" d="M427,685c0,2.5-2,4.5-4.5,4.5h-63c-2.5,0-4.5-2-4.5-4.5v-9c0-2.5,2-4.5,4.5-4.5h63c2.5,0,4.5,2,4.5,4.5V685z"
			/>
		<path class="st0" d="M427,658c0,2.5-2,4.5-4.5,4.5h-63c-2.5,0-4.5-2-4.5-4.5v-9c0-2.5,2-4.5,4.5-4.5h63c2.5,0,4.5,2,4.5,4.5V658z"
			/>
		<path class="st0" d="M427,631c0,2.5-2,4.5-4.5,4.5h-63c-2.5,0-4.5-2-4.5-4.5v-9c0-2.5,2-4.5,4.5-4.5h63c2.5,0,4.5,2,4.5,4.5V631z"
			/>
		<path class="st0" d="M427,604c0,2.5-2,4.5-4.5,4.5h-63c-2.5,0-4.5-2-4.5-4.5v-9c0-2.5,2-4.5,4.5-4.5h63c2.5,0,4.5,2,4.5,4.5V604z"
			/>
		<path class="st0" d="M427,577c0,2.5-2,4.5-4.5,4.5h-63c-2.5,0-4.5-2-4.5-4.5v-9c0-2.5,2-4.5,4.5-4.5h63c2.5,0,4.5,2,4.5,4.5V577z"
			/>
		<path class="st0" d="M427,550c0,2.5-2,4.5-4.5,4.5h-63c-2.5,0-4.5-2-4.5-4.5v-9c0-2.5,2-4.5,4.5-4.5h63c2.5,0,4.5,2,4.5,4.5V550z"
			/>
		<path class="st0" d="M427,523c0,2.5-2,4.5-4.5,4.5h-63c-2.5,0-4.5-2-4.5-4.5v-9c0-2.5,2-4.5,4.5-4.5h63c2.5,0,4.5,2,4.5,4.5V523z"
			/>
		<path class="st0" d="M427,496c0,2.5-2,4.5-4.5,4.5h-63c-2.5,0-4.5-2-4.5-4.5v-9c0-2.5,2-4.5,4.5-4.5h63c2.5,0,4.5,2,4.5,4.5V496z"
			/>
		<path class="st0" d="M427,469c0,2.5-2,4.5-4.5,4.5h-63c-2.5,0-4.5-2-4.5-4.5v-9c0-2.5,2-4.5,4.5-4.5h63c2.5,0,4.5,2,4.5,4.5V469z"
			/>
		<path class="st0" d="M427,442c0,2.5-2,4.5-4.5,4.5h-63c-2.5,0-4.5-2-4.5-4.5v-9c0-2.5,2-4.5,4.5-4.5h63c2.5,0,4.5,2,4.5,4.5V442z"
			/>
		<path class="st0" d="M427,415c0,2.5-2,4.5-4.5,4.5h-63c-2.5,0-4.5-2-4.5-4.5v-9c0-2.5,2-4.5,4.5-4.5h63c2.5,0,4.5,2,4.5,4.5V415z"
			/>
		<path class="st0" d="M427,388c0,2.5-2,4.5-4.5,4.5h-63c-2.5,0-4.5-2-4.5-4.5v-9c0-2.5,2-4.5,4.5-4.5h63c2.5,0,4.5,2,4.5,4.5V388z"
			/>
		<path class="st0" d="M427,361c0,2.5-2,4.5-4.5,4.5h-63c-2.5,0-4.5-2-4.5-4.5v-9c0-2.5,2-4.5,4.5-4.5h63c2.5,0,4.5,2,4.5,4.5V361z"
			/>
		<path class="st0" d="M427,334c0,2.5-2,4.5-4.5,4.5h-63c-2.5,0-4.5-2-4.5-4.5v-9c0-2.5,2-4.5,4.5-4.5h63c2.5,0,4.5,2,4.5,4.5V334z"
			/>
		<path class="st0" d="M427,307c0,2.5-2,4.5-4.5,4.5h-63c-2.5,0-4.5-2-4.5-4.5v-9c0-2.5,2-4.5,4.5-4.5h63c2.5,0,4.5,2,4.5,4.5V307z"
			/>
		<path class="st0" d="M427,280c0,2.5-2,4.5-4.5,4.5h-63c-2.5,0-4.5-2-4.5-4.5v-9c0-2.5,2-4.5,4.5-4.5h63c2.5,0,4.5,2,4.5,4.5V280z"
			/>
		<path class="st0" d="M427,253c0,2.5-2,4.5-4.5,4.5h-63c-2.5,0-4.5-2-4.5-4.5v-9c0-2.5,2-4.5,4.5-4.5h63c2.5,0,4.5,2,4.5,4.5V253z"
			/>
		<path class="st0" d="M427,226c0,2.5-2,4.5-4.5,4.5h-63c-2.5,0-4.5-2-4.5-4.5v-9c0-2.5,2-4.5,4.5-4.5h63c2.5,0,4.5,2,4.5,4.5V226z"
			/>
		<path class="st0" d="M427,199c0,2.5-2,4.5-4.5,4.5h-63c-2.5,0-4.5-2-4.5-4.5v-9c0-2.5,2-4.5,4.5-4.5h63c2.5,0,4.5,2,4.5,4.5V199z"
			/>
		<path class="st0" d="M427,172c0,2.5-2,4.5-4.5,4.5h-63c-2.5,0-4.5-2-4.5-4.5v-9c0-2.5,2-4.5,4.5-4.5h63c2.5,0,4.5,2,4.5,4.5V172z"
			/>
		<path class="st0" d="M427,145c0,2.5-2,4.5-4.5,4.5h-63c-2.5,0-4.5-2-4.5-4.5v-9c0-2.5,2-4.5,4.5-4.5h63c2.5,0,4.5,2,4.5,4.5V145z"
			/>
		<path class="st0" d="M427,118c0,2.5-2,4.5-4.5,4.5h-63c-2.5,0-4.5-2-4.5-4.5v-9c0-2.5,2-4.5,4.5-4.5h63c2.5,0,4.5,2,4.5,4.5V118z"
			/>
		<path class="st0" d="M427,91c0,2.5-2,4.5-4.5,4.5h-63c-2.5,0-4.5-2-4.5-4.5v-9c0-2.5,2-4.5,4.5-4.5h63c2.5,0,4.5,2,4.5,4.5V91z"/>
		<path class="st0" d="M427,64c0,2.5-2,4.5-4.5,4.5h-63c-2.5,0-4.5-2-4.5-4.5v-9c0-2.5,2-4.5,4.5-4.5h63c2.5,0,4.5,2,4.5,4.5V64z"/>
	</g>
	<g>
		<path class="st0" d="M343,37c0,2.5-2,4.5-4.5,4.5h-63c-2.5,0-4.5-2-4.5-4.5v-9c0-2.5,2-4.5,4.5-4.5h63c2.5,0,4.5,2,4.5,4.5V37z"/>
		<path class="st0" d="M343,766c0,2.5-2,4.5-4.5,4.5h-63c-2.5,0-4.5-2-4.5-4.5v-9c0-2.5,2-4.5,4.5-4.5h63c2.5,0,4.5,2,4.5,4.5V766z"
			/>
		<path class="st0" d="M343,739c0,2.5-2,4.5-4.5,4.5h-63c-2.5,0-4.5-2-4.5-4.5v-9c0-2.5,2-4.5,4.5-4.5h63c2.5,0,4.5,2,4.5,4.5V739z"
			/>
		<path class="st0" d="M343,712c0,2.5-2,4.5-4.5,4.5h-63c-2.5,0-4.5-2-4.5-4.5v-9c0-2.5,2-4.5,4.5-4.5h63c2.5,0,4.5,2,4.5,4.5V712z"
			/>
		<path class="st0" d="M343,685c0,2.5-2,4.5-4.5,4.5h-63c-2.5,0-4.5-2-4.5-4.5v-9c0-2.5,2-4.5,4.5-4.5h63c2.5,0,4.5,2,4.5,4.5V685z"
			/>
		<path class="st0" d="M343,658c0,2.5-2,4.5-4.5,4.5h-63c-2.5,0-4.5-2-4.5-4.5v-9c0-2.5,2-4.5,4.5-4.5h63c2.5,0,4.5,2,4.5,4.5V658z"
			/>
		<path class="st0" d="M343,631c0,2.5-2,4.5-4.5,4.5h-63c-2.5,0-4.5-2-4.5-4.5v-9c0-2.5,2-4.5,4.5-4.5h63c2.5,0,4.5,2,4.5,4.5V631z"
			/>
		<path class="st0" d="M343,604c0,2.5-2,4.5-4.5,4.5h-63c-2.5,0-4.5-2-4.5-4.5v-9c0-2.5,2-4.5,4.5-4.5h63c2.5,0,4.5,2,4.5,4.5V604z"
			/>
		<path class="st0" d="M343,577c0,2.5-2,4.5-4.5,4.5h-63c-2.5,0-4.5-2-4.5-4.5v-9c0-2.5,2-4.5,4.5-4.5h63c2.5,0,4.5,2,4.5,4.5V577z"
			/>
		<path class="st0" d="M343,550c0,2.5-2,4.5-4.5,4.5h-63c-2.5,0-4.5-2-4.5-4.5v-9c0-2.5,2-4.5,4.5-4.5h63c2.5,0,4.5,2,4.5,4.5V550z"
			/>
		<path class="st0" d="M343,523c0,2.5-2,4.5-4.5,4.5h-63c-2.5,0-4.5-2-4.5-4.5v-9c0-2.5,2-4.5,4.5-4.5h63c2.5,0,4.5,2,4.5,4.5V523z"
			/>
		<path class="st0" d="M343,496c0,2.5-2,4.5-4.5,4.5h-63c-2.5,0-4.5-2-4.5-4.5v-9c0-2.5,2-4.5,4.5-4.5h63c2.5,0,4.5,2,4.5,4.5V496z"
			/>
		<path class="st0" d="M343,469c0,2.5-2,4.5-4.5,4.5h-63c-2.5,0-4.5-2-4.5-4.5v-9c0-2.5,2-4.5,4.5-4.5h63c2.5,0,4.5,2,4.5,4.5V469z"
			/>
		<path class="st0" d="M343,442c0,2.5-2,4.5-4.5,4.5h-63c-2.5,0-4.5-2-4.5-4.5v-9c0-2.5,2-4.5,4.5-4.5h63c2.5,0,4.5,2,4.5,4.5V442z"
			/>
		<path class="st0" d="M343,415c0,2.5-2,4.5-4.5,4.5h-63c-2.5,0-4.5-2-4.5-4.5v-9c0-2.5,2-4.5,4.5-4.5h63c2.5,0,4.5,2,4.5,4.5V415z"
			/>
		<path class="st0" d="M343,388c0,2.5-2,4.5-4.5,4.5h-63c-2.5,0-4.5-2-4.5-4.5v-9c0-2.5,2-4.5,4.5-4.5h63c2.5,0,4.5,2,4.5,4.5V388z"
			/>
		<path class="st0" d="M343,361c0,2.5-2,4.5-4.5,4.5h-63c-2.5,0-4.5-2-4.5-4.5v-9c0-2.5,2-4.5,4.5-4.5h63c2.5,0,4.5,2,4.5,4.5V361z"
			/>
		<path class="st0" d="M343,334c0,2.5-2,4.5-4.5,4.5h-63c-2.5,0-4.5-2-4.5-4.5v-9c0-2.5,2-4.5,4.5-4.5h63c2.5,0,4.5,2,4.5,4.5V334z"
			/>
		<path class="st0" d="M343,307c0,2.5-2,4.5-4.5,4.5h-63c-2.5,0-4.5-2-4.5-4.5v-9c0-2.5,2-4.5,4.5-4.5h63c2.5,0,4.5,2,4.5,4.5V307z"
			/>
		<path class="st0" d="M343,280c0,2.5-2,4.5-4.5,4.5h-63c-2.5,0-4.5-2-4.5-4.5v-9c0-2.5,2-4.5,4.5-4.5h63c2.5,0,4.5,2,4.5,4.5V280z"
			/>
		<path class="st0" d="M343,253c0,2.5-2,4.5-4.5,4.5h-63c-2.5,0-4.5-2-4.5-4.5v-9c0-2.5,2-4.5,4.5-4.5h63c2.5,0,4.5,2,4.5,4.5V253z"
			/>
		<path class="st0" d="M343,226c0,2.5-2,4.5-4.5,4.5h-63c-2.5,0-4.5-2-4.5-4.5v-9c0-2.5,2-4.5,4.5-4.5h63c2.5,0,4.5,2,4.5,4.5V226z"
			/>
		<path class="st0" d="M343,199c0,2.5-2,4.5-4.5,4.5h-63c-2.5,0-4.5-2-4.5-4.5v-9c0-2.5,2-4.5,4.5-4.5h63c2.5,0,4.5,2,4.5,4.5V199z"
			/>
		<path class="st0" d="M343,172c0,2.5-2,4.5-4.5,4.5h-63c-2.5,0-4.5-2-4.5-4.5v-9c0-2.5,2-4.5,4.5-4.5h63c2.5,0,4.5,2,4.5,4.5V172z"
			/>
		<path class="st0" d="M343,145c0,2.5-2,4.5-4.5,4.5h-63c-2.5,0-4.5-2-4.5-4.5v-9c0-2.5,2-4.5,4.5-4.5h63c2.5,0,4.5,2,4.5,4.5V145z"
			/>
		<path class="st0" d="M343,118c0,2.5-2,4.5-4.5,4.5h-63c-2.5,0-4.5-2-4.5-4.5v-9c0-2.5,2-4.5,4.5-4.5h63c2.5,0,4.5,2,4.5,4.5V118z"
			/>
		<path class="st0" d="M343,91c0,2.5-2,4.5-4.5,4.5h-63c-2.5,0-4.5-2-4.5-4.5v-9c0-2.5,2-4.5,4.5-4.5h63c2.5,0,4.5,2,4.5,4.5V91z"/>
		<path class="st0" d="M343,64c0,2.5-2,4.5-4.5,4.5h-63c-2.5,0-4.5-2-4.5-4.5v-9c0-2.5,2-4.5,4.5-4.5h63c2.5,0,4.5,2,4.5,4.5V64z"/>
	</g>
	<g>
		<path class="st0" d="M259,37c0,2.5-2,4.5-4.5,4.5h-63c-2.5,0-4.5-2-4.5-4.5v-9c0-2.5,2-4.5,4.5-4.5h63c2.5,0,4.5,2,4.5,4.5V37z"/>
		<path class="st0" d="M259,766c0,2.5-2,4.5-4.5,4.5h-63c-2.5,0-4.5-2-4.5-4.5v-9c0-2.5,2-4.5,4.5-4.5h63c2.5,0,4.5,2,4.5,4.5V766z"
			/>
		<path class="st0" d="M259,739c0,2.5-2,4.5-4.5,4.5h-63c-2.5,0-4.5-2-4.5-4.5v-9c0-2.5,2-4.5,4.5-4.5h63c2.5,0,4.5,2,4.5,4.5V739z"
			/>
		<path class="st0" d="M259,712c0,2.5-2,4.5-4.5,4.5h-63c-2.5,0-4.5-2-4.5-4.5v-9c0-2.5,2-4.5,4.5-4.5h63c2.5,0,4.5,2,4.5,4.5V712z"
			/>
		<path class="st0" d="M259,685c0,2.5-2,4.5-4.5,4.5h-63c-2.5,0-4.5-2-4.5-4.5v-9c0-2.5,2-4.5,4.5-4.5h63c2.5,0,4.5,2,4.5,4.5V685z"
			/>
		<path class="st0" d="M259,658c0,2.5-2,4.5-4.5,4.5h-63c-2.5,0-4.5-2-4.5-4.5v-9c0-2.5,2-4.5,4.5-4.5h63c2.5,0,4.5,2,4.5,4.5V658z"
			/>
		<path class="st0" d="M259,631c0,2.5-2,4.5-4.5,4.5h-63c-2.5,0-4.5-2-4.5-4.5v-9c0-2.5,2-4.5,4.5-4.5h63c2.5,0,4.5,2,4.5,4.5V631z"
			/>
		<path class="st0" d="M259,604c0,2.5-2,4.5-4.5,4.5h-63c-2.5,0-4.5-2-4.5-4.5v-9c0-2.5,2-4.5,4.5-4.5h63c2.5,0,4.5,2,4.5,4.5V604z"
			/>
		<path class="st0" d="M259,577c0,2.5-2,4.5-4.5,4.5h-63c-2.5,0-4.5-2-4.5-4.5v-9c0-2.5,2-4.5,4.5-4.5h63c2.5,0,4.5,2,4.5,4.5V577z"
			/>
		<path class="st0" d="M259,550c0,2.5-2,4.5-4.5,4.5h-63c-2.5,0-4.5-2-4.5-4.5v-9c0-2.5,2-4.5,4.5-4.5h63c2.5,0,4.5,2,4.5,4.5V550z"
			/>
		<path class="st0" d="M259,523c0,2.5-2,4.5-4.5,4.5h-63c-2.5,0-4.5-2-4.5-4.5v-9c0-2.5,2-4.5,4.5-4.5h63c2.5,0,4.5,2,4.5,4.5V523z"
			/>
		<path class="st0" d="M259,496c0,2.5-2,4.5-4.5,4.5h-63c-2.5,0-4.5-2-4.5-4.5v-9c0-2.5,2-4.5,4.5-4.5h63c2.5,0,4.5,2,4.5,4.5V496z"
			/>
		<path class="st0" d="M259,469c0,2.5-2,4.5-4.5,4.5h-63c-2.5,0-4.5-2-4.5-4.5v-9c0-2.5,2-4.5,4.5-4.5h63c2.5,0,4.5,2,4.5,4.5V469z"
			/>
		<path class="st0" d="M259,442c0,2.5-2,4.5-4.5,4.5h-63c-2.5,0-4.5-2-4.5-4.5v-9c0-2.5,2-4.5,4.5-4.5h63c2.5,0,4.5,2,4.5,4.5V442z"
			/>
		<path class="st0" d="M259,415c0,2.5-2,4.5-4.5,4.5h-63c-2.5,0-4.5-2-4.5-4.5v-9c0-2.5,2-4.5,4.5-4.5h63c2.5,0,4.5,2,4.5,4.5V415z"
			/>
		<path class="st0" d="M259,388c0,2.5-2,4.5-4.5,4.5h-63c-2.5,0-4.5-2-4.5-4.5v-9c0-2.5,2-4.5,4.5-4.5h63c2.5,0,4.5,2,4.5,4.5V388z"
			/>
		<path class="st0" d="M259,361c0,2.5-2,4.5-4.5,4.5h-63c-2.5,0-4.5-2-4.5-4.5v-9c0-2.5,2-4.5,4.5-4.5h63c2.5,0,4.5,2,4.5,4.5V361z"
			/>
		<path class="st0" d="M259,334c0,2.5-2,4.5-4.5,4.5h-63c-2.5,0-4.5-2-4.5-4.5v-9c0-2.5,2-4.5,4.5-4.5h63c2.5,0,4.5,2,4.5,4.5V334z"
			/>
		<path class="st0" d="M259,307c0,2.5-2,4.5-4.5,4.5h-63c-2.5,0-4.5-2-4.5-4.5v-9c0-2.5,2-4.5,4.5-4.5h63c2.5,0,4.5,2,4.5,4.5V307z"
			/>
		<path class="st0" d="M259,280c0,2.5-2,4.5-4.5,4.5h-63c-2.5,0-4.5-2-4.5-4.5v-9c0-2.5,2-4.5,4.5-4.5h63c2.5,0,4.5,2,4.5,4.5V280z"
			/>
		<path class="st0" d="M259,253c0,2.5-2,4.5-4.5,4.5h-63c-2.5,0-4.5-2-4.5-4.5v-9c0-2.5,2-4.5,4.5-4.5h63c2.5,0,4.5,2,4.5,4.5V253z"
			/>
		<path class="st0" d="M259,226c0,2.5-2,4.5-4.5,4.5h-63c-2.5,0-4.5-2-4.5-4.5v-9c0-2.5,2-4.5,4.5-4.5h63c2.5,0,4.5,2,4.5,4.5V226z"
			/>
		<path class="st0" d="M259,199c0,2.5-2,4.5-4.5,4.5h-63c-2.5,0-4.5-2-4.5-4.5v-9c0-2.5,2-4.5,4.5-4.5h63c2.5,0,4.5,2,4.5,4.5V199z"
			/>
		<path class="st0" d="M259,172c0,2.5-2,4.5-4.5,4.5h-63c-2.5,0-4.5-2-4.5-4.5v-9c0-2.5,2-4.5,4.5-4.5h63c2.5,0,4.5,2,4.5,4.5V172z"
			/>
		<path class="st0" d="M259,145c0,2.5-2,4.5-4.5,4.5h-63c-2.5,0-4.5-2-4.5-4.5v-9c0-2.5,2-4.5,4.5-4.5h63c2.5,0,4.5,2,4.5,4.5V145z"
			/>
		<path class="st0" d="M259,118c0,2.5-2,4.5-4.5,4.5h-63c-2.5,0-4.5-2-4.5-4.5v-9c0-2.5,2-4.5,4.5-4.5h63c2.5,0,4.5,2,4.5,4.5V118z"
			/>
		<path class="st0" d="M259,91c0,2.5-2,4.5-4.5,4.5h-63c-2.5,0-4.5-2-4.5-4.5v-9c0-2.5,2-4.5,4.5-4.5h63c2.5,0,4.5,2,4.5,4.5V91z"/>
		<path class="st0" d="M259,64c0,2.5-2,4.5-4.5,4.5h-63c-2.5,0-4.5-2-4.5-4.5v-9c0-2.5,2-4.5,4.5-4.5h63c2.5,0,4.5,2,4.5,4.5V64z"/>
	</g>
	<g>
		<path class="st0" d="M175,37c0,2.5-2,4.5-4.5,4.5h-63c-2.5,0-4.5-2-4.5-4.5v-9c0-2.5,2-4.5,4.5-4.5h63c2.5,0,4.5,2,4.5,4.5V37z"/>
		<path class="st0" d="M175,766c0,2.5-2,4.5-4.5,4.5h-63c-2.5,0-4.5-2-4.5-4.5v-9c0-2.5,2-4.5,4.5-4.5h63c2.5,0,4.5,2,4.5,4.5V766z"
			/>
		<path class="st0" d="M175,739c0,2.5-2,4.5-4.5,4.5h-63c-2.5,0-4.5-2-4.5-4.5v-9c0-2.5,2-4.5,4.5-4.5h63c2.5,0,4.5,2,4.5,4.5V739z"
			/>
		<path class="st0" d="M175,712c0,2.5-2,4.5-4.5,4.5h-63c-2.5,0-4.5-2-4.5-4.5v-9c0-2.5,2-4.5,4.5-4.5h63c2.5,0,4.5,2,4.5,4.5V712z"
			/>
		<path class="st0" d="M175,685c0,2.5-2,4.5-4.5,4.5h-63c-2.5,0-4.5-2-4.5-4.5v-9c0-2.5,2-4.5,4.5-4.5h63c2.5,0,4.5,2,4.5,4.5V685z"
			/>
		<path class="st0" d="M175,658c0,2.5-2,4.5-4.5,4.5h-63c-2.5,0-4.5-2-4.5-4.5v-9c0-2.5,2-4.5,4.5-4.5h63c2.5,0,4.5,2,4.5,4.5V658z"
			/>
		<path class="st0" d="M175,631c0,2.5-2,4.5-4.5,4.5h-63c-2.5,0-4.5-2-4.5-4.5v-9c0-2.5,2-4.5,4.5-4.5h63c2.5,0,4.5,2,4.5,4.5V631z"
			/>
		<path class="st0" d="M175,604c0,2.5-2,4.5-4.5,4.5h-63c-2.5,0-4.5-2-4.5-4.5v-9c0-2.5,2-4.5,4.5-4.5h63c2.5,0,4.5,2,4.5,4.5V604z"
			/>
		<path class="st0" d="M175,577c0,2.5-2,4.5-4.5,4.5h-63c-2.5,0-4.5-2-4.5-4.5v-9c0-2.5,2-4.5,4.5-4.5h63c2.5,0,4.5,2,4.5,4.5V577z"
			/>
		<path class="st0" d="M175,550c0,2.5-2,4.5-4.5,4.5h-63c-2.5,0-4.5-2-4.5-4.5v-9c0-2.5,2-4.5,4.5-4.5h63c2.5,0,4.5,2,4.5,4.5V550z"
			/>
		<path class="st0" d="M175,523c0,2.5-2,4.5-4.5,4.5h-63c-2.5,0-4.5-2-4.5-4.5v-9c0-2.5,2-4.5,4.5-4.5h63c2.5,0,4.5,2,4.5,4.5V523z"
			/>
		<path class="st0" d="M175,496c0,2.5-2,4.5-4.5,4.5h-63c-2.5,0-4.5-2-4.5-4.5v-9c0-2.5,2-4.5,4.5-4.5h63c2.5,0,4.5,2,4.5,4.5V496z"
			/>
		<path class="st0" d="M175,469c0,2.5-2,4.5-4.5,4.5h-63c-2.5,0-4.5-2-4.5-4.5v-9c0-2.5,2-4.5,4.5-4.5h63c2.5,0,4.5,2,4.5,4.5V469z"
			/>
		<path class="st0" d="M175,442c0,2.5-2,4.5-4.5,4.5h-63c-2.5,0-4.5-2-4.5-4.5v-9c0-2.5,2-4.5,4.5-4.5h63c2.5,0,4.5,2,4.5,4.5V442z"
			/>
		<path class="st0" d="M175,415c0,2.5-2,4.5-4.5,4.5h-63c-2.5,0-4.5-2-4.5-4.5v-9c0-2.5,2-4.5,4.5-4.5h63c2.5,0,4.5,2,4.5,4.5V415z"
			/>
		<path class="st0" d="M175,388c0,2.5-2,4.5-4.5,4.5h-63c-2.5,0-4.5-2-4.5-4.5v-9c0-2.5,2-4.5,4.5-4.5h63c2.5,0,4.5,2,4.5,4.5V388z"
			/>
		<path class="st0" d="M175,361c0,2.5-2,4.5-4.5,4.5h-63c-2.5,0-4.5-2-4.5-4.5v-9c0-2.5,2-4.5,4.5-4.5h63c2.5,0,4.5,2,4.5,4.5V361z"
			/>
		<path class="st0" d="M175,334c0,2.5-2,4.5-4.5,4.5h-63c-2.5,0-4.5-2-4.5-4.5v-9c0-2.5,2-4.5,4.5-4.5h63c2.5,0,4.5,2,4.5,4.5V334z"
			/>
		<path class="st0" d="M175,307c0,2.5-2,4.5-4.5,4.5h-63c-2.5,0-4.5-2-4.5-4.5v-9c0-2.5,2-4.5,4.5-4.5h63c2.5,0,4.5,2,4.5,4.5V307z"
			/>
		<path class="st0" d="M175,280c0,2.5-2,4.5-4.5,4.5h-63c-2.5,0-4.5-2-4.5-4.5v-9c0-2.5,2-4.5,4.5-4.5h63c2.5,0,4.5,2,4.5,4.5V280z"
			/>
		<path class="st0" d="M175,253c0,2.5-2,4.5-4.5,4.5h-63c-2.5,0-4.5-2-4.5-4.5v-9c0-2.5,2-4.5,4.5-4.5h63c2.5,0,4.5,2,4.5,4.5V253z"
			/>
		<path class="st0" d="M175,226c0,2.5-2,4.5-4.5,4.5h-63c-2.5,0-4.5-2-4.5-4.5v-9c0-2.5,2-4.5,4.5-4.5h63c2.5,0,4.5,2,4.5,4.5V226z"
			/>
		<path class="st0" d="M175,199c0,2.5-2,4.5-4.5,4.5h-63c-2.5,0-4.5-2-4.5-4.5v-9c0-2.5,2-4.5,4.5-4.5h63c2.5,0,4.5,2,4.5,4.5V199z"
			/>
		<path class="st0" d="M175,172c0,2.5-2,4.5-4.5,4.5h-63c-2.5,0-4.5-2-4.5-4.5v-9c0-2.5,2-4.5,4.5-4.5h63c2.5,0,4.5,2,4.5,4.5V172z"
			/>
		<path class="st0" d="M175,145c0,2.5-2,4.5-4.5,4.5h-63c-2.5,0-4.5-2-4.5-4.5v-9c0-2.5,2-4.5,4.5-4.5h63c2.5,0,4.5,2,4.5,4.5V145z"
			/>
		<path class="st0" d="M175,118c0,2.5-2,4.5-4.5,4.5h-63c-2.5,0-4.5-2-4.5-4.5v-9c0-2.5,2-4.5,4.5-4.5h63c2.5,0,4.5,2,4.5,4.5V118z"
			/>
		<path class="st0" d="M175,91c0,2.5-2,4.5-4.5,4.5h-63c-2.5,0-4.5-2-4.5-4.5v-9c0-2.5,2-4.5,4.5-4.5h63c2.5,0,4.5,2,4.5,4.5V91z"/>
		<path class="st0" d="M175,64c0,2.5-2,4.5-4.5,4.5h-63c-2.5,0-4.5-2-4.5-4.5v-9c0-2.5,2-4.5,4.5-4.5h63c2.5,0,4.5,2,4.5,4.5V64z"/>
	</g>
</g>
<rect class="st0" width="612" height="792"/>
</svg>
