<?xml version="1.0" encoding="utf-8"?>
<!-- Generator: Adobe Illustrator 20.1.0, SVG Export Plug-In . SVG Version: 6.00 Build 0)  -->
<svg version="1.1" id="Layer_1" xmlns="http://www.w3.org/2000/svg" xmlns:xlink="http://www.w3.org/1999/xlink" x="0px" y="0px"
	 viewBox="0 0 612 792" style="enable-background:new 0 0 612 792;" xml:space="preserve">
<style type="text/css">
	.st0{fill:none;stroke:#000000;stroke-width:2;}
</style>
<g>
	<path class="st0" d="M298.1,372c0,9.9-8.1,18-18,18h-216c-9.9,0-18-8.1-18-18V111c0-9.9,8.1-18,18-18h216c9.9,0,18,8.1,18,18V372z"
		/>
	<path class="st0" d="M297.7,682.8c0,9.9-8.1,18-18,18h-216c-9.9,0-18-8.1-18-18v-261c0-9.9,8.1-18,18-18h216c9.9,0,18,8.1,18,18
		V682.8z"/>
	<path class="st0" d="M568.2,683c0,9.9-8.1,18-18,18h-216c-9.9,0-18-8.1-18-18V422c0-9.9,8.1-18,18-18h216c9.9,0,18,8.1,18,18V683z"
		/>
	<path class="st0" d="M568.3,372c0,9.9-8.1,18-18,18h-216c-9.9,0-18-8.1-18-18V111c0-9.9,8.1-18,18-18h216c9.9,0,18,8.1,18,18V372z"
		/>
</g>
<rect class="st0" width="612" height="792"/>
</svg>
