<?xml version="1.0" encoding="utf-8"?>
<!-- Generator: Adobe Illustrator 23.0.1, SVG Export Plug-In . SVG Version: 6.00 Build 0)  -->
<svg version="1.1" xmlns="http://www.w3.org/2000/svg" xmlns:xlink="http://www.w3.org/1999/xlink" x="0px" y="0px"
	 viewBox="0 0 612 792" style="enable-background:new 0 0 612 792;" xml:space="preserve">
<style type="text/css">
	.st0{fill:none;stroke:#000000;stroke-width:2;stroke-miterlimit:10;}
</style>
<g id="Artwork">
</g>
<g id="Guides">
	<g>
		<g>
			
				<rect x="414" y="144" transform="matrix(-1.836970e-16 1 -1 -1.836970e-16 693.0002 -351.0002)" class="st0" width="216" height="54"/>
			
				<rect x="360" y="144" transform="matrix(-1.836970e-16 1 -1 -1.836970e-16 639.0002 -297.0002)" class="st0" width="216" height="54"/>
			
				<rect x="306" y="144" transform="matrix(-1.836970e-16 1 -1 -1.836970e-16 585.0002 -243.0002)" class="st0" width="216" height="54"/>
			
				<rect x="-18" y="144" transform="matrix(-1.836970e-16 1 -1 -1.836970e-16 260.9998 81.0003)" class="st0" width="216" height="54"/>
			
				<rect x="36" y="144" transform="matrix(-1.836970e-16 1 -1 -1.836970e-16 314.9998 27.0002)" class="st0" width="216" height="54"/>
			
				<rect x="90" y="144" transform="matrix(-1.836970e-16 1 -1 -1.836970e-16 368.9998 -26.9998)" class="st0" width="216" height="54"/>
			
				<rect x="144" y="144" transform="matrix(-1.836970e-16 1 -1 -1.836970e-16 422.9998 -80.9997)" class="st0" width="216" height="54"/>
			<rect x="198" y="144" transform="matrix(-1.836970e-16 1 -1 -1.836970e-16 477 -135)" class="st0" width="216" height="54"/>
			
				<rect x="252" y="144" transform="matrix(-1.836970e-16 1 -1 -1.836970e-16 531.0002 -189.0002)" class="st0" width="216" height="54"/>
		</g>
		<g>
			
				<rect x="414" y="594" transform="matrix(-1.836970e-16 1 -1 -1.836970e-16 1143.0002 98.9997)" class="st0" width="216" height="54"/>
			
				<rect x="360" y="594" transform="matrix(-1.836970e-16 1 -1 -1.836970e-16 1089.0002 152.9998)" class="st0" width="216" height="54"/>
			
				<rect x="-18" y="594" transform="matrix(-1.836970e-16 1 -1 -1.836970e-16 710.9998 531.0002)" class="st0" width="216" height="54"/>
			
				<rect x="36" y="594" transform="matrix(-1.836970e-16 1 -1 -1.836970e-16 764.9998 477.0002)" class="st0" width="216" height="54"/>
			
				<rect x="90" y="594" transform="matrix(-1.836970e-16 1 -1 -1.836970e-16 818.9998 423.0002)" class="st0" width="216" height="54"/>
			
				<rect x="144" y="594" transform="matrix(-1.836970e-16 1 -1 -1.836970e-16 872.9998 369.0002)" class="st0" width="216" height="54"/>
			<rect x="198" y="594" transform="matrix(-1.836970e-16 1 -1 -1.836970e-16 927 315)" class="st0" width="216" height="54"/>
			
				<rect x="252" y="594" transform="matrix(-1.836970e-16 1 -1 -1.836970e-16 981.0002 260.9998)" class="st0" width="216" height="54"/>
			
				<rect x="306" y="594" transform="matrix(-1.836970e-16 1 -1 -1.836970e-16 1035.0002 206.9998)" class="st0" width="216" height="54"/>
		</g>
		<g>
			
				<rect x="414" y="369" transform="matrix(-1.836970e-16 1 -1 -1.836970e-16 918.0002 -126.0003)" class="st0" width="216" height="54"/>
			
				<rect x="360" y="369" transform="matrix(-1.836970e-16 1 -1 -1.836970e-16 864.0002 -72.0003)" class="st0" width="216" height="54"/>
			
				<rect x="-18" y="369" transform="matrix(-1.836970e-16 1 -1 -1.836970e-16 485.9998 306.0002)" class="st0" width="216" height="54"/>
			
				<rect x="36" y="369" transform="matrix(-1.836970e-16 1 -1 -1.836970e-16 539.9998 252.0002)" class="st0" width="216" height="54"/>
			
				<rect x="90" y="369" transform="matrix(-1.836970e-16 1 -1 -1.836970e-16 593.9998 198.0002)" class="st0" width="216" height="54"/>
			
				<rect x="144" y="369" transform="matrix(-1.836970e-16 1 -1 -1.836970e-16 647.9998 144.0002)" class="st0" width="216" height="54"/>
			<rect x="198" y="369" transform="matrix(-1.836970e-16 1 -1 -1.836970e-16 702 90)" class="st0" width="216" height="54"/>
			
				<rect x="252" y="369" transform="matrix(-1.836970e-16 1 -1 -1.836970e-16 756.0002 35.9997)" class="st0" width="216" height="54"/>
			
				<rect x="306" y="369" transform="matrix(-1.836970e-16 1 -1 -1.836970e-16 810.0002 -18.0002)" class="st0" width="216" height="54"/>
		</g>
	</g>
	<rect class="st0" width="612" height="792"/>
</g>
</svg>
