<?xml version="1.0" encoding="utf-8"?>
<!-- Generator: Adobe Illustrator 20.1.0, SVG Export Plug-In . SVG Version: 6.00 Build 0)  -->
<svg version="1.1" id="Layer_1" xmlns="http://www.w3.org/2000/svg" xmlns:xlink="http://www.w3.org/1999/xlink" x="0px" y="0px"
	 viewBox="0 0 612 792" style="enable-background:new 0 0 612 792;" xml:space="preserve">
<style type="text/css">
	.st0{fill:none;stroke:#000000;stroke-width:2;}
</style>
<g>
	<path class="st0" d="M289,392.5c0,2.5-2,4.5-4.5,4.5h-243c-2.5,0-4.5-2-4.5-4.5v-351c0-2.5,2-4.5,4.5-4.5h243c2.5,0,4.5,2,4.5,4.5
		V392.5z"/>
	<path class="st0" d="M577,392.5c0,2.5-2,4.5-4.5,4.5h-243c-2.5,0-4.5-2-4.5-4.5v-351c0-2.5,2-4.5,4.5-4.5h243c2.5,0,4.5,2,4.5,4.5
		V392.5z"/>
</g>
<g>
	<path class="st0" d="M289,752.5c0,2.5-2,4.5-4.5,4.5h-243c-2.5,0-4.5-2-4.5-4.5v-351c0-2.5,2-4.5,4.5-4.5h243c2.5,0,4.5,2,4.5,4.5
		V752.5z"/>
	<path class="st0" d="M577,752.5c0,2.5-2,4.5-4.5,4.5h-243c-2.5,0-4.5-2-4.5-4.5v-351c0-2.5,2-4.5,4.5-4.5h243c2.5,0,4.5,2,4.5,4.5
		V752.5z"/>
</g>
<rect class="st0" width="612" height="792"/>
</svg>
