<svg xmlns="http://www.w3.org/2000/svg" viewBox="0 0 613 793"><defs><style>.cls-1,.cls-2{fill:none;}.cls-1{stroke:#231f20;}.cls-2{stroke:#000;}</style></defs><title>SL1447</title><g id="Layer_1" data-name="Layer 1"><rect class="cls-1" x="-40.5" y="184.5" width="288" height="126" rx="9" transform="translate(351.5 144.5) rotate(90)"/><rect class="cls-1" x="94.5" y="184.5" width="288" height="126" rx="9" transform="translate(486.5 9.5) rotate(90)"/><rect class="cls-1" x="229.5" y="184.5" width="288" height="126" rx="9" transform="translate(621.5 -125.5) rotate(90)"/><rect class="cls-1" x="364.5" y="184.5" width="288" height="126" rx="9" transform="translate(756.5 -260.5) rotate(90)"/><rect class="cls-1" x="-40.5" y="481.5" width="288" height="126" rx="9" transform="translate(648.5 441.5) rotate(90)"/><rect class="cls-1" x="94.5" y="481.5" width="288" height="126" rx="9" transform="translate(783.5 306.5) rotate(90)"/><rect class="cls-1" x="229.5" y="481.5" width="288" height="126" rx="9" transform="translate(918.5 171.5) rotate(90)"/><rect class="cls-1" x="364.5" y="481.5" width="288" height="126" rx="9" transform="translate(1053.5 36.5) rotate(90)"/><rect class="cls-2" x="0.5" y="0.5" width="612" height="792"/></g></svg>