<?xml version="1.0" encoding="utf-8"?>
<!-- Generator: Adobe Illustrator 23.0.2, SVG Export Plug-In . SVG Version: 6.00 Build 0)  -->
<svg version="1.1" id="Layer_1" xmlns="http://www.w3.org/2000/svg" xmlns:xlink="http://www.w3.org/1999/xlink" x="0px" y="0px"
	 viewBox="0 0 612 792" style="enable-background:new 0 0 612 792;" xml:space="preserve">
<style type="text/css">
	.st0{fill:none;stroke:#000000;stroke-width:1.44;stroke-miterlimit:10;}
	.st1{fill:none;stroke:#000000;stroke-width:0.9719;}
</style>
<g>
	<g>
		<g>
			<rect x="36" y="36" class="st0" width="54" height="72"/>
			<rect x="90" y="36" class="st0" width="54" height="72"/>
			<rect x="144" y="36" class="st0" width="54" height="72"/>
			<rect x="198" y="36" class="st0" width="54" height="72"/>
			<rect x="252" y="36" class="st0" width="54" height="72"/>
			<rect x="306" y="36" class="st0" width="54" height="72"/>
			<rect x="360" y="36" class="st0" width="54" height="72"/>
			<rect x="414" y="36" class="st0" width="54" height="72"/>
			<rect x="468" y="36" class="st0" width="54" height="72"/>
			<rect x="522" y="36" class="st0" width="54" height="72"/>
		</g>
		<g>
			<rect x="36" y="108" class="st0" width="54" height="72"/>
			<rect x="90" y="108" class="st0" width="54" height="72"/>
			<rect x="144" y="108" class="st0" width="54" height="72"/>
			<rect x="198" y="108" class="st0" width="54" height="72"/>
			<rect x="252" y="108" class="st0" width="54" height="72"/>
			<rect x="306" y="108" class="st0" width="54" height="72"/>
			<rect x="360" y="108" class="st0" width="54" height="72"/>
			<rect x="414" y="108" class="st0" width="54" height="72"/>
			<rect x="468" y="108" class="st0" width="54" height="72"/>
			<rect x="522" y="108" class="st0" width="54" height="72"/>
		</g>
		<g>
			<rect x="36" y="180" class="st0" width="54" height="72"/>
			<rect x="90" y="180" class="st0" width="54" height="72"/>
			<rect x="144" y="180" class="st0" width="54" height="72"/>
			<rect x="198" y="180" class="st0" width="54" height="72"/>
			<rect x="252" y="180" class="st0" width="54" height="72"/>
			<rect x="306" y="180" class="st0" width="54" height="72"/>
			<rect x="360" y="180" class="st0" width="54" height="72"/>
			<rect x="414" y="180" class="st0" width="54" height="72"/>
			<rect x="468" y="180" class="st0" width="54" height="72"/>
			<rect x="522" y="180" class="st0" width="54" height="72"/>
		</g>
		<g>
			<rect x="36" y="252" class="st0" width="54" height="72"/>
			<rect x="90" y="252" class="st0" width="54" height="72"/>
			<rect x="144" y="252" class="st0" width="54" height="72"/>
			<rect x="198" y="252" class="st0" width="54" height="72"/>
			<rect x="252" y="252" class="st0" width="54" height="72"/>
			<rect x="306" y="252" class="st0" width="54" height="72"/>
			<rect x="360" y="252" class="st0" width="54" height="72"/>
			<rect x="414" y="252" class="st0" width="54" height="72"/>
			<rect x="468" y="252" class="st0" width="54" height="72"/>
			<rect x="522" y="252" class="st0" width="54" height="72"/>
		</g>
		<g>
			<rect x="36" y="324" class="st0" width="54" height="72"/>
			<rect x="90" y="324" class="st0" width="54" height="72"/>
			<rect x="144" y="324" class="st0" width="54" height="72"/>
			<rect x="198" y="324" class="st0" width="54" height="72"/>
			<rect x="252" y="324" class="st0" width="54" height="72"/>
			<rect x="306" y="324" class="st0" width="54" height="72"/>
			<rect x="360" y="324" class="st0" width="54" height="72"/>
			<rect x="414" y="324" class="st0" width="54" height="72"/>
			<rect x="468" y="324" class="st0" width="54" height="72"/>
			<rect x="522" y="324" class="st0" width="54" height="72"/>
		</g>
		<g>
			<rect x="36" y="396" class="st0" width="54" height="72"/>
			<rect x="90" y="396" class="st0" width="54" height="72"/>
			<rect x="144" y="396" class="st0" width="54" height="72"/>
			<rect x="198" y="396" class="st0" width="54" height="72"/>
			<rect x="252" y="396" class="st0" width="54" height="72"/>
			<rect x="306" y="396" class="st0" width="54" height="72"/>
			<rect x="360" y="396" class="st0" width="54" height="72"/>
			<rect x="414" y="396" class="st0" width="54" height="72"/>
			<rect x="468" y="396" class="st0" width="54" height="72"/>
			<rect x="522" y="396" class="st0" width="54" height="72"/>
		</g>
		<g>
			<rect x="36" y="468" class="st0" width="54" height="72"/>
			<rect x="90" y="468" class="st0" width="54" height="72"/>
			<rect x="144" y="468" class="st0" width="54" height="72"/>
			<rect x="198" y="468" class="st0" width="54" height="72"/>
			<rect x="252" y="468" class="st0" width="54" height="72"/>
			<rect x="306" y="468" class="st0" width="54" height="72"/>
			<rect x="360" y="468" class="st0" width="54" height="72"/>
			<rect x="414" y="468" class="st0" width="54" height="72"/>
			<rect x="468" y="468" class="st0" width="54" height="72"/>
			<rect x="522" y="468" class="st0" width="54" height="72"/>
		</g>
		<g>
			<rect x="36" y="540" class="st0" width="54" height="72"/>
			<rect x="90" y="540" class="st0" width="54" height="72"/>
			<rect x="144" y="540" class="st0" width="54" height="72"/>
			<rect x="198" y="540" class="st0" width="54" height="72"/>
			<rect x="252" y="540" class="st0" width="54" height="72"/>
			<rect x="306" y="540" class="st0" width="54" height="72"/>
			<rect x="360" y="540" class="st0" width="54" height="72"/>
			<rect x="414" y="540" class="st0" width="54" height="72"/>
			<rect x="468" y="540" class="st0" width="54" height="72"/>
			<rect x="522" y="540" class="st0" width="54" height="72"/>
		</g>
		<g>
			<rect x="36" y="612" class="st0" width="54" height="72"/>
			<rect x="90" y="612" class="st0" width="54" height="72"/>
			<rect x="144" y="612" class="st0" width="54" height="72"/>
			<rect x="198" y="612" class="st0" width="54" height="72"/>
			<rect x="252" y="612" class="st0" width="54" height="72"/>
			<rect x="306" y="612" class="st0" width="54" height="72"/>
			<rect x="360" y="612" class="st0" width="54" height="72"/>
			<rect x="414" y="612" class="st0" width="54" height="72"/>
			<rect x="468" y="612" class="st0" width="54" height="72"/>
			<rect x="522" y="612" class="st0" width="54" height="72"/>
		</g>
		<g>
			<rect x="36" y="684" class="st0" width="54" height="72"/>
			<rect x="90" y="684" class="st0" width="54" height="72"/>
			<rect x="144" y="684" class="st0" width="54" height="72"/>
			<rect x="198" y="684" class="st0" width="54" height="72"/>
			<rect x="252" y="684" class="st0" width="54" height="72"/>
			<rect x="306" y="684" class="st0" width="54" height="72"/>
			<rect x="360" y="684" class="st0" width="54" height="72"/>
			<rect x="414" y="684" class="st0" width="54" height="72"/>
			<rect x="468" y="684" class="st0" width="54" height="72"/>
			<rect x="522" y="684" class="st0" width="54" height="72"/>
		</g>
	</g>
	<rect class="st1" width="612" height="792"/>
</g>
</svg>
