<?xml version="1.0" encoding="utf-8"?>
<!-- Generator: Adobe Illustrator 23.1.1, SVG Export Plug-In . SVG Version: 6.00 Build 0)  -->
<svg version="1.1" xmlns="http://www.w3.org/2000/svg" xmlns:xlink="http://www.w3.org/1999/xlink" x="0px" y="0px"
	 viewBox="0 0 612 792" style="enable-background:new 0 0 612 792;" xml:space="preserve">
<style type="text/css">
	.st0{fill:none;stroke:#000000;stroke-width:2;}
	.st1{fill:none;stroke:#000000;stroke-width:2;stroke-miterlimit:10;}
</style>
<g id="Artwork">
	<rect class="st0" width="612" height="792"/>
</g>
<g id="Guides">
	<g>
		<g>
			<path class="st1" d="M292.5,391.5h-222c-5,0-9-4-9-9v-342c0-5,4-9,9-9h222c5,0,9,4,9,9v342C301.5,387.5,297.5,391.5,292.5,391.5z
				"/>
			<path class="st1" d="M541.5,391.5h-222c-5,0-9-4-9-9v-342c0-5,4-9,9-9h222c5,0,9,4,9,9v342C550.5,387.5,546.4,391.5,541.5,391.5z
				"/>
		</g>
		<g>
			<path class="st1" d="M292.5,760.5h-222c-5,0-9-4-9-9v-342c0-5,4-9,9-9h222c5,0,9,4,9,9v342C301.5,756.5,297.5,760.5,292.5,760.5z
				"/>
			<path class="st1" d="M541.5,760.5h-222c-5,0-9-4-9-9v-342c0-5,4-9,9-9h222c5,0,9,4,9,9v342C550.5,756.5,546.4,760.5,541.5,760.5z
				"/>
		</g>
	</g>
</g>
</svg>
