<?xml version="1.0" encoding="utf-8"?>
<!-- Generator: Adobe Illustrator 20.1.0, SVG Export Plug-In . SVG Version: 6.00 Build 0)  -->
<svg version="1.1" id="Layer_1" xmlns="http://www.w3.org/2000/svg" xmlns:xlink="http://www.w3.org/1999/xlink" x="0px" y="0px"
	 viewBox="0 0 612 792" style="enable-background:new 0 0 612 792;" xml:space="preserve">
<style type="text/css">
	.st0{fill:none;stroke:#000000;stroke-width:2;}
</style>
<rect class="st0" width="612" height="792"/>
<path class="st0" d="M412.8,478c-3.7,0-6.8-3-6.8-6.8V61.7c0-3.7,3-6.8,6.8-6.8h175.5c3.7,0,6.8,3,6.8,6.8v409.5
	c0,3.7-3,6.8-6.8,6.8H412.8z"/>
<path class="st0" d="M518.5,732.3c0,3.7-3,6.8-6.8,6.8H102.3c-3.7,0-6.8-3-6.8-6.8V556.8c0-3.7,3-6.8,6.8-6.8h409.5
	c3.7,0,6.8,3,6.8,6.8V732.3z"/>
<path class="st0" d="M25.8,478c-3.7,0-6.8-3-6.8-6.8V61.7c0-3.7,3-6.8,6.8-6.8h175.5c3.7,0,6.8,3,6.8,6.8v409.5c0,3.7-3,6.8-6.8,6.8
	H25.8z"/>
<path class="st0" d="M219.3,478c-3.7,0-6.8-3-6.8-6.8V61.7c0-3.7,3-6.8,6.8-6.8h175.5c3.7,0,6.8,3,6.8,6.8v409.5
	c0,3.7-3,6.8-6.8,6.8H219.3z"/>
</svg>
