<svg id="Layer_1" data-name="Layer 1" xmlns="http://www.w3.org/2000/svg" viewBox="0 0 613 793"><defs><style>.cls-1,.cls-2{fill:none;stroke-miterlimit:10;}.cls-1{stroke:#000;}.cls-2{stroke:#231f20;}</style></defs><title>SL1504</title><path class="cls-1" d="M324,666H540V774H324ZM72,666H288V774H72ZM324,558H540V666H324ZM72,558H288V666H72ZM324,450H540V558H324ZM72,450H288V558H72ZM324,342H540V450H324ZM72,342H288V450H72ZM324,234H540V342H324ZM72,234H288V342H72ZM324,126H540V234H324ZM72,126H288V234H72ZM324,18H540V126H324ZM72,18H288V126H72Z" transform="translate(0.5 0.5)"/><rect class="cls-2" x="0.5" y="0.5" width="612" height="792"/></svg>