<?xml version="1.0" encoding="utf-8"?>
<!-- Generator: Adobe Illustrator 24.0.3, SVG Export Plug-In . SVG Version: 6.00 Build 0)  -->
<svg version="1.1" id="Layer_1" xmlns="http://www.w3.org/2000/svg" xmlns:xlink="http://www.w3.org/1999/xlink" x="0px" y="0px"
	 viewBox="0 0 612 792" style="enable-background:new 0 0 612 792;" xml:space="preserve">
<style type="text/css">
	.st0{clip-path:url(#SVGID_2_);}
	.st1{fill:none;stroke:#000000;stroke-miterlimit:10;}
</style>
<g>
	<defs>
		<rect id="SVGID_1_" width="612" height="792"/>
	</defs>
	<clipPath id="SVGID_2_">
		<use xlink:href="#SVGID_1_"  style="overflow:visible;"/>
	</clipPath>
	<g class="st0">
		<g>
			<rect x="18" y="22.5" class="st1" width="36" height="18"/>
			<rect x="63" y="22.5" class="st1" width="36" height="18"/>
			<rect x="108" y="22.5" class="st1" width="36" height="18"/>
			<rect x="153" y="22.5" class="st1" width="36" height="18"/>
			<rect x="198" y="22.5" class="st1" width="36" height="18"/>
			<rect x="243" y="22.5" class="st1" width="36" height="18"/>
			<rect x="288" y="22.5" class="st1" width="36" height="18"/>
			<rect x="333" y="22.5" class="st1" width="36" height="18"/>
			<rect x="378" y="22.5" class="st1" width="36" height="18"/>
			<rect x="423" y="22.5" class="st1" width="36" height="18"/>
			<rect x="468" y="22.5" class="st1" width="36" height="18"/>
			<rect x="513" y="22.5" class="st1" width="36" height="18"/>
			<rect x="558" y="22.5" class="st1" width="36" height="18"/>
		</g>
		<g>
			<rect x="18" y="49.5" class="st1" width="36" height="18"/>
			<rect x="63" y="49.5" class="st1" width="36" height="18"/>
			<rect x="108" y="49.5" class="st1" width="36" height="18"/>
			<rect x="153" y="49.5" class="st1" width="36" height="18"/>
			<rect x="198" y="49.5" class="st1" width="36" height="18"/>
			<rect x="243" y="49.5" class="st1" width="36" height="18"/>
			<rect x="288" y="49.5" class="st1" width="36" height="18"/>
			<rect x="333" y="49.5" class="st1" width="36" height="18"/>
			<rect x="378" y="49.5" class="st1" width="36" height="18"/>
			<rect x="423" y="49.5" class="st1" width="36" height="18"/>
			<rect x="468" y="49.5" class="st1" width="36" height="18"/>
			<rect x="513" y="49.5" class="st1" width="36" height="18"/>
			<rect x="558" y="49.5" class="st1" width="36" height="18"/>
		</g>
		<g>
			<rect x="18" y="76.5" class="st1" width="36" height="18"/>
			<rect x="63" y="76.5" class="st1" width="36" height="18"/>
			<rect x="108" y="76.5" class="st1" width="36" height="18"/>
			<rect x="153" y="76.5" class="st1" width="36" height="18"/>
			<rect x="198" y="76.5" class="st1" width="36" height="18"/>
			<rect x="243" y="76.5" class="st1" width="36" height="18"/>
			<rect x="288" y="76.5" class="st1" width="36" height="18"/>
			<rect x="333" y="76.5" class="st1" width="36" height="18"/>
			<rect x="378" y="76.5" class="st1" width="36" height="18"/>
			<rect x="423" y="76.5" class="st1" width="36" height="18"/>
			<rect x="468" y="76.5" class="st1" width="36" height="18"/>
			<rect x="513" y="76.5" class="st1" width="36" height="18"/>
			<rect x="558" y="76.5" class="st1" width="36" height="18"/>
		</g>
		<g>
			<rect x="18" y="103.5" class="st1" width="36" height="18"/>
			<rect x="63" y="103.5" class="st1" width="36" height="18"/>
			<rect x="108" y="103.5" class="st1" width="36" height="18"/>
			<rect x="153" y="103.5" class="st1" width="36" height="18"/>
			<rect x="198" y="103.5" class="st1" width="36" height="18"/>
			<rect x="243" y="103.5" class="st1" width="36" height="18"/>
			<rect x="288" y="103.5" class="st1" width="36" height="18"/>
			<rect x="333" y="103.5" class="st1" width="36" height="18"/>
			<rect x="378" y="103.5" class="st1" width="36" height="18"/>
			<rect x="423" y="103.5" class="st1" width="36" height="18"/>
			<rect x="468" y="103.5" class="st1" width="36" height="18"/>
			<rect x="513" y="103.5" class="st1" width="36" height="18"/>
			<rect x="558" y="103.5" class="st1" width="36" height="18"/>
		</g>
		<g>
			<rect x="18" y="130.5" class="st1" width="36" height="18"/>
			<rect x="63" y="130.5" class="st1" width="36" height="18"/>
			<rect x="108" y="130.5" class="st1" width="36" height="18"/>
			<rect x="153" y="130.5" class="st1" width="36" height="18"/>
			<rect x="198" y="130.5" class="st1" width="36" height="18"/>
			<rect x="243" y="130.5" class="st1" width="36" height="18"/>
			<rect x="288" y="130.5" class="st1" width="36" height="18"/>
			<rect x="333" y="130.5" class="st1" width="36" height="18"/>
			<rect x="378" y="130.5" class="st1" width="36" height="18"/>
			<rect x="423" y="130.5" class="st1" width="36" height="18"/>
			<rect x="468" y="130.5" class="st1" width="36" height="18"/>
			<rect x="513" y="130.5" class="st1" width="36" height="18"/>
			<rect x="558" y="130.5" class="st1" width="36" height="18"/>
		</g>
		<g>
			<rect x="18" y="157.5" class="st1" width="36" height="18"/>
			<rect x="63" y="157.5" class="st1" width="36" height="18"/>
			<rect x="108" y="157.5" class="st1" width="36" height="18"/>
			<rect x="153" y="157.5" class="st1" width="36" height="18"/>
			<rect x="198" y="157.5" class="st1" width="36" height="18"/>
			<rect x="243" y="157.5" class="st1" width="36" height="18"/>
			<rect x="288" y="157.5" class="st1" width="36" height="18"/>
			<rect x="333" y="157.5" class="st1" width="36" height="18"/>
			<rect x="378" y="157.5" class="st1" width="36" height="18"/>
			<rect x="423" y="157.5" class="st1" width="36" height="18"/>
			<rect x="468" y="157.5" class="st1" width="36" height="18"/>
			<rect x="513" y="157.5" class="st1" width="36" height="18"/>
			<rect x="558" y="157.5" class="st1" width="36" height="18"/>
		</g>
		<g>
			<rect x="18" y="184.5" class="st1" width="36" height="18"/>
			<rect x="63" y="184.5" class="st1" width="36" height="18"/>
			<rect x="108" y="184.5" class="st1" width="36" height="18"/>
			<rect x="153" y="184.5" class="st1" width="36" height="18"/>
			<rect x="198" y="184.5" class="st1" width="36" height="18"/>
			<rect x="243" y="184.5" class="st1" width="36" height="18"/>
			<rect x="288" y="184.5" class="st1" width="36" height="18"/>
			<rect x="333" y="184.5" class="st1" width="36" height="18"/>
			<rect x="378" y="184.5" class="st1" width="36" height="18"/>
			<rect x="423" y="184.5" class="st1" width="36" height="18"/>
			<rect x="468" y="184.5" class="st1" width="36" height="18"/>
			<rect x="513" y="184.5" class="st1" width="36" height="18"/>
			<rect x="558" y="184.5" class="st1" width="36" height="18"/>
		</g>
		<g>
			<rect x="18" y="211.5" class="st1" width="36" height="18"/>
			<rect x="63" y="211.5" class="st1" width="36" height="18"/>
			<rect x="108" y="211.5" class="st1" width="36" height="18"/>
			<rect x="153" y="211.5" class="st1" width="36" height="18"/>
			<rect x="198" y="211.5" class="st1" width="36" height="18"/>
			<rect x="243" y="211.5" class="st1" width="36" height="18"/>
			<rect x="288" y="211.5" class="st1" width="36" height="18"/>
			<rect x="333" y="211.5" class="st1" width="36" height="18"/>
			<rect x="378" y="211.5" class="st1" width="36" height="18"/>
			<rect x="423" y="211.5" class="st1" width="36" height="18"/>
			<rect x="468" y="211.5" class="st1" width="36" height="18"/>
			<rect x="513" y="211.5" class="st1" width="36" height="18"/>
			<rect x="558" y="211.5" class="st1" width="36" height="18"/>
		</g>
		<g>
			<rect x="18" y="238.5" class="st1" width="36" height="18"/>
			<rect x="63" y="238.5" class="st1" width="36" height="18"/>
			<rect x="108" y="238.5" class="st1" width="36" height="18"/>
			<rect x="153" y="238.5" class="st1" width="36" height="18"/>
			<rect x="198" y="238.5" class="st1" width="36" height="18"/>
			<rect x="243" y="238.5" class="st1" width="36" height="18"/>
			<rect x="288" y="238.5" class="st1" width="36" height="18"/>
			<rect x="333" y="238.5" class="st1" width="36" height="18"/>
			<rect x="378" y="238.5" class="st1" width="36" height="18"/>
			<rect x="423" y="238.5" class="st1" width="36" height="18"/>
			<rect x="468" y="238.5" class="st1" width="36" height="18"/>
			<rect x="513" y="238.5" class="st1" width="36" height="18"/>
			<rect x="558" y="238.5" class="st1" width="36" height="18"/>
		</g>
		<g>
			<rect x="18" y="265.5" class="st1" width="36" height="18"/>
			<rect x="63" y="265.5" class="st1" width="36" height="18"/>
			<rect x="108" y="265.5" class="st1" width="36" height="18"/>
			<rect x="153" y="265.5" class="st1" width="36" height="18"/>
			<rect x="198" y="265.5" class="st1" width="36" height="18"/>
			<rect x="243" y="265.5" class="st1" width="36" height="18"/>
			<rect x="288" y="265.5" class="st1" width="36" height="18"/>
			<rect x="333" y="265.5" class="st1" width="36" height="18"/>
			<rect x="378" y="265.5" class="st1" width="36" height="18"/>
			<rect x="423" y="265.5" class="st1" width="36" height="18"/>
			<rect x="468" y="265.5" class="st1" width="36" height="18"/>
			<rect x="513" y="265.5" class="st1" width="36" height="18"/>
			<rect x="558" y="265.5" class="st1" width="36" height="18"/>
		</g>
		<g>
			<rect x="18" y="292.5" class="st1" width="36" height="18"/>
			<rect x="63" y="292.5" class="st1" width="36" height="18"/>
			<rect x="108" y="292.5" class="st1" width="36" height="18"/>
			<rect x="153" y="292.5" class="st1" width="36" height="18"/>
			<rect x="198" y="292.5" class="st1" width="36" height="18"/>
			<rect x="243" y="292.5" class="st1" width="36" height="18"/>
			<rect x="288" y="292.5" class="st1" width="36" height="18"/>
			<rect x="333" y="292.5" class="st1" width="36" height="18"/>
			<rect x="378" y="292.5" class="st1" width="36" height="18"/>
			<rect x="423" y="292.5" class="st1" width="36" height="18"/>
			<rect x="468" y="292.5" class="st1" width="36" height="18"/>
			<rect x="513" y="292.5" class="st1" width="36" height="18"/>
			<rect x="558" y="292.5" class="st1" width="36" height="18"/>
		</g>
		<g>
			<rect x="18" y="319.5" class="st1" width="36" height="18"/>
			<rect x="63" y="319.5" class="st1" width="36" height="18"/>
			<rect x="108" y="319.5" class="st1" width="36" height="18"/>
			<rect x="153" y="319.5" class="st1" width="36" height="18"/>
			<rect x="198" y="319.5" class="st1" width="36" height="18"/>
			<rect x="243" y="319.5" class="st1" width="36" height="18"/>
			<rect x="288" y="319.5" class="st1" width="36" height="18"/>
			<rect x="333" y="319.5" class="st1" width="36" height="18"/>
			<rect x="378" y="319.5" class="st1" width="36" height="18"/>
			<rect x="423" y="319.5" class="st1" width="36" height="18"/>
			<rect x="468" y="319.5" class="st1" width="36" height="18"/>
			<rect x="513" y="319.5" class="st1" width="36" height="18"/>
			<rect x="558" y="319.5" class="st1" width="36" height="18"/>
		</g>
		<g>
			<rect x="18" y="346.5" class="st1" width="36" height="18"/>
			<rect x="63" y="346.5" class="st1" width="36" height="18"/>
			<rect x="108" y="346.5" class="st1" width="36" height="18"/>
			<rect x="153" y="346.5" class="st1" width="36" height="18"/>
			<rect x="198" y="346.5" class="st1" width="36" height="18"/>
			<rect x="243" y="346.5" class="st1" width="36" height="18"/>
			<rect x="288" y="346.5" class="st1" width="36" height="18"/>
			<rect x="333" y="346.5" class="st1" width="36" height="18"/>
			<rect x="378" y="346.5" class="st1" width="36" height="18"/>
			<rect x="423" y="346.5" class="st1" width="36" height="18"/>
			<rect x="468" y="346.5" class="st1" width="36" height="18"/>
			<rect x="513" y="346.5" class="st1" width="36" height="18"/>
			<rect x="558" y="346.5" class="st1" width="36" height="18"/>
		</g>
		<g>
			<rect x="18" y="373.5" class="st1" width="36" height="18"/>
			<rect x="63" y="373.5" class="st1" width="36" height="18"/>
			<rect x="108" y="373.5" class="st1" width="36" height="18"/>
			<rect x="153" y="373.5" class="st1" width="36" height="18"/>
			<rect x="198" y="373.5" class="st1" width="36" height="18"/>
			<rect x="243" y="373.5" class="st1" width="36" height="18"/>
			<rect x="288" y="373.5" class="st1" width="36" height="18"/>
			<rect x="333" y="373.5" class="st1" width="36" height="18"/>
			<rect x="378" y="373.5" class="st1" width="36" height="18"/>
			<rect x="423" y="373.5" class="st1" width="36" height="18"/>
			<rect x="468" y="373.5" class="st1" width="36" height="18"/>
			<rect x="513" y="373.5" class="st1" width="36" height="18"/>
			<rect x="558" y="373.5" class="st1" width="36" height="18"/>
		</g>
		<g>
			<rect x="18" y="400.5" class="st1" width="36" height="18"/>
			<rect x="63" y="400.5" class="st1" width="36" height="18"/>
			<rect x="108" y="400.5" class="st1" width="36" height="18"/>
			<rect x="153" y="400.5" class="st1" width="36" height="18"/>
			<rect x="198" y="400.5" class="st1" width="36" height="18"/>
			<rect x="243" y="400.5" class="st1" width="36" height="18"/>
			<rect x="288" y="400.5" class="st1" width="36" height="18"/>
			<rect x="333" y="400.5" class="st1" width="36" height="18"/>
			<rect x="378" y="400.5" class="st1" width="36" height="18"/>
			<rect x="423" y="400.5" class="st1" width="36" height="18"/>
			<rect x="468" y="400.5" class="st1" width="36" height="18"/>
			<rect x="513" y="400.5" class="st1" width="36" height="18"/>
			<rect x="558" y="400.5" class="st1" width="36" height="18"/>
		</g>
		<g>
			<rect x="18" y="427.5" class="st1" width="36" height="18"/>
			<rect x="63" y="427.5" class="st1" width="36" height="18"/>
			<rect x="108" y="427.5" class="st1" width="36" height="18"/>
			<rect x="153" y="427.5" class="st1" width="36" height="18"/>
			<rect x="198" y="427.5" class="st1" width="36" height="18"/>
			<rect x="243" y="427.5" class="st1" width="36" height="18"/>
			<rect x="288" y="427.5" class="st1" width="36" height="18"/>
			<rect x="333" y="427.5" class="st1" width="36" height="18"/>
			<rect x="378" y="427.5" class="st1" width="36" height="18"/>
			<rect x="423" y="427.5" class="st1" width="36" height="18"/>
			<rect x="468" y="427.5" class="st1" width="36" height="18"/>
			<rect x="513" y="427.5" class="st1" width="36" height="18"/>
			<rect x="558" y="427.5" class="st1" width="36" height="18"/>
		</g>
		<g>
			<rect x="18" y="454.5" class="st1" width="36" height="18"/>
			<rect x="63" y="454.5" class="st1" width="36" height="18"/>
			<rect x="108" y="454.5" class="st1" width="36" height="18"/>
			<rect x="153" y="454.5" class="st1" width="36" height="18"/>
			<rect x="198" y="454.5" class="st1" width="36" height="18"/>
			<rect x="243" y="454.5" class="st1" width="36" height="18"/>
			<rect x="288" y="454.5" class="st1" width="36" height="18"/>
			<rect x="333" y="454.5" class="st1" width="36" height="18"/>
			<rect x="378" y="454.5" class="st1" width="36" height="18"/>
			<rect x="423" y="454.5" class="st1" width="36" height="18"/>
			<rect x="468" y="454.5" class="st1" width="36" height="18"/>
			<rect x="513" y="454.5" class="st1" width="36" height="18"/>
			<rect x="558" y="454.5" class="st1" width="36" height="18"/>
		</g>
		<g>
			<rect x="18" y="481.5" class="st1" width="36" height="18"/>
			<rect x="63" y="481.5" class="st1" width="36" height="18"/>
			<rect x="108" y="481.5" class="st1" width="36" height="18"/>
			<rect x="153" y="481.5" class="st1" width="36" height="18"/>
			<rect x="198" y="481.5" class="st1" width="36" height="18"/>
			<rect x="243" y="481.5" class="st1" width="36" height="18"/>
			<rect x="288" y="481.5" class="st1" width="36" height="18"/>
			<rect x="333" y="481.5" class="st1" width="36" height="18"/>
			<rect x="378" y="481.5" class="st1" width="36" height="18"/>
			<rect x="423" y="481.5" class="st1" width="36" height="18"/>
			<rect x="468" y="481.5" class="st1" width="36" height="18"/>
			<rect x="513" y="481.5" class="st1" width="36" height="18"/>
			<rect x="558" y="481.5" class="st1" width="36" height="18"/>
		</g>
		<g>
			<rect x="18" y="508.5" class="st1" width="36" height="18"/>
			<rect x="63" y="508.5" class="st1" width="36" height="18"/>
			<rect x="108" y="508.5" class="st1" width="36" height="18"/>
			<rect x="153" y="508.5" class="st1" width="36" height="18"/>
			<rect x="198" y="508.5" class="st1" width="36" height="18"/>
			<rect x="243" y="508.5" class="st1" width="36" height="18"/>
			<rect x="288" y="508.5" class="st1" width="36" height="18"/>
			<rect x="333" y="508.5" class="st1" width="36" height="18"/>
			<rect x="378" y="508.5" class="st1" width="36" height="18"/>
			<rect x="423" y="508.5" class="st1" width="36" height="18"/>
			<rect x="468" y="508.5" class="st1" width="36" height="18"/>
			<rect x="513" y="508.5" class="st1" width="36" height="18"/>
			<rect x="558" y="508.5" class="st1" width="36" height="18"/>
		</g>
		<g>
			<rect x="18" y="535.5" class="st1" width="36" height="18"/>
			<rect x="63" y="535.5" class="st1" width="36" height="18"/>
			<rect x="108" y="535.5" class="st1" width="36" height="18"/>
			<rect x="153" y="535.5" class="st1" width="36" height="18"/>
			<rect x="198" y="535.5" class="st1" width="36" height="18"/>
			<rect x="243" y="535.5" class="st1" width="36" height="18"/>
			<rect x="288" y="535.5" class="st1" width="36" height="18"/>
			<rect x="333" y="535.5" class="st1" width="36" height="18"/>
			<rect x="378" y="535.5" class="st1" width="36" height="18"/>
			<rect x="423" y="535.5" class="st1" width="36" height="18"/>
			<rect x="468" y="535.5" class="st1" width="36" height="18"/>
			<rect x="513" y="535.5" class="st1" width="36" height="18"/>
			<rect x="558" y="535.5" class="st1" width="36" height="18"/>
		</g>
		<g>
			<rect x="18" y="562.5" class="st1" width="36" height="18"/>
			<rect x="63" y="562.5" class="st1" width="36" height="18"/>
			<rect x="108" y="562.5" class="st1" width="36" height="18"/>
			<rect x="153" y="562.5" class="st1" width="36" height="18"/>
			<rect x="198" y="562.5" class="st1" width="36" height="18"/>
			<rect x="243" y="562.5" class="st1" width="36" height="18"/>
			<rect x="288" y="562.5" class="st1" width="36" height="18"/>
			<rect x="333" y="562.5" class="st1" width="36" height="18"/>
			<rect x="378" y="562.5" class="st1" width="36" height="18"/>
			<rect x="423" y="562.5" class="st1" width="36" height="18"/>
			<rect x="468" y="562.5" class="st1" width="36" height="18"/>
			<rect x="513" y="562.5" class="st1" width="36" height="18"/>
			<rect x="558" y="562.5" class="st1" width="36" height="18"/>
		</g>
		<g>
			<rect x="18" y="589.5" class="st1" width="36" height="18"/>
			<rect x="63" y="589.5" class="st1" width="36" height="18"/>
			<rect x="108" y="589.5" class="st1" width="36" height="18"/>
			<rect x="153" y="589.5" class="st1" width="36" height="18"/>
			<rect x="198" y="589.5" class="st1" width="36" height="18"/>
			<rect x="243" y="589.5" class="st1" width="36" height="18"/>
			<rect x="288" y="589.5" class="st1" width="36" height="18"/>
			<rect x="333" y="589.5" class="st1" width="36" height="18"/>
			<rect x="378" y="589.5" class="st1" width="36" height="18"/>
			<rect x="423" y="589.5" class="st1" width="36" height="18"/>
			<rect x="468" y="589.5" class="st1" width="36" height="18"/>
			<rect x="513" y="589.5" class="st1" width="36" height="18"/>
			<rect x="558" y="589.5" class="st1" width="36" height="18"/>
		</g>
		<g>
			<rect x="18" y="616.5" class="st1" width="36" height="18"/>
			<rect x="63" y="616.5" class="st1" width="36" height="18"/>
			<rect x="108" y="616.5" class="st1" width="36" height="18"/>
			<rect x="153" y="616.5" class="st1" width="36" height="18"/>
			<rect x="198" y="616.5" class="st1" width="36" height="18"/>
			<rect x="243" y="616.5" class="st1" width="36" height="18"/>
			<rect x="288" y="616.5" class="st1" width="36" height="18"/>
			<rect x="333" y="616.5" class="st1" width="36" height="18"/>
			<rect x="378" y="616.5" class="st1" width="36" height="18"/>
			<rect x="423" y="616.5" class="st1" width="36" height="18"/>
			<rect x="468" y="616.5" class="st1" width="36" height="18"/>
			<rect x="513" y="616.5" class="st1" width="36" height="18"/>
			<rect x="558" y="616.5" class="st1" width="36" height="18"/>
		</g>
		<g>
			<rect x="18" y="643.5" class="st1" width="36" height="18"/>
			<rect x="63" y="643.5" class="st1" width="36" height="18"/>
			<rect x="108" y="643.5" class="st1" width="36" height="18"/>
			<rect x="153" y="643.5" class="st1" width="36" height="18"/>
			<rect x="198" y="643.5" class="st1" width="36" height="18"/>
			<rect x="243" y="643.5" class="st1" width="36" height="18"/>
			<rect x="288" y="643.5" class="st1" width="36" height="18"/>
			<rect x="333" y="643.5" class="st1" width="36" height="18"/>
			<rect x="378" y="643.5" class="st1" width="36" height="18"/>
			<rect x="423" y="643.5" class="st1" width="36" height="18"/>
			<rect x="468" y="643.5" class="st1" width="36" height="18"/>
			<rect x="513" y="643.5" class="st1" width="36" height="18"/>
			<rect x="558" y="643.5" class="st1" width="36" height="18"/>
		</g>
		<g>
			<rect x="18" y="670.5" class="st1" width="36" height="18"/>
			<rect x="63" y="670.5" class="st1" width="36" height="18"/>
			<rect x="108" y="670.5" class="st1" width="36" height="18"/>
			<rect x="153" y="670.5" class="st1" width="36" height="18"/>
			<rect x="198" y="670.5" class="st1" width="36" height="18"/>
			<rect x="243" y="670.5" class="st1" width="36" height="18"/>
			<rect x="288" y="670.5" class="st1" width="36" height="18"/>
			<rect x="333" y="670.5" class="st1" width="36" height="18"/>
			<rect x="378" y="670.5" class="st1" width="36" height="18"/>
			<rect x="423" y="670.5" class="st1" width="36" height="18"/>
			<rect x="468" y="670.5" class="st1" width="36" height="18"/>
			<rect x="513" y="670.5" class="st1" width="36" height="18"/>
			<rect x="558" y="670.5" class="st1" width="36" height="18"/>
		</g>
		<g>
			<rect x="18" y="697.5" class="st1" width="36" height="18"/>
			<rect x="63" y="697.5" class="st1" width="36" height="18"/>
			<rect x="108" y="697.5" class="st1" width="36" height="18"/>
			<rect x="153" y="697.5" class="st1" width="36" height="18"/>
			<rect x="198" y="697.5" class="st1" width="36" height="18"/>
			<rect x="243" y="697.5" class="st1" width="36" height="18"/>
			<rect x="288" y="697.5" class="st1" width="36" height="18"/>
			<rect x="333" y="697.5" class="st1" width="36" height="18"/>
			<rect x="378" y="697.5" class="st1" width="36" height="18"/>
			<rect x="423" y="697.5" class="st1" width="36" height="18"/>
			<rect x="468" y="697.5" class="st1" width="36" height="18"/>
			<rect x="513" y="697.5" class="st1" width="36" height="18"/>
			<rect x="558" y="697.5" class="st1" width="36" height="18"/>
		</g>
		<g>
			<rect x="18" y="724.5" class="st1" width="36" height="18"/>
			<rect x="63" y="724.5" class="st1" width="36" height="18"/>
			<rect x="108" y="724.5" class="st1" width="36" height="18"/>
			<rect x="153" y="724.5" class="st1" width="36" height="18"/>
			<rect x="198" y="724.5" class="st1" width="36" height="18"/>
			<rect x="243" y="724.5" class="st1" width="36" height="18"/>
			<rect x="288" y="724.5" class="st1" width="36" height="18"/>
			<rect x="333" y="724.5" class="st1" width="36" height="18"/>
			<rect x="378" y="724.5" class="st1" width="36" height="18"/>
			<rect x="423" y="724.5" class="st1" width="36" height="18"/>
			<rect x="468" y="724.5" class="st1" width="36" height="18"/>
			<rect x="513" y="724.5" class="st1" width="36" height="18"/>
			<rect x="558" y="724.5" class="st1" width="36" height="18"/>
		</g>
		<g>
			<rect x="18" y="751.5" class="st1" width="36" height="18"/>
			<rect x="63" y="751.5" class="st1" width="36" height="18"/>
			<rect x="108" y="751.5" class="st1" width="36" height="18"/>
			<rect x="153" y="751.5" class="st1" width="36" height="18"/>
			<rect x="198" y="751.5" class="st1" width="36" height="18"/>
			<rect x="243" y="751.5" class="st1" width="36" height="18"/>
			<rect x="288" y="751.5" class="st1" width="36" height="18"/>
			<rect x="333" y="751.5" class="st1" width="36" height="18"/>
			<rect x="378" y="751.5" class="st1" width="36" height="18"/>
			<rect x="423" y="751.5" class="st1" width="36" height="18"/>
			<rect x="468" y="751.5" class="st1" width="36" height="18"/>
			<rect x="513" y="751.5" class="st1" width="36" height="18"/>
			<rect x="558" y="751.5" class="st1" width="36" height="18"/>
		</g>
	</g>
	<use xlink:href="#SVGID_1_"  style="overflow:visible;fill:none;stroke:#000000;stroke-miterlimit:10;"/>
</g>
</svg>
