<?xml version="1.0" encoding="utf-8"?>
<!-- Generator: Adobe Illustrator 24.0.0, SVG Export Plug-In . SVG Version: 6.00 Build 0)  -->
<svg version="1.1" id="Layer_1" xmlns="http://www.w3.org/2000/svg" xmlns:xlink="http://www.w3.org/1999/xlink" x="0px" y="0px"
	 viewBox="0 0 613 793" style="enable-background:new 0 0 613 793;" xml:space="preserve">
<style type="text/css">
	.st0{fill:none;}
	.st1{fill:none;stroke:#231F20;stroke-width:2.016;stroke-miterlimit:10;}
</style>
<title>SL1501</title>
<rect x="1" y="0.5" class="st0" width="612" height="792"/>
<g>
	<path class="st1" d="M117.6,45.85c49.71,0,90,24.18,90,54s-40.29,54-90,54s-90-24.18-90-54S67.89,45.85,117.6,45.85"/>
	<path class="st1" d="M307,45.85c49.71,0,90,24.18,90,54s-40.29,54-90,54s-90-24.18-90-54S257.29,45.85,307,45.85"/>
	<path class="st1" d="M496.35,45.85c49.71,0,90,24.18,90,54s-40.29,54-90,54s-90-24.18-90-54S446.64,45.85,496.35,45.85"/>
	<path class="st1" d="M117.6,164.5c49.71,0,90,24.18,90,54s-40.29,54-90,54s-90-24.18-90-54S67.89,164.5,117.6,164.5"/>
	<path class="st1" d="M307,164.5c49.71,0,90,24.18,90,54s-40.29,54-90,54s-90-24.18-90-54S257.29,164.5,307,164.5"/>
	<path class="st1" d="M496.35,164.5c49.71,0,90,24.18,90,54s-40.29,54-90,54s-90-24.18-90-54S446.64,164.5,496.35,164.5"/>
	<path class="st1" d="M117.6,283.15c49.71,0,90,24.18,90,54s-40.29,54-90,54s-90-24.18-90-54S67.89,283.15,117.6,283.15"/>
	<path class="st1" d="M307,283.15c49.71,0,90,24.18,90,54s-40.29,54-90,54s-90-24.18-90-54S257.29,283.15,307,283.15"/>
	<path class="st1" d="M496.35,283.15c49.71,0,90,24.18,90,54s-40.29,54-90,54s-90-24.18-90-54S446.64,283.15,496.35,283.15"/>
	<path class="st1" d="M117.6,401.8c49.71,0,90,24.18,90,54s-40.29,54-90,54s-90-24.18-90-54S67.89,401.8,117.6,401.8"/>
	<path class="st1" d="M307,401.8c49.71,0,90,24.18,90,54s-40.29,54-90,54s-90-24.18-90-54S257.29,401.8,307,401.8"/>
	<path class="st1" d="M496.35,401.8c49.71,0,90,24.18,90,54s-40.29,54-90,54s-90-24.18-90-54S446.64,401.8,496.35,401.8"/>
	<path class="st1" d="M117.6,520.5c49.71,0,90,24.18,90,54s-40.29,54-90,54s-90-24.18-90-54S67.89,520.5,117.6,520.5"/>
	<path class="st1" d="M307,520.5c49.71,0,90,24.18,90,54s-40.29,54-90,54s-90-24.18-90-54S257.29,520.5,307,520.5"/>
	<path class="st1" d="M496.35,520.5c49.71,0,90,24.18,90,54s-40.29,54-90,54s-90-24.18-90-54S446.64,520.5,496.35,520.5"/>
	<path class="st1" d="M117.6,639.1c49.71,0,90,24.18,90,54s-40.29,54-90,54s-90-24.18-90-54S67.89,639.1,117.6,639.1"/>
	<path class="st1" d="M307,639.1c49.71,0,90,24.18,90,54s-40.29,54-90,54s-90-24.18-90-54S257.29,639.1,307,639.1"/>
	<path class="st1" d="M496.35,639.1c49.71,0,90,24.18,90,54s-40.29,54-90,54s-90-24.18-90-54S446.64,639.1,496.35,639.1"/>
</g>
<rect x="0.5" y="0.5" class="st1" width="612" height="792"/>
</svg>
