<?xml version="1.0" encoding="utf-8"?>
<!-- Generator: Adobe Illustrator 24.0.0, SVG Export Plug-In . SVG Version: 6.00 Build 0)  -->
<svg version="1.1" id="Layer_1" xmlns="http://www.w3.org/2000/svg" xmlns:xlink="http://www.w3.org/1999/xlink" x="0px" y="0px"
	 viewBox="0 0 612 792" style="enable-background:new 0 0 612 792;" xml:space="preserve">
<style type="text/css">
	.st0{clip-path:url(#SVGID_3_);}
	.st1{fill:none;stroke:#000000;stroke-width:2.016;stroke-miterlimit:10;}
</style>
<g>
	<defs>
		<rect id="SVGID_2_" width="612" height="792"/>
	</defs>
	<clipPath id="SVGID_3_">
		<use xlink:href="#SVGID_2_"  style="overflow:visible;"/>
	</clipPath>
	<g class="st0">
		<g>
			<path class="st1" d="M112.5,45c49.71,0,90,40.29,90,90s-40.29,90-90,90s-90-40.29-90-90S62.79,45,112.5,45"/>
			<path class="st1" d="M306.05,45c49.71,0,90,40.29,90,90s-40.29,90-90,90s-90-40.29-90-90S256.34,45,306.05,45"/>
			<path class="st1" d="M499.6,45c49.71,0,90,40.29,90,90s-40.29,90-90,90s-90-40.29-90-90S449.89,45,499.6,45"/>
		</g>
		<g>
			<path class="st1" d="M112.5,306c49.71,0,90,40.29,90,90s-40.29,90-90,90s-90-40.29-90-90S62.79,306,112.5,306"/>
			<path class="st1" d="M306.05,306c49.71,0,90,40.29,90,90s-40.29,90-90,90s-90-40.29-90-90S256.34,306,306.05,306"/>
			<path class="st1" d="M499.6,306c49.71,0,90,40.29,90,90s-40.29,90-90,90s-90-40.29-90-90S449.89,306,499.6,306"/>
		</g>
		<g>
			<path class="st1" d="M112.5,567c49.71,0,90,40.29,90,90s-40.29,90-90,90s-90-40.29-90-90S62.79,567,112.5,567"/>
			<path class="st1" d="M306.05,567c49.71,0,90,40.29,90,90s-40.29,90-90,90s-90-40.29-90-90S256.34,567,306.05,567"/>
			<path class="st1" d="M499.6,567c49.71,0,90,40.29,90,90s-40.29,90-90,90s-90-40.29-90-90S449.89,567,499.6,567"/>
		</g>
	</g>
</g>
<rect id="SVGID_1_" class="st1" width="612" height="792"/>
</svg>
