<?xml version="1.0" encoding="utf-8"?>
<!-- Generator: Adobe Illustrator 24.1.0, SVG Export Plug-In . SVG Version: 6.00 Build 0)  -->
<svg version="1.1" id="Layer_1" xmlns="http://www.w3.org/2000/svg" xmlns:xlink="http://www.w3.org/1999/xlink" x="0px" y="0px"
	 viewBox="0 0 613 793" style="enable-background:new 0 0 613 793;" xml:space="preserve">
<style type="text/css">
	.st0{fill:none;stroke:#231F20;stroke-width:2.016;}
	.st1{fill:none;stroke:#231F20;stroke-width:2.016;stroke-miterlimit:10;}
</style>
<rect x="0.5" y="0.5" class="st0" width="612" height="792"/>
<rect x="27.5" y="117.5" class="st1" width="72" height="72"/>
<rect x="108.5" y="117.5" class="st1" width="72" height="72"/>
<rect x="189.5" y="117.5" class="st1" width="72" height="72"/>
<rect x="270.5" y="117.5" class="st1" width="72" height="72"/>
<rect x="351.5" y="117.5" class="st1" width="72" height="72"/>
<rect x="432.5" y="117.5" class="st1" width="72" height="72"/>
<rect x="513.5" y="117.5" class="st1" width="72" height="72"/>
<rect x="27.5" y="36.5" class="st1" width="72" height="72"/>
<rect x="108.5" y="36.5" class="st1" width="72" height="72"/>
<rect x="189.5" y="36.5" class="st1" width="72" height="72"/>
<rect x="270.5" y="36.5" class="st1" width="72" height="72"/>
<rect x="351.5" y="36.5" class="st1" width="72" height="72"/>
<rect x="432.5" y="36.5" class="st1" width="72" height="72"/>
<rect x="513.5" y="36.5" class="st1" width="72" height="72"/>
<rect x="27.5" y="198.5" class="st1" width="72" height="72"/>
<rect x="108.5" y="198.5" class="st1" width="72" height="72"/>
<rect x="189.5" y="198.5" class="st1" width="72" height="72"/>
<rect x="270.5" y="198.5" class="st1" width="72" height="72"/>
<rect x="351.5" y="198.5" class="st1" width="72" height="72"/>
<rect x="432.5" y="198.5" class="st1" width="72" height="72"/>
<rect x="513.5" y="198.5" class="st1" width="72" height="72"/>
<rect x="27.5" y="279.5" class="st1" width="72" height="72"/>
<rect x="108.5" y="279.5" class="st1" width="72" height="72"/>
<rect x="189.5" y="279.5" class="st1" width="72" height="72"/>
<rect x="270.5" y="279.5" class="st1" width="72" height="72"/>
<rect x="351.5" y="279.5" class="st1" width="72" height="72"/>
<rect x="432.5" y="279.5" class="st1" width="72" height="72"/>
<rect x="513.5" y="279.5" class="st1" width="72" height="72"/>
<rect x="27.5" y="360.5" class="st1" width="72" height="72"/>
<rect x="108.5" y="360.5" class="st1" width="72" height="72"/>
<rect x="189.5" y="360.5" class="st1" width="72" height="72"/>
<rect x="270.5" y="360.5" class="st1" width="72" height="72"/>
<rect x="351.5" y="360.5" class="st1" width="72" height="72"/>
<rect x="432.5" y="360.5" class="st1" width="72" height="72"/>
<rect x="513.5" y="360.5" class="st1" width="72" height="72"/>
<rect x="27.5" y="441.5" class="st1" width="72" height="72"/>
<rect x="108.5" y="441.5" class="st1" width="72" height="72"/>
<rect x="189.5" y="441.5" class="st1" width="72" height="72"/>
<rect x="270.5" y="441.5" class="st1" width="72" height="72"/>
<rect x="351.5" y="441.5" class="st1" width="72" height="72"/>
<rect x="432.5" y="441.5" class="st1" width="72" height="72"/>
<rect x="513.5" y="441.5" class="st1" width="72" height="72"/>
<rect x="27.5" y="522.5" class="st1" width="72" height="72"/>
<rect x="108.5" y="522.5" class="st1" width="72" height="72"/>
<rect x="189.5" y="522.5" class="st1" width="72" height="72"/>
<rect x="270.5" y="522.5" class="st1" width="72" height="72"/>
<rect x="351.5" y="522.5" class="st1" width="72" height="72"/>
<rect x="432.5" y="522.5" class="st1" width="72" height="72"/>
<rect x="513.5" y="522.5" class="st1" width="72" height="72"/>
<rect x="27.5" y="603.5" class="st1" width="72" height="72"/>
<rect x="108.5" y="603.5" class="st1" width="72" height="72"/>
<rect x="189.5" y="603.5" class="st1" width="72" height="72"/>
<rect x="270.5" y="603.5" class="st1" width="72" height="72"/>
<rect x="351.5" y="603.5" class="st1" width="72" height="72"/>
<rect x="432.5" y="603.5" class="st1" width="72" height="72"/>
<rect x="513.5" y="603.5" class="st1" width="72" height="72"/>
<rect x="27.5" y="684.5" class="st1" width="72" height="72"/>
<rect x="108.5" y="684.5" class="st1" width="72" height="72"/>
<rect x="189.5" y="684.5" class="st1" width="72" height="72"/>
<rect x="270.5" y="684.5" class="st1" width="72" height="72"/>
<rect x="351.5" y="684.5" class="st1" width="72" height="72"/>
<rect x="432.5" y="684.5" class="st1" width="72" height="72"/>
<rect x="513.5" y="684.5" class="st1" width="72" height="72"/>
</svg>
