<?xml version="1.0" encoding="utf-8"?>
<!-- Generator: Adobe Illustrator 26.5.0, SVG Export Plug-In . SVG Version: 6.00 Build 0)  -->
<svg version="1.1" id="Layer_1" xmlns="http://www.w3.org/2000/svg" xmlns:xlink="http://www.w3.org/1999/xlink" x="0px" y="0px"
	 viewBox="0 0 612 792" style="enable-background:new 0 0 612 792;" xml:space="preserve">
<style type="text/css">
	.st0{fill:none;stroke:#000000;stroke-miterlimit:10;}
	.st1{fill:none;stroke:#000000;}
</style>
<rect x="0.5" class="st0" width="612" height="792"/>
<rect class="st1" width="612" height="792"/>
<g>
	<g>
		<path class="st1" d="M81.5,40.5h-36c-2.5,0-4.5-2-4.5-4.5v-9c0-2.5,2-4.5,4.5-4.5h36c2.5,0,4.5,2,4.5,4.5v9
			C86,38.5,84,40.5,81.5,40.5z"/>
		<path class="st1" d="M135.5,40.5h-36c-2.5,0-4.5-2-4.5-4.5v-9c0-2.5,2-4.5,4.5-4.5h36c2.5,0,4.5,2,4.5,4.5v9
			C140,38.5,138,40.5,135.5,40.5z"/>
		<path class="st1" d="M189.5,40.5h-36c-2.5,0-4.5-2-4.5-4.5v-9c0-2.5,2-4.5,4.5-4.5h36c2.5,0,4.5,2,4.5,4.5v9
			C194,38.5,192,40.5,189.5,40.5z"/>
		<path class="st1" d="M243.5,40.5h-36c-2.5,0-4.5-2-4.5-4.5v-9c0-2.5,2-4.5,4.5-4.5h36c2.5,0,4.5,2,4.5,4.5v9
			C248,38.5,246,40.5,243.5,40.5z"/>
		<path class="st1" d="M297.5,40.5h-36c-2.5,0-4.5-2-4.5-4.5v-9c0-2.5,2-4.5,4.5-4.5h36c2.5,0,4.5,2,4.5,4.5v9
			C302,38.5,300,40.5,297.5,40.5z"/>
		<path class="st1" d="M351.5,40.5h-36c-2.5,0-4.5-2-4.5-4.5v-9c0-2.5,2-4.5,4.5-4.5h36c2.5,0,4.5,2,4.5,4.5v9
			C356,38.5,354,40.5,351.5,40.5z"/>
		<path class="st1" d="M405.5,40.5h-36c-2.5,0-4.5-2-4.5-4.5v-9c0-2.5,2-4.5,4.5-4.5h36c2.5,0,4.5,2,4.5,4.5v9
			C410,38.5,408,40.5,405.5,40.5z"/>
		<path class="st1" d="M459.5,40.5h-36c-2.5,0-4.5-2-4.5-4.5v-9c0-2.5,2-4.5,4.5-4.5h36c2.5,0,4.5,2,4.5,4.5v9
			C464,38.5,462,40.5,459.5,40.5z"/>
		<path class="st1" d="M513.5,40.5h-36c-2.5,0-4.5-2-4.5-4.5v-9c0-2.5,2-4.5,4.5-4.5h36c2.5,0,4.5,2,4.5,4.5v9
			C518,38.5,516,40.5,513.5,40.5z"/>
		<path class="st1" d="M567.5,40.5h-36c-2.5,0-4.5-2-4.5-4.5v-9c0-2.5,2-4.5,4.5-4.5h36c2.5,0,4.5,2,4.5,4.5v9
			C572,38.5,570,40.5,567.5,40.5z"/>
	</g>
	<g>
		<path class="st1" d="M81.5,67.5h-36c-2.5,0-4.5-2-4.5-4.5v-9c0-2.5,2-4.5,4.5-4.5h36c2.5,0,4.5,2,4.5,4.5v9
			C86,65.5,84,67.5,81.5,67.5z"/>
		<path class="st1" d="M135.5,67.5h-36c-2.5,0-4.5-2-4.5-4.5v-9c0-2.5,2-4.5,4.5-4.5h36c2.5,0,4.5,2,4.5,4.5v9
			C140,65.5,138,67.5,135.5,67.5z"/>
		<path class="st1" d="M189.5,67.5h-36c-2.5,0-4.5-2-4.5-4.5v-9c0-2.5,2-4.5,4.5-4.5h36c2.5,0,4.5,2,4.5,4.5v9
			C194,65.5,192,67.5,189.5,67.5z"/>
		<path class="st1" d="M243.5,67.5h-36c-2.5,0-4.5-2-4.5-4.5v-9c0-2.5,2-4.5,4.5-4.5h36c2.5,0,4.5,2,4.5,4.5v9
			C248,65.5,246,67.5,243.5,67.5z"/>
		<path class="st1" d="M297.5,67.5h-36c-2.5,0-4.5-2-4.5-4.5v-9c0-2.5,2-4.5,4.5-4.5h36c2.5,0,4.5,2,4.5,4.5v9
			C302,65.5,300,67.5,297.5,67.5z"/>
		<path class="st1" d="M351.5,67.5h-36c-2.5,0-4.5-2-4.5-4.5v-9c0-2.5,2-4.5,4.5-4.5h36c2.5,0,4.5,2,4.5,4.5v9
			C356,65.5,354,67.5,351.5,67.5z"/>
		<path class="st1" d="M405.5,67.5h-36c-2.5,0-4.5-2-4.5-4.5v-9c0-2.5,2-4.5,4.5-4.5h36c2.5,0,4.5,2,4.5,4.5v9
			C410,65.5,408,67.5,405.5,67.5z"/>
		<path class="st1" d="M459.5,67.5h-36c-2.5,0-4.5-2-4.5-4.5v-9c0-2.5,2-4.5,4.5-4.5h36c2.5,0,4.5,2,4.5,4.5v9
			C464,65.5,462,67.5,459.5,67.5z"/>
		<path class="st1" d="M513.5,67.5h-36c-2.5,0-4.5-2-4.5-4.5v-9c0-2.5,2-4.5,4.5-4.5h36c2.5,0,4.5,2,4.5,4.5v9
			C518,65.5,516,67.5,513.5,67.5z"/>
		<path class="st1" d="M567.5,67.5h-36c-2.5,0-4.5-2-4.5-4.5v-9c0-2.5,2-4.5,4.5-4.5h36c2.5,0,4.5,2,4.5,4.5v9
			C572,65.5,570,67.5,567.5,67.5z"/>
	</g>
	<g>
		<path class="st1" d="M81.5,94.5h-36c-2.5,0-4.5-2-4.5-4.5v-9c0-2.5,2-4.5,4.5-4.5h36c2.5,0,4.5,2,4.5,4.5v9
			C86,92.5,84,94.5,81.5,94.5z"/>
		<path class="st1" d="M135.5,94.5h-36c-2.5,0-4.5-2-4.5-4.5v-9c0-2.5,2-4.5,4.5-4.5h36c2.5,0,4.5,2,4.5,4.5v9
			C140,92.5,138,94.5,135.5,94.5z"/>
		<path class="st1" d="M189.5,94.5h-36c-2.5,0-4.5-2-4.5-4.5v-9c0-2.5,2-4.5,4.5-4.5h36c2.5,0,4.5,2,4.5,4.5v9
			C194,92.5,192,94.5,189.5,94.5z"/>
		<path class="st1" d="M243.5,94.5h-36c-2.5,0-4.5-2-4.5-4.5v-9c0-2.5,2-4.5,4.5-4.5h36c2.5,0,4.5,2,4.5,4.5v9
			C248,92.5,246,94.5,243.5,94.5z"/>
		<path class="st1" d="M297.5,94.5h-36c-2.5,0-4.5-2-4.5-4.5v-9c0-2.5,2-4.5,4.5-4.5h36c2.5,0,4.5,2,4.5,4.5v9
			C302,92.5,300,94.5,297.5,94.5z"/>
		<path class="st1" d="M351.5,94.5h-36c-2.5,0-4.5-2-4.5-4.5v-9c0-2.5,2-4.5,4.5-4.5h36c2.5,0,4.5,2,4.5,4.5v9
			C356,92.5,354,94.5,351.5,94.5z"/>
		<path class="st1" d="M405.5,94.5h-36c-2.5,0-4.5-2-4.5-4.5v-9c0-2.5,2-4.5,4.5-4.5h36c2.5,0,4.5,2,4.5,4.5v9
			C410,92.5,408,94.5,405.5,94.5z"/>
		<path class="st1" d="M459.5,94.5h-36c-2.5,0-4.5-2-4.5-4.5v-9c0-2.5,2-4.5,4.5-4.5h36c2.5,0,4.5,2,4.5,4.5v9
			C464,92.5,462,94.5,459.5,94.5z"/>
		<path class="st1" d="M513.5,94.5h-36c-2.5,0-4.5-2-4.5-4.5v-9c0-2.5,2-4.5,4.5-4.5h36c2.5,0,4.5,2,4.5,4.5v9
			C518,92.5,516,94.5,513.5,94.5z"/>
		<path class="st1" d="M567.5,94.5h-36c-2.5,0-4.5-2-4.5-4.5v-9c0-2.5,2-4.5,4.5-4.5h36c2.5,0,4.5,2,4.5,4.5v9
			C572,92.5,570,94.5,567.5,94.5z"/>
	</g>
	<g>
		<path class="st1" d="M81.5,121.5h-36c-2.5,0-4.5-2-4.5-4.5v-9c0-2.5,2-4.5,4.5-4.5h36c2.5,0,4.5,2,4.5,4.5v9
			C86,119.5,84,121.5,81.5,121.5z"/>
		<path class="st1" d="M135.5,121.5h-36c-2.5,0-4.5-2-4.5-4.5v-9c0-2.5,2-4.5,4.5-4.5h36c2.5,0,4.5,2,4.5,4.5v9
			C140,119.5,138,121.5,135.5,121.5z"/>
		<path class="st1" d="M189.5,121.5h-36c-2.5,0-4.5-2-4.5-4.5v-9c0-2.5,2-4.5,4.5-4.5h36c2.5,0,4.5,2,4.5,4.5v9
			C194,119.5,192,121.5,189.5,121.5z"/>
		<path class="st1" d="M243.5,121.5h-36c-2.5,0-4.5-2-4.5-4.5v-9c0-2.5,2-4.5,4.5-4.5h36c2.5,0,4.5,2,4.5,4.5v9
			C248,119.5,246,121.5,243.5,121.5z"/>
		<path class="st1" d="M297.5,121.5h-36c-2.5,0-4.5-2-4.5-4.5v-9c0-2.5,2-4.5,4.5-4.5h36c2.5,0,4.5,2,4.5,4.5v9
			C302,119.5,300,121.5,297.5,121.5z"/>
		<path class="st1" d="M351.5,121.5h-36c-2.5,0-4.5-2-4.5-4.5v-9c0-2.5,2-4.5,4.5-4.5h36c2.5,0,4.5,2,4.5,4.5v9
			C356,119.5,354,121.5,351.5,121.5z"/>
		<path class="st1" d="M405.5,121.5h-36c-2.5,0-4.5-2-4.5-4.5v-9c0-2.5,2-4.5,4.5-4.5h36c2.5,0,4.5,2,4.5,4.5v9
			C410,119.5,408,121.5,405.5,121.5z"/>
		<path class="st1" d="M459.5,121.5h-36c-2.5,0-4.5-2-4.5-4.5v-9c0-2.5,2-4.5,4.5-4.5h36c2.5,0,4.5,2,4.5,4.5v9
			C464,119.5,462,121.5,459.5,121.5z"/>
		<path class="st1" d="M513.5,121.5h-36c-2.5,0-4.5-2-4.5-4.5v-9c0-2.5,2-4.5,4.5-4.5h36c2.5,0,4.5,2,4.5,4.5v9
			C518,119.5,516,121.5,513.5,121.5z"/>
		<path class="st1" d="M567.5,121.5h-36c-2.5,0-4.5-2-4.5-4.5v-9c0-2.5,2-4.5,4.5-4.5h36c2.5,0,4.5,2,4.5,4.5v9
			C572,119.5,570,121.5,567.5,121.5z"/>
	</g>
	<g>
		<path class="st1" d="M81.5,148.5h-36c-2.5,0-4.5-2-4.5-4.5v-9c0-2.5,2-4.5,4.5-4.5h36c2.5,0,4.5,2,4.5,4.5v9
			C86,146.5,84,148.5,81.5,148.5z"/>
		<path class="st1" d="M135.5,148.5h-36c-2.5,0-4.5-2-4.5-4.5v-9c0-2.5,2-4.5,4.5-4.5h36c2.5,0,4.5,2,4.5,4.5v9
			C140,146.5,138,148.5,135.5,148.5z"/>
		<path class="st1" d="M189.5,148.5h-36c-2.5,0-4.5-2-4.5-4.5v-9c0-2.5,2-4.5,4.5-4.5h36c2.5,0,4.5,2,4.5,4.5v9
			C194,146.5,192,148.5,189.5,148.5z"/>
		<path class="st1" d="M243.5,148.5h-36c-2.5,0-4.5-2-4.5-4.5v-9c0-2.5,2-4.5,4.5-4.5h36c2.5,0,4.5,2,4.5,4.5v9
			C248,146.5,246,148.5,243.5,148.5z"/>
		<path class="st1" d="M297.5,148.5h-36c-2.5,0-4.5-2-4.5-4.5v-9c0-2.5,2-4.5,4.5-4.5h36c2.5,0,4.5,2,4.5,4.5v9
			C302,146.5,300,148.5,297.5,148.5z"/>
		<path class="st1" d="M351.5,148.5h-36c-2.5,0-4.5-2-4.5-4.5v-9c0-2.5,2-4.5,4.5-4.5h36c2.5,0,4.5,2,4.5,4.5v9
			C356,146.5,354,148.5,351.5,148.5z"/>
		<path class="st1" d="M405.5,148.5h-36c-2.5,0-4.5-2-4.5-4.5v-9c0-2.5,2-4.5,4.5-4.5h36c2.5,0,4.5,2,4.5,4.5v9
			C410,146.5,408,148.5,405.5,148.5z"/>
		<path class="st1" d="M459.5,148.5h-36c-2.5,0-4.5-2-4.5-4.5v-9c0-2.5,2-4.5,4.5-4.5h36c2.5,0,4.5,2,4.5,4.5v9
			C464,146.5,462,148.5,459.5,148.5z"/>
		<path class="st1" d="M513.5,148.5h-36c-2.5,0-4.5-2-4.5-4.5v-9c0-2.5,2-4.5,4.5-4.5h36c2.5,0,4.5,2,4.5,4.5v9
			C518,146.5,516,148.5,513.5,148.5z"/>
		<path class="st1" d="M567.5,148.5h-36c-2.5,0-4.5-2-4.5-4.5v-9c0-2.5,2-4.5,4.5-4.5h36c2.5,0,4.5,2,4.5,4.5v9
			C572,146.5,570,148.5,567.5,148.5z"/>
	</g>
	<g>
		<path class="st1" d="M81.5,175.5h-36c-2.5,0-4.5-2-4.5-4.5v-9c0-2.5,2-4.5,4.5-4.5h36c2.5,0,4.5,2,4.5,4.5v9
			C86,173.5,84,175.5,81.5,175.5z"/>
		<path class="st1" d="M135.5,175.5h-36c-2.5,0-4.5-2-4.5-4.5v-9c0-2.5,2-4.5,4.5-4.5h36c2.5,0,4.5,2,4.5,4.5v9
			C140,173.5,138,175.5,135.5,175.5z"/>
		<path class="st1" d="M189.5,175.5h-36c-2.5,0-4.5-2-4.5-4.5v-9c0-2.5,2-4.5,4.5-4.5h36c2.5,0,4.5,2,4.5,4.5v9
			C194,173.5,192,175.5,189.5,175.5z"/>
		<path class="st1" d="M243.5,175.5h-36c-2.5,0-4.5-2-4.5-4.5v-9c0-2.5,2-4.5,4.5-4.5h36c2.5,0,4.5,2,4.5,4.5v9
			C248,173.5,246,175.5,243.5,175.5z"/>
		<path class="st1" d="M297.5,175.5h-36c-2.5,0-4.5-2-4.5-4.5v-9c0-2.5,2-4.5,4.5-4.5h36c2.5,0,4.5,2,4.5,4.5v9
			C302,173.5,300,175.5,297.5,175.5z"/>
		<path class="st1" d="M351.5,175.5h-36c-2.5,0-4.5-2-4.5-4.5v-9c0-2.5,2-4.5,4.5-4.5h36c2.5,0,4.5,2,4.5,4.5v9
			C356,173.5,354,175.5,351.5,175.5z"/>
		<path class="st1" d="M405.5,175.5h-36c-2.5,0-4.5-2-4.5-4.5v-9c0-2.5,2-4.5,4.5-4.5h36c2.5,0,4.5,2,4.5,4.5v9
			C410,173.5,408,175.5,405.5,175.5z"/>
		<path class="st1" d="M459.5,175.5h-36c-2.5,0-4.5-2-4.5-4.5v-9c0-2.5,2-4.5,4.5-4.5h36c2.5,0,4.5,2,4.5,4.5v9
			C464,173.5,462,175.5,459.5,175.5z"/>
		<path class="st1" d="M513.5,175.5h-36c-2.5,0-4.5-2-4.5-4.5v-9c0-2.5,2-4.5,4.5-4.5h36c2.5,0,4.5,2,4.5,4.5v9
			C518,173.5,516,175.5,513.5,175.5z"/>
		<path class="st1" d="M567.5,175.5h-36c-2.5,0-4.5-2-4.5-4.5v-9c0-2.5,2-4.5,4.5-4.5h36c2.5,0,4.5,2,4.5,4.5v9
			C572,173.5,570,175.5,567.5,175.5z"/>
	</g>
	<g>
		<path class="st1" d="M81.5,202.5h-36c-2.5,0-4.5-2-4.5-4.5v-9c0-2.5,2-4.5,4.5-4.5h36c2.5,0,4.5,2,4.5,4.5v9
			C86,200.5,84,202.5,81.5,202.5z"/>
		<path class="st1" d="M135.5,202.5h-36c-2.5,0-4.5-2-4.5-4.5v-9c0-2.5,2-4.5,4.5-4.5h36c2.5,0,4.5,2,4.5,4.5v9
			C140,200.5,138,202.5,135.5,202.5z"/>
		<path class="st1" d="M189.5,202.5h-36c-2.5,0-4.5-2-4.5-4.5v-9c0-2.5,2-4.5,4.5-4.5h36c2.5,0,4.5,2,4.5,4.5v9
			C194,200.5,192,202.5,189.5,202.5z"/>
		<path class="st1" d="M243.5,202.5h-36c-2.5,0-4.5-2-4.5-4.5v-9c0-2.5,2-4.5,4.5-4.5h36c2.5,0,4.5,2,4.5,4.5v9
			C248,200.5,246,202.5,243.5,202.5z"/>
		<path class="st1" d="M297.5,202.5h-36c-2.5,0-4.5-2-4.5-4.5v-9c0-2.5,2-4.5,4.5-4.5h36c2.5,0,4.5,2,4.5,4.5v9
			C302,200.5,300,202.5,297.5,202.5z"/>
		<path class="st1" d="M351.5,202.5h-36c-2.5,0-4.5-2-4.5-4.5v-9c0-2.5,2-4.5,4.5-4.5h36c2.5,0,4.5,2,4.5,4.5v9
			C356,200.5,354,202.5,351.5,202.5z"/>
		<path class="st1" d="M405.5,202.5h-36c-2.5,0-4.5-2-4.5-4.5v-9c0-2.5,2-4.5,4.5-4.5h36c2.5,0,4.5,2,4.5,4.5v9
			C410,200.5,408,202.5,405.5,202.5z"/>
		<path class="st1" d="M459.5,202.5h-36c-2.5,0-4.5-2-4.5-4.5v-9c0-2.5,2-4.5,4.5-4.5h36c2.5,0,4.5,2,4.5,4.5v9
			C464,200.5,462,202.5,459.5,202.5z"/>
		<path class="st1" d="M513.5,202.5h-36c-2.5,0-4.5-2-4.5-4.5v-9c0-2.5,2-4.5,4.5-4.5h36c2.5,0,4.5,2,4.5,4.5v9
			C518,200.5,516,202.5,513.5,202.5z"/>
		<path class="st1" d="M567.5,202.5h-36c-2.5,0-4.5-2-4.5-4.5v-9c0-2.5,2-4.5,4.5-4.5h36c2.5,0,4.5,2,4.5,4.5v9
			C572,200.5,570,202.5,567.5,202.5z"/>
	</g>
	<g>
		<path class="st1" d="M81.5,229.5h-36c-2.5,0-4.5-2-4.5-4.5v-9c0-2.5,2-4.5,4.5-4.5h36c2.5,0,4.5,2,4.5,4.5v9
			C86,227.5,84,229.5,81.5,229.5z"/>
		<path class="st1" d="M135.5,229.5h-36c-2.5,0-4.5-2-4.5-4.5v-9c0-2.5,2-4.5,4.5-4.5h36c2.5,0,4.5,2,4.5,4.5v9
			C140,227.5,138,229.5,135.5,229.5z"/>
		<path class="st1" d="M189.5,229.5h-36c-2.5,0-4.5-2-4.5-4.5v-9c0-2.5,2-4.5,4.5-4.5h36c2.5,0,4.5,2,4.5,4.5v9
			C194,227.5,192,229.5,189.5,229.5z"/>
		<path class="st1" d="M243.5,229.5h-36c-2.5,0-4.5-2-4.5-4.5v-9c0-2.5,2-4.5,4.5-4.5h36c2.5,0,4.5,2,4.5,4.5v9
			C248,227.5,246,229.5,243.5,229.5z"/>
		<path class="st1" d="M297.5,229.5h-36c-2.5,0-4.5-2-4.5-4.5v-9c0-2.5,2-4.5,4.5-4.5h36c2.5,0,4.5,2,4.5,4.5v9
			C302,227.5,300,229.5,297.5,229.5z"/>
		<path class="st1" d="M351.5,229.5h-36c-2.5,0-4.5-2-4.5-4.5v-9c0-2.5,2-4.5,4.5-4.5h36c2.5,0,4.5,2,4.5,4.5v9
			C356,227.5,354,229.5,351.5,229.5z"/>
		<path class="st1" d="M405.5,229.5h-36c-2.5,0-4.5-2-4.5-4.5v-9c0-2.5,2-4.5,4.5-4.5h36c2.5,0,4.5,2,4.5,4.5v9
			C410,227.5,408,229.5,405.5,229.5z"/>
		<path class="st1" d="M459.5,229.5h-36c-2.5,0-4.5-2-4.5-4.5v-9c0-2.5,2-4.5,4.5-4.5h36c2.5,0,4.5,2,4.5,4.5v9
			C464,227.5,462,229.5,459.5,229.5z"/>
		<path class="st1" d="M513.5,229.5h-36c-2.5,0-4.5-2-4.5-4.5v-9c0-2.5,2-4.5,4.5-4.5h36c2.5,0,4.5,2,4.5,4.5v9
			C518,227.5,516,229.5,513.5,229.5z"/>
		<path class="st1" d="M567.5,229.5h-36c-2.5,0-4.5-2-4.5-4.5v-9c0-2.5,2-4.5,4.5-4.5h36c2.5,0,4.5,2,4.5,4.5v9
			C572,227.5,570,229.5,567.5,229.5z"/>
	</g>
	<g>
		<path class="st1" d="M81.5,256.5h-36c-2.5,0-4.5-2-4.5-4.5v-9c0-2.5,2-4.5,4.5-4.5h36c2.5,0,4.5,2,4.5,4.5v9
			C86,254.5,84,256.5,81.5,256.5z"/>
		<path class="st1" d="M135.5,256.5h-36c-2.5,0-4.5-2-4.5-4.5v-9c0-2.5,2-4.5,4.5-4.5h36c2.5,0,4.5,2,4.5,4.5v9
			C140,254.5,138,256.5,135.5,256.5z"/>
		<path class="st1" d="M189.5,256.5h-36c-2.5,0-4.5-2-4.5-4.5v-9c0-2.5,2-4.5,4.5-4.5h36c2.5,0,4.5,2,4.5,4.5v9
			C194,254.5,192,256.5,189.5,256.5z"/>
		<path class="st1" d="M243.5,256.5h-36c-2.5,0-4.5-2-4.5-4.5v-9c0-2.5,2-4.5,4.5-4.5h36c2.5,0,4.5,2,4.5,4.5v9
			C248,254.5,246,256.5,243.5,256.5z"/>
		<path class="st1" d="M297.5,256.5h-36c-2.5,0-4.5-2-4.5-4.5v-9c0-2.5,2-4.5,4.5-4.5h36c2.5,0,4.5,2,4.5,4.5v9
			C302,254.5,300,256.5,297.5,256.5z"/>
		<path class="st1" d="M351.5,256.5h-36c-2.5,0-4.5-2-4.5-4.5v-9c0-2.5,2-4.5,4.5-4.5h36c2.5,0,4.5,2,4.5,4.5v9
			C356,254.5,354,256.5,351.5,256.5z"/>
		<path class="st1" d="M405.5,256.5h-36c-2.5,0-4.5-2-4.5-4.5v-9c0-2.5,2-4.5,4.5-4.5h36c2.5,0,4.5,2,4.5,4.5v9
			C410,254.5,408,256.5,405.5,256.5z"/>
		<path class="st1" d="M459.5,256.5h-36c-2.5,0-4.5-2-4.5-4.5v-9c0-2.5,2-4.5,4.5-4.5h36c2.5,0,4.5,2,4.5,4.5v9
			C464,254.5,462,256.5,459.5,256.5z"/>
		<path class="st1" d="M513.5,256.5h-36c-2.5,0-4.5-2-4.5-4.5v-9c0-2.5,2-4.5,4.5-4.5h36c2.5,0,4.5,2,4.5,4.5v9
			C518,254.5,516,256.5,513.5,256.5z"/>
		<path class="st1" d="M567.5,256.5h-36c-2.5,0-4.5-2-4.5-4.5v-9c0-2.5,2-4.5,4.5-4.5h36c2.5,0,4.5,2,4.5,4.5v9
			C572,254.5,570,256.5,567.5,256.5z"/>
	</g>
	<g>
		<path class="st1" d="M81.5,283.5h-36c-2.5,0-4.5-2-4.5-4.5v-9c0-2.5,2-4.5,4.5-4.5h36c2.5,0,4.5,2,4.5,4.5v9
			C86,281.5,84,283.5,81.5,283.5z"/>
		<path class="st1" d="M135.5,283.5h-36c-2.5,0-4.5-2-4.5-4.5v-9c0-2.5,2-4.5,4.5-4.5h36c2.5,0,4.5,2,4.5,4.5v9
			C140,281.5,138,283.5,135.5,283.5z"/>
		<path class="st1" d="M189.5,283.5h-36c-2.5,0-4.5-2-4.5-4.5v-9c0-2.5,2-4.5,4.5-4.5h36c2.5,0,4.5,2,4.5,4.5v9
			C194,281.5,192,283.5,189.5,283.5z"/>
		<path class="st1" d="M243.5,283.5h-36c-2.5,0-4.5-2-4.5-4.5v-9c0-2.5,2-4.5,4.5-4.5h36c2.5,0,4.5,2,4.5,4.5v9
			C248,281.5,246,283.5,243.5,283.5z"/>
		<path class="st1" d="M297.5,283.5h-36c-2.5,0-4.5-2-4.5-4.5v-9c0-2.5,2-4.5,4.5-4.5h36c2.5,0,4.5,2,4.5,4.5v9
			C302,281.5,300,283.5,297.5,283.5z"/>
		<path class="st1" d="M351.5,283.5h-36c-2.5,0-4.5-2-4.5-4.5v-9c0-2.5,2-4.5,4.5-4.5h36c2.5,0,4.5,2,4.5,4.5v9
			C356,281.5,354,283.5,351.5,283.5z"/>
		<path class="st1" d="M405.5,283.5h-36c-2.5,0-4.5-2-4.5-4.5v-9c0-2.5,2-4.5,4.5-4.5h36c2.5,0,4.5,2,4.5,4.5v9
			C410,281.5,408,283.5,405.5,283.5z"/>
		<path class="st1" d="M459.5,283.5h-36c-2.5,0-4.5-2-4.5-4.5v-9c0-2.5,2-4.5,4.5-4.5h36c2.5,0,4.5,2,4.5,4.5v9
			C464,281.5,462,283.5,459.5,283.5z"/>
		<path class="st1" d="M513.5,283.5h-36c-2.5,0-4.5-2-4.5-4.5v-9c0-2.5,2-4.5,4.5-4.5h36c2.5,0,4.5,2,4.5,4.5v9
			C518,281.5,516,283.5,513.5,283.5z"/>
		<path class="st1" d="M567.5,283.5h-36c-2.5,0-4.5-2-4.5-4.5v-9c0-2.5,2-4.5,4.5-4.5h36c2.5,0,4.5,2,4.5,4.5v9
			C572,281.5,570,283.5,567.5,283.5z"/>
	</g>
	<g>
		<path class="st1" d="M81.5,310.5h-36c-2.5,0-4.5-2-4.5-4.5v-9c0-2.5,2-4.5,4.5-4.5h36c2.5,0,4.5,2,4.5,4.5v9
			C86,308.5,84,310.5,81.5,310.5z"/>
		<path class="st1" d="M135.5,310.5h-36c-2.5,0-4.5-2-4.5-4.5v-9c0-2.5,2-4.5,4.5-4.5h36c2.5,0,4.5,2,4.5,4.5v9
			C140,308.5,138,310.5,135.5,310.5z"/>
		<path class="st1" d="M189.5,310.5h-36c-2.5,0-4.5-2-4.5-4.5v-9c0-2.5,2-4.5,4.5-4.5h36c2.5,0,4.5,2,4.5,4.5v9
			C194,308.5,192,310.5,189.5,310.5z"/>
		<path class="st1" d="M243.5,310.5h-36c-2.5,0-4.5-2-4.5-4.5v-9c0-2.5,2-4.5,4.5-4.5h36c2.5,0,4.5,2,4.5,4.5v9
			C248,308.5,246,310.5,243.5,310.5z"/>
		<path class="st1" d="M297.5,310.5h-36c-2.5,0-4.5-2-4.5-4.5v-9c0-2.5,2-4.5,4.5-4.5h36c2.5,0,4.5,2,4.5,4.5v9
			C302,308.5,300,310.5,297.5,310.5z"/>
		<path class="st1" d="M351.5,310.5h-36c-2.5,0-4.5-2-4.5-4.5v-9c0-2.5,2-4.5,4.5-4.5h36c2.5,0,4.5,2,4.5,4.5v9
			C356,308.5,354,310.5,351.5,310.5z"/>
		<path class="st1" d="M405.5,310.5h-36c-2.5,0-4.5-2-4.5-4.5v-9c0-2.5,2-4.5,4.5-4.5h36c2.5,0,4.5,2,4.5,4.5v9
			C410,308.5,408,310.5,405.5,310.5z"/>
		<path class="st1" d="M459.5,310.5h-36c-2.5,0-4.5-2-4.5-4.5v-9c0-2.5,2-4.5,4.5-4.5h36c2.5,0,4.5,2,4.5,4.5v9
			C464,308.5,462,310.5,459.5,310.5z"/>
		<path class="st1" d="M513.5,310.5h-36c-2.5,0-4.5-2-4.5-4.5v-9c0-2.5,2-4.5,4.5-4.5h36c2.5,0,4.5,2,4.5,4.5v9
			C518,308.5,516,310.5,513.5,310.5z"/>
		<path class="st1" d="M567.5,310.5h-36c-2.5,0-4.5-2-4.5-4.5v-9c0-2.5,2-4.5,4.5-4.5h36c2.5,0,4.5,2,4.5,4.5v9
			C572,308.5,570,310.5,567.5,310.5z"/>
	</g>
	<g>
		<path class="st1" d="M81.5,337.5h-36c-2.5,0-4.5-2-4.5-4.5v-9c0-2.5,2-4.5,4.5-4.5h36c2.5,0,4.5,2,4.5,4.5v9
			C86,335.5,84,337.5,81.5,337.5z"/>
		<path class="st1" d="M135.5,337.5h-36c-2.5,0-4.5-2-4.5-4.5v-9c0-2.5,2-4.5,4.5-4.5h36c2.5,0,4.5,2,4.5,4.5v9
			C140,335.5,138,337.5,135.5,337.5z"/>
		<path class="st1" d="M189.5,337.5h-36c-2.5,0-4.5-2-4.5-4.5v-9c0-2.5,2-4.5,4.5-4.5h36c2.5,0,4.5,2,4.5,4.5v9
			C194,335.5,192,337.5,189.5,337.5z"/>
		<path class="st1" d="M243.5,337.5h-36c-2.5,0-4.5-2-4.5-4.5v-9c0-2.5,2-4.5,4.5-4.5h36c2.5,0,4.5,2,4.5,4.5v9
			C248,335.5,246,337.5,243.5,337.5z"/>
		<path class="st1" d="M297.5,337.5h-36c-2.5,0-4.5-2-4.5-4.5v-9c0-2.5,2-4.5,4.5-4.5h36c2.5,0,4.5,2,4.5,4.5v9
			C302,335.5,300,337.5,297.5,337.5z"/>
		<path class="st1" d="M351.5,337.5h-36c-2.5,0-4.5-2-4.5-4.5v-9c0-2.5,2-4.5,4.5-4.5h36c2.5,0,4.5,2,4.5,4.5v9
			C356,335.5,354,337.5,351.5,337.5z"/>
		<path class="st1" d="M405.5,337.5h-36c-2.5,0-4.5-2-4.5-4.5v-9c0-2.5,2-4.5,4.5-4.5h36c2.5,0,4.5,2,4.5,4.5v9
			C410,335.5,408,337.5,405.5,337.5z"/>
		<path class="st1" d="M459.5,337.5h-36c-2.5,0-4.5-2-4.5-4.5v-9c0-2.5,2-4.5,4.5-4.5h36c2.5,0,4.5,2,4.5,4.5v9
			C464,335.5,462,337.5,459.5,337.5z"/>
		<path class="st1" d="M513.5,337.5h-36c-2.5,0-4.5-2-4.5-4.5v-9c0-2.5,2-4.5,4.5-4.5h36c2.5,0,4.5,2,4.5,4.5v9
			C518,335.5,516,337.5,513.5,337.5z"/>
		<path class="st1" d="M567.5,337.5h-36c-2.5,0-4.5-2-4.5-4.5v-9c0-2.5,2-4.5,4.5-4.5h36c2.5,0,4.5,2,4.5,4.5v9
			C572,335.5,570,337.5,567.5,337.5z"/>
	</g>
	<g>
		<path class="st1" d="M81.5,364.5h-36c-2.5,0-4.5-2-4.5-4.5v-9c0-2.5,2-4.5,4.5-4.5h36c2.5,0,4.5,2,4.5,4.5v9
			C86,362.5,84,364.5,81.5,364.5z"/>
		<path class="st1" d="M135.5,364.5h-36c-2.5,0-4.5-2-4.5-4.5v-9c0-2.5,2-4.5,4.5-4.5h36c2.5,0,4.5,2,4.5,4.5v9
			C140,362.5,138,364.5,135.5,364.5z"/>
		<path class="st1" d="M189.5,364.5h-36c-2.5,0-4.5-2-4.5-4.5v-9c0-2.5,2-4.5,4.5-4.5h36c2.5,0,4.5,2,4.5,4.5v9
			C194,362.5,192,364.5,189.5,364.5z"/>
		<path class="st1" d="M243.5,364.5h-36c-2.5,0-4.5-2-4.5-4.5v-9c0-2.5,2-4.5,4.5-4.5h36c2.5,0,4.5,2,4.5,4.5v9
			C248,362.5,246,364.5,243.5,364.5z"/>
		<path class="st1" d="M297.5,364.5h-36c-2.5,0-4.5-2-4.5-4.5v-9c0-2.5,2-4.5,4.5-4.5h36c2.5,0,4.5,2,4.5,4.5v9
			C302,362.5,300,364.5,297.5,364.5z"/>
		<path class="st1" d="M351.5,364.5h-36c-2.5,0-4.5-2-4.5-4.5v-9c0-2.5,2-4.5,4.5-4.5h36c2.5,0,4.5,2,4.5,4.5v9
			C356,362.5,354,364.5,351.5,364.5z"/>
		<path class="st1" d="M405.5,364.5h-36c-2.5,0-4.5-2-4.5-4.5v-9c0-2.5,2-4.5,4.5-4.5h36c2.5,0,4.5,2,4.5,4.5v9
			C410,362.5,408,364.5,405.5,364.5z"/>
		<path class="st1" d="M459.5,364.5h-36c-2.5,0-4.5-2-4.5-4.5v-9c0-2.5,2-4.5,4.5-4.5h36c2.5,0,4.5,2,4.5,4.5v9
			C464,362.5,462,364.5,459.5,364.5z"/>
		<path class="st1" d="M513.5,364.5h-36c-2.5,0-4.5-2-4.5-4.5v-9c0-2.5,2-4.5,4.5-4.5h36c2.5,0,4.5,2,4.5,4.5v9
			C518,362.5,516,364.5,513.5,364.5z"/>
		<path class="st1" d="M567.5,364.5h-36c-2.5,0-4.5-2-4.5-4.5v-9c0-2.5,2-4.5,4.5-4.5h36c2.5,0,4.5,2,4.5,4.5v9
			C572,362.5,570,364.5,567.5,364.5z"/>
	</g>
	<g>
		<path class="st1" d="M81.5,391.5h-36c-2.5,0-4.5-2-4.5-4.5v-9c0-2.5,2-4.5,4.5-4.5h36c2.5,0,4.5,2,4.5,4.5v9
			C86,389.5,84,391.5,81.5,391.5z"/>
		<path class="st1" d="M135.5,391.5h-36c-2.5,0-4.5-2-4.5-4.5v-9c0-2.5,2-4.5,4.5-4.5h36c2.5,0,4.5,2,4.5,4.5v9
			C140,389.5,138,391.5,135.5,391.5z"/>
		<path class="st1" d="M189.5,391.5h-36c-2.5,0-4.5-2-4.5-4.5v-9c0-2.5,2-4.5,4.5-4.5h36c2.5,0,4.5,2,4.5,4.5v9
			C194,389.5,192,391.5,189.5,391.5z"/>
		<path class="st1" d="M243.5,391.5h-36c-2.5,0-4.5-2-4.5-4.5v-9c0-2.5,2-4.5,4.5-4.5h36c2.5,0,4.5,2,4.5,4.5v9
			C248,389.5,246,391.5,243.5,391.5z"/>
		<path class="st1" d="M297.5,391.5h-36c-2.5,0-4.5-2-4.5-4.5v-9c0-2.5,2-4.5,4.5-4.5h36c2.5,0,4.5,2,4.5,4.5v9
			C302,389.5,300,391.5,297.5,391.5z"/>
		<path class="st1" d="M351.5,391.5h-36c-2.5,0-4.5-2-4.5-4.5v-9c0-2.5,2-4.5,4.5-4.5h36c2.5,0,4.5,2,4.5,4.5v9
			C356,389.5,354,391.5,351.5,391.5z"/>
		<path class="st1" d="M405.5,391.5h-36c-2.5,0-4.5-2-4.5-4.5v-9c0-2.5,2-4.5,4.5-4.5h36c2.5,0,4.5,2,4.5,4.5v9
			C410,389.5,408,391.5,405.5,391.5z"/>
		<path class="st1" d="M459.5,391.5h-36c-2.5,0-4.5-2-4.5-4.5v-9c0-2.5,2-4.5,4.5-4.5h36c2.5,0,4.5,2,4.5,4.5v9
			C464,389.5,462,391.5,459.5,391.5z"/>
		<path class="st1" d="M513.5,391.5h-36c-2.5,0-4.5-2-4.5-4.5v-9c0-2.5,2-4.5,4.5-4.5h36c2.5,0,4.5,2,4.5,4.5v9
			C518,389.5,516,391.5,513.5,391.5z"/>
		<path class="st1" d="M567.5,391.5h-36c-2.5,0-4.5-2-4.5-4.5v-9c0-2.5,2-4.5,4.5-4.5h36c2.5,0,4.5,2,4.5,4.5v9
			C572,389.5,570,391.5,567.5,391.5z"/>
	</g>
	<g>
		<path class="st1" d="M81.5,418.5h-36c-2.5,0-4.5-2-4.5-4.5v-9c0-2.5,2-4.5,4.5-4.5h36c2.5,0,4.5,2,4.5,4.5v9
			C86,416.5,84,418.5,81.5,418.5z"/>
		<path class="st1" d="M135.5,418.5h-36c-2.5,0-4.5-2-4.5-4.5v-9c0-2.5,2-4.5,4.5-4.5h36c2.5,0,4.5,2,4.5,4.5v9
			C140,416.5,138,418.5,135.5,418.5z"/>
		<path class="st1" d="M189.5,418.5h-36c-2.5,0-4.5-2-4.5-4.5v-9c0-2.5,2-4.5,4.5-4.5h36c2.5,0,4.5,2,4.5,4.5v9
			C194,416.5,192,418.5,189.5,418.5z"/>
		<path class="st1" d="M243.5,418.5h-36c-2.5,0-4.5-2-4.5-4.5v-9c0-2.5,2-4.5,4.5-4.5h36c2.5,0,4.5,2,4.5,4.5v9
			C248,416.5,246,418.5,243.5,418.5z"/>
		<path class="st1" d="M297.5,418.5h-36c-2.5,0-4.5-2-4.5-4.5v-9c0-2.5,2-4.5,4.5-4.5h36c2.5,0,4.5,2,4.5,4.5v9
			C302,416.5,300,418.5,297.5,418.5z"/>
		<path class="st1" d="M351.5,418.5h-36c-2.5,0-4.5-2-4.5-4.5v-9c0-2.5,2-4.5,4.5-4.5h36c2.5,0,4.5,2,4.5,4.5v9
			C356,416.5,354,418.5,351.5,418.5z"/>
		<path class="st1" d="M405.5,418.5h-36c-2.5,0-4.5-2-4.5-4.5v-9c0-2.5,2-4.5,4.5-4.5h36c2.5,0,4.5,2,4.5,4.5v9
			C410,416.5,408,418.5,405.5,418.5z"/>
		<path class="st1" d="M459.5,418.5h-36c-2.5,0-4.5-2-4.5-4.5v-9c0-2.5,2-4.5,4.5-4.5h36c2.5,0,4.5,2,4.5,4.5v9
			C464,416.5,462,418.5,459.5,418.5z"/>
		<path class="st1" d="M513.5,418.5h-36c-2.5,0-4.5-2-4.5-4.5v-9c0-2.5,2-4.5,4.5-4.5h36c2.5,0,4.5,2,4.5,4.5v9
			C518,416.5,516,418.5,513.5,418.5z"/>
		<path class="st1" d="M567.5,418.5h-36c-2.5,0-4.5-2-4.5-4.5v-9c0-2.5,2-4.5,4.5-4.5h36c2.5,0,4.5,2,4.5,4.5v9
			C572,416.5,570,418.5,567.5,418.5z"/>
	</g>
	<g>
		<path class="st1" d="M81.5,445.5h-36c-2.5,0-4.5-2-4.5-4.5v-9c0-2.5,2-4.5,4.5-4.5h36c2.5,0,4.5,2,4.5,4.5v9
			C86,443.5,84,445.5,81.5,445.5z"/>
		<path class="st1" d="M135.5,445.5h-36c-2.5,0-4.5-2-4.5-4.5v-9c0-2.5,2-4.5,4.5-4.5h36c2.5,0,4.5,2,4.5,4.5v9
			C140,443.5,138,445.5,135.5,445.5z"/>
		<path class="st1" d="M189.5,445.5h-36c-2.5,0-4.5-2-4.5-4.5v-9c0-2.5,2-4.5,4.5-4.5h36c2.5,0,4.5,2,4.5,4.5v9
			C194,443.5,192,445.5,189.5,445.5z"/>
		<path class="st1" d="M243.5,445.5h-36c-2.5,0-4.5-2-4.5-4.5v-9c0-2.5,2-4.5,4.5-4.5h36c2.5,0,4.5,2,4.5,4.5v9
			C248,443.5,246,445.5,243.5,445.5z"/>
		<path class="st1" d="M297.5,445.5h-36c-2.5,0-4.5-2-4.5-4.5v-9c0-2.5,2-4.5,4.5-4.5h36c2.5,0,4.5,2,4.5,4.5v9
			C302,443.5,300,445.5,297.5,445.5z"/>
		<path class="st1" d="M351.5,445.5h-36c-2.5,0-4.5-2-4.5-4.5v-9c0-2.5,2-4.5,4.5-4.5h36c2.5,0,4.5,2,4.5,4.5v9
			C356,443.5,354,445.5,351.5,445.5z"/>
		<path class="st1" d="M405.5,445.5h-36c-2.5,0-4.5-2-4.5-4.5v-9c0-2.5,2-4.5,4.5-4.5h36c2.5,0,4.5,2,4.5,4.5v9
			C410,443.5,408,445.5,405.5,445.5z"/>
		<path class="st1" d="M459.5,445.5h-36c-2.5,0-4.5-2-4.5-4.5v-9c0-2.5,2-4.5,4.5-4.5h36c2.5,0,4.5,2,4.5,4.5v9
			C464,443.5,462,445.5,459.5,445.5z"/>
		<path class="st1" d="M513.5,445.5h-36c-2.5,0-4.5-2-4.5-4.5v-9c0-2.5,2-4.5,4.5-4.5h36c2.5,0,4.5,2,4.5,4.5v9
			C518,443.5,516,445.5,513.5,445.5z"/>
		<path class="st1" d="M567.5,445.5h-36c-2.5,0-4.5-2-4.5-4.5v-9c0-2.5,2-4.5,4.5-4.5h36c2.5,0,4.5,2,4.5,4.5v9
			C572,443.5,570,445.5,567.5,445.5z"/>
	</g>
	<g>
		<path class="st1" d="M81.5,472.5h-36c-2.5,0-4.5-2-4.5-4.5v-9c0-2.5,2-4.5,4.5-4.5h36c2.5,0,4.5,2,4.5,4.5v9
			C86,470.5,84,472.5,81.5,472.5z"/>
		<path class="st1" d="M135.5,472.5h-36c-2.5,0-4.5-2-4.5-4.5v-9c0-2.5,2-4.5,4.5-4.5h36c2.5,0,4.5,2,4.5,4.5v9
			C140,470.5,138,472.5,135.5,472.5z"/>
		<path class="st1" d="M189.5,472.5h-36c-2.5,0-4.5-2-4.5-4.5v-9c0-2.5,2-4.5,4.5-4.5h36c2.5,0,4.5,2,4.5,4.5v9
			C194,470.5,192,472.5,189.5,472.5z"/>
		<path class="st1" d="M243.5,472.5h-36c-2.5,0-4.5-2-4.5-4.5v-9c0-2.5,2-4.5,4.5-4.5h36c2.5,0,4.5,2,4.5,4.5v9
			C248,470.5,246,472.5,243.5,472.5z"/>
		<path class="st1" d="M297.5,472.5h-36c-2.5,0-4.5-2-4.5-4.5v-9c0-2.5,2-4.5,4.5-4.5h36c2.5,0,4.5,2,4.5,4.5v9
			C302,470.5,300,472.5,297.5,472.5z"/>
		<path class="st1" d="M351.5,472.5h-36c-2.5,0-4.5-2-4.5-4.5v-9c0-2.5,2-4.5,4.5-4.5h36c2.5,0,4.5,2,4.5,4.5v9
			C356,470.5,354,472.5,351.5,472.5z"/>
		<path class="st1" d="M405.5,472.5h-36c-2.5,0-4.5-2-4.5-4.5v-9c0-2.5,2-4.5,4.5-4.5h36c2.5,0,4.5,2,4.5,4.5v9
			C410,470.5,408,472.5,405.5,472.5z"/>
		<path class="st1" d="M459.5,472.5h-36c-2.5,0-4.5-2-4.5-4.5v-9c0-2.5,2-4.5,4.5-4.5h36c2.5,0,4.5,2,4.5,4.5v9
			C464,470.5,462,472.5,459.5,472.5z"/>
		<path class="st1" d="M513.5,472.5h-36c-2.5,0-4.5-2-4.5-4.5v-9c0-2.5,2-4.5,4.5-4.5h36c2.5,0,4.5,2,4.5,4.5v9
			C518,470.5,516,472.5,513.5,472.5z"/>
		<path class="st1" d="M567.5,472.5h-36c-2.5,0-4.5-2-4.5-4.5v-9c0-2.5,2-4.5,4.5-4.5h36c2.5,0,4.5,2,4.5,4.5v9
			C572,470.5,570,472.5,567.5,472.5z"/>
	</g>
	<g>
		<path class="st1" d="M81.5,499.5h-36c-2.5,0-4.5-2-4.5-4.5v-9c0-2.5,2-4.5,4.5-4.5h36c2.5,0,4.5,2,4.5,4.5v9
			C86,497.5,84,499.5,81.5,499.5z"/>
		<path class="st1" d="M135.5,499.5h-36c-2.5,0-4.5-2-4.5-4.5v-9c0-2.5,2-4.5,4.5-4.5h36c2.5,0,4.5,2,4.5,4.5v9
			C140,497.5,138,499.5,135.5,499.5z"/>
		<path class="st1" d="M189.5,499.5h-36c-2.5,0-4.5-2-4.5-4.5v-9c0-2.5,2-4.5,4.5-4.5h36c2.5,0,4.5,2,4.5,4.5v9
			C194,497.5,192,499.5,189.5,499.5z"/>
		<path class="st1" d="M243.5,499.5h-36c-2.5,0-4.5-2-4.5-4.5v-9c0-2.5,2-4.5,4.5-4.5h36c2.5,0,4.5,2,4.5,4.5v9
			C248,497.5,246,499.5,243.5,499.5z"/>
		<path class="st1" d="M297.5,499.5h-36c-2.5,0-4.5-2-4.5-4.5v-9c0-2.5,2-4.5,4.5-4.5h36c2.5,0,4.5,2,4.5,4.5v9
			C302,497.5,300,499.5,297.5,499.5z"/>
		<path class="st1" d="M351.5,499.5h-36c-2.5,0-4.5-2-4.5-4.5v-9c0-2.5,2-4.5,4.5-4.5h36c2.5,0,4.5,2,4.5,4.5v9
			C356,497.5,354,499.5,351.5,499.5z"/>
		<path class="st1" d="M405.5,499.5h-36c-2.5,0-4.5-2-4.5-4.5v-9c0-2.5,2-4.5,4.5-4.5h36c2.5,0,4.5,2,4.5,4.5v9
			C410,497.5,408,499.5,405.5,499.5z"/>
		<path class="st1" d="M459.5,499.5h-36c-2.5,0-4.5-2-4.5-4.5v-9c0-2.5,2-4.5,4.5-4.5h36c2.5,0,4.5,2,4.5,4.5v9
			C464,497.5,462,499.5,459.5,499.5z"/>
		<path class="st1" d="M513.5,499.5h-36c-2.5,0-4.5-2-4.5-4.5v-9c0-2.5,2-4.5,4.5-4.5h36c2.5,0,4.5,2,4.5,4.5v9
			C518,497.5,516,499.5,513.5,499.5z"/>
		<path class="st1" d="M567.5,499.5h-36c-2.5,0-4.5-2-4.5-4.5v-9c0-2.5,2-4.5,4.5-4.5h36c2.5,0,4.5,2,4.5,4.5v9
			C572,497.5,570,499.5,567.5,499.5z"/>
	</g>
	<g>
		<path class="st1" d="M81.5,526.5h-36c-2.5,0-4.5-2-4.5-4.5v-9c0-2.5,2-4.5,4.5-4.5h36c2.5,0,4.5,2,4.5,4.5v9
			C86,524.5,84,526.5,81.5,526.5z"/>
		<path class="st1" d="M135.5,526.5h-36c-2.5,0-4.5-2-4.5-4.5v-9c0-2.5,2-4.5,4.5-4.5h36c2.5,0,4.5,2,4.5,4.5v9
			C140,524.5,138,526.5,135.5,526.5z"/>
		<path class="st1" d="M189.5,526.5h-36c-2.5,0-4.5-2-4.5-4.5v-9c0-2.5,2-4.5,4.5-4.5h36c2.5,0,4.5,2,4.5,4.5v9
			C194,524.5,192,526.5,189.5,526.5z"/>
		<path class="st1" d="M243.5,526.5h-36c-2.5,0-4.5-2-4.5-4.5v-9c0-2.5,2-4.5,4.5-4.5h36c2.5,0,4.5,2,4.5,4.5v9
			C248,524.5,246,526.5,243.5,526.5z"/>
		<path class="st1" d="M297.5,526.5h-36c-2.5,0-4.5-2-4.5-4.5v-9c0-2.5,2-4.5,4.5-4.5h36c2.5,0,4.5,2,4.5,4.5v9
			C302,524.5,300,526.5,297.5,526.5z"/>
		<path class="st1" d="M351.5,526.5h-36c-2.5,0-4.5-2-4.5-4.5v-9c0-2.5,2-4.5,4.5-4.5h36c2.5,0,4.5,2,4.5,4.5v9
			C356,524.5,354,526.5,351.5,526.5z"/>
		<path class="st1" d="M405.5,526.5h-36c-2.5,0-4.5-2-4.5-4.5v-9c0-2.5,2-4.5,4.5-4.5h36c2.5,0,4.5,2,4.5,4.5v9
			C410,524.5,408,526.5,405.5,526.5z"/>
		<path class="st1" d="M459.5,526.5h-36c-2.5,0-4.5-2-4.5-4.5v-9c0-2.5,2-4.5,4.5-4.5h36c2.5,0,4.5,2,4.5,4.5v9
			C464,524.5,462,526.5,459.5,526.5z"/>
		<path class="st1" d="M513.5,526.5h-36c-2.5,0-4.5-2-4.5-4.5v-9c0-2.5,2-4.5,4.5-4.5h36c2.5,0,4.5,2,4.5,4.5v9
			C518,524.5,516,526.5,513.5,526.5z"/>
		<path class="st1" d="M567.5,526.5h-36c-2.5,0-4.5-2-4.5-4.5v-9c0-2.5,2-4.5,4.5-4.5h36c2.5,0,4.5,2,4.5,4.5v9
			C572,524.5,570,526.5,567.5,526.5z"/>
	</g>
	<g>
		<path class="st1" d="M81.5,553.5h-36c-2.5,0-4.5-2-4.5-4.5v-9c0-2.5,2-4.5,4.5-4.5h36c2.5,0,4.5,2,4.5,4.5v9
			C86,551.5,84,553.5,81.5,553.5z"/>
		<path class="st1" d="M135.5,553.5h-36c-2.5,0-4.5-2-4.5-4.5v-9c0-2.5,2-4.5,4.5-4.5h36c2.5,0,4.5,2,4.5,4.5v9
			C140,551.5,138,553.5,135.5,553.5z"/>
		<path class="st1" d="M189.5,553.5h-36c-2.5,0-4.5-2-4.5-4.5v-9c0-2.5,2-4.5,4.5-4.5h36c2.5,0,4.5,2,4.5,4.5v9
			C194,551.5,192,553.5,189.5,553.5z"/>
		<path class="st1" d="M243.5,553.5h-36c-2.5,0-4.5-2-4.5-4.5v-9c0-2.5,2-4.5,4.5-4.5h36c2.5,0,4.5,2,4.5,4.5v9
			C248,551.5,246,553.5,243.5,553.5z"/>
		<path class="st1" d="M297.5,553.5h-36c-2.5,0-4.5-2-4.5-4.5v-9c0-2.5,2-4.5,4.5-4.5h36c2.5,0,4.5,2,4.5,4.5v9
			C302,551.5,300,553.5,297.5,553.5z"/>
		<path class="st1" d="M351.5,553.5h-36c-2.5,0-4.5-2-4.5-4.5v-9c0-2.5,2-4.5,4.5-4.5h36c2.5,0,4.5,2,4.5,4.5v9
			C356,551.5,354,553.5,351.5,553.5z"/>
		<path class="st1" d="M405.5,553.5h-36c-2.5,0-4.5-2-4.5-4.5v-9c0-2.5,2-4.5,4.5-4.5h36c2.5,0,4.5,2,4.5,4.5v9
			C410,551.5,408,553.5,405.5,553.5z"/>
		<path class="st1" d="M459.5,553.5h-36c-2.5,0-4.5-2-4.5-4.5v-9c0-2.5,2-4.5,4.5-4.5h36c2.5,0,4.5,2,4.5,4.5v9
			C464,551.5,462,553.5,459.5,553.5z"/>
		<path class="st1" d="M513.5,553.5h-36c-2.5,0-4.5-2-4.5-4.5v-9c0-2.5,2-4.5,4.5-4.5h36c2.5,0,4.5,2,4.5,4.5v9
			C518,551.5,516,553.5,513.5,553.5z"/>
		<path class="st1" d="M567.5,553.5h-36c-2.5,0-4.5-2-4.5-4.5v-9c0-2.5,2-4.5,4.5-4.5h36c2.5,0,4.5,2,4.5,4.5v9
			C572,551.5,570,553.5,567.5,553.5z"/>
	</g>
	<g>
		<path class="st1" d="M81.5,580.5h-36c-2.5,0-4.5-2-4.5-4.5v-9c0-2.5,2-4.5,4.5-4.5h36c2.5,0,4.5,2,4.5,4.5v9
			C86,578.5,84,580.5,81.5,580.5z"/>
		<path class="st1" d="M135.5,580.5h-36c-2.5,0-4.5-2-4.5-4.5v-9c0-2.5,2-4.5,4.5-4.5h36c2.5,0,4.5,2,4.5,4.5v9
			C140,578.5,138,580.5,135.5,580.5z"/>
		<path class="st1" d="M189.5,580.5h-36c-2.5,0-4.5-2-4.5-4.5v-9c0-2.5,2-4.5,4.5-4.5h36c2.5,0,4.5,2,4.5,4.5v9
			C194,578.5,192,580.5,189.5,580.5z"/>
		<path class="st1" d="M243.5,580.5h-36c-2.5,0-4.5-2-4.5-4.5v-9c0-2.5,2-4.5,4.5-4.5h36c2.5,0,4.5,2,4.5,4.5v9
			C248,578.5,246,580.5,243.5,580.5z"/>
		<path class="st1" d="M297.5,580.5h-36c-2.5,0-4.5-2-4.5-4.5v-9c0-2.5,2-4.5,4.5-4.5h36c2.5,0,4.5,2,4.5,4.5v9
			C302,578.5,300,580.5,297.5,580.5z"/>
		<path class="st1" d="M351.5,580.5h-36c-2.5,0-4.5-2-4.5-4.5v-9c0-2.5,2-4.5,4.5-4.5h36c2.5,0,4.5,2,4.5,4.5v9
			C356,578.5,354,580.5,351.5,580.5z"/>
		<path class="st1" d="M405.5,580.5h-36c-2.5,0-4.5-2-4.5-4.5v-9c0-2.5,2-4.5,4.5-4.5h36c2.5,0,4.5,2,4.5,4.5v9
			C410,578.5,408,580.5,405.5,580.5z"/>
		<path class="st1" d="M459.5,580.5h-36c-2.5,0-4.5-2-4.5-4.5v-9c0-2.5,2-4.5,4.5-4.5h36c2.5,0,4.5,2,4.5,4.5v9
			C464,578.5,462,580.5,459.5,580.5z"/>
		<path class="st1" d="M513.5,580.5h-36c-2.5,0-4.5-2-4.5-4.5v-9c0-2.5,2-4.5,4.5-4.5h36c2.5,0,4.5,2,4.5,4.5v9
			C518,578.5,516,580.5,513.5,580.5z"/>
		<path class="st1" d="M567.5,580.5h-36c-2.5,0-4.5-2-4.5-4.5v-9c0-2.5,2-4.5,4.5-4.5h36c2.5,0,4.5,2,4.5,4.5v9
			C572,578.5,570,580.5,567.5,580.5z"/>
	</g>
	<g>
		<path class="st1" d="M81.5,607.5h-36c-2.5,0-4.5-2-4.5-4.5v-9c0-2.5,2-4.5,4.5-4.5h36c2.5,0,4.5,2,4.5,4.5v9
			C86,605.5,84,607.5,81.5,607.5z"/>
		<path class="st1" d="M135.5,607.5h-36c-2.5,0-4.5-2-4.5-4.5v-9c0-2.5,2-4.5,4.5-4.5h36c2.5,0,4.5,2,4.5,4.5v9
			C140,605.5,138,607.5,135.5,607.5z"/>
		<path class="st1" d="M189.5,607.5h-36c-2.5,0-4.5-2-4.5-4.5v-9c0-2.5,2-4.5,4.5-4.5h36c2.5,0,4.5,2,4.5,4.5v9
			C194,605.5,192,607.5,189.5,607.5z"/>
		<path class="st1" d="M243.5,607.5h-36c-2.5,0-4.5-2-4.5-4.5v-9c0-2.5,2-4.5,4.5-4.5h36c2.5,0,4.5,2,4.5,4.5v9
			C248,605.5,246,607.5,243.5,607.5z"/>
		<path class="st1" d="M297.5,607.5h-36c-2.5,0-4.5-2-4.5-4.5v-9c0-2.5,2-4.5,4.5-4.5h36c2.5,0,4.5,2,4.5,4.5v9
			C302,605.5,300,607.5,297.5,607.5z"/>
		<path class="st1" d="M351.5,607.5h-36c-2.5,0-4.5-2-4.5-4.5v-9c0-2.5,2-4.5,4.5-4.5h36c2.5,0,4.5,2,4.5,4.5v9
			C356,605.5,354,607.5,351.5,607.5z"/>
		<path class="st1" d="M405.5,607.5h-36c-2.5,0-4.5-2-4.5-4.5v-9c0-2.5,2-4.5,4.5-4.5h36c2.5,0,4.5,2,4.5,4.5v9
			C410,605.5,408,607.5,405.5,607.5z"/>
		<path class="st1" d="M459.5,607.5h-36c-2.5,0-4.5-2-4.5-4.5v-9c0-2.5,2-4.5,4.5-4.5h36c2.5,0,4.5,2,4.5,4.5v9
			C464,605.5,462,607.5,459.5,607.5z"/>
		<path class="st1" d="M513.5,607.5h-36c-2.5,0-4.5-2-4.5-4.5v-9c0-2.5,2-4.5,4.5-4.5h36c2.5,0,4.5,2,4.5,4.5v9
			C518,605.5,516,607.5,513.5,607.5z"/>
		<path class="st1" d="M567.5,607.5h-36c-2.5,0-4.5-2-4.5-4.5v-9c0-2.5,2-4.5,4.5-4.5h36c2.5,0,4.5,2,4.5,4.5v9
			C572,605.5,570,607.5,567.5,607.5z"/>
	</g>
	<g>
		<path class="st1" d="M81.5,634.5h-36c-2.5,0-4.5-2-4.5-4.5v-9c0-2.5,2-4.5,4.5-4.5h36c2.5,0,4.5,2,4.5,4.5v9
			C86,632.5,84,634.5,81.5,634.5z"/>
		<path class="st1" d="M135.5,634.5h-36c-2.5,0-4.5-2-4.5-4.5v-9c0-2.5,2-4.5,4.5-4.5h36c2.5,0,4.5,2,4.5,4.5v9
			C140,632.5,138,634.5,135.5,634.5z"/>
		<path class="st1" d="M189.5,634.5h-36c-2.5,0-4.5-2-4.5-4.5v-9c0-2.5,2-4.5,4.5-4.5h36c2.5,0,4.5,2,4.5,4.5v9
			C194,632.5,192,634.5,189.5,634.5z"/>
		<path class="st1" d="M243.5,634.5h-36c-2.5,0-4.5-2-4.5-4.5v-9c0-2.5,2-4.5,4.5-4.5h36c2.5,0,4.5,2,4.5,4.5v9
			C248,632.5,246,634.5,243.5,634.5z"/>
		<path class="st1" d="M297.5,634.5h-36c-2.5,0-4.5-2-4.5-4.5v-9c0-2.5,2-4.5,4.5-4.5h36c2.5,0,4.5,2,4.5,4.5v9
			C302,632.5,300,634.5,297.5,634.5z"/>
		<path class="st1" d="M351.5,634.5h-36c-2.5,0-4.5-2-4.5-4.5v-9c0-2.5,2-4.5,4.5-4.5h36c2.5,0,4.5,2,4.5,4.5v9
			C356,632.5,354,634.5,351.5,634.5z"/>
		<path class="st1" d="M405.5,634.5h-36c-2.5,0-4.5-2-4.5-4.5v-9c0-2.5,2-4.5,4.5-4.5h36c2.5,0,4.5,2,4.5,4.5v9
			C410,632.5,408,634.5,405.5,634.5z"/>
		<path class="st1" d="M459.5,634.5h-36c-2.5,0-4.5-2-4.5-4.5v-9c0-2.5,2-4.5,4.5-4.5h36c2.5,0,4.5,2,4.5,4.5v9
			C464,632.5,462,634.5,459.5,634.5z"/>
		<path class="st1" d="M513.5,634.5h-36c-2.5,0-4.5-2-4.5-4.5v-9c0-2.5,2-4.5,4.5-4.5h36c2.5,0,4.5,2,4.5,4.5v9
			C518,632.5,516,634.5,513.5,634.5z"/>
		<path class="st1" d="M567.5,634.5h-36c-2.5,0-4.5-2-4.5-4.5v-9c0-2.5,2-4.5,4.5-4.5h36c2.5,0,4.5,2,4.5,4.5v9
			C572,632.5,570,634.5,567.5,634.5z"/>
	</g>
	<g>
		<path class="st1" d="M81.5,661.5h-36c-2.5,0-4.5-2-4.5-4.5v-9c0-2.5,2-4.5,4.5-4.5h36c2.5,0,4.5,2,4.5,4.5v9
			C86,659.5,84,661.5,81.5,661.5z"/>
		<path class="st1" d="M135.5,661.5h-36c-2.5,0-4.5-2-4.5-4.5v-9c0-2.5,2-4.5,4.5-4.5h36c2.5,0,4.5,2,4.5,4.5v9
			C140,659.5,138,661.5,135.5,661.5z"/>
		<path class="st1" d="M189.5,661.5h-36c-2.5,0-4.5-2-4.5-4.5v-9c0-2.5,2-4.5,4.5-4.5h36c2.5,0,4.5,2,4.5,4.5v9
			C194,659.5,192,661.5,189.5,661.5z"/>
		<path class="st1" d="M243.5,661.5h-36c-2.5,0-4.5-2-4.5-4.5v-9c0-2.5,2-4.5,4.5-4.5h36c2.5,0,4.5,2,4.5,4.5v9
			C248,659.5,246,661.5,243.5,661.5z"/>
		<path class="st1" d="M297.5,661.5h-36c-2.5,0-4.5-2-4.5-4.5v-9c0-2.5,2-4.5,4.5-4.5h36c2.5,0,4.5,2,4.5,4.5v9
			C302,659.5,300,661.5,297.5,661.5z"/>
		<path class="st1" d="M351.5,661.5h-36c-2.5,0-4.5-2-4.5-4.5v-9c0-2.5,2-4.5,4.5-4.5h36c2.5,0,4.5,2,4.5,4.5v9
			C356,659.5,354,661.5,351.5,661.5z"/>
		<path class="st1" d="M405.5,661.5h-36c-2.5,0-4.5-2-4.5-4.5v-9c0-2.5,2-4.5,4.5-4.5h36c2.5,0,4.5,2,4.5,4.5v9
			C410,659.5,408,661.5,405.5,661.5z"/>
		<path class="st1" d="M459.5,661.5h-36c-2.5,0-4.5-2-4.5-4.5v-9c0-2.5,2-4.5,4.5-4.5h36c2.5,0,4.5,2,4.5,4.5v9
			C464,659.5,462,661.5,459.5,661.5z"/>
		<path class="st1" d="M513.5,661.5h-36c-2.5,0-4.5-2-4.5-4.5v-9c0-2.5,2-4.5,4.5-4.5h36c2.5,0,4.5,2,4.5,4.5v9
			C518,659.5,516,661.5,513.5,661.5z"/>
		<path class="st1" d="M567.5,661.5h-36c-2.5,0-4.5-2-4.5-4.5v-9c0-2.5,2-4.5,4.5-4.5h36c2.5,0,4.5,2,4.5,4.5v9
			C572,659.5,570,661.5,567.5,661.5z"/>
	</g>
	<g>
		<path class="st1" d="M81.5,688.5h-36c-2.5,0-4.5-2-4.5-4.5v-9c0-2.5,2-4.5,4.5-4.5h36c2.5,0,4.5,2,4.5,4.5v9
			C86,686.5,84,688.5,81.5,688.5z"/>
		<path class="st1" d="M135.5,688.5h-36c-2.5,0-4.5-2-4.5-4.5v-9c0-2.5,2-4.5,4.5-4.5h36c2.5,0,4.5,2,4.5,4.5v9
			C140,686.5,138,688.5,135.5,688.5z"/>
		<path class="st1" d="M189.5,688.5h-36c-2.5,0-4.5-2-4.5-4.5v-9c0-2.5,2-4.5,4.5-4.5h36c2.5,0,4.5,2,4.5,4.5v9
			C194,686.5,192,688.5,189.5,688.5z"/>
		<path class="st1" d="M243.5,688.5h-36c-2.5,0-4.5-2-4.5-4.5v-9c0-2.5,2-4.5,4.5-4.5h36c2.5,0,4.5,2,4.5,4.5v9
			C248,686.5,246,688.5,243.5,688.5z"/>
		<path class="st1" d="M297.5,688.5h-36c-2.5,0-4.5-2-4.5-4.5v-9c0-2.5,2-4.5,4.5-4.5h36c2.5,0,4.5,2,4.5,4.5v9
			C302,686.5,300,688.5,297.5,688.5z"/>
		<path class="st1" d="M351.5,688.5h-36c-2.5,0-4.5-2-4.5-4.5v-9c0-2.5,2-4.5,4.5-4.5h36c2.5,0,4.5,2,4.5,4.5v9
			C356,686.5,354,688.5,351.5,688.5z"/>
		<path class="st1" d="M405.5,688.5h-36c-2.5,0-4.5-2-4.5-4.5v-9c0-2.5,2-4.5,4.5-4.5h36c2.5,0,4.5,2,4.5,4.5v9
			C410,686.5,408,688.5,405.5,688.5z"/>
		<path class="st1" d="M459.5,688.5h-36c-2.5,0-4.5-2-4.5-4.5v-9c0-2.5,2-4.5,4.5-4.5h36c2.5,0,4.5,2,4.5,4.5v9
			C464,686.5,462,688.5,459.5,688.5z"/>
		<path class="st1" d="M513.5,688.5h-36c-2.5,0-4.5-2-4.5-4.5v-9c0-2.5,2-4.5,4.5-4.5h36c2.5,0,4.5,2,4.5,4.5v9
			C518,686.5,516,688.5,513.5,688.5z"/>
		<path class="st1" d="M567.5,688.5h-36c-2.5,0-4.5-2-4.5-4.5v-9c0-2.5,2-4.5,4.5-4.5h36c2.5,0,4.5,2,4.5,4.5v9
			C572,686.5,570,688.5,567.5,688.5z"/>
	</g>
	<g>
		<path class="st1" d="M81.5,715.5h-36c-2.5,0-4.5-2-4.5-4.5v-9c0-2.5,2-4.5,4.5-4.5h36c2.5,0,4.5,2,4.5,4.5v9
			C86,713.5,84,715.5,81.5,715.5z"/>
		<path class="st1" d="M135.5,715.5h-36c-2.5,0-4.5-2-4.5-4.5v-9c0-2.5,2-4.5,4.5-4.5h36c2.5,0,4.5,2,4.5,4.5v9
			C140,713.5,138,715.5,135.5,715.5z"/>
		<path class="st1" d="M189.5,715.5h-36c-2.5,0-4.5-2-4.5-4.5v-9c0-2.5,2-4.5,4.5-4.5h36c2.5,0,4.5,2,4.5,4.5v9
			C194,713.5,192,715.5,189.5,715.5z"/>
		<path class="st1" d="M243.5,715.5h-36c-2.5,0-4.5-2-4.5-4.5v-9c0-2.5,2-4.5,4.5-4.5h36c2.5,0,4.5,2,4.5,4.5v9
			C248,713.5,246,715.5,243.5,715.5z"/>
		<path class="st1" d="M297.5,715.5h-36c-2.5,0-4.5-2-4.5-4.5v-9c0-2.5,2-4.5,4.5-4.5h36c2.5,0,4.5,2,4.5,4.5v9
			C302,713.5,300,715.5,297.5,715.5z"/>
		<path class="st1" d="M351.5,715.5h-36c-2.5,0-4.5-2-4.5-4.5v-9c0-2.5,2-4.5,4.5-4.5h36c2.5,0,4.5,2,4.5,4.5v9
			C356,713.5,354,715.5,351.5,715.5z"/>
		<path class="st1" d="M405.5,715.5h-36c-2.5,0-4.5-2-4.5-4.5v-9c0-2.5,2-4.5,4.5-4.5h36c2.5,0,4.5,2,4.5,4.5v9
			C410,713.5,408,715.5,405.5,715.5z"/>
		<path class="st1" d="M459.5,715.5h-36c-2.5,0-4.5-2-4.5-4.5v-9c0-2.5,2-4.5,4.5-4.5h36c2.5,0,4.5,2,4.5,4.5v9
			C464,713.5,462,715.5,459.5,715.5z"/>
		<path class="st1" d="M513.5,715.5h-36c-2.5,0-4.5-2-4.5-4.5v-9c0-2.5,2-4.5,4.5-4.5h36c2.5,0,4.5,2,4.5,4.5v9
			C518,713.5,516,715.5,513.5,715.5z"/>
		<path class="st1" d="M567.5,715.5h-36c-2.5,0-4.5-2-4.5-4.5v-9c0-2.5,2-4.5,4.5-4.5h36c2.5,0,4.5,2,4.5,4.5v9
			C572,713.5,570,715.5,567.5,715.5z"/>
	</g>
	<g>
		<path class="st1" d="M81.5,742.5h-36c-2.5,0-4.5-2-4.5-4.5v-9c0-2.5,2-4.5,4.5-4.5h36c2.5,0,4.5,2,4.5,4.5v9
			C86,740.5,84,742.5,81.5,742.5z"/>
		<path class="st1" d="M135.5,742.5h-36c-2.5,0-4.5-2-4.5-4.5v-9c0-2.5,2-4.5,4.5-4.5h36c2.5,0,4.5,2,4.5,4.5v9
			C140,740.5,138,742.5,135.5,742.5z"/>
		<path class="st1" d="M189.5,742.5h-36c-2.5,0-4.5-2-4.5-4.5v-9c0-2.5,2-4.5,4.5-4.5h36c2.5,0,4.5,2,4.5,4.5v9
			C194,740.5,192,742.5,189.5,742.5z"/>
		<path class="st1" d="M243.5,742.5h-36c-2.5,0-4.5-2-4.5-4.5v-9c0-2.5,2-4.5,4.5-4.5h36c2.5,0,4.5,2,4.5,4.5v9
			C248,740.5,246,742.5,243.5,742.5z"/>
		<path class="st1" d="M297.5,742.5h-36c-2.5,0-4.5-2-4.5-4.5v-9c0-2.5,2-4.5,4.5-4.5h36c2.5,0,4.5,2,4.5,4.5v9
			C302,740.5,300,742.5,297.5,742.5z"/>
		<path class="st1" d="M351.5,742.5h-36c-2.5,0-4.5-2-4.5-4.5v-9c0-2.5,2-4.5,4.5-4.5h36c2.5,0,4.5,2,4.5,4.5v9
			C356,740.5,354,742.5,351.5,742.5z"/>
		<path class="st1" d="M405.5,742.5h-36c-2.5,0-4.5-2-4.5-4.5v-9c0-2.5,2-4.5,4.5-4.5h36c2.5,0,4.5,2,4.5,4.5v9
			C410,740.5,408,742.5,405.5,742.5z"/>
		<path class="st1" d="M459.5,742.5h-36c-2.5,0-4.5-2-4.5-4.5v-9c0-2.5,2-4.5,4.5-4.5h36c2.5,0,4.5,2,4.5,4.5v9
			C464,740.5,462,742.5,459.5,742.5z"/>
		<path class="st1" d="M513.5,742.5h-36c-2.5,0-4.5-2-4.5-4.5v-9c0-2.5,2-4.5,4.5-4.5h36c2.5,0,4.5,2,4.5,4.5v9
			C518,740.5,516,742.5,513.5,742.5z"/>
		<path class="st1" d="M567.5,742.5h-36c-2.5,0-4.5-2-4.5-4.5v-9c0-2.5,2-4.5,4.5-4.5h36c2.5,0,4.5,2,4.5,4.5v9
			C572,740.5,570,742.5,567.5,742.5z"/>
	</g>
	<g>
		<path class="st1" d="M81.5,769.5h-36c-2.5,0-4.5-2-4.5-4.5v-9c0-2.5,2-4.5,4.5-4.5h36c2.5,0,4.5,2,4.5,4.5v9
			C86,767.5,84,769.5,81.5,769.5z"/>
		<path class="st1" d="M135.5,769.5h-36c-2.5,0-4.5-2-4.5-4.5v-9c0-2.5,2-4.5,4.5-4.5h36c2.5,0,4.5,2,4.5,4.5v9
			C140,767.5,138,769.5,135.5,769.5z"/>
		<path class="st1" d="M189.5,769.5h-36c-2.5,0-4.5-2-4.5-4.5v-9c0-2.5,2-4.5,4.5-4.5h36c2.5,0,4.5,2,4.5,4.5v9
			C194,767.5,192,769.5,189.5,769.5z"/>
		<path class="st1" d="M243.5,769.5h-36c-2.5,0-4.5-2-4.5-4.5v-9c0-2.5,2-4.5,4.5-4.5h36c2.5,0,4.5,2,4.5,4.5v9
			C248,767.5,246,769.5,243.5,769.5z"/>
		<path class="st1" d="M297.5,769.5h-36c-2.5,0-4.5-2-4.5-4.5v-9c0-2.5,2-4.5,4.5-4.5h36c2.5,0,4.5,2,4.5,4.5v9
			C302,767.5,300,769.5,297.5,769.5z"/>
		<path class="st1" d="M351.5,769.5h-36c-2.5,0-4.5-2-4.5-4.5v-9c0-2.5,2-4.5,4.5-4.5h36c2.5,0,4.5,2,4.5,4.5v9
			C356,767.5,354,769.5,351.5,769.5z"/>
		<path class="st1" d="M405.5,769.5h-36c-2.5,0-4.5-2-4.5-4.5v-9c0-2.5,2-4.5,4.5-4.5h36c2.5,0,4.5,2,4.5,4.5v9
			C410,767.5,408,769.5,405.5,769.5z"/>
		<path class="st1" d="M459.5,769.5h-36c-2.5,0-4.5-2-4.5-4.5v-9c0-2.5,2-4.5,4.5-4.5h36c2.5,0,4.5,2,4.5,4.5v9
			C464,767.5,462,769.5,459.5,769.5z"/>
		<path class="st1" d="M513.5,769.5h-36c-2.5,0-4.5-2-4.5-4.5v-9c0-2.5,2-4.5,4.5-4.5h36c2.5,0,4.5,2,4.5,4.5v9
			C518,767.5,516,769.5,513.5,769.5z"/>
		<path class="st1" d="M567.5,769.5h-36c-2.5,0-4.5-2-4.5-4.5v-9c0-2.5,2-4.5,4.5-4.5h36c2.5,0,4.5,2,4.5,4.5v9
			C572,767.5,570,769.5,567.5,769.5z"/>
	</g>
</g>
</svg>
