<?xml version="1.0" encoding="utf-8"?>
<!-- Generator: Adobe Illustrator 25.3.1, SVG Export Plug-In . SVG Version: 6.00 Build 0)  -->
<svg version="1.1" id="Layer_1" xmlns="http://www.w3.org/2000/svg" xmlns:xlink="http://www.w3.org/1999/xlink" x="0px" y="0px"
	 viewBox="0 0 612 792" style="enable-background:new 0 0 612 792;" xml:space="preserve">
<style type="text/css">
	.st0{fill-rule:evenodd;clip-rule:evenodd;fill:none;stroke:#231F20;stroke-miterlimit:10;}
	.st1{fill:none;stroke:#231F20;stroke-miterlimit:10;}
</style>
<g>
	<g>
		<path class="st0" d="M144,144H72c-5,0-9-4-9-9V63c0-5,4-9,9-9h72c5,0,9,4,9,9v72C153,140,149,144,144,144z"/>
		<path class="st0" d="M243,144h-72c-5,0-9-4-9-9V63c0-5,4-9,9-9h72c5,0,9,4,9,9v72C252,140,248,144,243,144z"/>
		<path class="st0" d="M342,144h-72c-5,0-9-4-9-9V63c0-5,4-9,9-9h72c5,0,9,4,9,9v72C351,140,347,144,342,144z"/>
		<path class="st0" d="M441,144h-72c-5,0-9-4-9-9V63c0-5,4-9,9-9h72c5,0,9,4,9,9v72C450,140,446,144,441,144z"/>
		<path class="st0" d="M540,144h-72c-5,0-9-4-9-9V63c0-5,4-9,9-9h72c5,0,9,4,9,9v72C549,140,545,144,540,144z"/>
	</g>
	<g>
		<path class="st0" d="M144,243H72c-5,0-9-4-9-9v-72c0-5,4-9,9-9h72c5,0,9,4,9,9v72C153,239,149,243,144,243z"/>
		<path class="st0" d="M243,243h-72c-5,0-9-4-9-9v-72c0-5,4-9,9-9h72c5,0,9,4,9,9v72C252,239,248,243,243,243z"/>
		<path class="st0" d="M342,243h-72c-5,0-9-4-9-9v-72c0-5,4-9,9-9h72c5,0,9,4,9,9v72C351,239,347,243,342,243z"/>
		<path class="st0" d="M441,243h-72c-5,0-9-4-9-9v-72c0-5,4-9,9-9h72c5,0,9,4,9,9v72C450,239,446,243,441,243z"/>
		<path class="st0" d="M540,243h-72c-5,0-9-4-9-9v-72c0-5,4-9,9-9h72c5,0,9,4,9,9v72C549,239,545,243,540,243z"/>
	</g>
	<g>
		<path class="st0" d="M144,342H72c-5,0-9-4-9-9v-72c0-5,4-9,9-9h72c5,0,9,4,9,9v72C153,338,149,342,144,342z"/>
		<path class="st0" d="M243,342h-72c-5,0-9-4-9-9v-72c0-5,4-9,9-9h72c5,0,9,4,9,9v72C252,338,248,342,243,342z"/>
		<path class="st0" d="M342,342h-72c-5,0-9-4-9-9v-72c0-5,4-9,9-9h72c5,0,9,4,9,9v72C351,338,347,342,342,342z"/>
		<path class="st0" d="M441,342h-72c-5,0-9-4-9-9v-72c0-5,4-9,9-9h72c5,0,9,4,9,9v72C450,338,446,342,441,342z"/>
		<path class="st0" d="M540,342h-72c-5,0-9-4-9-9v-72c0-5,4-9,9-9h72c5,0,9,4,9,9v72C549,338,545,342,540,342z"/>
	</g>
	<g>
		<path class="st0" d="M144,441H72c-5,0-9-4-9-9v-72c0-5,4-9,9-9h72c5,0,9,4,9,9v72C153,437,149,441,144,441z"/>
		<path class="st0" d="M243,441h-72c-5,0-9-4-9-9v-72c0-5,4-9,9-9h72c5,0,9,4,9,9v72C252,437,248,441,243,441z"/>
		<path class="st0" d="M342,441h-72c-5,0-9-4-9-9v-72c0-5,4-9,9-9h72c5,0,9,4,9,9v72C351,437,347,441,342,441z"/>
		<path class="st0" d="M441,441h-72c-5,0-9-4-9-9v-72c0-5,4-9,9-9h72c5,0,9,4,9,9v72C450,437,446,441,441,441z"/>
		<path class="st0" d="M540,441h-72c-5,0-9-4-9-9v-72c0-5,4-9,9-9h72c5,0,9,4,9,9v72C549,437,545,441,540,441z"/>
	</g>
	<g>
		<path class="st0" d="M144,540H72c-5,0-9-4-9-9v-72c0-5,4-9,9-9h72c5,0,9,4,9,9v72C153,536,149,540,144,540z"/>
		<path class="st0" d="M243,540h-72c-5,0-9-4-9-9v-72c0-5,4-9,9-9h72c5,0,9,4,9,9v72C252,536,248,540,243,540z"/>
		<path class="st0" d="M342,540h-72c-5,0-9-4-9-9v-72c0-5,4-9,9-9h72c5,0,9,4,9,9v72C351,536,347,540,342,540z"/>
		<path class="st0" d="M441,540h-72c-5,0-9-4-9-9v-72c0-5,4-9,9-9h72c5,0,9,4,9,9v72C450,536,446,540,441,540z"/>
		<path class="st0" d="M540,540h-72c-5,0-9-4-9-9v-72c0-5,4-9,9-9h72c5,0,9,4,9,9v72C549,536,545,540,540,540z"/>
	</g>
	<g>
		<path class="st0" d="M144,639H72c-5,0-9-4-9-9v-72c0-5,4-9,9-9h72c5,0,9,4,9,9v72C153,635,149,639,144,639z"/>
		<path class="st0" d="M243,639h-72c-5,0-9-4-9-9v-72c0-5,4-9,9-9h72c5,0,9,4,9,9v72C252,635,248,639,243,639z"/>
		<path class="st0" d="M342,639h-72c-5,0-9-4-9-9v-72c0-5,4-9,9-9h72c5,0,9,4,9,9v72C351,635,347,639,342,639z"/>
		<path class="st0" d="M441,639h-72c-5,0-9-4-9-9v-72c0-5,4-9,9-9h72c5,0,9,4,9,9v72C450,635,446,639,441,639z"/>
		<path class="st0" d="M540,639h-72c-5,0-9-4-9-9v-72c0-5,4-9,9-9h72c5,0,9,4,9,9v72C549,635,545,639,540,639z"/>
	</g>
	<g>
		<path class="st0" d="M144,738H72c-5,0-9-4-9-9v-72c0-5,4-9,9-9h72c5,0,9,4,9,9v72C153,734,149,738,144,738z"/>
		<path class="st0" d="M243,738h-72c-5,0-9-4-9-9v-72c0-5,4-9,9-9h72c5,0,9,4,9,9v72C252,734,248,738,243,738z"/>
		<path class="st0" d="M342,738h-72c-5,0-9-4-9-9v-72c0-5,4-9,9-9h72c5,0,9,4,9,9v72C351,734,347,738,342,738z"/>
		<path class="st0" d="M441,738h-72c-5,0-9-4-9-9v-72c0-5,4-9,9-9h72c5,0,9,4,9,9v72C450,734,446,738,441,738z"/>
		<path class="st0" d="M540,738h-72c-5,0-9-4-9-9v-72c0-5,4-9,9-9h72c5,0,9,4,9,9v72C549,734,545,738,540,738z"/>
	</g>
</g>
<rect x="0" class="st1" width="612" height="792"/>
</svg>
