<?xml version="1.0" encoding="utf-8"?>
<!-- Generator: Adobe Illustrator 26.3.1, SVG Export Plug-In . SVG Version: 6.00 Build 0)  -->
<svg version="1.1" id="Layer_1" xmlns="http://www.w3.org/2000/svg" xmlns:xlink="http://www.w3.org/1999/xlink" x="0px" y="0px"
	 viewBox="0 0 612 792" style="enable-background:new 0 0 612 792;" xml:space="preserve">
<style type="text/css">
	.st0{fill:none;stroke:#000000;stroke-miterlimit:10;}
	.st1{fill:none;stroke:#000000;stroke-width:0.9718;}
</style>
<g>
	<g>
		<rect x="270" y="-144" transform="matrix(-1.836970e-16 1 -1 -1.836970e-16 378 -234)" class="st0" width="72" height="432"/>
		<rect x="270" y="-63" transform="matrix(-1.836970e-16 1 -1 -1.836970e-16 459 -153)" class="st0" width="72" height="432"/>
		<rect x="270" y="18" transform="matrix(-1.836970e-16 1 -1 -1.836970e-16 540 -72)" class="st0" width="72" height="432"/>
		<rect x="270" y="99" transform="matrix(-1.836970e-16 1 -1 -1.836970e-16 621 9)" class="st0" width="72" height="432"/>
		<rect x="270" y="180" transform="matrix(-1.836970e-16 1 -1 -1.836970e-16 702 90)" class="st0" width="72" height="432"/>
		<rect x="270" y="261" transform="matrix(-1.836970e-16 1 -1 -1.836970e-16 783 171)" class="st0" width="72" height="432"/>
		<rect x="270" y="342" transform="matrix(-1.836970e-16 1 -1 -1.836970e-16 864 252)" class="st0" width="72" height="432"/>
		<rect x="270" y="423" transform="matrix(-1.836970e-16 1 -1 -1.836970e-16 945 333)" class="st0" width="72" height="432"/>
		<rect x="270" y="504" transform="matrix(-1.836970e-16 1 -1 -1.836970e-16 1026 414)" class="st0" width="72" height="432"/>
	</g>
	<rect x="0" y="0" class="st0" width="612" height="792"/>
	<rect x="0" y="0" class="st1" width="612" height="792"/>
</g>
</svg>
