<?xml version="1.0" encoding="utf-8"?>
<!-- Generator: Adobe Illustrator 26.3.1, SVG Export Plug-In . SVG Version: 6.00 Build 0)  -->
<svg version="1.1" xmlns="http://www.w3.org/2000/svg" xmlns:xlink="http://www.w3.org/1999/xlink" x="0px" y="0px"
	 viewBox="0 0 612 792" style="enable-background:new 0 0 612 792;" xml:space="preserve">
<style type="text/css">
	.st0{fill:none;stroke:#000000;stroke-miterlimit:10;}
</style>
<g id="Layer_2">
</g>
<g id="Layer_1">
	<g>
		<g>
			<rect x="45" y="45" class="st0" width="90" height="72"/>
			<rect x="153" y="45" class="st0" width="90" height="72"/>
			<rect x="261" y="45" class="st0" width="90" height="72"/>
			<rect x="369" y="45" class="st0" width="90" height="72"/>
			<rect x="477" y="45" class="st0" width="90" height="72"/>
		</g>
		<g>
			<rect x="45" y="135" class="st0" width="90" height="72"/>
			<rect x="153" y="135" class="st0" width="90" height="72"/>
			<rect x="261" y="135" class="st0" width="90" height="72"/>
			<rect x="369" y="135" class="st0" width="90" height="72"/>
			<rect x="477" y="135" class="st0" width="90" height="72"/>
		</g>
		<g>
			<rect x="45" y="225" class="st0" width="90" height="72"/>
			<rect x="153" y="225" class="st0" width="90" height="72"/>
			<rect x="261" y="225" class="st0" width="90" height="72"/>
			<rect x="369" y="225" class="st0" width="90" height="72"/>
			<rect x="477" y="225" class="st0" width="90" height="72"/>
		</g>
		<g>
			<rect x="45" y="315" class="st0" width="90" height="72"/>
			<rect x="153" y="315" class="st0" width="90" height="72"/>
			<rect x="261" y="315" class="st0" width="90" height="72"/>
			<rect x="369" y="315" class="st0" width="90" height="72"/>
			<rect x="477" y="315" class="st0" width="90" height="72"/>
		</g>
		<g>
			<rect x="45" y="405" class="st0" width="90" height="72"/>
			<rect x="153" y="405" class="st0" width="90" height="72"/>
			<rect x="261" y="405" class="st0" width="90" height="72"/>
			<rect x="369" y="405" class="st0" width="90" height="72"/>
			<rect x="477" y="405" class="st0" width="90" height="72"/>
		</g>
		<g>
			<rect x="45" y="495" class="st0" width="90" height="72"/>
			<rect x="153" y="495" class="st0" width="90" height="72"/>
			<rect x="261" y="495" class="st0" width="90" height="72"/>
			<rect x="369" y="495" class="st0" width="90" height="72"/>
			<rect x="477" y="495" class="st0" width="90" height="72"/>
		</g>
		<g>
			<rect x="45" y="585" class="st0" width="90" height="72"/>
			<rect x="153" y="585" class="st0" width="90" height="72"/>
			<rect x="261" y="585" class="st0" width="90" height="72"/>
			<rect x="369" y="585" class="st0" width="90" height="72"/>
			<rect x="477" y="585" class="st0" width="90" height="72"/>
		</g>
		<g>
			<rect x="45" y="675" class="st0" width="90" height="72"/>
			<rect x="153" y="675" class="st0" width="90" height="72"/>
			<rect x="261" y="675" class="st0" width="90" height="72"/>
			<rect x="369" y="675" class="st0" width="90" height="72"/>
			<rect x="477" y="675" class="st0" width="90" height="72"/>
		</g>
	</g>
</g>
</svg>
