<?xml version="1.0" encoding="utf-8"?>
<!-- Generator: Adobe Illustrator 21.1.0, SVG Export Plug-In . SVG Version: 6.00 Build 0)  -->
<svg version="1.1" id="Layer_1" xmlns="http://www.w3.org/2000/svg" xmlns:xlink="http://www.w3.org/1999/xlink" x="0px" y="0px"
	 viewBox="0 0 612 792" style="enable-background:new 0 0 612 792;" xml:space="preserve">
<style type="text/css">
	.st0{fill:none;stroke:#000000;stroke-width:2;}
</style>
<g>
	<ellipse class="st0" cx="144" cy="70.9" rx="72" ry="36"/>
	<ellipse class="st0" cx="468" cy="70.9" rx="72" ry="36"/>
	<ellipse class="st0" cx="306" cy="70.9" rx="72" ry="36"/>
</g>
<g>
	<ellipse class="st0" cx="144" cy="395.5" rx="72" ry="36"/>
	<ellipse class="st0" cx="468" cy="395.5" rx="72" ry="36"/>
	<ellipse class="st0" cx="306" cy="395.5" rx="72" ry="36"/>
</g>
<g>
	<ellipse class="st0" cx="144" cy="476.7" rx="72" ry="36"/>
	<ellipse class="st0" cx="468" cy="476.7" rx="72" ry="36"/>
	<ellipse class="st0" cx="306" cy="476.7" rx="72" ry="36"/>
</g>
<g>
	<ellipse class="st0" cx="144" cy="557.8" rx="72" ry="36"/>
	<ellipse class="st0" cx="468" cy="557.8" rx="72" ry="36"/>
	<ellipse class="st0" cx="306" cy="557.8" rx="72" ry="36"/>
</g>
<g>
	<ellipse class="st0" cx="144" cy="639" rx="72" ry="36"/>
	<ellipse class="st0" cx="468" cy="639" rx="72" ry="36"/>
	<ellipse class="st0" cx="306" cy="639" rx="72" ry="36"/>
</g>
<g>
	<ellipse class="st0" cx="144" cy="720.1" rx="72" ry="36"/>
	<ellipse class="st0" cx="468" cy="720.1" rx="72" ry="36"/>
	<ellipse class="st0" cx="306" cy="720.1" rx="72" ry="36"/>
</g>
<g>
	<ellipse class="st0" cx="144" cy="314.3" rx="72" ry="36"/>
	<ellipse class="st0" cx="468" cy="314.3" rx="72" ry="36"/>
	<ellipse class="st0" cx="306" cy="314.3" rx="72" ry="36"/>
</g>
<g>
	<ellipse class="st0" cx="144" cy="233.2" rx="72" ry="36"/>
	<ellipse class="st0" cx="468" cy="233.2" rx="72" ry="36"/>
	<ellipse class="st0" cx="306" cy="233.2" rx="72" ry="36"/>
</g>
<g>
	<ellipse class="st0" cx="144" cy="152" rx="72" ry="36"/>
	<ellipse class="st0" cx="468" cy="152" rx="72" ry="36"/>
	<ellipse class="st0" cx="306" cy="152" rx="72" ry="36"/>
</g>
<rect class="st0" width="612" height="792"/>
</svg>
