<?xml version="1.0" encoding="utf-8"?>
<!-- Generator: Adobe Illustrator 20.1.0, SVG Export Plug-In . SVG Version: 6.00 Build 0)  -->
<svg version="1.1" id="Layer_2" xmlns="http://www.w3.org/2000/svg" xmlns:xlink="http://www.w3.org/1999/xlink" x="0px" y="0px"
	 viewBox="0 0 612 792" style="enable-background:new 0 0 612 792;" xml:space="preserve">
<style type="text/css">
	.st0{fill:none;stroke:#000000;stroke-width:2;}
</style>
<path class="st0" d="M90,360c0,5-4,9-9,9H45c-5,0-9-4-9-9V45c0-5,4-9,9-9h36c5,0,9,4,9,9V360z"/>
<path class="st0" d="M150.8,360c0,5-4,9-9,9h-36c-5,0-9-4-9-9V45c0-5,4-9,9-9h36c5,0,9,4,9,9V360z"/>
<path class="st0" d="M333,360c0,5-4,9-9,9h-36c-5,0-9-4-9-9V45c0-5,4-9,9-9h36c5,0,9,4,9,9V360z"/>
<path class="st0" d="M393.8,360c0,5-4,9-9,9h-36c-5,0-9-4-9-9V45c0-5,4-9,9-9h36c5,0,9,4,9,9V360z"/>
<path class="st0" d="M454.5,360c0,5-4,9-9,9h-36c-5,0-9-4-9-9V45c0-5,4-9,9-9h36c5,0,9,4,9,9V360z"/>
<path class="st0" d="M515.3,360c0,5-4,9-9,9h-36c-5,0-9-4-9-9V45c0-5,4-9,9-9h36c5,0,9,4,9,9V360z"/>
<path class="st0" d="M576,360c0,5-4,9-9,9h-36c-5,0-9-4-9-9V45c0-5,4-9,9-9h36c5,0,9,4,9,9V360z"/>
<path class="st0" d="M272.3,360c0,5-4,9-9,9h-36c-5,0-9-4-9-9V45c0-5,4-9,9-9h36c5,0,9,4,9,9V360z"/>
<path class="st0" d="M211.5,360c0,5-4,9-9,9h-36c-5,0-9-4-9-9V45c0-5,4-9,9-9h36c5,0,9,4,9,9V360z"/>
<g>
	<path class="st0" d="M90,747c0,5-4,9-9,9H45c-5,0-9-4-9-9V432c0-5,4-9,9-9h36c5,0,9,4,9,9V747z"/>
	<path class="st0" d="M333,747c0,5-4,9-9,9h-36c-5,0-9-4-9-9V432c0-5,4-9,9-9h36c5,0,9,4,9,9V747z"/>
	<path class="st0" d="M393.8,747c0,5-4,9-9,9h-36c-5,0-9-4-9-9V432c0-5,4-9,9-9h36c5,0,9,4,9,9V747z"/>
	<path class="st0" d="M454.5,747c0,5-4,9-9,9h-36c-5,0-9-4-9-9V432c0-5,4-9,9-9h36c5,0,9,4,9,9V747z"/>
	<path class="st0" d="M515.3,747c0,5-4,9-9,9h-36c-5,0-9-4-9-9V432c0-5,4-9,9-9h36c5,0,9,4,9,9V747z"/>
	<path class="st0" d="M576,747c0,5-4,9-9,9h-36c-5,0-9-4-9-9V432c0-5,4-9,9-9h36c5,0,9,4,9,9V747z"/>
	<path class="st0" d="M272.3,747c0,5-4,9-9,9h-36c-5,0-9-4-9-9V432c0-5,4-9,9-9h36c5,0,9,4,9,9V747z"/>
	<path class="st0" d="M211.5,747c0,5-4,9-9,9h-36c-5,0-9-4-9-9V432c0-5,4-9,9-9h36c5,0,9,4,9,9V747z"/>
	<path class="st0" d="M150.8,747c0,5-4,9-9,9h-36c-5,0-9-4-9-9V432c0-5,4-9,9-9h36c5,0,9,4,9,9V747z"/>
</g>
<rect x="0" class="st0" width="612" height="792"/>
</svg>
