<?xml version="1.0" encoding="utf-8"?>
<!-- Generator: Adobe Illustrator 20.1.0, SVG Export Plug-In . SVG Version: 6.00 Build 0)  -->
<svg version="1.1" id="Layer_1" xmlns="http://www.w3.org/2000/svg" xmlns:xlink="http://www.w3.org/1999/xlink" x="0px" y="0px"
	 viewBox="0 0 612 792" style="enable-background:new 0 0 612 792;" xml:space="preserve">
<style type="text/css">
	.st0{fill:none;stroke:#000000;stroke-width:2;stroke-miterlimit:10;}
	.st1{fill:none;stroke:#000000;stroke-width:2;}
</style>
<path class="st0" d="M72.5,72h467c10.2,0,18.5,5.3,18.5,11.9v192.2c0,6.5-8.3,11.9-18.5,11.9h-467c-10.2,0-18.5-5.3-18.5-11.9V83.9
	C54,77.3,62.3,72,72.5,72z"/>
<path class="st0" d="M72.5,288h467c10.2,0,18.5,5.3,18.5,11.9v192.2c0,6.5-8.3,11.9-18.5,11.9h-467c-10.2,0-18.5-5.3-18.5-11.9
	V299.9C54,293.3,62.3,288,72.5,288z"/>
<path class="st0" d="M72.5,504h467c10.2,0,18.5,5.3,18.5,11.9v192.2c0,6.5-8.3,11.9-18.5,11.9h-467c-10.2,0-18.5-5.3-18.5-11.9
	V515.9C54,509.3,62.3,504,72.5,504z"/>
<rect x="0" class="st1" width="612" height="792"/>
</svg>
