<?xml version="1.0" encoding="utf-8"?>
<!-- Generator: Adobe Illustrator 20.1.0, SVG Export Plug-In . SVG Version: 6.00 Build 0)  -->
<svg version="1.1" id="Layer_1" xmlns="http://www.w3.org/2000/svg" xmlns:xlink="http://www.w3.org/1999/xlink" x="0px" y="0px"
	 viewBox="0 0 612 792" style="enable-background:new 0 0 612 792;" xml:space="preserve">
<style type="text/css">
	.st0{fill:none;stroke:#000000;stroke-width:2;}
</style>
<g>
	<g>
		<path class="st0" d="M104,144c0,5-4,9-9,9H23c-5,0-9-4-9-9V45c0-5,4-9,9-9h72c5,0,9,4,9,9V144z"/>
		<path class="st0" d="M598,144c0,5-4,9-9,9h-72c-5,0-9-4-9-9V45c0-5,4-9,9-9h72c5,0,9,4,9,9V144z"/>
		<path class="st0" d="M499.2,144c0,5-4,9-9,9h-72c-5,0-9-4-9-9V45c0-5,4-9,9-9h72c5,0,9,4,9,9V144z"/>
		<path class="st0" d="M400.4,144c0,5-4,9-9,9h-72c-5,0-9-4-9-9V45c0-5,4-9,9-9h72c5,0,9,4,9,9V144z"/>
		<path class="st0" d="M301.6,144c0,5-4,9-9,9h-72c-5,0-9-4-9-9V45c0-5,4-9,9-9h72c5,0,9,4,9,9V144z"/>
		<path class="st0" d="M202.8,144c0,5-4,9-9,9h-72c-5,0-9-4-9-9V45c0-5,4-9,9-9h72c5,0,9,4,9,9V144z"/>
	</g>
	<g>
		<path class="st0" d="M104,747c0,5-4,9-9,9H23c-5,0-9-4-9-9v-99c0-5,4-9,9-9h72c5,0,9,4,9,9V747z"/>
		<path class="st0" d="M598,747c0,5-4,9-9,9h-72c-5,0-9-4-9-9v-99c0-5,4-9,9-9h72c5,0,9,4,9,9V747z"/>
		<path class="st0" d="M499.2,747c0,5-4,9-9,9h-72c-5,0-9-4-9-9v-99c0-5,4-9,9-9h72c5,0,9,4,9,9V747z"/>
		<path class="st0" d="M400.4,747c0,5-4,9-9,9h-72c-5,0-9-4-9-9v-99c0-5,4-9,9-9h72c5,0,9,4,9,9V747z"/>
		<path class="st0" d="M301.6,747c0,5-4,9-9,9h-72c-5,0-9-4-9-9v-99c0-5,4-9,9-9h72c5,0,9,4,9,9V747z"/>
		<path class="st0" d="M202.8,747c0,5-4,9-9,9h-72c-5,0-9-4-9-9v-99c0-5,4-9,9-9h72c5,0,9,4,9,9V747z"/>
	</g>
	<g>
		<path class="st0" d="M104,505.8c0,5-4,9-9,9H23c-5,0-9-4-9-9v-99c0-5,4-9,9-9h72c5,0,9,4,9,9V505.8z"/>
		<path class="st0" d="M598,505.8c0,5-4,9-9,9h-72c-5,0-9-4-9-9v-99c0-5,4-9,9-9h72c5,0,9,4,9,9V505.8z"/>
		<path class="st0" d="M499.2,505.8c0,5-4,9-9,9h-72c-5,0-9-4-9-9v-99c0-5,4-9,9-9h72c5,0,9,4,9,9V505.8z"/>
		<path class="st0" d="M400.4,505.8c0,5-4,9-9,9h-72c-5,0-9-4-9-9v-99c0-5,4-9,9-9h72c5,0,9,4,9,9V505.8z"/>
		<path class="st0" d="M301.6,505.8c0,5-4,9-9,9h-72c-5,0-9-4-9-9v-99c0-5,4-9,9-9h72c5,0,9,4,9,9V505.8z"/>
		<path class="st0" d="M202.8,505.8c0,5-4,9-9,9h-72c-5,0-9-4-9-9v-99c0-5,4-9,9-9h72c5,0,9,4,9,9V505.8z"/>
	</g>
	<g>
		<path class="st0" d="M104,385.2c0,5-4,9-9,9H23c-5,0-9-4-9-9v-99c0-5,4-9,9-9h72c5,0,9,4,9,9V385.2z"/>
		<path class="st0" d="M598,385.2c0,5-4,9-9,9h-72c-5,0-9-4-9-9v-99c0-5,4-9,9-9h72c5,0,9,4,9,9V385.2z"/>
		<path class="st0" d="M499.2,385.2c0,5-4,9-9,9h-72c-5,0-9-4-9-9v-99c0-5,4-9,9-9h72c5,0,9,4,9,9V385.2z"/>
		<path class="st0" d="M400.4,385.2c0,5-4,9-9,9h-72c-5,0-9-4-9-9v-99c0-5,4-9,9-9h72c5,0,9,4,9,9V385.2z"/>
		<path class="st0" d="M301.6,385.2c0,5-4,9-9,9h-72c-5,0-9-4-9-9v-99c0-5,4-9,9-9h72c5,0,9,4,9,9V385.2z"/>
		<path class="st0" d="M202.8,385.2c0,5-4,9-9,9h-72c-5,0-9-4-9-9v-99c0-5,4-9,9-9h72c5,0,9,4,9,9V385.2z"/>
	</g>
	<g>
		<path class="st0" d="M104,264.6c0,5-4,9-9,9H23c-5,0-9-4-9-9v-99c0-5,4-9,9-9h72c5,0,9,4,9,9V264.6z"/>
		<path class="st0" d="M598,264.6c0,5-4,9-9,9h-72c-5,0-9-4-9-9v-99c0-5,4-9,9-9h72c5,0,9,4,9,9V264.6z"/>
		<path class="st0" d="M499.2,264.6c0,5-4,9-9,9h-72c-5,0-9-4-9-9v-99c0-5,4-9,9-9h72c5,0,9,4,9,9V264.6z"/>
		<path class="st0" d="M400.4,264.6c0,5-4,9-9,9h-72c-5,0-9-4-9-9v-99c0-5,4-9,9-9h72c5,0,9,4,9,9V264.6z"/>
		<path class="st0" d="M301.6,264.6c0,5-4,9-9,9h-72c-5,0-9-4-9-9v-99c0-5,4-9,9-9h72c5,0,9,4,9,9V264.6z"/>
		<path class="st0" d="M202.8,264.6c0,5-4,9-9,9h-72c-5,0-9-4-9-9v-99c0-5,4-9,9-9h72c5,0,9,4,9,9V264.6z"/>
	</g>
	<g>
		<path class="st0" d="M104,626.4c0,5-4,9-9,9H23c-5,0-9-4-9-9v-99c0-5,4-9,9-9h72c5,0,9,4,9,9V626.4z"/>
		<path class="st0" d="M598,626.4c0,5-4,9-9,9h-72c-5,0-9-4-9-9v-99c0-5,4-9,9-9h72c5,0,9,4,9,9V626.4z"/>
		<path class="st0" d="M499.2,626.4c0,5-4,9-9,9h-72c-5,0-9-4-9-9v-99c0-5,4-9,9-9h72c5,0,9,4,9,9V626.4z"/>
		<path class="st0" d="M400.4,626.4c0,5-4,9-9,9h-72c-5,0-9-4-9-9v-99c0-5,4-9,9-9h72c5,0,9,4,9,9V626.4z"/>
		<path class="st0" d="M301.6,626.4c0,5-4,9-9,9h-72c-5,0-9-4-9-9v-99c0-5,4-9,9-9h72c5,0,9,4,9,9V626.4z"/>
		<path class="st0" d="M202.8,626.4c0,5-4,9-9,9h-72c-5,0-9-4-9-9v-99c0-5,4-9,9-9h72c5,0,9,4,9,9V626.4z"/>
	</g>
	<rect class="st0" width="612" height="792"/>
</g>
</svg>
