<?xml version="1.0" encoding="utf-8"?>
<!-- Generator: Adobe Illustrator 20.1.0, SVG Export Plug-In . SVG Version: 6.00 Build 0)  -->
<svg version="1.1" id="Layer_1" xmlns="http://www.w3.org/2000/svg" xmlns:xlink="http://www.w3.org/1999/xlink" x="0px" y="0px"
	 viewBox="0 0 612 792" style="enable-background:new 0 0 612 792;" xml:space="preserve">
<style type="text/css">
	.st0{fill:none;stroke:#020202;stroke-width:2;}
</style>
<g>
	<g>
		<rect x="18" y="18" class="st0" width="144" height="108"/>
		<rect x="450" y="18" class="st0" width="144" height="108"/>
		<rect x="306" y="18" class="st0" width="144" height="108"/>
		<rect x="162" y="18" class="st0" width="144" height="108"/>
	</g>
	<g>
		<rect x="18" y="666" class="st0" width="144" height="108"/>
		<rect x="450" y="666" class="st0" width="144" height="108"/>
		<rect x="306" y="666" class="st0" width="144" height="108"/>
		<rect x="162" y="666" class="st0" width="144" height="108"/>
	</g>
	<g>
		<rect x="18" y="126" class="st0" width="144" height="108"/>
		<rect x="450" y="126" class="st0" width="144" height="108"/>
		<rect x="306" y="126" class="st0" width="144" height="108"/>
		<rect x="162" y="126" class="st0" width="144" height="108"/>
	</g>
	<g>
		<rect x="18" y="234" class="st0" width="144" height="108"/>
		<rect x="450" y="234" class="st0" width="144" height="108"/>
		<rect x="306" y="234" class="st0" width="144" height="108"/>
		<rect x="162" y="234" class="st0" width="144" height="108"/>
	</g>
	<g>
		<rect x="18" y="342" class="st0" width="144" height="108"/>
		<rect x="450" y="342" class="st0" width="144" height="108"/>
		<rect x="306" y="342" class="st0" width="144" height="108"/>
		<rect x="162" y="342" class="st0" width="144" height="108"/>
	</g>
	<g>
		<rect x="18" y="450" class="st0" width="144" height="108"/>
		<rect x="450" y="450" class="st0" width="144" height="108"/>
		<rect x="306" y="450" class="st0" width="144" height="108"/>
		<rect x="162" y="450" class="st0" width="144" height="108"/>
	</g>
	<g>
		<rect x="18" y="558" class="st0" width="144" height="108"/>
		<rect x="450" y="558" class="st0" width="144" height="108"/>
		<rect x="306" y="558" class="st0" width="144" height="108"/>
		<rect x="162" y="558" class="st0" width="144" height="108"/>
	</g>
	<rect class="st0" width="612" height="792"/>
</g>
</svg>
