<?xml version="1.0" encoding="utf-8"?>
<!-- Generator: Adobe Illustrator 20.1.0, SVG Export Plug-In . SVG Version: 6.00 Build 0)  -->
<svg version="1.1" id="Layer_1" xmlns="http://www.w3.org/2000/svg" xmlns:xlink="http://www.w3.org/1999/xlink" x="0px" y="0px"
	 viewBox="0 0 612 792" style="enable-background:new 0 0 612 792;" xml:space="preserve">
<style type="text/css">
	.st0{fill:none;stroke:#000000;stroke-width:2;}
</style>
<g>
	<path class="st0" d="M199.8,187.2c0,8-6.5,14.5-14.5,14.5H50.5c-8,0-14.5-6.5-14.5-14.5V32.5c0-8,6.5-14.5,14.5-14.5h134.9
		c8,0,14.5,6.5,14.5,14.5V187.2z"/>
	<path class="st0" d="M387.9,187.2c0,8-6.5,14.5-14.5,14.5H238.5c-8,0-14.5-6.5-14.5-14.5V32.5c0-8,6.5-14.5,14.5-14.5h134.9
		c8,0,14.5,6.5,14.5,14.5V187.2z"/>
	<path class="st0" d="M576,187.2c0,8-6.5,14.5-14.5,14.5H426.6c-8,0-14.5-6.5-14.5-14.5V32.5c0-8,6.5-14.5,14.5-14.5h134.9
		c8,0,14.5,6.5,14.5,14.5V187.2z"/>
	<path class="st0" d="M199.8,378.2c0,8-6.5,14.5-14.5,14.5H50.5c-8,0-14.5-6.5-14.5-14.5V223.5c0-8,6.5-14.5,14.5-14.5h134.9
		c8,0,14.5,6.5,14.5,14.5V378.2z"/>
	<path class="st0" d="M387.9,378.2c0,8-6.5,14.5-14.5,14.5H238.5c-8,0-14.5-6.5-14.5-14.5V223.5c0-8,6.5-14.5,14.5-14.5h134.9
		c8,0,14.5,6.5,14.5,14.5V378.2z"/>
	<path class="st0" d="M576,378.2c0,8-6.5,14.5-14.5,14.5H426.6c-8,0-14.5-6.5-14.5-14.5V223.5c0-8,6.5-14.5,14.5-14.5h134.9
		c8,0,14.5,6.5,14.5,14.5V378.2z"/>
	<path class="st0" d="M199.8,568.5c0,8-6.5,14.5-14.5,14.5H50.5c-8,0-14.5-6.5-14.5-14.5V413.8c0-8,6.5-14.5,14.5-14.5h134.9
		c8,0,14.5,6.5,14.5,14.5V568.5z"/>
	<path class="st0" d="M387.9,568.5c0,8-6.5,14.5-14.5,14.5H238.5c-8,0-14.5-6.5-14.5-14.5V413.8c0-8,6.5-14.5,14.5-14.5h134.9
		c8,0,14.5,6.5,14.5,14.5V568.5z"/>
	<path class="st0" d="M576,568.5c0,8-6.5,14.5-14.5,14.5H426.6c-8,0-14.5-6.5-14.5-14.5V413.8c0-8,6.5-14.5,14.5-14.5h134.9
		c8,0,14.5,6.5,14.5,14.5V568.5z"/>
	<path class="st0" d="M199.8,758.9c0,8-6.5,14.5-14.5,14.5H50.5c-8,0-14.5-6.5-14.5-14.5V604.1c0-8,6.5-14.5,14.5-14.5h134.9
		c8,0,14.5,6.5,14.5,14.5V758.9z"/>
	<path class="st0" d="M387.9,758.9c0,8-6.5,14.5-14.5,14.5H238.5c-8,0-14.5-6.5-14.5-14.5V604.1c0-8,6.5-14.5,14.5-14.5h134.9
		c8,0,14.5,6.5,14.5,14.5V758.9z"/>
	<path class="st0" d="M576,758.9c0,8-6.5,14.5-14.5,14.5H426.6c-8,0-14.5-6.5-14.5-14.5V604.1c0-8,6.5-14.5,14.5-14.5h134.9
		c8,0,14.5,6.5,14.5,14.5V758.9z"/>
	<rect class="st0" width="612" height="792"/>
</g>
</svg>
