<?xml version="1.0" encoding="utf-8"?>
<!-- Generator: Adobe Illustrator 20.1.0, SVG Export Plug-In . SVG Version: 6.00 Build 0)  -->
<svg version="1.1" id="Layer_1" xmlns="http://www.w3.org/2000/svg" xmlns:xlink="http://www.w3.org/1999/xlink" x="0px" y="0px"
	 viewBox="0 0 612 792" style="enable-background:new 0 0 612 792;" xml:space="preserve">
<style type="text/css">
	.st0{fill:none;stroke:#000000;stroke-width:2;}
</style>
<g>
	<path class="st0" d="M85.8,101.5c0,2.5,2,4.5,4.5,4.5h207c2.5,0,4.5-2,4.5-4.5v-63c0-2.5-2-4.5-4.5-4.5h-207c-2.5,0-4.5,2-4.5,4.5
		L85.8,101.5L85.8,101.5z"/>
	<path class="st0" d="M85.8,101.5c0,2.5,2,4.5,4.5,4.5h207c2.5,0,4.5-2,4.5-4.5v-63c0-2.5-2-4.5-4.5-4.5h-207c-2.5,0-4.5,2-4.5,4.5
		L85.8,101.5L85.8,101.5z"/>
	<path class="st0" d="M310.8,101.5c0,2.5,2,4.5,4.5,4.5h207c2.5,0,4.5-2,4.5-4.5v-63c0-2.5-2-4.5-4.5-4.5h-207c-2.5,0-4.5,2-4.5,4.5
		V101.5z"/>
	<path class="st0" d="M310.8,101.5c0,2.5,2,4.5,4.5,4.5h207c2.5,0,4.5-2,4.5-4.5v-63c0-2.5-2-4.5-4.5-4.5h-207c-2.5,0-4.5,2-4.5,4.5
		V101.5z"/>
	<path class="st0" d="M85.8,173.5c0,2.5,2,4.5,4.5,4.5h207c2.5,0,4.5-2,4.5-4.5v-63c0-2.5-2-4.5-4.5-4.5h-207c-2.5,0-4.5,2-4.5,4.5
		L85.8,173.5L85.8,173.5z"/>
	<path class="st0" d="M85.8,173.5c0,2.5,2,4.5,4.5,4.5h207c2.5,0,4.5-2,4.5-4.5v-63c0-2.5-2-4.5-4.5-4.5h-207c-2.5,0-4.5,2-4.5,4.5
		L85.8,173.5L85.8,173.5z"/>
	<path class="st0" d="M310.8,173.5c0,2.5,2,4.5,4.5,4.5h207c2.5,0,4.5-2,4.5-4.5v-63c0-2.5-2-4.5-4.5-4.5h-207c-2.5,0-4.5,2-4.5,4.5
		V173.5z"/>
	<path class="st0" d="M310.8,173.5c0,2.5,2,4.5,4.5,4.5h207c2.5,0,4.5-2,4.5-4.5v-63c0-2.5-2-4.5-4.5-4.5h-207c-2.5,0-4.5,2-4.5,4.5
		V173.5z"/>
	<path class="st0" d="M85.8,245.5c0,2.5,2,4.5,4.5,4.5h207c2.5,0,4.5-2,4.5-4.5v-63c0-2.5-2-4.5-4.5-4.5h-207c-2.5,0-4.5,2-4.5,4.5
		L85.8,245.5L85.8,245.5z"/>
	<path class="st0" d="M85.8,245.5c0,2.5,2,4.5,4.5,4.5h207c2.5,0,4.5-2,4.5-4.5v-63c0-2.5-2-4.5-4.5-4.5h-207c-2.5,0-4.5,2-4.5,4.5
		L85.8,245.5L85.8,245.5z"/>
	<path class="st0" d="M310.8,245.5c0,2.5,2,4.5,4.5,4.5h207c2.5,0,4.5-2,4.5-4.5v-63c0-2.5-2-4.5-4.5-4.5h-207c-2.5,0-4.5,2-4.5,4.5
		V245.5z"/>
	<path class="st0" d="M310.8,245.5c0,2.5,2,4.5,4.5,4.5h207c2.5,0,4.5-2,4.5-4.5v-63c0-2.5-2-4.5-4.5-4.5h-207c-2.5,0-4.5,2-4.5,4.5
		V245.5z"/>
	<path class="st0" d="M85.8,317.5c0,2.5,2,4.5,4.5,4.5h207c2.5,0,4.5-2,4.5-4.5v-63c0-2.5-2-4.5-4.5-4.5h-207c-2.5,0-4.5,2-4.5,4.5
		L85.8,317.5L85.8,317.5z"/>
	<path class="st0" d="M85.8,317.5c0,2.5,2,4.5,4.5,4.5h207c2.5,0,4.5-2,4.5-4.5v-63c0-2.5-2-4.5-4.5-4.5h-207c-2.5,0-4.5,2-4.5,4.5
		L85.8,317.5L85.8,317.5z"/>
	<path class="st0" d="M310.8,317.5c0,2.5,2,4.5,4.5,4.5h207c2.5,0,4.5-2,4.5-4.5v-63c0-2.5-2-4.5-4.5-4.5h-207c-2.5,0-4.5,2-4.5,4.5
		V317.5z"/>
	<path class="st0" d="M310.8,317.5c0,2.5,2,4.5,4.5,4.5h207c2.5,0,4.5-2,4.5-4.5v-63c0-2.5-2-4.5-4.5-4.5h-207c-2.5,0-4.5,2-4.5,4.5
		V317.5z"/>
	<path class="st0" d="M85.8,389.5c0,2.5,2,4.5,4.5,4.5h207c2.5,0,4.5-2,4.5-4.5v-63c0-2.5-2-4.5-4.5-4.5h-207c-2.5,0-4.5,2-4.5,4.5
		L85.8,389.5L85.8,389.5z"/>
	<path class="st0" d="M85.8,389.5c0,2.5,2,4.5,4.5,4.5h207c2.5,0,4.5-2,4.5-4.5v-63c0-2.5-2-4.5-4.5-4.5h-207c-2.5,0-4.5,2-4.5,4.5
		L85.8,389.5L85.8,389.5z"/>
	<path class="st0" d="M310.8,389.5c0,2.5,2,4.5,4.5,4.5h207c2.5,0,4.5-2,4.5-4.5v-63c0-2.5-2-4.5-4.5-4.5h-207c-2.5,0-4.5,2-4.5,4.5
		V389.5z"/>
	<path class="st0" d="M310.8,389.5c0,2.5,2,4.5,4.5,4.5h207c2.5,0,4.5-2,4.5-4.5v-63c0-2.5-2-4.5-4.5-4.5h-207c-2.5,0-4.5,2-4.5,4.5
		V389.5z"/>
	<path class="st0" d="M85.8,461.5c0,2.5,2,4.5,4.5,4.5h207c2.5,0,4.5-2,4.5-4.5v-63c0-2.5-2-4.5-4.5-4.5h-207c-2.5,0-4.5,2-4.5,4.5
		L85.8,461.5L85.8,461.5z"/>
	<path class="st0" d="M85.8,461.5c0,2.5,2,4.5,4.5,4.5h207c2.5,0,4.5-2,4.5-4.5v-63c0-2.5-2-4.5-4.5-4.5h-207c-2.5,0-4.5,2-4.5,4.5
		L85.8,461.5L85.8,461.5z"/>
	<path class="st0" d="M310.8,461.5c0,2.5,2,4.5,4.5,4.5h207c2.5,0,4.5-2,4.5-4.5v-63c0-2.5-2-4.5-4.5-4.5h-207c-2.5,0-4.5,2-4.5,4.5
		V461.5z"/>
	<path class="st0" d="M310.8,461.5c0,2.5,2,4.5,4.5,4.5h207c2.5,0,4.5-2,4.5-4.5v-63c0-2.5-2-4.5-4.5-4.5h-207c-2.5,0-4.5,2-4.5,4.5
		V461.5z"/>
	<path class="st0" d="M85.8,533.5c0,2.5,2,4.5,4.5,4.5h207c2.5,0,4.5-2,4.5-4.5v-63c0-2.5-2-4.5-4.5-4.5h-207c-2.5,0-4.5,2-4.5,4.5
		L85.8,533.5L85.8,533.5z"/>
	<path class="st0" d="M85.8,533.5c0,2.5,2,4.5,4.5,4.5h207c2.5,0,4.5-2,4.5-4.5v-63c0-2.5-2-4.5-4.5-4.5h-207c-2.5,0-4.5,2-4.5,4.5
		L85.8,533.5L85.8,533.5z"/>
	<path class="st0" d="M310.8,533.5c0,2.5,2,4.5,4.5,4.5h207c2.5,0,4.5-2,4.5-4.5v-63c0-2.5-2-4.5-4.5-4.5h-207c-2.5,0-4.5,2-4.5,4.5
		V533.5z"/>
	<path class="st0" d="M310.8,533.5c0,2.5,2,4.5,4.5,4.5h207c2.5,0,4.5-2,4.5-4.5v-63c0-2.5-2-4.5-4.5-4.5h-207c-2.5,0-4.5,2-4.5,4.5
		V533.5z"/>
	<path class="st0" d="M85.8,605.5c0,2.5,2,4.5,4.5,4.5h207c2.5,0,4.5-2,4.5-4.5v-63c0-2.5-2-4.5-4.5-4.5h-207c-2.5,0-4.5,2-4.5,4.5
		L85.8,605.5L85.8,605.5z"/>
	<path class="st0" d="M85.8,605.5c0,2.5,2,4.5,4.5,4.5h207c2.5,0,4.5-2,4.5-4.5v-63c0-2.5-2-4.5-4.5-4.5h-207c-2.5,0-4.5,2-4.5,4.5
		L85.8,605.5L85.8,605.5z"/>
	<path class="st0" d="M310.8,605.5c0,2.5,2,4.5,4.5,4.5h207c2.5,0,4.5-2,4.5-4.5v-63c0-2.5-2-4.5-4.5-4.5h-207c-2.5,0-4.5,2-4.5,4.5
		V605.5z"/>
	<path class="st0" d="M310.8,605.5c0,2.5,2,4.5,4.5,4.5h207c2.5,0,4.5-2,4.5-4.5v-63c0-2.5-2-4.5-4.5-4.5h-207c-2.5,0-4.5,2-4.5,4.5
		V605.5z"/>
	<path class="st0" d="M85.8,677.5c0,2.5,2,4.5,4.5,4.5h207c2.5,0,4.5-2,4.5-4.5v-63c0-2.5-2-4.5-4.5-4.5h-207c-2.5,0-4.5,2-4.5,4.5
		L85.8,677.5L85.8,677.5z"/>
	<path class="st0" d="M85.8,677.5c0,2.5,2,4.5,4.5,4.5h207c2.5,0,4.5-2,4.5-4.5v-63c0-2.5-2-4.5-4.5-4.5h-207c-2.5,0-4.5,2-4.5,4.5
		L85.8,677.5L85.8,677.5z"/>
	<path class="st0" d="M310.8,677.5c0,2.5,2,4.5,4.5,4.5h207c2.5,0,4.5-2,4.5-4.5v-63c0-2.5-2-4.5-4.5-4.5h-207c-2.5,0-4.5,2-4.5,4.5
		V677.5z"/>
	<path class="st0" d="M310.8,677.5c0,2.5,2,4.5,4.5,4.5h207c2.5,0,4.5-2,4.5-4.5v-63c0-2.5-2-4.5-4.5-4.5h-207c-2.5,0-4.5,2-4.5,4.5
		V677.5z"/>
	<path class="st0" d="M85.8,749.5c0,2.5,2,4.5,4.5,4.5h207c2.5,0,4.5-2,4.5-4.5v-63c0-2.5-2-4.5-4.5-4.5h-207c-2.5,0-4.5,2-4.5,4.5
		L85.8,749.5L85.8,749.5z"/>
	<path class="st0" d="M85.8,749.5c0,2.5,2,4.5,4.5,4.5h207c2.5,0,4.5-2,4.5-4.5v-63c0-2.5-2-4.5-4.5-4.5h-207c-2.5,0-4.5,2-4.5,4.5
		L85.8,749.5L85.8,749.5z"/>
	<path class="st0" d="M310.8,749.5c0,2.5,2,4.5,4.5,4.5h207c2.5,0,4.5-2,4.5-4.5v-63c0-2.5-2-4.5-4.5-4.5h-207c-2.5,0-4.5,2-4.5,4.5
		V749.5z"/>
	<path class="st0" d="M310.8,749.5c0,2.5,2,4.5,4.5,4.5h207c2.5,0,4.5-2,4.5-4.5v-63c0-2.5-2-4.5-4.5-4.5h-207c-2.5,0-4.5,2-4.5,4.5
		V749.5z"/>
</g>
<rect class="st0" width="612" height="792"/>
</svg>
