<?xml version="1.0" encoding="utf-8"?>
<!-- Generator: Adobe Illustrator 20.1.0, SVG Export Plug-In . SVG Version: 6.00 Build 0)  -->
<svg version="1.1" id="Layer_1" xmlns="http://www.w3.org/2000/svg" xmlns:xlink="http://www.w3.org/1999/xlink" x="0px" y="0px"
	 viewBox="0 0 612 792" style="enable-background:new 0 0 612 792;" xml:space="preserve">
<style type="text/css">
	.st0{fill:none;stroke:#231F20;stroke-width:2;}
	.st1{fill:none;stroke:#939598;stroke-width:2;stroke-miterlimit:10;}
	.st2{fill:none;stroke:#939598;stroke-width:2;stroke-miterlimit:10;stroke-dasharray:2,2;}
</style>
<rect class="st0" width="612" height="792"/>
<g>
	<g>
		<path class="st0" d="M301.5,253c0,5-4,9-9,9h-270c-5,0-9-4-9-9V27c0-5,4-9,9-9h270c5,0,9,4,9,9V253z"/>
		<path class="st0" d="M301.5,765c0,5-4,9-9,9h-270c-5,0-9-4-9-9V539c0-5,4-9,9-9h270c5,0,9,4,9,9V765z"/>
		<path class="st0" d="M301.5,509c0,5-4,9-9,9h-270c-5,0-9-4-9-9V283c0-5,4-9,9-9h270c5,0,9,4,9,9V509z"/>
	</g>
	<g>
		<path class="st0" d="M598.5,253c0,5-4,9-9,9h-270c-5,0-9-4-9-9V27c0-5,4-9,9-9h270c5,0,9,4,9,9V253z"/>
		<path class="st0" d="M598.5,765c0,5-4,9-9,9h-270c-5,0-9-4-9-9V539c0-5,4-9,9-9h270c5,0,9,4,9,9V765z"/>
		<path class="st0" d="M598.5,509c0,5-4,9-9,9h-270c-5,0-9-4-9-9V283c0-5,4-9,9-9h270c5,0,9,4,9,9V509z"/>
	</g>
</g>
<g>
	<g>
		<line class="st1" x1="306" y1="792" x2="306" y2="791"/>
		<line class="st2" x1="306" y1="789" x2="306" y2="2"/>
		<line class="st1" x1="306" y1="1" x2="306" y2="0"/>
	</g>
</g>
<g>
	<g>
		<line class="st1" x1="0" y1="267" x2="1" y2="267"/>
		<line class="st2" x1="3" y1="267" x2="610" y2="267"/>
		<line class="st1" x1="611" y1="267" x2="612" y2="267"/>
	</g>
</g>
<g>
	<g>
		<line class="st1" x1="0" y1="523" x2="1" y2="523"/>
		<line class="st2" x1="3" y1="523" x2="610" y2="523"/>
		<line class="st1" x1="611" y1="523" x2="612" y2="523"/>
	</g>
</g>
</svg>
