<?xml version="1.0" encoding="utf-8"?>
<!-- Generator: Adobe Illustrator 20.1.0, SVG Export Plug-In . SVG Version: 6.00 Build 0)  -->
<svg version="1.1" id="Layer_1" xmlns="http://www.w3.org/2000/svg" xmlns:xlink="http://www.w3.org/1999/xlink" x="0px" y="0px"
	 viewBox="0 0 612 792" style="enable-background:new 0 0 612 792;" xml:space="preserve">
<style type="text/css">
	.st0{fill:none;stroke:#000000;stroke-width:2;}
	.st1{fill:none;stroke:#939598;stroke-width:2;stroke-dasharray:2;}
</style>
<path class="st0" d="M594,369c0,5-4,9-9,9H27c-5,0-9-4-9-9V27c0-5,4-9,9-9h558c5,0,9,4,9,9V369z"/>
<path class="st0" d="M594,765c0,5-4,9-9,9H27c-5,0-9-4-9-9V423c0-5,4-9,9-9h558c5,0,9,4,9,9V765z"/>
<rect class="st0" width="612" height="792"/>
<line class="st1" x1="0" y1="396" x2="612" y2="396"/>
</svg>
