<?xml version="1.0" encoding="utf-8"?>
<!-- Generator: Adobe Illustrator 20.1.0, SVG Export Plug-In . SVG Version: 6.00 Build 0)  -->
<svg version="1.1" id="Layer_1" xmlns="http://www.w3.org/2000/svg" xmlns:xlink="http://www.w3.org/1999/xlink" x="0px" y="0px"
	 viewBox="0 0 612 792" style="enable-background:new 0 0 612 792;" xml:space="preserve">
<style type="text/css">
	.st0{fill:none;stroke:#000000;stroke-width:2;stroke-miterlimit:10;}
</style>
<path class="st0" d="M64.9,27h446.2C522,27,531,35.5,531,45.8v304.4c0,10.3-9,18.8-19.9,18.8H64.9C54,369,45,360.5,45,350.2V45.8
	C45,35.5,54,27,64.9,27z"/>
<path class="st0" d="M303.7,400.5h228.6c6.7,0,12.2,6.7,12.2,14.8v240.3c0,8.2-5.5,14.9-12.2,14.9H303.7c-6.7,0-12.2-6.7-12.2-14.9
	V415.3C291.6,407.2,297,400.5,303.7,400.5z"/>
<rect class="st0" width="612" height="792"/>
</svg>
