<?xml version="1.0" encoding="utf-8"?>
<!-- Generator: Adobe Illustrator 20.1.0, SVG Export Plug-In . SVG Version: 6.00 Build 0)  -->
<svg version="1.1" id="Layer_3" xmlns="http://www.w3.org/2000/svg" xmlns:xlink="http://www.w3.org/1999/xlink" x="0px" y="0px"
	 viewBox="0 0 612 792" style="enable-background:new 0 0 612 792;" xml:space="preserve">
<style type="text/css">
	.st0{fill:none;stroke:#000000;stroke-width:2;}
</style>
<path class="st0" d="M285.8,396.5H23.7c-7.1,0-13-5.5-13-12.2l0-335.5c0-6.7,5.8-12.2,13-12.2h262.1c7.1,0,13,5.5,13,12.2v335.5
	C298.7,391,292.9,396.5,285.8,396.5z"/>
<path class="st0" d="M587.3,396.5H325.2c-7.1,0-13-5.5-13-12.2l0-335.5c0-6.7,5.8-12.2,13-12.2h262.1c7.1,0,13,5.5,13,12.2v335.5
	C600.2,391,594.4,396.5,587.3,396.5z"/>
<path class="st0" d="M285.8,756.5H23.7c-7.1,0-13-5.5-13-12.2l0-335.5c0-6.7,5.8-12.2,13-12.2h262.1c7.1,0,13,5.5,13,12.2v335.5
	C298.7,751,292.9,756.5,285.8,756.5z"/>
<path class="st0" d="M325.2,396.5h262.1c7.1,0,13,5.5,13,12.2l0,335.5c0,6.7-5.8,12.2-13,12.2H325.2c-7.1,0-13-5.5-13-12.2V408.7
	C312.2,402,318.1,396.5,325.2,396.5z"/>
<rect y="0.5" class="st0" width="612" height="792"/>
</svg>
