<?xml version="1.0" encoding="utf-8"?>
<!-- Generator: Adobe Illustrator 20.1.0, SVG Export Plug-In . SVG Version: 6.00 Build 0)  -->
<svg version="1.1" id="Layer_1" xmlns="http://www.w3.org/2000/svg" xmlns:xlink="http://www.w3.org/1999/xlink" x="0px" y="0px"
	 viewBox="0 0 612 792" style="enable-background:new 0 0 612 792;" xml:space="preserve">
<style type="text/css">
	.st0{fill:none;stroke:#000000;stroke-width:2;stroke-miterlimit:10;}
</style>
<path class="st0" d="M25.7,396h128.7c4.2,0,7.7,8.9,7.7,19.8v320.4c0,10.9-3.4,19.8-7.7,19.8H25.7c-4.2,0-7.7-8.9-7.7-19.8V415.8
	C18,404.9,21.4,396,25.7,396z"/>
<path class="st0" d="M25.7,36h128.7c4.2,0,7.7,8.9,7.7,19.8v320.4c0,10.9-3.4,19.8-7.7,19.8H25.7c-4.2,0-7.7-8.9-7.7-19.8V55.8
	C18,44.9,21.4,36,25.7,36z"/>
<path class="st0" d="M169.7,396h128.7c4.2,0,7.7,8.9,7.7,19.8v320.4c0,10.9-3.4,19.8-7.7,19.8H169.7c-4.2,0-7.7-8.9-7.7-19.8V415.8
	C162,404.9,165.4,396,169.7,396z"/>
<path class="st0" d="M169.7,36h128.7c4.2,0,7.7,8.9,7.7,19.8v320.4c0,10.9-3.4,19.8-7.7,19.8H169.7c-4.2,0-7.7-8.9-7.7-19.8V55.8
	C162,44.9,165.4,36,169.7,36z"/>
<path class="st0" d="M313.7,396h128.7c4.2,0,7.7,8.9,7.7,19.8v320.4c0,10.9-3.4,19.8-7.7,19.8H313.7c-4.2,0-7.7-8.9-7.7-19.8V415.8
	C306,404.9,309.4,396,313.7,396z"/>
<path class="st0" d="M313.7,36h128.7c4.2,0,7.7,8.9,7.7,19.8v320.4c0,10.9-3.4,19.8-7.7,19.8H313.7c-4.2,0-7.7-8.9-7.7-19.8V55.8
	C306,44.9,309.4,36,313.7,36z"/>
<path class="st0" d="M457.7,396h128.7c4.2,0,7.7,8.9,7.7,19.8v320.4c0,10.9-3.4,19.8-7.7,19.8H457.7c-4.2,0-7.7-8.9-7.7-19.8V415.8
	C450,404.9,453.4,396,457.7,396z"/>
<path class="st0" d="M457.7,36h128.7c4.2,0,7.7,8.9,7.7,19.8v320.4c0,10.9-3.4,19.8-7.7,19.8H457.7c-4.2,0-7.7-8.9-7.7-19.8V55.8
	C450,44.9,453.4,36,457.7,36z"/>
<rect class="st0" width="612" height="792"/>
</svg>
