<?xml version="1.0" encoding="utf-8"?>
<!-- Generator: Adobe Illustrator 20.1.0, SVG Export Plug-In . SVG Version: 6.00 Build 0)  -->
<svg version="1.1" id="Layer_1" xmlns="http://www.w3.org/2000/svg" xmlns:xlink="http://www.w3.org/1999/xlink" x="0px" y="0px"
	 viewBox="0 0 612 792" style="enable-background:new 0 0 612 792;" xml:space="preserve">
<style type="text/css">
	.st0{fill:none;stroke:#000000;stroke-width:2;stroke-miterlimit:10;}
</style>
<path class="st0" d="M90,130.5h202.7c4.9,0,8.9,1.6,8.9,3.6v73.7c0,2-4,3.6-8.9,3.6H90c-4.9,0-8.9-1.6-8.9-3.6v-73.7
	C81,132.1,85.1,130.5,90,130.5z"/>
<path class="st0" d="M90,220.5h202.7c4.9,0,8.9,1.6,8.9,3.6v73.7c0,2-4,3.6-8.9,3.6H90c-4.9,0-8.9-1.6-8.9-3.6v-73.7
	C81,222.1,85.1,220.5,90,220.5z"/>
<path class="st0" d="M90,580.5h202.7c4.9,0,8.9,1.6,8.9,3.6v73.7c0,2-4,3.6-8.9,3.6H90c-4.9,0-8.9-1.6-8.9-3.6v-73.7
	C81,582.1,85.1,580.5,90,580.5z"/>
<path class="st0" d="M90,490.5h202.7c4.9,0,8.9,1.6,8.9,3.6v73.7c0,2-4,3.6-8.9,3.6H90c-4.9,0-8.9-1.6-8.9-3.6v-73.7
	C81,492.1,85.1,490.5,90,490.5z"/>
<path class="st0" d="M90,400.5h202.7c4.9,0,8.9,1.6,8.9,3.6v73.7c0,2-4,3.6-8.9,3.6H90c-4.9,0-8.9-1.6-8.9-3.6v-73.7
	C81,402.1,85.1,400.5,90,400.5z"/>
<path class="st0" d="M90,310.5h202.7c4.9,0,8.9,1.6,8.9,3.6v73.7c0,2-4,3.6-8.9,3.6H90c-4.9,0-8.9-1.6-8.9-3.6v-73.7
	C81,312.1,85.1,310.5,90,310.5z"/>
<path class="st0" d="M90,670.5h202.7c4.9,0,8.9,1.6,8.9,3.6v73.7c0,2-4,3.6-8.9,3.6H90c-4.9,0-8.9-1.6-8.9-3.6v-73.7
	C81,672.1,85.1,670.5,90,670.5z"/>
<path class="st0" d="M89.9,40.5h202.7c4.9,0,8.9,1.6,8.9,3.6v73.7c0,2-4,3.6-8.9,3.6H89.9c-4.9,0-8.9-1.6-8.9-3.6V44.1
	C81,42.1,85,40.5,89.9,40.5z"/>
<path class="st0" d="M319.4,130.5h202.7c4.9,0,8.9,1.6,8.9,3.6v73.7c0,2-4,3.6-8.9,3.6H319.4c-4.9,0-8.9-1.6-8.9-3.6v-73.7
	C310.5,132.1,314.5,130.5,319.4,130.5z"/>
<path class="st0" d="M319.4,220.5h202.7c4.9,0,8.9,1.6,8.9,3.6v73.7c0,2-4,3.6-8.9,3.6H319.4c-4.9,0-8.9-1.6-8.9-3.6v-73.7
	C310.5,222.1,314.5,220.5,319.4,220.5z"/>
<path class="st0" d="M319.4,580.5h202.7c4.9,0,8.9,1.6,8.9,3.6v73.7c0,2-4,3.6-8.9,3.6H319.4c-4.9,0-8.9-1.6-8.9-3.6v-73.7
	C310.5,582.1,314.5,580.5,319.4,580.5z"/>
<path class="st0" d="M319.4,490.5h202.7c4.9,0,8.9,1.6,8.9,3.6v73.7c0,2-4,3.6-8.9,3.6H319.4c-4.9,0-8.9-1.6-8.9-3.6v-73.7
	C310.5,492.1,314.5,490.5,319.4,490.5z"/>
<path class="st0" d="M319.4,400.5h202.7c4.9,0,8.9,1.6,8.9,3.6v73.7c0,2-4,3.6-8.9,3.6H319.4c-4.9,0-8.9-1.6-8.9-3.6v-73.7
	C310.5,402.1,314.5,400.5,319.4,400.5z"/>
<path class="st0" d="M319.4,310.5h202.7c4.9,0,8.9,1.6,8.9,3.6v73.7c0,2-4,3.6-8.9,3.6H319.4c-4.9,0-8.9-1.6-8.9-3.6v-73.7
	C310.5,312.1,314.5,310.5,319.4,310.5z"/>
<path class="st0" d="M319.4,670.5h202.7c4.9,0,8.9,1.6,8.9,3.6v73.7c0,2-4,3.6-8.9,3.6H319.4c-4.9,0-8.9-1.6-8.9-3.6v-73.7
	C310.5,672.1,314.5,670.5,319.4,670.5z"/>
<path class="st0" d="M319.4,40.5H522c4.9,0,8.9,1.6,8.9,3.6v73.7c0,2-4,3.6-8.9,3.6H319.4c-4.9,0-8.9-1.6-8.9-3.6V44.1
	C310.5,42.1,314.5,40.5,319.4,40.5z"/>
<rect class="st0" width="612" height="792"/>
</svg>
