<?xml version="1.0" encoding="utf-8"?>
<!-- Generator: Adobe Illustrator 26.1.0, SVG Export Plug-In . SVG Version: 6.00 Build 0)  -->
<svg version="1.1" xmlns="http://www.w3.org/2000/svg" xmlns:xlink="http://www.w3.org/1999/xlink" x="0px" y="0px"
	 viewBox="0 0 612 792" style="enable-background:new 0 0 612 792;" xml:space="preserve">
<style type="text/css">
	.st0{fill:none;stroke:#000000;stroke-width:1.5;stroke-miterlimit:10;}
</style>
<g id="Layer_2">
</g>
<g id="Layer_1">
	<g>
		<g>
			<rect x="45.5" y="81.5" class="st0" width="90" height="90"/>
			<rect x="153.5" y="81.5" class="st0" width="90" height="90"/>
			<rect x="261.5" y="81.5" class="st0" width="90" height="90"/>
			<rect x="369.5" y="81.5" class="st0" width="90" height="90"/>
			<rect x="477.5" y="81.5" class="st0" width="90" height="90"/>
		</g>
		<g>
			<rect x="45.5" y="189.5" class="st0" width="90" height="90"/>
			<rect x="153.5" y="189.5" class="st0" width="90" height="90"/>
			<rect x="261.5" y="189.5" class="st0" width="90" height="90"/>
			<rect x="369.5" y="189.5" class="st0" width="90" height="90"/>
			<rect x="477.5" y="189.5" class="st0" width="90" height="90"/>
		</g>
		<g>
			<rect x="45.5" y="297.5" class="st0" width="90" height="90"/>
			<rect x="153.5" y="297.5" class="st0" width="90" height="90"/>
			<rect x="261.5" y="297.5" class="st0" width="90" height="90"/>
			<rect x="369.5" y="297.5" class="st0" width="90" height="90"/>
			<rect x="477.5" y="297.5" class="st0" width="90" height="90"/>
		</g>
		<g>
			<rect x="45.5" y="405.5" class="st0" width="90" height="90"/>
			<rect x="153.5" y="405.5" class="st0" width="90" height="90"/>
			<rect x="261.5" y="405.5" class="st0" width="90" height="90"/>
			<rect x="369.5" y="405.5" class="st0" width="90" height="90"/>
			<rect x="477.5" y="405.5" class="st0" width="90" height="90"/>
		</g>
		<g>
			<rect x="45.5" y="513.5" class="st0" width="90" height="90"/>
			<rect x="153.5" y="513.5" class="st0" width="90" height="90"/>
			<rect x="261.5" y="513.5" class="st0" width="90" height="90"/>
			<rect x="369.5" y="513.5" class="st0" width="90" height="90"/>
			<rect x="477.5" y="513.5" class="st0" width="90" height="90"/>
		</g>
		<g>
			<rect x="45.5" y="621.5" class="st0" width="90" height="90"/>
			<rect x="153.5" y="621.5" class="st0" width="90" height="90"/>
			<rect x="261.5" y="621.5" class="st0" width="90" height="90"/>
			<rect x="369.5" y="621.5" class="st0" width="90" height="90"/>
			<rect x="477.5" y="621.5" class="st0" width="90" height="90"/>
		</g>
	</g>
	<rect class="st0" width="612" height="792"/>
</g>
</svg>
