<?xml version="1.0" encoding="utf-8"?>
<!-- Generator: Adobe Illustrator 20.1.0, SVG Export Plug-In . SVG Version: 6.00 Build 0)  -->
<svg version="1.1" id="Layer_4" xmlns="http://www.w3.org/2000/svg" xmlns:xlink="http://www.w3.org/1999/xlink" x="0px" y="0px"
	 viewBox="0 0 612 792" style="enable-background:new 0 0 612 792;" xml:space="preserve">
<style type="text/css">
	.st0{fill:none;stroke:#000000;stroke-width:2;stroke-miterlimit:10;}
	.st1{fill:none;stroke:#000000;stroke-width:2;}
</style>
<path class="st0" d="M198,72H18c-2.5,0-4.5-2-4.5-4.5v-45c0-2.5,2-4.5,4.5-4.5h180c2.5,0,4.5,2,4.5,4.5v45C202.5,70,200.5,72,198,72
	z"/>
<path class="st0" d="M198,126H18c-2.5,0-4.5-2-4.5-4.5v-45c0-2.5,2-4.5,4.5-4.5h180c2.5,0,4.5,2,4.5,4.5v45
	C202.5,124,200.5,126,198,126z"/>
<path class="st0" d="M198,180H18c-2.5,0-4.5-2-4.5-4.5v-45c0-2.5,2-4.5,4.5-4.5h180c2.5,0,4.5,2,4.5,4.5v45
	C202.5,178,200.5,180,198,180z"/>
<path class="st0" d="M198,234H18c-2.5,0-4.5-2-4.5-4.5v-45c0-2.5,2-4.5,4.5-4.5h180c2.5,0,4.5,2,4.5,4.5v45
	C202.5,232,200.5,234,198,234z"/>
<path class="st0" d="M198,288H18c-2.5,0-4.5-2-4.5-4.5v-45c0-2.5,2-4.5,4.5-4.5h180c2.5,0,4.5,2,4.5,4.5v45
	C202.5,286,200.5,288,198,288z"/>
<path class="st0" d="M198,342H18c-2.5,0-4.5-2-4.5-4.5v-45c0-2.5,2-4.5,4.5-4.5h180c2.5,0,4.5,2,4.5,4.5v45
	C202.5,340,200.5,342,198,342z"/>
<path class="st0" d="M198,396H18c-2.5,0-4.5-2-4.5-4.5v-45c0-2.5,2-4.5,4.5-4.5h180c2.5,0,4.5,2,4.5,4.5v45
	C202.5,394,200.5,396,198,396z"/>
<path class="st0" d="M198,450H18c-2.5,0-4.5-2-4.5-4.5v-45c0-2.5,2-4.5,4.5-4.5h180c2.5,0,4.5,2,4.5,4.5v45
	C202.5,448,200.5,450,198,450z"/>
<path class="st0" d="M198,504H18c-2.5,0-4.5-2-4.5-4.5v-45c0-2.5,2-4.5,4.5-4.5h180c2.5,0,4.5,2,4.5,4.5v45
	C202.5,502,200.5,504,198,504z"/>
<path class="st0" d="M198,558H18c-2.5,0-4.5-2-4.5-4.5v-45c0-2.5,2-4.5,4.5-4.5h180c2.5,0,4.5,2,4.5,4.5v45
	C202.5,556,200.5,558,198,558z"/>
<path class="st0" d="M198,612H18c-2.5,0-4.5-2-4.5-4.5v-45c0-2.5,2-4.5,4.5-4.5h180c2.5,0,4.5,2,4.5,4.5v45
	C202.5,610,200.5,612,198,612z"/>
<path class="st0" d="M198,666H18c-2.5,0-4.5-2-4.5-4.5v-45c0-2.5,2-4.5,4.5-4.5h180c2.5,0,4.5,2,4.5,4.5v45
	C202.5,664,200.5,666,198,666z"/>
<path class="st0" d="M198,720H18c-2.5,0-4.5-2-4.5-4.5v-45c0-2.5,2-4.5,4.5-4.5h180c2.5,0,4.5,2,4.5,4.5v45
	C202.5,718,200.5,720,198,720z"/>
<path class="st0" d="M198,774H18c-2.5,0-4.5-2-4.5-4.5v-45c0-2.5,2-4.5,4.5-4.5h180c2.5,0,4.5,2,4.5,4.5v45
	C202.5,772,200.5,774,198,774z"/>
<path class="st0" d="M396,72H216c-2.5,0-4.5-2-4.5-4.5v-45c0-2.5,2-4.5,4.5-4.5h180c2.5,0,4.5,2,4.5,4.5v45
	C400.5,70,398.5,72,396,72z"/>
<path class="st0" d="M396,126H216c-2.5,0-4.5-2-4.5-4.5v-45c0-2.5,2-4.5,4.5-4.5h180c2.5,0,4.5,2,4.5,4.5v45
	C400.5,124,398.5,126,396,126z"/>
<path class="st0" d="M396,180H216c-2.5,0-4.5-2-4.5-4.5v-45c0-2.5,2-4.5,4.5-4.5h180c2.5,0,4.5,2,4.5,4.5v45
	C400.5,178,398.5,180,396,180z"/>
<path class="st0" d="M396,234H216c-2.5,0-4.5-2-4.5-4.5v-45c0-2.5,2-4.5,4.5-4.5h180c2.5,0,4.5,2,4.5,4.5v45
	C400.5,232,398.5,234,396,234z"/>
<path class="st0" d="M396,288H216c-2.5,0-4.5-2-4.5-4.5v-45c0-2.5,2-4.5,4.5-4.5h180c2.5,0,4.5,2,4.5,4.5v45
	C400.5,286,398.5,288,396,288z"/>
<path class="st0" d="M396,342H216c-2.5,0-4.5-2-4.5-4.5v-45c0-2.5,2-4.5,4.5-4.5h180c2.5,0,4.5,2,4.5,4.5v45
	C400.5,340,398.5,342,396,342z"/>
<path class="st0" d="M396,396H216c-2.5,0-4.5-2-4.5-4.5v-45c0-2.5,2-4.5,4.5-4.5h180c2.5,0,4.5,2,4.5,4.5v45
	C400.5,394,398.5,396,396,396z"/>
<path class="st0" d="M396,450H216c-2.5,0-4.5-2-4.5-4.5v-45c0-2.5,2-4.5,4.5-4.5h180c2.5,0,4.5,2,4.5,4.5v45
	C400.5,448,398.5,450,396,450z"/>
<path class="st0" d="M396,504H216c-2.5,0-4.5-2-4.5-4.5v-45c0-2.5,2-4.5,4.5-4.5h180c2.5,0,4.5,2,4.5,4.5v45
	C400.5,502,398.5,504,396,504z"/>
<path class="st0" d="M396,558H216c-2.5,0-4.5-2-4.5-4.5v-45c0-2.5,2-4.5,4.5-4.5h180c2.5,0,4.5,2,4.5,4.5v45
	C400.5,556,398.5,558,396,558z"/>
<path class="st0" d="M396,612H216c-2.5,0-4.5-2-4.5-4.5v-45c0-2.5,2-4.5,4.5-4.5h180c2.5,0,4.5,2,4.5,4.5v45
	C400.5,610,398.5,612,396,612z"/>
<path class="st0" d="M396,666H216c-2.5,0-4.5-2-4.5-4.5v-45c0-2.5,2-4.5,4.5-4.5h180c2.5,0,4.5,2,4.5,4.5v45
	C400.5,664,398.5,666,396,666z"/>
<path class="st0" d="M396,720H216c-2.5,0-4.5-2-4.5-4.5v-45c0-2.5,2-4.5,4.5-4.5h180c2.5,0,4.5,2,4.5,4.5v45
	C400.5,718,398.5,720,396,720z"/>
<path class="st0" d="M396,774H216c-2.5,0-4.5-2-4.5-4.5v-45c0-2.5,2-4.5,4.5-4.5h180c2.5,0,4.5,2,4.5,4.5v45
	C400.5,772,398.5,774,396,774z"/>
<path class="st0" d="M594,72H414c-2.5,0-4.5-2-4.5-4.5v-45c0-2.5,2-4.5,4.5-4.5h180c2.5,0,4.5,2,4.5,4.5v45
	C598.5,70,596.5,72,594,72z"/>
<path class="st0" d="M594,126H414c-2.5,0-4.5-2-4.5-4.5v-45c0-2.5,2-4.5,4.5-4.5h180c2.5,0,4.5,2,4.5,4.5v45
	C598.5,124,596.5,126,594,126z"/>
<path class="st0" d="M594,180H414c-2.5,0-4.5-2-4.5-4.5v-45c0-2.5,2-4.5,4.5-4.5h180c2.5,0,4.5,2,4.5,4.5v45
	C598.5,178,596.5,180,594,180z"/>
<path class="st0" d="M594,234H414c-2.5,0-4.5-2-4.5-4.5v-45c0-2.5,2-4.5,4.5-4.5h180c2.5,0,4.5,2,4.5,4.5v45
	C598.5,232,596.5,234,594,234z"/>
<path class="st0" d="M594,288H414c-2.5,0-4.5-2-4.5-4.5v-45c0-2.5,2-4.5,4.5-4.5h180c2.5,0,4.5,2,4.5,4.5v45
	C598.5,286,596.5,288,594,288z"/>
<path class="st0" d="M594,342H414c-2.5,0-4.5-2-4.5-4.5v-45c0-2.5,2-4.5,4.5-4.5h180c2.5,0,4.5,2,4.5,4.5v45
	C598.5,340,596.5,342,594,342z"/>
<path class="st0" d="M594,396H414c-2.5,0-4.5-2-4.5-4.5v-45c0-2.5,2-4.5,4.5-4.5h180c2.5,0,4.5,2,4.5,4.5v45
	C598.5,394,596.5,396,594,396z"/>
<path class="st0" d="M594,450H414c-2.5,0-4.5-2-4.5-4.5v-45c0-2.5,2-4.5,4.5-4.5h180c2.5,0,4.5,2,4.5,4.5v45
	C598.5,448,596.5,450,594,450z"/>
<path class="st0" d="M594,504H414c-2.5,0-4.5-2-4.5-4.5v-45c0-2.5,2-4.5,4.5-4.5h180c2.5,0,4.5,2,4.5,4.5v45
	C598.5,502,596.5,504,594,504z"/>
<path class="st0" d="M594,558H414c-2.5,0-4.5-2-4.5-4.5v-45c0-2.5,2-4.5,4.5-4.5h180c2.5,0,4.5,2,4.5,4.5v45
	C598.5,556,596.5,558,594,558z"/>
<path class="st0" d="M594,612H414c-2.5,0-4.5-2-4.5-4.5v-45c0-2.5,2-4.5,4.5-4.5h180c2.5,0,4.5,2,4.5,4.5v45
	C598.5,610,596.5,612,594,612z"/>
<path class="st0" d="M594,666H414c-2.5,0-4.5-2-4.5-4.5v-45c0-2.5,2-4.5,4.5-4.5h180c2.5,0,4.5,2,4.5,4.5v45
	C598.5,664,596.5,666,594,666z"/>
<path class="st0" d="M594,720H414c-2.5,0-4.5-2-4.5-4.5v-45c0-2.5,2-4.5,4.5-4.5h180c2.5,0,4.5,2,4.5,4.5v45
	C598.5,718,596.5,720,594,720z"/>
<path class="st0" d="M594,774H414c-2.5,0-4.5-2-4.5-4.5v-45c0-2.5,2-4.5,4.5-4.5h180c2.5,0,4.5,2,4.5,4.5v45
	C598.5,772,596.5,774,594,774z"/>
<rect y="0" class="st1" width="612" height="792"/>
</svg>
