<?xml version="1.0" encoding="utf-8"?>
<!-- Generator: Adobe Illustrator 20.1.0, SVG Export Plug-In . SVG Version: 6.00 Build 0)  -->
<svg version="1.1" id="Layer_1" xmlns="http://www.w3.org/2000/svg" xmlns:xlink="http://www.w3.org/1999/xlink" x="0px" y="0px"
	 viewBox="0 0 612 792" style="enable-background:new 0 0 612 792;" xml:space="preserve">
<style type="text/css">
	.st0{fill:none;stroke:#000000;stroke-width:2;}
</style>
<g>
	<path class="st0" d="M18.1,753.1c0,4.9,4,9,9,9h112.8c5,0,9-4.1,9-9v-83.2c0-4.9-4-9-9-9H27.1c-5,0-9,4.1-9,9V753.1z"/>
	<path class="st0" d="M18.1,131c0,4.9,4,9,9,9h112.8c5,0,9-4.1,9-9V47.7c0-4.9-4-9-9-9H27.1c-5,0-9,4.1-9,9V131z"/>
	<path class="st0" d="M18.1,255.4c0,4.9,4,9,9,9h112.8c5,0,9-4.1,9-9v-83.2c0-4.9-4-9-9-9H27.1c-5,0-9,4.1-9,9V255.4z"/>
	<path class="st0" d="M18.1,379.8c0,4.9,4,9,9,9h112.8c5,0,9-4.1,9-9v-83.2c0-4.9-4-9-9-9H27.1c-5,0-9,4.1-9,9V379.8z"/>
	<path class="st0" d="M18.1,504.2c0,4.9,4,9,9,9h112.8c5,0,9-4.1,9-9V421c0-4.9-4-9-9-9H27.1c-5,0-9,4.1-9,9V504.2z"/>
	<path class="st0" d="M18.1,628.6c0,4.9,4,9,9,9h112.8c5,0,9-4.1,9-9v-83.2c0-4.9-4-9-9-9H27.1c-5,0-9,4.1-9,9V628.6z"/>
</g>
<g>
	<path class="st0" d="M314.2,753.1c0,4.9,4,9,9,9H436c5,0,9-4.1,9-9v-83.2c0-4.9-4-9-9-9H323.2c-5,0-9,4.1-9,9V753.1z"/>
	<path class="st0" d="M314.2,131c0,4.9,4,9,9,9H436c5,0,9-4.1,9-9V47.7c0-4.9-4-9-9-9H323.2c-5,0-9,4.1-9,9V131z"/>
	<path class="st0" d="M314.2,255.4c0,4.9,4,9,9,9H436c5,0,9-4.1,9-9v-83.2c0-4.9-4-9-9-9H323.2c-5,0-9,4.1-9,9V255.4z"/>
	<path class="st0" d="M314.2,379.8c0,4.9,4,9,9,9H436c5,0,9-4.1,9-9v-83.2c0-4.9-4-9-9-9H323.2c-5,0-9,4.1-9,9V379.8z"/>
	<path class="st0" d="M314.2,504.2c0,4.9,4,9,9,9H436c5,0,9-4.1,9-9V421c0-4.9-4-9-9-9H323.2c-5,0-9,4.1-9,9V504.2z"/>
	<path class="st0" d="M314.2,628.6c0,4.9,4,9,9,9H436c5,0,9-4.1,9-9v-83.2c0-4.9-4-9-9-9H323.2c-5,0-9,4.1-9,9V628.6z"/>
</g>
<g>
	<path class="st0" d="M166.2,753.1c0,4.9,4,9,9,9H288c5,0,9-4.1,9-9v-83.2c0-4.9-4-9-9-9H175.2c-5,0-9,4.1-9,9V753.1z"/>
	<path class="st0" d="M166.2,131c0,4.9,4,9,9,9H288c5,0,9-4.1,9-9V47.7c0-4.9-4-9-9-9H175.2c-5,0-9,4.1-9,9V131z"/>
	<path class="st0" d="M166.2,255.4c0,4.9,4,9,9,9H288c5,0,9-4.1,9-9v-83.2c0-4.9-4-9-9-9H175.2c-5,0-9,4.1-9,9V255.4z"/>
	<path class="st0" d="M166.2,379.8c0,4.9,4,9,9,9H288c5,0,9-4.1,9-9v-83.2c0-4.9-4-9-9-9H175.2c-5,0-9,4.1-9,9V379.8z"/>
	<path class="st0" d="M166.2,504.2c0,4.9,4,9,9,9H288c5,0,9-4.1,9-9V421c0-4.9-4-9-9-9H175.2c-5,0-9,4.1-9,9V504.2z"/>
	<path class="st0" d="M166.2,628.6c0,4.9,4,9,9,9H288c5,0,9-4.1,9-9v-83.2c0-4.9-4-9-9-9H175.2c-5,0-9,4.1-9,9V628.6z"/>
</g>
<g>
	<path class="st0" d="M462.2,753.1c0,4.9,4,9,9,9H584c5,0,9-4.1,9-9v-83.2c0-4.9-4-9-9-9H471.2c-5,0-9,4.1-9,9V753.1z"/>
	<path class="st0" d="M462.2,131c0,4.9,4,9,9,9H584c5,0,9-4.1,9-9V47.7c0-4.9-4-9-9-9H471.2c-5,0-9,4.1-9,9V131z"/>
	<path class="st0" d="M462.2,255.4c0,4.9,4,9,9,9H584c5,0,9-4.1,9-9v-83.2c0-4.9-4-9-9-9H471.2c-5,0-9,4.1-9,9V255.4z"/>
	<path class="st0" d="M462.2,379.8c0,4.9,4,9,9,9H584c5,0,9-4.1,9-9v-83.2c0-4.9-4-9-9-9H471.2c-5,0-9,4.1-9,9V379.8z"/>
	<path class="st0" d="M462.2,504.2c0,4.9,4,9,9,9H584c5,0,9-4.1,9-9V421c0-4.9-4-9-9-9H471.2c-5,0-9,4.1-9,9V504.2z"/>
	<path class="st0" d="M462.2,628.6c0,4.9,4,9,9,9H584c5,0,9-4.1,9-9v-83.2c0-4.9-4-9-9-9H471.2c-5,0-9,4.1-9,9V628.6z"/>
</g>
<rect class="st0" width="612" height="792"/>
</svg>
