<?xml version="1.0" encoding="utf-8"?>
<!-- Generator: Adobe Illustrator 20.1.0, SVG Export Plug-In . SVG Version: 6.00 Build 0)  -->
<svg version="1.1" id="Layer_1" xmlns="http://www.w3.org/2000/svg" xmlns:xlink="http://www.w3.org/1999/xlink" x="0px" y="0px"
	 viewBox="0 0 612 792" style="enable-background:new 0 0 612 792;" xml:space="preserve">
<style type="text/css">
	.st0{fill:none;stroke:#000000;stroke-width:2;stroke-miterlimit:10;}
	.st1{fill:none;stroke:#000000;stroke-width:2;}
</style>
<rect x="54" class="st0" width="252" height="72"/>
<rect x="54" y="648" class="st0" width="252" height="72"/>
<rect x="54" y="576" class="st0" width="252" height="72"/>
<rect x="54" y="504" class="st0" width="252" height="72"/>
<rect x="54" y="432" class="st0" width="252" height="72"/>
<rect x="54" y="360" class="st0" width="252" height="72"/>
<rect x="54" y="288" class="st0" width="252" height="72"/>
<rect x="54" y="216" class="st0" width="252" height="72"/>
<rect x="54" y="144" class="st0" width="252" height="72"/>
<rect x="54" y="72" class="st0" width="252" height="72"/>
<rect x="306" class="st0" width="252" height="72"/>
<rect x="306" y="648" class="st0" width="252" height="72"/>
<rect x="306" y="576" class="st0" width="252" height="72"/>
<rect x="306" y="504" class="st0" width="252" height="72"/>
<rect x="306" y="432" class="st0" width="252" height="72"/>
<rect x="306" y="360" class="st0" width="252" height="72"/>
<rect x="306" y="288" class="st0" width="252" height="72"/>
<rect x="306" y="216" class="st0" width="252" height="72"/>
<rect x="306" y="144" class="st0" width="252" height="72"/>
<rect x="306" y="72" class="st0" width="252" height="72"/>
<g>
	<rect x="54" y="720" class="st0" width="252" height="72"/>
	<rect x="306" y="720" class="st0" width="252" height="72"/>
</g>
<rect class="st1" width="612" height="792"/>
</svg>
