<?xml version="1.0" encoding="utf-8"?>
<!-- Generator: Adobe Illustrator 20.1.0, SVG Export Plug-In . SVG Version: 6.00 Build 0)  -->
<svg version="1.1" id="Layer_1" xmlns="http://www.w3.org/2000/svg" xmlns:xlink="http://www.w3.org/1999/xlink" x="0px" y="0px"
	 viewBox="0 0 612 792" style="enable-background:new 0 0 612 792;" xml:space="preserve">
<style type="text/css">
	.st0{fill:none;stroke:#000000;stroke-width:2;stroke-miterlimit:10;}
	.st1{fill:none;stroke:#000000;stroke-width:2;}
</style>
<rect y="342" class="st0" width="204" height="108"/>
<rect y="124.5" class="st0" width="204" height="108"/>
<rect y="559.5" class="st0" width="204" height="108"/>
<rect y="450.8" class="st0" width="204" height="108"/>
<rect y="233.3" class="st0" width="204" height="108"/>
<rect y="668.3" class="st0" width="204" height="108"/>
<rect y="15.8" class="st0" width="204" height="108"/>
<rect x="204" y="342" class="st0" width="204" height="108"/>
<rect x="204" y="124.5" class="st0" width="204" height="108"/>
<rect x="204" y="559.5" class="st0" width="204" height="108"/>
<rect x="204" y="450.8" class="st0" width="204" height="108"/>
<rect x="204" y="233.3" class="st0" width="204" height="108"/>
<rect x="204" y="668.3" class="st0" width="204" height="108"/>
<rect x="204" y="15.8" class="st0" width="204" height="108"/>
<rect x="408" y="342" class="st0" width="204" height="108"/>
<rect x="408" y="124.5" class="st0" width="204" height="108"/>
<rect x="408" y="559.5" class="st0" width="204" height="108"/>
<rect x="408" y="450.8" class="st0" width="204" height="108"/>
<rect x="408" y="233.3" class="st0" width="204" height="108"/>
<rect x="408" y="668.3" class="st0" width="204" height="108"/>
<rect x="408" y="15.8" class="st0" width="204" height="108"/>
<rect class="st1" width="612" height="792"/>
</svg>
