<?xml version="1.0" encoding="utf-8"?>
<!-- Generator: Adobe Illustrator 21.0.0, SVG Export Plug-In . SVG Version: 6.00 Build 0)  -->
<svg version="1.1" id="Layer_1" xmlns="http://www.w3.org/2000/svg" xmlns:xlink="http://www.w3.org/1999/xlink" x="0px" y="0px"
	 viewBox="0 0 612 792" style="enable-background:new 0 0 612 792;" xml:space="preserve">
<style type="text/css">
	.st0{fill-rule:evenodd;clip-rule:evenodd;fill:none;stroke:#000000;stroke-width:2;stroke-miterlimit:2.6131;}
</style>
<g>
	<path class="st0" d="M30.8,711h113c1.1,0,2,0.9,2,1.9v59.2c0,1-0.9,1.9-2,1.9h-113c-1.1,0-2-0.9-2-1.9v-59.2
		C28.8,711.9,29.7,711,30.8,711z"/>
	<path class="st0" d="M30.8,18h113c1.1,0,2,0.9,2,1.9v59.2c0,1-0.9,1.9-2,1.9h-113c-1.1,0-2-0.9-2-1.9V19.9
		C28.8,18.9,29.7,18,30.8,18z"/>
	<path class="st0" d="M30.8,648h113c1.1,0,2,0.9,2,1.9v59.2c0,1-0.9,1.9-2,1.9h-113c-1.1,0-2-0.9-2-1.9v-59.2
		C28.8,648.9,29.7,648,30.8,648z"/>
	<path class="st0" d="M30.8,585h113c1.1,0,2,0.9,2,1.9v59.2c0,1-0.9,1.9-2,1.9h-113c-1.1,0-2-0.9-2-1.9v-59.2
		C28.8,585.9,29.7,585,30.8,585z"/>
	<path class="st0" d="M30.8,522h113c1.1,0,2,0.9,2,1.9v59.2c0,1-0.9,1.9-2,1.9h-113c-1.1,0-2-0.9-2-1.9v-59.2
		C28.8,522.9,29.7,522,30.8,522z"/>
	<path class="st0" d="M30.8,459h113c1.1,0,2,0.9,2,1.9v59.2c0,1-0.9,1.9-2,1.9h-113c-1.1,0-2-0.9-2-1.9v-59.2
		C28.8,459.9,29.7,459,30.8,459z"/>
	<path class="st0" d="M30.8,396h113c1.1,0,2,0.9,2,1.9v59.2c0,1-0.9,1.9-2,1.9h-113c-1.1,0-2-0.9-2-1.9v-59.2
		C28.8,396.9,29.7,396,30.8,396z"/>
	<path class="st0" d="M30.8,333h113c1.1,0,2,0.9,2,1.9v59.2c0,1-0.9,1.9-2,1.9h-113c-1.1,0-2-0.9-2-1.9v-59.2
		C28.8,333.9,29.7,333,30.8,333z"/>
	<path class="st0" d="M30.8,270h113c1.1,0,2,0.9,2,1.9v59.2c0,1-0.9,1.9-2,1.9h-113c-1.1,0-2-0.9-2-1.9v-59.2
		C28.8,270.9,29.7,270,30.8,270z"/>
	<path class="st0" d="M30.8,207h113c1.1,0,2,0.9,2,1.9v59.2c0,1-0.9,1.9-2,1.9h-113c-1.1,0-2-0.9-2-1.9v-59.2
		C28.8,207.9,29.7,207,30.8,207z"/>
	<path class="st0" d="M30.8,144h113c1.1,0,2,0.9,2,1.9v59.2c0,1-0.9,1.9-2,1.9h-113c-1.1,0-2-0.9-2-1.9v-59.2
		C28.8,144.9,29.7,144,30.8,144z"/>
	<path class="st0" d="M30.8,81h113c1.1,0,2,0.9,2,1.9v59.2c0,1-0.9,1.9-2,1.9h-113c-1.1,0-2-0.9-2-1.9V82.9
		C28.8,81.9,29.7,81,30.8,81z"/>
</g>
<g>
	<path class="st0" d="M176.6,711h113c1.1,0,2,0.9,2,1.9v59.2c0,1-0.9,1.9-2,1.9h-113c-1.1,0-2-0.9-2-1.9v-59.2
		C174.6,711.9,175.5,711,176.6,711z"/>
	<path class="st0" d="M176.6,18h113c1.1,0,2,0.9,2,1.9v59.2c0,1-0.9,1.9-2,1.9h-113c-1.1,0-2-0.9-2-1.9V19.9
		C174.6,18.9,175.5,18,176.6,18z"/>
	<path class="st0" d="M176.6,648h113c1.1,0,2,0.9,2,1.9v59.2c0,1-0.9,1.9-2,1.9h-113c-1.1,0-2-0.9-2-1.9v-59.2
		C174.6,648.9,175.5,648,176.6,648z"/>
	<path class="st0" d="M176.6,585h113c1.1,0,2,0.9,2,1.9v59.2c0,1-0.9,1.9-2,1.9h-113c-1.1,0-2-0.9-2-1.9v-59.2
		C174.6,585.9,175.5,585,176.6,585z"/>
	<path class="st0" d="M176.6,522h113c1.1,0,2,0.9,2,1.9v59.2c0,1-0.9,1.9-2,1.9h-113c-1.1,0-2-0.9-2-1.9v-59.2
		C174.6,522.9,175.5,522,176.6,522z"/>
	<path class="st0" d="M176.6,459h113c1.1,0,2,0.9,2,1.9v59.2c0,1-0.9,1.9-2,1.9h-113c-1.1,0-2-0.9-2-1.9v-59.2
		C174.6,459.9,175.5,459,176.6,459z"/>
	<path class="st0" d="M176.6,396h113c1.1,0,2,0.9,2,1.9v59.2c0,1-0.9,1.9-2,1.9h-113c-1.1,0-2-0.9-2-1.9v-59.2
		C174.6,396.9,175.5,396,176.6,396z"/>
	<path class="st0" d="M176.6,333h113c1.1,0,2,0.9,2,1.9v59.2c0,1-0.9,1.9-2,1.9h-113c-1.1,0-2-0.9-2-1.9v-59.2
		C174.6,333.9,175.5,333,176.6,333z"/>
	<path class="st0" d="M176.6,270h113c1.1,0,2,0.9,2,1.9v59.2c0,1-0.9,1.9-2,1.9h-113c-1.1,0-2-0.9-2-1.9v-59.2
		C174.6,270.9,175.5,270,176.6,270z"/>
	<path class="st0" d="M176.6,207h113c1.1,0,2,0.9,2,1.9v59.2c0,1-0.9,1.9-2,1.9h-113c-1.1,0-2-0.9-2-1.9v-59.2
		C174.6,207.9,175.5,207,176.6,207z"/>
	<path class="st0" d="M176.6,144h113c1.1,0,2,0.9,2,1.9v59.2c0,1-0.9,1.9-2,1.9h-113c-1.1,0-2-0.9-2-1.9v-59.2
		C174.6,144.9,175.5,144,176.6,144z"/>
	<path class="st0" d="M176.6,81h113c1.1,0,2,0.9,2,1.9v59.2c0,1-0.9,1.9-2,1.9h-113c-1.1,0-2-0.9-2-1.9V82.9
		C174.6,81.9,175.5,81,176.6,81z"/>
</g>
<g>
	<path class="st0" d="M322.4,711h113c1.1,0,2,0.9,2,1.9v59.2c0,1-0.9,1.9-2,1.9h-113c-1.1,0-2-0.9-2-1.9v-59.2
		C320.4,711.9,321.3,711,322.4,711z"/>
	<path class="st0" d="M322.4,18h113c1.1,0,2,0.9,2,1.9v59.2c0,1-0.9,1.9-2,1.9h-113c-1.1,0-2-0.9-2-1.9V19.9
		C320.4,18.9,321.3,18,322.4,18z"/>
	<path class="st0" d="M322.4,648h113c1.1,0,2,0.9,2,1.9v59.2c0,1-0.9,1.9-2,1.9h-113c-1.1,0-2-0.9-2-1.9v-59.2
		C320.4,648.9,321.3,648,322.4,648z"/>
	<path class="st0" d="M322.4,585h113c1.1,0,2,0.9,2,1.9v59.2c0,1-0.9,1.9-2,1.9h-113c-1.1,0-2-0.9-2-1.9v-59.2
		C320.4,585.9,321.3,585,322.4,585z"/>
	<path class="st0" d="M322.4,522h113c1.1,0,2,0.9,2,1.9v59.2c0,1-0.9,1.9-2,1.9h-113c-1.1,0-2-0.9-2-1.9v-59.2
		C320.4,522.9,321.3,522,322.4,522z"/>
	<path class="st0" d="M322.4,459h113c1.1,0,2,0.9,2,1.9v59.2c0,1-0.9,1.9-2,1.9h-113c-1.1,0-2-0.9-2-1.9v-59.2
		C320.4,459.9,321.3,459,322.4,459z"/>
	<path class="st0" d="M322.4,396h113c1.1,0,2,0.9,2,1.9v59.2c0,1-0.9,1.9-2,1.9h-113c-1.1,0-2-0.9-2-1.9v-59.2
		C320.4,396.9,321.3,396,322.4,396z"/>
	<path class="st0" d="M322.4,333h113c1.1,0,2,0.9,2,1.9v59.2c0,1-0.9,1.9-2,1.9h-113c-1.1,0-2-0.9-2-1.9v-59.2
		C320.4,333.9,321.3,333,322.4,333z"/>
	<path class="st0" d="M322.4,270h113c1.1,0,2,0.9,2,1.9v59.2c0,1-0.9,1.9-2,1.9h-113c-1.1,0-2-0.9-2-1.9v-59.2
		C320.4,270.9,321.3,270,322.4,270z"/>
	<path class="st0" d="M322.4,207h113c1.1,0,2,0.9,2,1.9v59.2c0,1-0.9,1.9-2,1.9h-113c-1.1,0-2-0.9-2-1.9v-59.2
		C320.4,207.9,321.3,207,322.4,207z"/>
	<path class="st0" d="M322.4,144h113c1.1,0,2,0.9,2,1.9v59.2c0,1-0.9,1.9-2,1.9h-113c-1.1,0-2-0.9-2-1.9v-59.2
		C320.4,144.9,321.3,144,322.4,144z"/>
	<path class="st0" d="M322.4,81h113c1.1,0,2,0.9,2,1.9v59.2c0,1-0.9,1.9-2,1.9h-113c-1.1,0-2-0.9-2-1.9V82.9
		C320.4,81.9,321.3,81,322.4,81z"/>
</g>
<g>
	<path class="st0" d="M468.1,711h113c1.1,0,2,0.9,2,1.9v59.2c0,1-0.9,1.9-2,1.9h-113c-1.1,0-2-0.9-2-1.9v-59.2
		C466.2,711.9,467.1,711,468.1,711z"/>
	<path class="st0" d="M468.1,18h113c1.1,0,2,0.9,2,1.9v59.2c0,1-0.9,1.9-2,1.9h-113c-1.1,0-2-0.9-2-1.9V19.9
		C466.2,18.9,467.1,18,468.1,18z"/>
	<path class="st0" d="M468.1,648h113c1.1,0,2,0.9,2,1.9v59.2c0,1-0.9,1.9-2,1.9h-113c-1.1,0-2-0.9-2-1.9v-59.2
		C466.2,648.9,467.1,648,468.1,648z"/>
	<path class="st0" d="M468.1,585h113c1.1,0,2,0.9,2,1.9v59.2c0,1-0.9,1.9-2,1.9h-113c-1.1,0-2-0.9-2-1.9v-59.2
		C466.2,585.9,467.1,585,468.1,585z"/>
	<path class="st0" d="M468.1,522h113c1.1,0,2,0.9,2,1.9v59.2c0,1-0.9,1.9-2,1.9h-113c-1.1,0-2-0.9-2-1.9v-59.2
		C466.2,522.9,467.1,522,468.1,522z"/>
	<path class="st0" d="M468.1,459h113c1.1,0,2,0.9,2,1.9v59.2c0,1-0.9,1.9-2,1.9h-113c-1.1,0-2-0.9-2-1.9v-59.2
		C466.2,459.9,467.1,459,468.1,459z"/>
	<path class="st0" d="M468.1,396h113c1.1,0,2,0.9,2,1.9v59.2c0,1-0.9,1.9-2,1.9h-113c-1.1,0-2-0.9-2-1.9v-59.2
		C466.2,396.9,467.1,396,468.1,396z"/>
	<path class="st0" d="M468.1,333h113c1.1,0,2,0.9,2,1.9v59.2c0,1-0.9,1.9-2,1.9h-113c-1.1,0-2-0.9-2-1.9v-59.2
		C466.2,333.9,467.1,333,468.1,333z"/>
	<path class="st0" d="M468.1,270h113c1.1,0,2,0.9,2,1.9v59.2c0,1-0.9,1.9-2,1.9h-113c-1.1,0-2-0.9-2-1.9v-59.2
		C466.2,270.9,467.1,270,468.1,270z"/>
	<path class="st0" d="M468.1,207h113c1.1,0,2,0.9,2,1.9v59.2c0,1-0.9,1.9-2,1.9h-113c-1.1,0-2-0.9-2-1.9v-59.2
		C466.2,207.9,467.1,207,468.1,207z"/>
	<path class="st0" d="M468.1,144h113c1.1,0,2,0.9,2,1.9v59.2c0,1-0.9,1.9-2,1.9h-113c-1.1,0-2-0.9-2-1.9v-59.2
		C466.2,144.9,467.1,144,468.1,144z"/>
	<path class="st0" d="M468.1,81h113c1.1,0,2,0.9,2,1.9v59.2c0,1-0.9,1.9-2,1.9h-113c-1.1,0-2-0.9-2-1.9V82.9
		C466.2,81.9,467.1,81,468.1,81z"/>
</g>
<rect x="0" y="0" class="st0" width="612" height="792"/>
</svg>
