<?xml version="1.0" encoding="utf-8"?>
<!-- Generator: Adobe Illustrator 21.1.0, SVG Export Plug-In . SVG Version: 6.00 Build 0)  -->
<svg version="1.1" id="Layer_1" xmlns="http://www.w3.org/2000/svg" xmlns:xlink="http://www.w3.org/1999/xlink" x="0px" y="0px"
	 viewBox="0 0 614 794" style="enable-background:new 0 0 614 794;" xml:space="preserve">
<style type="text/css">
	.st0{fill:none;stroke:#231F20;stroke-width:2;}
</style>
<title>SL566</title>
<rect x="26.6" y="18.4" class="st0" width="139.7" height="84.2"/>
<rect x="166.3" y="18.4" class="st0" width="139.7" height="84.2"/>
<rect x="306" y="18.4" class="st0" width="139.7" height="84.2"/>
<rect x="445.7" y="18.4" class="st0" width="139.7" height="84.2"/>
<rect x="26.6" y="607.2" class="st0" width="139.7" height="84.2"/>
<rect x="166.3" y="607.2" class="st0" width="139.7" height="84.2"/>
<rect x="306" y="607.2" class="st0" width="139.7" height="84.2"/>
<rect x="445.7" y="607.2" class="st0" width="139.7" height="84.2"/>
<rect x="26.6" y="102.5" class="st0" width="139.7" height="84.2"/>
<rect x="166.3" y="102.5" class="st0" width="139.7" height="84.2"/>
<rect x="306" y="102.5" class="st0" width="139.7" height="84.2"/>
<rect x="445.7" y="102.5" class="st0" width="139.7" height="84.2"/>
<rect x="26.6" y="186.6" class="st0" width="139.7" height="84.2"/>
<rect x="166.3" y="186.6" class="st0" width="139.7" height="84.2"/>
<rect x="306" y="186.6" class="st0" width="139.7" height="84.2"/>
<rect x="445.7" y="186.6" class="st0" width="139.7" height="84.2"/>
<rect x="26.6" y="270.8" class="st0" width="139.7" height="84.2"/>
<rect x="166.3" y="270.8" class="st0" width="139.7" height="84.2"/>
<rect x="306" y="270.8" class="st0" width="139.7" height="84.2"/>
<rect x="445.7" y="270.8" class="st0" width="139.7" height="84.2"/>
<rect x="26.6" y="354.9" class="st0" width="139.7" height="84.2"/>
<rect x="166.3" y="354.9" class="st0" width="139.7" height="84.2"/>
<rect x="306" y="354.9" class="st0" width="139.7" height="84.2"/>
<rect x="445.7" y="354.9" class="st0" width="139.7" height="84.2"/>
<rect x="26.6" y="439" class="st0" width="139.7" height="84.2"/>
<rect x="166.3" y="439" class="st0" width="139.7" height="84.2"/>
<rect x="306" y="439" class="st0" width="139.7" height="84.2"/>
<rect x="445.7" y="439" class="st0" width="139.7" height="84.2"/>
<rect x="26.6" y="523.1" class="st0" width="139.7" height="84.2"/>
<rect x="166.3" y="523.1" class="st0" width="139.7" height="84.2"/>
<rect x="306" y="523.1" class="st0" width="139.7" height="84.2"/>
<rect x="445.7" y="523.1" class="st0" width="139.7" height="84.2"/>
<rect x="26.6" y="691.3" class="st0" width="139.7" height="84.2"/>
<rect x="166.3" y="691.3" class="st0" width="139.7" height="84.2"/>
<rect x="306" y="691.3" class="st0" width="139.7" height="84.2"/>
<rect x="445.7" y="691.3" class="st0" width="139.7" height="84.2"/>
<rect x="1" y="1" class="st0" width="612" height="792"/>
</svg>
