<?xml version="1.0" encoding="utf-8"?>
<!-- Generator: Adobe Illustrator 20.1.0, SVG Export Plug-In . SVG Version: 6.00 Build 0)  -->
<svg version="1.1" id="Layer_1" xmlns="http://www.w3.org/2000/svg" xmlns:xlink="http://www.w3.org/1999/xlink" x="0px" y="0px"
	 viewBox="0 0 612 792" style="enable-background:new 0 0 612 792;" xml:space="preserve">
<style type="text/css">
	.st0{fill:none;stroke:#000000;stroke-width:2;}
</style>
<rect class="st0" width="612" height="792"/>
<g>
	<rect x="18" y="13.5" class="st0" width="96" height="45"/>
	<rect x="114" y="13.5" class="st0" width="96" height="45"/>
	<rect x="210" y="13.5" class="st0" width="96" height="45"/>
	<rect x="306" y="13.5" class="st0" width="96" height="45"/>
	<rect x="402" y="13.5" class="st0" width="96" height="45"/>
	<rect x="498" y="13.5" class="st0" width="96" height="45"/>
</g>
<g>
	<rect x="18" y="733.5" class="st0" width="96" height="45"/>
	<rect x="114" y="733.5" class="st0" width="96" height="45"/>
	<rect x="210" y="733.5" class="st0" width="96" height="45"/>
	<rect x="306" y="733.5" class="st0" width="96" height="45"/>
	<rect x="402" y="733.5" class="st0" width="96" height="45"/>
	<rect x="498" y="733.5" class="st0" width="96" height="45"/>
</g>
<g>
	<rect x="18" y="688.5" class="st0" width="96" height="45"/>
	<rect x="114" y="688.5" class="st0" width="96" height="45"/>
	<rect x="210" y="688.5" class="st0" width="96" height="45"/>
	<rect x="306" y="688.5" class="st0" width="96" height="45"/>
	<rect x="402" y="688.5" class="st0" width="96" height="45"/>
	<rect x="498" y="688.5" class="st0" width="96" height="45"/>
</g>
<g>
	<rect x="18" y="643.5" class="st0" width="96" height="45"/>
	<rect x="114" y="643.5" class="st0" width="96" height="45"/>
	<rect x="210" y="643.5" class="st0" width="96" height="45"/>
	<rect x="306" y="643.5" class="st0" width="96" height="45"/>
	<rect x="402" y="643.5" class="st0" width="96" height="45"/>
	<rect x="498" y="643.5" class="st0" width="96" height="45"/>
</g>
<g>
	<rect x="18" y="598.5" class="st0" width="96" height="45"/>
	<rect x="114" y="598.5" class="st0" width="96" height="45"/>
	<rect x="210" y="598.5" class="st0" width="96" height="45"/>
	<rect x="306" y="598.5" class="st0" width="96" height="45"/>
	<rect x="402" y="598.5" class="st0" width="96" height="45"/>
	<rect x="498" y="598.5" class="st0" width="96" height="45"/>
</g>
<g>
	<rect x="18" y="553.5" class="st0" width="96" height="45"/>
	<rect x="114" y="553.5" class="st0" width="96" height="45"/>
	<rect x="210" y="553.5" class="st0" width="96" height="45"/>
	<rect x="306" y="553.5" class="st0" width="96" height="45"/>
	<rect x="402" y="553.5" class="st0" width="96" height="45"/>
	<rect x="498" y="553.5" class="st0" width="96" height="45"/>
</g>
<g>
	<rect x="18" y="508.5" class="st0" width="96" height="45"/>
	<rect x="114" y="508.5" class="st0" width="96" height="45"/>
	<rect x="210" y="508.5" class="st0" width="96" height="45"/>
	<rect x="306" y="508.5" class="st0" width="96" height="45"/>
	<rect x="402" y="508.5" class="st0" width="96" height="45"/>
	<rect x="498" y="508.5" class="st0" width="96" height="45"/>
</g>
<g>
	<rect x="18" y="463.5" class="st0" width="96" height="45"/>
	<rect x="114" y="463.5" class="st0" width="96" height="45"/>
	<rect x="210" y="463.5" class="st0" width="96" height="45"/>
	<rect x="306" y="463.5" class="st0" width="96" height="45"/>
	<rect x="402" y="463.5" class="st0" width="96" height="45"/>
	<rect x="498" y="463.5" class="st0" width="96" height="45"/>
</g>
<g>
	<rect x="18" y="418.5" class="st0" width="96" height="45"/>
	<rect x="114" y="418.5" class="st0" width="96" height="45"/>
	<rect x="210" y="418.5" class="st0" width="96" height="45"/>
	<rect x="306" y="418.5" class="st0" width="96" height="45"/>
	<rect x="402" y="418.5" class="st0" width="96" height="45"/>
	<rect x="498" y="418.5" class="st0" width="96" height="45"/>
</g>
<g>
	<rect x="18" y="373.5" class="st0" width="96" height="45"/>
	<rect x="114" y="373.5" class="st0" width="96" height="45"/>
	<rect x="210" y="373.5" class="st0" width="96" height="45"/>
	<rect x="306" y="373.5" class="st0" width="96" height="45"/>
	<rect x="402" y="373.5" class="st0" width="96" height="45"/>
	<rect x="498" y="373.5" class="st0" width="96" height="45"/>
</g>
<g>
	<rect x="18" y="328.5" class="st0" width="96" height="45"/>
	<rect x="114" y="328.5" class="st0" width="96" height="45"/>
	<rect x="210" y="328.5" class="st0" width="96" height="45"/>
	<rect x="306" y="328.5" class="st0" width="96" height="45"/>
	<rect x="402" y="328.5" class="st0" width="96" height="45"/>
	<rect x="498" y="328.5" class="st0" width="96" height="45"/>
</g>
<g>
	<rect x="18" y="283.5" class="st0" width="96" height="45"/>
	<rect x="114" y="283.5" class="st0" width="96" height="45"/>
	<rect x="210" y="283.5" class="st0" width="96" height="45"/>
	<rect x="306" y="283.5" class="st0" width="96" height="45"/>
	<rect x="402" y="283.5" class="st0" width="96" height="45"/>
	<rect x="498" y="283.5" class="st0" width="96" height="45"/>
</g>
<g>
	<rect x="18" y="238.5" class="st0" width="96" height="45"/>
	<rect x="114" y="238.5" class="st0" width="96" height="45"/>
	<rect x="210" y="238.5" class="st0" width="96" height="45"/>
	<rect x="306" y="238.5" class="st0" width="96" height="45"/>
	<rect x="402" y="238.5" class="st0" width="96" height="45"/>
	<rect x="498" y="238.5" class="st0" width="96" height="45"/>
</g>
<g>
	<rect x="18" y="193.5" class="st0" width="96" height="45"/>
	<rect x="114" y="193.5" class="st0" width="96" height="45"/>
	<rect x="210" y="193.5" class="st0" width="96" height="45"/>
	<rect x="306" y="193.5" class="st0" width="96" height="45"/>
	<rect x="402" y="193.5" class="st0" width="96" height="45"/>
	<rect x="498" y="193.5" class="st0" width="96" height="45"/>
</g>
<g>
	<rect x="18" y="148.5" class="st0" width="96" height="45"/>
	<rect x="114" y="148.5" class="st0" width="96" height="45"/>
	<rect x="210" y="148.5" class="st0" width="96" height="45"/>
	<rect x="306" y="148.5" class="st0" width="96" height="45"/>
	<rect x="402" y="148.5" class="st0" width="96" height="45"/>
	<rect x="498" y="148.5" class="st0" width="96" height="45"/>
</g>
<g>
	<rect x="18" y="103.5" class="st0" width="96" height="45"/>
	<rect x="114" y="103.5" class="st0" width="96" height="45"/>
	<rect x="210" y="103.5" class="st0" width="96" height="45"/>
	<rect x="306" y="103.5" class="st0" width="96" height="45"/>
	<rect x="402" y="103.5" class="st0" width="96" height="45"/>
	<rect x="498" y="103.5" class="st0" width="96" height="45"/>
</g>
<g>
	<rect x="18" y="58.5" class="st0" width="96" height="45"/>
	<rect x="114" y="58.5" class="st0" width="96" height="45"/>
	<rect x="210" y="58.5" class="st0" width="96" height="45"/>
	<rect x="306" y="58.5" class="st0" width="96" height="45"/>
	<rect x="402" y="58.5" class="st0" width="96" height="45"/>
	<rect x="498" y="58.5" class="st0" width="96" height="45"/>
</g>
</svg>
