<?xml version="1.0" encoding="utf-8"?>
<!-- Generator: Adobe Illustrator 20.1.0, SVG Export Plug-In . SVG Version: 6.00 Build 0)  -->
<svg version="1.1" id="Layer_1" xmlns="http://www.w3.org/2000/svg" xmlns:xlink="http://www.w3.org/1999/xlink" x="0px" y="0px"
	 viewBox="0 0 612 792" style="enable-background:new 0 0 612 792;" xml:space="preserve">
<style type="text/css">
	.st0{fill:none;stroke:#000000;stroke-width:2;stroke-miterlimit:2.6131;}
</style>
<rect x="36" y="504" class="st0" width="90" height="216"/>
<rect x="36" y="72" class="st0" width="90" height="216"/>
<rect x="36" y="288" class="st0" width="90" height="216"/>
<rect x="216" y="288" class="st0" width="90" height="216"/>
<rect x="216" y="72" class="st0" width="90" height="216"/>
<rect x="216" y="504" class="st0" width="90" height="216"/>
<rect x="306" y="288" class="st0" width="90" height="216"/>
<rect x="306" y="504" class="st0" width="90" height="216"/>
<rect x="306" y="72" class="st0" width="90" height="216"/>
<rect x="126" y="288" class="st0" width="90" height="216"/>
<rect x="126" y="72" class="st0" width="90" height="216"/>
<rect x="126" y="504" class="st0" width="90" height="216"/>
<rect x="396.1" y="288" class="st0" width="90" height="216"/>
<rect x="396.1" y="72" class="st0" width="90" height="216"/>
<rect x="396.1" y="504" class="st0" width="90" height="216"/>
<rect x="486" y="288" class="st0" width="90" height="216"/>
<rect x="486.2" y="72" class="st0" width="90" height="216"/>
<rect x="486" y="504" class="st0" width="90" height="216"/>
<rect class="st0" width="612" height="792"/>
</svg>
