<?xml version="1.0" encoding="utf-8"?>
<!-- Generator: Adobe Illustrator 20.1.0, SVG Export Plug-In . SVG Version: 6.00 Build 0)  -->
<svg version="1.1" id="Layer_1" xmlns="http://www.w3.org/2000/svg" xmlns:xlink="http://www.w3.org/1999/xlink" x="0px" y="0px"
	 viewBox="0 0 612 792" style="enable-background:new 0 0 612 792;" xml:space="preserve">
<style type="text/css">
	.st0{fill:none;stroke:#000000;stroke-width:2;stroke-miterlimit:2.6131;}
</style>
<g>
	<rect x="36" y="45" class="st0" width="90" height="234"/>
	<rect x="126" y="45" class="st0" width="90" height="234"/>
	<rect x="216" y="45" class="st0" width="90" height="234"/>
	<rect x="306" y="45" class="st0" width="90" height="234"/>
	<rect x="396" y="45" class="st0" width="90" height="234"/>
	<rect x="486" y="45" class="st0" width="90" height="234"/>
	<rect x="36" y="279" class="st0" width="90" height="234"/>
	<rect x="126" y="279" class="st0" width="90" height="234"/>
	<rect x="216" y="279" class="st0" width="90" height="234"/>
	<rect x="306" y="279" class="st0" width="90" height="234"/>
	<rect x="396" y="279" class="st0" width="90" height="234"/>
	<rect x="486" y="279" class="st0" width="90" height="234"/>
	<rect x="36" y="513" class="st0" width="90" height="234"/>
	<rect x="126" y="513" class="st0" width="90" height="234"/>
	<rect x="216" y="513" class="st0" width="90" height="234"/>
	<rect x="306" y="513" class="st0" width="90" height="234"/>
	<rect x="396" y="513" class="st0" width="90" height="234"/>
	<rect x="486" y="513" class="st0" width="90" height="234"/>
	<rect class="st0" width="612" height="792"/>
</g>
</svg>
