<?xml version="1.0" encoding="utf-8"?>
<!-- Generator: Adobe Illustrator 20.1.0, SVG Export Plug-In . SVG Version: 6.00 Build 0)  -->
<svg version="1.1" id="Layer_1" xmlns="http://www.w3.org/2000/svg" xmlns:xlink="http://www.w3.org/1999/xlink" x="0px" y="0px"
	 viewBox="0 0 612 792" style="enable-background:new 0 0 612 792;" xml:space="preserve">
<style type="text/css">
	.st0{fill-rule:evenodd;clip-rule:evenodd;fill:none;stroke:#000000;stroke-width:2;stroke-miterlimit:2.6131;}
</style>
<g>
	<path class="st0" d="M58.4,402h225.1c4.9,0,8.9,3.4,8.9,7.6v153.6c0,4.2-4,7.6-8.9,7.6H58.4c-4.9,0-8.9-3.4-8.9-7.6V409.6
		C49.5,405.4,53.5,402,58.4,402z"/>
	<path class="st0" d="M58.4,221.2h225.1c4.9,0,8.9,3.4,8.9,7.6v153.6c0,4.2-4,7.6-8.9,7.6H58.4c-4.9,0-8.9-3.4-8.9-7.6V228.8
		C49.5,224.7,53.5,221.2,58.4,221.2z"/>
	<path class="st0" d="M58.4,40.5h225.1c4.9,0,8.9,3.4,8.9,7.6v153.6c0,4.2-4,7.6-8.9,7.6H58.4c-4.9,0-8.9-3.4-8.9-7.6V48.1
		C49.5,43.9,53.5,40.5,58.4,40.5z"/>
	<path class="st0" d="M58.4,582.7h225.1c4.9,0,8.9,3.4,8.9,7.6v153.6c0,4.2-4,7.6-8.9,7.6H58.4c-4.9,0-8.9-3.4-8.9-7.6V590.3
		C49.5,586.2,53.5,582.7,58.4,582.7z"/>
</g>
<g>
	<path class="st0" d="M328.4,402h225.1c4.9,0,8.9,3.4,8.9,7.6v153.6c0,4.2-4,7.6-8.9,7.6H328.4c-4.9,0-8.9-3.4-8.9-7.6V409.6
		C319.5,405.4,323.5,402,328.4,402z"/>
	<path class="st0" d="M328.4,221.2h225.1c4.9,0,8.9,3.4,8.9,7.6v153.6c0,4.2-4,7.6-8.9,7.6H328.4c-4.9,0-8.9-3.4-8.9-7.6V228.8
		C319.5,224.7,323.5,221.2,328.4,221.2z"/>
	<path class="st0" d="M328.4,40.5h225.1c4.9,0,8.9,3.4,8.9,7.6v153.6c0,4.2-4,7.6-8.9,7.6H328.4c-4.9,0-8.9-3.4-8.9-7.6V48.1
		C319.5,43.9,323.5,40.5,328.4,40.5z"/>
	<path class="st0" d="M328.4,582.7h225.1c4.9,0,8.9,3.4,8.9,7.6v153.6c0,4.2-4,7.6-8.9,7.6H328.4c-4.9,0-8.9-3.4-8.9-7.6V590.3
		C319.5,586.2,323.5,582.7,328.4,582.7z"/>
</g>
<rect x="0" y="0" class="st0" width="612" height="792"/>
</svg>
