<?xml version="1.0" encoding="utf-8"?>
<!-- Generator: Adobe Illustrator 20.1.0, SVG Export Plug-In . SVG Version: 6.00 Build 0)  -->
<svg version="1.1" id="Layer_2" xmlns="http://www.w3.org/2000/svg" xmlns:xlink="http://www.w3.org/1999/xlink" x="0px" y="0px"
	 viewBox="0 0 612 792" style="enable-background:new 0 0 612 792;" xml:space="preserve">
<style type="text/css">
	.st0{fill:none;stroke:#000000;stroke-width:2;stroke-miterlimit:2.6131;}
</style>
<path class="st0" d="M25.1,72.1h262.9c6.9,0,12.5,4.4,12.5,9.7v196.6c0,5.3-5.6,9.7-12.5,9.7H25.1c-6.9,0-12.5-4.4-12.5-9.7V81.8
	C12.6,76.5,18.2,72.1,25.1,72.1L25.1,72.1z M25.1,288.1h262.9c6.9,0,12.5,4.4,12.5,9.7v196.6c0,5.3-5.6,9.7-12.5,9.7H25.1
	c-6.9,0-12.5-4.4-12.5-9.7V297.8C12.6,292.5,18.2,288.1,25.1,288.1L25.1,288.1z M25.1,504.1h262.9c6.9,0,12.5,4.4,12.5,9.7v196.6
	c0,5.3-5.6,9.7-12.5,9.7H25.1c-6.9,0-12.5-4.4-12.5-9.7V513.8C12.6,508.5,18.2,504.1,25.1,504.1L25.1,504.1z M322.1,72.1h262.9
	c6.9,0,12.5,4.4,12.5,9.7v196.6c0,5.3-5.6,9.7-12.5,9.7H322.1c-6.9,0-12.5-4.4-12.5-9.7V81.8C309.6,76.5,315.2,72.1,322.1,72.1
	L322.1,72.1z M322.1,288.1h262.9c6.9,0,12.5,4.4,12.5,9.7v196.6c0,5.3-5.6,9.7-12.5,9.7H322.1c-6.9,0-12.5-4.4-12.5-9.7V297.8
	C309.6,292.5,315.2,288.1,322.1,288.1L322.1,288.1z M322.1,504.1h262.9c6.9,0,12.5,4.4,12.5,9.7v196.6c0,5.3-5.6,9.7-12.5,9.7H322.1
	c-6.9,0-12.5-4.4-12.5-9.7V513.8C309.6,508.5,315.2,504.1,322.1,504.1L322.1,504.1z"/>
<rect y="0.1" class="st0" width="612" height="792"/>
</svg>
