<?xml version="1.0" encoding="utf-8"?>
<!-- Generator: Adobe Illustrator 20.1.0, SVG Export Plug-In . SVG Version: 6.00 Build 0)  -->
<svg version="1.1" id="Layer_1" xmlns="http://www.w3.org/2000/svg" xmlns:xlink="http://www.w3.org/1999/xlink" x="0px" y="0px"
	 viewBox="0 0 612 792" style="enable-background:new 0 0 612 792;" xml:space="preserve">
<style type="text/css">
	.st0{fill:none;stroke:#000000;stroke-width:2;}
</style>
<path class="st0" d="M283.3,95.3c0,5-4,9-9,9H44.8c-5,0-9-4-9-9V45.8c0-5,4-9,9-9h229.5c5,0,9,4,9,9V95.3z"/>
<path class="st0" d="M283.3,420.7c0,5-4,9-9,9H44.8c-5,0-9-4-9-9v-49.5c0-5,4-9,9-9h229.5c5,0,9,4,9,9V420.7z"/>
<path class="st0" d="M283.3,339.4c0,5-4,9-9,9H44.8c-5,0-9-4-9-9v-49.5c0-5,4-9,9-9h229.5c5,0,9,4,9,9V339.4z"/>
<path class="st0" d="M283.3,502.1c0,5-4,9-9,9H44.8c-5,0-9-4-9-9v-49.5c0-5,4-9,9-9h229.5c5,0,9,4,9,9V502.1z"/>
<path class="st0" d="M283.3,583.5c0,5-4,9-9,9H44.8c-5,0-9-4-9-9V534c0-5,4-9,9-9h229.5c5,0,9,4,9,9V583.5z"/>
<path class="st0" d="M283.3,664.8c0,5-4,9-9,9H44.8c-5,0-9-4-9-9v-49.5c0-5,4-9,9-9h229.5c5,0,9,4,9,9V664.8z"/>
<path class="st0" d="M283.3,746.2c0,5-4,9-9,9H44.8c-5,0-9-4-9-9v-49.5c0-5,4-9,9-9h229.5c5,0,9,4,9,9V746.2z"/>
<path class="st0" d="M283.3,258c0,5-4,9-9,9H44.8c-5,0-9-4-9-9v-49.5c0-5,4-9,9-9h229.5c5,0,9,4,9,9V258z"/>
<path class="st0" d="M283.3,176.7c0,5-4,9-9,9H44.8c-5,0-9-4-9-9v-49.5c0-5,4-9,9-9h229.5c5,0,9,4,9,9V176.7z"/>
<path class="st0" d="M576.2,95.3c0,5-4,9-9,9H337.7c-5,0-9-4-9-9V45.8c0-5,4-9,9-9h229.5c5,0,9,4,9,9V95.3z"/>
<path class="st0" d="M576.2,420.7c0,5-4,9-9,9H337.7c-5,0-9-4-9-9v-49.5c0-5,4-9,9-9h229.5c5,0,9,4,9,9V420.7z"/>
<path class="st0" d="M576.2,339.4c0,5-4,9-9,9H337.7c-5,0-9-4-9-9v-49.5c0-5,4-9,9-9h229.5c5,0,9,4,9,9V339.4z"/>
<path class="st0" d="M576.2,502.1c0,5-4,9-9,9H337.7c-5,0-9-4-9-9v-49.5c0-5,4-9,9-9h229.5c5,0,9,4,9,9V502.1z"/>
<path class="st0" d="M576.2,583.5c0,5-4,9-9,9H337.7c-5,0-9-4-9-9V534c0-5,4-9,9-9h229.5c5,0,9,4,9,9V583.5z"/>
<path class="st0" d="M576.2,664.8c0,5-4,9-9,9H337.7c-5,0-9-4-9-9v-49.5c0-5,4-9,9-9h229.5c5,0,9,4,9,9V664.8z"/>
<path class="st0" d="M576.2,746.2c0,5-4,9-9,9H337.7c-5,0-9-4-9-9v-49.5c0-5,4-9,9-9h229.5c5,0,9,4,9,9V746.2z"/>
<path class="st0" d="M576.2,258c0,5-4,9-9,9H337.7c-5,0-9-4-9-9v-49.5c0-5,4-9,9-9h229.5c5,0,9,4,9,9V258z"/>
<path class="st0" d="M576.2,176.7c0,5-4,9-9,9H337.7c-5,0-9-4-9-9v-49.5c0-5,4-9,9-9h229.5c5,0,9,4,9,9V176.7z"/>
<rect class="st0" width="612" height="792"/>
</svg>
