<?xml version="1.0" encoding="utf-8"?>
<!-- Generator: Adobe Illustrator 20.1.0, SVG Export Plug-In . SVG Version: 6.00 Build 0)  -->
<svg version="1.1" id="Layer_2" xmlns="http://www.w3.org/2000/svg" xmlns:xlink="http://www.w3.org/1999/xlink" x="0px" y="0px"
	 viewBox="0 0 612 792" style="enable-background:new 0 0 612 792;" xml:space="preserve">
<style type="text/css">
	.st0{fill:none;stroke:#000000;stroke-width:2;}
</style>
<path class="st0" d="M40.1,45h242.8c7.5,0,13.6,8.5,13.6,18.8v304.4c0,10.3-6.1,18.8-13.6,18.8H40.1c-7.5,0-13.6-8.5-13.6-18.8V63.8
	C26.5,53.5,32.6,45,40.1,45z"/>
<path class="st0" d="M328.1,45h242.8c7.5,0,13.6,8.5,13.6,18.8v304.4c0,10.3-6.1,18.8-13.6,18.8H328.1c-7.5,0-13.6-8.5-13.6-18.8
	V63.8C314.5,53.5,320.6,45,328.1,45z"/>
<path class="st0" d="M328.1,405h242.8c7.5,0,13.6,8.5,13.6,18.8v304.4c0,10.3-6.1,18.8-13.6,18.8H328.1c-7.5,0-13.6-8.5-13.6-18.8
	V423.8C314.5,413.5,320.6,405,328.1,405z"/>
<path class="st0" d="M40.1,405h242.8c7.5,0,13.6,8.5,13.6,18.8v304.4c0,10.3-6.1,18.8-13.6,18.8H40.1c-7.5,0-13.6-8.5-13.6-18.8
	V423.8C26.5,413.5,32.6,405,40.1,405z"/>
<rect class="st0" width="612" height="792"/>
</svg>
