<?xml version="1.0" encoding="utf-8"?>
<!-- Generator: Adobe Illustrator 20.1.0, SVG Export Plug-In . SVG Version: 6.00 Build 0)  -->
<svg version="1.1" id="Layer_1" xmlns="http://www.w3.org/2000/svg" xmlns:xlink="http://www.w3.org/1999/xlink" x="0px" y="0px"
	 viewBox="0 0 612 792" style="enable-background:new 0 0 612 792;" xml:space="preserve">
<style type="text/css">
	.st0{fill:none;stroke:#000000;stroke-width:2;stroke-miterlimit:10;}
</style>
<rect x="36" y="216" class="st0" width="81" height="36"/>
<rect x="36" y="180" class="st0" width="81" height="36"/>
<rect x="36" y="252" class="st0" width="81" height="36"/>
<rect x="36" y="576" class="st0" width="81" height="36"/>
<rect x="36" y="288" class="st0" width="81" height="36"/>
<rect x="36" y="324" class="st0" width="81" height="36"/>
<rect x="36" y="72" class="st0" width="81" height="36"/>
<rect x="36" y="360" class="st0" width="81" height="36"/>
<rect x="36" y="144" class="st0" width="81" height="36"/>
<rect x="36" y="396" class="st0" width="81" height="36"/>
<rect x="36" y="468" class="st0" width="81" height="36"/>
<rect x="36" y="540" class="st0" width="81" height="36"/>
<rect x="36" y="612" class="st0" width="81" height="36"/>
<rect x="36" y="432" class="st0" width="81" height="36"/>
<rect x="36" y="504" class="st0" width="81" height="36"/>
<rect x="36" y="648" class="st0" width="81" height="36"/>
<rect x="36" y="108" class="st0" width="81" height="36"/>
<rect x="36" y="36" class="st0" width="81" height="36"/>
<rect x="36" y="684" class="st0" width="81" height="36"/>
<rect x="36" y="720" class="st0" width="81" height="36"/>
<rect x="189" y="216" class="st0" width="81" height="36"/>
<rect x="189" y="180" class="st0" width="81" height="36"/>
<rect x="189" y="252" class="st0" width="81" height="36"/>
<rect x="189" y="576" class="st0" width="81" height="36"/>
<rect x="189" y="288" class="st0" width="81" height="36"/>
<rect x="189" y="324" class="st0" width="81" height="36"/>
<rect x="189" y="72" class="st0" width="81" height="36"/>
<rect x="189" y="360" class="st0" width="81" height="36"/>
<rect x="189" y="144" class="st0" width="81" height="36"/>
<rect x="189" y="396" class="st0" width="81" height="36"/>
<rect x="189" y="468" class="st0" width="81" height="36"/>
<rect x="189" y="540" class="st0" width="81" height="36"/>
<rect x="189" y="612" class="st0" width="81" height="36"/>
<rect x="189" y="432" class="st0" width="81" height="36"/>
<rect x="189" y="504" class="st0" width="81" height="36"/>
<rect x="189" y="648" class="st0" width="81" height="36"/>
<rect x="189" y="108" class="st0" width="81" height="36"/>
<rect x="189" y="36" class="st0" width="81" height="36"/>
<rect x="189" y="684" class="st0" width="81" height="36"/>
<rect x="189" y="720" class="st0" width="81" height="36"/>
<rect x="342" y="216" class="st0" width="81" height="36"/>
<rect x="342" y="180" class="st0" width="81" height="36"/>
<rect x="342" y="252" class="st0" width="81" height="36"/>
<rect x="342" y="576" class="st0" width="81" height="36"/>
<rect x="342" y="288" class="st0" width="81" height="36"/>
<rect x="342" y="324" class="st0" width="81" height="36"/>
<rect x="342" y="72" class="st0" width="81" height="36"/>
<rect x="342" y="360" class="st0" width="81" height="36"/>
<rect x="342" y="144" class="st0" width="81" height="36"/>
<rect x="342" y="396" class="st0" width="81" height="36"/>
<rect x="342" y="468" class="st0" width="81" height="36"/>
<rect x="342" y="540" class="st0" width="81" height="36"/>
<rect x="342" y="612" class="st0" width="81" height="36"/>
<rect x="342" y="432" class="st0" width="81" height="36"/>
<rect x="342" y="504" class="st0" width="81" height="36"/>
<rect x="342" y="648" class="st0" width="81" height="36"/>
<rect x="342" y="108" class="st0" width="81" height="36"/>
<rect x="342" y="36" class="st0" width="81" height="36"/>
<rect x="342" y="684" class="st0" width="81" height="36"/>
<rect x="342" y="720" class="st0" width="81" height="36"/>
<rect x="495" y="216" class="st0" width="81" height="36"/>
<rect x="495" y="180" class="st0" width="81" height="36"/>
<rect x="495" y="252" class="st0" width="81" height="36"/>
<rect x="495" y="576" class="st0" width="81" height="36"/>
<rect x="495" y="288" class="st0" width="81" height="36"/>
<rect x="495" y="324" class="st0" width="81" height="36"/>
<rect x="495" y="72" class="st0" width="81" height="36"/>
<rect x="495" y="360" class="st0" width="81" height="36"/>
<rect x="495" y="144" class="st0" width="81" height="36"/>
<rect x="495" y="396" class="st0" width="81" height="36"/>
<rect x="495" y="468" class="st0" width="81" height="36"/>
<rect x="495" y="540" class="st0" width="81" height="36"/>
<rect x="495" y="612" class="st0" width="81" height="36"/>
<rect x="495" y="432" class="st0" width="81" height="36"/>
<rect x="495" y="504" class="st0" width="81" height="36"/>
<rect x="495" y="648" class="st0" width="81" height="36"/>
<rect x="495" y="108" class="st0" width="81" height="36"/>
<rect x="495" y="36" class="st0" width="81" height="36"/>
<rect x="495" y="684" class="st0" width="81" height="36"/>
<rect x="495" y="720" class="st0" width="81" height="36"/>
<rect class="st0" width="612" height="792"/>
</svg>
