<?xml version="1.0" encoding="utf-8"?>
<!-- Generator: Adobe Illustrator 20.1.0, SVG Export Plug-In . SVG Version: 6.00 Build 0)  -->
<svg version="1.1" id="Layer_1" xmlns="http://www.w3.org/2000/svg" xmlns:xlink="http://www.w3.org/1999/xlink" x="0px" y="0px"
	 viewBox="0 0 612 792" style="enable-background:new 0 0 612 792;" xml:space="preserve">
<style type="text/css">
	.st0{fill:none;stroke:#000000;stroke-width:2;}
</style>
<path class="st0" d="M90.1,70.8c0,1.2-1,2.3-2.3,2.3h-63c-1.2,0-2.3-1-2.3-2.3V39.3c0-1.2,1-2.3,2.3-2.3h63c1.2,0,2.3,1,2.3,2.3
	V70.8z"/>
<path class="st0" d="M90.1,754.8c0,1.2-1,2.3-2.3,2.3h-63c-1.2,0-2.3-1-2.3-2.3v-31.5c0-1.2,1-2.3,2.3-2.3h63c1.2,0,2.3,1,2.3,2.3
	V754.8z"/>
<path class="st0" d="M90.1,712c0,1.2-1,2.3-2.3,2.3h-63c-1.2,0-2.3-1-2.3-2.3v-31.5c0-1.2,1-2.3,2.3-2.3h63c1.2,0,2.3,1,2.3,2.3V712
	z"/>
<path class="st0" d="M90.1,669.3c0,1.2-1,2.3-2.3,2.3h-63c-1.2,0-2.3-1-2.3-2.3v-31.5c0-1.2,1-2.3,2.3-2.3h63c1.2,0,2.3,1,2.3,2.3
	V669.3z"/>
<path class="st0" d="M90.1,626.5c0,1.2-1,2.3-2.3,2.3h-63c-1.2,0-2.3-1-2.3-2.3V595c0-1.2,1-2.3,2.3-2.3h63c1.2,0,2.3,1,2.3,2.3
	V626.5z"/>
<path class="st0" d="M90.1,583.8c0,1.2-1,2.3-2.3,2.3h-63c-1.2,0-2.3-1-2.3-2.3v-31.5c0-1.2,1-2.3,2.3-2.3h63c1.2,0,2.3,1,2.3,2.3
	V583.8z"/>
<path class="st0" d="M90.1,541c0,1.2-1,2.3-2.3,2.3h-63c-1.2,0-2.3-1-2.3-2.3v-31.5c0-1.2,1-2.3,2.3-2.3h63c1.2,0,2.3,1,2.3,2.3V541
	z"/>
<path class="st0" d="M90.1,498.3c0,1.2-1,2.3-2.3,2.3h-63c-1.2,0-2.3-1-2.3-2.3v-31.5c0-1.2,1-2.3,2.3-2.3h63c1.2,0,2.3,1,2.3,2.3
	V498.3z"/>
<path class="st0" d="M90.1,455.5c0,1.2-1,2.3-2.3,2.3h-63c-1.2,0-2.3-1-2.3-2.3V424c0-1.2,1-2.3,2.3-2.3h63c1.2,0,2.3,1,2.3,2.3
	V455.5z"/>
<path class="st0" d="M90.1,412.8c0,1.2-1,2.3-2.3,2.3h-63c-1.2,0-2.3-1-2.3-2.3v-31.5c0-1.2,1-2.3,2.3-2.3h63c1.2,0,2.3,1,2.3,2.3
	V412.8z"/>
<path class="st0" d="M90.1,370c0,1.2-1,2.3-2.3,2.3h-63c-1.2,0-2.3-1-2.3-2.3v-31.5c0-1.2,1-2.3,2.3-2.3h63c1.2,0,2.3,1,2.3,2.3V370
	z"/>
<path class="st0" d="M90.1,327.3c0,1.2-1,2.3-2.3,2.3h-63c-1.2,0-2.3-1-2.3-2.3v-31.5c0-1.2,1-2.3,2.3-2.3h63c1.2,0,2.3,1,2.3,2.3
	V327.3z"/>
<path class="st0" d="M90.1,284.5c0,1.2-1,2.3-2.3,2.3h-63c-1.2,0-2.3-1-2.3-2.3V253c0-1.2,1-2.3,2.3-2.3h63c1.2,0,2.3,1,2.3,2.3
	V284.5z"/>
<path class="st0" d="M90.1,241.8c0,1.2-1,2.3-2.3,2.3h-63c-1.2,0-2.3-1-2.3-2.3v-31.5c0-1.2,1-2.3,2.3-2.3h63c1.2,0,2.3,1,2.3,2.3
	V241.8z"/>
<path class="st0" d="M90.1,199c0,1.2-1,2.3-2.3,2.3h-63c-1.2,0-2.3-1-2.3-2.3v-31.5c0-1.2,1-2.3,2.3-2.3h63c1.2,0,2.3,1,2.3,2.3V199
	z"/>
<path class="st0" d="M90.1,156.3c0,1.2-1,2.3-2.3,2.3h-63c-1.2,0-2.3-1-2.3-2.3v-31.5c0-1.2,1-2.3,2.3-2.3h63c1.2,0,2.3,1,2.3,2.3
	V156.3z"/>
<path class="st0" d="M90.1,113.5c0,1.2-1,2.3-2.3,2.3h-63c-1.2,0-2.3-1-2.3-2.3V82c0-1.2,1-2.3,2.3-2.3h63c1.2,0,2.3,1,2.3,2.3
	V113.5z"/>
<path class="st0" d="M591.4,70.8c0,1.2-1,2.3-2.3,2.3h-63c-1.2,0-2.3-1-2.3-2.3V39.3c0-1.2,1-2.3,2.3-2.3h63c1.2,0,2.3,1,2.3,2.3
	V70.8z"/>
<path class="st0" d="M591.4,754.8c0,1.2-1,2.3-2.3,2.3h-63c-1.2,0-2.3-1-2.3-2.3v-31.5c0-1.2,1-2.3,2.3-2.3h63c1.2,0,2.3,1,2.3,2.3
	V754.8z"/>
<path class="st0" d="M591.4,712c0,1.2-1,2.3-2.3,2.3h-63c-1.2,0-2.3-1-2.3-2.3v-31.5c0-1.2,1-2.3,2.3-2.3h63c1.2,0,2.3,1,2.3,2.3
	V712z"/>
<path class="st0" d="M591.4,669.3c0,1.2-1,2.3-2.3,2.3h-63c-1.2,0-2.3-1-2.3-2.3v-31.5c0-1.2,1-2.3,2.3-2.3h63c1.2,0,2.3,1,2.3,2.3
	V669.3z"/>
<path class="st0" d="M591.4,626.5c0,1.2-1,2.3-2.3,2.3h-63c-1.2,0-2.3-1-2.3-2.3V595c0-1.2,1-2.3,2.3-2.3h63c1.2,0,2.3,1,2.3,2.3
	V626.5z"/>
<path class="st0" d="M591.4,583.8c0,1.2-1,2.3-2.3,2.3h-63c-1.2,0-2.3-1-2.3-2.3v-31.5c0-1.2,1-2.3,2.3-2.3h63c1.2,0,2.3,1,2.3,2.3
	V583.8z"/>
<path class="st0" d="M591.4,541c0,1.2-1,2.3-2.3,2.3h-63c-1.2,0-2.3-1-2.3-2.3v-31.5c0-1.2,1-2.3,2.3-2.3h63c1.2,0,2.3,1,2.3,2.3
	V541z"/>
<path class="st0" d="M591.4,498.3c0,1.2-1,2.3-2.3,2.3h-63c-1.2,0-2.3-1-2.3-2.3v-31.5c0-1.2,1-2.3,2.3-2.3h63c1.2,0,2.3,1,2.3,2.3
	V498.3z"/>
<path class="st0" d="M591.4,455.5c0,1.2-1,2.3-2.3,2.3h-63c-1.2,0-2.3-1-2.3-2.3V424c0-1.2,1-2.3,2.3-2.3h63c1.2,0,2.3,1,2.3,2.3
	V455.5z"/>
<path class="st0" d="M591.4,412.8c0,1.2-1,2.3-2.3,2.3h-63c-1.2,0-2.3-1-2.3-2.3v-31.5c0-1.2,1-2.3,2.3-2.3h63c1.2,0,2.3,1,2.3,2.3
	V412.8z"/>
<path class="st0" d="M591.4,370c0,1.2-1,2.3-2.3,2.3h-63c-1.2,0-2.3-1-2.3-2.3v-31.5c0-1.2,1-2.3,2.3-2.3h63c1.2,0,2.3,1,2.3,2.3
	V370z"/>
<path class="st0" d="M591.4,327.3c0,1.2-1,2.3-2.3,2.3h-63c-1.2,0-2.3-1-2.3-2.3v-31.5c0-1.2,1-2.3,2.3-2.3h63c1.2,0,2.3,1,2.3,2.3
	V327.3z"/>
<path class="st0" d="M591.4,284.5c0,1.2-1,2.3-2.3,2.3h-63c-1.2,0-2.3-1-2.3-2.3V253c0-1.2,1-2.3,2.3-2.3h63c1.2,0,2.3,1,2.3,2.3
	V284.5z"/>
<path class="st0" d="M591.4,241.8c0,1.2-1,2.3-2.3,2.3h-63c-1.2,0-2.3-1-2.3-2.3v-31.5c0-1.2,1-2.3,2.3-2.3h63c1.2,0,2.3,1,2.3,2.3
	V241.8z"/>
<path class="st0" d="M591.4,199c0,1.2-1,2.3-2.3,2.3h-63c-1.2,0-2.3-1-2.3-2.3v-31.5c0-1.2,1-2.3,2.3-2.3h63c1.2,0,2.3,1,2.3,2.3
	V199z"/>
<path class="st0" d="M591.4,156.3c0,1.2-1,2.3-2.3,2.3h-63c-1.2,0-2.3-1-2.3-2.3v-31.5c0-1.2,1-2.3,2.3-2.3h63c1.2,0,2.3,1,2.3,2.3
	V156.3z"/>
<path class="st0" d="M591.4,113.5c0,1.2-1,2.3-2.3,2.3h-63c-1.2,0-2.3-1-2.3-2.3V82c0-1.2,1-2.3,2.3-2.3h63c1.2,0,2.3,1,2.3,2.3
	V113.5z"/>
<path class="st0" d="M507.9,70.8c0,1.2-1,2.3-2.3,2.3h-63c-1.2,0-2.3-1-2.3-2.3V39.3c0-1.2,1-2.3,2.3-2.3h63c1.2,0,2.3,1,2.3,2.3
	V70.8z"/>
<path class="st0" d="M507.9,754.8c0,1.2-1,2.3-2.3,2.3h-63c-1.2,0-2.3-1-2.3-2.3v-31.5c0-1.2,1-2.3,2.3-2.3h63c1.2,0,2.3,1,2.3,2.3
	V754.8z"/>
<path class="st0" d="M507.9,712c0,1.2-1,2.3-2.3,2.3h-63c-1.2,0-2.3-1-2.3-2.3v-31.5c0-1.2,1-2.3,2.3-2.3h63c1.2,0,2.3,1,2.3,2.3
	V712z"/>
<path class="st0" d="M507.9,669.3c0,1.2-1,2.3-2.3,2.3h-63c-1.2,0-2.3-1-2.3-2.3v-31.5c0-1.2,1-2.3,2.3-2.3h63c1.2,0,2.3,1,2.3,2.3
	V669.3z"/>
<path class="st0" d="M507.9,626.5c0,1.2-1,2.3-2.3,2.3h-63c-1.2,0-2.3-1-2.3-2.3V595c0-1.2,1-2.3,2.3-2.3h63c1.2,0,2.3,1,2.3,2.3
	V626.5z"/>
<path class="st0" d="M507.9,583.8c0,1.2-1,2.3-2.3,2.3h-63c-1.2,0-2.3-1-2.3-2.3v-31.5c0-1.2,1-2.3,2.3-2.3h63c1.2,0,2.3,1,2.3,2.3
	V583.8z"/>
<path class="st0" d="M507.9,541c0,1.2-1,2.3-2.3,2.3h-63c-1.2,0-2.3-1-2.3-2.3v-31.5c0-1.2,1-2.3,2.3-2.3h63c1.2,0,2.3,1,2.3,2.3
	V541z"/>
<path class="st0" d="M507.9,498.3c0,1.2-1,2.3-2.3,2.3h-63c-1.2,0-2.3-1-2.3-2.3v-31.5c0-1.2,1-2.3,2.3-2.3h63c1.2,0,2.3,1,2.3,2.3
	V498.3z"/>
<path class="st0" d="M507.9,455.5c0,1.2-1,2.3-2.3,2.3h-63c-1.2,0-2.3-1-2.3-2.3V424c0-1.2,1-2.3,2.3-2.3h63c1.2,0,2.3,1,2.3,2.3
	V455.5z"/>
<path class="st0" d="M507.9,412.8c0,1.2-1,2.3-2.3,2.3h-63c-1.2,0-2.3-1-2.3-2.3v-31.5c0-1.2,1-2.3,2.3-2.3h63c1.2,0,2.3,1,2.3,2.3
	V412.8z"/>
<path class="st0" d="M507.9,370c0,1.2-1,2.3-2.3,2.3h-63c-1.2,0-2.3-1-2.3-2.3v-31.5c0-1.2,1-2.3,2.3-2.3h63c1.2,0,2.3,1,2.3,2.3
	V370z"/>
<path class="st0" d="M507.9,327.3c0,1.2-1,2.3-2.3,2.3h-63c-1.2,0-2.3-1-2.3-2.3v-31.5c0-1.2,1-2.3,2.3-2.3h63c1.2,0,2.3,1,2.3,2.3
	V327.3z"/>
<path class="st0" d="M507.9,284.5c0,1.2-1,2.3-2.3,2.3h-63c-1.2,0-2.3-1-2.3-2.3V253c0-1.2,1-2.3,2.3-2.3h63c1.2,0,2.3,1,2.3,2.3
	V284.5z"/>
<path class="st0" d="M507.9,241.8c0,1.2-1,2.3-2.3,2.3h-63c-1.2,0-2.3-1-2.3-2.3v-31.5c0-1.2,1-2.3,2.3-2.3h63c1.2,0,2.3,1,2.3,2.3
	V241.8z"/>
<path class="st0" d="M507.9,199c0,1.2-1,2.3-2.3,2.3h-63c-1.2,0-2.3-1-2.3-2.3v-31.5c0-1.2,1-2.3,2.3-2.3h63c1.2,0,2.3,1,2.3,2.3
	V199z"/>
<path class="st0" d="M507.9,156.3c0,1.2-1,2.3-2.3,2.3h-63c-1.2,0-2.3-1-2.3-2.3v-31.5c0-1.2,1-2.3,2.3-2.3h63c1.2,0,2.3,1,2.3,2.3
	V156.3z"/>
<path class="st0" d="M507.9,113.5c0,1.2-1,2.3-2.3,2.3h-63c-1.2,0-2.3-1-2.3-2.3V82c0-1.2,1-2.3,2.3-2.3h63c1.2,0,2.3,1,2.3,2.3
	V113.5z"/>
<path class="st0" d="M424.3,70.8c0,1.2-1,2.3-2.3,2.3h-63c-1.2,0-2.3-1-2.3-2.3V39.3c0-1.2,1-2.3,2.3-2.3h63c1.2,0,2.3,1,2.3,2.3
	V70.8z"/>
<path class="st0" d="M424.3,754.8c0,1.2-1,2.3-2.3,2.3h-63c-1.2,0-2.3-1-2.3-2.3v-31.5c0-1.2,1-2.3,2.3-2.3h63c1.2,0,2.3,1,2.3,2.3
	V754.8z"/>
<path class="st0" d="M424.3,712c0,1.2-1,2.3-2.3,2.3h-63c-1.2,0-2.3-1-2.3-2.3v-31.5c0-1.2,1-2.3,2.3-2.3h63c1.2,0,2.3,1,2.3,2.3
	V712z"/>
<path class="st0" d="M424.3,669.3c0,1.2-1,2.3-2.3,2.3h-63c-1.2,0-2.3-1-2.3-2.3v-31.5c0-1.2,1-2.3,2.3-2.3h63c1.2,0,2.3,1,2.3,2.3
	V669.3z"/>
<path class="st0" d="M424.3,626.5c0,1.2-1,2.3-2.3,2.3h-63c-1.2,0-2.3-1-2.3-2.3V595c0-1.2,1-2.3,2.3-2.3h63c1.2,0,2.3,1,2.3,2.3
	V626.5z"/>
<path class="st0" d="M424.3,583.8c0,1.2-1,2.3-2.3,2.3h-63c-1.2,0-2.3-1-2.3-2.3v-31.5c0-1.2,1-2.3,2.3-2.3h63c1.2,0,2.3,1,2.3,2.3
	V583.8z"/>
<path class="st0" d="M424.3,541c0,1.2-1,2.3-2.3,2.3h-63c-1.2,0-2.3-1-2.3-2.3v-31.5c0-1.2,1-2.3,2.3-2.3h63c1.2,0,2.3,1,2.3,2.3
	V541z"/>
<path class="st0" d="M424.3,498.3c0,1.2-1,2.3-2.3,2.3h-63c-1.2,0-2.3-1-2.3-2.3v-31.5c0-1.2,1-2.3,2.3-2.3h63c1.2,0,2.3,1,2.3,2.3
	V498.3z"/>
<path class="st0" d="M424.3,455.5c0,1.2-1,2.3-2.3,2.3h-63c-1.2,0-2.3-1-2.3-2.3V424c0-1.2,1-2.3,2.3-2.3h63c1.2,0,2.3,1,2.3,2.3
	V455.5z"/>
<path class="st0" d="M424.3,412.8c0,1.2-1,2.3-2.3,2.3h-63c-1.2,0-2.3-1-2.3-2.3v-31.5c0-1.2,1-2.3,2.3-2.3h63c1.2,0,2.3,1,2.3,2.3
	V412.8z"/>
<path class="st0" d="M424.3,370c0,1.2-1,2.3-2.3,2.3h-63c-1.2,0-2.3-1-2.3-2.3v-31.5c0-1.2,1-2.3,2.3-2.3h63c1.2,0,2.3,1,2.3,2.3
	V370z"/>
<path class="st0" d="M424.3,327.3c0,1.2-1,2.3-2.3,2.3h-63c-1.2,0-2.3-1-2.3-2.3v-31.5c0-1.2,1-2.3,2.3-2.3h63c1.2,0,2.3,1,2.3,2.3
	V327.3z"/>
<path class="st0" d="M424.3,284.5c0,1.2-1,2.3-2.3,2.3h-63c-1.2,0-2.3-1-2.3-2.3V253c0-1.2,1-2.3,2.3-2.3h63c1.2,0,2.3,1,2.3,2.3
	V284.5z"/>
<path class="st0" d="M424.3,241.8c0,1.2-1,2.3-2.3,2.3h-63c-1.2,0-2.3-1-2.3-2.3v-31.5c0-1.2,1-2.3,2.3-2.3h63c1.2,0,2.3,1,2.3,2.3
	V241.8z"/>
<path class="st0" d="M424.3,199c0,1.2-1,2.3-2.3,2.3h-63c-1.2,0-2.3-1-2.3-2.3v-31.5c0-1.2,1-2.3,2.3-2.3h63c1.2,0,2.3,1,2.3,2.3
	V199z"/>
<path class="st0" d="M424.3,156.3c0,1.2-1,2.3-2.3,2.3h-63c-1.2,0-2.3-1-2.3-2.3v-31.5c0-1.2,1-2.3,2.3-2.3h63c1.2,0,2.3,1,2.3,2.3
	V156.3z"/>
<path class="st0" d="M424.3,113.5c0,1.2-1,2.3-2.3,2.3h-63c-1.2,0-2.3-1-2.3-2.3V82c0-1.2,1-2.3,2.3-2.3h63c1.2,0,2.3,1,2.3,2.3
	V113.5z"/>
<path class="st0" d="M340.8,70.8c0,1.2-1,2.3-2.3,2.3h-63c-1.2,0-2.3-1-2.3-2.3V39.3c0-1.2,1-2.3,2.3-2.3h63c1.2,0,2.3,1,2.3,2.3
	V70.8z"/>
<path class="st0" d="M340.8,754.8c0,1.2-1,2.3-2.3,2.3h-63c-1.2,0-2.3-1-2.3-2.3v-31.5c0-1.2,1-2.3,2.3-2.3h63c1.2,0,2.3,1,2.3,2.3
	V754.8z"/>
<path class="st0" d="M340.8,712c0,1.2-1,2.3-2.3,2.3h-63c-1.2,0-2.3-1-2.3-2.3v-31.5c0-1.2,1-2.3,2.3-2.3h63c1.2,0,2.3,1,2.3,2.3
	V712z"/>
<path class="st0" d="M340.8,669.3c0,1.2-1,2.3-2.3,2.3h-63c-1.2,0-2.3-1-2.3-2.3v-31.5c0-1.2,1-2.3,2.3-2.3h63c1.2,0,2.3,1,2.3,2.3
	V669.3z"/>
<path class="st0" d="M340.8,626.5c0,1.2-1,2.3-2.3,2.3h-63c-1.2,0-2.3-1-2.3-2.3V595c0-1.2,1-2.3,2.3-2.3h63c1.2,0,2.3,1,2.3,2.3
	V626.5z"/>
<path class="st0" d="M340.8,583.8c0,1.2-1,2.3-2.3,2.3h-63c-1.2,0-2.3-1-2.3-2.3v-31.5c0-1.2,1-2.3,2.3-2.3h63c1.2,0,2.3,1,2.3,2.3
	V583.8z"/>
<path class="st0" d="M340.8,541c0,1.2-1,2.3-2.3,2.3h-63c-1.2,0-2.3-1-2.3-2.3v-31.5c0-1.2,1-2.3,2.3-2.3h63c1.2,0,2.3,1,2.3,2.3
	V541z"/>
<path class="st0" d="M340.8,498.3c0,1.2-1,2.3-2.3,2.3h-63c-1.2,0-2.3-1-2.3-2.3v-31.5c0-1.2,1-2.3,2.3-2.3h63c1.2,0,2.3,1,2.3,2.3
	V498.3z"/>
<path class="st0" d="M340.8,455.5c0,1.2-1,2.3-2.3,2.3h-63c-1.2,0-2.3-1-2.3-2.3V424c0-1.2,1-2.3,2.3-2.3h63c1.2,0,2.3,1,2.3,2.3
	V455.5z"/>
<path class="st0" d="M340.8,412.8c0,1.2-1,2.3-2.3,2.3h-63c-1.2,0-2.3-1-2.3-2.3v-31.5c0-1.2,1-2.3,2.3-2.3h63c1.2,0,2.3,1,2.3,2.3
	V412.8z"/>
<path class="st0" d="M340.8,370c0,1.2-1,2.3-2.3,2.3h-63c-1.2,0-2.3-1-2.3-2.3v-31.5c0-1.2,1-2.3,2.3-2.3h63c1.2,0,2.3,1,2.3,2.3
	V370z"/>
<path class="st0" d="M340.8,327.3c0,1.2-1,2.3-2.3,2.3h-63c-1.2,0-2.3-1-2.3-2.3v-31.5c0-1.2,1-2.3,2.3-2.3h63c1.2,0,2.3,1,2.3,2.3
	V327.3z"/>
<path class="st0" d="M340.8,284.5c0,1.2-1,2.3-2.3,2.3h-63c-1.2,0-2.3-1-2.3-2.3V253c0-1.2,1-2.3,2.3-2.3h63c1.2,0,2.3,1,2.3,2.3
	V284.5z"/>
<path class="st0" d="M340.8,241.8c0,1.2-1,2.3-2.3,2.3h-63c-1.2,0-2.3-1-2.3-2.3v-31.5c0-1.2,1-2.3,2.3-2.3h63c1.2,0,2.3,1,2.3,2.3
	V241.8z"/>
<path class="st0" d="M340.8,199c0,1.2-1,2.3-2.3,2.3h-63c-1.2,0-2.3-1-2.3-2.3v-31.5c0-1.2,1-2.3,2.3-2.3h63c1.2,0,2.3,1,2.3,2.3
	V199z"/>
<path class="st0" d="M340.8,156.3c0,1.2-1,2.3-2.3,2.3h-63c-1.2,0-2.3-1-2.3-2.3v-31.5c0-1.2,1-2.3,2.3-2.3h63c1.2,0,2.3,1,2.3,2.3
	V156.3z"/>
<path class="st0" d="M340.8,113.5c0,1.2-1,2.3-2.3,2.3h-63c-1.2,0-2.3-1-2.3-2.3V82c0-1.2,1-2.3,2.3-2.3h63c1.2,0,2.3,1,2.3,2.3
	V113.5z"/>
<path class="st0" d="M257.2,70.8c0,1.2-1,2.3-2.2,2.3h-63c-1.2,0-2.3-1-2.3-2.3V39.3c0-1.2,1-2.3,2.3-2.3h63c1.2,0,2.2,1,2.2,2.3
	V70.8z"/>
<path class="st0" d="M257.2,754.8c0,1.2-1,2.3-2.2,2.3h-63c-1.2,0-2.3-1-2.3-2.3v-31.5c0-1.2,1-2.3,2.3-2.3h63c1.2,0,2.2,1,2.2,2.3
	V754.8z"/>
<path class="st0" d="M257.2,712c0,1.2-1,2.3-2.2,2.3h-63c-1.2,0-2.3-1-2.3-2.3v-31.5c0-1.2,1-2.3,2.3-2.3h63c1.2,0,2.2,1,2.2,2.3
	V712z"/>
<path class="st0" d="M257.2,669.3c0,1.2-1,2.3-2.2,2.3h-63c-1.2,0-2.3-1-2.3-2.3v-31.5c0-1.2,1-2.3,2.3-2.3h63c1.2,0,2.2,1,2.2,2.3
	V669.3z"/>
<path class="st0" d="M257.2,626.5c0,1.2-1,2.3-2.2,2.3h-63c-1.2,0-2.3-1-2.3-2.3V595c0-1.2,1-2.3,2.3-2.3h63c1.2,0,2.2,1,2.2,2.3
	V626.5z"/>
<path class="st0" d="M257.2,583.8c0,1.2-1,2.3-2.2,2.3h-63c-1.2,0-2.3-1-2.3-2.3v-31.5c0-1.2,1-2.3,2.3-2.3h63c1.2,0,2.2,1,2.2,2.3
	V583.8z"/>
<path class="st0" d="M257.2,541c0,1.2-1,2.3-2.2,2.3h-63c-1.2,0-2.3-1-2.3-2.3v-31.5c0-1.2,1-2.3,2.3-2.3h63c1.2,0,2.2,1,2.2,2.3
	V541z"/>
<path class="st0" d="M257.2,498.3c0,1.2-1,2.3-2.2,2.3h-63c-1.2,0-2.3-1-2.3-2.3v-31.5c0-1.2,1-2.3,2.3-2.3h63c1.2,0,2.2,1,2.2,2.3
	V498.3z"/>
<path class="st0" d="M257.2,455.5c0,1.2-1,2.3-2.2,2.3h-63c-1.2,0-2.3-1-2.3-2.3V424c0-1.2,1-2.3,2.3-2.3h63c1.2,0,2.2,1,2.2,2.3
	V455.5z"/>
<path class="st0" d="M257.2,412.8c0,1.2-1,2.3-2.2,2.3h-63c-1.2,0-2.3-1-2.3-2.3v-31.5c0-1.2,1-2.3,2.3-2.3h63c1.2,0,2.2,1,2.2,2.3
	V412.8z"/>
<path class="st0" d="M257.2,370c0,1.2-1,2.3-2.2,2.3h-63c-1.2,0-2.3-1-2.3-2.3v-31.5c0-1.2,1-2.3,2.3-2.3h63c1.2,0,2.2,1,2.2,2.3
	V370z"/>
<path class="st0" d="M257.2,327.3c0,1.2-1,2.3-2.2,2.3h-63c-1.2,0-2.3-1-2.3-2.3v-31.5c0-1.2,1-2.3,2.3-2.3h63c1.2,0,2.2,1,2.2,2.3
	V327.3z"/>
<path class="st0" d="M257.2,284.5c0,1.2-1,2.3-2.2,2.3h-63c-1.2,0-2.3-1-2.3-2.3V253c0-1.2,1-2.3,2.3-2.3h63c1.2,0,2.2,1,2.2,2.3
	V284.5z"/>
<path class="st0" d="M257.2,241.8c0,1.2-1,2.3-2.2,2.3h-63c-1.2,0-2.3-1-2.3-2.3v-31.5c0-1.2,1-2.3,2.3-2.3h63c1.2,0,2.2,1,2.2,2.3
	V241.8z"/>
<path class="st0" d="M257.2,199c0,1.2-1,2.3-2.2,2.3h-63c-1.2,0-2.3-1-2.3-2.3v-31.5c0-1.2,1-2.3,2.3-2.3h63c1.2,0,2.2,1,2.2,2.3
	V199z"/>
<path class="st0" d="M257.2,156.3c0,1.2-1,2.3-2.2,2.3h-63c-1.2,0-2.3-1-2.3-2.3v-31.5c0-1.2,1-2.3,2.3-2.3h63c1.2,0,2.2,1,2.2,2.3
	V156.3z"/>
<path class="st0" d="M257.2,113.5c0,1.2-1,2.3-2.2,2.3h-63c-1.2,0-2.3-1-2.3-2.3V82c0-1.2,1-2.3,2.3-2.3h63c1.2,0,2.2,1,2.2,2.3
	V113.5z"/>
<path class="st0" d="M173.7,70.8c0,1.2-1,2.3-2.3,2.3h-63c-1.2,0-2.3-1-2.3-2.3V39.3c0-1.2,1-2.3,2.3-2.3h63c1.2,0,2.3,1,2.3,2.3
	V70.8z"/>
<path class="st0" d="M173.7,754.8c0,1.2-1,2.3-2.3,2.3h-63c-1.2,0-2.3-1-2.3-2.3v-31.5c0-1.2,1-2.3,2.3-2.3h63c1.2,0,2.3,1,2.3,2.3
	V754.8z"/>
<path class="st0" d="M173.7,712c0,1.2-1,2.3-2.3,2.3h-63c-1.2,0-2.3-1-2.3-2.3v-31.5c0-1.2,1-2.3,2.3-2.3h63c1.2,0,2.3,1,2.3,2.3
	V712z"/>
<path class="st0" d="M173.7,669.3c0,1.2-1,2.3-2.3,2.3h-63c-1.2,0-2.3-1-2.3-2.3v-31.5c0-1.2,1-2.3,2.3-2.3h63c1.2,0,2.3,1,2.3,2.3
	V669.3z"/>
<path class="st0" d="M173.7,626.5c0,1.2-1,2.3-2.3,2.3h-63c-1.2,0-2.3-1-2.3-2.3V595c0-1.2,1-2.3,2.3-2.3h63c1.2,0,2.3,1,2.3,2.3
	V626.5z"/>
<path class="st0" d="M173.7,583.8c0,1.2-1,2.3-2.3,2.3h-63c-1.2,0-2.3-1-2.3-2.3v-31.5c0-1.2,1-2.3,2.3-2.3h63c1.2,0,2.3,1,2.3,2.3
	V583.8z"/>
<path class="st0" d="M173.7,541c0,1.2-1,2.3-2.3,2.3h-63c-1.2,0-2.3-1-2.3-2.3v-31.5c0-1.2,1-2.3,2.3-2.3h63c1.2,0,2.3,1,2.3,2.3
	V541z"/>
<path class="st0" d="M173.7,498.3c0,1.2-1,2.3-2.3,2.3h-63c-1.2,0-2.3-1-2.3-2.3v-31.5c0-1.2,1-2.3,2.3-2.3h63c1.2,0,2.3,1,2.3,2.3
	V498.3z"/>
<path class="st0" d="M173.7,455.5c0,1.2-1,2.3-2.3,2.3h-63c-1.2,0-2.3-1-2.3-2.3V424c0-1.2,1-2.3,2.3-2.3h63c1.2,0,2.3,1,2.3,2.3
	V455.5z"/>
<path class="st0" d="M173.7,412.8c0,1.2-1,2.3-2.3,2.3h-63c-1.2,0-2.3-1-2.3-2.3v-31.5c0-1.2,1-2.3,2.3-2.3h63c1.2,0,2.3,1,2.3,2.3
	V412.8z"/>
<path class="st0" d="M173.7,370c0,1.2-1,2.3-2.3,2.3h-63c-1.2,0-2.3-1-2.3-2.3v-31.5c0-1.2,1-2.3,2.3-2.3h63c1.2,0,2.3,1,2.3,2.3
	V370z"/>
<path class="st0" d="M173.7,327.3c0,1.2-1,2.3-2.3,2.3h-63c-1.2,0-2.3-1-2.3-2.3v-31.5c0-1.2,1-2.3,2.3-2.3h63c1.2,0,2.3,1,2.3,2.3
	V327.3z"/>
<path class="st0" d="M173.7,284.5c0,1.2-1,2.3-2.3,2.3h-63c-1.2,0-2.3-1-2.3-2.3V253c0-1.2,1-2.3,2.3-2.3h63c1.2,0,2.3,1,2.3,2.3
	V284.5z"/>
<path class="st0" d="M173.7,241.8c0,1.2-1,2.3-2.3,2.3h-63c-1.2,0-2.3-1-2.3-2.3v-31.5c0-1.2,1-2.3,2.3-2.3h63c1.2,0,2.3,1,2.3,2.3
	V241.8z"/>
<path class="st0" d="M173.7,199c0,1.2-1,2.3-2.3,2.3h-63c-1.2,0-2.3-1-2.3-2.3v-31.5c0-1.2,1-2.3,2.3-2.3h63c1.2,0,2.3,1,2.3,2.3
	V199z"/>
<path class="st0" d="M173.7,156.3c0,1.2-1,2.3-2.3,2.3h-63c-1.2,0-2.3-1-2.3-2.3v-31.5c0-1.2,1-2.3,2.3-2.3h63c1.2,0,2.3,1,2.3,2.3
	V156.3z"/>
<path class="st0" d="M173.7,113.5c0,1.2-1,2.3-2.3,2.3h-63c-1.2,0-2.3-1-2.3-2.3V82c0-1.2,1-2.3,2.3-2.3h63c1.2,0,2.3,1,2.3,2.3
	V113.5z"/>
<rect class="st0" width="612" height="792"/>
</svg>
