<?xml version="1.0" encoding="utf-8"?>
<!-- Generator: Adobe Illustrator 20.1.0, SVG Export Plug-In . SVG Version: 6.00 Build 0)  -->
<svg version="1.1" id="Layer_3" xmlns="http://www.w3.org/2000/svg" xmlns:xlink="http://www.w3.org/1999/xlink" x="0px" y="0px"
	 viewBox="0 0 612 792" style="enable-background:new 0 0 612 792;" xml:space="preserve">
<style type="text/css">
	.st0{fill:none;stroke:#000000;stroke-width:2;}
</style>
<g>
	<rect class="st0" width="612" height="792"/>
	<g>
		<g>
			<g>
				<rect x="24" y="24" class="st0" width="48.5" height="24"/>
				<rect x="539.5" y="24" class="st0" width="48.5" height="24"/>
				<rect x="482.3" y="24" class="st0" width="48.5" height="24"/>
				<rect x="425" y="24" class="st0" width="48.5" height="24"/>
				<rect x="367.7" y="24" class="st0" width="48.5" height="24"/>
				<rect x="310.4" y="24" class="st0" width="48.5" height="24"/>
				<rect x="253.1" y="24" class="st0" width="48.5" height="24"/>
				<rect x="195.8" y="24" class="st0" width="48.5" height="24"/>
				<rect x="81.3" y="24" class="st0" width="48.5" height="24"/>
				<rect x="138.5" y="24" class="st0" width="48.5" height="24"/>
			</g>
			<g>
				<rect x="24" y="59.7" class="st0" width="48.5" height="24"/>
				<rect x="539.5" y="59.7" class="st0" width="48.5" height="24"/>
				<rect x="482.3" y="59.7" class="st0" width="48.5" height="24"/>
				<rect x="425" y="59.7" class="st0" width="48.5" height="24"/>
				<rect x="367.7" y="59.7" class="st0" width="48.5" height="24"/>
				<rect x="310.4" y="59.7" class="st0" width="48.5" height="24"/>
				<rect x="253.1" y="59.7" class="st0" width="48.5" height="24"/>
				<rect x="195.8" y="59.7" class="st0" width="48.5" height="24"/>
				<rect x="81.3" y="59.7" class="st0" width="48.5" height="24"/>
				<rect x="138.5" y="59.7" class="st0" width="48.5" height="24"/>
			</g>
			<g>
				<rect x="24" y="95.5" class="st0" width="48.5" height="24"/>
				<rect x="539.5" y="95.5" class="st0" width="48.5" height="24"/>
				<rect x="482.3" y="95.5" class="st0" width="48.5" height="24"/>
				<rect x="425" y="95.5" class="st0" width="48.5" height="24"/>
				<rect x="367.7" y="95.5" class="st0" width="48.5" height="24"/>
				<rect x="310.4" y="95.5" class="st0" width="48.5" height="24"/>
				<rect x="253.1" y="95.5" class="st0" width="48.5" height="24"/>
				<rect x="195.8" y="95.5" class="st0" width="48.5" height="24"/>
				<rect x="81.3" y="95.5" class="st0" width="48.5" height="24"/>
				<rect x="138.5" y="95.5" class="st0" width="48.5" height="24"/>
			</g>
			<g>
				<rect x="24" y="131.2" class="st0" width="48.5" height="24"/>
				<rect x="539.5" y="131.2" class="st0" width="48.5" height="24"/>
				<rect x="482.3" y="131.2" class="st0" width="48.5" height="24"/>
				<rect x="425" y="131.2" class="st0" width="48.5" height="24"/>
				<rect x="367.7" y="131.2" class="st0" width="48.5" height="24"/>
				<rect x="310.4" y="131.2" class="st0" width="48.5" height="24"/>
				<rect x="253.1" y="131.2" class="st0" width="48.5" height="24"/>
				<rect x="195.8" y="131.2" class="st0" width="48.5" height="24"/>
				<rect x="81.3" y="131.2" class="st0" width="48.5" height="24"/>
				<rect x="138.5" y="131.2" class="st0" width="48.5" height="24"/>
			</g>
			<g>
				<rect x="24" y="166.9" class="st0" width="48.5" height="24"/>
				<rect x="539.5" y="166.9" class="st0" width="48.5" height="24"/>
				<rect x="482.3" y="166.9" class="st0" width="48.5" height="24"/>
				<rect x="425" y="166.9" class="st0" width="48.5" height="24"/>
				<rect x="367.7" y="166.9" class="st0" width="48.5" height="24"/>
				<rect x="310.4" y="166.9" class="st0" width="48.5" height="24"/>
				<rect x="253.1" y="166.9" class="st0" width="48.5" height="24"/>
				<rect x="195.8" y="166.9" class="st0" width="48.5" height="24"/>
				<rect x="81.3" y="166.9" class="st0" width="48.5" height="24"/>
				<rect x="138.5" y="166.9" class="st0" width="48.5" height="24"/>
			</g>
			<g>
				<rect x="24" y="202.7" class="st0" width="48.5" height="24"/>
				<rect x="539.5" y="202.7" class="st0" width="48.5" height="24"/>
				<rect x="482.3" y="202.7" class="st0" width="48.5" height="24"/>
				<rect x="425" y="202.7" class="st0" width="48.5" height="24"/>
				<rect x="367.7" y="202.7" class="st0" width="48.5" height="24"/>
				<rect x="310.4" y="202.7" class="st0" width="48.5" height="24"/>
				<rect x="253.1" y="202.7" class="st0" width="48.5" height="24"/>
				<rect x="195.8" y="202.7" class="st0" width="48.5" height="24"/>
				<rect x="81.3" y="202.7" class="st0" width="48.5" height="24"/>
				<rect x="138.5" y="202.7" class="st0" width="48.5" height="24"/>
			</g>
			<g>
				<rect x="24" y="238.4" class="st0" width="48.5" height="24"/>
				<rect x="539.5" y="238.4" class="st0" width="48.5" height="24"/>
				<rect x="482.3" y="238.4" class="st0" width="48.5" height="24"/>
				<rect x="425" y="238.4" class="st0" width="48.5" height="24"/>
				<rect x="367.7" y="238.4" class="st0" width="48.5" height="24"/>
				<rect x="310.4" y="238.4" class="st0" width="48.5" height="24"/>
				<rect x="253.1" y="238.4" class="st0" width="48.5" height="24"/>
				<rect x="195.8" y="238.4" class="st0" width="48.5" height="24"/>
				<rect x="81.3" y="238.4" class="st0" width="48.5" height="24"/>
				<rect x="138.5" y="238.4" class="st0" width="48.5" height="24"/>
			</g>
			<g>
				<rect x="24" y="274.2" class="st0" width="48.5" height="24"/>
				<rect x="539.5" y="274.2" class="st0" width="48.5" height="24"/>
				<rect x="482.3" y="274.2" class="st0" width="48.5" height="24"/>
				<rect x="425" y="274.2" class="st0" width="48.5" height="24"/>
				<rect x="367.7" y="274.2" class="st0" width="48.5" height="24"/>
				<rect x="310.4" y="274.2" class="st0" width="48.5" height="24"/>
				<rect x="253.1" y="274.2" class="st0" width="48.5" height="24"/>
				<rect x="195.8" y="274.2" class="st0" width="48.5" height="24"/>
				<rect x="81.3" y="274.2" class="st0" width="48.5" height="24"/>
				<rect x="138.5" y="274.2" class="st0" width="48.5" height="24"/>
			</g>
			<g>
				<rect x="24" y="309.9" class="st0" width="48.5" height="24"/>
				<rect x="539.5" y="309.9" class="st0" width="48.5" height="24"/>
				<rect x="482.3" y="309.9" class="st0" width="48.5" height="24"/>
				<rect x="425" y="309.9" class="st0" width="48.5" height="24"/>
				<rect x="367.7" y="309.9" class="st0" width="48.5" height="24"/>
				<rect x="310.4" y="309.9" class="st0" width="48.5" height="24"/>
				<rect x="253.1" y="309.9" class="st0" width="48.5" height="24"/>
				<rect x="195.8" y="309.9" class="st0" width="48.5" height="24"/>
				<rect x="81.3" y="309.9" class="st0" width="48.5" height="24"/>
				<rect x="138.5" y="309.9" class="st0" width="48.5" height="24"/>
			</g>
		</g>
		<g>
			<rect x="24" y="367.5" class="st0" width="36" height="18"/>
			<rect x="72" y="367.5" class="st0" width="36" height="18"/>
			<rect x="120" y="367.5" class="st0" width="36" height="18"/>
			<rect x="168" y="367.5" class="st0" width="36" height="18"/>
			<rect x="216" y="367.5" class="st0" width="36" height="18"/>
			<rect x="264" y="367.5" class="st0" width="36" height="18"/>
			<rect x="312" y="367.5" class="st0" width="36" height="18"/>
			<rect x="360" y="367.5" class="st0" width="36" height="18"/>
			<rect x="408" y="367.5" class="st0" width="36" height="18"/>
			<rect x="456" y="367.5" class="st0" width="36" height="18"/>
			<rect x="504" y="367.5" class="st0" width="36" height="18"/>
			<rect x="552" y="367.5" class="st0" width="36" height="18"/>
		</g>
		<g>
			<rect x="24" y="394.9" class="st0" width="36" height="18"/>
			<rect x="72" y="394.9" class="st0" width="36" height="18"/>
			<rect x="120" y="394.9" class="st0" width="36" height="18"/>
			<rect x="168" y="394.9" class="st0" width="36" height="18"/>
			<rect x="216" y="394.9" class="st0" width="36" height="18"/>
			<rect x="264" y="394.9" class="st0" width="36" height="18"/>
			<rect x="312" y="394.9" class="st0" width="36" height="18"/>
			<rect x="360" y="394.9" class="st0" width="36" height="18"/>
			<rect x="408" y="394.9" class="st0" width="36" height="18"/>
			<rect x="456" y="394.9" class="st0" width="36" height="18"/>
			<rect x="504" y="394.9" class="st0" width="36" height="18"/>
			<rect x="552" y="394.9" class="st0" width="36" height="18"/>
		</g>
		<g>
			<rect x="24" y="422.2" class="st0" width="36" height="18"/>
			<rect x="72" y="422.2" class="st0" width="36" height="18"/>
			<rect x="120" y="422.2" class="st0" width="36" height="18"/>
			<rect x="168" y="422.2" class="st0" width="36" height="18"/>
			<rect x="216" y="422.2" class="st0" width="36" height="18"/>
			<rect x="264" y="422.2" class="st0" width="36" height="18"/>
			<rect x="312" y="422.2" class="st0" width="36" height="18"/>
			<rect x="360" y="422.2" class="st0" width="36" height="18"/>
			<rect x="408" y="422.2" class="st0" width="36" height="18"/>
			<rect x="456" y="422.2" class="st0" width="36" height="18"/>
			<rect x="504" y="422.2" class="st0" width="36" height="18"/>
			<rect x="552" y="422.2" class="st0" width="36" height="18"/>
		</g>
		<g>
			<rect x="24" y="449.5" class="st0" width="36" height="18"/>
			<rect x="72" y="449.5" class="st0" width="36" height="18"/>
			<rect x="120" y="449.5" class="st0" width="36" height="18"/>
			<rect x="168" y="449.5" class="st0" width="36" height="18"/>
			<rect x="216" y="449.5" class="st0" width="36" height="18"/>
			<rect x="264" y="449.5" class="st0" width="36" height="18"/>
			<rect x="312" y="449.5" class="st0" width="36" height="18"/>
			<rect x="360" y="449.5" class="st0" width="36" height="18"/>
			<rect x="408" y="449.5" class="st0" width="36" height="18"/>
			<rect x="456" y="449.5" class="st0" width="36" height="18"/>
			<rect x="504" y="449.5" class="st0" width="36" height="18"/>
			<rect x="552" y="449.5" class="st0" width="36" height="18"/>
		</g>
		<g>
			<rect x="24" y="476.8" class="st0" width="36" height="18"/>
			<rect x="72" y="476.8" class="st0" width="36" height="18"/>
			<rect x="120" y="476.8" class="st0" width="36" height="18"/>
			<rect x="168" y="476.8" class="st0" width="36" height="18"/>
			<rect x="216" y="476.8" class="st0" width="36" height="18"/>
			<rect x="264" y="476.8" class="st0" width="36" height="18"/>
			<rect x="312" y="476.8" class="st0" width="36" height="18"/>
			<rect x="360" y="476.8" class="st0" width="36" height="18"/>
			<rect x="408" y="476.8" class="st0" width="36" height="18"/>
			<rect x="456" y="476.8" class="st0" width="36" height="18"/>
			<rect x="504" y="476.8" class="st0" width="36" height="18"/>
			<rect x="552" y="476.8" class="st0" width="36" height="18"/>
		</g>
		<g>
			<rect x="24" y="504.1" class="st0" width="36" height="18"/>
			<rect x="72" y="504.1" class="st0" width="36" height="18"/>
			<rect x="120" y="504.1" class="st0" width="36" height="18"/>
			<rect x="168" y="504.1" class="st0" width="36" height="18"/>
			<rect x="216" y="504.1" class="st0" width="36" height="18"/>
			<rect x="264" y="504.1" class="st0" width="36" height="18"/>
			<rect x="312" y="504.1" class="st0" width="36" height="18"/>
			<rect x="360" y="504.1" class="st0" width="36" height="18"/>
			<rect x="408" y="504.1" class="st0" width="36" height="18"/>
			<rect x="456" y="504.1" class="st0" width="36" height="18"/>
			<rect x="504" y="504.1" class="st0" width="36" height="18"/>
			<rect x="552" y="504.1" class="st0" width="36" height="18"/>
		</g>
		<g>
			<rect x="24" y="531.5" class="st0" width="36" height="18"/>
			<rect x="72" y="531.5" class="st0" width="36" height="18"/>
			<rect x="120" y="531.5" class="st0" width="36" height="18"/>
			<rect x="168" y="531.5" class="st0" width="36" height="18"/>
			<rect x="216" y="531.5" class="st0" width="36" height="18"/>
			<rect x="264" y="531.5" class="st0" width="36" height="18"/>
			<rect x="312" y="531.5" class="st0" width="36" height="18"/>
			<rect x="360" y="531.5" class="st0" width="36" height="18"/>
			<rect x="408" y="531.5" class="st0" width="36" height="18"/>
			<rect x="456" y="531.5" class="st0" width="36" height="18"/>
			<rect x="504" y="531.5" class="st0" width="36" height="18"/>
			<rect x="552" y="531.5" class="st0" width="36" height="18"/>
		</g>
		<g>
			<rect x="24" y="586.1" class="st0" width="36" height="18"/>
			<rect x="72" y="586.1" class="st0" width="36" height="18"/>
			<rect x="120" y="586.1" class="st0" width="36" height="18"/>
			<rect x="168" y="586.1" class="st0" width="36" height="18"/>
			<rect x="216" y="586.1" class="st0" width="36" height="18"/>
			<rect x="264" y="586.1" class="st0" width="36" height="18"/>
			<rect x="312" y="586.1" class="st0" width="36" height="18"/>
			<rect x="360" y="586.1" class="st0" width="36" height="18"/>
			<rect x="408" y="586.1" class="st0" width="36" height="18"/>
			<rect x="456" y="586.1" class="st0" width="36" height="18"/>
			<rect x="504" y="586.1" class="st0" width="36" height="18"/>
			<rect x="552" y="586.1" class="st0" width="36" height="18"/>
		</g>
		<g>
			<rect x="24" y="613.4" class="st0" width="36" height="18"/>
			<rect x="72" y="613.4" class="st0" width="36" height="18"/>
			<rect x="120" y="613.4" class="st0" width="36" height="18"/>
			<rect x="168" y="613.4" class="st0" width="36" height="18"/>
			<rect x="216" y="613.4" class="st0" width="36" height="18"/>
			<rect x="264" y="613.4" class="st0" width="36" height="18"/>
			<rect x="312" y="613.4" class="st0" width="36" height="18"/>
			<rect x="360" y="613.4" class="st0" width="36" height="18"/>
			<rect x="408" y="613.4" class="st0" width="36" height="18"/>
			<rect x="456" y="613.4" class="st0" width="36" height="18"/>
			<rect x="504" y="613.4" class="st0" width="36" height="18"/>
			<rect x="552" y="613.4" class="st0" width="36" height="18"/>
		</g>
		<g>
			<rect x="24" y="640.7" class="st0" width="36" height="18"/>
			<rect x="72" y="640.7" class="st0" width="36" height="18"/>
			<rect x="120" y="640.7" class="st0" width="36" height="18"/>
			<rect x="168" y="640.7" class="st0" width="36" height="18"/>
			<rect x="216" y="640.7" class="st0" width="36" height="18"/>
			<rect x="264" y="640.7" class="st0" width="36" height="18"/>
			<rect x="312" y="640.7" class="st0" width="36" height="18"/>
			<rect x="360" y="640.7" class="st0" width="36" height="18"/>
			<rect x="408" y="640.7" class="st0" width="36" height="18"/>
			<rect x="456" y="640.7" class="st0" width="36" height="18"/>
			<rect x="504" y="640.7" class="st0" width="36" height="18"/>
			<rect x="552" y="640.7" class="st0" width="36" height="18"/>
		</g>
		<g>
			<rect x="24" y="668.1" class="st0" width="36" height="18"/>
			<rect x="72" y="668.1" class="st0" width="36" height="18"/>
			<rect x="120" y="668.1" class="st0" width="36" height="18"/>
			<rect x="168" y="668.1" class="st0" width="36" height="18"/>
			<rect x="216" y="668.1" class="st0" width="36" height="18"/>
			<rect x="264" y="668.1" class="st0" width="36" height="18"/>
			<rect x="312" y="668.1" class="st0" width="36" height="18"/>
			<rect x="360" y="668.1" class="st0" width="36" height="18"/>
			<rect x="408" y="668.1" class="st0" width="36" height="18"/>
			<rect x="456" y="668.1" class="st0" width="36" height="18"/>
			<rect x="504" y="668.1" class="st0" width="36" height="18"/>
			<rect x="552" y="668.1" class="st0" width="36" height="18"/>
		</g>
		<g>
			<rect x="24" y="695.4" class="st0" width="36" height="18"/>
			<rect x="72" y="695.4" class="st0" width="36" height="18"/>
			<rect x="120" y="695.4" class="st0" width="36" height="18"/>
			<rect x="168" y="695.4" class="st0" width="36" height="18"/>
			<rect x="216" y="695.4" class="st0" width="36" height="18"/>
			<rect x="264" y="695.4" class="st0" width="36" height="18"/>
			<rect x="312" y="695.4" class="st0" width="36" height="18"/>
			<rect x="360" y="695.4" class="st0" width="36" height="18"/>
			<rect x="408" y="695.4" class="st0" width="36" height="18"/>
			<rect x="456" y="695.4" class="st0" width="36" height="18"/>
			<rect x="504" y="695.4" class="st0" width="36" height="18"/>
			<rect x="552" y="695.4" class="st0" width="36" height="18"/>
		</g>
		<g>
			<rect x="24" y="722.7" class="st0" width="36" height="18"/>
			<rect x="72" y="722.7" class="st0" width="36" height="18"/>
			<rect x="120" y="722.7" class="st0" width="36" height="18"/>
			<rect x="168" y="722.7" class="st0" width="36" height="18"/>
			<rect x="216" y="722.7" class="st0" width="36" height="18"/>
			<rect x="264" y="722.7" class="st0" width="36" height="18"/>
			<rect x="312" y="722.7" class="st0" width="36" height="18"/>
			<rect x="360" y="722.7" class="st0" width="36" height="18"/>
			<rect x="408" y="722.7" class="st0" width="36" height="18"/>
			<rect x="456" y="722.7" class="st0" width="36" height="18"/>
			<rect x="504" y="722.7" class="st0" width="36" height="18"/>
			<rect x="552" y="722.7" class="st0" width="36" height="18"/>
		</g>
		<g>
			<rect x="24" y="558.8" class="st0" width="36" height="18"/>
			<rect x="72" y="558.8" class="st0" width="36" height="18"/>
			<rect x="120" y="558.8" class="st0" width="36" height="18"/>
			<rect x="168" y="558.8" class="st0" width="36" height="18"/>
			<rect x="216" y="558.8" class="st0" width="36" height="18"/>
			<rect x="264" y="558.8" class="st0" width="36" height="18"/>
			<rect x="312" y="558.8" class="st0" width="36" height="18"/>
			<rect x="360" y="558.8" class="st0" width="36" height="18"/>
			<rect x="408" y="558.8" class="st0" width="36" height="18"/>
			<rect x="456" y="558.8" class="st0" width="36" height="18"/>
			<rect x="504" y="558.8" class="st0" width="36" height="18"/>
			<rect x="552" y="558.8" class="st0" width="36" height="18"/>
		</g>
		<g>
			<rect x="24" y="750" class="st0" width="36" height="18"/>
			<rect x="72" y="750" class="st0" width="36" height="18"/>
			<rect x="120" y="750" class="st0" width="36" height="18"/>
			<rect x="168" y="750" class="st0" width="36" height="18"/>
			<rect x="216" y="750" class="st0" width="36" height="18"/>
			<rect x="264" y="750" class="st0" width="36" height="18"/>
			<rect x="312" y="750" class="st0" width="36" height="18"/>
			<rect x="360" y="750" class="st0" width="36" height="18"/>
			<rect x="408" y="750" class="st0" width="36" height="18"/>
			<rect x="456" y="750" class="st0" width="36" height="18"/>
			<rect x="504" y="750" class="st0" width="36" height="18"/>
			<rect x="552" y="750" class="st0" width="36" height="18"/>
		</g>
	</g>
</g>
</svg>
