<?xml version="1.0" encoding="utf-8"?>
<!-- Generator: Adobe Illustrator 20.1.0, SVG Export Plug-In . SVG Version: 6.00 Build 0)  -->
<svg version="1.1" id="Layer_1" xmlns="http://www.w3.org/2000/svg" xmlns:xlink="http://www.w3.org/1999/xlink" x="0px" y="0px"
	 viewBox="0 0 612 792" style="enable-background:new 0 0 612 792;" xml:space="preserve">
<style type="text/css">
	.st0{fill:none;stroke:#000000;stroke-width:2;}
	.st1{fill:none;stroke:#939598;stroke-width:2;}
	.st2{fill:none;stroke:#939598;stroke-width:2;stroke-dasharray:2,2;}
</style>
<rect x="18" y="36" class="st0" width="144" height="36"/>
<rect x="162" y="36" class="st0" width="144" height="36"/>
<rect x="306" y="36" class="st0" width="144" height="36"/>
<rect x="450" y="36" class="st0" width="144" height="36"/>
<g>
	<rect x="18" y="71.8" class="st0" width="144" height="36"/>
	<rect x="162" y="71.8" class="st0" width="144" height="36"/>
	<rect x="306" y="71.8" class="st0" width="144" height="36"/>
	<rect x="450" y="71.8" class="st0" width="144" height="36"/>
</g>
<g>
	<rect x="18" y="215.9" class="st0" width="144" height="36"/>
	<rect x="162" y="215.9" class="st0" width="144" height="36"/>
	<rect x="306" y="215.9" class="st0" width="144" height="36"/>
	<rect x="450" y="215.9" class="st0" width="144" height="36"/>
</g>
<g>
	<rect x="18" y="179.9" class="st0" width="144" height="36"/>
	<rect x="162" y="179.9" class="st0" width="144" height="36"/>
	<rect x="306" y="179.9" class="st0" width="144" height="36"/>
	<rect x="450" y="179.9" class="st0" width="144" height="36"/>
</g>
<g>
	<rect x="18" y="143.9" class="st0" width="144" height="36"/>
	<rect x="162" y="143.9" class="st0" width="144" height="36"/>
	<rect x="306" y="143.9" class="st0" width="144" height="36"/>
	<rect x="450" y="143.9" class="st0" width="144" height="36"/>
</g>
<g>
	<rect x="18" y="107.8" class="st0" width="144" height="36"/>
	<rect x="162" y="107.8" class="st0" width="144" height="36"/>
	<rect x="306" y="107.8" class="st0" width="144" height="36"/>
	<rect x="450" y="107.8" class="st0" width="144" height="36"/>
</g>
<g>
	<rect x="18" y="288.1" class="st0" width="144" height="36"/>
	<rect x="162" y="288.1" class="st0" width="144" height="36"/>
	<rect x="306" y="288.1" class="st0" width="144" height="36"/>
	<rect x="450" y="288.1" class="st0" width="144" height="36"/>
</g>
<g>
	<rect x="18" y="323.9" class="st0" width="144" height="36"/>
	<rect x="162" y="323.9" class="st0" width="144" height="36"/>
	<rect x="306" y="323.9" class="st0" width="144" height="36"/>
	<rect x="450" y="323.9" class="st0" width="144" height="36"/>
</g>
<g>
	<rect x="18" y="467.9" class="st0" width="144" height="36"/>
	<rect x="162" y="467.9" class="st0" width="144" height="36"/>
	<rect x="306" y="467.9" class="st0" width="144" height="36"/>
	<rect x="450" y="467.9" class="st0" width="144" height="36"/>
</g>
<g>
	<rect x="18" y="431.9" class="st0" width="144" height="36"/>
	<rect x="162" y="431.9" class="st0" width="144" height="36"/>
	<rect x="306" y="431.9" class="st0" width="144" height="36"/>
	<rect x="450" y="431.9" class="st0" width="144" height="36"/>
</g>
<g>
	<rect x="18" y="395.9" class="st0" width="144" height="36"/>
	<rect x="162" y="395.9" class="st0" width="144" height="36"/>
	<rect x="306" y="395.9" class="st0" width="144" height="36"/>
	<rect x="450" y="395.9" class="st0" width="144" height="36"/>
</g>
<g>
	<rect x="18" y="359.9" class="st0" width="144" height="36"/>
	<rect x="162" y="359.9" class="st0" width="144" height="36"/>
	<rect x="306" y="359.9" class="st0" width="144" height="36"/>
	<rect x="450" y="359.9" class="st0" width="144" height="36"/>
</g>
<g>
	<rect x="18" y="540.1" class="st0" width="144" height="36"/>
	<rect x="162" y="540.1" class="st0" width="144" height="36"/>
	<rect x="306" y="540.1" class="st0" width="144" height="36"/>
	<rect x="450" y="540.1" class="st0" width="144" height="36"/>
</g>
<g>
	<rect x="18" y="576" class="st0" width="144" height="36"/>
	<rect x="162" y="576" class="st0" width="144" height="36"/>
	<rect x="306" y="576" class="st0" width="144" height="36"/>
	<rect x="450" y="576" class="st0" width="144" height="36"/>
</g>
<g>
	<rect x="18" y="720" class="st0" width="144" height="36"/>
	<rect x="162" y="720" class="st0" width="144" height="36"/>
	<rect x="306" y="720" class="st0" width="144" height="36"/>
	<rect x="450" y="720" class="st0" width="144" height="36"/>
</g>
<g>
	<rect x="18" y="684" class="st0" width="144" height="36"/>
	<rect x="162" y="684" class="st0" width="144" height="36"/>
	<rect x="306" y="684" class="st0" width="144" height="36"/>
	<rect x="450" y="684" class="st0" width="144" height="36"/>
</g>
<g>
	<rect x="18" y="648" class="st0" width="144" height="36"/>
	<rect x="162" y="648" class="st0" width="144" height="36"/>
	<rect x="306" y="648" class="st0" width="144" height="36"/>
	<rect x="450" y="648" class="st0" width="144" height="36"/>
</g>
<g>
	<rect x="18" y="612" class="st0" width="144" height="36"/>
	<rect x="162" y="612" class="st0" width="144" height="36"/>
	<rect x="306" y="612" class="st0" width="144" height="36"/>
	<rect x="450" y="612" class="st0" width="144" height="36"/>
</g>
<g>
	<g>
		<line class="st1" x1="612" y1="271" x2="611" y2="271"/>
		<line class="st2" x1="609" y1="271" x2="2" y2="271"/>
		<line class="st1" x1="1" y1="271" x2="0" y2="271"/>
	</g>
</g>
<g>
	<g>
		<line class="st1" x1="612" y1="522.2" x2="611" y2="522.2"/>
		<line class="st2" x1="609" y1="522.2" x2="2" y2="522.2"/>
		<line class="st1" x1="1" y1="522.2" x2="0" y2="522.2"/>
	</g>
</g>
<rect x="0" class="st0" width="612" height="792"/>
</svg>
