<?xml version="1.0" encoding="utf-8"?>
<!-- Generator: Adobe Illustrator 20.1.0, SVG Export Plug-In . SVG Version: 6.00 Build 0)  -->
<svg version="1.1" id="Layer_1" xmlns="http://www.w3.org/2000/svg" xmlns:xlink="http://www.w3.org/1999/xlink" x="0px" y="0px"
	 viewBox="0 0 612 792" style="enable-background:new 0 0 612 792;" xml:space="preserve">
<style type="text/css">
	.st0{fill:none;stroke:#000000;stroke-width:2;}
	.st1{fill:none;stroke:#939598;stroke-width:2;}
	.st2{fill:none;stroke:#939598;stroke-width:2;stroke-dasharray:2,2;}
</style>
<rect x="109.3" y="688.8" class="st0" width="71.5" height="71.5"/>
<rect x="199.3" y="688.8" class="st0" width="71.5" height="71.5"/>
<rect x="289.3" y="688.8" class="st0" width="71.5" height="71.5"/>
<rect x="379.3" y="688.8" class="st0" width="71.5" height="71.5"/>
<rect x="469.3" y="688.8" class="st0" width="71.5" height="71.5"/>
<rect x="109.3" y="31.8" class="st0" width="71.5" height="71.5"/>
<rect x="199.3" y="31.8" class="st0" width="71.5" height="71.5"/>
<rect x="289.3" y="31.8" class="st0" width="71.5" height="71.5"/>
<rect x="379.3" y="31.8" class="st0" width="71.5" height="71.5"/>
<rect x="469.3" y="31.8" class="st0" width="71.5" height="71.5"/>
<rect x="109.3" y="112.8" class="st0" width="71.5" height="71.5"/>
<rect x="199.3" y="112.8" class="st0" width="71.5" height="71.5"/>
<rect x="289.3" y="112.8" class="st0" width="71.5" height="71.5"/>
<rect x="379.3" y="112.8" class="st0" width="71.5" height="71.5"/>
<rect x="469.3" y="112.8" class="st0" width="71.5" height="71.5"/>
<rect x="109.3" y="427.8" class="st0" width="71.5" height="71.5"/>
<rect x="199.3" y="427.8" class="st0" width="71.5" height="71.5"/>
<rect x="289.3" y="427.8" class="st0" width="71.5" height="71.5"/>
<rect x="379.3" y="427.8" class="st0" width="71.5" height="71.5"/>
<rect x="469.3" y="427.8" class="st0" width="71.5" height="71.5"/>
<rect x="109.3" y="508.8" class="st0" width="71.5" height="71.5"/>
<rect x="199.3" y="508.8" class="st0" width="71.5" height="71.5"/>
<rect x="289.3" y="508.8" class="st0" width="71.5" height="71.5"/>
<rect x="379.3" y="508.8" class="st0" width="71.5" height="71.5"/>
<rect x="469.3" y="508.8" class="st0" width="71.5" height="71.5"/>
<rect x="109.3" y="211.8" class="st0" width="71.5" height="71.5"/>
<rect x="199.3" y="211.8" class="st0" width="71.5" height="71.5"/>
<rect x="289.3" y="211.8" class="st0" width="71.5" height="71.5"/>
<rect x="379.3" y="211.8" class="st0" width="71.5" height="71.5"/>
<rect x="469.3" y="211.8" class="st0" width="71.5" height="71.5"/>
<rect x="109.3" y="292.8" class="st0" width="71.5" height="71.5"/>
<rect x="199.3" y="292.8" class="st0" width="71.5" height="71.5"/>
<rect x="289.3" y="292.8" class="st0" width="71.5" height="71.5"/>
<rect x="379.3" y="292.8" class="st0" width="71.5" height="71.5"/>
<rect x="469.3" y="292.8" class="st0" width="71.5" height="71.5"/>
<rect x="109.3" y="607.8" class="st0" width="71.5" height="71.5"/>
<rect x="199.3" y="607.8" class="st0" width="71.5" height="71.5"/>
<rect x="289.3" y="607.8" class="st0" width="71.5" height="71.5"/>
<rect x="379.3" y="607.8" class="st0" width="71.5" height="71.5"/>
<rect x="469.3" y="607.8" class="st0" width="71.5" height="71.5"/>
<g>
	<g>
		<line class="st1" x1="82.1" y1="791.6" x2="82.1" y2="790.6"/>
		<line class="st2" x1="82.1" y1="788.6" x2="82.1" y2="1.6"/>
		<line class="st1" x1="82.1" y1="0.6" x2="82.1" y2="-0.4"/>
	</g>
</g>
<rect class="st0" width="612" height="792"/>
</svg>
