<?xml version="1.0" encoding="utf-8"?>
<!-- Generator: Adobe Illustrator 20.1.0, SVG Export Plug-In . SVG Version: 6.00 Build 0)  -->
<svg version="1.1" id="Layer_1" xmlns="http://www.w3.org/2000/svg" xmlns:xlink="http://www.w3.org/1999/xlink" x="0px" y="0px"
	 viewBox="0 0 612 792" style="enable-background:new 0 0 612 792;" xml:space="preserve">
<style type="text/css">
	.st0{fill:none;stroke:#000000;stroke-width:2;}
</style>
<g>
	<rect class="st0" width="612" height="792"/>
</g>
<g>
	<path class="st0" d="M104.3,28.4c0,2.5-2,4.5-4.5,4.5H32.5c-2.5,0-4.5-2-4.5-4.5V23c0-2.5,2-4.5,4.5-4.5h67.3c2.5,0,4.5,2,4.5,4.5
		V28.4z"/>
	<path class="st0" d="M586,28.4c0,2.5-2,4.5-4.5,4.5h-67.3c-2.5,0-4.5-2-4.5-4.5V23c0-2.5,2-4.5,4.5-4.5h67.3c2.5,0,4.5,2,4.5,4.5
		V28.4z"/>
	<path class="st0" d="M489.6,28.4c0,2.5-2,4.5-4.5,4.5h-67.3c-2.5,0-4.5-2-4.5-4.5V23c0-2.5,2-4.5,4.5-4.5h67.3c2.5,0,4.5,2,4.5,4.5
		L489.6,28.4L489.6,28.4z"/>
	<path class="st0" d="M393.3,28.4c0,2.5-2,4.5-4.5,4.5h-67.3c-2.5,0-4.5-2-4.5-4.5V23c0-2.5,2-4.5,4.5-4.5h67.3c2.5,0,4.5,2,4.5,4.5
		V28.4z"/>
	<path class="st0" d="M297,28.4c0,2.5-2,4.5-4.5,4.5h-67.3c-2.5,0-4.5-2-4.5-4.5V23c0-2.5,2-4.5,4.5-4.5h67.3c2.5,0,4.5,2,4.5,4.5
		V28.4z"/>
	<path class="st0" d="M200.6,28.4c0,2.5-2,4.5-4.5,4.5h-67.3c-2.5,0-4.5-2-4.5-4.5V23c0-2.5,2-4.5,4.5-4.5h67.3c2.5,0,4.5,2,4.5,4.5
		V28.4z"/>
</g>
<g>
	<path class="st0" d="M104.3,770c0,2.5-2,4.5-4.5,4.5H32.5c-2.5,0-4.5-2-4.5-4.5v-5.4c0-2.5,2-4.5,4.5-4.5h67.3c2.5,0,4.5,2,4.5,4.5
		V770z"/>
	<path class="st0" d="M586,770c0,2.5-2,4.5-4.5,4.5h-67.3c-2.5,0-4.5-2-4.5-4.5v-5.4c0-2.5,2-4.5,4.5-4.5h67.3c2.5,0,4.5,2,4.5,4.5
		V770z"/>
	<path class="st0" d="M489.6,770c0,2.5-2,4.5-4.5,4.5h-67.3c-2.5,0-4.5-2-4.5-4.5v-5.4c0-2.5,2-4.5,4.5-4.5h67.3
		c2.5,0,4.5,2,4.5,4.5L489.6,770L489.6,770z"/>
	<path class="st0" d="M393.3,770c0,2.5-2,4.5-4.5,4.5h-67.3c-2.5,0-4.5-2-4.5-4.5v-5.4c0-2.5,2-4.5,4.5-4.5h67.3
		c2.5,0,4.5,2,4.5,4.5V770z"/>
	<path class="st0" d="M297,770c0,2.5-2,4.5-4.5,4.5h-67.3c-2.5,0-4.5-2-4.5-4.5v-5.4c0-2.5,2-4.5,4.5-4.5h67.3c2.5,0,4.5,2,4.5,4.5
		V770z"/>
	<path class="st0" d="M200.6,770c0,2.5-2,4.5-4.5,4.5h-67.3c-2.5,0-4.5-2-4.5-4.5v-5.4c0-2.5,2-4.5,4.5-4.5h67.3
		c2.5,0,4.5,2,4.5,4.5V770z"/>
</g>
<g>
	<path class="st0" d="M104.3,52.3c0,2.5-2,4.5-4.5,4.5H32.5c-2.5,0-4.5-2-4.5-4.5v-5.4c0-2.5,2-4.5,4.5-4.5h67.3
		c2.5,0,4.5,2,4.5,4.5V52.3z"/>
	<path class="st0" d="M586,52.3c0,2.5-2,4.5-4.5,4.5h-67.3c-2.5,0-4.5-2-4.5-4.5v-5.4c0-2.5,2-4.5,4.5-4.5h67.3c2.5,0,4.5,2,4.5,4.5
		V52.3z"/>
	<path class="st0" d="M489.6,52.3c0,2.5-2,4.5-4.5,4.5h-67.3c-2.5,0-4.5-2-4.5-4.5v-5.4c0-2.5,2-4.5,4.5-4.5h67.3
		c2.5,0,4.5,2,4.5,4.5L489.6,52.3L489.6,52.3z"/>
	<path class="st0" d="M393.3,52.3c0,2.5-2,4.5-4.5,4.5h-67.3c-2.5,0-4.5-2-4.5-4.5v-5.4c0-2.5,2-4.5,4.5-4.5h67.3
		c2.5,0,4.5,2,4.5,4.5V52.3z"/>
	<path class="st0" d="M297,52.3c0,2.5-2,4.5-4.5,4.5h-67.3c-2.5,0-4.5-2-4.5-4.5v-5.4c0-2.5,2-4.5,4.5-4.5h67.3c2.5,0,4.5,2,4.5,4.5
		V52.3z"/>
	<path class="st0" d="M200.6,52.3c0,2.5-2,4.5-4.5,4.5h-67.3c-2.5,0-4.5-2-4.5-4.5v-5.4c0-2.5,2-4.5,4.5-4.5h67.3
		c2.5,0,4.5,2,4.5,4.5V52.3z"/>
</g>
<g>
	<path class="st0" d="M104.3,76.2c0,2.5-2,4.5-4.5,4.5H32.5c-2.5,0-4.5-2-4.5-4.5v-5.4c0-2.5,2-4.5,4.5-4.5h67.3
		c2.5,0,4.5,2,4.5,4.5V76.2z"/>
	<path class="st0" d="M586,76.2c0,2.5-2,4.5-4.5,4.5h-67.3c-2.5,0-4.5-2-4.5-4.5v-5.4c0-2.5,2-4.5,4.5-4.5h67.3c2.5,0,4.5,2,4.5,4.5
		V76.2z"/>
	<path class="st0" d="M489.6,76.2c0,2.5-2,4.5-4.5,4.5h-67.3c-2.5,0-4.5-2-4.5-4.5v-5.4c0-2.5,2-4.5,4.5-4.5h67.3
		c2.5,0,4.5,2,4.5,4.5L489.6,76.2L489.6,76.2z"/>
	<path class="st0" d="M393.3,76.2c0,2.5-2,4.5-4.5,4.5h-67.3c-2.5,0-4.5-2-4.5-4.5v-5.4c0-2.5,2-4.5,4.5-4.5h67.3
		c2.5,0,4.5,2,4.5,4.5V76.2z"/>
	<path class="st0" d="M297,76.2c0,2.5-2,4.5-4.5,4.5h-67.3c-2.5,0-4.5-2-4.5-4.5v-5.4c0-2.5,2-4.5,4.5-4.5h67.3c2.5,0,4.5,2,4.5,4.5
		V76.2z"/>
	<path class="st0" d="M200.6,76.2c0,2.5-2,4.5-4.5,4.5h-67.3c-2.5,0-4.5-2-4.5-4.5v-5.4c0-2.5,2-4.5,4.5-4.5h67.3
		c2.5,0,4.5,2,4.5,4.5V76.2z"/>
</g>
<g>
	<path class="st0" d="M104.3,100.2c0,2.5-2,4.5-4.5,4.5H32.5c-2.5,0-4.5-2-4.5-4.5v-5.4c0-2.5,2-4.5,4.5-4.5h67.3
		c2.5,0,4.5,2,4.5,4.5V100.2z"/>
	<path class="st0" d="M586,100.2c0,2.5-2,4.5-4.5,4.5h-67.3c-2.5,0-4.5-2-4.5-4.5v-5.4c0-2.5,2-4.5,4.5-4.5h67.3
		c2.5,0,4.5,2,4.5,4.5V100.2z"/>
	<path class="st0" d="M489.6,100.2c0,2.5-2,4.5-4.5,4.5h-67.3c-2.5,0-4.5-2-4.5-4.5v-5.4c0-2.5,2-4.5,4.5-4.5h67.3
		c2.5,0,4.5,2,4.5,4.5L489.6,100.2L489.6,100.2z"/>
	<path class="st0" d="M393.3,100.2c0,2.5-2,4.5-4.5,4.5h-67.3c-2.5,0-4.5-2-4.5-4.5v-5.4c0-2.5,2-4.5,4.5-4.5h67.3
		c2.5,0,4.5,2,4.5,4.5V100.2z"/>
	<path class="st0" d="M297,100.2c0,2.5-2,4.5-4.5,4.5h-67.3c-2.5,0-4.5-2-4.5-4.5v-5.4c0-2.5,2-4.5,4.5-4.5h67.3
		c2.5,0,4.5,2,4.5,4.5V100.2z"/>
	<path class="st0" d="M200.6,100.2c0,2.5-2,4.5-4.5,4.5h-67.3c-2.5,0-4.5-2-4.5-4.5v-5.4c0-2.5,2-4.5,4.5-4.5h67.3
		c2.5,0,4.5,2,4.5,4.5V100.2z"/>
</g>
<g>
	<path class="st0" d="M104.3,124.1c0,2.5-2,4.5-4.5,4.5H32.5c-2.5,0-4.5-2-4.5-4.5v-5.4c0-2.5,2-4.5,4.5-4.5h67.3
		c2.5,0,4.5,2,4.5,4.5V124.1z"/>
	<path class="st0" d="M586,124.1c0,2.5-2,4.5-4.5,4.5h-67.3c-2.5,0-4.5-2-4.5-4.5v-5.4c0-2.5,2-4.5,4.5-4.5h67.3
		c2.5,0,4.5,2,4.5,4.5V124.1z"/>
	<path class="st0" d="M489.6,124.1c0,2.5-2,4.5-4.5,4.5h-67.3c-2.5,0-4.5-2-4.5-4.5v-5.4c0-2.5,2-4.5,4.5-4.5h67.3
		c2.5,0,4.5,2,4.5,4.5L489.6,124.1L489.6,124.1z"/>
	<path class="st0" d="M393.3,124.1c0,2.5-2,4.5-4.5,4.5h-67.3c-2.5,0-4.5-2-4.5-4.5v-5.4c0-2.5,2-4.5,4.5-4.5h67.3
		c2.5,0,4.5,2,4.5,4.5V124.1z"/>
	<path class="st0" d="M297,124.1c0,2.5-2,4.5-4.5,4.5h-67.3c-2.5,0-4.5-2-4.5-4.5v-5.4c0-2.5,2-4.5,4.5-4.5h67.3
		c2.5,0,4.5,2,4.5,4.5V124.1z"/>
	<path class="st0" d="M200.6,124.1c0,2.5-2,4.5-4.5,4.5h-67.3c-2.5,0-4.5-2-4.5-4.5v-5.4c0-2.5,2-4.5,4.5-4.5h67.3
		c2.5,0,4.5,2,4.5,4.5V124.1z"/>
</g>
<g>
	<path class="st0" d="M104.3,148c0,2.5-2,4.5-4.5,4.5H32.5c-2.5,0-4.5-2-4.5-4.5v-5.4c0-2.5,2-4.5,4.5-4.5h67.3c2.5,0,4.5,2,4.5,4.5
		V148z"/>
	<path class="st0" d="M586,148c0,2.5-2,4.5-4.5,4.5h-67.3c-2.5,0-4.5-2-4.5-4.5v-5.4c0-2.5,2-4.5,4.5-4.5h67.3c2.5,0,4.5,2,4.5,4.5
		V148z"/>
	<path class="st0" d="M489.6,148c0,2.5-2,4.5-4.5,4.5h-67.3c-2.5,0-4.5-2-4.5-4.5v-5.4c0-2.5,2-4.5,4.5-4.5h67.3
		c2.5,0,4.5,2,4.5,4.5L489.6,148L489.6,148z"/>
	<path class="st0" d="M393.3,148c0,2.5-2,4.5-4.5,4.5h-67.3c-2.5,0-4.5-2-4.5-4.5v-5.4c0-2.5,2-4.5,4.5-4.5h67.3
		c2.5,0,4.5,2,4.5,4.5V148z"/>
	<path class="st0" d="M297,148c0,2.5-2,4.5-4.5,4.5h-67.3c-2.5,0-4.5-2-4.5-4.5v-5.4c0-2.5,2-4.5,4.5-4.5h67.3c2.5,0,4.5,2,4.5,4.5
		V148z"/>
	<path class="st0" d="M200.6,148c0,2.5-2,4.5-4.5,4.5h-67.3c-2.5,0-4.5-2-4.5-4.5v-5.4c0-2.5,2-4.5,4.5-4.5h67.3
		c2.5,0,4.5,2,4.5,4.5V148z"/>
</g>
<g>
	<path class="st0" d="M104.3,171.9c0,2.5-2,4.5-4.5,4.5H32.5c-2.5,0-4.5-2-4.5-4.5v-5.4c0-2.5,2-4.5,4.5-4.5h67.3
		c2.5,0,4.5,2,4.5,4.5V171.9z"/>
	<path class="st0" d="M586,171.9c0,2.5-2,4.5-4.5,4.5h-67.3c-2.5,0-4.5-2-4.5-4.5v-5.4c0-2.5,2-4.5,4.5-4.5h67.3
		c2.5,0,4.5,2,4.5,4.5V171.9z"/>
	<path class="st0" d="M489.6,171.9c0,2.5-2,4.5-4.5,4.5h-67.3c-2.5,0-4.5-2-4.5-4.5v-5.4c0-2.5,2-4.5,4.5-4.5h67.3
		c2.5,0,4.5,2,4.5,4.5L489.6,171.9L489.6,171.9z"/>
	<path class="st0" d="M393.3,171.9c0,2.5-2,4.5-4.5,4.5h-67.3c-2.5,0-4.5-2-4.5-4.5v-5.4c0-2.5,2-4.5,4.5-4.5h67.3
		c2.5,0,4.5,2,4.5,4.5V171.9z"/>
	<path class="st0" d="M297,171.9c0,2.5-2,4.5-4.5,4.5h-67.3c-2.5,0-4.5-2-4.5-4.5v-5.4c0-2.5,2-4.5,4.5-4.5h67.3
		c2.5,0,4.5,2,4.5,4.5V171.9z"/>
	<path class="st0" d="M200.6,171.9c0,2.5-2,4.5-4.5,4.5h-67.3c-2.5,0-4.5-2-4.5-4.5v-5.4c0-2.5,2-4.5,4.5-4.5h67.3
		c2.5,0,4.5,2,4.5,4.5V171.9z"/>
</g>
<g>
	<path class="st0" d="M104.3,195.9c0,2.5-2,4.5-4.5,4.5H32.5c-2.5,0-4.5-2-4.5-4.5v-5.4c0-2.5,2-4.5,4.5-4.5h67.3
		c2.5,0,4.5,2,4.5,4.5V195.9z"/>
	<path class="st0" d="M586,195.9c0,2.5-2,4.5-4.5,4.5h-67.3c-2.5,0-4.5-2-4.5-4.5v-5.4c0-2.5,2-4.5,4.5-4.5h67.3
		c2.5,0,4.5,2,4.5,4.5V195.9z"/>
	<path class="st0" d="M489.6,195.9c0,2.5-2,4.5-4.5,4.5h-67.3c-2.5,0-4.5-2-4.5-4.5v-5.4c0-2.5,2-4.5,4.5-4.5h67.3
		c2.5,0,4.5,2,4.5,4.5L489.6,195.9L489.6,195.9z"/>
	<path class="st0" d="M393.3,195.9c0,2.5-2,4.5-4.5,4.5h-67.3c-2.5,0-4.5-2-4.5-4.5v-5.4c0-2.5,2-4.5,4.5-4.5h67.3
		c2.5,0,4.5,2,4.5,4.5V195.9z"/>
	<path class="st0" d="M297,195.9c0,2.5-2,4.5-4.5,4.5h-67.3c-2.5,0-4.5-2-4.5-4.5v-5.4c0-2.5,2-4.5,4.5-4.5h67.3
		c2.5,0,4.5,2,4.5,4.5V195.9z"/>
	<path class="st0" d="M200.6,195.9c0,2.5-2,4.5-4.5,4.5h-67.3c-2.5,0-4.5-2-4.5-4.5v-5.4c0-2.5,2-4.5,4.5-4.5h67.3
		c2.5,0,4.5,2,4.5,4.5V195.9z"/>
</g>
<g>
	<path class="st0" d="M104.3,219.8c0,2.5-2,4.5-4.5,4.5H32.5c-2.5,0-4.5-2-4.5-4.5v-5.4c0-2.5,2-4.5,4.5-4.5h67.3
		c2.5,0,4.5,2,4.5,4.5V219.8z"/>
	<path class="st0" d="M586,219.8c0,2.5-2,4.5-4.5,4.5h-67.3c-2.5,0-4.5-2-4.5-4.5v-5.4c0-2.5,2-4.5,4.5-4.5h67.3
		c2.5,0,4.5,2,4.5,4.5V219.8z"/>
	<path class="st0" d="M489.6,219.8c0,2.5-2,4.5-4.5,4.5h-67.3c-2.5,0-4.5-2-4.5-4.5v-5.4c0-2.5,2-4.5,4.5-4.5h67.3
		c2.5,0,4.5,2,4.5,4.5L489.6,219.8L489.6,219.8z"/>
	<path class="st0" d="M393.3,219.8c0,2.5-2,4.5-4.5,4.5h-67.3c-2.5,0-4.5-2-4.5-4.5v-5.4c0-2.5,2-4.5,4.5-4.5h67.3
		c2.5,0,4.5,2,4.5,4.5V219.8z"/>
	<path class="st0" d="M297,219.8c0,2.5-2,4.5-4.5,4.5h-67.3c-2.5,0-4.5-2-4.5-4.5v-5.4c0-2.5,2-4.5,4.5-4.5h67.3
		c2.5,0,4.5,2,4.5,4.5V219.8z"/>
	<path class="st0" d="M200.6,219.8c0,2.5-2,4.5-4.5,4.5h-67.3c-2.5,0-4.5-2-4.5-4.5v-5.4c0-2.5,2-4.5,4.5-4.5h67.3
		c2.5,0,4.5,2,4.5,4.5V219.8z"/>
</g>
<g>
	<path class="st0" d="M104.3,243.7c0,2.5-2,4.5-4.5,4.5H32.5c-2.5,0-4.5-2-4.5-4.5v-5.4c0-2.5,2-4.5,4.5-4.5h67.3
		c2.5,0,4.5,2,4.5,4.5V243.7z"/>
	<path class="st0" d="M586,243.7c0,2.5-2,4.5-4.5,4.5h-67.3c-2.5,0-4.5-2-4.5-4.5v-5.4c0-2.5,2-4.5,4.5-4.5h67.3
		c2.5,0,4.5,2,4.5,4.5V243.7z"/>
	<path class="st0" d="M489.6,243.7c0,2.5-2,4.5-4.5,4.5h-67.3c-2.5,0-4.5-2-4.5-4.5v-5.4c0-2.5,2-4.5,4.5-4.5h67.3
		c2.5,0,4.5,2,4.5,4.5L489.6,243.7L489.6,243.7z"/>
	<path class="st0" d="M393.3,243.7c0,2.5-2,4.5-4.5,4.5h-67.3c-2.5,0-4.5-2-4.5-4.5v-5.4c0-2.5,2-4.5,4.5-4.5h67.3
		c2.5,0,4.5,2,4.5,4.5V243.7z"/>
	<path class="st0" d="M297,243.7c0,2.5-2,4.5-4.5,4.5h-67.3c-2.5,0-4.5-2-4.5-4.5v-5.4c0-2.5,2-4.5,4.5-4.5h67.3
		c2.5,0,4.5,2,4.5,4.5V243.7z"/>
	<path class="st0" d="M200.6,243.7c0,2.5-2,4.5-4.5,4.5h-67.3c-2.5,0-4.5-2-4.5-4.5v-5.4c0-2.5,2-4.5,4.5-4.5h67.3
		c2.5,0,4.5,2,4.5,4.5V243.7z"/>
</g>
<g>
	<path class="st0" d="M104.3,267.6c0,2.5-2,4.5-4.5,4.5H32.5c-2.5,0-4.5-2-4.5-4.5v-5.4c0-2.5,2-4.5,4.5-4.5h67.3
		c2.5,0,4.5,2,4.5,4.5V267.6z"/>
	<path class="st0" d="M586,267.6c0,2.5-2,4.5-4.5,4.5h-67.3c-2.5,0-4.5-2-4.5-4.5v-5.4c0-2.5,2-4.5,4.5-4.5h67.3
		c2.5,0,4.5,2,4.5,4.5V267.6z"/>
	<path class="st0" d="M489.6,267.6c0,2.5-2,4.5-4.5,4.5h-67.3c-2.5,0-4.5-2-4.5-4.5v-5.4c0-2.5,2-4.5,4.5-4.5h67.3
		c2.5,0,4.5,2,4.5,4.5L489.6,267.6L489.6,267.6z"/>
	<path class="st0" d="M393.3,267.6c0,2.5-2,4.5-4.5,4.5h-67.3c-2.5,0-4.5-2-4.5-4.5v-5.4c0-2.5,2-4.5,4.5-4.5h67.3
		c2.5,0,4.5,2,4.5,4.5V267.6z"/>
	<path class="st0" d="M297,267.6c0,2.5-2,4.5-4.5,4.5h-67.3c-2.5,0-4.5-2-4.5-4.5v-5.4c0-2.5,2-4.5,4.5-4.5h67.3
		c2.5,0,4.5,2,4.5,4.5V267.6z"/>
	<path class="st0" d="M200.6,267.6c0,2.5-2,4.5-4.5,4.5h-67.3c-2.5,0-4.5-2-4.5-4.5v-5.4c0-2.5,2-4.5,4.5-4.5h67.3
		c2.5,0,4.5,2,4.5,4.5V267.6z"/>
</g>
<g>
	<path class="st0" d="M104.3,291.5c0,2.5-2,4.5-4.5,4.5H32.5c-2.5,0-4.5-2-4.5-4.5v-5.4c0-2.5,2-4.5,4.5-4.5h67.3
		c2.5,0,4.5,2,4.5,4.5V291.5z"/>
	<path class="st0" d="M586,291.5c0,2.5-2,4.5-4.5,4.5h-67.3c-2.5,0-4.5-2-4.5-4.5v-5.4c0-2.5,2-4.5,4.5-4.5h67.3
		c2.5,0,4.5,2,4.5,4.5V291.5z"/>
	<path class="st0" d="M489.6,291.5c0,2.5-2,4.5-4.5,4.5h-67.3c-2.5,0-4.5-2-4.5-4.5v-5.4c0-2.5,2-4.5,4.5-4.5h67.3
		c2.5,0,4.5,2,4.5,4.5L489.6,291.5L489.6,291.5z"/>
	<path class="st0" d="M393.3,291.5c0,2.5-2,4.5-4.5,4.5h-67.3c-2.5,0-4.5-2-4.5-4.5v-5.4c0-2.5,2-4.5,4.5-4.5h67.3
		c2.5,0,4.5,2,4.5,4.5V291.5z"/>
	<path class="st0" d="M297,291.5c0,2.5-2,4.5-4.5,4.5h-67.3c-2.5,0-4.5-2-4.5-4.5v-5.4c0-2.5,2-4.5,4.5-4.5h67.3
		c2.5,0,4.5,2,4.5,4.5V291.5z"/>
	<path class="st0" d="M200.6,291.5c0,2.5-2,4.5-4.5,4.5h-67.3c-2.5,0-4.5-2-4.5-4.5v-5.4c0-2.5,2-4.5,4.5-4.5h67.3
		c2.5,0,4.5,2,4.5,4.5V291.5z"/>
</g>
<g>
	<path class="st0" d="M104.3,315.5c0,2.5-2,4.5-4.5,4.5H32.5c-2.5,0-4.5-2-4.5-4.5v-5.4c0-2.5,2-4.5,4.5-4.5h67.3
		c2.5,0,4.5,2,4.5,4.5V315.5z"/>
	<path class="st0" d="M586,315.5c0,2.5-2,4.5-4.5,4.5h-67.3c-2.5,0-4.5-2-4.5-4.5v-5.4c0-2.5,2-4.5,4.5-4.5h67.3
		c2.5,0,4.5,2,4.5,4.5V315.5z"/>
	<path class="st0" d="M489.6,315.5c0,2.5-2,4.5-4.5,4.5h-67.3c-2.5,0-4.5-2-4.5-4.5v-5.4c0-2.5,2-4.5,4.5-4.5h67.3
		c2.5,0,4.5,2,4.5,4.5L489.6,315.5L489.6,315.5z"/>
	<path class="st0" d="M393.3,315.5c0,2.5-2,4.5-4.5,4.5h-67.3c-2.5,0-4.5-2-4.5-4.5v-5.4c0-2.5,2-4.5,4.5-4.5h67.3
		c2.5,0,4.5,2,4.5,4.5V315.5z"/>
	<path class="st0" d="M297,315.5c0,2.5-2,4.5-4.5,4.5h-67.3c-2.5,0-4.5-2-4.5-4.5v-5.4c0-2.5,2-4.5,4.5-4.5h67.3
		c2.5,0,4.5,2,4.5,4.5V315.5z"/>
	<path class="st0" d="M200.6,315.5c0,2.5-2,4.5-4.5,4.5h-67.3c-2.5,0-4.5-2-4.5-4.5v-5.4c0-2.5,2-4.5,4.5-4.5h67.3
		c2.5,0,4.5,2,4.5,4.5V315.5z"/>
</g>
<g>
	<path class="st0" d="M104.3,339.4c0,2.5-2,4.5-4.5,4.5H32.5c-2.5,0-4.5-2-4.5-4.5V334c0-2.5,2-4.5,4.5-4.5h67.3
		c2.5,0,4.5,2,4.5,4.5V339.4z"/>
	<path class="st0" d="M586,339.4c0,2.5-2,4.5-4.5,4.5h-67.3c-2.5,0-4.5-2-4.5-4.5V334c0-2.5,2-4.5,4.5-4.5h67.3c2.5,0,4.5,2,4.5,4.5
		V339.4z"/>
	<path class="st0" d="M489.6,339.4c0,2.5-2,4.5-4.5,4.5h-67.3c-2.5,0-4.5-2-4.5-4.5V334c0-2.5,2-4.5,4.5-4.5h67.3
		c2.5,0,4.5,2,4.5,4.5L489.6,339.4L489.6,339.4z"/>
	<path class="st0" d="M393.3,339.4c0,2.5-2,4.5-4.5,4.5h-67.3c-2.5,0-4.5-2-4.5-4.5V334c0-2.5,2-4.5,4.5-4.5h67.3
		c2.5,0,4.5,2,4.5,4.5V339.4z"/>
	<path class="st0" d="M297,339.4c0,2.5-2,4.5-4.5,4.5h-67.3c-2.5,0-4.5-2-4.5-4.5V334c0-2.5,2-4.5,4.5-4.5h67.3c2.5,0,4.5,2,4.5,4.5
		V339.4z"/>
	<path class="st0" d="M200.6,339.4c0,2.5-2,4.5-4.5,4.5h-67.3c-2.5,0-4.5-2-4.5-4.5V334c0-2.5,2-4.5,4.5-4.5h67.3
		c2.5,0,4.5,2,4.5,4.5V339.4z"/>
</g>
<g>
	<path class="st0" d="M104.3,363.3c0,2.5-2,4.5-4.5,4.5H32.5c-2.5,0-4.5-2-4.5-4.5v-5.4c0-2.5,2-4.5,4.5-4.5h67.3
		c2.5,0,4.5,2,4.5,4.5V363.3z"/>
	<path class="st0" d="M586,363.3c0,2.5-2,4.5-4.5,4.5h-67.3c-2.5,0-4.5-2-4.5-4.5v-5.4c0-2.5,2-4.5,4.5-4.5h67.3
		c2.5,0,4.5,2,4.5,4.5V363.3z"/>
	<path class="st0" d="M489.6,363.3c0,2.5-2,4.5-4.5,4.5h-67.3c-2.5,0-4.5-2-4.5-4.5v-5.4c0-2.5,2-4.5,4.5-4.5h67.3
		c2.5,0,4.5,2,4.5,4.5L489.6,363.3L489.6,363.3z"/>
	<path class="st0" d="M393.3,363.3c0,2.5-2,4.5-4.5,4.5h-67.3c-2.5,0-4.5-2-4.5-4.5v-5.4c0-2.5,2-4.5,4.5-4.5h67.3
		c2.5,0,4.5,2,4.5,4.5V363.3z"/>
	<path class="st0" d="M297,363.3c0,2.5-2,4.5-4.5,4.5h-67.3c-2.5,0-4.5-2-4.5-4.5v-5.4c0-2.5,2-4.5,4.5-4.5h67.3
		c2.5,0,4.5,2,4.5,4.5V363.3z"/>
	<path class="st0" d="M200.6,363.3c0,2.5-2,4.5-4.5,4.5h-67.3c-2.5,0-4.5-2-4.5-4.5v-5.4c0-2.5,2-4.5,4.5-4.5h67.3
		c2.5,0,4.5,2,4.5,4.5V363.3z"/>
</g>
<g>
	<path class="st0" d="M104.3,387.2c0,2.5-2,4.5-4.5,4.5H32.5c-2.5,0-4.5-2-4.5-4.5v-5.4c0-2.5,2-4.5,4.5-4.5h67.3
		c2.5,0,4.5,2,4.5,4.5V387.2z"/>
	<path class="st0" d="M586,387.2c0,2.5-2,4.5-4.5,4.5h-67.3c-2.5,0-4.5-2-4.5-4.5v-5.4c0-2.5,2-4.5,4.5-4.5h67.3
		c2.5,0,4.5,2,4.5,4.5V387.2z"/>
	<path class="st0" d="M489.6,387.2c0,2.5-2,4.5-4.5,4.5h-67.3c-2.5,0-4.5-2-4.5-4.5v-5.4c0-2.5,2-4.5,4.5-4.5h67.3
		c2.5,0,4.5,2,4.5,4.5L489.6,387.2L489.6,387.2z"/>
	<path class="st0" d="M393.3,387.2c0,2.5-2,4.5-4.5,4.5h-67.3c-2.5,0-4.5-2-4.5-4.5v-5.4c0-2.5,2-4.5,4.5-4.5h67.3
		c2.5,0,4.5,2,4.5,4.5V387.2z"/>
	<path class="st0" d="M297,387.2c0,2.5-2,4.5-4.5,4.5h-67.3c-2.5,0-4.5-2-4.5-4.5v-5.4c0-2.5,2-4.5,4.5-4.5h67.3
		c2.5,0,4.5,2,4.5,4.5V387.2z"/>
	<path class="st0" d="M200.6,387.2c0,2.5-2,4.5-4.5,4.5h-67.3c-2.5,0-4.5-2-4.5-4.5v-5.4c0-2.5,2-4.5,4.5-4.5h67.3
		c2.5,0,4.5,2,4.5,4.5V387.2z"/>
</g>
<g>
	<path class="st0" d="M104.3,411.2c0,2.5-2,4.5-4.5,4.5H32.5c-2.5,0-4.5-2-4.5-4.5v-5.4c0-2.5,2-4.5,4.5-4.5h67.3
		c2.5,0,4.5,2,4.5,4.5V411.2z"/>
	<path class="st0" d="M586,411.2c0,2.5-2,4.5-4.5,4.5h-67.3c-2.5,0-4.5-2-4.5-4.5v-5.4c0-2.5,2-4.5,4.5-4.5h67.3
		c2.5,0,4.5,2,4.5,4.5V411.2z"/>
	<path class="st0" d="M489.6,411.2c0,2.5-2,4.5-4.5,4.5h-67.3c-2.5,0-4.5-2-4.5-4.5v-5.4c0-2.5,2-4.5,4.5-4.5h67.3
		c2.5,0,4.5,2,4.5,4.5L489.6,411.2L489.6,411.2z"/>
	<path class="st0" d="M393.3,411.2c0,2.5-2,4.5-4.5,4.5h-67.3c-2.5,0-4.5-2-4.5-4.5v-5.4c0-2.5,2-4.5,4.5-4.5h67.3
		c2.5,0,4.5,2,4.5,4.5V411.2z"/>
	<path class="st0" d="M297,411.2c0,2.5-2,4.5-4.5,4.5h-67.3c-2.5,0-4.5-2-4.5-4.5v-5.4c0-2.5,2-4.5,4.5-4.5h67.3
		c2.5,0,4.5,2,4.5,4.5V411.2z"/>
	<path class="st0" d="M200.6,411.2c0,2.5-2,4.5-4.5,4.5h-67.3c-2.5,0-4.5-2-4.5-4.5v-5.4c0-2.5,2-4.5,4.5-4.5h67.3
		c2.5,0,4.5,2,4.5,4.5V411.2z"/>
</g>
<g>
	<path class="st0" d="M104.3,435.1c0,2.5-2,4.5-4.5,4.5H32.5c-2.5,0-4.5-2-4.5-4.5v-5.4c0-2.5,2-4.5,4.5-4.5h67.3
		c2.5,0,4.5,2,4.5,4.5V435.1z"/>
	<path class="st0" d="M586,435.1c0,2.5-2,4.5-4.5,4.5h-67.3c-2.5,0-4.5-2-4.5-4.5v-5.4c0-2.5,2-4.5,4.5-4.5h67.3
		c2.5,0,4.5,2,4.5,4.5V435.1z"/>
	<path class="st0" d="M489.6,435.1c0,2.5-2,4.5-4.5,4.5h-67.3c-2.5,0-4.5-2-4.5-4.5v-5.4c0-2.5,2-4.5,4.5-4.5h67.3
		c2.5,0,4.5,2,4.5,4.5L489.6,435.1L489.6,435.1z"/>
	<path class="st0" d="M393.3,435.1c0,2.5-2,4.5-4.5,4.5h-67.3c-2.5,0-4.5-2-4.5-4.5v-5.4c0-2.5,2-4.5,4.5-4.5h67.3
		c2.5,0,4.5,2,4.5,4.5V435.1z"/>
	<path class="st0" d="M297,435.1c0,2.5-2,4.5-4.5,4.5h-67.3c-2.5,0-4.5-2-4.5-4.5v-5.4c0-2.5,2-4.5,4.5-4.5h67.3
		c2.5,0,4.5,2,4.5,4.5V435.1z"/>
	<path class="st0" d="M200.6,435.1c0,2.5-2,4.5-4.5,4.5h-67.3c-2.5,0-4.5-2-4.5-4.5v-5.4c0-2.5,2-4.5,4.5-4.5h67.3
		c2.5,0,4.5,2,4.5,4.5V435.1z"/>
</g>
<g>
	<path class="st0" d="M104.3,459c0,2.5-2,4.5-4.5,4.5H32.5c-2.5,0-4.5-2-4.5-4.5v-5.4c0-2.5,2-4.5,4.5-4.5h67.3c2.5,0,4.5,2,4.5,4.5
		V459z"/>
	<path class="st0" d="M586,459c0,2.5-2,4.5-4.5,4.5h-67.3c-2.5,0-4.5-2-4.5-4.5v-5.4c0-2.5,2-4.5,4.5-4.5h67.3c2.5,0,4.5,2,4.5,4.5
		V459z"/>
	<path class="st0" d="M489.6,459c0,2.5-2,4.5-4.5,4.5h-67.3c-2.5,0-4.5-2-4.5-4.5v-5.4c0-2.5,2-4.5,4.5-4.5h67.3
		c2.5,0,4.5,2,4.5,4.5L489.6,459L489.6,459z"/>
	<path class="st0" d="M393.3,459c0,2.5-2,4.5-4.5,4.5h-67.3c-2.5,0-4.5-2-4.5-4.5v-5.4c0-2.5,2-4.5,4.5-4.5h67.3
		c2.5,0,4.5,2,4.5,4.5V459z"/>
	<path class="st0" d="M297,459c0,2.5-2,4.5-4.5,4.5h-67.3c-2.5,0-4.5-2-4.5-4.5v-5.4c0-2.5,2-4.5,4.5-4.5h67.3c2.5,0,4.5,2,4.5,4.5
		V459z"/>
	<path class="st0" d="M200.6,459c0,2.5-2,4.5-4.5,4.5h-67.3c-2.5,0-4.5-2-4.5-4.5v-5.4c0-2.5,2-4.5,4.5-4.5h67.3
		c2.5,0,4.5,2,4.5,4.5V459z"/>
</g>
<g>
	<path class="st0" d="M104.3,482.9c0,2.5-2,4.5-4.5,4.5H32.5c-2.5,0-4.5-2-4.5-4.5v-5.4c0-2.5,2-4.5,4.5-4.5h67.3
		c2.5,0,4.5,2,4.5,4.5V482.9z"/>
	<path class="st0" d="M586,482.9c0,2.5-2,4.5-4.5,4.5h-67.3c-2.5,0-4.5-2-4.5-4.5v-5.4c0-2.5,2-4.5,4.5-4.5h67.3
		c2.5,0,4.5,2,4.5,4.5V482.9z"/>
	<path class="st0" d="M489.6,482.9c0,2.5-2,4.5-4.5,4.5h-67.3c-2.5,0-4.5-2-4.5-4.5v-5.4c0-2.5,2-4.5,4.5-4.5h67.3
		c2.5,0,4.5,2,4.5,4.5L489.6,482.9L489.6,482.9z"/>
	<path class="st0" d="M393.3,482.9c0,2.5-2,4.5-4.5,4.5h-67.3c-2.5,0-4.5-2-4.5-4.5v-5.4c0-2.5,2-4.5,4.5-4.5h67.3
		c2.5,0,4.5,2,4.5,4.5V482.9z"/>
	<path class="st0" d="M297,482.9c0,2.5-2,4.5-4.5,4.5h-67.3c-2.5,0-4.5-2-4.5-4.5v-5.4c0-2.5,2-4.5,4.5-4.5h67.3
		c2.5,0,4.5,2,4.5,4.5V482.9z"/>
	<path class="st0" d="M200.6,482.9c0,2.5-2,4.5-4.5,4.5h-67.3c-2.5,0-4.5-2-4.5-4.5v-5.4c0-2.5,2-4.5,4.5-4.5h67.3
		c2.5,0,4.5,2,4.5,4.5V482.9z"/>
</g>
<g>
	<path class="st0" d="M104.3,506.8c0,2.5-2,4.5-4.5,4.5H32.5c-2.5,0-4.5-2-4.5-4.5v-5.4c0-2.5,2-4.5,4.5-4.5h67.3
		c2.5,0,4.5,2,4.5,4.5V506.8z"/>
	<path class="st0" d="M586,506.8c0,2.5-2,4.5-4.5,4.5h-67.3c-2.5,0-4.5-2-4.5-4.5v-5.4c0-2.5,2-4.5,4.5-4.5h67.3
		c2.5,0,4.5,2,4.5,4.5V506.8z"/>
	<path class="st0" d="M489.6,506.8c0,2.5-2,4.5-4.5,4.5h-67.3c-2.5,0-4.5-2-4.5-4.5v-5.4c0-2.5,2-4.5,4.5-4.5h67.3
		c2.5,0,4.5,2,4.5,4.5L489.6,506.8L489.6,506.8z"/>
	<path class="st0" d="M393.3,506.8c0,2.5-2,4.5-4.5,4.5h-67.3c-2.5,0-4.5-2-4.5-4.5v-5.4c0-2.5,2-4.5,4.5-4.5h67.3
		c2.5,0,4.5,2,4.5,4.5V506.8z"/>
	<path class="st0" d="M297,506.8c0,2.5-2,4.5-4.5,4.5h-67.3c-2.5,0-4.5-2-4.5-4.5v-5.4c0-2.5,2-4.5,4.5-4.5h67.3
		c2.5,0,4.5,2,4.5,4.5V506.8z"/>
	<path class="st0" d="M200.6,506.8c0,2.5-2,4.5-4.5,4.5h-67.3c-2.5,0-4.5-2-4.5-4.5v-5.4c0-2.5,2-4.5,4.5-4.5h67.3
		c2.5,0,4.5,2,4.5,4.5V506.8z"/>
</g>
<g>
	<path class="st0" d="M104.3,530.8c0,2.5-2,4.5-4.5,4.5H32.5c-2.5,0-4.5-2-4.5-4.5v-5.4c0-2.5,2-4.5,4.5-4.5h67.3
		c2.5,0,4.5,2,4.5,4.5V530.8z"/>
	<path class="st0" d="M586,530.8c0,2.5-2,4.5-4.5,4.5h-67.3c-2.5,0-4.5-2-4.5-4.5v-5.4c0-2.5,2-4.5,4.5-4.5h67.3
		c2.5,0,4.5,2,4.5,4.5V530.8z"/>
	<path class="st0" d="M489.6,530.8c0,2.5-2,4.5-4.5,4.5h-67.3c-2.5,0-4.5-2-4.5-4.5v-5.4c0-2.5,2-4.5,4.5-4.5h67.3
		c2.5,0,4.5,2,4.5,4.5L489.6,530.8L489.6,530.8z"/>
	<path class="st0" d="M393.3,530.8c0,2.5-2,4.5-4.5,4.5h-67.3c-2.5,0-4.5-2-4.5-4.5v-5.4c0-2.5,2-4.5,4.5-4.5h67.3
		c2.5,0,4.5,2,4.5,4.5V530.8z"/>
	<path class="st0" d="M297,530.8c0,2.5-2,4.5-4.5,4.5h-67.3c-2.5,0-4.5-2-4.5-4.5v-5.4c0-2.5,2-4.5,4.5-4.5h67.3
		c2.5,0,4.5,2,4.5,4.5V530.8z"/>
	<path class="st0" d="M200.6,530.8c0,2.5-2,4.5-4.5,4.5h-67.3c-2.5,0-4.5-2-4.5-4.5v-5.4c0-2.5,2-4.5,4.5-4.5h67.3
		c2.5,0,4.5,2,4.5,4.5V530.8z"/>
</g>
<g>
	<path class="st0" d="M104.3,554.7c0,2.5-2,4.5-4.5,4.5H32.5c-2.5,0-4.5-2-4.5-4.5v-5.4c0-2.5,2-4.5,4.5-4.5h67.3
		c2.5,0,4.5,2,4.5,4.5V554.7z"/>
	<path class="st0" d="M586,554.7c0,2.5-2,4.5-4.5,4.5h-67.3c-2.5,0-4.5-2-4.5-4.5v-5.4c0-2.5,2-4.5,4.5-4.5h67.3
		c2.5,0,4.5,2,4.5,4.5V554.7z"/>
	<path class="st0" d="M489.6,554.7c0,2.5-2,4.5-4.5,4.5h-67.3c-2.5,0-4.5-2-4.5-4.5v-5.4c0-2.5,2-4.5,4.5-4.5h67.3
		c2.5,0,4.5,2,4.5,4.5L489.6,554.7L489.6,554.7z"/>
	<path class="st0" d="M393.3,554.7c0,2.5-2,4.5-4.5,4.5h-67.3c-2.5,0-4.5-2-4.5-4.5v-5.4c0-2.5,2-4.5,4.5-4.5h67.3
		c2.5,0,4.5,2,4.5,4.5V554.7z"/>
	<path class="st0" d="M297,554.7c0,2.5-2,4.5-4.5,4.5h-67.3c-2.5,0-4.5-2-4.5-4.5v-5.4c0-2.5,2-4.5,4.5-4.5h67.3
		c2.5,0,4.5,2,4.5,4.5V554.7z"/>
	<path class="st0" d="M200.6,554.7c0,2.5-2,4.5-4.5,4.5h-67.3c-2.5,0-4.5-2-4.5-4.5v-5.4c0-2.5,2-4.5,4.5-4.5h67.3
		c2.5,0,4.5,2,4.5,4.5V554.7z"/>
</g>
<g>
	<path class="st0" d="M104.3,578.6c0,2.5-2,4.5-4.5,4.5H32.5c-2.5,0-4.5-2-4.5-4.5v-5.4c0-2.5,2-4.5,4.5-4.5h67.3
		c2.5,0,4.5,2,4.5,4.5V578.6z"/>
	<path class="st0" d="M586,578.6c0,2.5-2,4.5-4.5,4.5h-67.3c-2.5,0-4.5-2-4.5-4.5v-5.4c0-2.5,2-4.5,4.5-4.5h67.3
		c2.5,0,4.5,2,4.5,4.5V578.6z"/>
	<path class="st0" d="M489.6,578.6c0,2.5-2,4.5-4.5,4.5h-67.3c-2.5,0-4.5-2-4.5-4.5v-5.4c0-2.5,2-4.5,4.5-4.5h67.3
		c2.5,0,4.5,2,4.5,4.5L489.6,578.6L489.6,578.6z"/>
	<path class="st0" d="M393.3,578.6c0,2.5-2,4.5-4.5,4.5h-67.3c-2.5,0-4.5-2-4.5-4.5v-5.4c0-2.5,2-4.5,4.5-4.5h67.3
		c2.5,0,4.5,2,4.5,4.5V578.6z"/>
	<path class="st0" d="M297,578.6c0,2.5-2,4.5-4.5,4.5h-67.3c-2.5,0-4.5-2-4.5-4.5v-5.4c0-2.5,2-4.5,4.5-4.5h67.3
		c2.5,0,4.5,2,4.5,4.5V578.6z"/>
	<path class="st0" d="M200.6,578.6c0,2.5-2,4.5-4.5,4.5h-67.3c-2.5,0-4.5-2-4.5-4.5v-5.4c0-2.5,2-4.5,4.5-4.5h67.3
		c2.5,0,4.5,2,4.5,4.5V578.6z"/>
</g>
<g>
	<path class="st0" d="M104.3,602.5c0,2.5-2,4.5-4.5,4.5H32.5c-2.5,0-4.5-2-4.5-4.5v-5.4c0-2.5,2-4.5,4.5-4.5h67.3
		c2.5,0,4.5,2,4.5,4.5V602.5z"/>
	<path class="st0" d="M586,602.5c0,2.5-2,4.5-4.5,4.5h-67.3c-2.5,0-4.5-2-4.5-4.5v-5.4c0-2.5,2-4.5,4.5-4.5h67.3
		c2.5,0,4.5,2,4.5,4.5V602.5z"/>
	<path class="st0" d="M489.6,602.5c0,2.5-2,4.5-4.5,4.5h-67.3c-2.5,0-4.5-2-4.5-4.5v-5.4c0-2.5,2-4.5,4.5-4.5h67.3
		c2.5,0,4.5,2,4.5,4.5L489.6,602.5L489.6,602.5z"/>
	<path class="st0" d="M393.3,602.5c0,2.5-2,4.5-4.5,4.5h-67.3c-2.5,0-4.5-2-4.5-4.5v-5.4c0-2.5,2-4.5,4.5-4.5h67.3
		c2.5,0,4.5,2,4.5,4.5V602.5z"/>
	<path class="st0" d="M297,602.5c0,2.5-2,4.5-4.5,4.5h-67.3c-2.5,0-4.5-2-4.5-4.5v-5.4c0-2.5,2-4.5,4.5-4.5h67.3
		c2.5,0,4.5,2,4.5,4.5V602.5z"/>
	<path class="st0" d="M200.6,602.5c0,2.5-2,4.5-4.5,4.5h-67.3c-2.5,0-4.5-2-4.5-4.5v-5.4c0-2.5,2-4.5,4.5-4.5h67.3
		c2.5,0,4.5,2,4.5,4.5V602.5z"/>
</g>
<g>
	<path class="st0" d="M104.3,626.5c0,2.5-2,4.5-4.5,4.5H32.5c-2.5,0-4.5-2-4.5-4.5v-5.4c0-2.5,2-4.5,4.5-4.5h67.3
		c2.5,0,4.5,2,4.5,4.5V626.5z"/>
	<path class="st0" d="M586,626.5c0,2.5-2,4.5-4.5,4.5h-67.3c-2.5,0-4.5-2-4.5-4.5v-5.4c0-2.5,2-4.5,4.5-4.5h67.3
		c2.5,0,4.5,2,4.5,4.5V626.5z"/>
	<path class="st0" d="M489.6,626.5c0,2.5-2,4.5-4.5,4.5h-67.3c-2.5,0-4.5-2-4.5-4.5v-5.4c0-2.5,2-4.5,4.5-4.5h67.3
		c2.5,0,4.5,2,4.5,4.5L489.6,626.5L489.6,626.5z"/>
	<path class="st0" d="M393.3,626.5c0,2.5-2,4.5-4.5,4.5h-67.3c-2.5,0-4.5-2-4.5-4.5v-5.4c0-2.5,2-4.5,4.5-4.5h67.3
		c2.5,0,4.5,2,4.5,4.5V626.5z"/>
	<path class="st0" d="M297,626.5c0,2.5-2,4.5-4.5,4.5h-67.3c-2.5,0-4.5-2-4.5-4.5v-5.4c0-2.5,2-4.5,4.5-4.5h67.3
		c2.5,0,4.5,2,4.5,4.5V626.5z"/>
	<path class="st0" d="M200.6,626.5c0,2.5-2,4.5-4.5,4.5h-67.3c-2.5,0-4.5-2-4.5-4.5v-5.4c0-2.5,2-4.5,4.5-4.5h67.3
		c2.5,0,4.5,2,4.5,4.5V626.5z"/>
</g>
<g>
	<path class="st0" d="M104.3,650.4c0,2.5-2,4.5-4.5,4.5H32.5c-2.5,0-4.5-2-4.5-4.5V645c0-2.5,2-4.5,4.5-4.5h67.3
		c2.5,0,4.5,2,4.5,4.5V650.4z"/>
	<path class="st0" d="M586,650.4c0,2.5-2,4.5-4.5,4.5h-67.3c-2.5,0-4.5-2-4.5-4.5V645c0-2.5,2-4.5,4.5-4.5h67.3c2.5,0,4.5,2,4.5,4.5
		V650.4z"/>
	<path class="st0" d="M489.6,650.4c0,2.5-2,4.5-4.5,4.5h-67.3c-2.5,0-4.5-2-4.5-4.5V645c0-2.5,2-4.5,4.5-4.5h67.3
		c2.5,0,4.5,2,4.5,4.5L489.6,650.4L489.6,650.4z"/>
	<path class="st0" d="M393.3,650.4c0,2.5-2,4.5-4.5,4.5h-67.3c-2.5,0-4.5-2-4.5-4.5V645c0-2.5,2-4.5,4.5-4.5h67.3
		c2.5,0,4.5,2,4.5,4.5V650.4z"/>
	<path class="st0" d="M297,650.4c0,2.5-2,4.5-4.5,4.5h-67.3c-2.5,0-4.5-2-4.5-4.5V645c0-2.5,2-4.5,4.5-4.5h67.3c2.5,0,4.5,2,4.5,4.5
		V650.4z"/>
	<path class="st0" d="M200.6,650.4c0,2.5-2,4.5-4.5,4.5h-67.3c-2.5,0-4.5-2-4.5-4.5V645c0-2.5,2-4.5,4.5-4.5h67.3
		c2.5,0,4.5,2,4.5,4.5V650.4z"/>
</g>
<g>
	<path class="st0" d="M104.3,674.3c0,2.5-2,4.5-4.5,4.5H32.5c-2.5,0-4.5-2-4.5-4.5v-5.4c0-2.5,2-4.5,4.5-4.5h67.3
		c2.5,0,4.5,2,4.5,4.5V674.3z"/>
	<path class="st0" d="M586,674.3c0,2.5-2,4.5-4.5,4.5h-67.3c-2.5,0-4.5-2-4.5-4.5v-5.4c0-2.5,2-4.5,4.5-4.5h67.3
		c2.5,0,4.5,2,4.5,4.5V674.3z"/>
	<path class="st0" d="M489.6,674.3c0,2.5-2,4.5-4.5,4.5h-67.3c-2.5,0-4.5-2-4.5-4.5v-5.4c0-2.5,2-4.5,4.5-4.5h67.3
		c2.5,0,4.5,2,4.5,4.5L489.6,674.3L489.6,674.3z"/>
	<path class="st0" d="M393.3,674.3c0,2.5-2,4.5-4.5,4.5h-67.3c-2.5,0-4.5-2-4.5-4.5v-5.4c0-2.5,2-4.5,4.5-4.5h67.3
		c2.5,0,4.5,2,4.5,4.5V674.3z"/>
	<path class="st0" d="M297,674.3c0,2.5-2,4.5-4.5,4.5h-67.3c-2.5,0-4.5-2-4.5-4.5v-5.4c0-2.5,2-4.5,4.5-4.5h67.3
		c2.5,0,4.5,2,4.5,4.5V674.3z"/>
	<path class="st0" d="M200.6,674.3c0,2.5-2,4.5-4.5,4.5h-67.3c-2.5,0-4.5-2-4.5-4.5v-5.4c0-2.5,2-4.5,4.5-4.5h67.3
		c2.5,0,4.5,2,4.5,4.5V674.3z"/>
</g>
<g>
	<path class="st0" d="M104.3,698.2c0,2.5-2,4.5-4.5,4.5H32.5c-2.5,0-4.5-2-4.5-4.5v-5.4c0-2.5,2-4.5,4.5-4.5h67.3
		c2.5,0,4.5,2,4.5,4.5V698.2z"/>
	<path class="st0" d="M586,698.2c0,2.5-2,4.5-4.5,4.5h-67.3c-2.5,0-4.5-2-4.5-4.5v-5.4c0-2.5,2-4.5,4.5-4.5h67.3
		c2.5,0,4.5,2,4.5,4.5V698.2z"/>
	<path class="st0" d="M489.6,698.2c0,2.5-2,4.5-4.5,4.5h-67.3c-2.5,0-4.5-2-4.5-4.5v-5.4c0-2.5,2-4.5,4.5-4.5h67.3
		c2.5,0,4.5,2,4.5,4.5L489.6,698.2L489.6,698.2z"/>
	<path class="st0" d="M393.3,698.2c0,2.5-2,4.5-4.5,4.5h-67.3c-2.5,0-4.5-2-4.5-4.5v-5.4c0-2.5,2-4.5,4.5-4.5h67.3
		c2.5,0,4.5,2,4.5,4.5V698.2z"/>
	<path class="st0" d="M297,698.2c0,2.5-2,4.5-4.5,4.5h-67.3c-2.5,0-4.5-2-4.5-4.5v-5.4c0-2.5,2-4.5,4.5-4.5h67.3
		c2.5,0,4.5,2,4.5,4.5V698.2z"/>
	<path class="st0" d="M200.6,698.2c0,2.5-2,4.5-4.5,4.5h-67.3c-2.5,0-4.5-2-4.5-4.5v-5.4c0-2.5,2-4.5,4.5-4.5h67.3
		c2.5,0,4.5,2,4.5,4.5V698.2z"/>
</g>
<g>
	<path class="st0" d="M104.3,722.2c0,2.5-2,4.5-4.5,4.5H32.5c-2.5,0-4.5-2-4.5-4.5v-5.4c0-2.5,2-4.5,4.5-4.5h67.3
		c2.5,0,4.5,2,4.5,4.5V722.2z"/>
	<path class="st0" d="M586,722.2c0,2.5-2,4.5-4.5,4.5h-67.3c-2.5,0-4.5-2-4.5-4.5v-5.4c0-2.5,2-4.5,4.5-4.5h67.3
		c2.5,0,4.5,2,4.5,4.5V722.2z"/>
	<path class="st0" d="M489.6,722.2c0,2.5-2,4.5-4.5,4.5h-67.3c-2.5,0-4.5-2-4.5-4.5v-5.4c0-2.5,2-4.5,4.5-4.5h67.3
		c2.5,0,4.5,2,4.5,4.5L489.6,722.2L489.6,722.2z"/>
	<path class="st0" d="M393.3,722.2c0,2.5-2,4.5-4.5,4.5h-67.3c-2.5,0-4.5-2-4.5-4.5v-5.4c0-2.5,2-4.5,4.5-4.5h67.3
		c2.5,0,4.5,2,4.5,4.5V722.2z"/>
	<path class="st0" d="M297,722.2c0,2.5-2,4.5-4.5,4.5h-67.3c-2.5,0-4.5-2-4.5-4.5v-5.4c0-2.5,2-4.5,4.5-4.5h67.3
		c2.5,0,4.5,2,4.5,4.5V722.2z"/>
	<path class="st0" d="M200.6,722.2c0,2.5-2,4.5-4.5,4.5h-67.3c-2.5,0-4.5-2-4.5-4.5v-5.4c0-2.5,2-4.5,4.5-4.5h67.3
		c2.5,0,4.5,2,4.5,4.5V722.2z"/>
</g>
<g>
	<path class="st0" d="M104.3,746.1c0,2.5-2,4.5-4.5,4.5H32.5c-2.5,0-4.5-2-4.5-4.5v-5.4c0-2.5,2-4.5,4.5-4.5h67.3
		c2.5,0,4.5,2,4.5,4.5V746.1z"/>
	<path class="st0" d="M586,746.1c0,2.5-2,4.5-4.5,4.5h-67.3c-2.5,0-4.5-2-4.5-4.5v-5.4c0-2.5,2-4.5,4.5-4.5h67.3
		c2.5,0,4.5,2,4.5,4.5V746.1z"/>
	<path class="st0" d="M489.6,746.1c0,2.5-2,4.5-4.5,4.5h-67.3c-2.5,0-4.5-2-4.5-4.5v-5.4c0-2.5,2-4.5,4.5-4.5h67.3
		c2.5,0,4.5,2,4.5,4.5L489.6,746.1L489.6,746.1z"/>
	<path class="st0" d="M393.3,746.1c0,2.5-2,4.5-4.5,4.5h-67.3c-2.5,0-4.5-2-4.5-4.5v-5.4c0-2.5,2-4.5,4.5-4.5h67.3
		c2.5,0,4.5,2,4.5,4.5V746.1z"/>
	<path class="st0" d="M297,746.1c0,2.5-2,4.5-4.5,4.5h-67.3c-2.5,0-4.5-2-4.5-4.5v-5.4c0-2.5,2-4.5,4.5-4.5h67.3
		c2.5,0,4.5,2,4.5,4.5V746.1z"/>
	<path class="st0" d="M200.6,746.1c0,2.5-2,4.5-4.5,4.5h-67.3c-2.5,0-4.5-2-4.5-4.5v-5.4c0-2.5,2-4.5,4.5-4.5h67.3
		c2.5,0,4.5,2,4.5,4.5V746.1z"/>
</g>
</svg>
