<?xml version="1.0" encoding="utf-8"?>
<!-- Generator: Adobe Illustrator 20.1.0, SVG Export Plug-In . SVG Version: 6.00 Build 0)  -->
<svg version="1.1" id="Template" xmlns="http://www.w3.org/2000/svg" xmlns:xlink="http://www.w3.org/1999/xlink" x="0px" y="0px"
	 viewBox="0 0 612 792" style="enable-background:new 0 0 612 792;" xml:space="preserve">
<style type="text/css">
	.st0{fill:none;stroke:#000000;stroke-width:2;stroke-miterlimit:10;}
</style>
<g>
	<g>
		<rect class="st0" width="612" height="792"/>
	</g>
	<path class="st0" d="M164.3,141.7c0,1.2-1,2.3-2.3,2.3H58.5c-1.2,0-2.3-1-2.3-2.3V38.2c0-1.2,1-2.3,2.3-2.3H162
		c1.2,0,2.3,1,2.3,2.3V141.7z"/>
	<path class="st0" d="M555.8,141.7c0,1.2-1,2.3-2.3,2.3H450c-1.2,0-2.3-1-2.3-2.3V38.2c0-1.2,1-2.3,2.3-2.3h103.5
		c1.2,0,2.3,1,2.3,2.3V141.7z"/>
	<path class="st0" d="M425.3,141.7c0,1.2-1,2.3-2.3,2.3H319.5c-1.2,0-2.3-1-2.3-2.3V38.2c0-1.2,1-2.3,2.3-2.3H423
		c1.2,0,2.3,1,2.3,2.3V141.7z"/>
	<path class="st0" d="M294.8,141.7c0,1.2-1,2.3-2.3,2.3H189c-1.2,0-2.3-1-2.3-2.3V38.2c0-1.2,1-2.3,2.3-2.3h103.5
		c1.2,0,2.3,1,2.3,2.3V141.7z"/>
	<path class="st0" d="M164.3,753.7c0,1.2-1,2.3-2.3,2.3H58.5c-1.2,0-2.3-1-2.3-2.3V650.2c0-1.2,1-2.3,2.3-2.3H162
		c1.2,0,2.3,1,2.3,2.3V753.7z"/>
	<path class="st0" d="M555.8,753.7c0,1.2-1,2.3-2.3,2.3H450c-1.2,0-2.3-1-2.3-2.3V650.2c0-1.2,1-2.3,2.3-2.3h103.5
		c1.2,0,2.3,1,2.3,2.3V753.7z"/>
	<path class="st0" d="M425.3,753.7c0,1.2-1,2.3-2.3,2.3H319.5c-1.2,0-2.3-1-2.3-2.3V650.2c0-1.2,1-2.3,2.3-2.3H423
		c1.2,0,2.3,1,2.3,2.3V753.7z"/>
	<path class="st0" d="M294.8,753.7c0,1.2-1,2.3-2.3,2.3H189c-1.2,0-2.3-1-2.3-2.3V650.2c0-1.2,1-2.3,2.3-2.3h103.5
		c1.2,0,2.3,1,2.3,2.3V753.7z"/>
	<path class="st0" d="M164.3,264.1c0,1.2-1,2.3-2.3,2.3H58.5c-1.2,0-2.3-1-2.3-2.3V160.6c0-1.2,1-2.3,2.3-2.3H162
		c1.2,0,2.3,1,2.3,2.3V264.1z"/>
	<path class="st0" d="M555.8,264.1c0,1.2-1,2.3-2.3,2.3H450c-1.2,0-2.3-1-2.3-2.3V160.6c0-1.2,1-2.3,2.3-2.3h103.5
		c1.2,0,2.3,1,2.3,2.3V264.1z"/>
	<path class="st0" d="M425.3,264.1c0,1.2-1,2.3-2.3,2.3H319.5c-1.2,0-2.3-1-2.3-2.3V160.6c0-1.2,1-2.3,2.3-2.3H423
		c1.2,0,2.3,1,2.3,2.3V264.1z"/>
	<path class="st0" d="M294.8,264.1c0,1.2-1,2.3-2.3,2.3H189c-1.2,0-2.3-1-2.3-2.3V160.6c0-1.2,1-2.3,2.3-2.3h103.5
		c1.2,0,2.3,1,2.3,2.3V264.1z"/>
	<path class="st0" d="M164.3,386.5c0,1.2-1,2.3-2.3,2.3H58.5c-1.2,0-2.3-1-2.3-2.3V283c0-1.2,1-2.3,2.3-2.3H162c1.2,0,2.3,1,2.3,2.3
		V386.5z"/>
	<path class="st0" d="M555.8,386.5c0,1.2-1,2.3-2.3,2.3H450c-1.2,0-2.3-1-2.3-2.3V283c0-1.2,1-2.3,2.3-2.3h103.5
		c1.2,0,2.3,1,2.3,2.3V386.5z"/>
	<path class="st0" d="M425.3,386.5c0,1.2-1,2.3-2.3,2.3H319.5c-1.2,0-2.3-1-2.3-2.3V283c0-1.2,1-2.3,2.3-2.3H423
		c1.2,0,2.3,1,2.3,2.3V386.5z"/>
	<path class="st0" d="M294.8,386.5c0,1.2-1,2.3-2.3,2.3H189c-1.2,0-2.3-1-2.3-2.3V283c0-1.2,1-2.3,2.3-2.3h103.5
		c1.2,0,2.3,1,2.3,2.3V386.5z"/>
	<path class="st0" d="M164.3,508.9c0,1.2-1,2.3-2.3,2.3H58.5c-1.2,0-2.3-1-2.3-2.3V405.4c0-1.2,1-2.3,2.3-2.3H162
		c1.2,0,2.3,1,2.3,2.3V508.9z"/>
	<path class="st0" d="M555.8,508.9c0,1.2-1,2.3-2.3,2.3H450c-1.2,0-2.3-1-2.3-2.3V405.4c0-1.2,1-2.3,2.3-2.3h103.5
		c1.2,0,2.3,1,2.3,2.3V508.9z"/>
	<path class="st0" d="M425.3,508.9c0,1.2-1,2.3-2.3,2.3H319.5c-1.2,0-2.3-1-2.3-2.3V405.4c0-1.2,1-2.3,2.3-2.3H423
		c1.2,0,2.3,1,2.3,2.3V508.9z"/>
	<path class="st0" d="M294.8,508.9c0,1.2-1,2.3-2.3,2.3H189c-1.2,0-2.3-1-2.3-2.3V405.4c0-1.2,1-2.3,2.3-2.3h103.5
		c1.2,0,2.3,1,2.3,2.3V508.9z"/>
	<path class="st0" d="M164.3,631.3c0,1.2-1,2.3-2.3,2.3H58.5c-1.2,0-2.3-1-2.3-2.3V527.8c0-1.2,1-2.3,2.3-2.3H162
		c1.2,0,2.3,1,2.3,2.3V631.3z"/>
	<path class="st0" d="M555.8,631.3c0,1.2-1,2.3-2.3,2.3H450c-1.2,0-2.3-1-2.3-2.3V527.8c0-1.2,1-2.3,2.3-2.3h103.5
		c1.2,0,2.3,1,2.3,2.3V631.3z"/>
	<path class="st0" d="M425.3,631.3c0,1.2-1,2.3-2.3,2.3H319.5c-1.2,0-2.3-1-2.3-2.3V527.8c0-1.2,1-2.3,2.3-2.3H423
		c1.2,0,2.3,1,2.3,2.3V631.3z"/>
	<path class="st0" d="M294.8,631.3c0,1.2-1,2.3-2.3,2.3H189c-1.2,0-2.3-1-2.3-2.3V527.8c0-1.2,1-2.3,2.3-2.3h103.5
		c1.2,0,2.3,1,2.3,2.3V631.3z"/>
</g>
</svg>
