<?xml version="1.0" encoding="utf-8"?>
<!-- Generator: Adobe Illustrator 20.1.0, SVG Export Plug-In . SVG Version: 6.00 Build 0)  -->
<svg version="1.1" id="Layer_1" xmlns="http://www.w3.org/2000/svg" xmlns:xlink="http://www.w3.org/1999/xlink" x="0px" y="0px"
	 viewBox="0 0 612 792" style="enable-background:new 0 0 612 792;" xml:space="preserve">
<style type="text/css">
	.st0{fill:none;stroke:#000000;stroke-width:2;}
</style>
<g>
	<path class="st0" d="M306.8,241.9c0,5.6-4.5,10.1-10.1,10.1H28.9c-5.6,0-10.1-4.5-10.1-10.1V46.1c0-5.6,4.5-10.1,10.1-10.1h267.8
		c5.6,0,10.1,4.5,10.1,10.1V241.9z"/>
	<path class="st0" d="M594.8,241.9c0,5.6-4.5,10.1-10.1,10.1H316.9c-5.6,0-10.1-4.5-10.1-10.1V46.1c0-5.6,4.5-10.1,10.1-10.1h267.8
		c5.6,0,10.1,4.5,10.1,10.1L594.8,241.9L594.8,241.9z"/>
</g>
<g>
	<path class="st0" d="M306.8,493.9c0,5.6-4.5,10.1-10.1,10.1H28.9c-5.6,0-10.1-4.5-10.1-10.1V298.1c0-5.6,4.5-10.1,10.1-10.1h267.8
		c5.6,0,10.1,4.5,10.1,10.1V493.9z"/>
	<path class="st0" d="M594.8,493.9c0,5.6-4.5,10.1-10.1,10.1H316.9c-5.6,0-10.1-4.5-10.1-10.1V298.1c0-5.6,4.5-10.1,10.1-10.1h267.8
		c5.6,0,10.1,4.5,10.1,10.1L594.8,493.9L594.8,493.9z"/>
</g>
<g>
	<path class="st0" d="M306.8,745.9c0,5.6-4.5,10.1-10.1,10.1H28.9c-5.6,0-10.1-4.5-10.1-10.1V550.1c0-5.6,4.5-10.1,10.1-10.1h267.8
		c5.6,0,10.1,4.5,10.1,10.1V745.9z"/>
	<path class="st0" d="M594.8,745.9c0,5.6-4.5,10.1-10.1,10.1H316.9c-5.6,0-10.1-4.5-10.1-10.1V550.1c0-5.6,4.5-10.1,10.1-10.1h267.8
		c5.6,0,10.1,4.5,10.1,10.1L594.8,745.9L594.8,745.9z"/>
</g>
<rect class="st0" width="612" height="792"/>
</svg>
