<?xml version="1.0" encoding="utf-8"?>
<!-- Generator: Adobe Illustrator 21.1.0, SVG Export Plug-In . SVG Version: 6.00 Build 0)  -->
<svg version="1.1" id="Template" xmlns="http://www.w3.org/2000/svg" xmlns:xlink="http://www.w3.org/1999/xlink" x="0px" y="0px"
	 viewBox="0 0 614 794" style="enable-background:new 0 0 614 794;" xml:space="preserve">
<style type="text/css">
	.st0{fill:none;stroke:#231F20;stroke-width:2;stroke-miterlimit:2.61;}
</style>
<title>SL658</title>
<circle class="st0" cx="109" cy="127" r="72"/>
<circle class="st0" cx="109" cy="127" r="27"/>
<circle class="st0" cx="505" cy="127" r="72"/>
<circle class="st0" cx="505" cy="127" r="27"/>
<circle class="st0" cx="307" cy="127" r="72"/>
<circle class="st0" cx="307" cy="127" r="27"/>
<circle class="st0" cx="109" cy="667" r="72"/>
<circle class="st0" cx="109" cy="667" r="27"/>
<circle class="st0" cx="505" cy="667" r="72"/>
<circle class="st0" cx="505" cy="667" r="27"/>
<circle class="st0" cx="307" cy="667" r="72"/>
<circle class="st0" cx="307" cy="667" r="27"/>
<circle class="st0" cx="109" cy="487" r="72"/>
<circle class="st0" cx="109" cy="487" r="27"/>
<circle class="st0" cx="505" cy="487" r="72"/>
<circle class="st0" cx="505" cy="487" r="27"/>
<circle class="st0" cx="307" cy="487" r="72"/>
<circle class="st0" cx="307" cy="487" r="27"/>
<circle class="st0" cx="109" cy="307" r="72"/>
<circle class="st0" cx="109" cy="307" r="27"/>
<circle class="st0" cx="505" cy="307" r="72"/>
<circle class="st0" cx="505" cy="307" r="27"/>
<circle class="st0" cx="307" cy="307" r="72"/>
<circle class="st0" cx="307" cy="307" r="27"/>
<rect x="1" y="1" class="st0" width="612" height="792"/>
</svg>
