<?xml version="1.0" encoding="utf-8"?>
<!-- Generator: Adobe Illustrator 20.1.0, SVG Export Plug-In . SVG Version: 6.00 Build 0)  -->
<svg version="1.1" id="Layer_1" xmlns="http://www.w3.org/2000/svg" xmlns:xlink="http://www.w3.org/1999/xlink" x="0px" y="0px"
	 viewBox="0 0 612 792" style="enable-background:new 0 0 612 792;" xml:space="preserve">
<style type="text/css">
	.st0{fill:none;stroke:#000000;stroke-width:2;}
</style>
<g>
	<path class="st0" d="M31.9,59.5c-0.2,0-4.4,0.1-4.4,4.4v153c0,0.2,0.1,4.4,4.4,4.4h171c0.2,0,4.4-0.1,4.4-4.4v-153
		c0-0.2-0.1-4.4-4.4-4.4C202.9,59.5,31.9,59.5,31.9,59.5z"/>
	<path class="st0" d="M221,59.5c-0.2,0-4.4,0.1-4.4,4.4v153c0,0.2,0.1,4.4,4.4,4.4h171c0.2,0,4.4-0.1,4.4-4.4v-153
		c0-0.2-0.1-4.4-4.4-4.4C392,59.5,221,59.5,221,59.5z"/>
	<path class="st0" d="M410.1,59.5c-0.2,0-4.4,0.1-4.4,4.4v153c0,0.2,0.1,4.4,4.4,4.4h171c0.2,0,4.4-0.1,4.4-4.4v-153
		c0-0.2-0.1-4.4-4.4-4.4C581.1,59.5,410.1,59.5,410.1,59.5z"/>
</g>
<g>
	<path class="st0" d="M31.9,572.8c-0.2,0-4.4,0.1-4.4,4.4v153c0,0.2,0.1,4.4,4.4,4.4h171c0.2,0,4.4-0.1,4.4-4.4v-153
		c0-0.2-0.1-4.4-4.4-4.4H31.9z"/>
	<path class="st0" d="M221,572.8c-0.2,0-4.4,0.1-4.4,4.4v153c0,0.2,0.1,4.4,4.4,4.4h171c0.2,0,4.4-0.1,4.4-4.4v-153
		c0-0.2-0.1-4.4-4.4-4.4H221z"/>
	<path class="st0" d="M410.1,572.8c-0.2,0-4.4,0.1-4.4,4.4v153c0,0.2,0.1,4.4,4.4,4.4h171c0.2,0,4.4-0.1,4.4-4.4v-153
		c0-0.2-0.1-4.4-4.4-4.4H410.1z"/>
</g>
<g>
	<path class="st0" d="M31.9,230.6c-0.2,0-4.4,0.1-4.4,4.4v153c0,0.2,0.1,4.4,4.4,4.4h171c0.2,0,4.4-0.1,4.4-4.4V235
		c0-0.2-0.1-4.4-4.4-4.4H31.9z"/>
	<path class="st0" d="M221,230.6c-0.2,0-4.4,0.1-4.4,4.4v153c0,0.2,0.1,4.4,4.4,4.4h171c0.2,0,4.4-0.1,4.4-4.4V235
		c0-0.2-0.1-4.4-4.4-4.4H221z"/>
	<path class="st0" d="M410.1,230.6c-0.2,0-4.4,0.1-4.4,4.4v153c0,0.2,0.1,4.4,4.4,4.4h171c0.2,0,4.4-0.1,4.4-4.4V235
		c0-0.2-0.1-4.4-4.4-4.4H410.1z"/>
</g>
<g>
	<path class="st0" d="M31.9,401.7c-0.2,0-4.4,0.1-4.4,4.4v153c0,0.2,0.1,4.4,4.4,4.4h171c0.2,0,4.4-0.1,4.4-4.4v-153
		c0-0.2-0.1-4.4-4.4-4.4L31.9,401.7L31.9,401.7z"/>
	<path class="st0" d="M221,401.7c-0.2,0-4.4,0.1-4.4,4.4v153c0,0.2,0.1,4.4,4.4,4.4h171c0.2,0,4.4-0.1,4.4-4.4v-153
		c0-0.2-0.1-4.4-4.4-4.4L221,401.7L221,401.7z"/>
	<path class="st0" d="M410.1,401.7c-0.2,0-4.4,0.1-4.4,4.4v153c0,0.2,0.1,4.4,4.4,4.4h171c0.2,0,4.4-0.1,4.4-4.4v-153
		c0-0.2-0.1-4.4-4.4-4.4L410.1,401.7L410.1,401.7z"/>
</g>
<rect class="st0" width="612" height="792"/>
</svg>
