<?xml version="1.0" encoding="utf-8"?>
<!-- Generator: Adobe Illustrator 20.1.0, SVG Export Plug-In . SVG Version: 6.00 Build 0)  -->
<svg version="1.1" id="Layer_1" xmlns="http://www.w3.org/2000/svg" xmlns:xlink="http://www.w3.org/1999/xlink" x="0px" y="0px"
	 viewBox="0 0 612 792" style="enable-background:new 0 0 612 792;" xml:space="preserve">
<style type="text/css">
	.st0{fill:none;stroke:#000000;stroke-width:2;}
</style>
<g>
	<rect x="0" class="st0" width="612" height="792"/>
</g>
<g>
	<path class="st0" d="M207,388c0,2.5-2,4.5-4.5,4.5h-171c-2.5,0-4.5-2-4.5-4.5V73c0-2.5,2-4.5,4.5-4.5h171c2.5,0,4.5,2,4.5,4.5V388z
		"/>
	<path class="st0" d="M396.8,388c0,2.5-2,4.5-4.5,4.5h-171c-2.5,0-4.5-2-4.5-4.5V73c0-2.5,2-4.5,4.5-4.5h171c2.5,0,4.5,2,4.5,4.5
		V388z"/>
	<path class="st0" d="M586.7,388c0,2.5-2,4.5-4.5,4.5h-171c-2.5,0-4.5-2-4.5-4.5V73c0-2.5,2-4.5,4.5-4.5h171c2.5,0,4.5,2,4.5,4.5
		V388z"/>
</g>
<g>
	<path class="st0" d="M207,721c0,2.5-2,4.5-4.5,4.5h-171c-2.5,0-4.5-2-4.5-4.5V406c0-2.5,2-4.5,4.5-4.5h171c2.5,0,4.5,2,4.5,4.5V721
		z"/>
	<path class="st0" d="M396.8,721c0,2.5-2,4.5-4.5,4.5h-171c-2.5,0-4.5-2-4.5-4.5V406c0-2.5,2-4.5,4.5-4.5h171c2.5,0,4.5,2,4.5,4.5
		V721z"/>
	<path class="st0" d="M586.7,721c0,2.5-2,4.5-4.5,4.5h-171c-2.5,0-4.5-2-4.5-4.5V406c0-2.5,2-4.5,4.5-4.5h171c2.5,0,4.5,2,4.5,4.5
		V721z"/>
</g>
</svg>
