<?xml version="1.0" encoding="utf-8"?>
<!-- Generator: Adobe Illustrator 21.1.0, SVG Export Plug-In . SVG Version: 6.00 Build 0)  -->
<svg version="1.1" id="Template" xmlns="http://www.w3.org/2000/svg" xmlns:xlink="http://www.w3.org/1999/xlink" x="0px" y="0px"
	 viewBox="0 0 614 794" style="enable-background:new 0 0 614 794;" xml:space="preserve">
<style type="text/css">
	.st0{fill:none;stroke:#231F20;stroke-width:2;}
</style>
<title>SL689</title>
<path class="st0" d="M60.6,66.3h78.7c1.9,0,3.4,1.5,3.4,3.4v6.7c0,1.9-1.5,3.4-3.4,3.4H60.6c-1.9,0-3.4-1.5-3.4-3.4v-6.7
	C57.3,67.8,58.8,66.3,60.6,66.3z"/>
<path class="st0" d="M474.6,66.3h78.7c1.9,0,3.4,1.5,3.4,3.4v6.7c0,1.9-1.5,3.4-3.4,3.4h-78.7c-1.9,0-3.4-1.5-3.4-3.4v-6.7
	C471.3,67.8,472.8,66.3,474.6,66.3z"/>
<path class="st0" d="M371.1,66.3h78.7c1.9,0,3.4,1.5,3.4,3.4v6.7c0,1.9-1.5,3.4-3.4,3.4h-78.7c-1.9,0-3.4-1.5-3.4-3.4v-6.7
	C367.8,67.8,369.3,66.3,371.1,66.3z"/>
<path class="st0" d="M267.6,66.3h78.7c1.9,0,3.4,1.5,3.4,3.4v6.7c0,1.9-1.5,3.4-3.4,3.4h-78.7c-1.9,0-3.4-1.5-3.4-3.4v-6.7
	C264.3,67.8,265.8,66.3,267.6,66.3z"/>
<path class="st0" d="M164.1,66.3h78.7c1.9,0,3.4,1.5,3.4,3.4v6.7c0,1.9-1.5,3.4-3.4,3.4h-78.7c-1.9,0-3.4-1.5-3.4-3.4v-6.7
	C160.8,67.8,162.3,66.3,164.1,66.3z"/>
<path class="st0" d="M60.6,714.3h78.7c1.9,0,3.4,1.5,3.4,3.4v6.7c0,1.9-1.5,3.4-3.4,3.4H60.6c-1.9,0-3.4-1.5-3.4-3.4v-6.7
	C57.3,715.8,58.8,714.3,60.6,714.3z"/>
<path class="st0" d="M474.6,714.3h78.7c1.9,0,3.4,1.5,3.4,3.4v6.7c0,1.9-1.5,3.4-3.4,3.4h-78.7c-1.9,0-3.4-1.5-3.4-3.4v-6.7
	C471.3,715.8,472.8,714.3,474.6,714.3z"/>
<path class="st0" d="M371.1,714.3h78.7c1.9,0,3.4,1.5,3.4,3.4v6.7c0,1.9-1.5,3.4-3.4,3.4h-78.7c-1.9,0-3.4-1.5-3.4-3.4v-6.7
	C367.8,715.8,369.3,714.3,371.1,714.3z"/>
<path class="st0" d="M267.6,714.3h78.7c1.9,0,3.4,1.5,3.4,3.4v6.7c0,1.9-1.5,3.4-3.4,3.4h-78.7c-1.9,0-3.4-1.5-3.4-3.4v-6.7
	C264.3,715.8,265.8,714.3,267.6,714.3z"/>
<path class="st0" d="M164.1,714.3h78.7c1.9,0,3.4,1.5,3.4,3.4v6.7c0,1.9-1.5,3.4-3.4,3.4h-78.7c-1.9,0-3.4-1.5-3.4-3.4v-6.7
	C160.8,715.8,162.3,714.3,164.1,714.3z"/>
<path class="st0" d="M60.6,93.3h78.7c1.9,0,3.4,1.5,3.4,3.4v6.7c0,1.9-1.5,3.4-3.4,3.4H60.6c-1.9,0-3.4-1.5-3.4-3.4v-6.7
	C57.3,94.8,58.8,93.3,60.6,93.3z"/>
<path class="st0" d="M474.6,93.3h78.7c1.9,0,3.4,1.5,3.4,3.4v6.7c0,1.9-1.5,3.4-3.4,3.4h-78.7c-1.9,0-3.4-1.5-3.4-3.4v-6.7
	C471.3,94.8,472.8,93.3,474.6,93.3z"/>
<path class="st0" d="M371.1,93.3h78.7c1.9,0,3.4,1.5,3.4,3.4v6.7c0,1.9-1.5,3.4-3.4,3.4h-78.7c-1.9,0-3.4-1.5-3.4-3.4v-6.7
	C367.8,94.8,369.3,93.3,371.1,93.3z"/>
<path class="st0" d="M267.6,93.3h78.7c1.9,0,3.4,1.5,3.4,3.4v6.7c0,1.9-1.5,3.4-3.4,3.4h-78.7c-1.9,0-3.4-1.5-3.4-3.4v-6.7
	C264.3,94.8,265.8,93.3,267.6,93.3z"/>
<path class="st0" d="M164.1,93.3h78.7c1.9,0,3.4,1.5,3.4,3.4v6.7c0,1.9-1.5,3.4-3.4,3.4h-78.7c-1.9,0-3.4-1.5-3.4-3.4v-6.7
	C160.8,94.8,162.3,93.3,164.1,93.3z"/>
<path class="st0" d="M60.6,120.3h78.7c1.9,0,3.4,1.5,3.4,3.4v6.7c0,1.9-1.5,3.4-3.4,3.4H60.6c-1.9,0-3.4-1.5-3.4-3.4v-6.7
	C57.3,121.8,58.8,120.3,60.6,120.3z"/>
<path class="st0" d="M474.6,120.3h78.7c1.9,0,3.4,1.5,3.4,3.4v6.7c0,1.9-1.5,3.4-3.4,3.4h-78.7c-1.9,0-3.4-1.5-3.4-3.4v-6.7
	C471.3,121.8,472.8,120.3,474.6,120.3z"/>
<path class="st0" d="M371.1,120.3h78.7c1.9,0,3.4,1.5,3.4,3.4v6.7c0,1.9-1.5,3.4-3.4,3.4h-78.7c-1.9,0-3.4-1.5-3.4-3.4v-6.7
	C367.8,121.8,369.3,120.3,371.1,120.3z"/>
<path class="st0" d="M267.6,120.3h78.7c1.9,0,3.4,1.5,3.4,3.4v6.7c0,1.9-1.5,3.4-3.4,3.4h-78.7c-1.9,0-3.4-1.5-3.4-3.4v-6.7
	C264.3,121.8,265.8,120.3,267.6,120.3z"/>
<path class="st0" d="M164.1,120.3h78.7c1.9,0,3.4,1.5,3.4,3.4v6.7c0,1.9-1.5,3.4-3.4,3.4h-78.7c-1.9,0-3.4-1.5-3.4-3.4v-6.7
	C160.8,121.8,162.3,120.3,164.1,120.3z"/>
<path class="st0" d="M60.6,147.3h78.7c1.9,0,3.4,1.5,3.4,3.4v6.7c0,1.9-1.5,3.4-3.4,3.4H60.6c-1.9,0-3.4-1.5-3.4-3.4v-6.7
	C57.3,148.8,58.8,147.3,60.6,147.3z"/>
<path class="st0" d="M474.6,147.3h78.7c1.9,0,3.4,1.5,3.4,3.4v6.7c0,1.9-1.5,3.4-3.4,3.4h-78.7c-1.9,0-3.4-1.5-3.4-3.4v-6.7
	C471.3,148.8,472.8,147.3,474.6,147.3z"/>
<path class="st0" d="M371.1,147.3h78.7c1.9,0,3.4,1.5,3.4,3.4v6.7c0,1.9-1.5,3.4-3.4,3.4h-78.7c-1.9,0-3.4-1.5-3.4-3.4v-6.7
	C367.8,148.8,369.3,147.3,371.1,147.3z"/>
<path class="st0" d="M267.6,147.3h78.7c1.9,0,3.4,1.5,3.4,3.4v6.7c0,1.9-1.5,3.4-3.4,3.4h-78.7c-1.9,0-3.4-1.5-3.4-3.4v-6.7
	C264.3,148.8,265.8,147.3,267.6,147.3z"/>
<path class="st0" d="M164.1,147.3h78.7c1.9,0,3.4,1.5,3.4,3.4v6.7c0,1.9-1.5,3.4-3.4,3.4h-78.7c-1.9,0-3.4-1.5-3.4-3.4v-6.7
	C160.8,148.8,162.3,147.3,164.1,147.3z"/>
<path class="st0" d="M60.6,174.3h78.7c1.9,0,3.4,1.5,3.4,3.4v6.7c0,1.9-1.5,3.4-3.4,3.4H60.6c-1.9,0-3.4-1.5-3.4-3.4v-6.7
	C57.3,175.8,58.8,174.3,60.6,174.3z"/>
<path class="st0" d="M474.6,174.3h78.7c1.9,0,3.4,1.5,3.4,3.4v6.7c0,1.9-1.5,3.4-3.4,3.4h-78.7c-1.9,0-3.4-1.5-3.4-3.4v-6.7
	C471.3,175.8,472.8,174.3,474.6,174.3z"/>
<path class="st0" d="M371.1,174.3h78.7c1.9,0,3.4,1.5,3.4,3.4v6.7c0,1.9-1.5,3.4-3.4,3.4h-78.7c-1.9,0-3.4-1.5-3.4-3.4v-6.7
	C367.8,175.8,369.3,174.3,371.1,174.3z"/>
<path class="st0" d="M267.6,174.3h78.7c1.9,0,3.4,1.5,3.4,3.4v6.7c0,1.9-1.5,3.4-3.4,3.4h-78.7c-1.9,0-3.4-1.5-3.4-3.4v-6.7
	C264.3,175.8,265.8,174.3,267.6,174.3z"/>
<path class="st0" d="M164.1,174.3h78.7c1.9,0,3.4,1.5,3.4,3.4v6.7c0,1.9-1.5,3.4-3.4,3.4h-78.7c-1.9,0-3.4-1.5-3.4-3.4v-6.7
	C160.8,175.8,162.3,174.3,164.1,174.3z"/>
<path class="st0" d="M60.6,201.3h78.7c1.9,0,3.4,1.5,3.4,3.4v6.7c0,1.9-1.5,3.4-3.4,3.4H60.6c-1.9,0-3.4-1.5-3.4-3.4v-6.7
	C57.3,202.8,58.8,201.3,60.6,201.3z"/>
<path class="st0" d="M474.6,201.3h78.7c1.9,0,3.4,1.5,3.4,3.4v6.7c0,1.9-1.5,3.4-3.4,3.4h-78.7c-1.9,0-3.4-1.5-3.4-3.4v-6.7
	C471.3,202.8,472.8,201.3,474.6,201.3z"/>
<path class="st0" d="M371.1,201.3h78.7c1.9,0,3.4,1.5,3.4,3.4v6.7c0,1.9-1.5,3.4-3.4,3.4h-78.7c-1.9,0-3.4-1.5-3.4-3.4v-6.7
	C367.8,202.8,369.3,201.3,371.1,201.3z"/>
<path class="st0" d="M267.6,201.3h78.7c1.9,0,3.4,1.5,3.4,3.4v6.7c0,1.9-1.5,3.4-3.4,3.4h-78.7c-1.9,0-3.4-1.5-3.4-3.4v-6.7
	C264.3,202.8,265.8,201.3,267.6,201.3z"/>
<path class="st0" d="M164.1,201.3h78.7c1.9,0,3.4,1.5,3.4,3.4v6.7c0,1.9-1.5,3.4-3.4,3.4h-78.7c-1.9,0-3.4-1.5-3.4-3.4v-6.7
	C160.8,202.8,162.3,201.3,164.1,201.3z"/>
<path class="st0" d="M60.6,228.3h78.7c1.9,0,3.4,1.5,3.4,3.4v6.7c0,1.9-1.5,3.4-3.4,3.4H60.6c-1.9,0-3.4-1.5-3.4-3.4v-6.7
	C57.3,229.8,58.8,228.3,60.6,228.3z"/>
<path class="st0" d="M474.6,228.3h78.7c1.9,0,3.4,1.5,3.4,3.4v6.7c0,1.9-1.5,3.4-3.4,3.4h-78.7c-1.9,0-3.4-1.5-3.4-3.4v-6.7
	C471.3,229.8,472.8,228.3,474.6,228.3z"/>
<path class="st0" d="M371.1,228.3h78.7c1.9,0,3.4,1.5,3.4,3.4v6.7c0,1.9-1.5,3.4-3.4,3.4h-78.7c-1.9,0-3.4-1.5-3.4-3.4v-6.7
	C367.8,229.8,369.3,228.3,371.1,228.3z"/>
<path class="st0" d="M267.6,228.3h78.7c1.9,0,3.4,1.5,3.4,3.4v6.7c0,1.9-1.5,3.4-3.4,3.4h-78.7c-1.9,0-3.4-1.5-3.4-3.4v-6.7
	C264.3,229.8,265.8,228.3,267.6,228.3z"/>
<path class="st0" d="M164.1,228.3h78.7c1.9,0,3.4,1.5,3.4,3.4v6.7c0,1.9-1.5,3.4-3.4,3.4h-78.7c-1.9,0-3.4-1.5-3.4-3.4v-6.7
	C160.8,229.8,162.3,228.3,164.1,228.3z"/>
<path class="st0" d="M60.6,255.3h78.7c1.9,0,3.4,1.5,3.4,3.4v6.7c0,1.9-1.5,3.4-3.4,3.4H60.6c-1.9,0-3.4-1.5-3.4-3.4v-6.7
	C57.3,256.8,58.8,255.3,60.6,255.3z"/>
<path class="st0" d="M474.6,255.3h78.7c1.9,0,3.4,1.5,3.4,3.4v6.7c0,1.9-1.5,3.4-3.4,3.4h-78.7c-1.9,0-3.4-1.5-3.4-3.4v-6.7
	C471.3,256.8,472.8,255.3,474.6,255.3z"/>
<path class="st0" d="M371.1,255.3h78.7c1.9,0,3.4,1.5,3.4,3.4v6.7c0,1.9-1.5,3.4-3.4,3.4h-78.7c-1.9,0-3.4-1.5-3.4-3.4v-6.7
	C367.8,256.8,369.3,255.3,371.1,255.3z"/>
<path class="st0" d="M267.6,255.3h78.7c1.9,0,3.4,1.5,3.4,3.4v6.7c0,1.9-1.5,3.4-3.4,3.4h-78.7c-1.9,0-3.4-1.5-3.4-3.4v-6.7
	C264.3,256.8,265.8,255.3,267.6,255.3z"/>
<path class="st0" d="M164.1,255.3h78.7c1.9,0,3.4,1.5,3.4,3.4v6.7c0,1.9-1.5,3.4-3.4,3.4h-78.7c-1.9,0-3.4-1.5-3.4-3.4v-6.7
	C160.8,256.8,162.3,255.3,164.1,255.3z"/>
<path class="st0" d="M60.6,282.3h78.7c1.9,0,3.4,1.5,3.4,3.4v6.7c0,1.9-1.5,3.4-3.4,3.4H60.6c-1.9,0-3.4-1.5-3.4-3.4v-6.7
	C57.3,283.8,58.8,282.3,60.6,282.3z"/>
<path class="st0" d="M474.6,282.3h78.7c1.9,0,3.4,1.5,3.4,3.4v6.7c0,1.9-1.5,3.4-3.4,3.4h-78.7c-1.9,0-3.4-1.5-3.4-3.4v-6.7
	C471.3,283.8,472.8,282.3,474.6,282.3z"/>
<path class="st0" d="M371.1,282.3h78.7c1.9,0,3.4,1.5,3.4,3.4v6.7c0,1.9-1.5,3.4-3.4,3.4h-78.7c-1.9,0-3.4-1.5-3.4-3.4v-6.7
	C367.8,283.8,369.3,282.3,371.1,282.3z"/>
<path class="st0" d="M267.6,282.3h78.7c1.9,0,3.4,1.5,3.4,3.4v6.7c0,1.9-1.5,3.4-3.4,3.4h-78.7c-1.9,0-3.4-1.5-3.4-3.4v-6.7
	C264.3,283.8,265.8,282.3,267.6,282.3z"/>
<path class="st0" d="M164.1,282.3h78.7c1.9,0,3.4,1.5,3.4,3.4v6.7c0,1.9-1.5,3.4-3.4,3.4h-78.7c-1.9,0-3.4-1.5-3.4-3.4v-6.7
	C160.8,283.8,162.3,282.3,164.1,282.3z"/>
<path class="st0" d="M60.6,309.3h78.7c1.9,0,3.4,1.5,3.4,3.4v6.7c0,1.9-1.5,3.4-3.4,3.4H60.6c-1.9,0-3.4-1.5-3.4-3.4v-6.7
	C57.3,310.8,58.8,309.3,60.6,309.3z"/>
<path class="st0" d="M474.6,309.3h78.7c1.9,0,3.4,1.5,3.4,3.4v6.7c0,1.9-1.5,3.4-3.4,3.4h-78.7c-1.9,0-3.4-1.5-3.4-3.4v-6.7
	C471.3,310.8,472.8,309.3,474.6,309.3z"/>
<path class="st0" d="M371.1,309.3h78.7c1.9,0,3.4,1.5,3.4,3.4v6.7c0,1.9-1.5,3.4-3.4,3.4h-78.7c-1.9,0-3.4-1.5-3.4-3.4v-6.7
	C367.8,310.8,369.3,309.3,371.1,309.3z"/>
<path class="st0" d="M267.6,309.3h78.7c1.9,0,3.4,1.5,3.4,3.4v6.7c0,1.9-1.5,3.4-3.4,3.4h-78.7c-1.9,0-3.4-1.5-3.4-3.4v-6.7
	C264.3,310.8,265.8,309.3,267.6,309.3z"/>
<path class="st0" d="M164.1,309.3h78.7c1.9,0,3.4,1.5,3.4,3.4v6.7c0,1.9-1.5,3.4-3.4,3.4h-78.7c-1.9,0-3.4-1.5-3.4-3.4v-6.7
	C160.8,310.8,162.3,309.3,164.1,309.3z"/>
<path class="st0" d="M60.6,336.3h78.7c1.9,0,3.4,1.5,3.4,3.4v6.7c0,1.9-1.5,3.4-3.4,3.4H60.6c-1.9,0-3.4-1.5-3.4-3.4v-6.7
	C57.3,337.8,58.8,336.3,60.6,336.3z"/>
<path class="st0" d="M474.6,336.3h78.7c1.9,0,3.4,1.5,3.4,3.4v6.7c0,1.9-1.5,3.4-3.4,3.4h-78.7c-1.9,0-3.4-1.5-3.4-3.4v-6.7
	C471.3,337.8,472.8,336.3,474.6,336.3z"/>
<path class="st0" d="M371.1,336.3h78.7c1.9,0,3.4,1.5,3.4,3.4v6.7c0,1.9-1.5,3.4-3.4,3.4h-78.7c-1.9,0-3.4-1.5-3.4-3.4v-6.7
	C367.8,337.8,369.3,336.3,371.1,336.3z"/>
<path class="st0" d="M267.6,336.3h78.7c1.9,0,3.4,1.5,3.4,3.4v6.7c0,1.9-1.5,3.4-3.4,3.4h-78.7c-1.9,0-3.4-1.5-3.4-3.4v-6.7
	C264.3,337.8,265.8,336.3,267.6,336.3z"/>
<path class="st0" d="M164.1,336.3h78.7c1.9,0,3.4,1.5,3.4,3.4v6.7c0,1.9-1.5,3.4-3.4,3.4h-78.7c-1.9,0-3.4-1.5-3.4-3.4v-6.7
	C160.8,337.8,162.3,336.3,164.1,336.3z"/>
<path class="st0" d="M60.6,363.3h78.7c1.9,0,3.4,1.5,3.4,3.4v6.7c0,1.9-1.5,3.4-3.4,3.4H60.6c-1.9,0-3.4-1.5-3.4-3.4v-6.7
	C57.3,364.8,58.8,363.3,60.6,363.3z"/>
<path class="st0" d="M474.6,363.3h78.7c1.9,0,3.4,1.5,3.4,3.4v6.7c0,1.9-1.5,3.4-3.4,3.4h-78.7c-1.9,0-3.4-1.5-3.4-3.4v-6.7
	C471.3,364.8,472.8,363.3,474.6,363.3z"/>
<path class="st0" d="M371.1,363.3h78.7c1.9,0,3.4,1.5,3.4,3.4v6.7c0,1.9-1.5,3.4-3.4,3.4h-78.7c-1.9,0-3.4-1.5-3.4-3.4v-6.7
	C367.8,364.8,369.3,363.3,371.1,363.3z"/>
<path class="st0" d="M267.6,363.3h78.7c1.9,0,3.4,1.5,3.4,3.4v6.7c0,1.9-1.5,3.4-3.4,3.4h-78.7c-1.9,0-3.4-1.5-3.4-3.4v-6.7
	C264.3,364.8,265.8,363.3,267.6,363.3z"/>
<path class="st0" d="M164.1,363.3h78.7c1.9,0,3.4,1.5,3.4,3.4v6.7c0,1.9-1.5,3.4-3.4,3.4h-78.7c-1.9,0-3.4-1.5-3.4-3.4v-6.7
	C160.8,364.8,162.3,363.3,164.1,363.3z"/>
<path class="st0" d="M60.6,390.3h78.7c1.9,0,3.4,1.5,3.4,3.4v6.7c0,1.9-1.5,3.4-3.4,3.4H60.6c-1.9,0-3.4-1.5-3.4-3.4v-6.7
	C57.3,391.8,58.8,390.3,60.6,390.3z"/>
<path class="st0" d="M474.6,390.3h78.7c1.9,0,3.4,1.5,3.4,3.4v6.7c0,1.9-1.5,3.4-3.4,3.4h-78.7c-1.9,0-3.4-1.5-3.4-3.4v-6.7
	C471.3,391.8,472.8,390.3,474.6,390.3z"/>
<path class="st0" d="M371.1,390.3h78.7c1.9,0,3.4,1.5,3.4,3.4v6.7c0,1.9-1.5,3.4-3.4,3.4h-78.7c-1.9,0-3.4-1.5-3.4-3.4v-6.7
	C367.8,391.8,369.3,390.3,371.1,390.3z"/>
<path class="st0" d="M267.6,390.3h78.7c1.9,0,3.4,1.5,3.4,3.4v6.7c0,1.9-1.5,3.4-3.4,3.4h-78.7c-1.9,0-3.4-1.5-3.4-3.4v-6.7
	C264.3,391.8,265.8,390.3,267.6,390.3z"/>
<path class="st0" d="M164.1,390.3h78.7c1.9,0,3.4,1.5,3.4,3.4v6.7c0,1.9-1.5,3.4-3.4,3.4h-78.7c-1.9,0-3.4-1.5-3.4-3.4v-6.7
	C160.8,391.8,162.3,390.3,164.1,390.3z"/>
<path class="st0" d="M60.6,417.3h78.7c1.9,0,3.4,1.5,3.4,3.4v6.7c0,1.9-1.5,3.4-3.4,3.4H60.6c-1.9,0-3.4-1.5-3.4-3.4v-6.7
	C57.3,418.8,58.8,417.3,60.6,417.3z"/>
<path class="st0" d="M474.6,417.3h78.7c1.9,0,3.4,1.5,3.4,3.4v6.7c0,1.9-1.5,3.4-3.4,3.4h-78.7c-1.9,0-3.4-1.5-3.4-3.4v-6.7
	C471.3,418.8,472.8,417.3,474.6,417.3z"/>
<path class="st0" d="M371.1,417.3h78.7c1.9,0,3.4,1.5,3.4,3.4v6.7c0,1.9-1.5,3.4-3.4,3.4h-78.7c-1.9,0-3.4-1.5-3.4-3.4v-6.7
	C367.8,418.8,369.3,417.3,371.1,417.3z"/>
<path class="st0" d="M267.6,417.3h78.7c1.9,0,3.4,1.5,3.4,3.4v6.7c0,1.9-1.5,3.4-3.4,3.4h-78.7c-1.9,0-3.4-1.5-3.4-3.4v-6.7
	C264.3,418.8,265.8,417.3,267.6,417.3z"/>
<path class="st0" d="M164.1,417.3h78.7c1.9,0,3.4,1.5,3.4,3.4v6.7c0,1.9-1.5,3.4-3.4,3.4h-78.7c-1.9,0-3.4-1.5-3.4-3.4v-6.7
	C160.8,418.8,162.3,417.3,164.1,417.3z"/>
<path class="st0" d="M60.6,444.3h78.7c1.9,0,3.4,1.5,3.4,3.4v6.7c0,1.9-1.5,3.4-3.4,3.4H60.6c-1.9,0-3.4-1.5-3.4-3.4v-6.7
	C57.3,445.8,58.8,444.3,60.6,444.3z"/>
<path class="st0" d="M474.6,444.3h78.7c1.9,0,3.4,1.5,3.4,3.4v6.7c0,1.9-1.5,3.4-3.4,3.4h-78.7c-1.9,0-3.4-1.5-3.4-3.4v-6.7
	C471.3,445.8,472.8,444.3,474.6,444.3z"/>
<path class="st0" d="M371.1,444.3h78.7c1.9,0,3.4,1.5,3.4,3.4v6.7c0,1.9-1.5,3.4-3.4,3.4h-78.7c-1.9,0-3.4-1.5-3.4-3.4v-6.7
	C367.8,445.8,369.3,444.3,371.1,444.3z"/>
<path class="st0" d="M267.6,444.3h78.7c1.9,0,3.4,1.5,3.4,3.4v6.7c0,1.9-1.5,3.4-3.4,3.4h-78.7c-1.9,0-3.4-1.5-3.4-3.4v-6.7
	C264.3,445.8,265.8,444.3,267.6,444.3z"/>
<path class="st0" d="M164.1,444.3h78.7c1.9,0,3.4,1.5,3.4,3.4v6.7c0,1.9-1.5,3.4-3.4,3.4h-78.7c-1.9,0-3.4-1.5-3.4-3.4v-6.7
	C160.8,445.8,162.3,444.3,164.1,444.3z"/>
<path class="st0" d="M60.6,471.3h78.7c1.9,0,3.4,1.5,3.4,3.4v6.7c0,1.9-1.5,3.4-3.4,3.4H60.6c-1.9,0-3.4-1.5-3.4-3.4v-6.7
	C57.3,472.8,58.8,471.3,60.6,471.3z"/>
<path class="st0" d="M474.6,471.3h78.7c1.9,0,3.4,1.5,3.4,3.4v6.7c0,1.9-1.5,3.4-3.4,3.4h-78.7c-1.9,0-3.4-1.5-3.4-3.4v-6.7
	C471.3,472.8,472.8,471.3,474.6,471.3z"/>
<path class="st0" d="M371.1,471.3h78.7c1.9,0,3.4,1.5,3.4,3.4v6.7c0,1.9-1.5,3.4-3.4,3.4h-78.7c-1.9,0-3.4-1.5-3.4-3.4v-6.7
	C367.8,472.8,369.3,471.3,371.1,471.3z"/>
<path class="st0" d="M267.6,471.3h78.7c1.9,0,3.4,1.5,3.4,3.4v6.7c0,1.9-1.5,3.4-3.4,3.4h-78.7c-1.9,0-3.4-1.5-3.4-3.4v-6.7
	C264.3,472.8,265.8,471.3,267.6,471.3z"/>
<path class="st0" d="M164.1,471.3h78.7c1.9,0,3.4,1.5,3.4,3.4v6.7c0,1.9-1.5,3.4-3.4,3.4h-78.7c-1.9,0-3.4-1.5-3.4-3.4v-6.7
	C160.8,472.8,162.3,471.3,164.1,471.3z"/>
<path class="st0" d="M60.6,498.3h78.7c1.9,0,3.4,1.5,3.4,3.4v6.7c0,1.9-1.5,3.4-3.4,3.4H60.6c-1.9,0-3.4-1.5-3.4-3.4v-6.7
	C57.3,499.8,58.8,498.3,60.6,498.3z"/>
<path class="st0" d="M474.6,498.3h78.7c1.9,0,3.4,1.5,3.4,3.4v6.7c0,1.9-1.5,3.4-3.4,3.4h-78.7c-1.9,0-3.4-1.5-3.4-3.4v-6.7
	C471.3,499.8,472.8,498.3,474.6,498.3z"/>
<path class="st0" d="M371.1,498.3h78.7c1.9,0,3.4,1.5,3.4,3.4v6.7c0,1.9-1.5,3.4-3.4,3.4h-78.7c-1.9,0-3.4-1.5-3.4-3.4v-6.7
	C367.8,499.8,369.3,498.3,371.1,498.3z"/>
<path class="st0" d="M267.6,498.3h78.7c1.9,0,3.4,1.5,3.4,3.4v6.7c0,1.9-1.5,3.4-3.4,3.4h-78.7c-1.9,0-3.4-1.5-3.4-3.4v-6.7
	C264.3,499.8,265.8,498.3,267.6,498.3z"/>
<path class="st0" d="M164.1,498.3h78.7c1.9,0,3.4,1.5,3.4,3.4v6.7c0,1.9-1.5,3.4-3.4,3.4h-78.7c-1.9,0-3.4-1.5-3.4-3.4v-6.7
	C160.8,499.8,162.3,498.3,164.1,498.3z"/>
<path class="st0" d="M60.6,525.3h78.7c1.9,0,3.4,1.5,3.4,3.4v6.7c0,1.9-1.5,3.4-3.4,3.4H60.6c-1.9,0-3.4-1.5-3.4-3.4v-6.7
	C57.3,526.8,58.8,525.3,60.6,525.3z"/>
<path class="st0" d="M474.6,525.3h78.7c1.9,0,3.4,1.5,3.4,3.4v6.7c0,1.9-1.5,3.4-3.4,3.4h-78.7c-1.9,0-3.4-1.5-3.4-3.4v-6.7
	C471.3,526.8,472.8,525.3,474.6,525.3z"/>
<path class="st0" d="M371.1,525.3h78.7c1.9,0,3.4,1.5,3.4,3.4v6.7c0,1.9-1.5,3.4-3.4,3.4h-78.7c-1.9,0-3.4-1.5-3.4-3.4v-6.7
	C367.8,526.8,369.3,525.3,371.1,525.3z"/>
<path class="st0" d="M267.6,525.3h78.7c1.9,0,3.4,1.5,3.4,3.4v6.7c0,1.9-1.5,3.4-3.4,3.4h-78.7c-1.9,0-3.4-1.5-3.4-3.4v-6.7
	C264.3,526.8,265.8,525.3,267.6,525.3z"/>
<path class="st0" d="M164.1,525.3h78.7c1.9,0,3.4,1.5,3.4,3.4v6.7c0,1.9-1.5,3.4-3.4,3.4h-78.7c-1.9,0-3.4-1.5-3.4-3.4v-6.7
	C160.8,526.8,162.3,525.3,164.1,525.3z"/>
<path class="st0" d="M60.6,552.3h78.7c1.9,0,3.4,1.5,3.4,3.4v6.7c0,1.9-1.5,3.4-3.4,3.4H60.6c-1.9,0-3.4-1.5-3.4-3.4v-6.7
	C57.3,553.8,58.8,552.3,60.6,552.3z"/>
<path class="st0" d="M474.6,552.3h78.7c1.9,0,3.4,1.5,3.4,3.4v6.7c0,1.9-1.5,3.4-3.4,3.4h-78.7c-1.9,0-3.4-1.5-3.4-3.4v-6.7
	C471.3,553.8,472.8,552.3,474.6,552.3z"/>
<path class="st0" d="M371.1,552.3h78.7c1.9,0,3.4,1.5,3.4,3.4v6.7c0,1.9-1.5,3.4-3.4,3.4h-78.7c-1.9,0-3.4-1.5-3.4-3.4v-6.7
	C367.8,553.8,369.3,552.3,371.1,552.3z"/>
<path class="st0" d="M267.6,552.3h78.7c1.9,0,3.4,1.5,3.4,3.4v6.7c0,1.9-1.5,3.4-3.4,3.4h-78.7c-1.9,0-3.4-1.5-3.4-3.4v-6.7
	C264.3,553.8,265.8,552.3,267.6,552.3z"/>
<path class="st0" d="M164.1,552.3h78.7c1.9,0,3.4,1.5,3.4,3.4v6.7c0,1.9-1.5,3.4-3.4,3.4h-78.7c-1.9,0-3.4-1.5-3.4-3.4v-6.7
	C160.8,553.8,162.3,552.3,164.1,552.3z"/>
<path class="st0" d="M60.6,579.3h78.7c1.9,0,3.4,1.5,3.4,3.4v6.7c0,1.9-1.5,3.4-3.4,3.4H60.6c-1.9,0-3.4-1.5-3.4-3.4v-6.7
	C57.3,580.8,58.8,579.3,60.6,579.3z"/>
<path class="st0" d="M474.6,579.3h78.7c1.9,0,3.4,1.5,3.4,3.4v6.7c0,1.9-1.5,3.4-3.4,3.4h-78.7c-1.9,0-3.4-1.5-3.4-3.4v-6.7
	C471.3,580.8,472.8,579.3,474.6,579.3z"/>
<path class="st0" d="M371.1,579.3h78.7c1.9,0,3.4,1.5,3.4,3.4v6.7c0,1.9-1.5,3.4-3.4,3.4h-78.7c-1.9,0-3.4-1.5-3.4-3.4v-6.7
	C367.8,580.8,369.3,579.3,371.1,579.3z"/>
<path class="st0" d="M267.6,579.3h78.7c1.9,0,3.4,1.5,3.4,3.4v6.7c0,1.9-1.5,3.4-3.4,3.4h-78.7c-1.9,0-3.4-1.5-3.4-3.4v-6.7
	C264.3,580.8,265.8,579.3,267.6,579.3z"/>
<path class="st0" d="M164.1,579.3h78.7c1.9,0,3.4,1.5,3.4,3.4v6.7c0,1.9-1.5,3.4-3.4,3.4h-78.7c-1.9,0-3.4-1.5-3.4-3.4v-6.7
	C160.8,580.8,162.3,579.3,164.1,579.3z"/>
<path class="st0" d="M60.6,606.3h78.7c1.9,0,3.4,1.5,3.4,3.4v6.7c0,1.9-1.5,3.4-3.4,3.4H60.6c-1.9,0-3.4-1.5-3.4-3.4v-6.7
	C57.3,607.8,58.8,606.3,60.6,606.3z"/>
<path class="st0" d="M474.6,606.3h78.7c1.9,0,3.4,1.5,3.4,3.4v6.7c0,1.9-1.5,3.4-3.4,3.4h-78.7c-1.9,0-3.4-1.5-3.4-3.4v-6.7
	C471.3,607.8,472.8,606.3,474.6,606.3z"/>
<path class="st0" d="M371.1,606.3h78.7c1.9,0,3.4,1.5,3.4,3.4v6.7c0,1.9-1.5,3.4-3.4,3.4h-78.7c-1.9,0-3.4-1.5-3.4-3.4v-6.7
	C367.8,607.8,369.3,606.3,371.1,606.3z"/>
<path class="st0" d="M267.6,606.3h78.7c1.9,0,3.4,1.5,3.4,3.4v6.7c0,1.9-1.5,3.4-3.4,3.4h-78.7c-1.9,0-3.4-1.5-3.4-3.4v-6.7
	C264.3,607.8,265.8,606.3,267.6,606.3z"/>
<path class="st0" d="M164.1,606.3h78.7c1.9,0,3.4,1.5,3.4,3.4v6.7c0,1.9-1.5,3.4-3.4,3.4h-78.7c-1.9,0-3.4-1.5-3.4-3.4v-6.7
	C160.8,607.8,162.3,606.3,164.1,606.3z"/>
<path class="st0" d="M60.6,633.3h78.7c1.9,0,3.4,1.5,3.4,3.4v6.7c0,1.9-1.5,3.4-3.4,3.4H60.6c-1.9,0-3.4-1.5-3.4-3.4v-6.7
	C57.3,634.8,58.8,633.3,60.6,633.3z"/>
<path class="st0" d="M474.6,633.3h78.7c1.9,0,3.4,1.5,3.4,3.4v6.7c0,1.9-1.5,3.4-3.4,3.4h-78.7c-1.9,0-3.4-1.5-3.4-3.4v-6.7
	C471.3,634.8,472.8,633.3,474.6,633.3z"/>
<path class="st0" d="M371.1,633.3h78.7c1.9,0,3.4,1.5,3.4,3.4v6.7c0,1.9-1.5,3.4-3.4,3.4h-78.7c-1.9,0-3.4-1.5-3.4-3.4v-6.7
	C367.8,634.8,369.3,633.3,371.1,633.3z"/>
<path class="st0" d="M267.6,633.3h78.7c1.9,0,3.4,1.5,3.4,3.4v6.7c0,1.9-1.5,3.4-3.4,3.4h-78.7c-1.9,0-3.4-1.5-3.4-3.4v-6.7
	C264.3,634.8,265.8,633.3,267.6,633.3z"/>
<path class="st0" d="M164.1,633.3h78.7c1.9,0,3.4,1.5,3.4,3.4v6.7c0,1.9-1.5,3.4-3.4,3.4h-78.7c-1.9,0-3.4-1.5-3.4-3.4v-6.7
	C160.8,634.8,162.3,633.3,164.1,633.3z"/>
<path class="st0" d="M60.6,660.3h78.7c1.9,0,3.4,1.5,3.4,3.4v6.7c0,1.9-1.5,3.4-3.4,3.4H60.6c-1.9,0-3.4-1.5-3.4-3.4v-6.7
	C57.3,661.8,58.8,660.3,60.6,660.3z"/>
<path class="st0" d="M474.6,660.3h78.7c1.9,0,3.4,1.5,3.4,3.4v6.7c0,1.9-1.5,3.4-3.4,3.4h-78.7c-1.9,0-3.4-1.5-3.4-3.4v-6.7
	C471.3,661.8,472.8,660.3,474.6,660.3z"/>
<path class="st0" d="M371.1,660.3h78.7c1.9,0,3.4,1.5,3.4,3.4v6.7c0,1.9-1.5,3.4-3.4,3.4h-78.7c-1.9,0-3.4-1.5-3.4-3.4v-6.7
	C367.8,661.8,369.3,660.3,371.1,660.3z"/>
<path class="st0" d="M267.6,660.3h78.7c1.9,0,3.4,1.5,3.4,3.4v6.7c0,1.9-1.5,3.4-3.4,3.4h-78.7c-1.9,0-3.4-1.5-3.4-3.4v-6.7
	C264.3,661.8,265.8,660.3,267.6,660.3z"/>
<path class="st0" d="M164.1,660.3h78.7c1.9,0,3.4,1.5,3.4,3.4v6.7c0,1.9-1.5,3.4-3.4,3.4h-78.7c-1.9,0-3.4-1.5-3.4-3.4v-6.7
	C160.8,661.8,162.3,660.3,164.1,660.3z"/>
<path class="st0" d="M60.6,687.3h78.7c1.9,0,3.4,1.5,3.4,3.4v6.7c0,1.9-1.5,3.4-3.4,3.4H60.6c-1.9,0-3.4-1.5-3.4-3.4v-6.7
	C57.3,688.8,58.8,687.3,60.6,687.3z"/>
<path class="st0" d="M474.6,687.3h78.7c1.9,0,3.4,1.5,3.4,3.4v6.7c0,1.9-1.5,3.4-3.4,3.4h-78.7c-1.9,0-3.4-1.5-3.4-3.4v-6.7
	C471.3,688.8,472.8,687.3,474.6,687.3z"/>
<path class="st0" d="M371.1,687.3h78.7c1.9,0,3.4,1.5,3.4,3.4v6.7c0,1.9-1.5,3.4-3.4,3.4h-78.7c-1.9,0-3.4-1.5-3.4-3.4v-6.7
	C367.8,688.8,369.3,687.3,371.1,687.3z"/>
<path class="st0" d="M267.6,687.3h78.7c1.9,0,3.4,1.5,3.4,3.4v6.7c0,1.9-1.5,3.4-3.4,3.4h-78.7c-1.9,0-3.4-1.5-3.4-3.4v-6.7
	C264.3,688.8,265.8,687.3,267.6,687.3z"/>
<path class="st0" d="M164.1,687.3h78.7c1.9,0,3.4,1.5,3.4,3.4v6.7c0,1.9-1.5,3.4-3.4,3.4h-78.7c-1.9,0-3.4-1.5-3.4-3.4v-6.7
	C160.8,688.8,162.3,687.3,164.1,687.3z"/>
<rect x="1" y="1" class="st0" width="612" height="792"/>
</svg>
