<?xml version="1.0" encoding="utf-8"?>
<!-- Generator: Adobe Illustrator 21.1.0, SVG Export Plug-In . SVG Version: 6.00 Build 0)  -->
<svg version="1.1" id="Layer_1" xmlns="http://www.w3.org/2000/svg" xmlns:xlink="http://www.w3.org/1999/xlink" x="0px" y="0px"
	 viewBox="0 0 614 794" style="enable-background:new 0 0 614 794;" xml:space="preserve">
<style type="text/css">
	.st0{fill:none;stroke:#231F20;stroke-width:2;}
</style>
<title>SL695</title>
<path class="st0" d="M41,38h65.2c1.9,0,3.4,1.5,3.4,3.4v20.2c0,1.9-1.5,3.4-3.4,3.4H41c-1.9,0-3.4-1.5-3.4-3.4V41.4
	C37.7,39.5,39.2,38,41,38z"/>
<path class="st0" d="M509,38h65.2c1.9,0,3.4,1.5,3.4,3.4v20.2c0,1.9-1.5,3.4-3.4,3.4H509c-1.9,0-3.4-1.5-3.4-3.4V41.4
	C505.7,39.5,507.2,38,509,38z"/>
<path class="st0" d="M415.4,38h65.2c1.9,0,3.4,1.5,3.4,3.4v20.2c0,1.9-1.5,3.4-3.4,3.4h-65.2c-1.9,0-3.4-1.5-3.4-3.4V41.4
	C412.1,39.5,413.6,38,415.4,38z"/>
<path class="st0" d="M321.8,38H387c1.9,0,3.4,1.5,3.4,3.4v20.2c0,1.9-1.5,3.4-3.4,3.4h-65.2c-1.9,0-3.4-1.5-3.4-3.4V41.4
	C318.5,39.5,320,38,321.8,38z"/>
<path class="st0" d="M228.2,38h65.2c1.9,0,3.4,1.5,3.4,3.4v20.2c0,1.9-1.5,3.4-3.4,3.4h-65.2c-1.9,0-3.4-1.5-3.4-3.4V41.4
	C224.9,39.5,226.4,38,228.2,38z"/>
<path class="st0" d="M134.6,38h65.2c1.9,0,3.4,1.5,3.4,3.4v20.2c0,1.9-1.5,3.4-3.4,3.4h-65.2c-1.9,0-3.4-1.5-3.4-3.4V41.4
	C131.3,39.5,132.8,38,134.6,38z"/>
<path class="st0" d="M41,731h65.2c1.9,0,3.4,1.5,3.4,3.4v20.2c0,1.9-1.5,3.4-3.4,3.4H41c-1.9,0-3.4-1.5-3.4-3.4v-20.2
	C37.7,732.5,39.2,731,41,731z"/>
<path class="st0" d="M509,731h65.2c1.9,0,3.4,1.5,3.4,3.4v20.2c0,1.9-1.5,3.4-3.4,3.4H509c-1.9,0-3.4-1.5-3.4-3.4v-20.2
	C505.7,732.5,507.2,731,509,731z"/>
<path class="st0" d="M415.4,731h65.2c1.9,0,3.4,1.5,3.4,3.4v20.2c0,1.9-1.5,3.4-3.4,3.4h-65.2c-1.9,0-3.4-1.5-3.4-3.4v-20.2
	C412.1,732.5,413.6,731,415.4,731z"/>
<path class="st0" d="M321.8,731H387c1.9,0,3.4,1.5,3.4,3.4v20.2c0,1.9-1.5,3.4-3.4,3.4h-65.2c-1.9,0-3.4-1.5-3.4-3.4v-20.2
	C318.5,732.5,320,731,321.8,731z"/>
<path class="st0" d="M228.2,731h65.2c1.9,0,3.4,1.5,3.4,3.4v20.2c0,1.9-1.5,3.4-3.4,3.4h-65.2c-1.9,0-3.4-1.5-3.4-3.4v-20.2
	C224.9,732.5,226.4,731,228.2,731z"/>
<path class="st0" d="M134.6,731h65.2c1.9,0,3.4,1.5,3.4,3.4v20.2c0,1.9-1.5,3.4-3.4,3.4h-65.2c-1.9,0-3.4-1.5-3.4-3.4v-20.2
	C131.3,732.5,132.8,731,134.6,731z"/>
<path class="st0" d="M41,74.5h65.2c1.9,0,3.4,1.5,3.4,3.4v20.2c0,1.9-1.5,3.4-3.4,3.4H41c-1.9,0-3.4-1.5-3.4-3.4V77.9
	C37.7,76,39.2,74.5,41,74.5z"/>
<path class="st0" d="M509,74.5h65.2c1.9,0,3.4,1.5,3.4,3.4v20.2c0,1.9-1.5,3.4-3.4,3.4H509c-1.9,0-3.4-1.5-3.4-3.4V77.9
	C505.7,76,507.2,74.5,509,74.5z"/>
<path class="st0" d="M415.4,74.5h65.2c1.9,0,3.4,1.5,3.4,3.4v20.2c0,1.9-1.5,3.4-3.4,3.4h-65.2c-1.9,0-3.4-1.5-3.4-3.4V77.9
	C412.1,76,413.6,74.5,415.4,74.5z"/>
<path class="st0" d="M321.8,74.5H387c1.9,0,3.4,1.5,3.4,3.4v20.2c0,1.9-1.5,3.4-3.4,3.4h-65.2c-1.9,0-3.4-1.5-3.4-3.4V77.9
	C318.5,76,320,74.5,321.8,74.5z"/>
<path class="st0" d="M228.2,74.5h65.2c1.9,0,3.4,1.5,3.4,3.4v20.2c0,1.9-1.5,3.4-3.4,3.4h-65.2c-1.9,0-3.4-1.5-3.4-3.4V77.9
	C224.9,76,226.4,74.5,228.2,74.5z"/>
<path class="st0" d="M134.6,74.5h65.2c1.9,0,3.4,1.5,3.4,3.4v20.2c0,1.9-1.5,3.4-3.4,3.4h-65.2c-1.9,0-3.4-1.5-3.4-3.4V77.9
	C131.3,76,132.8,74.5,134.6,74.5z"/>
<path class="st0" d="M41,111h65.2c1.9,0,3.4,1.5,3.4,3.4v20.2c0,1.9-1.5,3.4-3.4,3.4H41c-1.9,0-3.4-1.5-3.4-3.4v-20.2
	C37.7,112.5,39.2,111,41,111z"/>
<path class="st0" d="M509,111h65.2c1.9,0,3.4,1.5,3.4,3.4v20.2c0,1.9-1.5,3.4-3.4,3.4H509c-1.9,0-3.4-1.5-3.4-3.4v-20.2
	C505.7,112.5,507.2,111,509,111z"/>
<path class="st0" d="M415.4,111h65.2c1.9,0,3.4,1.5,3.4,3.4v20.2c0,1.9-1.5,3.4-3.4,3.4h-65.2c-1.9,0-3.4-1.5-3.4-3.4v-20.2
	C412.1,112.5,413.6,111,415.4,111z"/>
<path class="st0" d="M321.8,111H387c1.9,0,3.4,1.5,3.4,3.4v20.2c0,1.9-1.5,3.4-3.4,3.4h-65.2c-1.9,0-3.4-1.5-3.4-3.4v-20.2
	C318.5,112.5,320,111,321.8,111z"/>
<path class="st0" d="M228.2,111h65.2c1.9,0,3.4,1.5,3.4,3.4v20.2c0,1.9-1.5,3.4-3.4,3.4h-65.2c-1.9,0-3.4-1.5-3.4-3.4v-20.2
	C224.9,112.5,226.4,111,228.2,111z"/>
<path class="st0" d="M134.6,111h65.2c1.9,0,3.4,1.5,3.4,3.4v20.2c0,1.9-1.5,3.4-3.4,3.4h-65.2c-1.9,0-3.4-1.5-3.4-3.4v-20.2
	C131.3,112.5,132.8,111,134.6,111z"/>
<path class="st0" d="M41,147.4h65.2c1.9,0,3.4,1.5,3.4,3.4V171c0,1.9-1.5,3.4-3.4,3.4H41c-1.9,0-3.4-1.5-3.4-3.4v-20.2
	C37.7,148.9,39.2,147.4,41,147.4z"/>
<path class="st0" d="M509,147.4h65.2c1.9,0,3.4,1.5,3.4,3.4V171c0,1.9-1.5,3.4-3.4,3.4H509c-1.9,0-3.4-1.5-3.4-3.4v-20.2
	C505.7,148.9,507.2,147.4,509,147.4z"/>
<path class="st0" d="M415.4,147.4h65.2c1.9,0,3.4,1.5,3.4,3.4V171c0,1.9-1.5,3.4-3.4,3.4h-65.2c-1.9,0-3.4-1.5-3.4-3.4v-20.2
	C412.1,148.9,413.6,147.4,415.4,147.4z"/>
<path class="st0" d="M321.8,147.4H387c1.9,0,3.4,1.5,3.4,3.4V171c0,1.9-1.5,3.4-3.4,3.4h-65.2c-1.9,0-3.4-1.5-3.4-3.4v-20.2
	C318.5,148.9,320,147.4,321.8,147.4z"/>
<path class="st0" d="M228.2,147.4h65.2c1.9,0,3.4,1.5,3.4,3.4V171c0,1.9-1.5,3.4-3.4,3.4h-65.2c-1.9,0-3.4-1.5-3.4-3.4v-20.2
	C224.9,148.9,226.4,147.4,228.2,147.4z"/>
<path class="st0" d="M134.6,147.4h65.2c1.9,0,3.4,1.5,3.4,3.4V171c0,1.9-1.5,3.4-3.4,3.4h-65.2c-1.9,0-3.4-1.5-3.4-3.4v-20.2
	C131.3,148.9,132.8,147.4,134.6,147.4z"/>
<path class="st0" d="M41,183.9h65.2c1.9,0,3.4,1.5,3.4,3.4v20.2c0,1.9-1.5,3.4-3.4,3.4H41c-1.9,0-3.4-1.5-3.4-3.4v-20.2
	C37.7,185.4,39.2,183.9,41,183.9z"/>
<path class="st0" d="M509,183.9h65.2c1.9,0,3.4,1.5,3.4,3.4v20.2c0,1.9-1.5,3.4-3.4,3.4H509c-1.9,0-3.4-1.5-3.4-3.4v-20.2
	C505.7,185.4,507.2,183.9,509,183.9z"/>
<path class="st0" d="M415.4,183.9h65.2c1.9,0,3.4,1.5,3.4,3.4v20.2c0,1.9-1.5,3.4-3.4,3.4h-65.2c-1.9,0-3.4-1.5-3.4-3.4v-20.2
	C412.1,185.4,413.6,183.9,415.4,183.9z"/>
<path class="st0" d="M321.8,183.9H387c1.9,0,3.4,1.5,3.4,3.4v20.2c0,1.9-1.5,3.4-3.4,3.4h-65.2c-1.9,0-3.4-1.5-3.4-3.4v-20.2
	C318.5,185.4,320,183.9,321.8,183.9z"/>
<path class="st0" d="M228.2,183.9h65.2c1.9,0,3.4,1.5,3.4,3.4v20.2c0,1.9-1.5,3.4-3.4,3.4h-65.2c-1.9,0-3.4-1.5-3.4-3.4v-20.2
	C224.9,185.4,226.4,183.9,228.2,183.9z"/>
<path class="st0" d="M134.6,183.9h65.2c1.9,0,3.4,1.5,3.4,3.4v20.2c0,1.9-1.5,3.4-3.4,3.4h-65.2c-1.9,0-3.4-1.5-3.4-3.4v-20.2
	C131.3,185.4,132.8,183.9,134.6,183.9z"/>
<path class="st0" d="M41,220.4h65.2c1.9,0,3.4,1.5,3.4,3.4V244c0,1.9-1.5,3.4-3.4,3.4H41c-1.9,0-3.4-1.5-3.4-3.4v-20.2
	C37.7,221.9,39.2,220.4,41,220.4z"/>
<path class="st0" d="M509,220.4h65.2c1.9,0,3.4,1.5,3.4,3.4V244c0,1.9-1.5,3.4-3.4,3.4H509c-1.9,0-3.4-1.5-3.4-3.4v-20.2
	C505.7,221.9,507.2,220.4,509,220.4z"/>
<path class="st0" d="M415.4,220.4h65.2c1.9,0,3.4,1.5,3.4,3.4V244c0,1.9-1.5,3.4-3.4,3.4h-65.2c-1.9,0-3.4-1.5-3.4-3.4v-20.2
	C412.1,221.9,413.6,220.4,415.4,220.4z"/>
<path class="st0" d="M321.8,220.4H387c1.9,0,3.4,1.5,3.4,3.4V244c0,1.9-1.5,3.4-3.4,3.4h-65.2c-1.9,0-3.4-1.5-3.4-3.4v-20.2
	C318.5,221.9,320,220.4,321.8,220.4z"/>
<path class="st0" d="M228.2,220.4h65.2c1.9,0,3.4,1.5,3.4,3.4V244c0,1.9-1.5,3.4-3.4,3.4h-65.2c-1.9,0-3.4-1.5-3.4-3.4v-20.2
	C224.9,221.9,226.4,220.4,228.2,220.4z"/>
<path class="st0" d="M134.6,220.4h65.2c1.9,0,3.4,1.5,3.4,3.4V244c0,1.9-1.5,3.4-3.4,3.4h-65.2c-1.9,0-3.4-1.5-3.4-3.4v-20.2
	C131.3,221.9,132.8,220.4,134.6,220.4z"/>
<path class="st0" d="M41,256.9h65.2c1.9,0,3.4,1.5,3.4,3.4v20.2c0,1.9-1.5,3.4-3.4,3.4H41c-1.9,0-3.4-1.5-3.4-3.4v-20.2
	C37.7,258.4,39.2,256.9,41,256.9z"/>
<path class="st0" d="M509,256.9h65.2c1.9,0,3.4,1.5,3.4,3.4v20.2c0,1.9-1.5,3.4-3.4,3.4H509c-1.9,0-3.4-1.5-3.4-3.4v-20.2
	C505.7,258.4,507.2,256.9,509,256.9z"/>
<path class="st0" d="M415.4,256.9h65.2c1.9,0,3.4,1.5,3.4,3.4v20.2c0,1.9-1.5,3.4-3.4,3.4h-65.2c-1.9,0-3.4-1.5-3.4-3.4v-20.2
	C412.1,258.4,413.6,256.9,415.4,256.9z"/>
<path class="st0" d="M321.8,256.9H387c1.9,0,3.4,1.5,3.4,3.4v20.2c0,1.9-1.5,3.4-3.4,3.4h-65.2c-1.9,0-3.4-1.5-3.4-3.4v-20.2
	C318.5,258.4,320,256.9,321.8,256.9z"/>
<path class="st0" d="M228.2,256.9h65.2c1.9,0,3.4,1.5,3.4,3.4v20.2c0,1.9-1.5,3.4-3.4,3.4h-65.2c-1.9,0-3.4-1.5-3.4-3.4v-20.2
	C224.9,258.4,226.4,256.9,228.2,256.9z"/>
<path class="st0" d="M134.6,256.9h65.2c1.9,0,3.4,1.5,3.4,3.4v20.2c0,1.9-1.5,3.4-3.4,3.4h-65.2c-1.9,0-3.4-1.5-3.4-3.4v-20.2
	C131.3,258.4,132.8,256.9,134.6,256.9z"/>
<path class="st0" d="M41,293.3h65.2c1.9,0,3.4,1.5,3.4,3.4v20.2c0,1.9-1.5,3.4-3.4,3.4H41c-1.9,0-3.4-1.5-3.4-3.4v-20.2
	C37.7,294.8,39.2,293.3,41,293.3z"/>
<path class="st0" d="M509,293.3h65.2c1.9,0,3.4,1.5,3.4,3.4v20.2c0,1.9-1.5,3.4-3.4,3.4H509c-1.9,0-3.4-1.5-3.4-3.4v-20.2
	C505.7,294.8,507.2,293.3,509,293.3z"/>
<path class="st0" d="M415.4,293.3h65.2c1.9,0,3.4,1.5,3.4,3.4v20.2c0,1.9-1.5,3.4-3.4,3.4h-65.2c-1.9,0-3.4-1.5-3.4-3.4v-20.2
	C412.1,294.8,413.6,293.3,415.4,293.3z"/>
<path class="st0" d="M321.8,293.3H387c1.9,0,3.4,1.5,3.4,3.4v20.2c0,1.9-1.5,3.4-3.4,3.4h-65.2c-1.9,0-3.4-1.5-3.4-3.4v-20.2
	C318.5,294.8,320,293.3,321.8,293.3z"/>
<path class="st0" d="M228.2,293.3h65.2c1.9,0,3.4,1.5,3.4,3.4v20.2c0,1.9-1.5,3.4-3.4,3.4h-65.2c-1.9,0-3.4-1.5-3.4-3.4v-20.2
	C224.9,294.8,226.4,293.3,228.2,293.3z"/>
<path class="st0" d="M134.6,293.3h65.2c1.9,0,3.4,1.5,3.4,3.4v20.2c0,1.9-1.5,3.4-3.4,3.4h-65.2c-1.9,0-3.4-1.5-3.4-3.4v-20.2
	C131.3,294.8,132.8,293.3,134.6,293.3z"/>
<path class="st0" d="M41,329.8h65.2c1.9,0,3.4,1.5,3.4,3.4v20.2c0,1.9-1.5,3.4-3.4,3.4H41c-1.9,0-3.4-1.5-3.4-3.4v-20.2
	C37.7,331.3,39.2,329.8,41,329.8z"/>
<path class="st0" d="M509,329.8h65.2c1.9,0,3.4,1.5,3.4,3.4v20.2c0,1.9-1.5,3.4-3.4,3.4H509c-1.9,0-3.4-1.5-3.4-3.4v-20.2
	C505.7,331.3,507.2,329.8,509,329.8z"/>
<path class="st0" d="M415.4,329.8h65.2c1.9,0,3.4,1.5,3.4,3.4v20.2c0,1.9-1.5,3.4-3.4,3.4h-65.2c-1.9,0-3.4-1.5-3.4-3.4v-20.2
	C412.1,331.3,413.6,329.8,415.4,329.8z"/>
<path class="st0" d="M321.8,329.8H387c1.9,0,3.4,1.5,3.4,3.4v20.2c0,1.9-1.5,3.4-3.4,3.4h-65.2c-1.9,0-3.4-1.5-3.4-3.4v-20.2
	C318.5,331.3,320,329.8,321.8,329.8z"/>
<path class="st0" d="M228.2,329.8h65.2c1.9,0,3.4,1.5,3.4,3.4v20.2c0,1.9-1.5,3.4-3.4,3.4h-65.2c-1.9,0-3.4-1.5-3.4-3.4v-20.2
	C224.9,331.3,226.4,329.8,228.2,329.8z"/>
<path class="st0" d="M134.6,329.8h65.2c1.9,0,3.4,1.5,3.4,3.4v20.2c0,1.9-1.5,3.4-3.4,3.4h-65.2c-1.9,0-3.4-1.5-3.4-3.4v-20.2
	C131.3,331.3,132.8,329.8,134.6,329.8z"/>
<path class="st0" d="M41,366.3h65.2c1.9,0,3.4,1.5,3.4,3.4v20.2c0,1.9-1.5,3.4-3.4,3.4H41c-1.9,0-3.4-1.5-3.4-3.4v-20.2
	C37.7,367.8,39.2,366.3,41,366.3z"/>
<path class="st0" d="M509,366.3h65.2c1.9,0,3.4,1.5,3.4,3.4v20.2c0,1.9-1.5,3.4-3.4,3.4H509c-1.9,0-3.4-1.5-3.4-3.4v-20.2
	C505.7,367.8,507.2,366.3,509,366.3z"/>
<path class="st0" d="M415.4,366.3h65.2c1.9,0,3.4,1.5,3.4,3.4v20.2c0,1.9-1.5,3.4-3.4,3.4h-65.2c-1.9,0-3.4-1.5-3.4-3.4v-20.2
	C412.1,367.8,413.6,366.3,415.4,366.3z"/>
<path class="st0" d="M321.8,366.3H387c1.9,0,3.4,1.5,3.4,3.4v20.2c0,1.9-1.5,3.4-3.4,3.4h-65.2c-1.9,0-3.4-1.5-3.4-3.4v-20.2
	C318.5,367.8,320,366.3,321.8,366.3z"/>
<path class="st0" d="M228.2,366.3h65.2c1.9,0,3.4,1.5,3.4,3.4v20.2c0,1.9-1.5,3.4-3.4,3.4h-65.2c-1.9,0-3.4-1.5-3.4-3.4v-20.2
	C224.9,367.8,226.4,366.3,228.2,366.3z"/>
<path class="st0" d="M134.6,366.3h65.2c1.9,0,3.4,1.5,3.4,3.4v20.2c0,1.9-1.5,3.4-3.4,3.4h-65.2c-1.9,0-3.4-1.5-3.4-3.4v-20.2
	C131.3,367.8,132.8,366.3,134.6,366.3z"/>
<path class="st0" d="M41,402.8h65.2c1.9,0,3.4,1.5,3.4,3.4v20.2c0,1.9-1.5,3.4-3.4,3.4H41c-1.9,0-3.4-1.5-3.4-3.4v-20.2
	C37.7,404.3,39.2,402.8,41,402.8z"/>
<path class="st0" d="M509,402.8h65.2c1.9,0,3.4,1.5,3.4,3.4v20.2c0,1.9-1.5,3.4-3.4,3.4H509c-1.9,0-3.4-1.5-3.4-3.4v-20.2
	C505.7,404.3,507.2,402.8,509,402.8z"/>
<path class="st0" d="M415.4,402.8h65.2c1.9,0,3.4,1.5,3.4,3.4v20.2c0,1.9-1.5,3.4-3.4,3.4h-65.2c-1.9,0-3.4-1.5-3.4-3.4v-20.2
	C412.1,404.3,413.6,402.8,415.4,402.8z"/>
<path class="st0" d="M321.8,402.8H387c1.9,0,3.4,1.5,3.4,3.4v20.2c0,1.9-1.5,3.4-3.4,3.4h-65.2c-1.9,0-3.4-1.5-3.4-3.4v-20.2
	C318.5,404.3,320,402.8,321.8,402.8z"/>
<path class="st0" d="M228.2,402.8h65.2c1.9,0,3.4,1.5,3.4,3.4v20.2c0,1.9-1.5,3.4-3.4,3.4h-65.2c-1.9,0-3.4-1.5-3.4-3.4v-20.2
	C224.9,404.3,226.4,402.8,228.2,402.8z"/>
<path class="st0" d="M134.6,402.8h65.2c1.9,0,3.4,1.5,3.4,3.4v20.2c0,1.9-1.5,3.4-3.4,3.4h-65.2c-1.9,0-3.4-1.5-3.4-3.4v-20.2
	C131.3,404.3,132.8,402.8,134.6,402.8z"/>
<path class="st0" d="M41,439.2h65.2c1.9,0,3.4,1.5,3.4,3.4v20.2c0,1.9-1.5,3.4-3.4,3.4H41c-1.9,0-3.4-1.5-3.4-3.4v-20.2
	C37.7,440.7,39.2,439.2,41,439.2z"/>
<path class="st0" d="M509,439.2h65.2c1.9,0,3.4,1.5,3.4,3.4v20.2c0,1.9-1.5,3.4-3.4,3.4H509c-1.9,0-3.4-1.5-3.4-3.4v-20.2
	C505.7,440.7,507.2,439.2,509,439.2z"/>
<path class="st0" d="M415.4,439.2h65.2c1.9,0,3.4,1.5,3.4,3.4v20.2c0,1.9-1.5,3.4-3.4,3.4h-65.2c-1.9,0-3.4-1.5-3.4-3.4v-20.2
	C412.1,440.7,413.6,439.2,415.4,439.2z"/>
<path class="st0" d="M321.8,439.2H387c1.9,0,3.4,1.5,3.4,3.4v20.2c0,1.9-1.5,3.4-3.4,3.4h-65.2c-1.9,0-3.4-1.5-3.4-3.4v-20.2
	C318.5,440.7,320,439.2,321.8,439.2z"/>
<path class="st0" d="M228.2,439.2h65.2c1.9,0,3.4,1.5,3.4,3.4v20.2c0,1.9-1.5,3.4-3.4,3.4h-65.2c-1.9,0-3.4-1.5-3.4-3.4v-20.2
	C224.9,440.7,226.4,439.2,228.2,439.2z"/>
<path class="st0" d="M134.6,439.2h65.2c1.9,0,3.4,1.5,3.4,3.4v20.2c0,1.9-1.5,3.4-3.4,3.4h-65.2c-1.9,0-3.4-1.5-3.4-3.4v-20.2
	C131.3,440.7,132.8,439.2,134.6,439.2z"/>
<path class="st0" d="M41,475.7h65.2c1.9,0,3.4,1.5,3.4,3.4v20.2c0,1.9-1.5,3.4-3.4,3.4H41c-1.9,0-3.4-1.5-3.4-3.4v-20.2
	C37.7,477.2,39.2,475.7,41,475.7z"/>
<path class="st0" d="M509,475.7h65.2c1.9,0,3.4,1.5,3.4,3.4v20.2c0,1.9-1.5,3.4-3.4,3.4H509c-1.9,0-3.4-1.5-3.4-3.4v-20.2
	C505.7,477.2,507.2,475.7,509,475.7z"/>
<path class="st0" d="M415.4,475.7h65.2c1.9,0,3.4,1.5,3.4,3.4v20.2c0,1.9-1.5,3.4-3.4,3.4h-65.2c-1.9,0-3.4-1.5-3.4-3.4v-20.2
	C412.1,477.2,413.6,475.7,415.4,475.7z"/>
<path class="st0" d="M321.8,475.7H387c1.9,0,3.4,1.5,3.4,3.4v20.2c0,1.9-1.5,3.4-3.4,3.4h-65.2c-1.9,0-3.4-1.5-3.4-3.4v-20.2
	C318.5,477.2,320,475.7,321.8,475.7z"/>
<path class="st0" d="M228.2,475.7h65.2c1.9,0,3.4,1.5,3.4,3.4v20.2c0,1.9-1.5,3.4-3.4,3.4h-65.2c-1.9,0-3.4-1.5-3.4-3.4v-20.2
	C224.9,477.2,226.4,475.7,228.2,475.7z"/>
<path class="st0" d="M134.6,475.7h65.2c1.9,0,3.4,1.5,3.4,3.4v20.2c0,1.9-1.5,3.4-3.4,3.4h-65.2c-1.9,0-3.4-1.5-3.4-3.4v-20.2
	C131.3,477.2,132.8,475.7,134.6,475.7z"/>
<path class="st0" d="M41,512.2h65.2c1.9,0,3.4,1.5,3.4,3.4v20.2c0,1.9-1.5,3.4-3.4,3.4H41c-1.9,0-3.4-1.5-3.4-3.4v-20.2
	C37.7,513.7,39.2,512.2,41,512.2z"/>
<path class="st0" d="M509,512.2h65.2c1.9,0,3.4,1.5,3.4,3.4v20.2c0,1.9-1.5,3.4-3.4,3.4H509c-1.9,0-3.4-1.5-3.4-3.4v-20.2
	C505.7,513.7,507.2,512.2,509,512.2z"/>
<path class="st0" d="M415.4,512.2h65.2c1.9,0,3.4,1.5,3.4,3.4v20.2c0,1.9-1.5,3.4-3.4,3.4h-65.2c-1.9,0-3.4-1.5-3.4-3.4v-20.2
	C412.1,513.7,413.6,512.2,415.4,512.2z"/>
<path class="st0" d="M321.8,512.2H387c1.9,0,3.4,1.5,3.4,3.4v20.2c0,1.9-1.5,3.4-3.4,3.4h-65.2c-1.9,0-3.4-1.5-3.4-3.4v-20.2
	C318.5,513.7,320,512.2,321.8,512.2z"/>
<path class="st0" d="M228.2,512.2h65.2c1.9,0,3.4,1.5,3.4,3.4v20.2c0,1.9-1.5,3.4-3.4,3.4h-65.2c-1.9,0-3.4-1.5-3.4-3.4v-20.2
	C224.9,513.7,226.4,512.2,228.2,512.2z"/>
<path class="st0" d="M134.6,512.2h65.2c1.9,0,3.4,1.5,3.4,3.4v20.2c0,1.9-1.5,3.4-3.4,3.4h-65.2c-1.9,0-3.4-1.5-3.4-3.4v-20.2
	C131.3,513.7,132.8,512.2,134.6,512.2z"/>
<path class="st0" d="M41,548.6h65.2c1.9,0,3.4,1.5,3.4,3.4v20.2c0,1.9-1.5,3.4-3.4,3.4H41c-1.9,0-3.4-1.5-3.4-3.4V552
	C37.7,550.2,39.2,548.6,41,548.6z"/>
<path class="st0" d="M509,548.6h65.2c1.9,0,3.4,1.5,3.4,3.4v20.2c0,1.9-1.5,3.4-3.4,3.4H509c-1.9,0-3.4-1.5-3.4-3.4V552
	C505.7,550.2,507.2,548.6,509,548.6z"/>
<path class="st0" d="M415.4,548.6h65.2c1.9,0,3.4,1.5,3.4,3.4v20.2c0,1.9-1.5,3.4-3.4,3.4h-65.2c-1.9,0-3.4-1.5-3.4-3.4V552
	C412.1,550.2,413.6,548.6,415.4,548.6z"/>
<path class="st0" d="M321.8,548.6H387c1.9,0,3.4,1.5,3.4,3.4v20.2c0,1.9-1.5,3.4-3.4,3.4h-65.2c-1.9,0-3.4-1.5-3.4-3.4V552
	C318.5,550.2,320,548.6,321.8,548.6z"/>
<path class="st0" d="M228.2,548.6h65.2c1.9,0,3.4,1.5,3.4,3.4v20.2c0,1.9-1.5,3.4-3.4,3.4h-65.2c-1.9,0-3.4-1.5-3.4-3.4V552
	C224.9,550.2,226.4,548.6,228.2,548.6z"/>
<path class="st0" d="M134.6,548.6h65.2c1.9,0,3.4,1.5,3.4,3.4v20.2c0,1.9-1.5,3.4-3.4,3.4h-65.2c-1.9,0-3.4-1.5-3.4-3.4V552
	C131.3,550.2,132.8,548.6,134.6,548.6z"/>
<path class="st0" d="M41,585.1h65.2c1.9,0,3.4,1.5,3.4,3.4v20.2c0,1.9-1.5,3.4-3.4,3.4H41c-1.9,0-3.4-1.5-3.4-3.4v-20.2
	C37.7,586.6,39.2,585.1,41,585.1z"/>
<path class="st0" d="M509,585.1h65.2c1.9,0,3.4,1.5,3.4,3.4v20.2c0,1.9-1.5,3.4-3.4,3.4H509c-1.9,0-3.4-1.5-3.4-3.4v-20.2
	C505.7,586.6,507.2,585.1,509,585.1z"/>
<path class="st0" d="M415.4,585.1h65.2c1.9,0,3.4,1.5,3.4,3.4v20.2c0,1.9-1.5,3.4-3.4,3.4h-65.2c-1.9,0-3.4-1.5-3.4-3.4v-20.2
	C412.1,586.6,413.6,585.1,415.4,585.1z"/>
<path class="st0" d="M321.8,585.1H387c1.9,0,3.4,1.5,3.4,3.4v20.2c0,1.9-1.5,3.4-3.4,3.4h-65.2c-1.9,0-3.4-1.5-3.4-3.4v-20.2
	C318.5,586.6,320,585.1,321.8,585.1z"/>
<path class="st0" d="M228.2,585.1h65.2c1.9,0,3.4,1.5,3.4,3.4v20.2c0,1.9-1.5,3.4-3.4,3.4h-65.2c-1.9,0-3.4-1.5-3.4-3.4v-20.2
	C224.9,586.6,226.4,585.1,228.2,585.1z"/>
<path class="st0" d="M134.6,585.1h65.2c1.9,0,3.4,1.5,3.4,3.4v20.2c0,1.9-1.5,3.4-3.4,3.4h-65.2c-1.9,0-3.4-1.5-3.4-3.4v-20.2
	C131.3,586.6,132.8,585.1,134.6,585.1z"/>
<path class="st0" d="M41,621.6h65.2c1.9,0,3.4,1.5,3.4,3.4v20.2c0,1.9-1.5,3.4-3.4,3.4H41c-1.9,0-3.4-1.5-3.4-3.4V625
	C37.7,623.1,39.2,621.6,41,621.6z"/>
<path class="st0" d="M509,621.6h65.2c1.9,0,3.4,1.5,3.4,3.4v20.2c0,1.9-1.5,3.4-3.4,3.4H509c-1.9,0-3.4-1.5-3.4-3.4V625
	C505.7,623.1,507.2,621.6,509,621.6z"/>
<path class="st0" d="M415.4,621.6h65.2c1.9,0,3.4,1.5,3.4,3.4v20.2c0,1.9-1.5,3.4-3.4,3.4h-65.2c-1.9,0-3.4-1.5-3.4-3.4V625
	C412.1,623.1,413.6,621.6,415.4,621.6z"/>
<path class="st0" d="M321.8,621.6H387c1.9,0,3.4,1.5,3.4,3.4v20.2c0,1.9-1.5,3.4-3.4,3.4h-65.2c-1.9,0-3.4-1.5-3.4-3.4V625
	C318.5,623.1,320,621.6,321.8,621.6z"/>
<path class="st0" d="M228.2,621.6h65.2c1.9,0,3.4,1.5,3.4,3.4v20.2c0,1.9-1.5,3.4-3.4,3.4h-65.2c-1.9,0-3.4-1.5-3.4-3.4V625
	C224.9,623.1,226.4,621.6,228.2,621.6z"/>
<path class="st0" d="M134.6,621.6h65.2c1.9,0,3.4,1.5,3.4,3.4v20.2c0,1.9-1.5,3.4-3.4,3.4h-65.2c-1.9,0-3.4-1.5-3.4-3.4V625
	C131.3,623.1,132.8,621.6,134.6,621.6z"/>
<path class="st0" d="M41,658.1h65.2c1.9,0,3.4,1.5,3.4,3.4v20.2c0,1.9-1.5,3.4-3.4,3.4H41c-1.9,0-3.4-1.5-3.4-3.4v-20.2
	C37.7,659.6,39.2,658.1,41,658.1z"/>
<path class="st0" d="M509,658.1h65.2c1.9,0,3.4,1.5,3.4,3.4v20.2c0,1.9-1.5,3.4-3.4,3.4H509c-1.9,0-3.4-1.5-3.4-3.4v-20.2
	C505.7,659.6,507.2,658.1,509,658.1z"/>
<path class="st0" d="M415.4,658.1h65.2c1.9,0,3.4,1.5,3.4,3.4v20.2c0,1.9-1.5,3.4-3.4,3.4h-65.2c-1.9,0-3.4-1.5-3.4-3.4v-20.2
	C412.1,659.6,413.6,658.1,415.4,658.1z"/>
<path class="st0" d="M321.8,658.1H387c1.9,0,3.4,1.5,3.4,3.4v20.2c0,1.9-1.5,3.4-3.4,3.4h-65.2c-1.9,0-3.4-1.5-3.4-3.4v-20.2
	C318.5,659.6,320,658.1,321.8,658.1z"/>
<path class="st0" d="M228.2,658.1h65.2c1.9,0,3.4,1.5,3.4,3.4v20.2c0,1.9-1.5,3.4-3.4,3.4h-65.2c-1.9,0-3.4-1.5-3.4-3.4v-20.2
	C224.9,659.6,226.4,658.1,228.2,658.1z"/>
<path class="st0" d="M134.6,658.1h65.2c1.9,0,3.4,1.5,3.4,3.4v20.2c0,1.9-1.5,3.4-3.4,3.4h-65.2c-1.9,0-3.4-1.5-3.4-3.4v-20.2
	C131.3,659.6,132.8,658.1,134.6,658.1z"/>
<path class="st0" d="M41,694.5h65.2c1.9,0,3.4,1.5,3.4,3.4v20.2c0,1.9-1.5,3.4-3.4,3.4H41c-1.9,0-3.4-1.5-3.4-3.4v-20.2
	C37.7,696.1,39.2,694.5,41,694.5z"/>
<path class="st0" d="M509,694.5h65.2c1.9,0,3.4,1.5,3.4,3.4v20.2c0,1.9-1.5,3.4-3.4,3.4H509c-1.9,0-3.4-1.5-3.4-3.4v-20.2
	C505.7,696.1,507.2,694.5,509,694.5z"/>
<path class="st0" d="M415.4,694.5h65.2c1.9,0,3.4,1.5,3.4,3.4v20.2c0,1.9-1.5,3.4-3.4,3.4h-65.2c-1.9,0-3.4-1.5-3.4-3.4v-20.2
	C412.1,696.1,413.6,694.5,415.4,694.5z"/>
<path class="st0" d="M321.8,694.5H387c1.9,0,3.4,1.5,3.4,3.4v20.2c0,1.9-1.5,3.4-3.4,3.4h-65.2c-1.9,0-3.4-1.5-3.4-3.4v-20.2
	C318.5,696.1,320,694.5,321.8,694.5z"/>
<path class="st0" d="M228.2,694.5h65.2c1.9,0,3.4,1.5,3.4,3.4v20.2c0,1.9-1.5,3.4-3.4,3.4h-65.2c-1.9,0-3.4-1.5-3.4-3.4v-20.2
	C224.9,696.1,226.4,694.5,228.2,694.5z"/>
<path class="st0" d="M134.6,694.5h65.2c1.9,0,3.4,1.5,3.4,3.4v20.2c0,1.9-1.5,3.4-3.4,3.4h-65.2c-1.9,0-3.4-1.5-3.4-3.4v-20.2
	C131.3,696.1,132.8,694.5,134.6,694.5z"/>
<rect x="1" y="1" class="st0" width="612" height="792"/>
</svg>
