<?xml version="1.0" encoding="utf-8"?>
<!-- Generator: Adobe Illustrator 20.1.0, SVG Export Plug-In . SVG Version: 6.00 Build 0)  -->
<svg version="1.1" id="Layer_1" xmlns="http://www.w3.org/2000/svg" xmlns:xlink="http://www.w3.org/1999/xlink" x="0px" y="0px"
	 viewBox="0 0 612 792" style="enable-background:new 0 0 612 792;" xml:space="preserve">
<style type="text/css">
	.st0{fill:none;stroke:#000000;stroke-width:2;}
</style>
<path class="st0" d="M576.8,741c0,6.2-5,11.3-11.3,11.3H48c-6.2,0-11.3-5-11.3-11.3V592.5c0-6.2,5-11.3,11.3-11.3h517.5
	c6.2,0,11.3,5,11.3,11.3V741z"/>
<path class="st0" d="M576.8,561c0,6.2-5,11.3-11.3,11.3H48c-6.2,0-11.3-5-11.3-11.3V412.5c0-6.2,5-11.3,11.3-11.3h517.5
	c6.2,0,11.3,5,11.3,11.3V561z"/>
<path class="st0" d="M576.8,381c0,6.2-5,11.3-11.3,11.3H48c-6.2,0-11.3-5-11.3-11.3V232.5c0-6.2,5-11.3,11.3-11.3h517.5
	c6.2,0,11.3,5,11.3,11.3V381z"/>
<path class="st0" d="M576.8,201c0,6.2-5,11.3-11.3,11.3H48c-6.2,0-11.3-5-11.3-11.3V52.5c0-6.2,5-11.3,11.3-11.3h517.5
	c6.2,0,11.3,5,11.3,11.3V201z"/>
<rect class="st0" width="612" height="792"/>
</svg>
