<?xml version="1.0" encoding="utf-8"?>
<!-- Generator: Adobe Illustrator 21.1.0, SVG Export Plug-In . SVG Version: 6.00 Build 0)  -->
<svg version="1.1" id="Template" xmlns="http://www.w3.org/2000/svg" xmlns:xlink="http://www.w3.org/1999/xlink" x="0px" y="0px"
	 viewBox="0 0 614 794" style="enable-background:new 0 0 614 794;" xml:space="preserve">
<style type="text/css">
	.st0{fill:none;stroke:#231F20;stroke-width:2;}
</style>
<title>SL710</title>
<path class="st0" d="M27.1,22.6h99c2.5,0,4.5,2,4.5,4.5v48.6c0,2.5-2,4.5-4.5,4.5h-99c-2.5,0-4.5-2-4.5-4.5V27.1
	C22.6,24.6,24.6,22.6,27.1,22.6z"/>
<path class="st0" d="M27.1,80.2h99c2.5,0,4.5,2,4.5,4.5v48.6c0,2.5-2,4.5-4.5,4.5h-99c-2.5,0-4.5-2-4.5-4.5V84.7
	C22.6,82.2,24.6,80.2,27.1,80.2z"/>
<path class="st0" d="M27.1,137.8h99c2.5,0,4.5,2,4.5,4.5v48.6c0,2.5-2,4.5-4.5,4.5h-99c-2.5,0-4.5-2-4.5-4.5v-48.6
	C22.6,139.8,24.6,137.8,27.1,137.8z"/>
<path class="st0" d="M27.1,195.4h99c2.5,0,4.5,2,4.5,4.5v48.6c0,2.5-2,4.5-4.5,4.5h-99c-2.5,0-4.5-2-4.5-4.5v-48.6
	C22.6,197.4,24.6,195.4,27.1,195.4z"/>
<path class="st0" d="M27.1,253h99c2.5,0,4.5,2,4.5,4.5v48.6c0,2.5-2,4.5-4.5,4.5h-99c-2.5,0-4.5-2-4.5-4.5v-48.6
	C22.6,255,24.6,253,27.1,253z"/>
<path class="st0" d="M27.1,310.6h99c2.5,0,4.5,2,4.5,4.5v48.6c0,2.5-2,4.5-4.5,4.5h-99c-2.5,0-4.5-2-4.5-4.5v-48.6
	C22.6,312.6,24.6,310.6,27.1,310.6z"/>
<path class="st0" d="M27.1,368.2h99c2.5,0,4.5,2,4.5,4.5v48.6c0,2.5-2,4.5-4.5,4.5h-99c-2.5,0-4.5-2-4.5-4.5v-48.6
	C22.6,370.2,24.6,368.2,27.1,368.2z"/>
<path class="st0" d="M27.1,425.8h99c2.5,0,4.5,2,4.5,4.5v48.6c0,2.5-2,4.5-4.5,4.5h-99c-2.5,0-4.5-2-4.5-4.5v-48.6
	C22.6,427.8,24.6,425.8,27.1,425.8z"/>
<path class="st0" d="M27.1,483.4h99c2.5,0,4.5,2,4.5,4.5v48.6c0,2.5-2,4.5-4.5,4.5h-99c-2.5,0-4.5-2-4.5-4.5v-48.6
	C22.6,485.4,24.6,483.4,27.1,483.4z"/>
<path class="st0" d="M27.1,541h99c2.5,0,4.5,2,4.5,4.5v48.6c0,2.5-2,4.5-4.5,4.5h-99c-2.5,0-4.5-2-4.5-4.5v-48.6
	C22.6,543,24.6,541,27.1,541z"/>
<path class="st0" d="M27.1,598.6h99c2.5,0,4.5,2,4.5,4.5v48.6c0,2.5-2,4.5-4.5,4.5h-99c-2.5,0-4.5-2-4.5-4.5v-48.6
	C22.6,600.6,24.6,598.6,27.1,598.6z"/>
<path class="st0" d="M27.1,713.8h99c2.5,0,4.5,2,4.5,4.5v48.6c0,2.5-2,4.5-4.5,4.5h-99c-2.5,0-4.5-2-4.5-4.5v-48.6
	C22.6,715.8,24.6,713.8,27.1,713.8z"/>
<path class="st0" d="M27.1,656.2h99c2.5,0,4.5,2,4.5,4.5v48.6c0,2.5-2,4.5-4.5,4.5h-99c-2.5,0-4.5-2-4.5-4.5v-48.6
	C22.6,658.2,24.6,656.2,27.1,656.2z"/>
<path class="st0" d="M487.9,22.6h99c2.5,0,4.5,2,4.5,4.5v48.6c0,2.5-2,4.5-4.5,4.5h-99c-2.5,0-4.5-2-4.5-4.5V27.1
	C483.4,24.6,485.4,22.6,487.9,22.6z"/>
<path class="st0" d="M487.9,80.2h99c2.5,0,4.5,2,4.5,4.5v48.6c0,2.5-2,4.5-4.5,4.5h-99c-2.5,0-4.5-2-4.5-4.5V84.7
	C483.4,82.2,485.4,80.2,487.9,80.2z"/>
<path class="st0" d="M487.9,137.8h99c2.5,0,4.5,2,4.5,4.5v48.6c0,2.5-2,4.5-4.5,4.5h-99c-2.5,0-4.5-2-4.5-4.5v-48.6
	C483.4,139.8,485.4,137.8,487.9,137.8z"/>
<path class="st0" d="M487.9,195.4h99c2.5,0,4.5,2,4.5,4.5v48.6c0,2.5-2,4.5-4.5,4.5h-99c-2.5,0-4.5-2-4.5-4.5v-48.6
	C483.4,197.4,485.4,195.4,487.9,195.4z"/>
<path class="st0" d="M487.9,253h99c2.5,0,4.5,2,4.5,4.5v48.6c0,2.5-2,4.5-4.5,4.5h-99c-2.5,0-4.5-2-4.5-4.5v-48.6
	C483.4,255,485.4,253,487.9,253z"/>
<path class="st0" d="M487.9,310.6h99c2.5,0,4.5,2,4.5,4.5v48.6c0,2.5-2,4.5-4.5,4.5h-99c-2.5,0-4.5-2-4.5-4.5v-48.6
	C483.4,312.6,485.4,310.6,487.9,310.6z"/>
<path class="st0" d="M487.9,368.2h99c2.5,0,4.5,2,4.5,4.5v48.6c0,2.5-2,4.5-4.5,4.5h-99c-2.5,0-4.5-2-4.5-4.5v-48.6
	C483.4,370.2,485.4,368.2,487.9,368.2z"/>
<path class="st0" d="M487.9,425.8h99c2.5,0,4.5,2,4.5,4.5v48.6c0,2.5-2,4.5-4.5,4.5h-99c-2.5,0-4.5-2-4.5-4.5v-48.6
	C483.4,427.8,485.4,425.8,487.9,425.8z"/>
<path class="st0" d="M487.9,483.4h99c2.5,0,4.5,2,4.5,4.5v48.6c0,2.5-2,4.5-4.5,4.5h-99c-2.5,0-4.5-2-4.5-4.5v-48.6
	C483.4,485.4,485.4,483.4,487.9,483.4z"/>
<path class="st0" d="M487.9,541h99c2.5,0,4.5,2,4.5,4.5v48.6c0,2.5-2,4.5-4.5,4.5h-99c-2.5,0-4.5-2-4.5-4.5v-48.6
	C483.4,543,485.4,541,487.9,541z"/>
<path class="st0" d="M487.9,598.6h99c2.5,0,4.5,2,4.5,4.5v48.6c0,2.5-2,4.5-4.5,4.5h-99c-2.5,0-4.5-2-4.5-4.5v-48.6
	C483.4,600.6,485.4,598.6,487.9,598.6z"/>
<path class="st0" d="M487.9,713.8h99c2.5,0,4.5,2,4.5,4.5v48.6c0,2.5-2,4.5-4.5,4.5h-99c-2.5,0-4.5-2-4.5-4.5v-48.6
	C483.4,715.8,485.4,713.8,487.9,713.8z"/>
<path class="st0" d="M487.9,656.2h99c2.5,0,4.5,2,4.5,4.5v48.6c0,2.5-2,4.5-4.5,4.5h-99c-2.5,0-4.5-2-4.5-4.5v-48.6
	C483.4,658.2,485.4,656.2,487.9,656.2z"/>
<path class="st0" d="M372.7,22.6h99c2.5,0,4.5,2,4.5,4.5v48.6c0,2.5-2,4.5-4.5,4.5h-99c-2.5,0-4.5-2-4.5-4.5V27.1
	C368.2,24.6,370.2,22.6,372.7,22.6z"/>
<path class="st0" d="M372.7,80.2h99c2.5,0,4.5,2,4.5,4.5v48.6c0,2.5-2,4.5-4.5,4.5h-99c-2.5,0-4.5-2-4.5-4.5V84.7
	C368.2,82.2,370.2,80.2,372.7,80.2z"/>
<path class="st0" d="M372.7,137.8h99c2.5,0,4.5,2,4.5,4.5v48.6c0,2.5-2,4.5-4.5,4.5h-99c-2.5,0-4.5-2-4.5-4.5v-48.6
	C368.2,139.8,370.2,137.8,372.7,137.8z"/>
<path class="st0" d="M372.7,195.4h99c2.5,0,4.5,2,4.5,4.5v48.6c0,2.5-2,4.5-4.5,4.5h-99c-2.5,0-4.5-2-4.5-4.5v-48.6
	C368.2,197.4,370.2,195.4,372.7,195.4z"/>
<path class="st0" d="M372.7,253h99c2.5,0,4.5,2,4.5,4.5v48.6c0,2.5-2,4.5-4.5,4.5h-99c-2.5,0-4.5-2-4.5-4.5v-48.6
	C368.2,255,370.2,253,372.7,253z"/>
<path class="st0" d="M372.7,310.6h99c2.5,0,4.5,2,4.5,4.5v48.6c0,2.5-2,4.5-4.5,4.5h-99c-2.5,0-4.5-2-4.5-4.5v-48.6
	C368.2,312.6,370.2,310.6,372.7,310.6z"/>
<path class="st0" d="M372.7,368.2h99c2.5,0,4.5,2,4.5,4.5v48.6c0,2.5-2,4.5-4.5,4.5h-99c-2.5,0-4.5-2-4.5-4.5v-48.6
	C368.2,370.2,370.2,368.2,372.7,368.2z"/>
<path class="st0" d="M372.7,425.8h99c2.5,0,4.5,2,4.5,4.5v48.6c0,2.5-2,4.5-4.5,4.5h-99c-2.5,0-4.5-2-4.5-4.5v-48.6
	C368.2,427.8,370.2,425.8,372.7,425.8z"/>
<path class="st0" d="M372.7,483.4h99c2.5,0,4.5,2,4.5,4.5v48.6c0,2.5-2,4.5-4.5,4.5h-99c-2.5,0-4.5-2-4.5-4.5v-48.6
	C368.2,485.4,370.2,483.4,372.7,483.4z"/>
<path class="st0" d="M372.7,541h99c2.5,0,4.5,2,4.5,4.5v48.6c0,2.5-2,4.5-4.5,4.5h-99c-2.5,0-4.5-2-4.5-4.5v-48.6
	C368.2,543,370.2,541,372.7,541z"/>
<path class="st0" d="M372.7,598.6h99c2.5,0,4.5,2,4.5,4.5v48.6c0,2.5-2,4.5-4.5,4.5h-99c-2.5,0-4.5-2-4.5-4.5v-48.6
	C368.2,600.6,370.2,598.6,372.7,598.6z"/>
<path class="st0" d="M372.7,713.8h99c2.5,0,4.5,2,4.5,4.5v48.6c0,2.5-2,4.5-4.5,4.5h-99c-2.5,0-4.5-2-4.5-4.5v-48.6
	C368.2,715.8,370.2,713.8,372.7,713.8z"/>
<path class="st0" d="M372.7,656.2h99c2.5,0,4.5,2,4.5,4.5v48.6c0,2.5-2,4.5-4.5,4.5h-99c-2.5,0-4.5-2-4.5-4.5v-48.6
	C368.2,658.2,370.2,656.2,372.7,656.2z"/>
<path class="st0" d="M257.5,22.6h99c2.5,0,4.5,2,4.5,4.5v48.6c0,2.5-2,4.5-4.5,4.5h-99c-2.5,0-4.5-2-4.5-4.5V27.1
	C253,24.6,255,22.6,257.5,22.6z"/>
<path class="st0" d="M257.5,80.2h99c2.5,0,4.5,2,4.5,4.5v48.6c0,2.5-2,4.5-4.5,4.5h-99c-2.5,0-4.5-2-4.5-4.5V84.7
	C253,82.2,255,80.2,257.5,80.2z"/>
<path class="st0" d="M257.5,137.8h99c2.5,0,4.5,2,4.5,4.5v48.6c0,2.5-2,4.5-4.5,4.5h-99c-2.5,0-4.5-2-4.5-4.5v-48.6
	C253,139.8,255,137.8,257.5,137.8z"/>
<path class="st0" d="M257.5,195.4h99c2.5,0,4.5,2,4.5,4.5v48.6c0,2.5-2,4.5-4.5,4.5h-99c-2.5,0-4.5-2-4.5-4.5v-48.6
	C253,197.4,255,195.4,257.5,195.4z"/>
<path class="st0" d="M257.5,253h99c2.5,0,4.5,2,4.5,4.5v48.6c0,2.5-2,4.5-4.5,4.5h-99c-2.5,0-4.5-2-4.5-4.5v-48.6
	C253,255,255,253,257.5,253z"/>
<path class="st0" d="M257.5,310.6h99c2.5,0,4.5,2,4.5,4.5v48.6c0,2.5-2,4.5-4.5,4.5h-99c-2.5,0-4.5-2-4.5-4.5v-48.6
	C253,312.6,255,310.6,257.5,310.6z"/>
<path class="st0" d="M257.5,368.2h99c2.5,0,4.5,2,4.5,4.5v48.6c0,2.5-2,4.5-4.5,4.5h-99c-2.5,0-4.5-2-4.5-4.5v-48.6
	C253,370.2,255,368.2,257.5,368.2z"/>
<path class="st0" d="M257.5,425.8h99c2.5,0,4.5,2,4.5,4.5v48.6c0,2.5-2,4.5-4.5,4.5h-99c-2.5,0-4.5-2-4.5-4.5v-48.6
	C253,427.8,255,425.8,257.5,425.8z"/>
<path class="st0" d="M257.5,483.4h99c2.5,0,4.5,2,4.5,4.5v48.6c0,2.5-2,4.5-4.5,4.5h-99c-2.5,0-4.5-2-4.5-4.5v-48.6
	C253,485.4,255,483.4,257.5,483.4z"/>
<path class="st0" d="M257.5,541h99c2.5,0,4.5,2,4.5,4.5v48.6c0,2.5-2,4.5-4.5,4.5h-99c-2.5,0-4.5-2-4.5-4.5v-48.6
	C253,543,255,541,257.5,541z"/>
<path class="st0" d="M257.5,598.6h99c2.5,0,4.5,2,4.5,4.5v48.6c0,2.5-2,4.5-4.5,4.5h-99c-2.5,0-4.5-2-4.5-4.5v-48.6
	C253,600.6,255,598.6,257.5,598.6z"/>
<path class="st0" d="M257.5,713.8h99c2.5,0,4.5,2,4.5,4.5v48.6c0,2.5-2,4.5-4.5,4.5h-99c-2.5,0-4.5-2-4.5-4.5v-48.6
	C253,715.8,255,713.8,257.5,713.8z"/>
<path class="st0" d="M257.5,656.2h99c2.5,0,4.5,2,4.5,4.5v48.6c0,2.5-2,4.5-4.5,4.5h-99c-2.5,0-4.5-2-4.5-4.5v-48.6
	C253,658.2,255,656.2,257.5,656.2z"/>
<path class="st0" d="M142.3,22.6h99c2.5,0,4.5,2,4.5,4.5v48.6c0,2.5-2,4.5-4.5,4.5h-99c-2.5,0-4.5-2-4.5-4.5V27.1
	C137.8,24.6,139.8,22.6,142.3,22.6z"/>
<path class="st0" d="M142.3,80.2h99c2.5,0,4.5,2,4.5,4.5v48.6c0,2.5-2,4.5-4.5,4.5h-99c-2.5,0-4.5-2-4.5-4.5V84.7
	C137.8,82.2,139.8,80.2,142.3,80.2z"/>
<path class="st0" d="M142.3,137.8h99c2.5,0,4.5,2,4.5,4.5v48.6c0,2.5-2,4.5-4.5,4.5h-99c-2.5,0-4.5-2-4.5-4.5v-48.6
	C137.8,139.8,139.8,137.8,142.3,137.8z"/>
<path class="st0" d="M142.3,195.4h99c2.5,0,4.5,2,4.5,4.5v48.6c0,2.5-2,4.5-4.5,4.5h-99c-2.5,0-4.5-2-4.5-4.5v-48.6
	C137.8,197.4,139.8,195.4,142.3,195.4z"/>
<path class="st0" d="M142.3,253h99c2.5,0,4.5,2,4.5,4.5v48.6c0,2.5-2,4.5-4.5,4.5h-99c-2.5,0-4.5-2-4.5-4.5v-48.6
	C137.8,255,139.8,253,142.3,253z"/>
<path class="st0" d="M142.3,310.6h99c2.5,0,4.5,2,4.5,4.5v48.6c0,2.5-2,4.5-4.5,4.5h-99c-2.5,0-4.5-2-4.5-4.5v-48.6
	C137.8,312.6,139.8,310.6,142.3,310.6z"/>
<path class="st0" d="M142.3,368.2h99c2.5,0,4.5,2,4.5,4.5v48.6c0,2.5-2,4.5-4.5,4.5h-99c-2.5,0-4.5-2-4.5-4.5v-48.6
	C137.8,370.2,139.8,368.2,142.3,368.2z"/>
<path class="st0" d="M142.3,425.8h99c2.5,0,4.5,2,4.5,4.5v48.6c0,2.5-2,4.5-4.5,4.5h-99c-2.5,0-4.5-2-4.5-4.5v-48.6
	C137.8,427.8,139.8,425.8,142.3,425.8z"/>
<path class="st0" d="M142.3,483.4h99c2.5,0,4.5,2,4.5,4.5v48.6c0,2.5-2,4.5-4.5,4.5h-99c-2.5,0-4.5-2-4.5-4.5v-48.6
	C137.8,485.4,139.8,483.4,142.3,483.4z"/>
<path class="st0" d="M142.3,541h99c2.5,0,4.5,2,4.5,4.5v48.6c0,2.5-2,4.5-4.5,4.5h-99c-2.5,0-4.5-2-4.5-4.5v-48.6
	C137.8,543,139.8,541,142.3,541z"/>
<path class="st0" d="M142.3,598.6h99c2.5,0,4.5,2,4.5,4.5v48.6c0,2.5-2,4.5-4.5,4.5h-99c-2.5,0-4.5-2-4.5-4.5v-48.6
	C137.8,600.6,139.8,598.6,142.3,598.6z"/>
<path class="st0" d="M142.3,713.8h99c2.5,0,4.5,2,4.5,4.5v48.6c0,2.5-2,4.5-4.5,4.5h-99c-2.5,0-4.5-2-4.5-4.5v-48.6
	C137.8,715.8,139.8,713.8,142.3,713.8z"/>
<path class="st0" d="M142.3,656.2h99c2.5,0,4.5,2,4.5,4.5v48.6c0,2.5-2,4.5-4.5,4.5h-99c-2.5,0-4.5-2-4.5-4.5v-48.6
	C137.8,658.2,139.8,656.2,142.3,656.2z"/>
<rect x="1" y="1" class="st0" width="612" height="792"/>
</svg>
