<?xml version="1.0" encoding="utf-8"?>
<!-- Generator: Adobe Illustrator 21.1.0, SVG Export Plug-In . SVG Version: 6.00 Build 0)  -->
<svg version="1.1" id="Layer_1" xmlns="http://www.w3.org/2000/svg" xmlns:xlink="http://www.w3.org/1999/xlink" x="0px" y="0px"
	 viewBox="0 0 614 794" style="enable-background:new 0 0 614 794;" xml:space="preserve">
<style type="text/css">
	.st0{fill:none;stroke:#231F20;stroke-width:2;}
</style>
<title>SL716</title>
<rect x="19" y="22.6" class="st0" width="54" height="54"/>
<rect x="541" y="22.6" class="st0" width="54" height="54"/>
<rect x="475.8" y="22.6" class="st0" width="54" height="54"/>
<rect x="410.5" y="22.6" class="st0" width="54" height="54"/>
<rect x="345.3" y="22.6" class="st0" width="54" height="54"/>
<rect x="280" y="22.6" class="st0" width="54" height="54"/>
<rect x="214.8" y="22.6" class="st0" width="54" height="54"/>
<rect x="149.5" y="22.6" class="st0" width="54" height="54"/>
<rect x="84.3" y="22.6" class="st0" width="54" height="54"/>
<rect x="19" y="717.4" class="st0" width="54" height="54"/>
<rect x="541" y="717.4" class="st0" width="54" height="54"/>
<rect x="475.8" y="717.4" class="st0" width="54" height="54"/>
<rect x="410.5" y="717.4" class="st0" width="54" height="54"/>
<rect x="345.3" y="717.4" class="st0" width="54" height="54"/>
<rect x="280" y="717.4" class="st0" width="54" height="54"/>
<rect x="214.8" y="717.4" class="st0" width="54" height="54"/>
<rect x="149.5" y="717.4" class="st0" width="54" height="54"/>
<rect x="84.3" y="717.4" class="st0" width="54" height="54"/>
<rect x="19" y="85.8" class="st0" width="54" height="54"/>
<rect x="541" y="85.8" class="st0" width="54" height="54"/>
<rect x="475.8" y="85.8" class="st0" width="54" height="54"/>
<rect x="410.5" y="85.8" class="st0" width="54" height="54"/>
<rect x="345.3" y="85.8" class="st0" width="54" height="54"/>
<rect x="280" y="85.8" class="st0" width="54" height="54"/>
<rect x="214.8" y="85.8" class="st0" width="54" height="54"/>
<rect x="149.5" y="85.8" class="st0" width="54" height="54"/>
<rect x="84.3" y="85.8" class="st0" width="54" height="54"/>
<rect x="19" y="148.9" class="st0" width="54" height="54"/>
<rect x="541" y="148.9" class="st0" width="54" height="54"/>
<rect x="475.8" y="148.9" class="st0" width="54" height="54"/>
<rect x="410.5" y="148.9" class="st0" width="54" height="54"/>
<rect x="345.3" y="148.9" class="st0" width="54" height="54"/>
<rect x="280" y="148.9" class="st0" width="54" height="54"/>
<rect x="214.8" y="148.9" class="st0" width="54" height="54"/>
<rect x="149.5" y="148.9" class="st0" width="54" height="54"/>
<rect x="84.3" y="148.9" class="st0" width="54" height="54"/>
<rect x="19" y="212.1" class="st0" width="54" height="54"/>
<rect x="541" y="212.1" class="st0" width="54" height="54"/>
<rect x="475.8" y="212.1" class="st0" width="54" height="54"/>
<rect x="410.5" y="212.1" class="st0" width="54" height="54"/>
<rect x="345.3" y="212.1" class="st0" width="54" height="54"/>
<rect x="280" y="212.1" class="st0" width="54" height="54"/>
<rect x="214.8" y="212.1" class="st0" width="54" height="54"/>
<rect x="149.5" y="212.1" class="st0" width="54" height="54"/>
<rect x="84.3" y="212.1" class="st0" width="54" height="54"/>
<rect x="19" y="275.3" class="st0" width="54" height="54"/>
<rect x="541" y="275.3" class="st0" width="54" height="54"/>
<rect x="475.8" y="275.3" class="st0" width="54" height="54"/>
<rect x="410.5" y="275.3" class="st0" width="54" height="54"/>
<rect x="345.3" y="275.3" class="st0" width="54" height="54"/>
<rect x="280" y="275.3" class="st0" width="54" height="54"/>
<rect x="214.8" y="275.3" class="st0" width="54" height="54"/>
<rect x="149.5" y="275.3" class="st0" width="54" height="54"/>
<rect x="84.3" y="275.3" class="st0" width="54" height="54"/>
<rect x="19" y="338.4" class="st0" width="54" height="54"/>
<rect x="541" y="338.4" class="st0" width="54" height="54"/>
<rect x="475.8" y="338.4" class="st0" width="54" height="54"/>
<rect x="410.5" y="338.4" class="st0" width="54" height="54"/>
<rect x="345.3" y="338.4" class="st0" width="54" height="54"/>
<rect x="280" y="338.4" class="st0" width="54" height="54"/>
<rect x="214.8" y="338.4" class="st0" width="54" height="54"/>
<rect x="149.5" y="338.4" class="st0" width="54" height="54"/>
<rect x="84.3" y="338.4" class="st0" width="54" height="54"/>
<rect x="19" y="401.6" class="st0" width="54" height="54"/>
<rect x="541" y="401.6" class="st0" width="54" height="54"/>
<rect x="475.8" y="401.6" class="st0" width="54" height="54"/>
<rect x="410.5" y="401.6" class="st0" width="54" height="54"/>
<rect x="345.3" y="401.6" class="st0" width="54" height="54"/>
<rect x="280" y="401.6" class="st0" width="54" height="54"/>
<rect x="214.8" y="401.6" class="st0" width="54" height="54"/>
<rect x="149.5" y="401.6" class="st0" width="54" height="54"/>
<rect x="84.3" y="401.6" class="st0" width="54" height="54"/>
<rect x="19" y="464.8" class="st0" width="54" height="54"/>
<rect x="541" y="464.8" class="st0" width="54" height="54"/>
<rect x="475.8" y="464.8" class="st0" width="54" height="54"/>
<rect x="410.5" y="464.8" class="st0" width="54" height="54"/>
<rect x="345.3" y="464.8" class="st0" width="54" height="54"/>
<rect x="280" y="464.8" class="st0" width="54" height="54"/>
<rect x="214.8" y="464.8" class="st0" width="54" height="54"/>
<rect x="149.5" y="464.8" class="st0" width="54" height="54"/>
<rect x="84.3" y="464.8" class="st0" width="54" height="54"/>
<rect x="19" y="527.9" class="st0" width="54" height="54"/>
<rect x="541" y="527.9" class="st0" width="54" height="54"/>
<rect x="475.8" y="527.9" class="st0" width="54" height="54"/>
<rect x="410.5" y="527.9" class="st0" width="54" height="54"/>
<rect x="345.3" y="527.9" class="st0" width="54" height="54"/>
<rect x="280" y="527.9" class="st0" width="54" height="54"/>
<rect x="214.8" y="527.9" class="st0" width="54" height="54"/>
<rect x="149.5" y="527.9" class="st0" width="54" height="54"/>
<rect x="84.3" y="527.9" class="st0" width="54" height="54"/>
<rect x="19" y="591.1" class="st0" width="54" height="54"/>
<rect x="541" y="591.1" class="st0" width="54" height="54"/>
<rect x="475.8" y="591.1" class="st0" width="54" height="54"/>
<rect x="410.5" y="591.1" class="st0" width="54" height="54"/>
<rect x="345.3" y="591.1" class="st0" width="54" height="54"/>
<rect x="280" y="591.1" class="st0" width="54" height="54"/>
<rect x="214.8" y="591.1" class="st0" width="54" height="54"/>
<rect x="149.5" y="591.1" class="st0" width="54" height="54"/>
<rect x="84.3" y="591.1" class="st0" width="54" height="54"/>
<rect x="19" y="654.2" class="st0" width="54" height="54"/>
<rect x="541" y="654.2" class="st0" width="54" height="54"/>
<rect x="475.8" y="654.2" class="st0" width="54" height="54"/>
<rect x="410.5" y="654.2" class="st0" width="54" height="54"/>
<rect x="345.3" y="654.2" class="st0" width="54" height="54"/>
<rect x="280" y="654.2" class="st0" width="54" height="54"/>
<rect x="214.8" y="654.2" class="st0" width="54" height="54"/>
<rect x="149.5" y="654.2" class="st0" width="54" height="54"/>
<rect x="84.3" y="654.2" class="st0" width="54" height="54"/>
<rect x="1" y="1" class="st0" width="612" height="792"/>
</svg>
