<?xml version="1.0" encoding="utf-8"?>
<!-- Generator: Adobe Illustrator 21.1.0, SVG Export Plug-In . SVG Version: 6.00 Build 0)  -->
<svg version="1.1" id="Layer_1" xmlns="http://www.w3.org/2000/svg" xmlns:xlink="http://www.w3.org/1999/xlink" x="0px" y="0px"
	 viewBox="0 0 612 792" style="enable-background:new 0 0 612 792;" xml:space="preserve">
<style type="text/css">
	.st0{fill:none;stroke:#231F20;stroke-width:2;}
</style>
<path class="st0" d="M576,375.3c0,5-4,9-9,9H45c-5,0-9-4-9-9v-342c0-5,4-9,9-9h522c5,0,9,4,9,9V375.3z"/>
<path class="st0" d="M576,753.4c0,5-4,9-9,9H45c-5,0-9-4-9-9v-342c0-5,4-9,9-9h522c5,0,9,4,9,9V753.4z"/>
<rect class="st0" width="612" height="792"/>
</svg>
