<?xml version="1.0" encoding="utf-8"?>
<!-- Generator: Adobe Illustrator 21.1.0, SVG Export Plug-In . SVG Version: 6.00 Build 0)  -->
<svg version="1.1" id="Layer_1" xmlns="http://www.w3.org/2000/svg" xmlns:xlink="http://www.w3.org/1999/xlink" x="0px" y="0px"
	 viewBox="0 0 614 794" style="enable-background:new 0 0 614 794;" xml:space="preserve">
<style type="text/css">
	.st0{fill:none;stroke:#231F20;stroke-width:2;}
</style>
<title>SL731</title>
<path class="st0" d="M85.4,37h186.7c6.8,0,12.4,5.5,12.4,12.4v47.2c0,6.8-5.5,12.4-12.4,12.4H85.4c-6.8,0-12.4-5.5-12.4-12.4V49.4
	C73,42.5,78.5,37,85.4,37z"/>
<path class="st0" d="M341.9,37h186.7c6.8,0,12.4,5.5,12.4,12.4v47.2c0,6.8-5.5,12.4-12.4,12.4H341.9c-6.8,0-12.4-5.5-12.4-12.4V49.4
	C329.5,42.5,335,37,341.9,37z"/>
<path class="st0" d="M85.4,685h186.7c6.8,0,12.4,5.5,12.4,12.4v47.2c0,6.8-5.5,12.4-12.4,12.4H85.4c-6.8,0-12.4-5.5-12.4-12.4v-47.2
	C73,690.5,78.5,685,85.4,685z"/>
<path class="st0" d="M341.9,685h186.7c6.8,0,12.4,5.5,12.4,12.4v47.2c0,6.8-5.5,12.4-12.4,12.4H341.9c-6.8,0-12.4-5.5-12.4-12.4
	v-47.2C329.5,690.5,335,685,341.9,685z"/>
<path class="st0" d="M85.4,118h186.7c6.8,0,12.4,5.5,12.4,12.4v47.2c0,6.8-5.5,12.4-12.4,12.4H85.4c-6.8,0-12.4-5.5-12.4-12.4v-47.2
	C73,123.5,78.5,118,85.4,118z"/>
<path class="st0" d="M341.9,118h186.7c6.8,0,12.4,5.5,12.4,12.4v47.2c0,6.8-5.5,12.4-12.4,12.4H341.9c-6.8,0-12.4-5.5-12.4-12.4
	v-47.2C329.5,123.5,335,118,341.9,118z"/>
<path class="st0" d="M85.4,199h186.7c6.8,0,12.4,5.5,12.4,12.4v47.2c0,6.8-5.5,12.4-12.4,12.4H85.4c-6.8,0-12.4-5.5-12.4-12.4v-47.2
	C73,204.5,78.5,199,85.4,199z"/>
<path class="st0" d="M341.9,199h186.7c6.8,0,12.4,5.5,12.4,12.4v47.2c0,6.8-5.5,12.4-12.4,12.4H341.9c-6.8,0-12.4-5.5-12.4-12.4
	v-47.2C329.5,204.5,335,199,341.9,199z"/>
<path class="st0" d="M85.4,280h186.7c6.8,0,12.4,5.5,12.4,12.4v47.2c0,6.8-5.5,12.4-12.4,12.4H85.4c-6.8,0-12.4-5.5-12.4-12.4v-47.2
	C73,285.5,78.5,280,85.4,280z"/>
<path class="st0" d="M341.9,280h186.7c6.8,0,12.4,5.5,12.4,12.4v47.2c0,6.8-5.5,12.4-12.4,12.4H341.9c-6.8,0-12.4-5.5-12.4-12.4
	v-47.2C329.5,285.5,335,280,341.9,280z"/>
<path class="st0" d="M85.4,361h186.7c6.8,0,12.4,5.5,12.4,12.4v47.2c0,6.8-5.5,12.4-12.4,12.4H85.4c-6.8,0-12.4-5.5-12.4-12.4v-47.2
	C73,366.5,78.5,361,85.4,361z"/>
<path class="st0" d="M341.9,361h186.7c6.8,0,12.4,5.5,12.4,12.4v47.2c0,6.8-5.5,12.4-12.4,12.4H341.9c-6.8,0-12.4-5.5-12.4-12.4
	v-47.2C329.5,366.5,335,361,341.9,361z"/>
<path class="st0" d="M85.4,442h186.7c6.8,0,12.4,5.5,12.4,12.4v47.2c0,6.8-5.5,12.4-12.4,12.4H85.4c-6.8,0-12.4-5.5-12.4-12.4v-47.2
	C73,447.5,78.5,442,85.4,442z"/>
<path class="st0" d="M341.9,442h186.7c6.8,0,12.4,5.5,12.4,12.4v47.2c0,6.8-5.5,12.4-12.4,12.4H341.9c-6.8,0-12.4-5.5-12.4-12.4
	v-47.2C329.5,447.5,335,442,341.9,442z"/>
<path class="st0" d="M85.4,523h186.7c6.8,0,12.4,5.5,12.4,12.4v47.2c0,6.8-5.5,12.4-12.4,12.4H85.4c-6.8,0-12.4-5.5-12.4-12.4v-47.2
	C73,528.5,78.5,523,85.4,523z"/>
<path class="st0" d="M341.9,523h186.7c6.8,0,12.4,5.5,12.4,12.4v47.2c0,6.8-5.5,12.4-12.4,12.4H341.9c-6.8,0-12.4-5.5-12.4-12.4
	v-47.2C329.5,528.5,335,523,341.9,523z"/>
<path class="st0" d="M85.4,604h186.7c6.8,0,12.4,5.5,12.4,12.4v47.2c0,6.8-5.5,12.4-12.4,12.4H85.4c-6.8,0-12.4-5.5-12.4-12.4v-47.2
	C73,609.5,78.5,604,85.4,604z"/>
<path class="st0" d="M341.9,604h186.7c6.8,0,12.4,5.5,12.4,12.4v47.2c0,6.8-5.5,12.4-12.4,12.4H341.9c-6.8,0-12.4-5.5-12.4-12.4
	v-47.2C329.5,609.5,335,604,341.9,604z"/>
<rect x="1" y="1" class="st0" width="612" height="792"/>
</svg>
