<?xml version="1.0" encoding="utf-8"?>
<!-- Generator: Adobe Illustrator 20.1.0, SVG Export Plug-In . SVG Version: 6.00 Build 0)  -->
<svg version="1.1" id="Layer_1" xmlns="http://www.w3.org/2000/svg" xmlns:xlink="http://www.w3.org/1999/xlink" x="0px" y="0px"
	 viewBox="0 0 612 864" style="enable-background:new 0 0 612 864;" xml:space="preserve">
<style type="text/css">
	.st0{fill:none;stroke:#000000;stroke-width:2;}
</style>
<g>
	<rect x="1.7" y="1" class="st0" width="610.5" height="861.9"/>
	<path class="st0" d="M522.5,279.3c0,5-4,9-9,9h-413c-5,0-9-4-9-9V45.9c0-5,4-9,9-9h413c4.9,0,9,4,9,9V279.3z"/>
	<path class="st0" d="M522.5,539.7c0,5-4,9-9,9h-413c-5,0-9-4-9-9V306.3c0-5,4-9,9-9h413c4.9,0,9,4,9,9V539.7z"/>
	<path class="st0" d="M522.5,800.1c0,4.9-4,9-9,9h-413c-5,0-9-4-9-9V566.6c0-5,4-9,9-9h413c4.9,0,9,4,9,9V800.1z"/>
</g>
</svg>
