<?xml version="1.0" encoding="utf-8"?>
<!-- Generator: Adobe Illustrator 21.1.0, SVG Export Plug-In . SVG Version: 6.00 Build 0)  -->
<svg version="1.1" id="Layer_1" xmlns="http://www.w3.org/2000/svg" xmlns:xlink="http://www.w3.org/1999/xlink" x="0px" y="0px"
	 viewBox="0 0 614 794" style="enable-background:new 0 0 614 794;" xml:space="preserve">
<style type="text/css">
	.st0{fill:none;stroke:#231F20;stroke-width:2;}
</style>
<title>SL737</title>
<path class="st0" d="M39.2,47h85.5c5,0,9,4,9,9v51.8c0,5-4,9-9,9H39.2c-5,0-9-4-9-9V56C30.2,51.1,34.2,47,39.2,47z"/>
<path class="st0" d="M489.3,47h85.5c5,0,9,4,9,9v51.8c0,5-4,9-9,9h-85.5c-5,0-9-4-9-9V56C480.3,51.1,484.3,47,489.3,47z"/>
<path class="st0" d="M376.8,47h85.5c5,0,9,4,9,9v51.8c0,5-4,9-9,9h-85.5c-5,0-9-4-9-9V56C367.8,51.1,371.8,47,376.8,47z"/>
<path class="st0" d="M264.2,47h85.5c5,0,9,4,9,9v51.8c0,5-4,9-9,9h-85.5c-5,0-9-4-9-9V56C255.2,51.1,259.3,47,264.2,47z"/>
<path class="st0" d="M151.7,47h85.5c5,0,9,4,9,9v51.8c0,5-4,9-9,9h-85.5c-5,0-9-4-9-9V56C142.7,51.1,146.7,47,151.7,47z"/>
<path class="st0" d="M39.2,677.2h85.5c5,0,9,4,9,9V738c0,5-4,9-9,9H39.2c-5,0-9-4-9-9v-51.8C30.2,681.2,34.2,677.2,39.2,677.2z"/>
<path class="st0" d="M489.3,677.2h85.5c5,0,9,4,9,9V738c0,5-4,9-9,9h-85.5c-5,0-9-4-9-9v-51.8C480.3,681.2,484.3,677.2,489.3,677.2z
	"/>
<path class="st0" d="M376.8,677.2h85.5c5,0,9,4,9,9V738c0,5-4,9-9,9h-85.5c-5,0-9-4-9-9v-51.8C367.8,681.2,371.8,677.2,376.8,677.2z
	"/>
<path class="st0" d="M264.2,677.2h85.5c5,0,9,4,9,9V738c0,5-4,9-9,9h-85.5c-5,0-9-4-9-9v-51.8C255.2,681.2,259.3,677.2,264.2,677.2z
	"/>
<path class="st0" d="M151.7,677.2h85.5c5,0,9,4,9,9V738c0,5-4,9-9,9h-85.5c-5,0-9-4-9-9v-51.8C142.7,681.2,146.7,677.2,151.7,677.2z
	"/>
<path class="st0" d="M39.2,125.8h85.5c5,0,9,4,9,9v51.8c0,5-4,9-9,9H39.2c-5,0-9-4-9-9v-51.8C30.2,129.8,34.2,125.8,39.2,125.8z"/>
<path class="st0" d="M489.3,125.8h85.5c5,0,9,4,9,9v51.8c0,5-4,9-9,9h-85.5c-5,0-9-4-9-9v-51.8C480.3,129.8,484.3,125.8,489.3,125.8
	z"/>
<path class="st0" d="M376.8,125.8h85.5c5,0,9,4,9,9v51.8c0,5-4,9-9,9h-85.5c-5,0-9-4-9-9v-51.8C367.8,129.8,371.8,125.8,376.8,125.8
	z"/>
<path class="st0" d="M264.2,125.8h85.5c5,0,9,4,9,9v51.8c0,5-4,9-9,9h-85.5c-5,0-9-4-9-9v-51.8C255.2,129.8,259.3,125.8,264.2,125.8
	z"/>
<path class="st0" d="M151.7,125.8h85.5c5,0,9,4,9,9v51.8c0,5-4,9-9,9h-85.5c-5,0-9-4-9-9v-51.8C142.7,129.8,146.7,125.8,151.7,125.8
	z"/>
<path class="st0" d="M39.2,204.6h85.5c5,0,9,4,9,9v51.8c0,5-4,9-9,9H39.2c-5,0-9-4-9-9v-51.8C30.2,208.6,34.2,204.6,39.2,204.6z"/>
<path class="st0" d="M489.3,204.6h85.5c5,0,9,4,9,9v51.8c0,5-4,9-9,9h-85.5c-5,0-9-4-9-9v-51.8C480.3,208.6,484.3,204.6,489.3,204.6
	z"/>
<path class="st0" d="M376.8,204.6h85.5c5,0,9,4,9,9v51.8c0,5-4,9-9,9h-85.5c-5,0-9-4-9-9v-51.8C367.8,208.6,371.8,204.6,376.8,204.6
	z"/>
<path class="st0" d="M264.2,204.6h85.5c5,0,9,4,9,9v51.8c0,5-4,9-9,9h-85.5c-5,0-9-4-9-9v-51.8C255.2,208.6,259.3,204.6,264.2,204.6
	z"/>
<path class="st0" d="M151.7,204.6h85.5c5,0,9,4,9,9v51.8c0,5-4,9-9,9h-85.5c-5,0-9-4-9-9v-51.8C142.7,208.6,146.7,204.6,151.7,204.6
	z"/>
<path class="st0" d="M39.2,283.4h85.5c5,0,9,4,9,9v51.8c0,5-4,9-9,9H39.2c-5,0-9-4-9-9v-51.8C30.2,287.4,34.2,283.4,39.2,283.4z"/>
<path class="st0" d="M489.3,283.4h85.5c5,0,9,4,9,9v51.8c0,5-4,9-9,9h-85.5c-5,0-9-4-9-9v-51.8C480.3,287.4,484.3,283.4,489.3,283.4
	z"/>
<path class="st0" d="M376.8,283.4h85.5c5,0,9,4,9,9v51.8c0,5-4,9-9,9h-85.5c-5,0-9-4-9-9v-51.8C367.8,287.4,371.8,283.4,376.8,283.4
	z"/>
<path class="st0" d="M264.2,283.4h85.5c5,0,9,4,9,9v51.8c0,5-4,9-9,9h-85.5c-5,0-9-4-9-9v-51.8C255.2,287.4,259.3,283.4,264.2,283.4
	z"/>
<path class="st0" d="M151.7,283.4h85.5c5,0,9,4,9,9v51.8c0,5-4,9-9,9h-85.5c-5,0-9-4-9-9v-51.8C142.7,287.4,146.7,283.4,151.7,283.4
	z"/>
<path class="st0" d="M39.2,362.1h85.5c5,0,9,4,9,9v51.8c0,5-4,9-9,9H39.2c-5,0-9-4-9-9v-51.8C30.2,366.1,34.2,362.1,39.2,362.1z"/>
<path class="st0" d="M489.3,362.1h85.5c5,0,9,4,9,9v51.8c0,5-4,9-9,9h-85.5c-5,0-9-4-9-9v-51.8C480.3,366.1,484.3,362.1,489.3,362.1
	z"/>
<path class="st0" d="M376.8,362.1h85.5c5,0,9,4,9,9v51.8c0,5-4,9-9,9h-85.5c-5,0-9-4-9-9v-51.8C367.8,366.1,371.8,362.1,376.8,362.1
	z"/>
<path class="st0" d="M264.2,362.1h85.5c5,0,9,4,9,9v51.8c0,5-4,9-9,9h-85.5c-5,0-9-4-9-9v-51.8C255.2,366.1,259.3,362.1,264.2,362.1
	z"/>
<path class="st0" d="M151.7,362.1h85.5c5,0,9,4,9,9v51.8c0,5-4,9-9,9h-85.5c-5,0-9-4-9-9v-51.8C142.7,366.1,146.7,362.1,151.7,362.1
	z"/>
<path class="st0" d="M39.2,440.9h85.5c5,0,9,4,9,9v51.8c0,5-4,9-9,9H39.2c-5,0-9-4-9-9v-51.8C30.2,444.9,34.2,440.9,39.2,440.9z"/>
<path class="st0" d="M489.3,440.9h85.5c5,0,9,4,9,9v51.8c0,5-4,9-9,9h-85.5c-5,0-9-4-9-9v-51.8C480.3,444.9,484.3,440.9,489.3,440.9
	z"/>
<path class="st0" d="M376.8,440.9h85.5c5,0,9,4,9,9v51.8c0,5-4,9-9,9h-85.5c-5,0-9-4-9-9v-51.8C367.8,444.9,371.8,440.9,376.8,440.9
	z"/>
<path class="st0" d="M264.2,440.9h85.5c5,0,9,4,9,9v51.8c0,5-4,9-9,9h-85.5c-5,0-9-4-9-9v-51.8C255.2,444.9,259.3,440.9,264.2,440.9
	z"/>
<path class="st0" d="M151.7,440.9h85.5c5,0,9,4,9,9v51.8c0,5-4,9-9,9h-85.5c-5,0-9-4-9-9v-51.8C142.7,444.9,146.7,440.9,151.7,440.9
	z"/>
<path class="st0" d="M39.2,519.7h85.5c5,0,9,4,9,9v51.8c0,5-4,9-9,9H39.2c-5,0-9-4-9-9v-51.8C30.2,523.7,34.2,519.7,39.2,519.7z"/>
<path class="st0" d="M489.3,519.7h85.5c5,0,9,4,9,9v51.8c0,5-4,9-9,9h-85.5c-5,0-9-4-9-9v-51.8C480.3,523.7,484.3,519.7,489.3,519.7
	z"/>
<path class="st0" d="M376.8,519.7h85.5c5,0,9,4,9,9v51.8c0,5-4,9-9,9h-85.5c-5,0-9-4-9-9v-51.8C367.8,523.7,371.8,519.7,376.8,519.7
	z"/>
<path class="st0" d="M264.2,519.7h85.5c5,0,9,4,9,9v51.8c0,5-4,9-9,9h-85.5c-5,0-9-4-9-9v-51.8C255.2,523.7,259.3,519.7,264.2,519.7
	z"/>
<path class="st0" d="M151.7,519.7h85.5c5,0,9,4,9,9v51.8c0,5-4,9-9,9h-85.5c-5,0-9-4-9-9v-51.8C142.7,523.7,146.7,519.7,151.7,519.7
	z"/>
<path class="st0" d="M39.2,598.4h85.5c5,0,9,4,9,9v51.8c0,5-4,9-9,9H39.2c-5,0-9-4-9-9v-51.8C30.2,602.4,34.2,598.4,39.2,598.4z"/>
<path class="st0" d="M489.3,598.4h85.5c5,0,9,4,9,9v51.8c0,5-4,9-9,9h-85.5c-5,0-9-4-9-9v-51.8C480.3,602.4,484.3,598.4,489.3,598.4
	z"/>
<path class="st0" d="M376.8,598.4h85.5c5,0,9,4,9,9v51.8c0,5-4,9-9,9h-85.5c-5,0-9-4-9-9v-51.8C367.8,602.4,371.8,598.4,376.8,598.4
	z"/>
<path class="st0" d="M264.2,598.4h85.5c5,0,9,4,9,9v51.8c0,5-4,9-9,9h-85.5c-5,0-9-4-9-9v-51.8C255.2,602.4,259.3,598.4,264.2,598.4
	z"/>
<path class="st0" d="M151.7,598.4h85.5c5,0,9,4,9,9v51.8c0,5-4,9-9,9h-85.5c-5,0-9-4-9-9v-51.8C142.7,602.4,146.7,598.4,151.7,598.4
	z"/>
<rect x="1" y="1" class="st0" width="612" height="792"/>
</svg>
