<?xml version="1.0" encoding="utf-8"?>
<!-- Generator: Adobe Illustrator 21.1.0, SVG Export Plug-In . SVG Version: 6.00 Build 0)  -->
<svg version="1.1" id="Layer_1" xmlns="http://www.w3.org/2000/svg" xmlns:xlink="http://www.w3.org/1999/xlink" x="0px" y="0px"
	 viewBox="0 0 614 794" style="enable-background:new 0 0 614 794;" xml:space="preserve">
<style type="text/css">
	.st0{fill:none;stroke:#231F20;stroke-width:2;stroke-miterlimit:10;}
</style>
<title>SL739</title>
<path class="st0" d="M45.9,51h119.2c1.9,0,3.4,1.5,3.4,3.4v11.2c0,1.9-1.5,3.4-3.4,3.4H45.9c-1.9,0-3.4-1.5-3.4-3.4V54.4
	C42.5,52.5,44,51,45.9,51z"/>
<path class="st0" d="M180.2,51h119.2c1.9,0,3.4,1.5,3.4,3.4l0,0v11.2c0,1.9-1.5,3.4-3.4,3.4l0,0H180.2c-1.9,0-3.4-1.5-3.4-3.4V54.4
	C176.8,52.5,178.4,51,180.2,51z"/>
<path class="st0" d="M314.5,51h119.3c1.9,0,3.4,1.5,3.4,3.4v11.3c0,1.9-1.5,3.4-3.4,3.4H314.5c-1.9,0-3.4-1.5-3.4-3.4l0,0V54.4
	C311.2,52.5,312.7,51,314.5,51z"/>
<path class="st0" d="M448.9,51h119.2c1.9,0,3.4,1.5,3.4,3.4v11.2c0,1.9-1.5,3.4-3.4,3.4H448.9c-1.9,0-3.4-1.5-3.4-3.4V54.4
	C445.5,52.5,447,51,448.9,51z"/>
<path class="st0" d="M45.9,78h119.2c1.9,0,3.4,1.5,3.4,3.4v11.2c0,1.9-1.5,3.4-3.4,3.4H45.9c-1.9,0-3.4-1.5-3.4-3.4V81.3
	C42.5,79.5,44,78,45.9,78z"/>
<path class="st0" d="M180.2,78h119.2c1.9,0,3.4,1.5,3.4,3.4l0,0v11.2c0,1.9-1.5,3.4-3.3,3.4l0,0H180.2c-1.9,0-3.4-1.5-3.4-3.4V81.3
	C176.9,79.5,178.4,78,180.2,78z"/>
<path class="st0" d="M314.5,78h119.3c1.9,0,3.4,1.5,3.4,3.4v11.2c0,1.9-1.5,3.4-3.3,3.4l0,0H314.5c-1.9,0-3.4-1.5-3.4-3.4l0,0V81.3
	C311.2,79.5,312.7,78,314.5,78z"/>
<path class="st0" d="M448.9,78h119.2c1.9,0,3.4,1.5,3.4,3.4v11.2c0,1.9-1.5,3.4-3.4,3.4H448.9c-1.9,0-3.4-1.5-3.4-3.4V81.3
	C445.5,79.5,447,78,448.9,78z"/>
<path class="st0" d="M45.9,104.9h119.2c1.9,0,3.4,1.5,3.4,3.4v11.2c0,1.9-1.5,3.4-3.4,3.4H45.9c-1.9,0-3.4-1.5-3.4-3.4v-11.2
	C42.5,106.4,44,104.9,45.9,104.9z"/>
<path class="st0" d="M180.2,104.9h119.2c1.9,0,3.4,1.5,3.4,3.4l0,0v11.3c0,1.9-1.5,3.4-3.4,3.4l0,0H180.2c-1.9,0-3.4-1.5-3.4-3.4
	v-11.3C176.8,106.4,178.4,104.9,180.2,104.9z"/>
<path class="st0" d="M314.5,104.9h119.3c1.9,0,3.4,1.5,3.4,3.4v11.3c0,1.9-1.5,3.4-3.4,3.4l0,0H314.5c-1.9,0-3.4-1.5-3.4-3.4l0,0
	v-11.3C311.2,106.4,312.7,104.9,314.5,104.9z"/>
<path class="st0" d="M448.9,104.9h119.2c1.9,0,3.4,1.5,3.4,3.4v11.2c0,1.9-1.5,3.4-3.4,3.4H448.9c-1.9,0-3.4-1.5-3.4-3.4v-11.2
	C445.5,106.4,447,104.9,448.9,104.9z"/>
<path class="st0" d="M45.9,131.9h119.2c1.9,0,3.4,1.5,3.4,3.4v11.2c0,1.9-1.5,3.4-3.4,3.4H45.9c-1.9,0-3.4-1.5-3.4-3.4v-11.2
	C42.5,133.4,44,131.9,45.9,131.9z"/>
<path class="st0" d="M180.2,131.9h119.2c1.9,0,3.4,1.5,3.4,3.4l0,0v11.2c0,1.9-1.5,3.4-3.4,3.4l0,0H180.2c-1.9,0-3.4-1.5-3.4-3.4
	v-11.3C176.8,133.4,178.4,131.9,180.2,131.9z"/>
<path class="st0" d="M314.5,131.9h119.3c1.9,0,3.4,1.5,3.4,3.4v11.3c0,1.9-1.5,3.4-3.4,3.4l0,0H314.5c-1.9,0-3.4-1.5-3.4-3.4l0,0
	v-11.3C311.2,133.4,312.7,131.9,314.5,131.9z"/>
<path class="st0" d="M448.9,131.9h119.2c1.9,0,3.4,1.5,3.4,3.4v11.2c0,1.9-1.5,3.4-3.4,3.4H448.9c-1.9,0-3.4-1.5-3.4-3.4v-11.2
	C445.5,133.4,447,131.9,448.9,131.9z"/>
<path class="st0" d="M45.9,158.8h119.2c1.9,0,3.4,1.5,3.4,3.4v11.2c0,1.9-1.5,3.4-3.4,3.4H45.9c-1.9,0-3.4-1.5-3.4-3.4v-11.2
	C42.5,160.4,44,158.8,45.9,158.8z"/>
<path class="st0" d="M180.2,158.8h119.2c1.9,0,3.4,1.5,3.4,3.4l0,0v11.3c0,1.9-1.5,3.4-3.4,3.4l0,0H180.2c-1.9,0-3.4-1.5-3.4-3.4
	v-11.3C176.8,160.4,178.4,158.8,180.2,158.8z"/>
<path class="st0" d="M314.5,158.8h119.3c1.9,0,3.4,1.5,3.4,3.4v11.3c0,1.9-1.5,3.4-3.4,3.4l0,0H314.5c-1.9,0-3.4-1.5-3.4-3.4l0,0
	v-11.2C311.2,160.3,312.7,158.8,314.5,158.8z"/>
<path class="st0" d="M448.9,158.8h119.2c1.9,0,3.4,1.5,3.4,3.4v11.2c0,1.9-1.5,3.4-3.4,3.4H448.9c-1.9,0-3.4-1.5-3.4-3.4v-11.2
	C445.5,160.4,447,158.8,448.9,158.8z"/>
<path class="st0" d="M45.9,185.8h119.2c1.9,0,3.4,1.5,3.4,3.4v11.2c0,1.9-1.5,3.4-3.4,3.4H45.9c-1.9,0-3.4-1.5-3.4-3.4v-11.2
	C42.5,187.3,44,185.8,45.9,185.8z"/>
<path class="st0" d="M180.2,185.8h119.2c1.9,0,3.4,1.5,3.4,3.4l0,0v11.3c0,1.9-1.5,3.4-3.4,3.4l0,0H180.2c-1.9,0-3.4-1.5-3.4-3.4
	v-11.3C176.8,187.3,178.4,185.8,180.2,185.8z"/>
<path class="st0" d="M314.5,185.8h119.3c1.9,0,3.4,1.5,3.4,3.4v11.3c0,1.9-1.5,3.4-3.4,3.4l0,0H314.5c-1.9,0-3.4-1.5-3.4-3.4l0,0
	v-11.3C311.2,187.3,312.7,185.8,314.5,185.8z"/>
<path class="st0" d="M448.9,185.8h119.2c1.9,0,3.4,1.5,3.4,3.4v11.2c0,1.9-1.5,3.4-3.4,3.4H448.9c-1.9,0-3.4-1.5-3.4-3.4v-11.2
	C445.5,187.3,447,185.8,448.9,185.8z"/>
<path class="st0" d="M45.9,212.8h119.2c1.9,0,3.4,1.5,3.4,3.4v11.2c0,1.9-1.5,3.4-3.4,3.4H45.9c-1.9,0-3.4-1.5-3.4-3.4v-11.2
	C42.5,214.3,44,212.8,45.9,212.8z"/>
<path class="st0" d="M180.2,212.8h119.2c1.9,0,3.4,1.5,3.4,3.4l0,0v11.3c0,1.9-1.5,3.4-3.4,3.4l0,0H180.2c-1.9,0-3.4-1.5-3.4-3.4
	v-11.3C176.8,214.3,178.4,212.8,180.2,212.8z"/>
<path class="st0" d="M314.5,212.8h119.3c1.9,0,3.4,1.5,3.4,3.4v11.3c0,1.9-1.5,3.4-3.4,3.4l0,0H314.5c-1.9,0-3.4-1.5-3.4-3.4l0,0
	v-11.2C311.2,214.3,312.7,212.8,314.5,212.8z"/>
<path class="st0" d="M448.9,212.8h119.2c1.9,0,3.4,1.5,3.4,3.4v11.2c0,1.9-1.5,3.4-3.4,3.4H448.9c-1.9,0-3.4-1.5-3.4-3.4v-11.2
	C445.5,214.3,447,212.8,448.9,212.8z"/>
<path class="st0" d="M45.9,239.7h119.2c1.9,0,3.4,1.5,3.4,3.4v11.2c0,1.9-1.5,3.4-3.4,3.4H45.9c-1.9,0-3.4-1.5-3.4-3.4v-11.2
	C42.5,241.2,44,239.7,45.9,239.7z"/>
<path class="st0" d="M180.2,239.7h119.2c1.9,0,3.4,1.5,3.4,3.4l0,0v11.3c0,1.9-1.5,3.4-3.4,3.4l0,0H180.2c-1.9,0-3.4-1.5-3.4-3.4
	v-11.3C176.8,241.2,178.4,239.7,180.2,239.7z"/>
<path class="st0" d="M314.5,239.7h119.3c1.9,0,3.4,1.5,3.4,3.4v11.3c0,1.9-1.5,3.4-3.4,3.4l0,0H314.5c-1.9,0-3.4-1.5-3.4-3.4l0,0
	v-11.3C311.2,241.2,312.7,239.7,314.5,239.7z"/>
<path class="st0" d="M448.9,239.7h119.2c1.9,0,3.4,1.5,3.4,3.4v11.2c0,1.9-1.5,3.4-3.4,3.4H448.9c-1.9,0-3.4-1.5-3.4-3.4v-11.2
	C445.5,241.2,447,239.7,448.9,239.7z"/>
<path class="st0" d="M45.9,266.7h119.2c1.9,0,3.4,1.5,3.4,3.4v11.2c0,1.9-1.5,3.4-3.4,3.4H45.9c-1.9,0-3.4-1.5-3.4-3.4v-11.2
	C42.5,268.2,44,266.7,45.9,266.7z"/>
<path class="st0" d="M180.2,266.7h119.2c1.9,0,3.4,1.5,3.4,3.4l0,0v11.2c0,1.9-1.5,3.4-3.4,3.4l0,0H180.2c-1.9,0-3.4-1.5-3.4-3.4
	V270C176.8,268.2,178.4,266.7,180.2,266.7z"/>
<path class="st0" d="M314.5,266.7h119.3c1.9,0,3.4,1.5,3.4,3.4v11.3c0,1.9-1.5,3.4-3.4,3.4l0,0H314.5c-1.9,0-3.4-1.5-3.4-3.4l0,0
	V270C311.2,268.2,312.7,266.7,314.5,266.7z"/>
<path class="st0" d="M448.9,266.7h119.2c1.9,0,3.4,1.5,3.4,3.4v11.2c0,1.9-1.5,3.4-3.4,3.4H448.9c-1.9,0-3.4-1.5-3.4-3.4v-11.2
	C445.5,268.2,447,266.7,448.9,266.7z"/>
<path class="st0" d="M45.9,293.6h119.2c1.9,0,3.4,1.5,3.4,3.4v11.2c0,1.9-1.5,3.4-3.4,3.4H45.9c-1.9,0-3.4-1.5-3.4-3.4V297
	C42.5,295.2,44,293.6,45.9,293.6z"/>
<path class="st0" d="M180.2,293.6h119.2c1.9,0,3.4,1.5,3.4,3.4l0,0v11.3c0,1.9-1.5,3.4-3.4,3.4l0,0H180.2c-1.9,0-3.4-1.5-3.4-3.4
	V297C176.9,295.1,178.4,293.6,180.2,293.6z"/>
<path class="st0" d="M314.5,293.6h119.3c1.9,0,3.4,1.5,3.4,3.4v11.3c0,1.9-1.5,3.4-3.4,3.4l0,0H314.5c-1.9,0-3.4-1.5-3.4-3.4l0,0
	V297C311.2,295.1,312.7,293.6,314.5,293.6z"/>
<path class="st0" d="M448.9,293.6h119.2c1.9,0,3.4,1.5,3.4,3.4v11.2c0,1.9-1.5,3.4-3.4,3.4H448.9c-1.9,0-3.4-1.5-3.4-3.4V297
	C445.5,295.2,447,293.6,448.9,293.6z"/>
<path class="st0" d="M45.9,320.6h119.2c1.9,0,3.4,1.5,3.4,3.4v11.2c0,1.9-1.5,3.4-3.4,3.4H45.9c-1.9,0-3.4-1.5-3.4-3.4V324
	C42.5,322.1,44,320.6,45.9,320.6z"/>
<path class="st0" d="M180.2,320.6h119.2c1.9,0,3.4,1.5,3.4,3.4l0,0v11.3c0,1.9-1.5,3.4-3.4,3.4l0,0H180.2c-1.9,0-3.4-1.5-3.4-3.4
	V324C176.8,322.1,178.3,320.6,180.2,320.6L180.2,320.6z"/>
<path class="st0" d="M314.5,320.6h119.3c1.9,0,3.4,1.5,3.4,3.4v11.3c0,1.9-1.5,3.4-3.4,3.4l0,0H314.5c-1.9,0-3.4-1.5-3.4-3.4l0,0
	V324C311.1,322.1,312.7,320.6,314.5,320.6L314.5,320.6z"/>
<path class="st0" d="M448.9,320.6h119.2c1.9,0,3.4,1.5,3.4,3.4v11.2c0,1.9-1.5,3.4-3.4,3.4H448.9c-1.9,0-3.4-1.5-3.4-3.4V324
	C445.5,322.1,447,320.6,448.9,320.6z"/>
<path class="st0" d="M45.9,347.6h119.2c1.9,0,3.4,1.5,3.4,3.4v11.2c0,1.9-1.5,3.4-3.4,3.4H45.9c-1.9,0-3.4-1.5-3.4-3.4V351
	C42.5,349.1,44,347.6,45.9,347.6z"/>
<path class="st0" d="M180.2,347.6h119.2c1.9,0,3.4,1.5,3.4,3.4l0,0v11.3c0,1.9-1.5,3.4-3.4,3.4l0,0H180.2c-1.9,0-3.4-1.5-3.4-3.4
	V351C176.8,349.1,178.3,347.6,180.2,347.6z"/>
<path class="st0" d="M314.5,347.6h119.3c1.9,0,3.4,1.5,3.4,3.4v11.3c0,1.9-1.5,3.4-3.4,3.4l0,0H314.5c-1.9,0-3.4-1.5-3.4-3.4l0,0
	v-11.2C311.2,349.1,312.7,347.6,314.5,347.6L314.5,347.6z"/>
<path class="st0" d="M448.9,347.6h119.2c1.9,0,3.4,1.5,3.4,3.4v11.2c0,1.9-1.5,3.4-3.4,3.4H448.9c-1.9,0-3.4-1.5-3.4-3.4V351
	C445.5,349.1,447,347.6,448.9,347.6z"/>
<path class="st0" d="M45.9,374.5h119.2c1.9,0,3.4,1.5,3.4,3.4v11.2c0,1.9-1.5,3.4-3.4,3.4H45.9c-1.9,0-3.4-1.5-3.4-3.4v-11.2
	C42.5,376,44,374.5,45.9,374.5z"/>
<path class="st0" d="M180.2,374.5h119.2c1.9,0,3.4,1.5,3.4,3.4l0,0v11.3c0,1.9-1.5,3.4-3.4,3.4l0,0H180.2c-1.9,0-3.4-1.5-3.4-3.4
	v-11.3C176.8,376,178.3,374.5,180.2,374.5z"/>
<path class="st0" d="M314.5,374.5h119.3c1.9,0,3.4,1.5,3.4,3.4v11.3c0,1.9-1.5,3.4-3.4,3.4l0,0H314.5c-1.9,0-3.4-1.5-3.4-3.4l0,0
	V378C311.2,376,312.7,374.5,314.5,374.5L314.5,374.5z"/>
<path class="st0" d="M448.9,374.5h119.2c1.9,0,3.4,1.5,3.4,3.4v11.2c0,1.9-1.5,3.4-3.4,3.4H448.9c-1.9,0-3.4-1.5-3.4-3.4v-11.2
	C445.5,376,447,374.5,448.9,374.5z"/>
<path class="st0" d="M45.9,401.5h119.2c1.9,0,3.4,1.5,3.4,3.4v11.2c0,1.9-1.5,3.4-3.4,3.4H45.9c-1.9,0-3.4-1.5-3.4-3.4v-11.2
	C42.5,403,44,401.5,45.9,401.5z"/>
<path class="st0" d="M180.2,401.5h119.2c1.9,0,3.4,1.5,3.4,3.4l0,0v11.2c0,1.9-1.5,3.4-3.4,3.4l0,0H180.2c-1.9,0-3.4-1.5-3.4-3.4
	v-11.3C176.8,403,178.3,401.5,180.2,401.5z"/>
<path class="st0" d="M314.5,401.5h119.3c1.9,0,3.4,1.5,3.4,3.4v11.3c0,1.9-1.5,3.4-3.4,3.4l0,0H314.5c-1.9,0-3.4-1.5-3.4-3.4l0,0
	V405C311.2,403,312.7,401.5,314.5,401.5L314.5,401.5L314.5,401.5z"/>
<path class="st0" d="M448.9,401.5h119.2c1.9,0,3.4,1.5,3.4,3.4v11.2c0,1.9-1.5,3.4-3.4,3.4H448.9c-1.9,0-3.4-1.5-3.4-3.4v-11.2
	C445.5,403,447,401.5,448.9,401.5z"/>
<path class="st0" d="M45.9,428.4h119.2c1.9,0,3.4,1.5,3.4,3.4V443c0,1.9-1.5,3.4-3.4,3.4H45.9c-1.9,0-3.4-1.5-3.4-3.4v-11.2
	C42.5,430,44,428.4,45.9,428.4z"/>
<path class="st0" d="M180.2,428.4h119.2c1.9,0,3.4,1.5,3.4,3.4l0,0v11.3c0,1.9-1.5,3.4-3.4,3.4l0,0H180.2c-1.9,0-3.4-1.5-3.4-3.4
	v-11.3C176.8,430,178.3,428.4,180.2,428.4z"/>
<path class="st0" d="M314.5,428.4h119.3c1.9,0,3.4,1.5,3.4,3.4v11.3c0,1.9-1.5,3.4-3.4,3.4l0,0H314.5c-1.9,0-3.4-1.5-3.4-3.4l0,0
	v-11.2C311.2,430,312.7,428.4,314.5,428.4L314.5,428.4z"/>
<path class="st0" d="M448.9,428.4h119.2c1.9,0,3.4,1.5,3.4,3.4V443c0,1.9-1.5,3.4-3.4,3.4H448.9c-1.9,0-3.4-1.5-3.4-3.4v-11.2
	C445.5,430,447,428.4,448.9,428.4z"/>
<path class="st0" d="M45.9,455.4h119.2c1.9,0,3.4,1.5,3.4,3.4V470c0,1.9-1.5,3.4-3.4,3.4H45.9c-1.9,0-3.4-1.5-3.4-3.4v-11.2
	C42.5,456.9,44,455.4,45.9,455.4z"/>
<path class="st0" d="M180.2,455.4h119.2c1.9,0,3.4,1.5,3.4,3.4l0,0V470c0,1.9-1.5,3.4-3.4,3.4l0,0H180.2c-1.9,0-3.4-1.5-3.4-3.4
	v-11.2C176.8,456.9,178.3,455.4,180.2,455.4z"/>
<path class="st0" d="M314.5,455.4h119.3c1.9,0,3.4,1.5,3.4,3.4V470c0,1.9-1.5,3.4-3.4,3.4l0,0H314.5c-1.9,0-3.4-1.5-3.4-3.4l0,0
	v-11.2C311.2,456.9,312.7,455.4,314.5,455.4L314.5,455.4z"/>
<path class="st0" d="M448.9,455.4h119.2c1.9,0,3.4,1.5,3.4,3.4V470c0,1.9-1.5,3.4-3.4,3.4H448.9c-1.9,0-3.4-1.5-3.4-3.4v-11.2
	C445.5,456.9,447,455.4,448.9,455.4z"/>
<path class="st0" d="M45.9,482.4h119.2c1.9,0,3.4,1.5,3.4,3.4V497c0,1.9-1.5,3.4-3.4,3.4H45.9c-1.9,0-3.4-1.5-3.4-3.4v-11.2
	C42.5,483.9,44,482.4,45.9,482.4z"/>
<path class="st0" d="M180.2,482.4h119.2c1.9,0,3.4,1.5,3.4,3.4l0,0V497c0,1.9-1.5,3.4-3.4,3.4l0,0H180.2c-1.9,0-3.4-1.5-3.4-3.4
	v-11.3C176.8,483.9,178.3,482.4,180.2,482.4z"/>
<path class="st0" d="M314.5,482.4h119.3c1.9,0,3.4,1.5,3.4,3.4V497c0,1.9-1.5,3.4-3.4,3.4l0,0H314.5c-1.9,0-3.4-1.5-3.4-3.4l0,0
	v-11.3C311.2,483.9,312.7,482.4,314.5,482.4L314.5,482.4z"/>
<path class="st0" d="M448.9,482.4h119.2c1.9,0,3.4,1.5,3.4,3.4V497c0,1.9-1.5,3.4-3.4,3.4H448.9c-1.9,0-3.4-1.5-3.4-3.4v-11.2
	C445.5,483.9,447,482.4,448.9,482.4z"/>
<path class="st0" d="M45.9,509.3h119.2c1.9,0,3.4,1.5,3.4,3.4v11.2c0,1.9-1.5,3.4-3.4,3.4H45.9c-1.9,0-3.4-1.5-3.4-3.4v-11.2
	C42.5,510.8,44,509.3,45.9,509.3z"/>
<path class="st0" d="M180.2,509.3h119.2c1.9,0,3.4,1.5,3.4,3.4l0,0V524c0,1.9-1.5,3.4-3.4,3.4l0,0H180.2c-1.9,0-3.4-1.5-3.4-3.4
	v-11.3C176.8,510.8,178.3,509.3,180.2,509.3z"/>
<path class="st0" d="M314.5,509.3h119.3c1.9,0,3.4,1.5,3.4,3.4V524c0,1.9-1.5,3.4-3.4,3.4l0,0H314.5c-1.9,0-3.4-1.5-3.4-3.4l0,0
	v-11.2C311.2,510.8,312.7,509.3,314.5,509.3L314.5,509.3z"/>
<path class="st0" d="M448.9,509.3h119.2c1.9,0,3.4,1.5,3.4,3.4v11.2c0,1.9-1.5,3.4-3.4,3.4H448.9c-1.9,0-3.4-1.5-3.4-3.4v-11.2
	C445.5,510.8,447,509.3,448.9,509.3z"/>
<path class="st0" d="M45.9,536.3h119.2c1.9,0,3.4,1.5,3.4,3.4v11.2c0,1.9-1.5,3.4-3.4,3.4H45.9c-1.9,0-3.4-1.5-3.4-3.4v-11.2
	C42.5,537.8,44,536.3,45.9,536.3z"/>
<path class="st0" d="M180.2,536.3h119.2c1.9,0,3.4,1.5,3.4,3.4l0,0V551c0,1.9-1.5,3.4-3.4,3.4l0,0H180.2c-1.9,0-3.4-1.5-3.4-3.4
	v-11.3C176.8,537.8,178.3,536.3,180.2,536.3z"/>
<path class="st0" d="M314.5,536.3h119.3c1.9,0,3.4,1.5,3.4,3.4V551c0,1.9-1.5,3.4-3.4,3.4l0,0H314.5c-1.9,0-3.4-1.5-3.4-3.4l0,0
	v-11.2C311.2,537.8,312.7,536.3,314.5,536.3z"/>
<path class="st0" d="M448.9,536.3h119.2c1.9,0,3.4,1.5,3.4,3.4v11.2c0,1.9-1.5,3.4-3.4,3.4H448.9c-1.9,0-3.4-1.5-3.4-3.4v-11.2
	C445.5,537.8,447,536.3,448.9,536.3z"/>
<path class="st0" d="M45.9,563.2h119.2c1.9,0,3.4,1.5,3.4,3.4v11.2c0,1.9-1.5,3.4-3.4,3.4H45.9c-1.9,0-3.4-1.5-3.4-3.4v-11.2
	C42.5,564.8,44,563.2,45.9,563.2z"/>
<path class="st0" d="M180.2,563.2h119.2c1.9,0,3.4,1.5,3.4,3.4l0,0v11.3c0,1.9-1.5,3.4-3.4,3.4l0,0H180.2c-1.9,0-3.4-1.5-3.4-3.4
	v-11.3C176.8,564.8,178.3,563.2,180.2,563.2z"/>
<path class="st0" d="M314.5,563.2h119.3c1.9,0,3.4,1.5,3.4,3.4v11.3c0,1.9-1.5,3.4-3.4,3.4l0,0H314.5c-1.9,0-3.4-1.5-3.4-3.4l0,0
	v-11.2C311.2,564.8,312.7,563.2,314.5,563.2L314.5,563.2z"/>
<path class="st0" d="M448.9,563.2h119.2c1.9,0,3.4,1.5,3.4,3.4v11.2c0,1.9-1.5,3.4-3.4,3.4H448.9c-1.9,0-3.4-1.5-3.4-3.4v-11.2
	C445.5,564.8,447,563.2,448.9,563.2z"/>
<path class="st0" d="M45.9,590.2h119.2c1.9,0,3.4,1.5,3.4,3.4v11.2c0,1.9-1.5,3.4-3.4,3.4H45.9c-1.9,0-3.4-1.5-3.4-3.4v-11.2
	C42.5,591.7,44,590.2,45.9,590.2z"/>
<path class="st0" d="M180.2,590.2h119.2c1.9,0,3.4,1.5,3.4,3.4l0,0v11.3c0,1.9-1.5,3.4-3.4,3.4l0,0H180.2c-1.9,0-3.4-1.5-3.4-3.4
	v-11.3C176.8,591.7,178.3,590.2,180.2,590.2z"/>
<path class="st0" d="M314.5,590.2h119.3c1.9,0,3.4,1.5,3.4,3.4v11.3c0,1.9-1.5,3.4-3.4,3.4l0,0H314.5c-1.9,0-3.4-1.5-3.4-3.4l0,0
	v-11.2C311.2,591.7,312.7,590.2,314.5,590.2L314.5,590.2z"/>
<path class="st0" d="M448.9,590.2h119.2c1.9,0,3.4,1.5,3.4,3.4v11.2c0,1.9-1.5,3.4-3.4,3.4H448.9c-1.9,0-3.4-1.5-3.4-3.4v-11.2
	C445.5,591.7,447,590.2,448.9,590.2z"/>
<path class="st0" d="M45.9,617.2h119.2c1.9,0,3.4,1.5,3.4,3.4v11.2c0,1.9-1.5,3.4-3.4,3.4H45.9c-1.9,0-3.4-1.5-3.4-3.4v-11.2
	C42.5,618.7,44,617.2,45.9,617.2z"/>
<path class="st0" d="M180.2,617.2h119.2c1.9,0,3.4,1.5,3.4,3.4l0,0v11.3c0,1.9-1.5,3.4-3.4,3.4l0,0H180.2c-1.9,0-3.4-1.5-3.4-3.4
	v-11.3C176.8,618.7,178.3,617.2,180.2,617.2z"/>
<path class="st0" d="M314.5,617.2h119.3c1.9,0,3.4,1.5,3.4,3.4v11.3c0,1.9-1.5,3.4-3.4,3.4l0,0H314.5c-1.9,0-3.4-1.5-3.4-3.4l0,0
	v-11.2C311.2,618.7,312.7,617.2,314.5,617.2L314.5,617.2z"/>
<path class="st0" d="M448.9,617.2h119.2c1.9,0,3.4,1.5,3.4,3.4v11.2c0,1.9-1.5,3.4-3.4,3.4H448.9c-1.9,0-3.4-1.5-3.4-3.4v-11.2
	C445.5,618.7,447,617.2,448.9,617.2z"/>
<path class="st0" d="M45.9,644.1h119.2c1.9,0,3.4,1.5,3.4,3.4v11.2c0,1.9-1.5,3.4-3.4,3.4H45.9c-1.9,0-3.4-1.5-3.4-3.4v-11.2
	C42.5,645.6,44,644.1,45.9,644.1z"/>
<path class="st0" d="M180.2,644.1h119.2c1.9,0,3.4,1.5,3.4,3.4l0,0v11.3c0,1.9-1.5,3.4-3.4,3.4l0,0H180.2c-1.9,0-3.4-1.5-3.4-3.4
	v-11.3C176.8,645.6,178.3,644.1,180.2,644.1z"/>
<path class="st0" d="M314.5,644.1h119.3c1.9,0,3.4,1.5,3.4,3.4v11.3c0,1.9-1.5,3.4-3.4,3.4l0,0H314.5c-1.9,0-3.4-1.5-3.4-3.4l0,0
	v-11.2C311.2,645.6,312.7,644.1,314.5,644.1L314.5,644.1z"/>
<path class="st0" d="M448.9,644.1h119.2c1.9,0,3.4,1.5,3.4,3.4v11.2c0,1.9-1.5,3.4-3.4,3.4H448.9c-1.9,0-3.4-1.5-3.4-3.4v-11.2
	C445.5,645.6,447,644.1,448.9,644.1z"/>
<path class="st0" d="M45.9,671.1h119.2c1.9,0,3.4,1.5,3.4,3.4v11.2c0,1.9-1.5,3.4-3.4,3.4H45.9c-1.9,0-3.4-1.5-3.4-3.4v-11.2
	C42.5,672.6,44,671.1,45.9,671.1z"/>
<path class="st0" d="M180.2,671.1h119.2c1.9,0,3.4,1.5,3.4,3.4l0,0v11.3c0,1.9-1.5,3.4-3.4,3.4l0,0H180.2c-1.9,0-3.4-1.5-3.4-3.4
	v-11.3C176.8,672.6,178.3,671.1,180.2,671.1z"/>
<path class="st0" d="M314.5,671.1h119.3c1.9,0,3.4,1.5,3.4,3.4v11.3c0,1.9-1.5,3.4-3.4,3.4l0,0H314.5c-1.9,0-3.4-1.5-3.4-3.4l0,0
	v-11.2C311.2,672.6,312.7,671.1,314.5,671.1L314.5,671.1z"/>
<path class="st0" d="M448.9,671.1h119.2c1.9,0,3.4,1.5,3.4,3.4v11.2c0,1.9-1.5,3.4-3.4,3.4H448.9c-1.9,0-3.4-1.5-3.4-3.4v-11.2
	C445.5,672.6,447,671.1,448.9,671.1z"/>
<path class="st0" d="M45.9,698h119.2c1.9,0,3.4,1.5,3.4,3.4v11.2c0,1.9-1.5,3.4-3.4,3.4H45.9c-1.9,0-3.4-1.5-3.4-3.4v-11.2
	C42.5,699.6,44,698,45.9,698z"/>
<path class="st0" d="M180.2,698h119.2c1.9,0,3.4,1.5,3.4,3.4l0,0v11.3c0,1.9-1.5,3.4-3.4,3.4l0,0H180.2c-1.9,0-3.4-1.5-3.4-3.4
	v-11.2C176.8,699.6,178.3,698,180.2,698L180.2,698z"/>
<path class="st0" d="M314.5,698h119.3c1.9,0,3.4,1.5,3.4,3.4v11.3c0,1.9-1.5,3.4-3.4,3.4l0,0H314.5c-1.9,0-3.4-1.5-3.4-3.4l0,0
	v-11.2C311.1,699.6,312.6,698,314.5,698L314.5,698z"/>
<path class="st0" d="M448.9,698h119.2c1.9,0,3.4,1.5,3.4,3.4v11.2c0,1.9-1.5,3.4-3.4,3.4H448.9c-1.9,0-3.4-1.5-3.4-3.4v-11.2
	C445.5,699.6,447,698,448.9,698z"/>
<path class="st0" d="M45.9,725h119.2c1.9,0,3.4,1.5,3.4,3.4v11.2c0,1.9-1.5,3.4-3.4,3.4H45.9c-1.9,0-3.4-1.5-3.4-3.4v-11.2
	C42.5,726.5,44,725,45.9,725z"/>
<path class="st0" d="M180.2,725h119.2c1.9,0,3.4,1.5,3.4,3.4l0,0v11.3c0,1.9-1.5,3.4-3.4,3.4l0,0H180.2c-1.9,0-3.4-1.5-3.4-3.4
	v-11.3C176.8,726.5,178.3,725,180.2,725z"/>
<path class="st0" d="M314.5,725h119.3c1.9,0,3.4,1.5,3.4,3.4v11.3c0,1.9-1.5,3.4-3.4,3.4l0,0H314.5c-1.9,0-3.4-1.5-3.4-3.4l0,0
	v-11.2C311.2,726.5,312.7,725,314.5,725L314.5,725z"/>
<path class="st0" d="M448.9,725h119.2c1.9,0,3.4,1.5,3.4,3.4v11.2c0,1.9-1.5,3.4-3.4,3.4H448.9c-1.9,0-3.4-1.5-3.4-3.4v-11.2
	C445.5,726.5,447,725,448.9,725z"/>
<rect x="1" y="1" class="st0" width="612" height="792"/>
</svg>
