<?xml version="1.0" encoding="utf-8"?>
<!-- Generator: Adobe Illustrator 21.1.0, SVG Export Plug-In . SVG Version: 6.00 Build 0)  -->
<svg version="1.1" id="Layer_1" xmlns="http://www.w3.org/2000/svg" xmlns:xlink="http://www.w3.org/1999/xlink" x="0px" y="0px"
	 viewBox="0 0 614 794" style="enable-background:new 0 0 614 794;" xml:space="preserve">
<style type="text/css">
	.st0{fill:none;stroke:#231F20;stroke-width:2;}
</style>
<title>SL733</title>
<rect x="316.5" y="20.9" class="st0" width="269" height="63.8"/>
<rect x="316.5" y="97.3" class="st0" width="269" height="63.8"/>
<rect x="316.5" y="173.9" class="st0" width="269" height="63.8"/>
<rect x="316.5" y="250.4" class="st0" width="269" height="63.8"/>
<rect x="316.5" y="326.9" class="st0" width="269" height="63.8"/>
<rect x="316.5" y="403.4" class="st0" width="269" height="63.8"/>
<rect x="316.5" y="479.9" class="st0" width="269" height="63.8"/>
<rect x="316.5" y="556.3" class="st0" width="269" height="63.8"/>
<rect x="316.5" y="632.8" class="st0" width="269" height="63.8"/>
<rect x="316.5" y="709.3" class="st0" width="269" height="63.8"/>
<rect x="28.5" y="20.9" class="st0" width="269" height="63.8"/>
<rect x="28.5" y="97.3" class="st0" width="269" height="63.8"/>
<rect x="28.5" y="173.9" class="st0" width="269" height="63.8"/>
<rect x="28.5" y="250.4" class="st0" width="269" height="63.8"/>
<rect x="28.5" y="326.9" class="st0" width="269" height="63.8"/>
<rect x="28.5" y="403.4" class="st0" width="269" height="63.8"/>
<rect x="28.5" y="479.9" class="st0" width="269" height="63.8"/>
<rect x="28.5" y="556.3" class="st0" width="269" height="63.8"/>
<rect x="28.5" y="632.8" class="st0" width="269" height="63.8"/>
<rect x="28.5" y="709.3" class="st0" width="269" height="63.8"/>
<rect x="1" y="1" class="st0" width="612" height="792"/>
</svg>
