<?xml version="1.0" encoding="utf-8"?>
<!-- Generator: Adobe Illustrator 21.1.0, SVG Export Plug-In . SVG Version: 6.00 Build 0)  -->
<svg version="1.1" id="Layer_1" xmlns="http://www.w3.org/2000/svg" xmlns:xlink="http://www.w3.org/1999/xlink" x="0px" y="0px"
	 viewBox="0 0 614 794" style="enable-background:new 0 0 614 794;" xml:space="preserve">
<style type="text/css">
	.st0{fill:none;stroke:#231F20;stroke-width:2;stroke-miterlimit:10;}
</style>
<title>SL742</title>
<path class="st0" d="M38.2,26.2h84c6.6,0,12,5.4,12,12v192c0,6.6-5.4,12-12,12h-84c-6.6,0-12-5.4-12-12v-192
	C26.2,31.6,31.6,26.2,38.2,26.2z"/>
<path class="st0" d="M491.8,26.2h84c6.6,0,12,5.4,12,12v192c0,6.6-5.4,12-12,12h-84c-6.6,0-12-5.4-12-12v-192
	C479.8,31.6,485.2,26.2,491.8,26.2z"/>
<path class="st0" d="M340.6,26.2h84c6.6,0,12,5.4,12,12v192c0,6.6-5.4,12-12,12h-84c-6.6,0-12-5.4-12-12v-192
	C328.6,31.6,334,26.2,340.6,26.2z"/>
<path class="st0" d="M189.4,26.2h84c6.6,0,12,5.4,12,12v192c0,6.6-5.4,12-12,12h-84c-6.6,0-12-5.4-12-12v-192
	C177.4,31.6,182.8,26.2,189.4,26.2z"/>
<path class="st0" d="M38.2,551.8h84c6.6,0,12,5.4,12,12v192c0,6.6-5.4,12-12,12h-84c-6.6,0-12-5.4-12-12v-192
	C26.2,557.2,31.6,551.8,38.2,551.8z"/>
<path class="st0" d="M491.8,551.8h84c6.6,0,12,5.4,12,12v192c0,6.6-5.4,12-12,12h-84c-6.6,0-12-5.4-12-12v-192
	C479.8,557.2,485.2,551.8,491.8,551.8z"/>
<path class="st0" d="M340.6,551.8h84c6.6,0,12,5.4,12,12v192c0,6.6-5.4,12-12,12h-84c-6.6,0-12-5.4-12-12v-192
	C328.6,557.2,334,551.8,340.6,551.8z"/>
<path class="st0" d="M189.4,551.8h84c6.6,0,12,5.4,12,12v192c0,6.6-5.4,12-12,12h-84c-6.6,0-12-5.4-12-12v-192
	C177.4,557.2,182.8,551.8,189.4,551.8z"/>
<path class="st0" d="M38.2,289h84c6.6,0,12,5.4,12,12v192c0,6.6-5.4,12-12,12h-84c-6.6,0-12-5.4-12-12V301
	C26.2,294.4,31.6,289,38.2,289z"/>
<path class="st0" d="M491.8,289h84c6.6,0,12,5.4,12,12v192c0,6.6-5.4,12-12,12h-84c-6.6,0-12-5.4-12-12V301
	C479.8,294.4,485.2,289,491.8,289z"/>
<path class="st0" d="M340.6,289h84c6.6,0,12,5.4,12,12v192c0,6.6-5.4,12-12,12h-84c-6.6,0-12-5.4-12-12V301
	C328.6,294.4,334,289,340.6,289z"/>
<path class="st0" d="M189.4,289h84c6.6,0,12,5.4,12,12v192c0,6.6-5.4,12-12,12h-84c-6.6,0-12-5.4-12-12V301
	C177.4,294.4,182.8,289,189.4,289z"/>
<rect x="1" y="1" class="st0" width="612" height="792"/>
</svg>
