<?xml version="1.0" encoding="utf-8"?>
<!-- Generator: Adobe Illustrator 20.1.0, SVG Export Plug-In . SVG Version: 6.00 Build 0)  -->
<svg version="1.1" id="Template" xmlns="http://www.w3.org/2000/svg" xmlns:xlink="http://www.w3.org/1999/xlink" x="0px" y="0px"
	 viewBox="0 0 612 792" style="enable-background:new 0 0 612 792;" xml:space="preserve">
<style type="text/css">
	.st0{fill:none;stroke:#000000;stroke-miterlimit:10;}
	.st1{fill:none;stroke:#000000;stroke-width:2;stroke-miterlimit:10;}
</style>
<g>
	<path class="st0" d="M611,1v790H1V1H611 M612,0H0v792h612V0L612,0z"/>
	<g>
		<path class="st1" d="M99,63c0,2.5-2,4.5-4.5,4.5h-63c-2.5,0-4.5-2-4.5-4.5V45c0-2.5,2-4.5,4.5-4.5h63c2.5,0,4.5,2,4.5,4.5V63z"/>
		<path class="st1" d="M504,63c0,2.5-2,4.5-4.5,4.5h-63c-2.5,0-4.5-2-4.5-4.5V45c0-2.5,2-4.5,4.5-4.5h63c2.5,0,4.5,2,4.5,4.5V63z"/>
		<path class="st1" d="M423,63c0,2.5-2,4.5-4.5,4.5h-63c-2.5,0-4.5-2-4.5-4.5V45c0-2.5,2-4.5,4.5-4.5h63c2.5,0,4.5,2,4.5,4.5V63z"/>
		<path class="st1" d="M342,63c0,2.5-2,4.5-4.5,4.5h-63c-2.5,0-4.5-2-4.5-4.5V45c0-2.5,2-4.5,4.5-4.5h63c2.5,0,4.5,2,4.5,4.5V63z"/>
		<path class="st1" d="M261,63c0,2.5-2,4.5-4.5,4.5h-63c-2.5,0-4.5-2-4.5-4.5V45c0-2.5,2-4.5,4.5-4.5h63c2.5,0,4.5,2,4.5,4.5V63z"/>
		<path class="st1" d="M180,63c0,2.5-2,4.5-4.5,4.5h-63c-2.5,0-4.5-2-4.5-4.5V45c0-2.5,2-4.5,4.5-4.5h63c2.5,0,4.5,2,4.5,4.5V63z"/>
		<path class="st1" d="M585,63c0,2.5-2,4.5-4.5,4.5h-63c-2.5,0-4.5-2-4.5-4.5V45c0-2.5,2-4.5,4.5-4.5h63c2.5,0,4.5,2,4.5,4.5V63z"/>
	</g>
	<g>
		<path class="st1" d="M99,747c0,2.5-2,4.5-4.5,4.5h-63c-2.5,0-4.5-2-4.5-4.5v-18c0-2.5,2-4.5,4.5-4.5h63c2.5,0,4.5,2,4.5,4.5V747z"
			/>
		<path class="st1" d="M504,747c0,2.5-2,4.5-4.5,4.5h-63c-2.5,0-4.5-2-4.5-4.5v-18c0-2.5,2-4.5,4.5-4.5h63c2.5,0,4.5,2,4.5,4.5V747z
			"/>
		<path class="st1" d="M423,747c0,2.5-2,4.5-4.5,4.5h-63c-2.5,0-4.5-2-4.5-4.5v-18c0-2.5,2-4.5,4.5-4.5h63c2.5,0,4.5,2,4.5,4.5V747z
			"/>
		<path class="st1" d="M342,747c0,2.5-2,4.5-4.5,4.5h-63c-2.5,0-4.5-2-4.5-4.5v-18c0-2.5,2-4.5,4.5-4.5h63c2.5,0,4.5,2,4.5,4.5V747z
			"/>
		<path class="st1" d="M261,747c0,2.5-2,4.5-4.5,4.5h-63c-2.5,0-4.5-2-4.5-4.5v-18c0-2.5,2-4.5,4.5-4.5h63c2.5,0,4.5,2,4.5,4.5V747z
			"/>
		<path class="st1" d="M180,747c0,2.5-2,4.5-4.5,4.5h-63c-2.5,0-4.5-2-4.5-4.5v-18c0-2.5,2-4.5,4.5-4.5h63c2.5,0,4.5,2,4.5,4.5V747z
			"/>
		<path class="st1" d="M585,747c0,2.5-2,4.5-4.5,4.5h-63c-2.5,0-4.5-2-4.5-4.5v-18c0-2.5,2-4.5,4.5-4.5h63c2.5,0,4.5,2,4.5,4.5V747z
			"/>
	</g>
	<g>
		<path class="st1" d="M99,99c0,2.5-2,4.5-4.5,4.5h-63c-2.5,0-4.5-2-4.5-4.5V81c0-2.5,2-4.5,4.5-4.5h63c2.5,0,4.5,2,4.5,4.5V99z"/>
		<path class="st1" d="M504,99c0,2.5-2,4.5-4.5,4.5h-63c-2.5,0-4.5-2-4.5-4.5V81c0-2.5,2-4.5,4.5-4.5h63c2.5,0,4.5,2,4.5,4.5V99z"/>
		<path class="st1" d="M423,99c0,2.5-2,4.5-4.5,4.5h-63c-2.5,0-4.5-2-4.5-4.5V81c0-2.5,2-4.5,4.5-4.5h63c2.5,0,4.5,2,4.5,4.5V99z"/>
		<path class="st1" d="M342,99c0,2.5-2,4.5-4.5,4.5h-63c-2.5,0-4.5-2-4.5-4.5V81c0-2.5,2-4.5,4.5-4.5h63c2.5,0,4.5,2,4.5,4.5V99z"/>
		<path class="st1" d="M261,99c0,2.5-2,4.5-4.5,4.5h-63c-2.5,0-4.5-2-4.5-4.5V81c0-2.5,2-4.5,4.5-4.5h63c2.5,0,4.5,2,4.5,4.5V99z"/>
		<path class="st1" d="M180,99c0,2.5-2,4.5-4.5,4.5h-63c-2.5,0-4.5-2-4.5-4.5V81c0-2.5,2-4.5,4.5-4.5h63c2.5,0,4.5,2,4.5,4.5V99z"/>
		<path class="st1" d="M585,99c0,2.5-2,4.5-4.5,4.5h-63c-2.5,0-4.5-2-4.5-4.5V81c0-2.5,2-4.5,4.5-4.5h63c2.5,0,4.5,2,4.5,4.5V99z"/>
	</g>
	<g>
		<path class="st1" d="M99,135c0,2.5-2,4.5-4.5,4.5h-63c-2.5,0-4.5-2-4.5-4.5v-18c0-2.5,2-4.5,4.5-4.5h63c2.5,0,4.5,2,4.5,4.5V135z"
			/>
		<path class="st1" d="M504,135c0,2.5-2,4.5-4.5,4.5h-63c-2.5,0-4.5-2-4.5-4.5v-18c0-2.5,2-4.5,4.5-4.5h63c2.5,0,4.5,2,4.5,4.5V135z
			"/>
		<path class="st1" d="M423,135c0,2.5-2,4.5-4.5,4.5h-63c-2.5,0-4.5-2-4.5-4.5v-18c0-2.5,2-4.5,4.5-4.5h63c2.5,0,4.5,2,4.5,4.5V135z
			"/>
		<path class="st1" d="M342,135c0,2.5-2,4.5-4.5,4.5h-63c-2.5,0-4.5-2-4.5-4.5v-18c0-2.5,2-4.5,4.5-4.5h63c2.5,0,4.5,2,4.5,4.5V135z
			"/>
		<path class="st1" d="M261,135c0,2.5-2,4.5-4.5,4.5h-63c-2.5,0-4.5-2-4.5-4.5v-18c0-2.5,2-4.5,4.5-4.5h63c2.5,0,4.5,2,4.5,4.5V135z
			"/>
		<path class="st1" d="M180,135c0,2.5-2,4.5-4.5,4.5h-63c-2.5,0-4.5-2-4.5-4.5v-18c0-2.5,2-4.5,4.5-4.5h63c2.5,0,4.5,2,4.5,4.5V135z
			"/>
		<path class="st1" d="M585,135c0,2.5-2,4.5-4.5,4.5h-63c-2.5,0-4.5-2-4.5-4.5v-18c0-2.5,2-4.5,4.5-4.5h63c2.5,0,4.5,2,4.5,4.5V135z
			"/>
	</g>
	<g>
		<path class="st1" d="M99,171c0,2.5-2,4.5-4.5,4.5h-63c-2.5,0-4.5-2-4.5-4.5v-18c0-2.5,2-4.5,4.5-4.5h63c2.5,0,4.5,2,4.5,4.5V171z"
			/>
		<path class="st1" d="M504,171c0,2.5-2,4.5-4.5,4.5h-63c-2.5,0-4.5-2-4.5-4.5v-18c0-2.5,2-4.5,4.5-4.5h63c2.5,0,4.5,2,4.5,4.5V171z
			"/>
		<path class="st1" d="M423,171c0,2.5-2,4.5-4.5,4.5h-63c-2.5,0-4.5-2-4.5-4.5v-18c0-2.5,2-4.5,4.5-4.5h63c2.5,0,4.5,2,4.5,4.5V171z
			"/>
		<path class="st1" d="M342,171c0,2.5-2,4.5-4.5,4.5h-63c-2.5,0-4.5-2-4.5-4.5v-18c0-2.5,2-4.5,4.5-4.5h63c2.5,0,4.5,2,4.5,4.5V171z
			"/>
		<path class="st1" d="M261,171c0,2.5-2,4.5-4.5,4.5h-63c-2.5,0-4.5-2-4.5-4.5v-18c0-2.5,2-4.5,4.5-4.5h63c2.5,0,4.5,2,4.5,4.5V171z
			"/>
		<path class="st1" d="M180,171c0,2.5-2,4.5-4.5,4.5h-63c-2.5,0-4.5-2-4.5-4.5v-18c0-2.5,2-4.5,4.5-4.5h63c2.5,0,4.5,2,4.5,4.5V171z
			"/>
		<path class="st1" d="M585,171c0,2.5-2,4.5-4.5,4.5h-63c-2.5,0-4.5-2-4.5-4.5v-18c0-2.5,2-4.5,4.5-4.5h63c2.5,0,4.5,2,4.5,4.5V171z
			"/>
	</g>
	<g>
		<path class="st1" d="M99,207c0,2.5-2,4.5-4.5,4.5h-63c-2.5,0-4.5-2-4.5-4.5v-18c0-2.5,2-4.5,4.5-4.5h63c2.5,0,4.5,2,4.5,4.5V207z"
			/>
		<path class="st1" d="M504,207c0,2.5-2,4.5-4.5,4.5h-63c-2.5,0-4.5-2-4.5-4.5v-18c0-2.5,2-4.5,4.5-4.5h63c2.5,0,4.5,2,4.5,4.5V207z
			"/>
		<path class="st1" d="M423,207c0,2.5-2,4.5-4.5,4.5h-63c-2.5,0-4.5-2-4.5-4.5v-18c0-2.5,2-4.5,4.5-4.5h63c2.5,0,4.5,2,4.5,4.5V207z
			"/>
		<path class="st1" d="M342,207c0,2.5-2,4.5-4.5,4.5h-63c-2.5,0-4.5-2-4.5-4.5v-18c0-2.5,2-4.5,4.5-4.5h63c2.5,0,4.5,2,4.5,4.5V207z
			"/>
		<path class="st1" d="M261,207c0,2.5-2,4.5-4.5,4.5h-63c-2.5,0-4.5-2-4.5-4.5v-18c0-2.5,2-4.5,4.5-4.5h63c2.5,0,4.5,2,4.5,4.5V207z
			"/>
		<path class="st1" d="M180,207c0,2.5-2,4.5-4.5,4.5h-63c-2.5,0-4.5-2-4.5-4.5v-18c0-2.5,2-4.5,4.5-4.5h63c2.5,0,4.5,2,4.5,4.5V207z
			"/>
		<path class="st1" d="M585,207c0,2.5-2,4.5-4.5,4.5h-63c-2.5,0-4.5-2-4.5-4.5v-18c0-2.5,2-4.5,4.5-4.5h63c2.5,0,4.5,2,4.5,4.5V207z
			"/>
	</g>
	<g>
		<path class="st1" d="M99,243c0,2.5-2,4.5-4.5,4.5h-63c-2.5,0-4.5-2-4.5-4.5v-18c0-2.5,2-4.5,4.5-4.5h63c2.5,0,4.5,2,4.5,4.5V243z"
			/>
		<path class="st1" d="M504,243c0,2.5-2,4.5-4.5,4.5h-63c-2.5,0-4.5-2-4.5-4.5v-18c0-2.5,2-4.5,4.5-4.5h63c2.5,0,4.5,2,4.5,4.5V243z
			"/>
		<path class="st1" d="M423,243c0,2.5-2,4.5-4.5,4.5h-63c-2.5,0-4.5-2-4.5-4.5v-18c0-2.5,2-4.5,4.5-4.5h63c2.5,0,4.5,2,4.5,4.5V243z
			"/>
		<path class="st1" d="M342,243c0,2.5-2,4.5-4.5,4.5h-63c-2.5,0-4.5-2-4.5-4.5v-18c0-2.5,2-4.5,4.5-4.5h63c2.5,0,4.5,2,4.5,4.5V243z
			"/>
		<path class="st1" d="M261,243c0,2.5-2,4.5-4.5,4.5h-63c-2.5,0-4.5-2-4.5-4.5v-18c0-2.5,2-4.5,4.5-4.5h63c2.5,0,4.5,2,4.5,4.5V243z
			"/>
		<path class="st1" d="M180,243c0,2.5-2,4.5-4.5,4.5h-63c-2.5,0-4.5-2-4.5-4.5v-18c0-2.5,2-4.5,4.5-4.5h63c2.5,0,4.5,2,4.5,4.5V243z
			"/>
		<path class="st1" d="M585,243c0,2.5-2,4.5-4.5,4.5h-63c-2.5,0-4.5-2-4.5-4.5v-18c0-2.5,2-4.5,4.5-4.5h63c2.5,0,4.5,2,4.5,4.5V243z
			"/>
	</g>
	<g>
		<path class="st1" d="M99,279c0,2.5-2,4.5-4.5,4.5h-63c-2.5,0-4.5-2-4.5-4.5v-18c0-2.5,2-4.5,4.5-4.5h63c2.5,0,4.5,2,4.5,4.5V279z"
			/>
		<path class="st1" d="M504,279c0,2.5-2,4.5-4.5,4.5h-63c-2.5,0-4.5-2-4.5-4.5v-18c0-2.5,2-4.5,4.5-4.5h63c2.5,0,4.5,2,4.5,4.5V279z
			"/>
		<path class="st1" d="M423,279c0,2.5-2,4.5-4.5,4.5h-63c-2.5,0-4.5-2-4.5-4.5v-18c0-2.5,2-4.5,4.5-4.5h63c2.5,0,4.5,2,4.5,4.5V279z
			"/>
		<path class="st1" d="M342,279c0,2.5-2,4.5-4.5,4.5h-63c-2.5,0-4.5-2-4.5-4.5v-18c0-2.5,2-4.5,4.5-4.5h63c2.5,0,4.5,2,4.5,4.5V279z
			"/>
		<path class="st1" d="M261,279c0,2.5-2,4.5-4.5,4.5h-63c-2.5,0-4.5-2-4.5-4.5v-18c0-2.5,2-4.5,4.5-4.5h63c2.5,0,4.5,2,4.5,4.5V279z
			"/>
		<path class="st1" d="M180,279c0,2.5-2,4.5-4.5,4.5h-63c-2.5,0-4.5-2-4.5-4.5v-18c0-2.5,2-4.5,4.5-4.5h63c2.5,0,4.5,2,4.5,4.5V279z
			"/>
		<path class="st1" d="M585,279c0,2.5-2,4.5-4.5,4.5h-63c-2.5,0-4.5-2-4.5-4.5v-18c0-2.5,2-4.5,4.5-4.5h63c2.5,0,4.5,2,4.5,4.5V279z
			"/>
	</g>
	<g>
		<path class="st1" d="M99,315c0,2.5-2,4.5-4.5,4.5h-63c-2.5,0-4.5-2-4.5-4.5v-18c0-2.5,2-4.5,4.5-4.5h63c2.5,0,4.5,2,4.5,4.5V315z"
			/>
		<path class="st1" d="M504,315c0,2.5-2,4.5-4.5,4.5h-63c-2.5,0-4.5-2-4.5-4.5v-18c0-2.5,2-4.5,4.5-4.5h63c2.5,0,4.5,2,4.5,4.5V315z
			"/>
		<path class="st1" d="M423,315c0,2.5-2,4.5-4.5,4.5h-63c-2.5,0-4.5-2-4.5-4.5v-18c0-2.5,2-4.5,4.5-4.5h63c2.5,0,4.5,2,4.5,4.5V315z
			"/>
		<path class="st1" d="M342,315c0,2.5-2,4.5-4.5,4.5h-63c-2.5,0-4.5-2-4.5-4.5v-18c0-2.5,2-4.5,4.5-4.5h63c2.5,0,4.5,2,4.5,4.5V315z
			"/>
		<path class="st1" d="M261,315c0,2.5-2,4.5-4.5,4.5h-63c-2.5,0-4.5-2-4.5-4.5v-18c0-2.5,2-4.5,4.5-4.5h63c2.5,0,4.5,2,4.5,4.5V315z
			"/>
		<path class="st1" d="M180,315c0,2.5-2,4.5-4.5,4.5h-63c-2.5,0-4.5-2-4.5-4.5v-18c0-2.5,2-4.5,4.5-4.5h63c2.5,0,4.5,2,4.5,4.5V315z
			"/>
		<path class="st1" d="M585,315c0,2.5-2,4.5-4.5,4.5h-63c-2.5,0-4.5-2-4.5-4.5v-18c0-2.5,2-4.5,4.5-4.5h63c2.5,0,4.5,2,4.5,4.5V315z
			"/>
	</g>
	<g>
		<path class="st1" d="M99,351c0,2.5-2,4.5-4.5,4.5h-63c-2.5,0-4.5-2-4.5-4.5v-18c0-2.5,2-4.5,4.5-4.5h63c2.5,0,4.5,2,4.5,4.5V351z"
			/>
		<path class="st1" d="M504,351c0,2.5-2,4.5-4.5,4.5h-63c-2.5,0-4.5-2-4.5-4.5v-18c0-2.5,2-4.5,4.5-4.5h63c2.5,0,4.5,2,4.5,4.5V351z
			"/>
		<path class="st1" d="M423,351c0,2.5-2,4.5-4.5,4.5h-63c-2.5,0-4.5-2-4.5-4.5v-18c0-2.5,2-4.5,4.5-4.5h63c2.5,0,4.5,2,4.5,4.5V351z
			"/>
		<path class="st1" d="M342,351c0,2.5-2,4.5-4.5,4.5h-63c-2.5,0-4.5-2-4.5-4.5v-18c0-2.5,2-4.5,4.5-4.5h63c2.5,0,4.5,2,4.5,4.5V351z
			"/>
		<path class="st1" d="M261,351c0,2.5-2,4.5-4.5,4.5h-63c-2.5,0-4.5-2-4.5-4.5v-18c0-2.5,2-4.5,4.5-4.5h63c2.5,0,4.5,2,4.5,4.5V351z
			"/>
		<path class="st1" d="M180,351c0,2.5-2,4.5-4.5,4.5h-63c-2.5,0-4.5-2-4.5-4.5v-18c0-2.5,2-4.5,4.5-4.5h63c2.5,0,4.5,2,4.5,4.5V351z
			"/>
		<path class="st1" d="M585,351c0,2.5-2,4.5-4.5,4.5h-63c-2.5,0-4.5-2-4.5-4.5v-18c0-2.5,2-4.5,4.5-4.5h63c2.5,0,4.5,2,4.5,4.5V351z
			"/>
	</g>
	<g>
		<path class="st1" d="M99,387c0,2.5-2,4.5-4.5,4.5h-63c-2.5,0-4.5-2-4.5-4.5v-18c0-2.5,2-4.5,4.5-4.5h63c2.5,0,4.5,2,4.5,4.5V387z"
			/>
		<path class="st1" d="M504,387c0,2.5-2,4.5-4.5,4.5h-63c-2.5,0-4.5-2-4.5-4.5v-18c0-2.5,2-4.5,4.5-4.5h63c2.5,0,4.5,2,4.5,4.5V387z
			"/>
		<path class="st1" d="M423,387c0,2.5-2,4.5-4.5,4.5h-63c-2.5,0-4.5-2-4.5-4.5v-18c0-2.5,2-4.5,4.5-4.5h63c2.5,0,4.5,2,4.5,4.5V387z
			"/>
		<path class="st1" d="M342,387c0,2.5-2,4.5-4.5,4.5h-63c-2.5,0-4.5-2-4.5-4.5v-18c0-2.5,2-4.5,4.5-4.5h63c2.5,0,4.5,2,4.5,4.5V387z
			"/>
		<path class="st1" d="M261,387c0,2.5-2,4.5-4.5,4.5h-63c-2.5,0-4.5-2-4.5-4.5v-18c0-2.5,2-4.5,4.5-4.5h63c2.5,0,4.5,2,4.5,4.5V387z
			"/>
		<path class="st1" d="M180,387c0,2.5-2,4.5-4.5,4.5h-63c-2.5,0-4.5-2-4.5-4.5v-18c0-2.5,2-4.5,4.5-4.5h63c2.5,0,4.5,2,4.5,4.5V387z
			"/>
		<path class="st1" d="M585,387c0,2.5-2,4.5-4.5,4.5h-63c-2.5,0-4.5-2-4.5-4.5v-18c0-2.5,2-4.5,4.5-4.5h63c2.5,0,4.5,2,4.5,4.5V387z
			"/>
	</g>
	<g>
		<path class="st1" d="M99,423c0,2.5-2,4.5-4.5,4.5h-63c-2.5,0-4.5-2-4.5-4.5v-18c0-2.5,2-4.5,4.5-4.5h63c2.5,0,4.5,2,4.5,4.5V423z"
			/>
		<path class="st1" d="M504,423c0,2.5-2,4.5-4.5,4.5h-63c-2.5,0-4.5-2-4.5-4.5v-18c0-2.5,2-4.5,4.5-4.5h63c2.5,0,4.5,2,4.5,4.5V423z
			"/>
		<path class="st1" d="M423,423c0,2.5-2,4.5-4.5,4.5h-63c-2.5,0-4.5-2-4.5-4.5v-18c0-2.5,2-4.5,4.5-4.5h63c2.5,0,4.5,2,4.5,4.5V423z
			"/>
		<path class="st1" d="M342,423c0,2.5-2,4.5-4.5,4.5h-63c-2.5,0-4.5-2-4.5-4.5v-18c0-2.5,2-4.5,4.5-4.5h63c2.5,0,4.5,2,4.5,4.5V423z
			"/>
		<path class="st1" d="M261,423c0,2.5-2,4.5-4.5,4.5h-63c-2.5,0-4.5-2-4.5-4.5v-18c0-2.5,2-4.5,4.5-4.5h63c2.5,0,4.5,2,4.5,4.5V423z
			"/>
		<path class="st1" d="M180,423c0,2.5-2,4.5-4.5,4.5h-63c-2.5,0-4.5-2-4.5-4.5v-18c0-2.5,2-4.5,4.5-4.5h63c2.5,0,4.5,2,4.5,4.5V423z
			"/>
		<path class="st1" d="M585,423c0,2.5-2,4.5-4.5,4.5h-63c-2.5,0-4.5-2-4.5-4.5v-18c0-2.5,2-4.5,4.5-4.5h63c2.5,0,4.5,2,4.5,4.5V423z
			"/>
	</g>
	<g>
		<path class="st1" d="M99,459c0,2.5-2,4.5-4.5,4.5h-63c-2.5,0-4.5-2-4.5-4.5v-18c0-2.5,2-4.5,4.5-4.5h63c2.5,0,4.5,2,4.5,4.5V459z"
			/>
		<path class="st1" d="M504,459c0,2.5-2,4.5-4.5,4.5h-63c-2.5,0-4.5-2-4.5-4.5v-18c0-2.5,2-4.5,4.5-4.5h63c2.5,0,4.5,2,4.5,4.5V459z
			"/>
		<path class="st1" d="M423,459c0,2.5-2,4.5-4.5,4.5h-63c-2.5,0-4.5-2-4.5-4.5v-18c0-2.5,2-4.5,4.5-4.5h63c2.5,0,4.5,2,4.5,4.5V459z
			"/>
		<path class="st1" d="M342,459c0,2.5-2,4.5-4.5,4.5h-63c-2.5,0-4.5-2-4.5-4.5v-18c0-2.5,2-4.5,4.5-4.5h63c2.5,0,4.5,2,4.5,4.5V459z
			"/>
		<path class="st1" d="M261,459c0,2.5-2,4.5-4.5,4.5h-63c-2.5,0-4.5-2-4.5-4.5v-18c0-2.5,2-4.5,4.5-4.5h63c2.5,0,4.5,2,4.5,4.5V459z
			"/>
		<path class="st1" d="M180,459c0,2.5-2,4.5-4.5,4.5h-63c-2.5,0-4.5-2-4.5-4.5v-18c0-2.5,2-4.5,4.5-4.5h63c2.5,0,4.5,2,4.5,4.5V459z
			"/>
		<path class="st1" d="M585,459c0,2.5-2,4.5-4.5,4.5h-63c-2.5,0-4.5-2-4.5-4.5v-18c0-2.5,2-4.5,4.5-4.5h63c2.5,0,4.5,2,4.5,4.5V459z
			"/>
	</g>
	<g>
		<path class="st1" d="M99,495c0,2.5-2,4.5-4.5,4.5h-63c-2.5,0-4.5-2-4.5-4.5v-18c0-2.5,2-4.5,4.5-4.5h63c2.5,0,4.5,2,4.5,4.5V495z"
			/>
		<path class="st1" d="M504,495c0,2.5-2,4.5-4.5,4.5h-63c-2.5,0-4.5-2-4.5-4.5v-18c0-2.5,2-4.5,4.5-4.5h63c2.5,0,4.5,2,4.5,4.5V495z
			"/>
		<path class="st1" d="M423,495c0,2.5-2,4.5-4.5,4.5h-63c-2.5,0-4.5-2-4.5-4.5v-18c0-2.5,2-4.5,4.5-4.5h63c2.5,0,4.5,2,4.5,4.5V495z
			"/>
		<path class="st1" d="M342,495c0,2.5-2,4.5-4.5,4.5h-63c-2.5,0-4.5-2-4.5-4.5v-18c0-2.5,2-4.5,4.5-4.5h63c2.5,0,4.5,2,4.5,4.5V495z
			"/>
		<path class="st1" d="M261,495c0,2.5-2,4.5-4.5,4.5h-63c-2.5,0-4.5-2-4.5-4.5v-18c0-2.5,2-4.5,4.5-4.5h63c2.5,0,4.5,2,4.5,4.5V495z
			"/>
		<path class="st1" d="M180,495c0,2.5-2,4.5-4.5,4.5h-63c-2.5,0-4.5-2-4.5-4.5v-18c0-2.5,2-4.5,4.5-4.5h63c2.5,0,4.5,2,4.5,4.5V495z
			"/>
		<path class="st1" d="M585,495c0,2.5-2,4.5-4.5,4.5h-63c-2.5,0-4.5-2-4.5-4.5v-18c0-2.5,2-4.5,4.5-4.5h63c2.5,0,4.5,2,4.5,4.5V495z
			"/>
	</g>
	<g>
		<path class="st1" d="M99,531c0,2.5-2,4.5-4.5,4.5h-63c-2.5,0-4.5-2-4.5-4.5v-18c0-2.5,2-4.5,4.5-4.5h63c2.5,0,4.5,2,4.5,4.5V531z"
			/>
		<path class="st1" d="M504,531c0,2.5-2,4.5-4.5,4.5h-63c-2.5,0-4.5-2-4.5-4.5v-18c0-2.5,2-4.5,4.5-4.5h63c2.5,0,4.5,2,4.5,4.5V531z
			"/>
		<path class="st1" d="M423,531c0,2.5-2,4.5-4.5,4.5h-63c-2.5,0-4.5-2-4.5-4.5v-18c0-2.5,2-4.5,4.5-4.5h63c2.5,0,4.5,2,4.5,4.5V531z
			"/>
		<path class="st1" d="M342,531c0,2.5-2,4.5-4.5,4.5h-63c-2.5,0-4.5-2-4.5-4.5v-18c0-2.5,2-4.5,4.5-4.5h63c2.5,0,4.5,2,4.5,4.5V531z
			"/>
		<path class="st1" d="M261,531c0,2.5-2,4.5-4.5,4.5h-63c-2.5,0-4.5-2-4.5-4.5v-18c0-2.5,2-4.5,4.5-4.5h63c2.5,0,4.5,2,4.5,4.5V531z
			"/>
		<path class="st1" d="M180,531c0,2.5-2,4.5-4.5,4.5h-63c-2.5,0-4.5-2-4.5-4.5v-18c0-2.5,2-4.5,4.5-4.5h63c2.5,0,4.5,2,4.5,4.5V531z
			"/>
		<path class="st1" d="M585,531c0,2.5-2,4.5-4.5,4.5h-63c-2.5,0-4.5-2-4.5-4.5v-18c0-2.5,2-4.5,4.5-4.5h63c2.5,0,4.5,2,4.5,4.5V531z
			"/>
	</g>
	<g>
		<path class="st1" d="M99,567c0,2.5-2,4.5-4.5,4.5h-63c-2.5,0-4.5-2-4.5-4.5v-18c0-2.5,2-4.5,4.5-4.5h63c2.5,0,4.5,2,4.5,4.5V567z"
			/>
		<path class="st1" d="M504,567c0,2.5-2,4.5-4.5,4.5h-63c-2.5,0-4.5-2-4.5-4.5v-18c0-2.5,2-4.5,4.5-4.5h63c2.5,0,4.5,2,4.5,4.5V567z
			"/>
		<path class="st1" d="M423,567c0,2.5-2,4.5-4.5,4.5h-63c-2.5,0-4.5-2-4.5-4.5v-18c0-2.5,2-4.5,4.5-4.5h63c2.5,0,4.5,2,4.5,4.5V567z
			"/>
		<path class="st1" d="M342,567c0,2.5-2,4.5-4.5,4.5h-63c-2.5,0-4.5-2-4.5-4.5v-18c0-2.5,2-4.5,4.5-4.5h63c2.5,0,4.5,2,4.5,4.5V567z
			"/>
		<path class="st1" d="M261,567c0,2.5-2,4.5-4.5,4.5h-63c-2.5,0-4.5-2-4.5-4.5v-18c0-2.5,2-4.5,4.5-4.5h63c2.5,0,4.5,2,4.5,4.5V567z
			"/>
		<path class="st1" d="M180,567c0,2.5-2,4.5-4.5,4.5h-63c-2.5,0-4.5-2-4.5-4.5v-18c0-2.5,2-4.5,4.5-4.5h63c2.5,0,4.5,2,4.5,4.5V567z
			"/>
		<path class="st1" d="M585,567c0,2.5-2,4.5-4.5,4.5h-63c-2.5,0-4.5-2-4.5-4.5v-18c0-2.5,2-4.5,4.5-4.5h63c2.5,0,4.5,2,4.5,4.5V567z
			"/>
	</g>
	<g>
		<path class="st1" d="M99,603c0,2.5-2,4.5-4.5,4.5h-63c-2.5,0-4.5-2-4.5-4.5v-18c0-2.5,2-4.5,4.5-4.5h63c2.5,0,4.5,2,4.5,4.5V603z"
			/>
		<path class="st1" d="M504,603c0,2.5-2,4.5-4.5,4.5h-63c-2.5,0-4.5-2-4.5-4.5v-18c0-2.5,2-4.5,4.5-4.5h63c2.5,0,4.5,2,4.5,4.5V603z
			"/>
		<path class="st1" d="M423,603c0,2.5-2,4.5-4.5,4.5h-63c-2.5,0-4.5-2-4.5-4.5v-18c0-2.5,2-4.5,4.5-4.5h63c2.5,0,4.5,2,4.5,4.5V603z
			"/>
		<path class="st1" d="M342,603c0,2.5-2,4.5-4.5,4.5h-63c-2.5,0-4.5-2-4.5-4.5v-18c0-2.5,2-4.5,4.5-4.5h63c2.5,0,4.5,2,4.5,4.5V603z
			"/>
		<path class="st1" d="M261,603c0,2.5-2,4.5-4.5,4.5h-63c-2.5,0-4.5-2-4.5-4.5v-18c0-2.5,2-4.5,4.5-4.5h63c2.5,0,4.5,2,4.5,4.5V603z
			"/>
		<path class="st1" d="M180,603c0,2.5-2,4.5-4.5,4.5h-63c-2.5,0-4.5-2-4.5-4.5v-18c0-2.5,2-4.5,4.5-4.5h63c2.5,0,4.5,2,4.5,4.5V603z
			"/>
		<path class="st1" d="M585,603c0,2.5-2,4.5-4.5,4.5h-63c-2.5,0-4.5-2-4.5-4.5v-18c0-2.5,2-4.5,4.5-4.5h63c2.5,0,4.5,2,4.5,4.5V603z
			"/>
	</g>
	<g>
		<path class="st1" d="M99,639c0,2.5-2,4.5-4.5,4.5h-63c-2.5,0-4.5-2-4.5-4.5v-18c0-2.5,2-4.5,4.5-4.5h63c2.5,0,4.5,2,4.5,4.5V639z"
			/>
		<path class="st1" d="M504,639c0,2.5-2,4.5-4.5,4.5h-63c-2.5,0-4.5-2-4.5-4.5v-18c0-2.5,2-4.5,4.5-4.5h63c2.5,0,4.5,2,4.5,4.5V639z
			"/>
		<path class="st1" d="M423,639c0,2.5-2,4.5-4.5,4.5h-63c-2.5,0-4.5-2-4.5-4.5v-18c0-2.5,2-4.5,4.5-4.5h63c2.5,0,4.5,2,4.5,4.5V639z
			"/>
		<path class="st1" d="M342,639c0,2.5-2,4.5-4.5,4.5h-63c-2.5,0-4.5-2-4.5-4.5v-18c0-2.5,2-4.5,4.5-4.5h63c2.5,0,4.5,2,4.5,4.5V639z
			"/>
		<path class="st1" d="M261,639c0,2.5-2,4.5-4.5,4.5h-63c-2.5,0-4.5-2-4.5-4.5v-18c0-2.5,2-4.5,4.5-4.5h63c2.5,0,4.5,2,4.5,4.5V639z
			"/>
		<path class="st1" d="M180,639c0,2.5-2,4.5-4.5,4.5h-63c-2.5,0-4.5-2-4.5-4.5v-18c0-2.5,2-4.5,4.5-4.5h63c2.5,0,4.5,2,4.5,4.5V639z
			"/>
		<path class="st1" d="M585,639c0,2.5-2,4.5-4.5,4.5h-63c-2.5,0-4.5-2-4.5-4.5v-18c0-2.5,2-4.5,4.5-4.5h63c2.5,0,4.5,2,4.5,4.5V639z
			"/>
	</g>
	<g>
		<path class="st1" d="M99,675c0,2.5-2,4.5-4.5,4.5h-63c-2.5,0-4.5-2-4.5-4.5v-18c0-2.5,2-4.5,4.5-4.5h63c2.5,0,4.5,2,4.5,4.5V675z"
			/>
		<path class="st1" d="M504,675c0,2.5-2,4.5-4.5,4.5h-63c-2.5,0-4.5-2-4.5-4.5v-18c0-2.5,2-4.5,4.5-4.5h63c2.5,0,4.5,2,4.5,4.5V675z
			"/>
		<path class="st1" d="M423,675c0,2.5-2,4.5-4.5,4.5h-63c-2.5,0-4.5-2-4.5-4.5v-18c0-2.5,2-4.5,4.5-4.5h63c2.5,0,4.5,2,4.5,4.5V675z
			"/>
		<path class="st1" d="M342,675c0,2.5-2,4.5-4.5,4.5h-63c-2.5,0-4.5-2-4.5-4.5v-18c0-2.5,2-4.5,4.5-4.5h63c2.5,0,4.5,2,4.5,4.5V675z
			"/>
		<path class="st1" d="M261,675c0,2.5-2,4.5-4.5,4.5h-63c-2.5,0-4.5-2-4.5-4.5v-18c0-2.5,2-4.5,4.5-4.5h63c2.5,0,4.5,2,4.5,4.5V675z
			"/>
		<path class="st1" d="M180,675c0,2.5-2,4.5-4.5,4.5h-63c-2.5,0-4.5-2-4.5-4.5v-18c0-2.5,2-4.5,4.5-4.5h63c2.5,0,4.5,2,4.5,4.5V675z
			"/>
		<path class="st1" d="M585,675c0,2.5-2,4.5-4.5,4.5h-63c-2.5,0-4.5-2-4.5-4.5v-18c0-2.5,2-4.5,4.5-4.5h63c2.5,0,4.5,2,4.5,4.5V675z
			"/>
	</g>
	<g>
		<path class="st1" d="M99,711c0,2.5-2,4.5-4.5,4.5h-63c-2.5,0-4.5-2-4.5-4.5v-18c0-2.5,2-4.5,4.5-4.5h63c2.5,0,4.5,2,4.5,4.5V711z"
			/>
		<path class="st1" d="M504,711c0,2.5-2,4.5-4.5,4.5h-63c-2.5,0-4.5-2-4.5-4.5v-18c0-2.5,2-4.5,4.5-4.5h63c2.5,0,4.5,2,4.5,4.5V711z
			"/>
		<path class="st1" d="M423,711c0,2.5-2,4.5-4.5,4.5h-63c-2.5,0-4.5-2-4.5-4.5v-18c0-2.5,2-4.5,4.5-4.5h63c2.5,0,4.5,2,4.5,4.5V711z
			"/>
		<path class="st1" d="M342,711c0,2.5-2,4.5-4.5,4.5h-63c-2.5,0-4.5-2-4.5-4.5v-18c0-2.5,2-4.5,4.5-4.5h63c2.5,0,4.5,2,4.5,4.5V711z
			"/>
		<path class="st1" d="M261,711c0,2.5-2,4.5-4.5,4.5h-63c-2.5,0-4.5-2-4.5-4.5v-18c0-2.5,2-4.5,4.5-4.5h63c2.5,0,4.5,2,4.5,4.5V711z
			"/>
		<path class="st1" d="M180,711c0,2.5-2,4.5-4.5,4.5h-63c-2.5,0-4.5-2-4.5-4.5v-18c0-2.5,2-4.5,4.5-4.5h63c2.5,0,4.5,2,4.5,4.5V711z
			"/>
		<path class="st1" d="M585,711c0,2.5-2,4.5-4.5,4.5h-63c-2.5,0-4.5-2-4.5-4.5v-18c0-2.5,2-4.5,4.5-4.5h63c2.5,0,4.5,2,4.5,4.5V711z
			"/>
	</g>
</g>
</svg>
