<?xml version="1.0" encoding="utf-8"?>
<!-- Generator: Adobe Illustrator 20.1.0, SVG Export Plug-In . SVG Version: 6.00 Build 0)  -->
<svg version="1.1" id="Template" xmlns="http://www.w3.org/2000/svg" xmlns:xlink="http://www.w3.org/1999/xlink" x="0px" y="0px"
	 viewBox="0 0 612 792" style="enable-background:new 0 0 612 792;" xml:space="preserve">
<style type="text/css">
	.st0{fill:none;stroke:#000000;stroke-width:2;stroke-miterlimit:10;}
	.st1{fill:none;stroke:#939598;stroke-width:2;stroke-miterlimit:10;}
	.st2{fill:none;stroke:#939598;stroke-width:2;stroke-miterlimit:10;stroke-dasharray:2,2;}
	.st3{fill:none;stroke:#939598;stroke-width:2;stroke-miterlimit:10;stroke-dasharray:1.9968,1.9968;}
</style>
<g>
	<rect x="9.5" y="135" class="st0" width="186" height="72"/>
	<rect x="213.5" y="135" class="st0" width="186" height="72"/>
	<rect x="417.5" y="135" class="st0" width="186" height="72"/>
</g>
<g>
	<rect x="9.5" y="45" class="st0" width="186" height="72"/>
	<rect x="213.5" y="45" class="st0" width="186" height="72"/>
	<rect x="417.5" y="45" class="st0" width="186" height="72"/>
</g>
<g>
	<rect x="9.5" y="675" class="st0" width="186" height="72"/>
	<rect x="213.5" y="675" class="st0" width="186" height="72"/>
	<rect x="417.5" y="675" class="st0" width="186" height="72"/>
</g>
<g>
	<rect x="9.5" y="225" class="st0" width="186" height="72"/>
	<rect x="213.5" y="225" class="st0" width="186" height="72"/>
	<rect x="417.5" y="225" class="st0" width="186" height="72"/>
</g>
<g>
	<rect x="9.5" y="315" class="st0" width="186" height="72"/>
	<rect x="213.5" y="315" class="st0" width="186" height="72"/>
	<rect x="417.5" y="315" class="st0" width="186" height="72"/>
</g>
<g>
	<rect x="9.5" y="405" class="st0" width="186" height="72"/>
	<rect x="213.5" y="405" class="st0" width="186" height="72"/>
	<rect x="417.5" y="405" class="st0" width="186" height="72"/>
</g>
<g>
	<rect x="9.5" y="495" class="st0" width="186" height="72"/>
	<rect x="213.5" y="495" class="st0" width="186" height="72"/>
	<rect x="417.5" y="495" class="st0" width="186" height="72"/>
</g>
<g>
	<rect x="9.5" y="585" class="st0" width="186" height="72"/>
	<rect x="213.5" y="585" class="st0" width="186" height="72"/>
	<rect x="417.5" y="585" class="st0" width="186" height="72"/>
</g>
<g>
	<g>
		<g>
			<line class="st1" x1="408.5" y1="792" x2="408.5" y2="791"/>
			<line class="st2" x1="408.5" y1="789" x2="408.5" y2="2"/>
			<line class="st1" x1="408.5" y1="1" x2="408.5" y2="0"/>
		</g>
	</g>
</g>
<g>
	<g>
		<g>
			<line class="st1" x1="204.5" y1="792" x2="204.5" y2="791"/>
			<line class="st2" x1="204.5" y1="789" x2="204.5" y2="2"/>
			<line class="st1" x1="204.5" y1="1" x2="204.5" y2="0"/>
		</g>
	</g>
</g>
<g>
	<g>
		<g>
			<line class="st1" x1="611.5" y1="36" x2="610.5" y2="36"/>
			<line class="st3" x1="608.5" y1="36" x2="2.5" y2="36"/>
			<line class="st1" x1="1.5" y1="36" x2="0.5" y2="36"/>
		</g>
	</g>
</g>
<g>
	<g>
		<g>
			<line class="st1" x1="611.5" y1="756" x2="610.5" y2="756"/>
			<line class="st3" x1="608.5" y1="756" x2="2.5" y2="756"/>
			<line class="st1" x1="1.5" y1="756" x2="0.5" y2="756"/>
		</g>
	</g>
</g>
<g>
	<g>
		<g>
			<line class="st1" x1="611.5" y1="126" x2="610.5" y2="126"/>
			<line class="st3" x1="608.5" y1="126" x2="2.5" y2="126"/>
			<line class="st1" x1="1.5" y1="126" x2="0.5" y2="126"/>
		</g>
	</g>
</g>
<g>
	<g>
		<g>
			<line class="st1" x1="611.5" y1="216" x2="610.5" y2="216"/>
			<line class="st3" x1="608.5" y1="216" x2="2.5" y2="216"/>
			<line class="st1" x1="1.5" y1="216" x2="0.5" y2="216"/>
		</g>
	</g>
</g>
<g>
	<g>
		<g>
			<line class="st1" x1="611.5" y1="306" x2="610.5" y2="306"/>
			<line class="st3" x1="608.5" y1="306" x2="2.5" y2="306"/>
			<line class="st1" x1="1.5" y1="306" x2="0.5" y2="306"/>
		</g>
	</g>
</g>
<g>
	<g>
		<g>
			<line class="st1" x1="611.5" y1="396" x2="610.5" y2="396"/>
			<line class="st3" x1="608.5" y1="396" x2="2.5" y2="396"/>
			<line class="st1" x1="1.5" y1="396" x2="0.5" y2="396"/>
		</g>
	</g>
</g>
<g>
	<g>
		<g>
			<line class="st1" x1="611.5" y1="486" x2="610.5" y2="486"/>
			<line class="st3" x1="608.5" y1="486" x2="2.5" y2="486"/>
			<line class="st1" x1="1.5" y1="486" x2="0.5" y2="486"/>
		</g>
	</g>
</g>
<g>
	<g>
		<g>
			<line class="st1" x1="611.5" y1="576" x2="610.5" y2="576"/>
			<line class="st3" x1="608.5" y1="576" x2="2.5" y2="576"/>
			<line class="st1" x1="1.5" y1="576" x2="0.5" y2="576"/>
		</g>
	</g>
</g>
<g>
	<g>
		<g>
			<line class="st1" x1="611.5" y1="666" x2="610.5" y2="666"/>
			<line class="st3" x1="608.5" y1="666" x2="2.5" y2="666"/>
			<line class="st1" x1="1.5" y1="666" x2="0.5" y2="666"/>
		</g>
	</g>
</g>
<g>
	<path d="M610.5,2v788H2.5V2H610.5 M612.5,0H0.5v792h612V0L612.5,0z"/>
</g>
</svg>
