<?xml version="1.0" encoding="utf-8"?>
<!-- Generator: Adobe Illustrator 20.1.0, SVG Export Plug-In . SVG Version: 6.00 Build 0)  -->
<svg version="1.1" id="Layer_1" xmlns="http://www.w3.org/2000/svg" xmlns:xlink="http://www.w3.org/1999/xlink" x="0px" y="0px"
	 viewBox="0 0 792 1224" style="enable-background:new 0 0 792 1224;" xml:space="preserve">
<style type="text/css">
	.st0{fill:none;stroke:#000000;stroke-width:2;}
</style>
<g>
	<g>
		<path class="st0" d="M738.1,1076.7c0,2.8-2.3,5-5,5H527.1c-2.8,0-5-2.3-5-5V150.8c0-2.8,2.3-5,5-5H733c2.8,0,5,2.3,5,5V1076.7
			 M737.3,1076.7V150.8c0-2.4-1.9-4.3-4.3-4.3H527.1c-2.4,0-4.3,1.9-4.3,4.3v925.9c0,2.4,1.9,4.3,4.3,4.3H733
			C735.4,1081,737.3,1079.1,737.3,1076.7"/>
		<path class="st0" d="M269.9,1077.2c0,2.8-2.3,5-5,5H59c-2.8,0-5-2.3-5-5V151.3c0-2.8,2.3-5,5-5h205.9c2.8,0,5,2.3,5,5V1077.2
			 M269.2,1077.2V151.3c0-2.4-1.9-4.3-4.3-4.3H59c-2.4,0-4.3,1.9-4.3,4.3v925.9c0,2.4,1.9,4.3,4.3,4.3h205.9
			C267.3,1081.5,269.2,1079.6,269.2,1077.2"/>
		<path class="st0" d="M504.1,1076.7c0,2.8-2.3,5-5,5H293.2c-2.8,0-5-2.3-5-5V150.8c0-2.8,2.3-5,5-5h205.9c2.8,0,5,2.3,5,5V1076.7
			 M503.4,1076.7V150.8c0-2.4-1.9-4.3-4.3-4.3H293.2c-2.4,0-4.3,1.9-4.3,4.3v925.9c0,2.4,1.9,4.3,4.3,4.3h205.9
			C501.5,1081,503.4,1079.1,503.4,1076.7"/>
	</g>
	<rect x="0" y="1" class="st0" width="792" height="1224"/>
</g>
</svg>
