<?xml version="1.0" encoding="utf-8"?>
<!-- Generator: Adobe Illustrator 20.1.0, SVG Export Plug-In . SVG Version: 6.00 Build 0)  -->
<svg version="1.1" id="Layer_1" xmlns="http://www.w3.org/2000/svg" xmlns:xlink="http://www.w3.org/1999/xlink" x="0px" y="0px"
	 viewBox="0 0 792 1224" style="enable-background:new 0 0 792 1224;" xml:space="preserve">
<style type="text/css">
	.st0{fill:none;stroke:#231F20;stroke-width:2;}
</style>
<path class="st0" d="M372,430.5c6,0,10.8,4.8,10.8,10.8v374.4c0,6-4.8,10.8-10.8,10.8H33.6c-6,0-10.8-4.8-10.8-10.8V441.3
	c0-6,4.8-10.8,10.8-10.8H372z"/>
<path class="st0" d="M755,430.5c6,0,10.8,4.8,10.8,10.8v374.4c0,6-4.8,10.8-10.8,10.8H416.6c-6,0-10.8-4.8-10.8-10.8V441.3
	c0-6,4.8-10.8,10.8-10.8H755z"/>
<path class="st0" d="M755,21.7c6,0,10.8,4.8,10.8,10.8v374.4c0,6-4.8,10.8-10.8,10.8H416.6c-6,0-10.8-4.8-10.8-10.8V32.5
	c0-6,4.8-10.8,10.8-10.8H755z"/>
<path class="st0" d="M372,21.7c6,0,10.8,4.8,10.8,10.8v374.4c0,6-4.8,10.8-10.8,10.8H33.6c-6,0-10.8-4.8-10.8-10.8V32.5
	c0-6,4.8-10.8,10.8-10.8H372z"/>
<path class="st0" d="M196.8,850.3c0-6,4.8-10.8,10.8-10.8H582c6,0,10.8,4.8,10.8,10.8v338.4c0,6-4.8,10.8-10.8,10.8H207.6
	c-6,0-10.8-4.8-10.8-10.8V850.3z"/>
<rect class="st0" width="792" height="1224"/>
</svg>
