<?xml version="1.0" encoding="utf-8"?>
<!-- Generator: Adobe Illustrator 20.1.0, SVG Export Plug-In . SVG Version: 6.00 Build 0)  -->
<svg version="1.1" id="Layer_2" xmlns="http://www.w3.org/2000/svg" xmlns:xlink="http://www.w3.org/1999/xlink" x="0px" y="0px"
	 viewBox="0 0 792 1224" style="enable-background:new 0 0 792 1224;" xml:space="preserve">
<style type="text/css">
	.st0{fill:none;stroke:#000000;stroke-width:2;}
</style>
<rect class="st0" width="792" height="1224"/>
<rect class="st0" width="792" height="1224"/>
<g>
	<path class="st0" d="M216,548.9c0,5.6-4.5,10.1-10.1,10.1H46.1c-5.6,0-10.1-4.5-10.1-10.1V65.1C36,59.5,40.5,55,46.1,55h159.8
		c5.6,0,10.1,4.5,10.1,10.1V548.9z"/>
	<path class="st0" d="M756,548.9c0,5.6-4.5,10.1-10.1,10.1H586.1c-5.6,0-10.1-4.5-10.1-10.1V65.1c0-5.6,4.5-10.1,10.1-10.1h159.8
		c5.6,0,10.1,4.5,10.1,10.1V548.9z"/>
	<path class="st0" d="M396,548.9c0,5.6-4.5,10.1-10.1,10.1H226.1c-5.6,0-10.1-4.5-10.1-10.1V65.1c0-5.6,4.5-10.1,10.1-10.1h159.8
		c5.6,0,10.1,4.5,10.1,10.1V548.9z"/>
	<path class="st0" d="M576,548.9c0,5.6-4.5,10.1-10.1,10.1H406.1c-5.6,0-10.1-4.5-10.1-10.1V65.1c0-5.6,4.5-10.1,10.1-10.1h159.8
		c5.6,0,10.1,4.5,10.1,10.1V548.9z"/>
</g>
<g>
	<path class="st0" d="M216,1159.3c0,5.6-4.5,10.1-10.1,10.1H46.1c-5.6,0-10.1-4.5-10.1-10.1V675.6c0-5.6,4.5-10.1,10.1-10.1h159.8
		c5.6,0,10.1,4.5,10.1,10.1V1159.3z"/>
	<path class="st0" d="M756,1159.3c0,5.6-4.5,10.1-10.1,10.1H586.1c-5.6,0-10.1-4.5-10.1-10.1V675.6c0-5.6,4.5-10.1,10.1-10.1h159.8
		c5.6,0,10.1,4.5,10.1,10.1V1159.3z"/>
	<path class="st0" d="M396,1159.3c0,5.6-4.5,10.1-10.1,10.1H226.1c-5.6,0-10.1-4.5-10.1-10.1V675.6c0-5.6,4.5-10.1,10.1-10.1h159.8
		c5.6,0,10.1,4.5,10.1,10.1V1159.3z"/>
	<path class="st0" d="M576,1159.3c0,5.6-4.5,10.1-10.1,10.1H406.1c-5.6,0-10.1-4.5-10.1-10.1V675.6c0-5.6,4.5-10.1,10.1-10.1h159.8
		c5.6,0,10.1,4.5,10.1,10.1V1159.3z"/>
</g>
</svg>
