<?xml version="1.0" encoding="utf-8"?>
<!-- Generator: Adobe Illustrator 21.1.0, SVG Export Plug-In . SVG Version: 6.00 Build 0)  -->
<svg version="1.1" id="Template" xmlns="http://www.w3.org/2000/svg" xmlns:xlink="http://www.w3.org/1999/xlink" x="0px" y="0px"
	 viewBox="0 0 614 794" style="enable-background:new 0 0 614 794;" xml:space="preserve">
<style type="text/css">
	.st0{fill:none;stroke:#231F20;stroke-width:2;stroke-miterlimit:10;}
</style>
<title>SL945</title>
<path class="st0" d="M100,82h414c5,0,9,4,9,9v270c0,5-4,9-9,9H100c-5,0-9-4-9-9V91C91,86,95,82,100,82z"/>
<path class="st0" d="M100,424h414c5,0,9,4,9,9v270c0,5-4,9-9,9H100c-5,0-9-4-9-9V433C91,428,95,424,100,424z"/>
<rect x="1" y="1" class="st0" width="612" height="792"/>
</svg>
