<?xml version="1.0" encoding="utf-8"?>
<!-- Generator: Adobe Illustrator 20.1.0, SVG Export Plug-In . SVG Version: 6.00 Build 0)  -->
<svg version="1.1" id="Layer_1" xmlns="http://www.w3.org/2000/svg" xmlns:xlink="http://www.w3.org/1999/xlink" x="0px" y="0px"
	 viewBox="0 0 612 792" style="enable-background:new 0 0 612 792;" xml:space="preserve">
<style type="text/css">
	.st0{fill:none;stroke:#000000;stroke-width:2;stroke-miterlimit:10;}
</style>
<rect x="407.1" y="69.8" class="st0" width="168.9" height="141.8"/>
<rect x="407.1" y="211.5" class="st0" width="168.9" height="141.8"/>
<rect x="36" y="438.7" class="st0" width="168.9" height="141.8"/>
<rect x="36" y="580.5" class="st0" width="168.9" height="141.8"/>
<path class="st0" d="M202.5,45C294.2,45,369,119.8,369,211.5S294.2,378,202.5,378C110.8,378,36,303.2,36,211.5S110.8,45,202.5,45z"
	/>
<path class="st0" d="M205.9,150.8c32.2,0,58.5,26.3,58.5,58.5c0,32.2-26.3,58.5-58.5,58.5c-32.2,0-58.5-26.3-58.5-58.5
	C147.4,177,173.6,150.8,205.9,150.8z"/>
<path class="st0" d="M409.5,414c91.7,0,166.5,74.8,166.5,166.5S501.2,747,409.5,747C317.8,747,243,672.2,243,580.5
	S317.8,414,409.5,414z"/>
<path class="st0" d="M412.9,519.8c32.2,0,58.5,26.3,58.5,58.5c0,32.2-26.3,58.5-58.5,58.5c-32.2,0-58.5-26.3-58.5-58.5
	C354.4,546,380.6,519.8,412.9,519.8z"/>
<rect x="18" y="384.7" class="st0" width="288" height="20.3"/>
<rect x="306" y="384.7" class="st0" width="288" height="20.3"/>
<rect class="st0" width="612" height="792"/>
</svg>
