<?xml version="1.0" encoding="utf-8"?>
<!-- Generator: Adobe Illustrator 20.1.0, SVG Export Plug-In . SVG Version: 6.00 Build 0)  -->
<svg version="1.1" id="Layer_1" xmlns="http://www.w3.org/2000/svg" xmlns:xlink="http://www.w3.org/1999/xlink" x="0px" y="0px"
	 viewBox="0 0 612 792" style="enable-background:new 0 0 612 792;" xml:space="preserve">
<style type="text/css">
	.st0{fill:none;stroke:#000000;stroke-width:2;stroke-miterlimit:10;}
</style>
<g>
	<g>
		<path class="st0" d="M165.4,34.9c65.7,0,119.3,53.6,119.3,119.3c0,65.7-53.6,119.2-119.3,119.2S46.1,219.8,46.1,154.1
			C46.1,88.4,99.7,34.9,165.4,34.9z"/>
		<path class="st0" d="M165.4,276.8c65.7,0,119.3,53.6,119.3,119.3c0,65.7-53.6,119.3-119.3,119.3S46.1,461.7,46.1,396
			C46.1,330.3,99.7,276.8,165.4,276.8z"/>
		<path class="st0" d="M165.4,518.6c65.7,0,119.3,53.6,119.3,119.3c0,65.7-53.6,119.3-119.3,119.3S46.1,703.6,46.1,637.9
			C46.1,572.2,99.7,518.6,165.4,518.6z"/>
	</g>
	<g>
		<path class="st0" d="M446.6,34.9c65.7,0,119.2,53.6,119.2,119.3c0,65.7-53.6,119.2-119.2,119.2c-65.7,0-119.3-53.6-119.3-119.2
			C327.4,88.4,381,34.9,446.6,34.9z"/>
		<path class="st0" d="M446.6,276.8c65.7,0,119.2,53.6,119.2,119.3c0,65.7-53.6,119.3-119.2,119.3c-65.7,0-119.3-53.6-119.3-119.3
			C327.4,330.3,381,276.8,446.6,276.8z"/>
		<path class="st0" d="M446.6,518.6c65.7,0,119.2,53.6,119.2,119.3c0,65.7-53.6,119.3-119.2,119.3c-65.7,0-119.3-53.6-119.3-119.3
			C327.4,572.2,381,518.6,446.6,518.6z"/>
	</g>
	<rect x="0" y="0" class="st0" width="612" height="792"/>
</g>
</svg>
