<?xml version="1.0" standalone="no"?>
<!DOCTYPE svg PUBLIC "-//W3C//DTD SVG 20010904//EN"
 "http://www.w3.org/TR/2001/REC-SVG-20010904/DTD/svg10.dtd">
<svg version="1.0" xmlns="http://www.w3.org/2000/svg"
 width="1350.000000pt" height="875.000000pt" viewBox="0 0 1350.000000 875.000000"
 preserveAspectRatio="xMidYMid meet">

<g transform="translate(0.000000,875.000000) scale(0.100000,-0.100000)"
fill="#000000" stroke="none">
<path d="M1023 7842 c-134 -94 -482 -337 -505 -353 -5 -3 41 -122 102 -265 61
-142 139 -325 173 -406 59 -140 64 -148 96 -157 19 -6 271 -67 560 -137 774
-186 692 -162 708 -208 7 -22 11 -41 9 -44 -3 -2 -265 62 -584 142 -319 80
-585 146 -591 146 -6 0 -17 -11 -23 -25 -13 -30 -7 -28 -243 -80 -204 -46
-220 -46 -231 3 -24 108 -20 102 -74 102 l-50 0 -78 -117 c-43 -65 -84 -133
-90 -152 -17 -49 -17 -4003 0 -4052 6 -19 47 -87 90 -151 l78 -118 50 0 c46 0
50 2 56 28 18 82 26 103 43 111 13 7 73 -3 212 -34 206 -46 229 -53 229 -64 0
-4 6 -15 13 -25 12 -17 49 -9 600 130 323 81 589 145 592 143 2 -3 -1 -23 -6
-46 -10 -39 -13 -41 -62 -51 -49 -10 -249 -58 -697 -167 -107 -26 -273 -66
-369 -89 l-173 -41 -38 -90 c-21 -49 -99 -234 -174 -409 -75 -176 -135 -320
-133 -321 1 -1 56 -40 122 -86 240 -167 295 -205 402 -280 59 -42 118 -81 130
-88 15 -8 66 -11 149 -9 l127 3 22 52 23 52 -44 57 c-39 49 -43 59 -32 75 31
44 254 298 262 298 5 1 32 -13 60 -30 41 -26 64 -32 126 -36 52 -3 79 -10 87
-21 7 -8 65 -114 130 -234 l117 -218 1758 0 c1748 0 1759 0 1820 21 124 42
212 118 270 236 30 62 57 162 58 218 0 17 -72 293 -159 615 -88 322 -158 587
-156 589 2 2 24 0 48 -3 l44 -7 83 -312 c45 -172 117 -442 159 -602 l77 -290
215 -3 215 -2 181 447 c100 247 189 467 198 491 19 46 42 55 62 22 7 -10 109
-187 227 -392 117 -205 223 -390 236 -410 l22 -38 183 0 182 0 49 188 c26 103
93 360 149 572 l100 384 38 9 c21 5 40 7 43 4 3 -2 -9 -58 -25 -123 -59 -234
-271 -1126 -271 -1140 0 -21 4471 -16 4513 5 30 16 197 255 197 282 0 29 -24
38 -105 41 l-79 3 -126 465 -127 465 35 3 c20 2 40 -2 47 -10 7 -7 58 -197
114 -422 55 -225 105 -414 110 -419 5 -5 47 -9 92 -8 72 2 85 -1 105 -20 19
-18 24 -33 24 -76 l0 -53 143 0 142 0 46 78 c283 477 371 634 365 655 -3 12
-35 67 -70 122 l-66 100 0 1999 0 1998 70 111 c39 61 70 118 70 126 0 9 -48
97 -106 196 -58 99 -151 258 -207 353 l-102 172 -142 0 -143 0 0 -53 c0 -43
-5 -58 -24 -76 -21 -20 -33 -22 -105 -20 -45 2 -86 -2 -91 -7 -6 -6 -56 -194
-111 -420 -56 -225 -107 -415 -114 -422 -7 -8 -27 -12 -47 -10 l-35 3 123 455
c68 250 127 461 132 469 6 11 26 14 75 12 71 -3 107 10 107 37 0 9 -37 72 -82
140 -67 98 -91 126 -124 142 -40 20 -66 20 -2272 20 -1973 0 -2232 -2 -2232
-15 0 -13 59 -265 161 -685 89 -367 138 -575 134 -578 -2 -2 -21 0 -42 5 -36
8 -38 11 -54 73 -9 36 -58 220 -107 410 -50 190 -109 418 -133 508 l-42 162
-184 -2 -185 -3 -90 -155 c-49 -85 -159 -278 -245 -427 -86 -150 -161 -273
-168 -273 -7 0 -17 6 -22 13 -6 6 -57 129 -115 272 -58 143 -145 358 -194 478
l-88 217 -215 -2 -216 -3 -100 -380 c-55 -209 -127 -480 -159 -602 l-58 -221
-45 -7 c-25 -3 -46 -5 -48 -3 -2 2 68 266 156 588 87 322 159 601 159 620 0
50 -37 176 -68 234 -56 103 -144 177 -257 216 -57 20 -83 20 -1820 20 l-1763
0 -124 -232 -124 -233 -79 -6 c-66 -4 -89 -11 -134 -38 -43 -26 -56 -29 -68
-19 -13 11 -218 247 -251 289 -10 14 -5 25 32 74 l45 57 -19 39 c-11 21 -20
45 -20 54 0 13 -20 15 -137 15 l-138 -1 -152 -107z m427 58 c11 -21 20 -45 20
-51 0 -7 -19 -36 -41 -65 -23 -30 -39 -59 -36 -66 9 -23 269 -318 279 -318 6
0 34 13 63 30 28 16 55 27 58 23 4 -3 7 -1 7 6 0 6 6 11 13 10 6 -1 40 -1 74
0 l61 1 125 233 125 232 1774 0 1774 0 76 -38 c89 -44 172 -126 212 -211 27
-57 56 -163 56 -208 0 -14 -72 -291 -160 -615 -88 -323 -160 -593 -160 -599 0
-9 20 -8 71 2 71 13 99 24 65 24 -12 0 -16 5 -12 15 3 8 49 181 102 383 53
202 122 462 153 577 l56 210 207 3 c159 2 207 0 211 -10 16 -43 279 -689 329
-811 57 -137 87 -183 103 -157 3 5 13 7 23 4 11 -4 13 -3 6 3 -8 5 64 141 230
430 l241 422 177 1 c160 0 177 -2 181 -17 3 -10 21 -81 41 -158 20 -77 85
-327 144 -555 l109 -415 47 -9 c26 -4 50 -6 53 -3 3 3 -11 73 -30 154 -20 81
-88 365 -151 630 -64 264 -116 484 -116 487 0 3 1007 5 2238 4 2160 -3 2238
-4 2264 -22 37 -24 191 -253 184 -272 -4 -11 -26 -14 -90 -14 l-85 0 -12 -42
c-6 -24 -65 -240 -130 -482 -66 -241 -117 -441 -114 -445 7 -6 70 -3 98 5 9 3
17 14 17 25 0 23 186 774 200 807 9 20 16 22 95 22 78 0 88 2 110 25 20 19 25
34 25 75 l0 50 134 0 134 0 158 -267 c193 -327 254 -435 254 -447 0 -5 -33
-59 -72 -120 l-73 -111 -3 -1993 -2 -1992 75 -118 c41 -66 75 -123 75 -129 0
-5 -92 -167 -204 -359 l-205 -349 -135 -3 -136 -3 0 55 c0 47 -4 57 -26 75
-22 17 -41 21 -111 21 -77 0 -84 2 -93 23 -13 29 -200 789 -200 810 0 9 -10
19 -22 21 -44 9 -98 12 -98 5 0 -4 27 -108 61 -231 33 -123 67 -245 74 -273
58 -216 107 -395 116 -422 l10 -32 81 -3 c117 -4 118 -8 17 -157 -68 -102 -90
-127 -123 -142 -39 -18 -126 -19 -2263 -19 -1223 0 -2223 3 -2223 7 0 4 48
205 106 448 154 637 194 807 194 821 0 9 -12 9 -52 0 l-52 -11 -122 -470 c-68
-259 -135 -516 -150 -573 l-27 -102 -175 2 -176 3 -69 120 c-38 66 -146 253
-240 415 -93 162 -170 300 -170 307 -1 19 -36 22 -56 5 -10 -10 -31 -48 -46
-87 -14 -38 -101 -253 -192 -478 l-166 -407 -203 0 c-203 0 -205 0 -213 23 -4
12 -77 283 -161 603 l-153 581 -56 10 c-31 6 -58 9 -60 7 -3 -3 30 -132 72
-287 202 -739 247 -910 247 -935 0 -15 -7 -55 -15 -90 -36 -150 -126 -267
-254 -330 l-76 -37 -1772 -3 -1771 -2 -125 232 -125 233 -69 7 c-91 9 -101 12
-153 42 -25 14 -50 26 -57 26 -11 0 -270 -293 -280 -317 -2 -6 14 -36 36 -66
23 -29 41 -59 41 -66 0 -16 -30 -74 -42 -82 -5 -3 -62 -7 -126 -8 l-117 -2
-327 228 c-180 125 -328 233 -328 238 0 6 76 188 168 405 l169 395 549 132
c302 73 591 143 643 156 l95 22 17 58 c9 31 14 57 10 57 -3 -1 -271 -68 -596
-150 l-590 -148 -25 28 c-23 26 -45 33 -232 75 -225 50 -242 50 -254 -3 -24
-106 -21 -102 -67 -102 l-42 0 -78 118 c-42 65 -82 134 -87 153 -14 47 -14
3981 0 4028 5 19 45 88 87 153 l78 118 42 0 c46 0 43 4 67 -103 11 -50 36 -50
250 -1 108 24 199 44 202 44 3 0 18 13 33 29 l28 30 594 -149 c327 -82 595
-150 595 -150 1 0 -6 26 -15 57 -16 55 -19 58 -62 69 -24 7 -208 52 -409 99
-201 48 -470 113 -599 145 l-235 57 -168 394 c-92 217 -168 399 -168 404 0 6
59 51 131 100 71 50 152 106 179 125 27 19 71 50 97 68 26 19 92 65 147 103
l99 69 123 0 124 0 20 -40z"/>
<path d="M7041 6364 c0 -11 3 -14 6 -6 3 7 2 16 -1 19 -3 4 -6 -2 -5 -13z"/>
<path d="M7041 6264 c0 -11 3 -14 6 -6 3 7 2 16 -1 19 -3 4 -6 -2 -5 -13z"/>
<path d="M12261 6154 c0 -11 3 -14 6 -6 3 7 2 16 -1 19 -3 4 -6 -2 -5 -13z"/>
<path d="M7041 6044 c0 -11 3 -14 6 -6 3 7 2 16 -1 19 -3 4 -6 -2 -5 -13z"/>
<path d="M7041 5944 c0 -11 3 -14 6 -6 3 7 2 16 -1 19 -3 4 -6 -2 -5 -13z"/>
<path d="M7042 5830 c0 -14 2 -19 5 -12 2 6 2 18 0 25 -3 6 -5 1 -5 -13z"/>
<path d="M12261 5834 c0 -11 3 -14 6 -6 3 7 2 16 -1 19 -3 4 -6 -2 -5 -13z"/>
<path d="M7041 5724 c0 -11 3 -14 6 -6 3 7 2 16 -1 19 -3 4 -6 -2 -5 -13z"/>
<path d="M7041 5614 c0 -11 3 -14 6 -6 3 7 2 16 -1 19 -3 4 -6 -2 -5 -13z"/>
<path d="M7042 5510 c0 -14 2 -19 5 -12 2 6 2 18 0 25 -3 6 -5 1 -5 -13z"/>
<path d="M12261 5514 c0 -11 3 -14 6 -6 3 7 2 16 -1 19 -3 4 -6 -2 -5 -13z"/>
<path d="M7041 5404 c0 -11 3 -14 6 -6 3 7 2 16 -1 19 -3 4 -6 -2 -5 -13z"/>
<path d="M7045 4250 c0 -624 1 -880 2 -568 2 313 2 823 0 1135 -1 313 -2 57
-2 -567z"/>
<path d="M12261 5194 c0 -11 3 -14 6 -6 3 7 2 16 -1 19 -3 4 -6 -2 -5 -13z"/>
<path d="M3910 5056 c-123 -32 -223 -153 -289 -351 -119 -355 -78 -816 95
-1076 159 -239 389 -210 531 68 78 151 110 286 119 503 12 280 -41 520 -151
690 -53 81 -97 123 -155 148 -64 28 -98 32 -150 18z m148 -32 c128 -63 231
-255 278 -514 22 -127 22 -363 0 -490 -48 -269 -166 -475 -302 -523 -65 -23
-99 -22 -159 6 -123 58 -227 233 -280 472 -26 113 -31 379 -10 510 63 408 268
641 473 539z"/>
<path d="M3824 4827 c-3 -8 -4 -52 -2 -98 3 -83 3 -84 31 -87 l27 -3 0 70 0
71 120 0 120 0 0 30 0 30 -145 0 c-112 0 -147 -3 -151 -13z"/>
<path d="M3882 4570 c-59 -36 -80 -126 -42 -187 25 -42 68 -63 129 -63 99 0
151 49 151 143 0 78 -58 127 -152 127 -36 0 -64 -7 -86 -20z m142 -51 c55 -25
54 -109 -1 -130 -36 -14 -99 -5 -124 17 -37 33 -20 98 31 117 26 9 68 7 94 -4z"/>
<path d="M3882 4240 c-60 -37 -78 -119 -42 -198 l19 -43 63 3 62 3 -1 53 c-1
28 -1 56 -2 62 -1 5 -11 8 -23 6 -18 -2 -24 -11 -26 -34 -6 -60 -52 -27 -52
37 0 79 152 100 181 24 11 -29 -3 -78 -25 -86 -8 -3 -11 -17 -8 -36 5 -36 5
-36 42 -14 36 21 50 52 50 114 0 42 -5 55 -34 86 -32 35 -38 37 -102 41 -56 2
-75 -1 -102 -18z"/>
<path d="M3891 3922 c-64 -32 -88 -114 -53 -181 27 -54 62 -74 129 -75 108 0
159 51 151 150 -3 34 -12 62 -24 75 -43 49 -140 64 -203 31z m120 -52 c45 -12
66 -52 50 -93 -13 -34 -39 -47 -93 -47 -56 0 -88 27 -88 74 0 37 14 53 57 66
38 11 33 11 74 0z"/>
<path d="M12262 4870 c0 -14 2 -19 5 -12 2 6 2 18 0 25 -3 6 -5 1 -5 -13z"/>
<path d="M12262 4550 c0 -14 2 -19 5 -12 2 6 2 18 0 25 -3 6 -5 1 -5 -13z"/>
<path d="M12262 4230 c0 -14 2 -19 5 -12 2 6 2 18 0 25 -3 6 -5 1 -5 -13z"/>
<path d="M12261 3904 c0 -11 3 -14 6 -6 3 7 2 16 -1 19 -3 4 -6 -2 -5 -13z"/>
<path d="M12261 3584 c0 -11 3 -14 6 -6 3 7 2 16 -1 19 -3 4 -6 -2 -5 -13z"/>
<path d="M12261 3264 c0 -11 3 -14 6 -6 3 7 2 16 -1 19 -3 4 -6 -2 -5 -13z"/>
<path d="M7041 3024 c0 -11 3 -14 6 -6 3 7 2 16 -1 19 -3 4 -6 -2 -5 -13z"/>
<path d="M12261 2944 c0 -11 3 -14 6 -6 3 7 2 16 -1 19 -3 4 -6 -2 -5 -13z"/>
<path d="M7041 2914 c0 -11 3 -14 6 -6 3 7 2 16 -1 19 -3 4 -6 -2 -5 -13z"/>
<path d="M7042 2810 c0 -14 2 -19 5 -12 2 6 2 18 0 25 -3 6 -5 1 -5 -13z"/>
<path d="M7041 2594 c0 -11 3 -14 6 -6 3 7 2 16 -1 19 -3 4 -6 -2 -5 -13z"/>
<path d="M7042 2490 c0 -14 2 -19 5 -12 2 6 2 18 0 25 -3 6 -5 1 -5 -13z"/>
<path d="M7041 2384 c0 -11 3 -14 6 -6 3 7 2 16 -1 19 -3 4 -6 -2 -5 -13z"/>
<path d="M7041 2274 c0 -11 3 -14 6 -6 3 7 2 16 -1 19 -3 4 -6 -2 -5 -13z"/>
<path d="M12908 2173 c7 -3 16 -2 19 1 4 3 -2 6 -13 5 -11 0 -14 -3 -6 -6z"/>
<path d="M1186 1403 c-6 -14 -5 -15 5 -6 7 7 10 15 7 18 -3 3 -9 -2 -12 -12z"/>
<path d="M1166 1363 c-6 -14 -5 -15 5 -6 7 7 10 15 7 18 -3 3 -9 -2 -12 -12z"/>
</g>
</svg>
