<?xml version="1.0" encoding="utf-8"?>
<!-- Generator: Adobe Illustrator 20.1.0, SVG Export Plug-In . SVG Version: 6.00 Build 0)  -->
<svg version="1.1" id="Layer_1" xmlns="http://www.w3.org/2000/svg" xmlns:xlink="http://www.w3.org/1999/xlink" x="0px" y="0px"
	 viewBox="0 0 612 792" style="enable-background:new 0 0 612 792;" xml:space="preserve">
<style type="text/css">
	.st0{fill:none;stroke:#000000;stroke-width:2;}
	.st1{fill:none;stroke:#000000;stroke-width:2;stroke-miterlimit:10;}
</style>
<rect class="st0" width="612" height="792"/>
<g>
	<path class="st1" d="M585.4,157.5h-558c-5,0-9-4-9-9v-117c0-5,4-9,9-9h558c5,0,9,4,9,9v117C594.4,153.5,590.3,157.5,585.4,157.5z"
		/>
	<path class="st1" d="M585.4,310.5h-558c-5,0-9-4-9-9v-117c0-5,4-9,9-9h558c5,0,9,4,9,9v117C594.4,306.5,590.3,310.5,585.4,310.5z"
		/>
	<path class="st1" d="M585.4,463.5h-558c-5,0-9-4-9-9v-117c0-5,4-9,9-9h558c5,0,9,4,9,9v117C594.4,459.5,590.3,463.5,585.4,463.5z"
		/>
	<path class="st1" d="M585.4,616.5h-558c-5,0-9-4-9-9v-117c0-5,4-9,9-9h558c5,0,9,4,9,9v117C594.4,612.5,590.3,616.5,585.4,616.5z"
		/>
	<path class="st1" d="M585.4,769.5h-558c-5,0-9-4-9-9v-117c0-5,4-9,9-9h558c5,0,9,4,9,9v117C594.4,765.5,590.3,769.5,585.4,769.5z"
		/>
</g>
</svg>
