<?xml version="1.0" encoding="utf-8"?>
<!-- Generator: Adobe Illustrator 20.1.0, SVG Export Plug-In . SVG Version: 6.00 Build 0)  -->
<svg version="1.1" id="Layer_1" xmlns="http://www.w3.org/2000/svg" xmlns:xlink="http://www.w3.org/1999/xlink" x="0px" y="0px"
	 viewBox="0 0 612 792" style="enable-background:new 0 0 612 792;" xml:space="preserve">
<style type="text/css">
	.st0{fill:none;stroke:#000000;stroke-width:2;stroke-miterlimit:2.6131;}
	.st1{fill:none;stroke:#000000;stroke-width:2;}
</style>
<path class="st0" d="M21.3,36h267.8c5.6,0,10.1,5.9,10.1,13.2v213.6c0,7.3-4.5,13.2-10.1,13.2H21.3c-5.5,0-10.1-5.9-10.1-13.2V49.2
	C11.2,41.9,15.8,36,21.3,36z"/>
<path class="st0" d="M21.3,276h267.8c5.6,0,10.1,5.9,10.1,13.2v213.6c0,7.3-4.5,13.2-10.1,13.2H21.3c-5.5,0-10.1-5.9-10.1-13.2
	V289.2C11.2,282,15.8,276,21.3,276z"/>
<path class="st0" d="M21.3,516h267.8c5.6,0,10.1,5.9,10.1,13.2v213.6c0,7.3-4.5,13.2-10.1,13.2H21.3c-5.5,0-10.1-5.9-10.1-13.2
	V529.2C11.2,522,15.8,516,21.3,516z"/>
<path class="st0" d="M322.9,36h267.8c5.6,0,10.1,5.9,10.1,13.2v213.6c0,7.3-4.5,13.2-10.1,13.2H322.9c-5.5,0-10.1-5.9-10.1-13.2
	V49.2C312.8,41.9,317.3,36,322.9,36z"/>
<path class="st0" d="M322.9,276h267.8c5.6,0,10.1,5.9,10.1,13.2v213.6c0,7.3-4.5,13.2-10.1,13.2H322.9c-5.5,0-10.1-5.9-10.1-13.2
	V289.2C312.8,282,317.3,276,322.9,276z"/>
<path class="st0" d="M322.9,516h267.8c5.6,0,10.1,5.9,10.1,13.2v213.6c0,7.3-4.5,13.2-10.1,13.2H322.9c-5.5,0-10.1-5.9-10.1-13.2
	V529.2C312.8,522,317.3,516,322.9,516z"/>
<rect x="0" class="st1" width="612" height="792"/>
</svg>
