<?xml version="1.0" encoding="utf-8"?>
<!-- Generator: Adobe Illustrator 20.1.0, SVG Export Plug-In . SVG Version: 6.00 Build 0)  -->
<svg version="1.1" id="Layer_1" xmlns="http://www.w3.org/2000/svg" xmlns:xlink="http://www.w3.org/1999/xlink" x="0px" y="0px"
	 viewBox="0 0 612 792" style="enable-background:new 0 0 612 792;" xml:space="preserve">
<style type="text/css">
	.st0{fill-rule:evenodd;clip-rule:evenodd;fill:none;stroke:#000000;stroke-width:2;stroke-miterlimit:2.6131;}
</style>
<g>
	<path class="st0" d="M27.9,72.5h119.2c1.9,0,3.4,0.5,3.4,1.1v33.8c0,0.6-1.5,1.1-3.4,1.1H27.9c-1.9,0-3.4-0.5-3.4-1.1V73.6
		C24.5,73,26,72.5,27.9,72.5z"/>
	<path class="st0" d="M27.9,684.5h119.2c1.9,0,3.4,0.5,3.4,1.1v33.8c0,0.6-1.5,1.1-3.4,1.1H27.9c-1.9,0-3.4-0.5-3.4-1.1v-33.8
		C24.5,685,26,684.5,27.9,684.5z"/>
	<path class="st0" d="M27.9,648.5h119.2c1.9,0,3.4,0.5,3.4,1.1v33.8c0,0.6-1.5,1.1-3.4,1.1H27.9c-1.9,0-3.4-0.5-3.4-1.1v-33.8
		C24.5,649,26,648.5,27.9,648.5z"/>
	<path class="st0" d="M27.9,612.5h119.2c1.9,0,3.4,0.5,3.4,1.1v33.8c0,0.6-1.5,1.1-3.4,1.1H27.9c-1.9,0-3.4-0.5-3.4-1.1v-33.8
		C24.5,613,26,612.5,27.9,612.5z"/>
	<path class="st0" d="M27.9,576.5h119.2c1.9,0,3.4,0.5,3.4,1.1v33.8c0,0.6-1.5,1.1-3.4,1.1H27.9c-1.9,0-3.4-0.5-3.4-1.1v-33.8
		C24.5,577,26,576.5,27.9,576.5z"/>
	<path class="st0" d="M27.9,540.5h119.2c1.9,0,3.4,0.5,3.4,1.1v33.8c0,0.6-1.5,1.1-3.4,1.1H27.9c-1.9,0-3.4-0.5-3.4-1.1v-33.8
		C24.5,541,26,540.5,27.9,540.5z"/>
	<path class="st0" d="M27.9,504.5h119.2c1.9,0,3.4,0.5,3.4,1.1v33.8c0,0.6-1.5,1.1-3.4,1.1H27.9c-1.9,0-3.4-0.5-3.4-1.1v-33.8
		C24.5,505,26,504.5,27.9,504.5z"/>
	<path class="st0" d="M27.9,468.5h119.2c1.9,0,3.4,0.5,3.4,1.1v33.8c0,0.6-1.5,1.1-3.4,1.1H27.9c-1.9,0-3.4-0.5-3.4-1.1v-33.8
		C24.5,469,26,468.5,27.9,468.5z"/>
	<path class="st0" d="M27.9,432.5h119.2c1.9,0,3.4,0.5,3.4,1.1v33.8c0,0.6-1.5,1.1-3.4,1.1H27.9c-1.9,0-3.4-0.5-3.4-1.1v-33.8
		C24.5,433,26,432.5,27.9,432.5z"/>
	<path class="st0" d="M27.9,396.5h119.2c1.9,0,3.4,0.5,3.4,1.1v33.8c0,0.6-1.5,1.1-3.4,1.1H27.9c-1.9,0-3.4-0.5-3.4-1.1v-33.8
		C24.5,397,26,396.5,27.9,396.5z"/>
	<path class="st0" d="M27.9,360.5h119.2c1.9,0,3.4,0.5,3.4,1.1v33.8c0,0.6-1.5,1.1-3.4,1.1H27.9c-1.9,0-3.4-0.5-3.4-1.1v-33.8
		C24.5,361,26,360.5,27.9,360.5z"/>
	<path class="st0" d="M27.9,324.5h119.2c1.9,0,3.4,0.5,3.4,1.1v33.8c0,0.6-1.5,1.1-3.4,1.1H27.9c-1.9,0-3.4-0.5-3.4-1.1v-33.8
		C24.5,325,26,324.5,27.9,324.5z"/>
	<path class="st0" d="M27.9,288.5h119.2c1.9,0,3.4,0.5,3.4,1.1v33.8c0,0.6-1.5,1.1-3.4,1.1H27.9c-1.9,0-3.4-0.5-3.4-1.1v-33.8
		C24.5,289,26,288.5,27.9,288.5z"/>
	<path class="st0" d="M27.9,252.5h119.2c1.9,0,3.4,0.5,3.4,1.1v33.8c0,0.6-1.5,1.1-3.4,1.1H27.9c-1.9,0-3.4-0.5-3.4-1.1v-33.8
		C24.5,253,26,252.5,27.9,252.5z"/>
	<path class="st0" d="M27.9,216.5h119.2c1.9,0,3.4,0.5,3.4,1.1v33.8c0,0.6-1.5,1.1-3.4,1.1H27.9c-1.9,0-3.4-0.5-3.4-1.1v-33.8
		C24.5,217,26,216.5,27.9,216.5z"/>
	<path class="st0" d="M27.9,180.5h119.2c1.9,0,3.4,0.5,3.4,1.1v33.8c0,0.6-1.5,1.1-3.4,1.1H27.9c-1.9,0-3.4-0.5-3.4-1.1v-33.8
		C24.5,181,26,180.5,27.9,180.5z"/>
	<path class="st0" d="M27.9,144.5h119.2c1.9,0,3.4,0.5,3.4,1.1v33.8c0,0.6-1.5,1.1-3.4,1.1H27.9c-1.9,0-3.4-0.5-3.4-1.1v-33.8
		C24.5,145,26,144.5,27.9,144.5z"/>
	<path class="st0" d="M27.9,108.5h119.2c1.9,0,3.4,0.5,3.4,1.1v33.8c0,0.6-1.5,1.1-3.4,1.1H27.9c-1.9,0-3.4-0.5-3.4-1.1v-33.8
		C24.5,109,26,108.5,27.9,108.5z"/>
	<path class="st0" d="M27.9,720.5h119.2c1.9,0,3.4,0.5,3.4,1.1v33.8c0,0.6-1.5,1.1-3.4,1.1H27.9c-1.9,0-3.4-0.5-3.4-1.1v-33.8
		C24.5,721,26,720.5,27.9,720.5z"/>
	<path class="st0" d="M27.9,36.5h119.2c1.9,0,3.4,0.5,3.4,1.1v33.8c0,0.6-1.5,1.1-3.4,1.1H27.9c-1.9,0-3.4-0.5-3.4-1.1V37.6
		C24.5,37,26,36.5,27.9,36.5z"/>
</g>
<g>
	<path class="st0" d="M173.9,72.5h119.2c1.9,0,3.4,0.5,3.4,1.1v33.8c0,0.6-1.5,1.1-3.4,1.1H173.9c-1.9,0-3.4-0.5-3.4-1.1V73.6
		C170.5,73,172,72.5,173.9,72.5z"/>
	<path class="st0" d="M173.9,684.5h119.2c1.9,0,3.4,0.5,3.4,1.1v33.8c0,0.6-1.5,1.1-3.4,1.1H173.9c-1.9,0-3.4-0.5-3.4-1.1v-33.8
		C170.5,685,172,684.5,173.9,684.5z"/>
	<path class="st0" d="M173.9,648.5h119.2c1.9,0,3.4,0.5,3.4,1.1v33.8c0,0.6-1.5,1.1-3.4,1.1H173.9c-1.9,0-3.4-0.5-3.4-1.1v-33.8
		C170.5,649,172,648.5,173.9,648.5z"/>
	<path class="st0" d="M173.9,612.5h119.2c1.9,0,3.4,0.5,3.4,1.1v33.8c0,0.6-1.5,1.1-3.4,1.1H173.9c-1.9,0-3.4-0.5-3.4-1.1v-33.8
		C170.5,613,172,612.5,173.9,612.5z"/>
	<path class="st0" d="M173.9,576.5h119.2c1.9,0,3.4,0.5,3.4,1.1v33.8c0,0.6-1.5,1.1-3.4,1.1H173.9c-1.9,0-3.4-0.5-3.4-1.1v-33.8
		C170.5,577,172,576.5,173.9,576.5z"/>
	<path class="st0" d="M173.9,540.5h119.2c1.9,0,3.4,0.5,3.4,1.1v33.8c0,0.6-1.5,1.1-3.4,1.1H173.9c-1.9,0-3.4-0.5-3.4-1.1v-33.8
		C170.5,541,172,540.5,173.9,540.5z"/>
	<path class="st0" d="M173.9,504.5h119.2c1.9,0,3.4,0.5,3.4,1.1v33.8c0,0.6-1.5,1.1-3.4,1.1H173.9c-1.9,0-3.4-0.5-3.4-1.1v-33.8
		C170.5,505,172,504.5,173.9,504.5z"/>
	<path class="st0" d="M173.9,468.5h119.2c1.9,0,3.4,0.5,3.4,1.1v33.8c0,0.6-1.5,1.1-3.4,1.1H173.9c-1.9,0-3.4-0.5-3.4-1.1v-33.8
		C170.5,469,172,468.5,173.9,468.5z"/>
	<path class="st0" d="M173.9,432.5h119.2c1.9,0,3.4,0.5,3.4,1.1v33.8c0,0.6-1.5,1.1-3.4,1.1H173.9c-1.9,0-3.4-0.5-3.4-1.1v-33.8
		C170.5,433,172,432.5,173.9,432.5z"/>
	<path class="st0" d="M173.9,396.5h119.2c1.9,0,3.4,0.5,3.4,1.1v33.8c0,0.6-1.5,1.1-3.4,1.1H173.9c-1.9,0-3.4-0.5-3.4-1.1v-33.8
		C170.5,397,172,396.5,173.9,396.5z"/>
	<path class="st0" d="M173.9,360.5h119.2c1.9,0,3.4,0.5,3.4,1.1v33.8c0,0.6-1.5,1.1-3.4,1.1H173.9c-1.9,0-3.4-0.5-3.4-1.1v-33.8
		C170.5,361,172,360.5,173.9,360.5z"/>
	<path class="st0" d="M173.9,324.5h119.2c1.9,0,3.4,0.5,3.4,1.1v33.8c0,0.6-1.5,1.1-3.4,1.1H173.9c-1.9,0-3.4-0.5-3.4-1.1v-33.8
		C170.5,325,172,324.5,173.9,324.5z"/>
	<path class="st0" d="M173.9,288.5h119.2c1.9,0,3.4,0.5,3.4,1.1v33.8c0,0.6-1.5,1.1-3.4,1.1H173.9c-1.9,0-3.4-0.5-3.4-1.1v-33.8
		C170.5,289,172,288.5,173.9,288.5z"/>
	<path class="st0" d="M173.9,252.5h119.2c1.9,0,3.4,0.5,3.4,1.1v33.8c0,0.6-1.5,1.1-3.4,1.1H173.9c-1.9,0-3.4-0.5-3.4-1.1v-33.8
		C170.5,253,172,252.5,173.9,252.5z"/>
	<path class="st0" d="M173.9,216.5h119.2c1.9,0,3.4,0.5,3.4,1.1v33.8c0,0.6-1.5,1.1-3.4,1.1H173.9c-1.9,0-3.4-0.5-3.4-1.1v-33.8
		C170.5,217,172,216.5,173.9,216.5z"/>
	<path class="st0" d="M173.9,180.5h119.2c1.9,0,3.4,0.5,3.4,1.1v33.8c0,0.6-1.5,1.1-3.4,1.1H173.9c-1.9,0-3.4-0.5-3.4-1.1v-33.8
		C170.5,181,172,180.5,173.9,180.5z"/>
	<path class="st0" d="M173.9,144.5h119.2c1.9,0,3.4,0.5,3.4,1.1v33.8c0,0.6-1.5,1.1-3.4,1.1H173.9c-1.9,0-3.4-0.5-3.4-1.1v-33.8
		C170.5,145,172,144.5,173.9,144.5z"/>
	<path class="st0" d="M173.9,108.5h119.2c1.9,0,3.4,0.5,3.4,1.1v33.8c0,0.6-1.5,1.1-3.4,1.1H173.9c-1.9,0-3.4-0.5-3.4-1.1v-33.8
		C170.5,109,172,108.5,173.9,108.5z"/>
	<path class="st0" d="M173.9,720.5h119.2c1.9,0,3.4,0.5,3.4,1.1v33.8c0,0.6-1.5,1.1-3.4,1.1H173.9c-1.9,0-3.4-0.5-3.4-1.1v-33.8
		C170.5,721,172,720.5,173.9,720.5z"/>
	<path class="st0" d="M173.9,36.5h119.2c1.9,0,3.4,0.5,3.4,1.1v33.8c0,0.6-1.5,1.1-3.4,1.1H173.9c-1.9,0-3.4-0.5-3.4-1.1V37.6
		C170.5,37,172,36.5,173.9,36.5z"/>
</g>
<g>
	<path class="st0" d="M319.9,72.5h119.2c1.9,0,3.4,0.5,3.4,1.1v33.8c0,0.6-1.5,1.1-3.4,1.1H319.9c-1.9,0-3.4-0.5-3.4-1.1V73.6
		C316.5,73,318,72.5,319.9,72.5z"/>
	<path class="st0" d="M319.9,684.5h119.2c1.9,0,3.4,0.5,3.4,1.1v33.8c0,0.6-1.5,1.1-3.4,1.1H319.9c-1.9,0-3.4-0.5-3.4-1.1v-33.8
		C316.5,685,318,684.5,319.9,684.5z"/>
	<path class="st0" d="M319.9,648.5h119.2c1.9,0,3.4,0.5,3.4,1.1v33.8c0,0.6-1.5,1.1-3.4,1.1H319.9c-1.9,0-3.4-0.5-3.4-1.1v-33.8
		C316.5,649,318,648.5,319.9,648.5z"/>
	<path class="st0" d="M319.9,612.5h119.2c1.9,0,3.4,0.5,3.4,1.1v33.8c0,0.6-1.5,1.1-3.4,1.1H319.9c-1.9,0-3.4-0.5-3.4-1.1v-33.8
		C316.5,613,318,612.5,319.9,612.5z"/>
	<path class="st0" d="M319.9,576.5h119.2c1.9,0,3.4,0.5,3.4,1.1v33.8c0,0.6-1.5,1.1-3.4,1.1H319.9c-1.9,0-3.4-0.5-3.4-1.1v-33.8
		C316.5,577,318,576.5,319.9,576.5z"/>
	<path class="st0" d="M319.9,540.5h119.2c1.9,0,3.4,0.5,3.4,1.1v33.8c0,0.6-1.5,1.1-3.4,1.1H319.9c-1.9,0-3.4-0.5-3.4-1.1v-33.8
		C316.5,541,318,540.5,319.9,540.5z"/>
	<path class="st0" d="M319.9,504.5h119.2c1.9,0,3.4,0.5,3.4,1.1v33.8c0,0.6-1.5,1.1-3.4,1.1H319.9c-1.9,0-3.4-0.5-3.4-1.1v-33.8
		C316.5,505,318,504.5,319.9,504.5z"/>
	<path class="st0" d="M319.9,468.5h119.2c1.9,0,3.4,0.5,3.4,1.1v33.8c0,0.6-1.5,1.1-3.4,1.1H319.9c-1.9,0-3.4-0.5-3.4-1.1v-33.8
		C316.5,469,318,468.5,319.9,468.5z"/>
	<path class="st0" d="M319.9,432.5h119.2c1.9,0,3.4,0.5,3.4,1.1v33.8c0,0.6-1.5,1.1-3.4,1.1H319.9c-1.9,0-3.4-0.5-3.4-1.1v-33.8
		C316.5,433,318,432.5,319.9,432.5z"/>
	<path class="st0" d="M319.9,396.5h119.2c1.9,0,3.4,0.5,3.4,1.1v33.8c0,0.6-1.5,1.1-3.4,1.1H319.9c-1.9,0-3.4-0.5-3.4-1.1v-33.8
		C316.5,397,318,396.5,319.9,396.5z"/>
	<path class="st0" d="M319.9,360.5h119.2c1.9,0,3.4,0.5,3.4,1.1v33.8c0,0.6-1.5,1.1-3.4,1.1H319.9c-1.9,0-3.4-0.5-3.4-1.1v-33.8
		C316.5,361,318,360.5,319.9,360.5z"/>
	<path class="st0" d="M319.9,324.5h119.2c1.9,0,3.4,0.5,3.4,1.1v33.8c0,0.6-1.5,1.1-3.4,1.1H319.9c-1.9,0-3.4-0.5-3.4-1.1v-33.8
		C316.5,325,318,324.5,319.9,324.5z"/>
	<path class="st0" d="M319.9,288.5h119.2c1.9,0,3.4,0.5,3.4,1.1v33.8c0,0.6-1.5,1.1-3.4,1.1H319.9c-1.9,0-3.4-0.5-3.4-1.1v-33.8
		C316.5,289,318,288.5,319.9,288.5z"/>
	<path class="st0" d="M319.9,252.5h119.2c1.9,0,3.4,0.5,3.4,1.1v33.8c0,0.6-1.5,1.1-3.4,1.1H319.9c-1.9,0-3.4-0.5-3.4-1.1v-33.8
		C316.5,253,318,252.5,319.9,252.5z"/>
	<path class="st0" d="M319.9,216.5h119.2c1.9,0,3.4,0.5,3.4,1.1v33.8c0,0.6-1.5,1.1-3.4,1.1H319.9c-1.9,0-3.4-0.5-3.4-1.1v-33.8
		C316.5,217,318,216.5,319.9,216.5z"/>
	<path class="st0" d="M319.9,180.5h119.2c1.9,0,3.4,0.5,3.4,1.1v33.8c0,0.6-1.5,1.1-3.4,1.1H319.9c-1.9,0-3.4-0.5-3.4-1.1v-33.8
		C316.5,181,318,180.5,319.9,180.5z"/>
	<path class="st0" d="M319.9,144.5h119.2c1.9,0,3.4,0.5,3.4,1.1v33.8c0,0.6-1.5,1.1-3.4,1.1H319.9c-1.9,0-3.4-0.5-3.4-1.1v-33.8
		C316.5,145,318,144.5,319.9,144.5z"/>
	<path class="st0" d="M319.9,108.5h119.2c1.9,0,3.4,0.5,3.4,1.1v33.8c0,0.6-1.5,1.1-3.4,1.1H319.9c-1.9,0-3.4-0.5-3.4-1.1v-33.8
		C316.5,109,318,108.5,319.9,108.5z"/>
	<path class="st0" d="M319.9,720.5h119.2c1.9,0,3.4,0.5,3.4,1.1v33.8c0,0.6-1.5,1.1-3.4,1.1H319.9c-1.9,0-3.4-0.5-3.4-1.1v-33.8
		C316.5,721,318,720.5,319.9,720.5z"/>
	<path class="st0" d="M319.9,36.5h119.2c1.9,0,3.4,0.5,3.4,1.1v33.8c0,0.6-1.5,1.1-3.4,1.1H319.9c-1.9,0-3.4-0.5-3.4-1.1V37.6
		C316.5,37,318,36.5,319.9,36.5z"/>
</g>
<g>
	<path class="st0" d="M465.9,72.5h119.2c1.9,0,3.4,0.5,3.4,1.1v33.8c0,0.6-1.5,1.1-3.4,1.1H465.9c-1.9,0-3.4-0.5-3.4-1.1V73.6
		C462.5,73,464.1,72.5,465.9,72.5z"/>
	<path class="st0" d="M465.9,684.5h119.2c1.9,0,3.4,0.5,3.4,1.1v33.8c0,0.6-1.5,1.1-3.4,1.1H465.9c-1.9,0-3.4-0.5-3.4-1.1v-33.8
		C462.5,685,464.1,684.5,465.9,684.5z"/>
	<path class="st0" d="M465.9,648.5h119.2c1.9,0,3.4,0.5,3.4,1.1v33.8c0,0.6-1.5,1.1-3.4,1.1H465.9c-1.9,0-3.4-0.5-3.4-1.1v-33.8
		C462.5,649,464.1,648.5,465.9,648.5z"/>
	<path class="st0" d="M465.9,612.5h119.2c1.9,0,3.4,0.5,3.4,1.1v33.8c0,0.6-1.5,1.1-3.4,1.1H465.9c-1.9,0-3.4-0.5-3.4-1.1v-33.8
		C462.5,613,464.1,612.5,465.9,612.5z"/>
	<path class="st0" d="M465.9,576.5h119.2c1.9,0,3.4,0.5,3.4,1.1v33.8c0,0.6-1.5,1.1-3.4,1.1H465.9c-1.9,0-3.4-0.5-3.4-1.1v-33.8
		C462.5,577,464.1,576.5,465.9,576.5z"/>
	<path class="st0" d="M465.9,540.5h119.2c1.9,0,3.4,0.5,3.4,1.1v33.8c0,0.6-1.5,1.1-3.4,1.1H465.9c-1.9,0-3.4-0.5-3.4-1.1v-33.8
		C462.5,541,464.1,540.5,465.9,540.5z"/>
	<path class="st0" d="M465.9,504.5h119.2c1.9,0,3.4,0.5,3.4,1.1v33.8c0,0.6-1.5,1.1-3.4,1.1H465.9c-1.9,0-3.4-0.5-3.4-1.1v-33.8
		C462.5,505,464.1,504.5,465.9,504.5z"/>
	<path class="st0" d="M465.9,468.5h119.2c1.9,0,3.4,0.5,3.4,1.1v33.8c0,0.6-1.5,1.1-3.4,1.1H465.9c-1.9,0-3.4-0.5-3.4-1.1v-33.8
		C462.5,469,464.1,468.5,465.9,468.5z"/>
	<path class="st0" d="M465.9,432.5h119.2c1.9,0,3.4,0.5,3.4,1.1v33.8c0,0.6-1.5,1.1-3.4,1.1H465.9c-1.9,0-3.4-0.5-3.4-1.1v-33.8
		C462.5,433,464.1,432.5,465.9,432.5z"/>
	<path class="st0" d="M465.9,396.5h119.2c1.9,0,3.4,0.5,3.4,1.1v33.8c0,0.6-1.5,1.1-3.4,1.1H465.9c-1.9,0-3.4-0.5-3.4-1.1v-33.8
		C462.5,397,464.1,396.5,465.9,396.5z"/>
	<path class="st0" d="M465.9,360.5h119.2c1.9,0,3.4,0.5,3.4,1.1v33.8c0,0.6-1.5,1.1-3.4,1.1H465.9c-1.9,0-3.4-0.5-3.4-1.1v-33.8
		C462.5,361,464.1,360.5,465.9,360.5z"/>
	<path class="st0" d="M465.9,324.5h119.2c1.9,0,3.4,0.5,3.4,1.1v33.8c0,0.6-1.5,1.1-3.4,1.1H465.9c-1.9,0-3.4-0.5-3.4-1.1v-33.8
		C462.5,325,464.1,324.5,465.9,324.5z"/>
	<path class="st0" d="M465.9,288.5h119.2c1.9,0,3.4,0.5,3.4,1.1v33.8c0,0.6-1.5,1.1-3.4,1.1H465.9c-1.9,0-3.4-0.5-3.4-1.1v-33.8
		C462.5,289,464.1,288.5,465.9,288.5z"/>
	<path class="st0" d="M465.9,252.5h119.2c1.9,0,3.4,0.5,3.4,1.1v33.8c0,0.6-1.5,1.1-3.4,1.1H465.9c-1.9,0-3.4-0.5-3.4-1.1v-33.8
		C462.5,253,464.1,252.5,465.9,252.5z"/>
	<path class="st0" d="M465.9,216.5h119.2c1.9,0,3.4,0.5,3.4,1.1v33.8c0,0.6-1.5,1.1-3.4,1.1H465.9c-1.9,0-3.4-0.5-3.4-1.1v-33.8
		C462.5,217,464.1,216.5,465.9,216.5z"/>
	<path class="st0" d="M465.9,180.5h119.2c1.9,0,3.4,0.5,3.4,1.1v33.8c0,0.6-1.5,1.1-3.4,1.1H465.9c-1.9,0-3.4-0.5-3.4-1.1v-33.8
		C462.5,181,464.1,180.5,465.9,180.5z"/>
	<path class="st0" d="M465.9,144.5h119.2c1.9,0,3.4,0.5,3.4,1.1v33.8c0,0.6-1.5,1.1-3.4,1.1H465.9c-1.9,0-3.4-0.5-3.4-1.1v-33.8
		C462.5,145,464.1,144.5,465.9,144.5z"/>
	<path class="st0" d="M465.9,108.5h119.2c1.9,0,3.4,0.5,3.4,1.1v33.8c0,0.6-1.5,1.1-3.4,1.1H465.9c-1.9,0-3.4-0.5-3.4-1.1v-33.8
		C462.5,109,464.1,108.5,465.9,108.5z"/>
	<path class="st0" d="M465.9,720.5h119.2c1.9,0,3.4,0.5,3.4,1.1v33.8c0,0.6-1.5,1.1-3.4,1.1H465.9c-1.9,0-3.4-0.5-3.4-1.1v-33.8
		C462.5,721,464.1,720.5,465.9,720.5z"/>
	<path class="st0" d="M465.9,36.5h119.2c1.9,0,3.4,0.5,3.4,1.1v33.8c0,0.6-1.5,1.1-3.4,1.1H465.9c-1.9,0-3.4-0.5-3.4-1.1V37.6
		C462.5,37,464.1,36.5,465.9,36.5z"/>
</g>
<rect y="0.5" class="st0" width="612" height="792"/>
</svg>
