<?xml version="1.0" encoding="utf-8"?>
<!-- Generator: Adobe Illustrator 20.1.0, SVG Export Plug-In . SVG Version: 6.00 Build 0)  -->
<svg version="1.1" id="Layer_1" xmlns="http://www.w3.org/2000/svg" xmlns:xlink="http://www.w3.org/1999/xlink" x="0px" y="0px"
	 viewBox="0 0 612 792" style="enable-background:new 0 0 612 792;" xml:space="preserve">
<style type="text/css">
	.st0{fill:none;stroke:#000000;stroke-width:2;stroke-miterlimit:10;}
</style>
<path class="st0" d="M180.9,449.1c89.7,0,162.9,73.2,162.9,162.9s-73.2,162.9-162.9,162.9S18,701.7,18,612S91.2,449.1,180.9,449.1z"
	/>
<path class="st0" d="M180.9,553.5c32.2,0,58.5,26.3,58.5,58.5s-26.3,58.5-58.5,58.5c-32.2,0-58.5-26.3-58.5-58.5
	S148.7,553.5,180.9,553.5z"/>
<path class="st0" d="M180.9,17.1c89.7,0,162.9,73.2,162.9,162.9s-73.2,162.9-162.9,162.9S18,269.7,18,180S91.2,17.1,180.9,17.1z"/>
<path class="st0" d="M180.9,121.5c32.2,0,58.5,26.3,58.5,58.5c0,32.2-26.3,58.5-58.5,58.5c-32.2,0-58.5-26.3-58.5-58.5
	C122.4,147.8,148.7,121.5,180.9,121.5z"/>
<path class="st0" d="M383.9,38.7h180.8c4.7,0,8.6,3.5,8.6,7.8v126.6c0,4.3-3.9,7.8-8.6,7.8H383.9c-4.7,0-8.6-3.5-8.6-7.8V46.5
	C375.3,42.2,379.2,38.7,383.9,38.7z"/>
<path class="st0" d="M383.9,597.6h180.8c4.7,0,8.6,3.5,8.6,7.8V732c0,4.3-3.9,7.8-8.6,7.8H383.9c-4.7,0-8.6-3.5-8.6-7.8V605.4
	C375.3,601.1,379.2,597.6,383.9,597.6z"/>
<path class="st0" d="M431.1,234c89.7,0,162.9,73.2,162.9,162.9s-73.2,162.9-162.9,162.9c-89.7,0-162.9-73.2-162.9-162.9
	S341.4,234,431.1,234z"/>
<path class="st0" d="M431.1,338.4c32.2,0,58.5,26.3,58.5,58.5c0,32.2-26.3,58.5-58.5,58.5c-32.2,0-58.5-26.3-58.5-58.5
	C372.6,364.7,398.9,338.4,431.1,338.4z"/>
<path class="st0" d="M33.8,360h207.8c5.2,0,9.5,1.8,9.5,4V428c0,2.2-4.3,4-9.5,4H33.8c-5.2,0-9.5-1.8-9.5-4V364
	C24.3,361.8,28.6,360,33.8,360z"/>
<rect class="st0" width="612" height="792"/>
</svg>
