<?xml version="1.0" encoding="utf-8"?>
<!-- Generator: Adobe Illustrator 23.0.3, SVG Export Plug-In . SVG Version: 6.00 Build 0)  -->
<svg version="1.1" id="Layer_1" xmlns="http://www.w3.org/2000/svg" xmlns:xlink="http://www.w3.org/1999/xlink" x="0px" y="0px"
	 viewBox="0 0 612 792" style="enable-background:new 0 0 612 792;" xml:space="preserve">
<style type="text/css">
	.st0{fill:none;stroke:#000000;stroke-width:2;}
</style>
<g id="Template">
	<rect class="st0" width="612" height="792"/>
	<path class="st0" d="M162.5,407.1c-11.7,0-22.5,7.4-29.8,20.3l-1.4,2.4l-2.8-0.3c-42.4-4-66.5-10.8-66.5-10.8
		c-12.5-3.5-13.1-3.5-16,8.1c-1,4-7.7,34.1-7.7,34.1C36,470.7,36,472,46,474.7c16.7,4.5,40.6,10.4,83.4,14.1l2.2,0.2l1.1,2
		c7.2,12.8,18,20.1,29.6,20.1s22.4-7.3,29.6-20.1l1.1-2l2.2-0.2c42.8-3.7,69.8-10.7,81.5-13.8c12.2-3.2,12.2-3.5,9.7-14
		c0-0.1-6.1-26-8.2-33.7c-3-11.2-3-11.3-15.5-8.6c0,0-0.3,0.1-0.4,0.1c-1.6,0.5-23.8,6.7-66.1,10.8l-2.8,0.3l-1.4-2.4
		C185,414.5,174.2,407.1,162.5,407.1L162.5,407.1z"/>
	<path class="st0" d="M162.5,43.7c-11.7,0-22.5,7.4-29.8,20.3l-1.4,2.4l-2.8-0.3C86.1,62.1,62,55.3,62,55.3
		c-12.5-3.5-13.1-3.5-16,8.1c-1,4-7.7,34.1-7.7,34.1c-2.3,9.8-2.3,11.1,7.7,13.8c16.7,4.5,40.6,10.4,83.4,14.1l2.2,0.2l1.1,2
		c7.2,12.8,18,20.1,29.6,20.1s22.4-7.3,29.6-20.1l1.1-2l2.2-0.2c42.8-3.7,69.8-10.7,81.5-13.8c12.2-3.2,12.2-3.5,9.7-14
		c0-0.1-6.1-26-8.2-33.7c-3-11.2-3-11.3-15.5-8.6c0,0-0.3,0.1-0.4,0.1c-1.6,0.5-23.8,6.7-66.1,10.8l-2.8,0.3l-1.4-2.4
		C185,51.1,174.2,43.7,162.5,43.7L162.5,43.7z"/>
	<rect x="36.5" y="168.9" class="st0" width="252" height="216"/>
	<rect x="36.5" y="532.3" class="st0" width="252" height="216"/>
	<g>
		<path class="st0" d="M449.4,407.1c-11.7,0-22.5,7.4-29.8,20.3l-1.4,2.4l-2.8-0.3c-42.4-4-66.5-10.8-66.5-10.8
			c-12.5-3.5-13.1-3.5-16,8.1c-1,4-7.7,34.1-7.7,34.1c-2.3,9.8-2.3,11.1,7.7,13.8c16.7,4.5,40.6,10.4,83.4,14.1l2.2,0.2l1.1,2
			c7.2,12.8,18,20.1,29.6,20.1s22.4-7.3,29.6-20.1l1.1-2l2.2-0.2c42.8-3.7,69.8-10.7,81.5-13.8c12.2-3.2,12.2-3.5,9.7-14
			c0-0.1-6.1-26-8.2-33.7c-3-11.2-3-11.3-15.5-8.6c0,0-0.3,0.1-0.4,0.1c-1.6,0.5-23.8,6.7-66.1,10.8l-2.8,0.3l-1.4-2.4
			C472,414.5,461.1,407.1,449.4,407.1L449.4,407.1z"/>
		<rect x="323.5" y="532.3" class="st0" width="252" height="216"/>
	</g>
	<path class="st0" d="M448.4,43.7c-11.7,0-22.5,7.4-29.8,20.3l-1.4,2.4l-2.8-0.3c-42.4-4-66.5-10.8-66.5-10.8
		c-12.5-3.5-13.1-3.5-16,8.1c-1,4-7.7,34.1-7.7,34.1c-2.3,9.8-2.3,11.1,7.7,13.8c16.7,4.5,40.6,10.4,83.4,14.1l2.2,0.2l1.1,2
		c7.2,12.8,18,20.1,29.6,20.1s22.4-7.3,29.6-20.1l1.1-2l2.2-0.2c42.8-3.7,69.8-10.7,81.5-13.8c12.2-3.2,12.2-3.5,9.7-14
		c0-0.1-6.1-26-8.2-33.7c-3-11.2-3-11.3-15.5-8.6c0,0-0.3,0.1-0.4,0.1c-1.6,0.5-23.8,6.7-66.1,10.8l-2.8,0.3l-1.4-2.4
		C471,51.1,460.1,43.7,448.4,43.7L448.4,43.7z"/>
	<rect x="323.5" y="168.9" class="st0" width="252" height="216"/>
</g>
</svg>
