<?xml version="1.0" encoding="utf-8"?>
<!-- Generator: Adobe Illustrator 20.1.0, SVG Export Plug-In . SVG Version: 6.00 Build 0)  -->
<svg version="1.1" id="Layer_1" xmlns="http://www.w3.org/2000/svg" xmlns:xlink="http://www.w3.org/1999/xlink" x="0px" y="0px"
	 viewBox="0 0 612 792" style="enable-background:new 0 0 612 792;" xml:space="preserve">
<style type="text/css">
	.st0{fill:none;stroke:#000000;stroke-width:2;stroke-miterlimit:10;}
</style>
<path class="st0" d="M306,36c89.2,0,162,72.8,162,162c0,89.2-72.8,162-162,162c-89.2,0-162-72.8-162-162C144,108.8,216.8,36,306,36z
	"/>
<path class="st0" d="M306,139.5c32.2,0,58.5,26.3,58.5,58.5s-26.3,58.5-58.5,58.5s-58.5-26.3-58.5-58.5S273.8,139.5,306,139.5z"/>
<path class="st0" d="M306,432c89.2,0,162,72.8,162,162s-72.8,162-162,162c-89.2,0-162-72.8-162-162S216.8,432,306,432z"/>
<path class="st0" d="M306,535.5c32.2,0,58.5,26.3,58.5,58.5s-26.3,58.5-58.5,58.5s-58.5-26.3-58.5-58.5S273.8,535.5,306,535.5z"/>
<rect class="st0" width="612" height="792"/>
</svg>
