<?xml version="1.0" encoding="utf-8"?>
<!-- Generator: Adobe Illustrator 22.0.1, SVG Export Plug-In . SVG Version: 6.00 Build 0)  -->
<svg version="1.1" id="Template" xmlns="http://www.w3.org/2000/svg" xmlns:xlink="http://www.w3.org/1999/xlink" x="0px" y="0px"
	 viewBox="0 0 614 794" style="enable-background:new 0 0 614 794;" xml:space="preserve">
<style type="text/css">
	.st0{fill:none;stroke:#231F20;stroke-width:2;stroke-miterlimit:10;}
</style>
<title>SL1293</title>
<path class="st0" d="M67.2,55h83.5c1.8,0,3.2,1.5,3.2,3.2v47.5c0,1.8-1.5,3.2-3.2,3.2H67.2c-1.8,0-3.2-1.5-3.2-3.2V58.2
	C64,56.5,65.5,55,67.2,55z"/>
<path class="st0" d="M166.2,55h83.5c1.8,0,3.2,1.5,3.2,3.2v47.5c0,1.8-1.5,3.2-3.2,3.2h-83.5c-1.8,0-3.2-1.5-3.2-3.2V58.2
	C163,56.5,164.5,55,166.2,55z"/>
<path class="st0" d="M265.2,55h83.5c1.8,0,3.2,1.5,3.2,3.2v47.5c0,1.8-1.5,3.2-3.2,3.2h-83.5c-1.8,0-3.2-1.5-3.2-3.2V58.2
	C262,56.5,263.5,55,265.2,55z"/>
<path class="st0" d="M364.2,55h83.5c1.8,0,3.2,1.5,3.2,3.2v47.5c0,1.8-1.5,3.2-3.2,3.2h-83.5c-1.8,0-3.2-1.5-3.2-3.2V58.2
	C361,56.5,362.5,55,364.2,55z"/>
<path class="st0" d="M463.2,55h83.5c1.8,0,3.2,1.5,3.2,3.2v47.5c0,1.8-1.5,3.2-3.2,3.2h-83.5c-1.8,0-3.2-1.5-3.2-3.2V58.2
	C460,56.5,461.5,55,463.2,55z"/>
<path class="st0" d="M67.2,118h83.5c1.8,0,3.2,1.5,3.2,3.2v47.5c0,1.8-1.5,3.2-3.2,3.2H67.2c-1.8,0-3.2-1.5-3.2-3.2v-47.5
	C64,119.5,65.5,118,67.2,118z"/>
<path class="st0" d="M166.2,118h83.5c1.8,0,3.2,1.5,3.2,3.2v47.5c0,1.8-1.5,3.2-3.2,3.2h-83.5c-1.8,0-3.2-1.5-3.2-3.2v-47.5
	C163,119.5,164.5,118,166.2,118z"/>
<path class="st0" d="M265.2,118h83.5c1.8,0,3.2,1.5,3.2,3.2v47.5c0,1.8-1.5,3.2-3.2,3.2h-83.5c-1.8,0-3.2-1.5-3.2-3.2v-47.5
	C262,119.5,263.5,118,265.2,118z"/>
<path class="st0" d="M364.2,118h83.5c1.8,0,3.2,1.5,3.2,3.2v47.5c0,1.8-1.5,3.2-3.2,3.2h-83.5c-1.8,0-3.2-1.5-3.2-3.2v-47.5
	C361,119.5,362.5,118,364.2,118z"/>
<path class="st0" d="M463.2,118h83.5c1.8,0,3.2,1.5,3.2,3.2v47.5c0,1.8-1.5,3.2-3.2,3.2h-83.5c-1.8,0-3.2-1.5-3.2-3.2v-47.5
	C460,119.5,461.5,118,463.2,118z"/>
<path class="st0" d="M67.2,181h83.5c1.8,0,3.2,1.5,3.2,3.2v47.5c0,1.8-1.5,3.2-3.2,3.2H67.2c-1.8,0-3.2-1.5-3.2-3.2v-47.5
	C64,182.5,65.5,181,67.2,181z"/>
<path class="st0" d="M166.2,181h83.5c1.8,0,3.2,1.5,3.2,3.2v47.5c0,1.8-1.5,3.2-3.2,3.2h-83.5c-1.8,0-3.2-1.5-3.2-3.2v-47.5
	C163,182.5,164.5,181,166.2,181z"/>
<path class="st0" d="M265.2,181h83.5c1.8,0,3.2,1.5,3.2,3.2v47.5c0,1.8-1.5,3.2-3.2,3.2h-83.5c-1.8,0-3.2-1.5-3.2-3.2v-47.5
	C262,182.5,263.5,181,265.2,181z"/>
<path class="st0" d="M364.2,181h83.5c1.8,0,3.2,1.5,3.2,3.2v47.5c0,1.8-1.5,3.2-3.2,3.2h-83.5c-1.8,0-3.2-1.5-3.2-3.2v-47.5
	C361,182.5,362.5,181,364.2,181z"/>
<path class="st0" d="M463.2,181h83.5c1.8,0,3.2,1.5,3.2,3.2v47.5c0,1.8-1.5,3.2-3.2,3.2h-83.5c-1.8,0-3.2-1.5-3.2-3.2v-47.5
	C460,182.5,461.5,181,463.2,181z"/>
<path class="st0" d="M67.2,244h83.5c1.8,0,3.2,1.5,3.2,3.2v47.5c0,1.8-1.5,3.2-3.2,3.2H67.2c-1.8,0-3.2-1.5-3.2-3.2v-47.5
	C64,245.5,65.5,244,67.2,244z"/>
<path class="st0" d="M166.2,244h83.5c1.8,0,3.2,1.5,3.2,3.2v47.5c0,1.8-1.5,3.2-3.2,3.2h-83.5c-1.8,0-3.2-1.5-3.2-3.2v-47.5
	C163,245.5,164.5,244,166.2,244z"/>
<path class="st0" d="M265.2,244h83.5c1.8,0,3.2,1.5,3.2,3.2v47.5c0,1.8-1.5,3.2-3.2,3.2h-83.5c-1.8,0-3.2-1.5-3.2-3.2v-47.5
	C262,245.5,263.5,244,265.2,244z"/>
<path class="st0" d="M364.2,244h83.5c1.8,0,3.2,1.5,3.2,3.2v47.5c0,1.8-1.5,3.2-3.2,3.2h-83.5c-1.8,0-3.2-1.5-3.2-3.2v-47.5
	C361,245.5,362.5,244,364.2,244z"/>
<path class="st0" d="M463.2,244h83.5c1.8,0,3.2,1.5,3.2,3.2v47.5c0,1.8-1.5,3.2-3.2,3.2h-83.5c-1.8,0-3.2-1.5-3.2-3.2v-47.5
	C460,245.5,461.5,244,463.2,244z"/>
<path class="st0" d="M67.2,307h83.5c1.8,0,3.2,1.5,3.2,3.2v47.5c0,1.8-1.5,3.2-3.2,3.2H67.2c-1.8,0-3.2-1.5-3.2-3.2v-47.5
	C64,308.5,65.5,307,67.2,307z"/>
<path class="st0" d="M166.2,307h83.5c1.8,0,3.2,1.5,3.2,3.2v47.5c0,1.8-1.5,3.2-3.2,3.2h-83.5c-1.8,0-3.2-1.5-3.2-3.2v-47.5
	C163,308.5,164.5,307,166.2,307z"/>
<path class="st0" d="M265.2,307h83.5c1.8,0,3.2,1.5,3.2,3.2v47.5c0,1.8-1.5,3.2-3.2,3.2h-83.5c-1.8,0-3.2-1.5-3.2-3.2v-47.5
	C262,308.5,263.5,307,265.2,307z"/>
<path class="st0" d="M364.2,307h83.5c1.8,0,3.2,1.5,3.2,3.2v47.5c0,1.8-1.5,3.2-3.2,3.2h-83.5c-1.8,0-3.2-1.5-3.2-3.2v-47.5
	C361,308.5,362.5,307,364.2,307z"/>
<path class="st0" d="M463.2,307h83.5c1.8,0,3.2,1.5,3.2,3.2v47.5c0,1.8-1.5,3.2-3.2,3.2h-83.5c-1.8,0-3.2-1.5-3.2-3.2v-47.5
	C460,308.5,461.5,307,463.2,307z"/>
<path class="st0" d="M67.2,370h83.5c1.8,0,3.2,1.5,3.2,3.2v47.5c0,1.8-1.5,3.2-3.2,3.2H67.2c-1.8,0-3.2-1.5-3.2-3.2v-47.5
	C64,371.5,65.5,370,67.2,370z"/>
<path class="st0" d="M166.2,370h83.5c1.8,0,3.2,1.5,3.2,3.2v47.5c0,1.8-1.5,3.2-3.2,3.2h-83.5c-1.8,0-3.2-1.5-3.2-3.2v-47.5
	C163,371.5,164.5,370,166.2,370z"/>
<path class="st0" d="M265.2,370h83.5c1.8,0,3.2,1.5,3.2,3.2v47.5c0,1.8-1.5,3.2-3.2,3.2h-83.5c-1.8,0-3.2-1.5-3.2-3.2v-47.5
	C262,371.5,263.5,370,265.2,370z"/>
<path class="st0" d="M364.2,370h83.5c1.8,0,3.2,1.5,3.2,3.2v47.5c0,1.8-1.5,3.2-3.2,3.2h-83.5c-1.8,0-3.2-1.5-3.2-3.2v-47.5
	C361,371.5,362.5,370,364.2,370z"/>
<path class="st0" d="M463.2,370h83.5c1.8,0,3.2,1.5,3.2,3.2v47.5c0,1.8-1.5,3.2-3.2,3.2h-83.5c-1.8,0-3.2-1.5-3.2-3.2v-47.5
	C460,371.5,461.5,370,463.2,370z"/>
<path class="st0" d="M67.2,433h83.5c1.8,0,3.2,1.5,3.2,3.2v47.5c0,1.8-1.5,3.2-3.2,3.2H67.2c-1.8,0-3.2-1.5-3.2-3.2v-47.5
	C64,434.5,65.5,433,67.2,433z"/>
<path class="st0" d="M166.2,433h83.5c1.8,0,3.2,1.5,3.2,3.2v47.5c0,1.8-1.5,3.2-3.2,3.2h-83.5c-1.8,0-3.2-1.5-3.2-3.2v-47.5
	C163,434.5,164.5,433,166.2,433z"/>
<path class="st0" d="M265.2,433h83.5c1.8,0,3.2,1.5,3.2,3.2v47.5c0,1.8-1.5,3.2-3.2,3.2h-83.5c-1.8,0-3.2-1.5-3.2-3.2v-47.5
	C262,434.5,263.5,433,265.2,433z"/>
<path class="st0" d="M364.2,433h83.5c1.8,0,3.2,1.5,3.2,3.2v47.5c0,1.8-1.5,3.2-3.2,3.2h-83.5c-1.8,0-3.2-1.5-3.2-3.2v-47.5
	C361,434.5,362.5,433,364.2,433z"/>
<path class="st0" d="M463.2,433h83.5c1.8,0,3.2,1.5,3.2,3.2v47.5c0,1.8-1.5,3.2-3.2,3.2h-83.5c-1.8,0-3.2-1.5-3.2-3.2v-47.5
	C460,434.5,461.5,433,463.2,433z"/>
<path class="st0" d="M67.2,496h83.5c1.8,0,3.2,1.5,3.2,3.2v47.5c0,1.8-1.5,3.2-3.2,3.2H67.2c-1.8,0-3.2-1.5-3.2-3.2v-47.5
	C64,497.5,65.5,496,67.2,496z"/>
<path class="st0" d="M166.2,496h83.5c1.8,0,3.2,1.5,3.2,3.2v47.5c0,1.8-1.5,3.2-3.2,3.2h-83.5c-1.8,0-3.2-1.5-3.2-3.2v-47.5
	C163,497.5,164.5,496,166.2,496z"/>
<path class="st0" d="M265.2,496h83.5c1.8,0,3.2,1.5,3.2,3.2v47.5c0,1.8-1.5,3.2-3.2,3.2h-83.5c-1.8,0-3.2-1.5-3.2-3.2v-47.5
	C262,497.5,263.5,496,265.2,496z"/>
<path class="st0" d="M364.2,496h83.5c1.8,0,3.2,1.5,3.2,3.2v47.5c0,1.8-1.5,3.2-3.2,3.2h-83.5c-1.8,0-3.2-1.5-3.2-3.2v-47.5
	C361,497.5,362.5,496,364.2,496z"/>
<path class="st0" d="M463.2,496h83.5c1.8,0,3.2,1.5,3.2,3.2v47.5c0,1.8-1.5,3.2-3.2,3.2h-83.5c-1.8,0-3.2-1.5-3.2-3.2v-47.5
	C460,497.5,461.5,496,463.2,496z"/>
<path class="st0" d="M67.2,559h83.5c1.8,0,3.2,1.5,3.2,3.2v47.5c0,1.8-1.5,3.2-3.2,3.2H67.2c-1.8,0-3.2-1.5-3.2-3.2v-47.5
	C64,560.5,65.5,559,67.2,559z"/>
<path class="st0" d="M166.2,559h83.5c1.8,0,3.2,1.5,3.2,3.2v47.5c0,1.8-1.5,3.2-3.2,3.2h-83.5c-1.8,0-3.2-1.5-3.2-3.2v-47.5
	C163,560.5,164.5,559,166.2,559z"/>
<path class="st0" d="M265.2,559h83.5c1.8,0,3.2,1.5,3.2,3.2v47.5c0,1.8-1.5,3.2-3.2,3.2h-83.5c-1.8,0-3.2-1.5-3.2-3.2v-47.5
	C262,560.5,263.5,559,265.2,559z"/>
<path class="st0" d="M364.2,559h83.5c1.8,0,3.2,1.5,3.2,3.2v47.5c0,1.8-1.5,3.2-3.2,3.2h-83.5c-1.8,0-3.2-1.5-3.2-3.2v-47.5
	C361,560.5,362.5,559,364.2,559z"/>
<path class="st0" d="M463.2,559h83.5c1.8,0,3.2,1.5,3.2,3.2v47.5c0,1.8-1.5,3.2-3.2,3.2h-83.5c-1.8,0-3.2-1.5-3.2-3.2v-47.5
	C460,560.5,461.5,559,463.2,559z"/>
<path class="st0" d="M67.2,622h83.5c1.8,0,3.2,1.5,3.2,3.2v47.5c0,1.8-1.5,3.2-3.2,3.2H67.2c-1.8,0-3.2-1.5-3.2-3.2v-47.5
	C64,623.5,65.5,622,67.2,622z"/>
<path class="st0" d="M166.2,622h83.5c1.8,0,3.2,1.5,3.2,3.2v47.5c0,1.8-1.5,3.2-3.2,3.2h-83.5c-1.8,0-3.2-1.5-3.2-3.2v-47.5
	C163,623.5,164.5,622,166.2,622z"/>
<path class="st0" d="M265.2,622h83.5c1.8,0,3.2,1.5,3.2,3.2v47.5c0,1.8-1.5,3.2-3.2,3.2h-83.5c-1.8,0-3.2-1.5-3.2-3.2v-47.5
	C262,623.5,263.5,622,265.2,622z"/>
<path class="st0" d="M364.2,622h83.5c1.8,0,3.2,1.5,3.2,3.2v47.5c0,1.8-1.5,3.2-3.2,3.2h-83.5c-1.8,0-3.2-1.5-3.2-3.2v-47.5
	C361,623.5,362.5,622,364.2,622z"/>
<path class="st0" d="M463.2,622h83.5c1.8,0,3.2,1.5,3.2,3.2v47.5c0,1.8-1.5,3.2-3.2,3.2h-83.5c-1.8,0-3.2-1.5-3.2-3.2v-47.5
	C460,623.5,461.5,622,463.2,622z"/>
<path class="st0" d="M67.2,685h83.5c1.8,0,3.2,1.5,3.2,3.2v47.5c0,1.8-1.5,3.2-3.2,3.2H67.2c-1.8,0-3.2-1.5-3.2-3.2v-47.5
	C64,686.5,65.5,685,67.2,685z"/>
<path class="st0" d="M166.2,685h83.5c1.8,0,3.2,1.5,3.2,3.2v47.5c0,1.8-1.5,3.2-3.2,3.2h-83.5c-1.8,0-3.2-1.5-3.2-3.2v-47.5
	C163,686.5,164.5,685,166.2,685z"/>
<path class="st0" d="M265.2,685h83.5c1.8,0,3.2,1.5,3.2,3.2v47.5c0,1.8-1.5,3.2-3.2,3.2h-83.5c-1.8,0-3.2-1.5-3.2-3.2v-47.5
	C262,686.5,263.5,685,265.2,685z"/>
<path class="st0" d="M364.2,685h83.5c1.8,0,3.2,1.5,3.2,3.2v47.5c0,1.8-1.5,3.2-3.2,3.2h-83.5c-1.8,0-3.2-1.5-3.2-3.2v-47.5
	C361,686.5,362.5,685,364.2,685z"/>
<path class="st0" d="M463.2,685h83.5c1.8,0,3.2,1.5,3.2,3.2v47.5c0,1.8-1.5,3.2-3.2,3.2h-83.5c-1.8,0-3.2-1.5-3.2-3.2v-47.5
	C460,686.5,461.5,685,463.2,685z"/>
<rect x="1" y="1" class="st0" width="612" height="792"/>
</svg>
