<?xml version="1.0" encoding="utf-8"?>
<!-- Generator: Adobe Illustrator 20.1.0, SVG Export Plug-In . SVG Version: 6.00 Build 0)  -->
<svg version="1.1" id="Layer_1" xmlns="http://www.w3.org/2000/svg" xmlns:xlink="http://www.w3.org/1999/xlink" x="0px" y="0px"
	 viewBox="0 0 612 792" style="enable-background:new 0 0 612 792;" xml:space="preserve">
<style type="text/css">
	.st0{fill:none;stroke:#000000;stroke-width:2;}
</style>
<g>
	<rect x="18" y="22.5" class="st0" width="72" height="18"/>
	<rect x="18" y="49.5" class="st0" width="72" height="18"/>
	<rect x="18" y="76.5" class="st0" width="72" height="18"/>
	<rect x="18" y="103.5" class="st0" width="72" height="18"/>
	<rect x="18" y="130.5" class="st0" width="72" height="18"/>
	<rect x="18" y="157.5" class="st0" width="72" height="18"/>
	<rect x="18" y="184.5" class="st0" width="72" height="18"/>
	<rect x="18" y="211.5" class="st0" width="72" height="18"/>
	<rect x="18" y="238.5" class="st0" width="72" height="18"/>
	<rect x="18" y="265.5" class="st0" width="72" height="18"/>
	<rect x="18" y="292.5" class="st0" width="72" height="18"/>
	<rect x="18" y="319.5" class="st0" width="72" height="18"/>
	<rect x="18" y="346.5" class="st0" width="72" height="18"/>
	<rect x="18" y="373.5" class="st0" width="72" height="18"/>
	<rect x="18" y="400.5" class="st0" width="72" height="18"/>
	<rect x="18" y="427.5" class="st0" width="72" height="18"/>
	<rect x="18" y="454.5" class="st0" width="72" height="18"/>
	<rect x="18" y="481.5" class="st0" width="72" height="18"/>
	<rect x="18" y="508.5" class="st0" width="72" height="18"/>
	<rect x="18" y="535.5" class="st0" width="72" height="18"/>
	<rect x="18" y="562.5" class="st0" width="72" height="18"/>
	<rect x="18" y="589.5" class="st0" width="72" height="18"/>
	<rect x="18" y="616.5" class="st0" width="72" height="18"/>
	<rect x="18" y="643.5" class="st0" width="72" height="18"/>
	<rect x="18" y="670.5" class="st0" width="72" height="18"/>
	<rect x="18" y="697.5" class="st0" width="72" height="18"/>
	<rect x="18" y="724.5" class="st0" width="72" height="18"/>
	<rect x="18" y="751.5" class="st0" width="72" height="18"/>
	<rect x="522" y="22.5" class="st0" width="72" height="18"/>
	<rect x="522" y="49.5" class="st0" width="72" height="18"/>
	<rect x="522" y="76.5" class="st0" width="72" height="18"/>
	<rect x="522" y="103.5" class="st0" width="72" height="18"/>
	<rect x="522" y="130.5" class="st0" width="72" height="18"/>
	<rect x="522" y="157.5" class="st0" width="72" height="18"/>
	<rect x="522" y="184.5" class="st0" width="72" height="18"/>
	<rect x="522" y="211.5" class="st0" width="72" height="18"/>
	<rect x="522" y="238.5" class="st0" width="72" height="18"/>
	<rect x="522" y="265.5" class="st0" width="72" height="18"/>
	<rect x="522" y="292.5" class="st0" width="72" height="18"/>
	<rect x="522" y="319.5" class="st0" width="72" height="18"/>
	<rect x="522" y="346.5" class="st0" width="72" height="18"/>
	<rect x="522" y="373.5" class="st0" width="72" height="18"/>
	<rect x="522" y="400.5" class="st0" width="72" height="18"/>
	<rect x="522" y="427.5" class="st0" width="72" height="18"/>
	<rect x="522" y="454.5" class="st0" width="72" height="18"/>
	<rect x="522" y="481.5" class="st0" width="72" height="18"/>
	<rect x="522" y="508.5" class="st0" width="72" height="18"/>
	<rect x="522" y="535.5" class="st0" width="72" height="18"/>
	<rect x="522" y="562.5" class="st0" width="72" height="18"/>
	<rect x="522" y="589.5" class="st0" width="72" height="18"/>
	<rect x="522" y="616.5" class="st0" width="72" height="18"/>
	<rect x="522" y="643.5" class="st0" width="72" height="18"/>
	<rect x="522" y="670.5" class="st0" width="72" height="18"/>
	<rect x="522" y="697.5" class="st0" width="72" height="18"/>
	<rect x="522" y="724.5" class="st0" width="72" height="18"/>
	<rect x="522" y="751.5" class="st0" width="72" height="18"/>
	<rect x="102" y="22.5" class="st0" width="72" height="18"/>
	<rect x="102" y="49.5" class="st0" width="72" height="18"/>
	<rect x="102" y="76.5" class="st0" width="72" height="18"/>
	<rect x="102" y="103.5" class="st0" width="72" height="18"/>
	<rect x="102" y="130.5" class="st0" width="72" height="18"/>
	<rect x="102" y="157.5" class="st0" width="72" height="18"/>
	<rect x="102" y="184.5" class="st0" width="72" height="18"/>
	<rect x="102" y="211.5" class="st0" width="72" height="18"/>
	<rect x="102" y="238.5" class="st0" width="72" height="18"/>
	<rect x="102" y="265.5" class="st0" width="72" height="18"/>
	<rect x="102" y="292.5" class="st0" width="72" height="18"/>
	<rect x="102" y="319.5" class="st0" width="72" height="18"/>
	<rect x="102" y="346.5" class="st0" width="72" height="18"/>
	<rect x="102" y="373.5" class="st0" width="72" height="18"/>
	<rect x="102" y="400.5" class="st0" width="72" height="18"/>
	<rect x="102" y="427.5" class="st0" width="72" height="18"/>
	<rect x="102" y="454.5" class="st0" width="72" height="18"/>
	<rect x="102" y="481.5" class="st0" width="72" height="18"/>
	<rect x="102" y="508.5" class="st0" width="72" height="18"/>
	<rect x="102" y="535.5" class="st0" width="72" height="18"/>
	<rect x="102" y="562.5" class="st0" width="72" height="18"/>
	<rect x="102" y="589.5" class="st0" width="72" height="18"/>
	<rect x="102" y="616.5" class="st0" width="72" height="18"/>
	<rect x="102" y="643.5" class="st0" width="72" height="18"/>
	<rect x="102" y="670.5" class="st0" width="72" height="18"/>
	<rect x="102" y="697.5" class="st0" width="72" height="18"/>
	<rect x="102" y="724.5" class="st0" width="72" height="18"/>
	<rect x="102" y="751.5" class="st0" width="72" height="18"/>
	<rect x="186" y="22.5" class="st0" width="72" height="18"/>
	<rect x="186" y="49.5" class="st0" width="72" height="18"/>
	<rect x="186" y="76.5" class="st0" width="72" height="18"/>
	<rect x="186" y="103.5" class="st0" width="72" height="18"/>
	<rect x="186" y="130.5" class="st0" width="72" height="18"/>
	<rect x="186" y="157.5" class="st0" width="72" height="18"/>
	<rect x="186" y="184.5" class="st0" width="72" height="18"/>
	<rect x="186" y="211.5" class="st0" width="72" height="18"/>
	<rect x="186" y="238.5" class="st0" width="72" height="18"/>
	<rect x="186" y="265.5" class="st0" width="72" height="18"/>
	<rect x="186" y="292.5" class="st0" width="72" height="18"/>
	<rect x="186" y="319.5" class="st0" width="72" height="18"/>
	<rect x="186" y="346.5" class="st0" width="72" height="18"/>
	<rect x="186" y="373.5" class="st0" width="72" height="18"/>
	<rect x="186" y="400.5" class="st0" width="72" height="18"/>
	<rect x="186" y="427.5" class="st0" width="72" height="18"/>
	<rect x="186" y="454.5" class="st0" width="72" height="18"/>
	<rect x="186" y="481.5" class="st0" width="72" height="18"/>
	<rect x="186" y="508.5" class="st0" width="72" height="18"/>
	<rect x="186" y="535.5" class="st0" width="72" height="18"/>
	<rect x="186" y="562.5" class="st0" width="72" height="18"/>
	<rect x="186" y="589.5" class="st0" width="72" height="18"/>
	<rect x="186" y="616.5" class="st0" width="72" height="18"/>
	<rect x="186" y="643.5" class="st0" width="72" height="18"/>
	<rect x="186" y="670.5" class="st0" width="72" height="18"/>
	<rect x="186" y="697.5" class="st0" width="72" height="18"/>
	<rect x="186" y="724.5" class="st0" width="72" height="18"/>
	<rect x="186" y="751.5" class="st0" width="72" height="18"/>
	<rect x="270" y="22.5" class="st0" width="72" height="18"/>
	<rect x="270" y="49.5" class="st0" width="72" height="18"/>
	<rect x="270" y="76.5" class="st0" width="72" height="18"/>
	<rect x="270" y="103.5" class="st0" width="72" height="18"/>
	<rect x="270" y="130.5" class="st0" width="72" height="18"/>
	<rect x="270" y="157.5" class="st0" width="72" height="18"/>
	<rect x="270" y="184.5" class="st0" width="72" height="18"/>
	<rect x="270" y="211.5" class="st0" width="72" height="18"/>
	<rect x="270" y="238.5" class="st0" width="72" height="18"/>
	<rect x="270" y="265.5" class="st0" width="72" height="18"/>
	<rect x="270" y="292.5" class="st0" width="72" height="18"/>
	<rect x="270" y="319.5" class="st0" width="72" height="18"/>
	<rect x="270" y="346.5" class="st0" width="72" height="18"/>
	<rect x="270" y="373.5" class="st0" width="72" height="18"/>
	<rect x="270" y="400.5" class="st0" width="72" height="18"/>
	<rect x="270" y="427.5" class="st0" width="72" height="18"/>
	<rect x="270" y="454.5" class="st0" width="72" height="18"/>
	<rect x="270" y="481.5" class="st0" width="72" height="18"/>
	<rect x="270" y="508.5" class="st0" width="72" height="18"/>
	<rect x="270" y="535.5" class="st0" width="72" height="18"/>
	<rect x="270" y="562.5" class="st0" width="72" height="18"/>
	<rect x="270" y="589.5" class="st0" width="72" height="18"/>
	<rect x="270" y="616.5" class="st0" width="72" height="18"/>
	<rect x="270" y="643.5" class="st0" width="72" height="18"/>
	<rect x="270" y="670.5" class="st0" width="72" height="18"/>
	<rect x="270" y="697.5" class="st0" width="72" height="18"/>
	<rect x="270" y="724.5" class="st0" width="72" height="18"/>
	<rect x="270" y="751.5" class="st0" width="72" height="18"/>
	<rect x="354" y="22.5" class="st0" width="72" height="18"/>
	<rect x="354" y="49.5" class="st0" width="72" height="18"/>
	<rect x="354" y="76.5" class="st0" width="72" height="18"/>
	<rect x="354" y="103.5" class="st0" width="72" height="18"/>
	<rect x="354" y="130.5" class="st0" width="72" height="18"/>
	<rect x="354" y="157.5" class="st0" width="72" height="18"/>
	<rect x="354" y="184.5" class="st0" width="72" height="18"/>
	<rect x="354" y="211.5" class="st0" width="72" height="18"/>
	<rect x="354" y="238.5" class="st0" width="72" height="18"/>
	<rect x="354" y="265.5" class="st0" width="72" height="18"/>
	<rect x="354" y="292.5" class="st0" width="72" height="18"/>
	<rect x="354" y="319.5" class="st0" width="72" height="18"/>
	<rect x="354" y="346.5" class="st0" width="72" height="18"/>
	<rect x="354" y="373.5" class="st0" width="72" height="18"/>
	<rect x="354" y="400.5" class="st0" width="72" height="18"/>
	<rect x="354" y="427.5" class="st0" width="72" height="18"/>
	<rect x="354" y="454.5" class="st0" width="72" height="18"/>
	<rect x="354" y="481.5" class="st0" width="72" height="18"/>
	<rect x="354" y="508.5" class="st0" width="72" height="18"/>
	<rect x="354" y="535.5" class="st0" width="72" height="18"/>
	<rect x="354" y="562.5" class="st0" width="72" height="18"/>
	<rect x="354" y="589.5" class="st0" width="72" height="18"/>
	<rect x="354" y="616.5" class="st0" width="72" height="18"/>
	<rect x="354" y="643.5" class="st0" width="72" height="18"/>
	<rect x="354" y="670.5" class="st0" width="72" height="18"/>
	<rect x="354" y="697.5" class="st0" width="72" height="18"/>
	<rect x="354" y="724.5" class="st0" width="72" height="18"/>
	<rect x="354" y="751.5" class="st0" width="72" height="18"/>
	<rect x="438" y="22.5" class="st0" width="72" height="18"/>
	<rect x="438" y="49.5" class="st0" width="72" height="18"/>
	<rect x="438" y="76.5" class="st0" width="72" height="18"/>
	<rect x="438" y="103.5" class="st0" width="72" height="18"/>
	<rect x="438" y="130.5" class="st0" width="72" height="18"/>
	<rect x="438" y="157.5" class="st0" width="72" height="18"/>
	<rect x="438" y="184.5" class="st0" width="72" height="18"/>
	<rect x="438" y="211.5" class="st0" width="72" height="18"/>
	<rect x="438" y="238.5" class="st0" width="72" height="18"/>
	<rect x="438" y="265.5" class="st0" width="72" height="18"/>
	<rect x="438" y="292.5" class="st0" width="72" height="18"/>
	<rect x="438" y="319.5" class="st0" width="72" height="18"/>
	<rect x="438" y="346.5" class="st0" width="72" height="18"/>
	<rect x="438" y="373.5" class="st0" width="72" height="18"/>
	<rect x="438" y="400.5" class="st0" width="72" height="18"/>
	<rect x="438" y="427.5" class="st0" width="72" height="18"/>
	<rect x="438" y="454.5" class="st0" width="72" height="18"/>
	<rect x="438" y="481.5" class="st0" width="72" height="18"/>
	<rect x="438" y="508.5" class="st0" width="72" height="18"/>
	<rect x="438" y="535.5" class="st0" width="72" height="18"/>
	<rect x="438" y="562.5" class="st0" width="72" height="18"/>
	<rect x="438" y="589.5" class="st0" width="72" height="18"/>
	<rect x="438" y="616.5" class="st0" width="72" height="18"/>
	<rect x="438" y="643.5" class="st0" width="72" height="18"/>
	<rect x="438" y="670.5" class="st0" width="72" height="18"/>
	<rect x="438" y="697.5" class="st0" width="72" height="18"/>
	<rect x="438" y="724.5" class="st0" width="72" height="18"/>
	<rect x="438" y="751.5" class="st0" width="72" height="18"/>
	<rect class="st0" width="612" height="792"/>
</g>
</svg>
