<?xml version="1.0" encoding="utf-8"?>
<!-- Generator: Adobe Illustrator 20.1.0, SVG Export Plug-In . SVG Version: 6.00 Build 0)  -->
<svg version="1.1" id="Layer_1" xmlns="http://www.w3.org/2000/svg" xmlns:xlink="http://www.w3.org/1999/xlink" x="0px" y="0px"
	 viewBox="0 0 612 792" style="enable-background:new 0 0 612 792;" xml:space="preserve">
<style type="text/css">
	.st0{fill:none;stroke:#000000;stroke-width:2;}
</style>
<g>
	<path class="st0" d="M273.2,79c3.7,0,6.8,3,6.8,6.8v292.5c0,3.7-3,6.8-6.8,6.8H43.8c-3.7,0-6.8-3-6.8-6.8V85.7c0-3.7,3-6.8,6.8-6.8
		h229.4V79z"/>
	<path class="st0" d="M273.3,409c3.7,0,6.8,3,6.8,6.8v292.5c0,3.7-3,6.8-6.8,6.8H43.8c-3.7,0-6.8-3-6.8-6.8V415.8
		c0-3.7,3-6.8,6.8-6.8H273.3z"/>
</g>
<g>
	<path class="st0" d="M570.2,79c3.7,0,6.8,3,6.8,6.8v292.5c0,3.7-3,6.8-6.8,6.8H340.8c-3.7,0-6.8-3-6.8-6.8V85.7
		c0-3.7,3-6.8,6.8-6.8h229.4V79z"/>
	<path class="st0" d="M570.3,409c3.7,0,6.8,3,6.8,6.8v292.5c0,3.7-3,6.8-6.8,6.8H340.8c-3.7,0-6.8-3-6.8-6.8V415.8
		c0-3.7,3-6.8,6.8-6.8H570.3z"/>
</g>
<rect class="st0" width="612" height="792"/>
</svg>
