<?xml version="1.0" encoding="utf-8"?>
<!-- Generator: Adobe Illustrator 23.0.2, SVG Export Plug-In . SVG Version: 6.00 Build 0)  -->
<svg version="1.1" id="Layer_1" xmlns="http://www.w3.org/2000/svg" xmlns:xlink="http://www.w3.org/1999/xlink" x="0px" y="0px"
	 viewBox="0 0 612 792" style="enable-background:new 0 0 612 792;" xml:space="preserve">
<style type="text/css">
	.st0{fill:none;stroke:#000000;stroke-width:2;stroke-miterlimit:10;}
</style>
<g>
	<g>
		
			<rect x="-28.6" y="79.2" transform="matrix(-1.836970e-16 1 -1 -1.836970e-16 212.5496 53.846)" class="st0" width="216" height="108"/>
		
			<rect x="122.9" y="79.2" transform="matrix(-1.836970e-16 1 -1 -1.836970e-16 364.053 -97.6574)" class="st0" width="216" height="108"/>
		
			<rect x="273.8" y="79.2" transform="matrix(-1.836970e-16 1 -1 -1.836970e-16 514.9495 -248.5539)" class="st0" width="216" height="108"/>
		
			<rect x="424.6" y="79.2" transform="matrix(-1.836970e-16 1 -1 -1.836970e-16 665.846 -399.4504)" class="st0" width="216" height="108"/>
	</g>
	<g>
		
			<rect x="-28.6" y="342" transform="matrix(-1.836970e-16 1 -1 -1.836970e-16 475.3518 316.6482)" class="st0" width="216" height="108"/>
		
			<rect x="122.9" y="342" transform="matrix(-1.836970e-16 1 -1 -1.836970e-16 626.8552 165.1448)" class="st0" width="216" height="108"/>
		
			<rect x="273.8" y="342" transform="matrix(-1.836970e-16 1 -1 -1.836970e-16 777.7517 14.2483)" class="st0" width="216" height="108"/>
		
			<rect x="424.6" y="342" transform="matrix(-1.836970e-16 1 -1 -1.836970e-16 928.6482 -136.6482)" class="st0" width="216" height="108"/>
	</g>
	<g>
		
			<rect x="-28.6" y="604.8" transform="matrix(-1.836970e-16 1 -1 -1.836970e-16 738.154 579.4504)" class="st0" width="216" height="108"/>
		
			<rect x="122.9" y="604.8" transform="matrix(-1.836970e-16 1 -1 -1.836970e-16 889.6574 427.947)" class="st0" width="216" height="108"/>
		
			<rect x="273.8" y="604.8" transform="matrix(-1.836970e-16 1 -1 -1.836970e-16 1040.5538 277.0505)" class="st0" width="216" height="108"/>
		
			<rect x="424.6" y="604.8" transform="matrix(-1.836970e-16 1 -1 -1.836970e-16 1191.4503 126.154)" class="st0" width="216" height="108"/>
	</g>
</g>
<rect class="st0" width="612" height="792"/>
</svg>
