<?xml version="1.0" encoding="utf-8"?>
<!-- Generator: Adobe Illustrator 24.2.1, SVG Export Plug-In . SVG Version: 6.00 Build 0)  -->
<svg version="1.1" id="Layer_1" xmlns="http://www.w3.org/2000/svg" xmlns:xlink="http://www.w3.org/1999/xlink" x="0px" y="0px"
	 viewBox="0 0 612 792" style="enable-background:new 0 0 612 792;" xml:space="preserve">
<style type="text/css">
	.st0{fill:none;stroke:#231F20;stroke-miterlimit:10;}
</style>
<g>
	<rect x="40.5" y="90" transform="matrix(-1 -1.224647e-16 1.224647e-16 -1 207 288)" class="st0" width="126" height="108"/>
	<rect x="175.5" y="90" transform="matrix(-1 -1.224647e-16 1.224647e-16 -1 477 288)" class="st0" width="126" height="108"/>
	<rect x="310.5" y="90" transform="matrix(-1 -1.224647e-16 1.224647e-16 -1 747 288)" class="st0" width="126" height="108"/>
	<rect x="445.5" y="90" transform="matrix(-1 -1.224647e-16 1.224647e-16 -1 1017 288)" class="st0" width="126" height="108"/>
	<rect x="40.5" y="216" transform="matrix(-1 -1.224647e-16 1.224647e-16 -1 207 540)" class="st0" width="126" height="108"/>
	<rect x="175.5" y="216" transform="matrix(-1 -1.224647e-16 1.224647e-16 -1 477 540)" class="st0" width="126" height="108"/>
	<rect x="310.5" y="216" transform="matrix(-1 -1.224647e-16 1.224647e-16 -1 747 540)" class="st0" width="126" height="108"/>
	<rect x="445.5" y="216" transform="matrix(-1 -1.224647e-16 1.224647e-16 -1 1017 540)" class="st0" width="126" height="108"/>
	<rect x="40.5" y="342" transform="matrix(-1 -1.224647e-16 1.224647e-16 -1 207 792)" class="st0" width="126" height="108"/>
	<rect x="175.5" y="342" transform="matrix(-1 -1.224647e-16 1.224647e-16 -1 477 792)" class="st0" width="126" height="108"/>
	<rect x="310.5" y="342" transform="matrix(-1 -1.224647e-16 1.224647e-16 -1 747 792)" class="st0" width="126" height="108"/>
	<rect x="445.5" y="342" transform="matrix(-1 -1.224647e-16 1.224647e-16 -1 1017 792)" class="st0" width="126" height="108"/>
	<rect x="40.5" y="468" transform="matrix(-1 -1.224647e-16 1.224647e-16 -1 207 1044)" class="st0" width="126" height="108"/>
	<rect x="175.5" y="468" transform="matrix(-1 -1.224647e-16 1.224647e-16 -1 477 1044)" class="st0" width="126" height="108"/>
	<rect x="310.5" y="468" transform="matrix(-1 -1.224647e-16 1.224647e-16 -1 747 1044)" class="st0" width="126" height="108"/>
	<rect x="445.5" y="468" transform="matrix(-1 -1.224647e-16 1.224647e-16 -1 1017 1044)" class="st0" width="126" height="108"/>
	<rect x="40.5" y="594" transform="matrix(-1 -1.224647e-16 1.224647e-16 -1 207 1296)" class="st0" width="126" height="108"/>
	<rect x="175.5" y="594" transform="matrix(-1 -1.224647e-16 1.224647e-16 -1 477 1296)" class="st0" width="126" height="108"/>
	<rect x="310.5" y="594" transform="matrix(-1 -1.224647e-16 1.224647e-16 -1 747 1296)" class="st0" width="126" height="108"/>
	<rect x="445.5" y="594" transform="matrix(-1 -1.224647e-16 1.224647e-16 -1 1017 1296)" class="st0" width="126" height="108"/>
</g>
</svg>
