<?xml version="1.0" encoding="utf-8"?>
<!-- Generator: Adobe Illustrator 24.0.0, SVG Export Plug-In . SVG Version: 6.00 Build 0)  -->
<svg version="1.1" id="Layer_1" xmlns="http://www.w3.org/2000/svg" xmlns:xlink="http://www.w3.org/1999/xlink" x="0px" y="0px"
	 viewBox="0 0 612 792" style="enable-background:new 0 0 612 792;" xml:space="preserve">
<style type="text/css">
	.st0{fill:none;stroke:#000000;stroke-width:2.016;stroke-miterlimit:10;}
</style>
<g>
	<g>
		<path class="st0" d="M117,45c39.76,0,72,32.24,72,72c0,39.77-32.24,72-72,72s-72-32.23-72-72C45,77.24,77.24,45,117,45"/>
		<path class="st0" d="M306,45c39.76,0,72,32.24,72,72c0,39.77-32.24,72-72,72s-72-32.23-72-72C234,77.24,266.23,45,306,45"/>
		<path class="st0" d="M495,45c39.76,0,72,32.24,72,72c0,39.77-32.24,72-72,72c-39.77,0-72-32.23-72-72C423,77.24,455.23,45,495,45"
			/>
		<path class="st0" d="M117,230.95c39.76,0,72,32.24,72,72s-32.24,72-72,72s-72-32.24-72-72S77.24,230.95,117,230.95"/>
		<path class="st0" d="M306,230.95c39.76,0,72,32.24,72,72s-32.24,72-72,72s-72-32.24-72-72S266.23,230.95,306,230.95"/>
		<path class="st0" d="M495,230.95c39.76,0,72,32.24,72,72s-32.24,72-72,72c-39.77,0-72-32.24-72-72S455.23,230.95,495,230.95"/>
		<path class="st0" d="M117,416.95c39.76,0,72,32.24,72,72s-32.24,72-72,72s-72-32.23-72-72S77.24,416.95,117,416.95"/>
		<path class="st0" d="M306,416.95c39.76,0,72,32.24,72,72s-32.24,72-72,72s-72-32.23-72-72S266.23,416.95,306,416.95"/>
		<path class="st0" d="M495,416.95c39.76,0,72,32.24,72,72s-32.24,72-72,72c-39.77,0-72-32.23-72-72S455.23,416.95,495,416.95"/>
		<path class="st0" d="M117,602.95c39.76,0,72,32.23,72,72s-32.24,72-72,72s-72-32.23-72-72S77.24,602.95,117,602.95"/>
		<path class="st0" d="M306,602.95c39.76,0,72,32.23,72,72s-32.24,72-72,72s-72-32.23-72-72S266.23,602.95,306,602.95"/>
		<path class="st0" d="M495,602.95c39.76,0,72,32.23,72,72s-32.24,72-72,72c-39.77,0-72-32.23-72-72S455.23,602.95,495,602.95"/>
	</g>
</g>
<g>
	<rect id="SVGID_1_" class="st0" width="612" height="792"/>
</g>
</svg>
