<?xml version="1.0" encoding="utf-8"?>
<!-- Generator: Adobe Illustrator 24.3.0, SVG Export Plug-In . SVG Version: 6.00 Build 0)  -->
<svg version="1.1" id="Layer_1" xmlns="http://www.w3.org/2000/svg" xmlns:xlink="http://www.w3.org/1999/xlink" x="0px" y="0px"
	 viewBox="0 0 612 792" style="enable-background:new 0 0 612 792;" xml:space="preserve">
<style type="text/css">
	.st0{fill:none;stroke:#000000;stroke-width:0.9719;}
	.st1{fill:none;stroke:#000000;stroke-miterlimit:10;}
</style>
<rect x="0.5" y="0.5" class="st0" width="612" height="792"/>
<g>
	<g>
		<rect x="14" y="68" transform="matrix(6.123234e-17 -1 1 6.123234e-17 -27 189.9998)" class="st1" width="135" height="81"/>
		<rect x="104" y="68" transform="matrix(6.123234e-17 -1 1 6.123234e-17 63 279.9998)" class="st1" width="135" height="81"/>
		<rect x="194" y="68" transform="matrix(6.123234e-17 -1 1 6.123234e-17 153 369.9998)" class="st1" width="135" height="81"/>
		<rect x="284" y="68" transform="matrix(6.123234e-17 -1 1 6.123234e-17 243 459.9998)" class="st1" width="135" height="81"/>
		<rect x="374" y="68" transform="matrix(6.123234e-17 -1 1 6.123234e-17 333 549.9998)" class="st1" width="135" height="81"/>
		<rect x="464" y="68" transform="matrix(6.123234e-17 -1 1 6.123234e-17 423 639.9998)" class="st1" width="135" height="81"/>
	</g>
	<g>
		<rect x="14" y="212" transform="matrix(6.123234e-17 -1 1 6.123234e-17 -171 333.9998)" class="st1" width="135" height="81"/>
		<rect x="104" y="212" transform="matrix(6.123234e-17 -1 1 6.123234e-17 -81 423.9998)" class="st1" width="135" height="81"/>
		<rect x="194" y="212" transform="matrix(6.123234e-17 -1 1 6.123234e-17 9 513.9998)" class="st1" width="135" height="81"/>
		<rect x="284" y="212" transform="matrix(6.123234e-17 -1 1 6.123234e-17 99 603.9998)" class="st1" width="135" height="81"/>
		<rect x="374" y="212" transform="matrix(6.123234e-17 -1 1 6.123234e-17 189 693.9998)" class="st1" width="135" height="81"/>
		<rect x="464" y="212" transform="matrix(6.123234e-17 -1 1 6.123234e-17 279 783.9998)" class="st1" width="135" height="81"/>
	</g>
	<g>
		<rect x="14" y="356" transform="matrix(6.123234e-17 -1 1 6.123234e-17 -315 477.9998)" class="st1" width="135" height="81"/>
		<rect x="104" y="356" transform="matrix(6.123234e-17 -1 1 6.123234e-17 -225 567.9998)" class="st1" width="135" height="81"/>
		<rect x="194" y="356" transform="matrix(6.123234e-17 -1 1 6.123234e-17 -135 657.9998)" class="st1" width="135" height="81"/>
		<rect x="284" y="356" transform="matrix(6.123234e-17 -1 1 6.123234e-17 -45 747.9998)" class="st1" width="135" height="81"/>
		<rect x="374" y="356" transform="matrix(6.123234e-17 -1 1 6.123234e-17 45 837.9998)" class="st1" width="135" height="81"/>
		<rect x="464" y="356" transform="matrix(6.123234e-17 -1 1 6.123234e-17 135 927.9998)" class="st1" width="135" height="81"/>
	</g>
	<g>
		<rect x="14" y="500" transform="matrix(6.123234e-17 -1 1 6.123234e-17 -459 621.9998)" class="st1" width="135" height="81"/>
		<rect x="104" y="500" transform="matrix(6.123234e-17 -1 1 6.123234e-17 -369 711.9998)" class="st1" width="135" height="81"/>
		<rect x="194" y="500" transform="matrix(6.123234e-17 -1 1 6.123234e-17 -279 801.9998)" class="st1" width="135" height="81"/>
		<rect x="284" y="500" transform="matrix(6.123234e-17 -1 1 6.123234e-17 -189 891.9998)" class="st1" width="135" height="81"/>
		<rect x="374" y="500" transform="matrix(6.123234e-17 -1 1 6.123234e-17 -99 981.9998)" class="st1" width="135" height="81"/>
		<rect x="464" y="500" transform="matrix(6.123234e-17 -1 1 6.123234e-17 -9 1071.9999)" class="st1" width="135" height="81"/>
	</g>
	<g>
		
			<rect x="14" y="644" transform="matrix(6.123234e-17 -1 1 6.123234e-17 -602.9999 765.9998)" class="st1" width="135" height="81"/>
		
			<rect x="104" y="644" transform="matrix(6.123234e-17 -1 1 6.123234e-17 -512.9999 855.9998)" class="st1" width="135" height="81"/>
		<rect x="194" y="644" transform="matrix(6.123234e-17 -1 1 6.123234e-17 -423 945.9998)" class="st1" width="135" height="81"/>
		<rect x="284" y="644" transform="matrix(6.123234e-17 -1 1 6.123234e-17 -333 1035.9999)" class="st1" width="135" height="81"/>
		<rect x="374" y="644" transform="matrix(6.123234e-17 -1 1 6.123234e-17 -243 1125.9999)" class="st1" width="135" height="81"/>
		<rect x="464" y="644" transform="matrix(6.123234e-17 -1 1 6.123234e-17 -153 1215.9999)" class="st1" width="135" height="81"/>
	</g>
</g>
</svg>
