<?xml version="1.0" encoding="utf-8"?>
<!-- Generator: Adobe Illustrator 24.0.0, SVG Export Plug-In . SVG Version: 6.00 Build 0)  -->
<svg version="1.1" id="Layer_1" xmlns="http://www.w3.org/2000/svg" xmlns:xlink="http://www.w3.org/1999/xlink" x="0px" y="0px"
	 viewBox="0 0 613 793" style="enable-background:new 0 0 613 793;" xml:space="preserve">
<style type="text/css">
	.st0{fill:none;}
	.st1{fill:none;stroke:#231F20;stroke-width:2.016;stroke-miterlimit:10;}
</style>
<title>SL1502</title>
<rect x="1" y="0.5" class="st0" width="612" height="792"/>
<g>
	<path class="st1" d="M175,72.5c66.27,0,120,32.24,120,72s-53.73,72-120,72s-120-32.23-120-72S108.73,72.5,175,72.5"/>
	<path class="st1" d="M438.95,72.5c66.27,0,120,32.24,120,72s-53.73,72-120,72s-120-32.23-120-72S372.68,72.5,438.95,72.5"/>
	<path class="st1" d="M175,240.5c66.27,0,120,32.24,120,72s-53.73,72-120,72s-120-32.24-120-72S108.73,240.5,175,240.5"/>
	<path class="st1" d="M438.95,240.5c66.27,0,120,32.24,120,72s-53.73,72-120,72s-120-32.24-120-72S372.68,240.5,438.95,240.5"/>
	<path class="st1" d="M175,408.5c66.27,0,120,32.24,120,72s-53.73,72-120,72s-120-32.23-120-72S108.73,408.5,175,408.5"/>
	<path class="st1" d="M438.95,408.5c66.27,0,120,32.24,120,72s-53.73,72-120,72s-120-32.23-120-72S372.68,408.5,438.95,408.5"/>
	<path class="st1" d="M175,576.5c66.27,0,120,32.24,120,72s-53.73,72-120,72s-120-32.23-120-72S108.73,576.5,175,576.5"/>
	<path class="st1" d="M438.95,576.5c66.27,0,120,32.24,120,72s-53.73,72-120,72s-120-32.23-120-72S372.68,576.5,438.95,576.5"/>
</g>
<rect x="0.5" y="0.5" class="st1" width="612" height="792"/>
</svg>
