<?xml version="1.0" encoding="utf-8"?>
<!-- Generator: Adobe Illustrator 26.3.1, SVG Export Plug-In . SVG Version: 6.00 Build 0)  -->
<svg version="1.1" id="Layer_1" xmlns="http://www.w3.org/2000/svg" xmlns:xlink="http://www.w3.org/1999/xlink" x="0px" y="0px"
	 viewBox="0 0 612 792" style="enable-background:new 0 0 612 792;" xml:space="preserve">
<style type="text/css">
	.st0{fill:none;stroke:#000000;stroke-miterlimit:10;}
</style>
<rect class="st0" width="612" height="792"/>
<path class="st0" d="M319.5,630h198c5,0,9,4,9,9v126c0,5-4,9-9,9h-198c-5,0-9-4-9-9V639C310.5,634,314.5,630,319.5,630 M94.5,630
	h198c5,0,9,4,9,9v126c0,5-4,9-9,9h-198c-5,0-9-4-9-9V639C85.5,634,89.5,630,94.5,630 M319.5,477h198c5,0,9,4,9,9v126c0,5-4,9-9,9
	h-198c-5,0-9-4-9-9V486C310.5,481,314.5,477,319.5,477 M94.5,477h198c5,0,9,4,9,9v126c0,5-4,9-9,9h-198c-5,0-9-4-9-9V486
	C85.5,481,89.5,477,94.5,477 M319.5,324h198c5,0,9,4,9,9v126c0,5-4,9-9,9h-198c-5,0-9-4-9-9V333C310.5,328,314.5,324,319.5,324
	 M94.5,324h198c5,0,9,4,9,9v126c0,5-4,9-9,9h-198c-5,0-9-4-9-9V333C85.5,328,89.5,324,94.5,324 M319.5,171h198c5,0,9,4,9,9v126
	c0,5-4,9-9,9h-198c-5,0-9-4-9-9V180C310.5,175,314.5,171,319.5,171 M94.5,171h198c5,0,9,4,9,9v126c0,5-4,9-9,9h-198c-5,0-9-4-9-9
	V180C85.5,175,89.5,171,94.5,171 M319.5,18h198c5,0,9,4,9,9v126c0,5-4,9-9,9h-198c-5,0-9-4-9-9V27C310.5,22,314.5,18,319.5,18
	 M94.5,18h198c5,0,9,4,9,9v126c0,5-4,9-9,9h-198c-5,0-9-4-9-9V27C85.5,22,89.5,18,94.5,18"/>
</svg>
