<?xml version="1.0" encoding="utf-8"?>
<!-- Generator: Adobe Illustrator 26.3.1, SVG Export Plug-In . SVG Version: 6.00 Build 0)  -->
<svg version="1.1" id="Layer_1" xmlns="http://www.w3.org/2000/svg" xmlns:xlink="http://www.w3.org/1999/xlink" x="0px" y="0px"
	 viewBox="0 0 612 792" style="enable-background:new 0 0 612 792;" xml:space="preserve">
<style type="text/css">
	.st0{fill:none;stroke:#000000;stroke-miterlimit:10;}
	.st1{fill:none;stroke:#000000;stroke-width:0.9718;}
</style>
<rect x="0.29" y="0.5" class="st0" width="612" height="792"/>
<rect x="0.5" y="0.5" class="st1" width="612" height="792"/>
<g>
	<g>
		<rect x="261.5" y="-170.5" transform="matrix(6.123234e-17 -1 1 6.123234e-17 225 388)" class="st0" width="90" height="504"/>
	</g>
	<g>
		<rect x="261.5" y="-80.5" transform="matrix(6.123234e-17 -1 1 6.123234e-17 135 478)" class="st0" width="90" height="504"/>
	</g>
	<g>
		<rect x="261.5" y="9.5" transform="matrix(6.123234e-17 -1 1 6.123234e-17 45 568)" class="st0" width="90" height="504"/>
	</g>
	<g>
		<rect x="261.5" y="99.5" transform="matrix(6.123234e-17 -1 1 6.123234e-17 -45 658)" class="st0" width="90" height="504"/>
	</g>
	<g>
		<rect x="261.5" y="189.5" transform="matrix(6.123234e-17 -1 1 6.123234e-17 -135 748)" class="st0" width="90" height="504"/>
	</g>
	<g>
		<rect x="261.5" y="279.5" transform="matrix(6.123234e-17 -1 1 6.123234e-17 -225 838)" class="st0" width="90" height="504"/>
	</g>
	<g>
		<rect x="261.5" y="369.5" transform="matrix(6.123234e-17 -1 1 6.123234e-17 -315 928)" class="st0" width="90" height="504"/>
	</g>
	<g>
		<rect x="261.5" y="459.5" transform="matrix(6.123234e-17 -1 1 6.123234e-17 -405 1018)" class="st0" width="90" height="504"/>
	</g>
</g>
</svg>
