<?xml version="1.0" encoding="utf-8"?>
<!-- Generator: Adobe Illustrator 20.1.0, SVG Export Plug-In . SVG Version: 6.00 Build 0)  -->
<svg version="1.1" id="Layer_1" xmlns="http://www.w3.org/2000/svg" xmlns:xlink="http://www.w3.org/1999/xlink" x="0px" y="0px"
	 viewBox="0 0 612 792" style="enable-background:new 0 0 612 792;" xml:space="preserve">
<style type="text/css">
	.st0{display:none;fill:#F9DFC9;stroke:#F9DFC9;}
	.st1{fill:none;stroke:#000000;stroke-width:2;stroke-miterlimit:10;}
	.st2{display:none;}
	.st3{display:inline;fill:none;}
</style>
<rect x="14" y="99" class="st0" width="583" height="592"/>
<path class="st1" d="M450,398.3c78.1,0,141.8,63.7,141.8,141.8S528.1,681.8,450,681.8S308.3,618.1,308.3,540S371.9,398.3,450,398.3z
	"/>
<path class="st1" d="M450,110.3c78.1,0,141.8,63.7,141.8,141.8c0,78.1-63.7,141.7-141.8,141.7S308.3,330.1,308.3,252
	C308.3,173.9,371.9,110.3,450,110.3z"/>
<path class="st1" d="M162,398.3c78.1,0,141.8,63.7,141.8,141.8c0,78.1-63.7,141.7-141.8,141.7S20.3,618.1,20.3,540
	C20.3,461.9,83.9,398.3,162,398.3z"/>
<path class="st1" d="M162,110.3c78.1,0,141.8,63.7,141.8,141.8c0,78.1-63.7,141.7-141.8,141.7S20.3,330.1,20.3,252
	C20.3,173.9,83.9,110.3,162,110.3z"/>
<g class="st2">
	<circle class="st3" cx="162.4" cy="251.7" r="141.8"/>
	<circle class="st3" cx="162.4" cy="251.7" r="141.8"/>
</g>
<g class="st2">
	<circle class="st3" cx="449.4" cy="251.7" r="141.8"/>
	<circle class="st3" cx="449.4" cy="251.7" r="141.8"/>
</g>
<g class="st2">
	<circle class="st3" cx="162.4" cy="539.7" r="141.8"/>
	<circle class="st3" cx="162.4" cy="539.7" r="141.8"/>
</g>
<g class="st2">
	<circle class="st3" cx="449.4" cy="539.7" r="141.8"/>
	<circle class="st3" cx="449.4" cy="539.7" r="141.8"/>
</g>
<rect class="st1" width="612" height="792"/>
</svg>
