<?xml version="1.0" encoding="utf-8"?>
<!-- Generator: Adobe Illustrator 20.1.0, SVG Export Plug-In . SVG Version: 6.00 Build 0)  -->
<svg version="1.1" id="Layer_1" xmlns="http://www.w3.org/2000/svg" xmlns:xlink="http://www.w3.org/1999/xlink" x="0px" y="0px"
	 viewBox="0 0 612 792" style="enable-background:new 0 0 612 792;" xml:space="preserve">
<style type="text/css">
	.st0{fill:none;stroke:#000000;stroke-width:2;}
</style>
<path class="st0" d="M288,126c0,5-4,9-9,9H36c-5,0-9-4-9-9V45c0-5,4-9,9-9h243c5,0,9,4,9,9V126z"/>
<path class="st0" d="M288,747c0,5-4,9-9,9H36c-5,0-9-4-9-9v-81c0-5,4-9,9-9h243c5,0,9,4,9,9V747z"/>
<path class="st0" d="M288,643.5c0,5-4,9-9,9H36c-5,0-9-4-9-9v-81c0-5,4-9,9-9h243c5,0,9,4,9,9V643.5z"/>
<path class="st0" d="M288,540c0,5-4,9-9,9H36c-5,0-9-4-9-9v-81c0-5,4-9,9-9h243c5,0,9,4,9,9V540z"/>
<path class="st0" d="M288,333c0,5-4,9-9,9H36c-5,0-9-4-9-9v-81c0-5,4-9,9-9h243c5,0,9,4,9,9V333z"/>
<path class="st0" d="M288,436.5c0,5-4,9-9,9H36c-5,0-9-4-9-9v-81c0-5,4-9,9-9h243c5,0,9,4,9,9V436.5z"/>
<path class="st0" d="M288,229.5c0,5-4,9-9,9H36c-5,0-9-4-9-9v-81c0-5,4-9,9-9h243c5,0,9,4,9,9V229.5z"/>
<g>
	<path class="st0" d="M585,126c0,5-4,9-9,9H333c-5,0-9-4-9-9V45c0-5,4-9,9-9h243c5,0,9,4,9,9V126z"/>
	<path class="st0" d="M585,747c0,5-4,9-9,9H333c-5,0-9-4-9-9v-81c0-5,4-9,9-9h243c5,0,9,4,9,9V747z"/>
	<path class="st0" d="M585,643.5c0,5-4,9-9,9H333c-5,0-9-4-9-9v-81c0-5,4-9,9-9h243c5,0,9,4,9,9V643.5z"/>
	<path class="st0" d="M585,540c0,5-4,9-9,9H333c-5,0-9-4-9-9v-81c0-5,4-9,9-9h243c5,0,9,4,9,9V540z"/>
	<path class="st0" d="M585,333c0,5-4,9-9,9H333c-5,0-9-4-9-9v-81c0-5,4-9,9-9h243c5,0,9,4,9,9V333z"/>
	<path class="st0" d="M585,436.5c0,5-4,9-9,9H333c-5,0-9-4-9-9v-81c0-5,4-9,9-9h243c5,0,9,4,9,9V436.5z"/>
	<path class="st0" d="M585,229.5c0,5-4,9-9,9H333c-5,0-9-4-9-9v-81c0-5,4-9,9-9h243c5,0,9,4,9,9V229.5z"/>
</g>
<rect x="0" class="st0" width="612" height="792"/>
</svg>
