<?xml version="1.0" encoding="utf-8"?>
<!-- Generator: Adobe Illustrator 20.1.0, SVG Export Plug-In . SVG Version: 6.00 Build 0)  -->
<svg version="1.1" id="Layer_1" xmlns="http://www.w3.org/2000/svg" xmlns:xlink="http://www.w3.org/1999/xlink" x="0px" y="0px"
	 viewBox="0 0 612 792" style="enable-background:new 0 0 612 792;" xml:space="preserve">
<style type="text/css">
	.st0{fill:none;stroke:#000000;stroke-width:2;stroke-miterlimit:10;}
</style>
<path class="st0" d="M59.1,36h493.9c2.8,0,5.1,2.9,5.1,6.5v131c0,3.6-2.3,6.5-5.1,6.5H59.1c-2.8,0-5.1-2.9-5.1-6.5v-131
	C54,38.9,56.3,36,59.1,36z"/>
<path class="st0" d="M59.1,180h493.9c2.8,0,5.1,2.9,5.1,6.5v131c0,3.6-2.3,6.5-5.1,6.5H59.1c-2.8,0-5.1-2.9-5.1-6.5v-131
	C54,182.9,56.3,180,59.1,180z"/>
<path class="st0" d="M59.1,468h493.9c2.8,0,5.1,2.9,5.1,6.5v131c0,3.6-2.3,6.5-5.1,6.5H59.1c-2.8,0-5.1-2.9-5.1-6.5v-131
	C54,470.9,56.3,468,59.1,468z"/>
<path class="st0" d="M59.1,324h493.9c2.8,0,5.1,2.9,5.1,6.5v131c0,3.6-2.3,6.5-5.1,6.5H59.1c-2.8,0-5.1-2.9-5.1-6.5v-131
	C54,326.9,56.3,324,59.1,324z"/>
<path class="st0" d="M59.1,612h493.9c2.8,0,5.1,2.9,5.1,6.5v131c0,3.6-2.3,6.5-5.1,6.5H59.1c-2.8,0-5.1-2.9-5.1-6.5v-131
	C54,614.9,56.3,612,59.1,612z"/>
<rect class="st0" width="612" height="792"/>
</svg>
