<?xml version="1.0" encoding="utf-8"?>
<!-- Generator: Adobe Illustrator 20.1.0, SVG Export Plug-In . SVG Version: 6.00 Build 0)  -->
<svg version="1.1" id="Template" xmlns="http://www.w3.org/2000/svg" xmlns:xlink="http://www.w3.org/1999/xlink" x="0px" y="0px"
	 viewBox="0 0 612 792" style="enable-background:new 0 0 612 792;" xml:space="preserve">
<style type="text/css">
	.st0{fill:none;stroke:#000000;stroke-width:2;stroke-miterlimit:10;}
	.st1{fill:none;stroke:#000000;stroke-width:2;}
</style>
<g>
	<path class="st0" d="M54,45c0-5,4-9,9-9h486c5,0,9,4,9,9v162c0,4.9-4,9-9,9H63c-5,0-9-4.1-9-9V45z"/>
</g>
<g>
	<path class="st0" d="M54,225c0-4.9,4-9,9-9h486c5,0,9,4.1,9,9v162c0,5-4,9-9,9H63c-5,0-9-4-9-9V225z"/>
</g>
<g>
	<path class="st0" d="M54,405c0-5,4-9,9-9h486c5,0,9,4,9,9v162c0,5-4,9-9,9H63c-5,0-9-4-9-9V405z"/>
</g>
<g>
	<path class="st0" d="M54,585c0-5,4-9,9-9h486c5,0,9,4,9,9v162c0,5-4,9-9,9H63c-5,0-9-4-9-9V585z"/>
</g>
<rect class="st1" width="612" height="792"/>
</svg>
