<?xml version="1.0" encoding="utf-8"?>
<!-- Generator: Adobe Illustrator 20.1.0, SVG Export Plug-In . SVG Version: 6.00 Build 0)  -->
<svg version="1.1" id="Layer_1" xmlns="http://www.w3.org/2000/svg" xmlns:xlink="http://www.w3.org/1999/xlink" x="0px" y="0px"
	 viewBox="0 0 612 792" style="enable-background:new 0 0 612 792;" xml:space="preserve">
<style type="text/css">
	.st0{fill-rule:evenodd;clip-rule:evenodd;fill:none;stroke:#000000;stroke-width:2;stroke-miterlimit:2.6131;}
</style>
<path class="st0" d="M46.6,18h518.9c5.8,0,10.6,2.2,10.6,4.9v98.3c0,2.7-4.8,4.9-10.6,4.9H46.6c-5.8,0-10.6-2.2-10.6-4.9V22.9
	C36,20.2,40.8,18,46.6,18z"/>
<path class="st0" d="M46.6,126h518.9c5.8,0,10.6,2.2,10.6,4.9v98.3c0,2.7-4.8,4.9-10.6,4.9H46.6c-5.8,0-10.6-2.2-10.6-4.9v-98.3
	C36,128.2,40.8,126,46.6,126z"/>
<path class="st0" d="M46.6,558h518.9c5.8,0,10.6,2.2,10.6,4.9v98.3c0,2.7-4.8,4.9-10.6,4.9H46.6c-5.8,0-10.6-2.2-10.6-4.9v-98.3
	C36,560.2,40.8,558,46.6,558z"/>
<path class="st0" d="M46.6,450h518.9c5.8,0,10.6,2.2,10.6,4.9v98.3c0,2.7-4.8,4.9-10.6,4.9H46.6c-5.8,0-10.6-2.2-10.6-4.9v-98.3
	C36,452.2,40.8,450,46.6,450z"/>
<path class="st0" d="M46.6,342h518.9c5.8,0,10.6,2.2,10.6,4.9v98.3c0,2.7-4.8,4.9-10.6,4.9H46.6c-5.8,0-10.6-2.2-10.6-4.9v-98.3
	C36,344.2,40.8,342,46.6,342z"/>
<path class="st0" d="M46.6,234h518.9c5.8,0,10.6,2.2,10.6,4.9v98.3c0,2.7-4.8,4.9-10.6,4.9H46.6c-5.8,0-10.6-2.2-10.6-4.9v-98.3
	C36,236.2,40.8,234,46.6,234z"/>
<path class="st0" d="M46.6,666h518.9c5.8,0,10.6,2.2,10.6,4.9v98.3c0,2.7-4.8,4.9-10.6,4.9H46.6c-5.8,0-10.6-2.2-10.6-4.9v-98.3
	C36,668.2,40.8,666,46.6,666z"/>
<rect y="0" class="st0" width="612" height="792"/>
</svg>
