<?xml version="1.0" encoding="utf-8"?>
<!-- Generator: Adobe Illustrator 20.1.0, SVG Export Plug-In . SVG Version: 6.00 Build 0)  -->
<svg version="1.1" id="Layer_1" xmlns="http://www.w3.org/2000/svg" xmlns:xlink="http://www.w3.org/1999/xlink" x="0px" y="0px"
	 viewBox="0 0 612 792" style="enable-background:new 0 0 612 792;" xml:space="preserve">
<style type="text/css">
	.st0{fill:none;stroke:#000000;stroke-width:2;stroke-miterlimit:10;}
</style>
<path class="st0" d="M321.7,69.7h207c3.7,0,6.7,2.6,6.7,5.9v118.8c0,3.2-3,5.9-6.7,5.9h-207c-3.7,0-6.7-2.6-6.7-5.9V75.6
	C315,72.4,318,69.7,321.7,69.7z"/>
<path class="st0" d="M321.7,591.8h207c3.7,0,6.7,2.6,6.7,5.9v118.8c0,3.2-3,5.9-6.7,5.9h-207c-3.7,0-6.7-2.6-6.7-5.9V597.6
	C315,594.4,318,591.8,321.7,591.8z"/>
<path class="st0" d="M321.7,461.3h207c3.7,0,6.7,2.6,6.7,5.9v118.8c0,3.2-3,5.9-6.7,5.9h-207c-3.7,0-6.7-2.6-6.7-5.9V467.1
	C315,463.9,318,461.3,321.7,461.3z"/>
<path class="st0" d="M321.7,330.8h207c3.7,0,6.7,2.6,6.7,5.9v118.8c0,3.2-3,5.9-6.7,5.9h-207c-3.7,0-6.7-2.6-6.7-5.9V336.6
	C315,333.4,318,330.8,321.7,330.8z"/>
<path class="st0" d="M321.7,200.3h207c3.7,0,6.7,2.6,6.7,5.9v118.8c0,3.2-3,5.9-6.7,5.9h-207c-3.7,0-6.7-2.6-6.7-5.9V206.1
	C315,202.9,318,200.3,321.7,200.3z"/>
<path class="st0" d="M83.3,69.7h207c3.7,0,6.7,2.6,6.7,5.9v118.8c0,3.2-3,5.9-6.7,5.9h-207c-3.7,0-6.7-2.6-6.7-5.9V75.6
	C76.5,72.4,79.6,69.7,83.3,69.7z"/>
<path class="st0" d="M83.3,591.8h207c3.7,0,6.7,2.6,6.7,5.9v118.8c0,3.2-3,5.9-6.7,5.9h-207c-3.7,0-6.7-2.6-6.7-5.9V597.6
	C76.5,594.4,79.6,591.8,83.3,591.8z"/>
<path class="st0" d="M83.3,461.3h207c3.7,0,6.7,2.6,6.7,5.9v118.8c0,3.2-3,5.9-6.7,5.9h-207c-3.7,0-6.7-2.6-6.7-5.9V467.1
	C76.5,463.9,79.6,461.3,83.3,461.3z"/>
<path class="st0" d="M83.3,330.8h207c3.7,0,6.7,2.6,6.7,5.9v118.8c0,3.2-3,5.9-6.7,5.9h-207c-3.7,0-6.7-2.6-6.7-5.9V336.6
	C76.5,333.4,79.6,330.8,83.3,330.8z"/>
<path class="st0" d="M83.3,200.3h207c3.7,0,6.7,2.6,6.7,5.9v118.8c0,3.2-3,5.9-6.7,5.9h-207c-3.7,0-6.7-2.6-6.7-5.9V206.1
	C76.5,202.9,79.6,200.3,83.3,200.3z"/>
<rect y="0" class="st0" width="612" height="792"/>
</svg>
