<?xml version="1.0" encoding="utf-8"?>
<!-- Generator: Adobe Illustrator 20.1.0, SVG Export Plug-In . SVG Version: 6.00 Build 0)  -->
<svg version="1.1" id="Layer_1" xmlns="http://www.w3.org/2000/svg" xmlns:xlink="http://www.w3.org/1999/xlink" x="0px" y="0px"
	 viewBox="0 0 612 792" style="enable-background:new 0 0 612 792;" xml:space="preserve">
<style type="text/css">
	.st0{fill:none;stroke:#000000;stroke-width:2;}
	.st1{fill:none;stroke:#000000;stroke-width:2;stroke-miterlimit:10;}
</style>
<g>
	<rect class="st0" width="612" height="792"/>
	<g>
		<g>
			<path class="st0" d="M301.5,270c0,5-4,9-9,9h-198c-5,0-9-4-9-9V72c0-5,4-9,9-9h198c5,0,9,4,9,9V270z"/>
			<path class="st0" d="M526.5,270c0,5-4,9-9,9h-198c-5,0-9-4-9-9V72c0-5,4-9,9-9h198c5,0,9,4,9,9V270z"/>
		</g>
		<g>
			<path class="st0" d="M301.5,495c0,5-4,9-9,9h-198c-5,0-9-4-9-9V297c0-5,4-9,9-9h198c5,0,9,4,9,9V495z"/>
			<path class="st0" d="M526.5,495c0,5-4,9-9,9h-198c-5,0-9-4-9-9V297c0-5,4-9,9-9h198c5,0,9,4,9,9V495z"/>
		</g>
		<g>
			<path class="st0" d="M301.5,720c0,5-4,9-9,9h-198c-5,0-9-4-9-9V522c0-5,4-9,9-9h198c5,0,9,4,9,9V720z"/>
			<path class="st0" d="M526.5,720c0,5-4,9-9,9h-198c-5,0-9-4-9-9V522c0-5,4-9,9-9h198c5,0,9,4,9,9V720z"/>
		</g>
	</g>
	<g>
		<path class="st1" d="M506.5,18h90.1c2.2,0,4.1,0.7,4.1,1.6v32.8c0,0.9-1.8,1.6-4.1,1.6h-90.1c-2.2,0-4.1-0.7-4.1-1.6V19.6
			C502.5,18.7,504.3,18,506.5,18z"/>
		<path class="st1" d="M15.3,18h90.1c2.2,0,4.1,0.7,4.1,1.6v32.8c0,0.9-1.8,1.6-4.1,1.6H15.3c-2.2,0-4.1-0.7-4.1-1.6V19.6
			C11.3,18.7,13.1,18,15.3,18z"/>
		<path class="st1" d="M113.6,18h90.1c2.2,0,4.1,0.7,4.1,1.6v32.8c0,0.9-1.8,1.6-4.1,1.6h-90.1c-2.2,0-4.1-0.7-4.1-1.6V19.6
			C109.5,18.7,111.3,18,113.6,18z"/>
		<path class="st1" d="M211.8,18h90.1c2.2,0,4.1,0.7,4.1,1.6v32.8c0,0.9-1.8,1.6-4.1,1.6h-90.1c-2.2,0-4.1-0.7-4.1-1.6V19.6
			C207.8,18.7,209.6,18,211.8,18z"/>
		<path class="st1" d="M310.1,18h90.1c2.2,0,4.1,0.7,4.1,1.6v32.8c0,0.9-1.8,1.6-4.1,1.6h-90.1c-2.2,0-4.1-0.7-4.1-1.6V19.6
			C306,18.7,307.8,18,310.1,18z"/>
		<path class="st1" d="M408.3,18h90.1c2.2,0,4.1,0.7,4.1,1.6v32.8c0,0.9-1.8,1.6-4.1,1.6h-90.1c-2.2,0-4.1-0.7-4.1-1.6V19.6
			C404.2,18.7,406.1,18,408.3,18z"/>
	</g>
</g>
</svg>
