<?xml version="1.0" encoding="utf-8"?>
<!-- Generator: Adobe Illustrator 20.1.0, SVG Export Plug-In . SVG Version: 6.00 Build 0)  -->
<svg version="1.1" id="Layer_1" xmlns="http://www.w3.org/2000/svg" xmlns:xlink="http://www.w3.org/1999/xlink" x="0px" y="0px"
	 viewBox="0 0 612 792" style="enable-background:new 0 0 612 792;" xml:space="preserve">
<style type="text/css">
	.st0{fill:none;stroke:#000000;stroke-width:2;}
</style>
<rect class="st0" width="612" height="792"/>
<path class="st0" d="M296,254.3c0,3.7-3,6.8-6.8,6.8H32.8c-3.7,0-6.8-3-6.8-6.8V51.8c0-3.7,3-6.8,6.8-6.8h256.5c3.7,0,6.8,3,6.8,6.8
	V254.3z"/>
<path class="st0" d="M585,254.3c0,3.7-3,6.8-6.8,6.8H321.8c-3.7,0-6.8-3-6.8-6.8V51.8c0-3.7,3-6.8,6.8-6.8h256.5
	c3.7,0,6.8,3,6.8,6.8V254.3z"/>
<path class="st0" d="M296,497.3c0,3.7-3,6.8-6.8,6.8H32.8c-3.7,0-6.8-3-6.8-6.8V294.8c0-3.7,3-6.8,6.8-6.8h256.5
	c3.7,0,6.8,3,6.8,6.8V497.3z"/>
<path class="st0" d="M585,497.3c0,3.7-3,6.8-6.8,6.8H321.8c-3.7,0-6.8-3-6.8-6.8V294.8c0-3.7,3-6.8,6.8-6.8h256.5
	c3.7,0,6.8,3,6.8,6.8V497.3z"/>
<path class="st0" d="M297,740.3c0,3.7-3,6.8-6.8,6.8H33.8c-3.7,0-6.8-3-6.8-6.8V537.8c0-3.7,3-6.8,6.8-6.8h256.5
	c3.7,0,6.8,3,6.8,6.8V740.3z"/>
<path class="st0" d="M585,740.3c0,3.7-3,6.8-6.8,6.8H321.8c-3.7,0-6.8-3-6.8-6.8V537.8c0-3.7,3-6.8,6.8-6.8h256.5
	c3.7,0,6.8,3,6.8,6.8V740.3z"/>
</svg>
