<?xml version="1.0" encoding="utf-8"?>
<!-- Generator: Adobe Illustrator 20.1.0, SVG Export Plug-In . SVG Version: 6.00 Build 0)  -->
<svg version="1.1" id="Layer_1" xmlns="http://www.w3.org/2000/svg" xmlns:xlink="http://www.w3.org/1999/xlink" x="0px" y="0px"
	 viewBox="0 0 612 792" style="enable-background:new 0 0 612 792;" xml:space="preserve">
<style type="text/css">
	.st0{fill:none;stroke:#000000;stroke-width:2;stroke-miterlimit:10;}
</style>
<path class="st0" d="M90.5,47.2h431c10.2,0,18.5,8,18.5,17.8v288.4c0,9.8-8.3,17.8-18.5,17.8h-431c-10.2,0-18.5-8-18.5-17.8V65.1
	C72,55.3,80.3,47.2,90.5,47.2z"/>
<path class="st0" d="M90.5,420.8h431c10.2,0,18.5,8,18.5,17.8v288.4c0,9.8-8.3,17.8-18.5,17.8h-431c-10.2,0-18.5-8-18.5-17.8V438.6
	C72,428.8,80.3,420.8,90.5,420.8z"/>
<rect class="st0" width="612" height="792"/>
</svg>
