<?xml version="1.0" encoding="utf-8"?>
<!-- Generator: Adobe Illustrator 20.1.0, SVG Export Plug-In . SVG Version: 6.00 Build 0)  -->
<svg version="1.1" id="Layer_1" xmlns="http://www.w3.org/2000/svg" xmlns:xlink="http://www.w3.org/1999/xlink" x="0px" y="0px"
	 viewBox="0 0 612 792" style="enable-background:new 0 0 612 792;" xml:space="preserve">
<style type="text/css">
	.st0{fill:none;stroke:#000000;stroke-width:2;stroke-miterlimit:10;}
	.st1{fill:none;stroke:#000000;stroke-width:2;}
</style>
<path class="st0" d="M37.8,36h536.4c10.9,0,19.8,8.9,19.8,19.8v320.4c0,10.9-8.9,19.8-19.8,19.8H37.8c-10.9,0-19.8-8.9-19.8-19.8
	V55.8C18,44.9,26.9,36,37.8,36z"/>
<path class="st0" d="M37.8,396h536.4c10.9,0,19.8,8.9,19.8,19.8v320.4c0,10.9-8.9,19.8-19.8,19.8H37.8c-10.9,0-19.8-8.9-19.8-19.8
	V415.8C18,404.9,26.9,396,37.8,396z"/>
<rect class="st1" width="612" height="792"/>
</svg>
