<?xml version="1.0" encoding="utf-8"?>
<!-- Generator: Adobe Illustrator 20.1.0, SVG Export Plug-In . SVG Version: 6.00 Build 0)  -->
<svg version="1.1" id="Layer_1" xmlns="http://www.w3.org/2000/svg" xmlns:xlink="http://www.w3.org/1999/xlink" x="0px" y="0px"
	 viewBox="0 0 612 792" style="enable-background:new 0 0 612 792;" xml:space="preserve">
<style type="text/css">
	.st0{fill-rule:evenodd;clip-rule:evenodd;fill:none;stroke:#000000;stroke-width:2;stroke-miterlimit:2.6131;}
</style>
<path class="st0" d="M43.4,18h525.1c4.1,0,7.4,5.1,7.4,11.3v229.3c0,6.2-3.3,11.3-7.4,11.3H43.4c-4.1,0-7.4-5.1-7.4-11.3V29.3
	C36,23.1,39.3,18,43.4,18z"/>
<path class="st0" d="M43.4,270h525.1c4.1,0,7.4,5.1,7.4,11.3v229.3c0,6.2-3.3,11.3-7.4,11.3H43.4c-4.1,0-7.4-5.1-7.4-11.3V281.3
	C36,275.1,39.3,270,43.4,270z"/>
<path class="st0" d="M43.4,522h525.1c4.1,0,7.4,5.1,7.4,11.3v229.3c0,6.2-3.3,11.3-7.4,11.3H43.4c-4.1,0-7.4-5.1-7.4-11.3V533.3
	C36,527.1,39.3,522,43.4,522z"/>
<rect x="0" y="0" class="st0" width="612" height="792"/>
<rect y="0" class="st0" width="612" height="792"/>
</svg>
