<?xml version="1.0" encoding="utf-8"?>
<!-- Generator: Adobe Illustrator 20.1.0, SVG Export Plug-In . SVG Version: 6.00 Build 0)  -->
<svg version="1.1" id="Layer_1" xmlns="http://www.w3.org/2000/svg" xmlns:xlink="http://www.w3.org/1999/xlink" x="0px" y="0px"
	 viewBox="0 0 612 792" style="enable-background:new 0 0 612 792;" xml:space="preserve">
<style type="text/css">
	.st0{fill:none;stroke:#000000;stroke-width:2;stroke-miterlimit:10;}
</style>
<path class="st0" d="M24.2,36h266.5c5.9,0,10.7,3.6,10.7,8.1v163.8c0,4.5-4.8,8.1-10.7,8.1H24.2c-5.9,0-10.7-3.6-10.7-8.1V44.1
	C13.5,39.6,18.3,36,24.2,36z"/>
<path class="st0" d="M24.2,576h266.5c5.9,0,10.7,3.6,10.7,8.1v163.8c0,4.5-4.8,8.1-10.7,8.1H24.2c-5.9,0-10.7-3.6-10.7-8.1V584.1
	C13.5,579.6,18.3,576,24.2,576z"/>
<path class="st0" d="M24.2,396h266.5c5.9,0,10.7,3.6,10.7,8.1v163.8c0,4.5-4.8,8.1-10.7,8.1H24.2c-5.9,0-10.7-3.6-10.7-8.1V404.1
	C13.5,399.6,18.3,396,24.2,396z"/>
<path class="st0" d="M24.2,216h266.5c5.9,0,10.7,3.6,10.7,8.1v163.8c0,4.5-4.8,8.1-10.7,8.1H24.2c-5.9,0-10.7-3.6-10.7-8.1V224.1
	C13.5,219.6,18.3,216,24.2,216z"/>
<path class="st0" d="M321.2,36h266.5c5.9,0,10.7,3.6,10.7,8.1v163.8c0,4.5-4.8,8.1-10.7,8.1H321.2c-5.9,0-10.7-3.6-10.7-8.1V44.1
	C310.5,39.6,315.3,36,321.2,36z"/>
<path class="st0" d="M321.2,576h266.5c5.9,0,10.7,3.6,10.7,8.1v163.8c0,4.5-4.8,8.1-10.7,8.1H321.2c-5.9,0-10.7-3.6-10.7-8.1V584.1
	C310.5,579.6,315.3,576,321.2,576z"/>
<path class="st0" d="M321.2,396h266.5c5.9,0,10.7,3.6,10.7,8.1v163.8c0,4.5-4.8,8.1-10.7,8.1H321.2c-5.9,0-10.7-3.6-10.7-8.1V404.1
	C310.5,399.6,315.3,396,321.2,396z"/>
<path class="st0" d="M321.2,216h266.5c5.9,0,10.7,3.6,10.7,8.1v163.8c0,4.5-4.8,8.1-10.7,8.1H321.2c-5.9,0-10.7-3.6-10.7-8.1V224.1
	C310.5,219.6,315.3,216,321.2,216z"/>
<rect x="0" y="0" class="st0" width="612" height="792"/>
</svg>
