<?xml version="1.0" encoding="utf-8"?>
<!-- Generator: Adobe Illustrator 20.1.0, SVG Export Plug-In . SVG Version: 6.00 Build 0)  -->
<svg version="1.1" id="Layer_1" xmlns="http://www.w3.org/2000/svg" xmlns:xlink="http://www.w3.org/1999/xlink" x="0px" y="0px"
	 viewBox="0 0 612 792" style="enable-background:new 0 0 612 792;" xml:space="preserve">
<style type="text/css">
	.st0{fill:none;stroke:#000000;stroke-width:2;stroke-miterlimit:10;}
	.st1{fill:none;stroke:#939598;stroke-width:2;stroke-miterlimit:10;}
	.st2{fill:none;stroke:#939598;stroke-width:2;stroke-miterlimit:10;stroke-dasharray:2,2;}
</style>
<path class="st0" d="M24.2,594h266.5c5.9,0,10.7,3.6,10.7,8.1v163.8c0,4.5-4.8,8.1-10.7,8.1H24.2c-5.9,0-10.7-3.6-10.7-8.1V602.1
	C13.5,597.6,18.3,594,24.2,594z"/>
<path class="st0" d="M321.2,594h266.5c5.9,0,10.7,3.6,10.7,8.1v163.8c0,4.5-4.8,8.1-10.7,8.1H321.2c-5.9,0-10.7-3.6-10.7-8.1V602.1
	C310.5,597.6,315.3,594,321.2,594z"/>
<path class="st0" d="M24.2,18h266.5c5.9,0,10.7,3.6,10.7,8.1v163.8c0,4.5-4.8,8.1-10.7,8.1H24.2c-5.9,0-10.7-3.6-10.7-8.1V26.1
	C13.5,21.6,18.3,18,24.2,18z"/>
<path class="st0" d="M321.2,18h266.5c5.9,0,10.7,3.6,10.7,8.1v163.8c0,4.5-4.8,8.1-10.7,8.1H321.2c-5.9,0-10.7-3.6-10.7-8.1V26.1
	C310.5,21.6,315.3,18,321.2,18z"/>
<path class="st0" d="M24.2,210h266.5c5.9,0,10.7,3.6,10.7,8.1v163.8c0,4.5-4.8,8.1-10.7,8.1H24.2c-5.9,0-10.7-3.6-10.7-8.1V218.1
	C13.5,213.6,18.3,210,24.2,210z"/>
<path class="st0" d="M321.2,210h266.5c5.9,0,10.7,3.6,10.7,8.1v163.8c0,4.5-4.8,8.1-10.7,8.1H321.2c-5.9,0-10.7-3.6-10.7-8.1V218.1
	C310.5,213.6,315.3,210,321.2,210z"/>
<path class="st0" d="M24.2,402h266.5c5.9,0,10.7,3.6,10.7,8.1v163.8c0,4.5-4.8,8.1-10.7,8.1H24.2c-5.9,0-10.7-3.6-10.7-8.1V410.1
	C13.5,405.6,18.3,402,24.2,402z"/>
<path class="st0" d="M321.2,402h266.5c5.9,0,10.7,3.6,10.7,8.1v163.8c0,4.5-4.8,8.1-10.7,8.1H321.2c-5.9,0-10.7-3.6-10.7-8.1V410.1
	C310.5,405.6,315.3,402,321.2,402z"/>
<g>
	<g>
		<line class="st1" x1="306" y1="792" x2="306" y2="791"/>
		<line class="st2" x1="306" y1="789" x2="306" y2="2"/>
		<line class="st1" x1="306" y1="1" x2="306" y2="0"/>
	</g>
</g>
<g>
	<g>
		<line class="st1" x1="0" y1="204" x2="1" y2="204"/>
		<line class="st2" x1="3" y1="204" x2="610" y2="204"/>
		<line class="st1" x1="611" y1="204" x2="612" y2="204"/>
	</g>
</g>
<g>
	<g>
		<line class="st1" x1="0" y1="396" x2="1" y2="396"/>
		<line class="st2" x1="3" y1="396" x2="610" y2="396"/>
		<line class="st1" x1="611" y1="396" x2="612" y2="396"/>
	</g>
</g>
<g>
	<g>
		<line class="st1" x1="0" y1="588" x2="1" y2="588"/>
		<line class="st2" x1="3" y1="588" x2="610" y2="588"/>
		<line class="st1" x1="611" y1="588" x2="612" y2="588"/>
	</g>
</g>
<rect class="st0" width="612" height="792"/>
</svg>
