<?xml version="1.0" encoding="utf-8"?>
<!-- Generator: Adobe Illustrator 21.1.0, SVG Export Plug-In . SVG Version: 6.00 Build 0)  -->
<svg version="1.1" id="Layer_1" xmlns="http://www.w3.org/2000/svg" xmlns:xlink="http://www.w3.org/1999/xlink" x="0px" y="0px"
	 viewBox="0 0 612 792" style="enable-background:new 0 0 612 792;" xml:space="preserve">
<style type="text/css">
	.st0{fill:none;stroke:#000000;stroke-width:2;stroke-miterlimit:10;}
</style>
<path class="st0" d="M18.4,630h179.2c3.9,0,7.2,2.9,7.2,6.5v131c0,3.6-3.2,6.5-7.2,6.5H18.4c-3.9,0-7.2-2.9-7.2-6.5v-131
	C11.3,632.9,14.5,630,18.4,630z"/>
<path class="st0" d="M18.4,18h179.2c3.9,0,7.2,2.9,7.2,6.5v131c0,3.6-3.2,6.5-7.2,6.5H18.4c-3.9,0-7.2-2.9-7.2-6.5v-131
	C11.3,20.9,14.5,18,18.4,18z"/>
<path class="st0" d="M18.4,324h179.2c3.9,0,7.2,2.9,7.2,6.5v131c0,3.6-3.2,6.5-7.2,6.5H18.4c-3.9,0-7.2-2.9-7.2-6.5v-131
	C11.3,326.9,14.5,324,18.4,324z"/>
<path class="st0" d="M18.4,171h179.2c3.9,0,7.2,2.9,7.2,6.5v131c0,3.6-3.2,6.5-7.2,6.5H18.4c-3.9,0-7.2-2.9-7.2-6.5v-131
	C11.3,173.9,14.5,171,18.4,171z"/>
<path class="st0" d="M18.4,477h179.2c3.9,0,7.2,2.9,7.2,6.5v131c0,3.6-3.2,6.5-7.2,6.5H18.4c-3.9,0-7.2-2.9-7.2-6.5v-131
	C11.3,479.9,14.5,477,18.4,477z"/>
<path class="st0" d="M216.4,630h179.2c3.9,0,7.2,2.9,7.2,6.5v131c0,3.6-3.2,6.5-7.2,6.5H216.4c-3.9,0-7.2-2.9-7.2-6.5v-131
	C209.2,632.9,212.5,630,216.4,630z"/>
<path class="st0" d="M216.4,18h179.2c3.9,0,7.2,2.9,7.2,6.5v131c0,3.6-3.2,6.5-7.2,6.5H216.4c-3.9,0-7.2-2.9-7.2-6.5v-131
	C209.2,20.9,212.5,18,216.4,18z"/>
<path class="st0" d="M216.4,324h179.2c3.9,0,7.2,2.9,7.2,6.5v131c0,3.6-3.2,6.5-7.2,6.5H216.4c-3.9,0-7.2-2.9-7.2-6.5v-131
	C209.2,326.9,212.5,324,216.4,324z"/>
<path class="st0" d="M216.4,171h179.2c3.9,0,7.2,2.9,7.2,6.5v131c0,3.6-3.2,6.5-7.2,6.5H216.4c-3.9,0-7.2-2.9-7.2-6.5v-131
	C209.2,173.9,212.5,171,216.4,171z"/>
<path class="st0" d="M216.4,477h179.2c3.9,0,7.2,2.9,7.2,6.5v131c0,3.6-3.2,6.5-7.2,6.5H216.4c-3.9,0-7.2-2.9-7.2-6.5v-131
	C209.2,479.9,212.5,477,216.4,477z"/>
<path class="st0" d="M414.4,630h179.2c4,0,7.2,2.9,7.2,6.5v131c0,3.6-3.2,6.5-7.2,6.5H414.4c-4,0-7.2-2.9-7.2-6.5v-131
	C407.2,632.9,410.5,630,414.4,630z"/>
<path class="st0" d="M414.4,18h179.2c4,0,7.2,2.9,7.2,6.5v131c0,3.6-3.2,6.5-7.2,6.5H414.4c-4,0-7.2-2.9-7.2-6.5v-131
	C407.2,20.9,410.5,18,414.4,18z"/>
<path class="st0" d="M414.4,324h179.2c4,0,7.2,2.9,7.2,6.5v131c0,3.6-3.2,6.5-7.2,6.5H414.4c-4,0-7.2-2.9-7.2-6.5v-131
	C407.2,326.9,410.5,324,414.4,324z"/>
<path class="st0" d="M414.4,171h179.2c4,0,7.2,2.9,7.2,6.5v131c0,3.6-3.2,6.5-7.2,6.5H414.4c-4,0-7.2-2.9-7.2-6.5v-131
	C407.2,173.9,410.5,171,414.4,171z"/>
<path class="st0" d="M414.4,477h179.2c4,0,7.2,2.9,7.2,6.5v131c0,3.6-3.2,6.5-7.2,6.5H414.4c-4,0-7.2-2.9-7.2-6.5v-131
	C407.2,479.9,410.5,477,414.4,477z"/>
<rect class="st0" width="612" height="792"/>
</svg>
