<?xml version="1.0" encoding="utf-8"?>
<!-- Generator: Adobe Illustrator 20.1.0, SVG Export Plug-In . SVG Version: 6.00 Build 0)  -->
<svg version="1.1" id="Layer_1" xmlns="http://www.w3.org/2000/svg" xmlns:xlink="http://www.w3.org/1999/xlink" x="0px" y="0px"
	 viewBox="0 0 612 792" style="enable-background:new 0 0 612 792;" xml:space="preserve">
<style type="text/css">
	.st0{fill:none;stroke:#000000;stroke-width:2;stroke-miterlimit:2.6131;}
	.st1{fill:none;stroke:#000000;stroke-width:2;stroke-miterlimit:10;}
</style>
<path class="st0" d="M36.1,683.1h108v72h-108V683.1L36.1,683.1z M36.1,611.1h108v72h-108V611.1L36.1,611.1z M36.1,539.1h108v72h-108
	V539.1L36.1,539.1z M36.1,467.1h108v72h-108V467.1L36.1,467.1z M36.1,395.1h108v72h-108V395.1L36.1,395.1z M36.1,323.1h108v72h-108
	V323.1L36.1,323.1z M36.1,251.1h108v72h-108V251.1L36.1,251.1z M36.1,179.1h108v72h-108V179.1L36.1,179.1z M36.1,107.1h108v72h-108
	V107.1L36.1,107.1z M36.1,35.1h108v72h-108V35.1L36.1,35.1z M144.1,683.1h108v72h-108V683.1L144.1,683.1z M144.1,611.1h108v72h-108
	V611.1L144.1,611.1z M144.1,539.1h108v72h-108V539.1L144.1,539.1z M144.1,467.1h108v72h-108V467.1L144.1,467.1z M144.1,395.1h108v72
	h-108V395.1L144.1,395.1z M144.1,323.1h108v72h-108V323.1L144.1,323.1z M144.1,251.1h108v72h-108V251.1L144.1,251.1z M144.1,179.1
	h108v72h-108V179.1L144.1,179.1z M144.1,107.1h108v72h-108V107.1L144.1,107.1z M144.1,35.1h108v72h-108V35.1L144.1,35.1z
	 M252.1,683.1h108v72h-108V683.1L252.1,683.1z M252.1,611.1h108v72h-108V611.1L252.1,611.1z M252.1,539.1h108v72h-108V539.1
	L252.1,539.1z M252.1,467.1h108v72h-108V467.1L252.1,467.1z M252.1,395.1h108v72h-108V395.1L252.1,395.1z M252.1,323.1h108v72h-108
	V323.1L252.1,323.1z M252.1,251.1h108v72h-108V251.1L252.1,251.1z M252.1,179.1h108v72h-108V179.1L252.1,179.1z M252.1,107.1h108v72
	h-108V107.1L252.1,107.1z M252.1,35.1h108v72h-108V35.1L252.1,35.1z M360.1,683.1h108v72h-108V683.1L360.1,683.1z M360.1,611.1h108
	v72h-108V611.1L360.1,611.1z M360.1,539.1h108v72h-108V539.1L360.1,539.1z M360.1,467.1h108v72h-108V467.1L360.1,467.1z
	 M360.1,395.1h108v72h-108V395.1L360.1,395.1z M360.1,323.1h108v72h-108V323.1L360.1,323.1z M360.1,251.1h108v72h-108V251.1
	L360.1,251.1z M360.1,179.1h108v72h-108V179.1L360.1,179.1z M360.1,107.1h108v72h-108V107.1L360.1,107.1z M360.1,35.1h108v72h-108
	V35.1L360.1,35.1z M468.1,683.1h108v72h-108V683.1L468.1,683.1z M468.1,611.1h108v72h-108V611.1L468.1,611.1z M468.1,539.1h108v72
	h-108V539.1L468.1,539.1z M468.1,467.1h108v72h-108V467.1L468.1,467.1z M468.1,395.1h108v72h-108V395.1L468.1,395.1z M468.1,323.1
	h108v72h-108V323.1L468.1,323.1z M468.1,251.1h108v72h-108V251.1L468.1,251.1z M468.1,179.1h108v72h-108V179.1L468.1,179.1z
	 M468.1,107.1h108v72h-108V107.1L468.1,107.1z M468.1,35.1h108v72h-108V35.1L468.1,35.1z"/>
<rect class="st1" width="612" height="792"/>
</svg>
