<?xml version="1.0" encoding="utf-8"?>
<!-- Generator: Adobe Illustrator 20.1.0, SVG Export Plug-In . SVG Version: 6.00 Build 0)  -->
<svg version="1.1" id="Layer_1" xmlns="http://www.w3.org/2000/svg" xmlns:xlink="http://www.w3.org/1999/xlink" x="0px" y="0px"
	 viewBox="0 0 612 792" style="enable-background:new 0 0 612 792;" xml:space="preserve">
<style type="text/css">
	.st0{fill:none;stroke:#000000;stroke-width:2;stroke-miterlimit:10;}
	.st1{fill:none;stroke:#000000;stroke-width:2;}
</style>
<path class="st0" d="M16.4,179h273.1c4.1,0,7.4,1.5,7.4,3.2v65.5c0,1.8-3.3,3.2-7.4,3.2H16.4c-4.1,0-7.4-1.5-7.4-3.2v-65.5
	C9,180.5,12.3,179,16.4,179z"/>
<path class="st0" d="M16.4,539.6h273.1c4.1,0,7.4,1.5,7.4,3.2v65.5c0,1.8-3.3,3.2-7.4,3.2H16.4c-4.1,0-7.4-1.5-7.4-3.2v-65.5
	C9,541,12.3,539.6,16.4,539.6z"/>
<path class="st0" d="M16.4,250.5h273.1c4.1,0,7.4,1.5,7.4,3.2v65.5c0,1.8-3.3,3.2-7.4,3.2H16.4c-4.1,0-7.4-1.5-7.4-3.2v-65.5
	C9,252,12.3,250.5,16.4,250.5z"/>
<path class="st0" d="M16.4,107.5h273.1c4.1,0,7.4,1.5,7.4,3.2v65.5c0,1.8-3.3,3.2-7.4,3.2H16.4c-4.1,0-7.4-1.5-7.4-3.2v-65.5
	C9,109,12.3,107.5,16.4,107.5z"/>
<path class="st0" d="M16.4,36h273.1c4.1,0,7.4,1.5,7.4,3.2v65.5c0,1.8-3.3,3.2-7.4,3.2H16.4c-4.1,0-7.4-1.5-7.4-3.2V39.2
	C9,37.5,12.3,36,16.4,36z"/>
<path class="st0" d="M16.4,323h273.1c4.1,0,7.4,1.5,7.4,3.2v65.5c0,1.8-3.3,3.2-7.4,3.2H16.4c-4.1,0-7.4-1.5-7.4-3.2v-65.5
	C9,324.5,12.3,323,16.4,323z"/>
<path class="st0" d="M16.4,394.6h273.1c4.1,0,7.4,1.5,7.4,3.2v65.5c0,1.8-3.3,3.2-7.4,3.2H16.4c-4.1,0-7.4-1.5-7.4-3.2v-65.5
	C9,396,12.3,394.6,16.4,394.6z"/>
<path class="st0" d="M16.4,467.1h273.1c4.1,0,7.4,1.5,7.4,3.2v65.5c0,1.8-3.3,3.2-7.4,3.2H16.4c-4.1,0-7.4-1.5-7.4-3.2v-65.5
	C9,468.5,12.3,467.1,16.4,467.1z"/>
<path class="st0" d="M16.4,683.6h273.1c4.1,0,7.4,1.5,7.4,3.2v65.5c0,1.8-3.3,3.2-7.4,3.2H16.4c-4.1,0-7.4-1.5-7.4-3.2v-65.5
	C9,685.1,12.3,683.6,16.4,683.6z"/>
<path class="st0" d="M16.4,612.1h273.1c4.1,0,7.4,1.5,7.4,3.2v65.5c0,1.8-3.3,3.2-7.4,3.2H16.4c-4.1,0-7.4-1.5-7.4-3.2v-65.5
	C9,613.6,12.3,612.1,16.4,612.1z"/>
<g>
	<path class="st0" d="M322.4,179h273.1c4.1,0,7.4,1.5,7.4,3.2v65.5c0,1.8-3.3,3.2-7.4,3.2H322.4c-4.1,0-7.4-1.5-7.4-3.2v-65.5
		C315,180.5,318.3,179,322.4,179z"/>
	<path class="st0" d="M322.4,539.6h273.1c4.1,0,7.4,1.5,7.4,3.2v65.5c0,1.8-3.3,3.2-7.4,3.2H322.4c-4.1,0-7.4-1.5-7.4-3.2v-65.5
		C315,541,318.3,539.6,322.4,539.6z"/>
	<path class="st0" d="M322.4,250.5h273.1c4.1,0,7.4,1.5,7.4,3.2v65.5c0,1.8-3.3,3.2-7.4,3.2H322.4c-4.1,0-7.4-1.5-7.4-3.2v-65.5
		C315,252,318.3,250.5,322.4,250.5z"/>
	<path class="st0" d="M322.4,107.5h273.1c4.1,0,7.4,1.5,7.4,3.2v65.5c0,1.8-3.3,3.2-7.4,3.2H322.4c-4.1,0-7.4-1.5-7.4-3.2v-65.5
		C315,109,318.3,107.5,322.4,107.5z"/>
	<path class="st0" d="M322.4,36h273.1c4.1,0,7.4,1.5,7.4,3.2v65.5c0,1.8-3.3,3.2-7.4,3.2H322.4c-4.1,0-7.4-1.5-7.4-3.2V39.2
		C315,37.5,318.3,36,322.4,36z"/>
	<path class="st0" d="M322.4,323h273.1c4.1,0,7.4,1.5,7.4,3.2v65.5c0,1.8-3.3,3.2-7.4,3.2H322.4c-4.1,0-7.4-1.5-7.4-3.2v-65.5
		C315,324.5,318.3,323,322.4,323z"/>
	<path class="st0" d="M322.4,394.6h273.1c4.1,0,7.4,1.5,7.4,3.2v65.5c0,1.8-3.3,3.2-7.4,3.2H322.4c-4.1,0-7.4-1.5-7.4-3.2v-65.5
		C315,396,318.3,394.6,322.4,394.6z"/>
	<path class="st0" d="M322.4,467.1h273.1c4.1,0,7.4,1.5,7.4,3.2v65.5c0,1.8-3.3,3.2-7.4,3.2H322.4c-4.1,0-7.4-1.5-7.4-3.2v-65.5
		C315,468.5,318.3,467.1,322.4,467.1z"/>
	<path class="st0" d="M322.4,683.6h273.1c4.1,0,7.4,1.5,7.4,3.2v65.5c0,1.8-3.3,3.2-7.4,3.2H322.4c-4.1,0-7.4-1.5-7.4-3.2v-65.5
		C315,685.1,318.3,683.6,322.4,683.6z"/>
	<path class="st0" d="M322.4,612.1h273.1c4.1,0,7.4,1.5,7.4,3.2v65.5c0,1.8-3.3,3.2-7.4,3.2H322.4c-4.1,0-7.4-1.5-7.4-3.2v-65.5
		C315,613.6,318.3,612.1,322.4,612.1z"/>
</g>
<rect class="st1" width="612" height="792"/>
</svg>
