<?xml version="1.0" encoding="utf-8"?>
<!-- Generator: Adobe Illustrator 20.1.0, SVG Export Plug-In . SVG Version: 6.00 Build 0)  -->
<svg version="1.1" id="Layer_1" xmlns="http://www.w3.org/2000/svg" xmlns:xlink="http://www.w3.org/1999/xlink" x="0px" y="0px"
	 viewBox="0 0 612 792" style="enable-background:new 0 0 612 792;" xml:space="preserve">
<style type="text/css">
	.st0{fill:none;stroke:#000000;stroke-width:2;stroke-miterlimit:10;}
</style>
<path class="st0" d="M306.5,45c92.9,0,168.8,75.8,168.8,168.8s-75.8,168.8-168.8,168.8c-92.9,0-168.8-75.8-168.8-168.8
	S213.6,45,306.5,45z"/>
<path class="st0" d="M306.5,191.3c12.4,0,22.5,10.1,22.5,22.5c0,12.4-10.1,22.5-22.5,22.5c-12.4,0-22.5-10.1-22.5-22.5
	C284,201.4,294.1,191.3,306.5,191.3z"/>
<path class="st0" d="M306.5,409.5c92.9,0,168.8,75.8,168.8,168.8S399.5,747,306.5,747c-92.9,0-168.8-75.8-168.8-168.8
	S213.6,409.5,306.5,409.5z"/>
<path class="st0" d="M306.5,555.8c12.4,0,22.5,10.1,22.5,22.5s-10.1,22.5-22.5,22.5c-12.4,0-22.5-10.1-22.5-22.5
	S294.1,555.8,306.5,555.8z"/>
<rect class="st0" width="612" height="792"/>
</svg>
