<?xml version="1.0" encoding="utf-8"?>
<!-- Generator: Adobe Illustrator 21.1.0, SVG Export Plug-In . SVG Version: 6.00 Build 0)  -->
<svg version="1.1" id="Layer_1" xmlns="http://www.w3.org/2000/svg" xmlns:xlink="http://www.w3.org/1999/xlink" x="0px" y="0px"
	 viewBox="0 0 612 792" style="enable-background:new 0 0 612 792;" xml:space="preserve">
<style type="text/css">
	.st0{fill:none;stroke:#000000;stroke-width:2;}
</style>
<g>
	<path class="st0" d="M162,127.8c0,5-4,9-9,9H27c-5,0-9-4-9-9v-90c0-5,4-9,9-9h126c5,0,9,4,9,9V127.8z"/>
	<path class="st0" d="M594,127.8c0,5-4,9-9,9H459c-5,0-9-4-9-9v-90c0-5,4-9,9-9h126c5,0,9,4,9,9V127.8z"/>
	<path class="st0" d="M306,127.8c0,5-4,9-9,9H171c-5,0-9-4-9-9v-90c0-5,4-9,9-9h126c5,0,9,4,9,9V127.8z"/>
	<path class="st0" d="M450,127.8c0,5-4,9-9,9H315c-5,0-9-4-9-9v-90c0-5,4-9,9-9h126c5,0,9,4,9,9V127.8z"/>
</g>
<g>
	<path class="st0" d="M162,754.2c0,5-4,9-9,9H27c-5,0-9-4-9-9v-90c0-5,4-9,9-9h126c5,0,9,4,9,9V754.2z"/>
	<path class="st0" d="M594,754.2c0,5-4,9-9,9H459c-5,0-9-4-9-9v-90c0-5,4-9,9-9h126c5,0,9,4,9,9V754.2z"/>
	<path class="st0" d="M306,754.2c0,5-4,9-9,9H171c-5,0-9-4-9-9v-90c0-5,4-9,9-9h126c5,0,9,4,9,9V754.2z"/>
	<path class="st0" d="M450,754.2c0,5-4,9-9,9H315c-5,0-9-4-9-9v-90c0-5,4-9,9-9h126c5,0,9,4,9,9V754.2z"/>
</g>
<g>
	<path class="st0" d="M162,253.1c0,5-4,9-9,9H27c-5,0-9-4-9-9v-90c0-5,4-9,9-9h126c5,0,9,4,9,9V253.1z"/>
	<path class="st0" d="M594,253.1c0,5-4,9-9,9H459c-5,0-9-4-9-9v-90c0-5,4-9,9-9h126c5,0,9,4,9,9V253.1z"/>
	<path class="st0" d="M306,253.1c0,5-4,9-9,9H171c-5,0-9-4-9-9v-90c0-5,4-9,9-9h126c5,0,9,4,9,9V253.1z"/>
	<path class="st0" d="M450,253.1c0,5-4,9-9,9H315c-5,0-9-4-9-9v-90c0-5,4-9,9-9h126c5,0,9,4,9,9V253.1z"/>
</g>
<g>
	<path class="st0" d="M162,378.4c0,5-4,9-9,9H27c-5,0-9-4-9-9v-90c0-5,4-9,9-9h126c5,0,9,4,9,9V378.4z"/>
	<path class="st0" d="M594,378.4c0,5-4,9-9,9H459c-5,0-9-4-9-9v-90c0-5,4-9,9-9h126c5,0,9,4,9,9V378.4z"/>
	<path class="st0" d="M306,378.4c0,5-4,9-9,9H171c-5,0-9-4-9-9v-90c0-5,4-9,9-9h126c5,0,9,4,9,9V378.4z"/>
	<path class="st0" d="M450,378.4c0,5-4,9-9,9H315c-5,0-9-4-9-9v-90c0-5,4-9,9-9h126c5,0,9,4,9,9V378.4z"/>
</g>
<g>
	<path class="st0" d="M162,628.9c0,5-4,9-9,9H27c-5,0-9-4-9-9v-90c0-5,4-9,9-9h126c5,0,9,4,9,9V628.9z"/>
	<path class="st0" d="M594,628.9c0,5-4,9-9,9H459c-5,0-9-4-9-9v-90c0-5,4-9,9-9h126c5,0,9,4,9,9V628.9z"/>
	<path class="st0" d="M306,628.9c0,5-4,9-9,9H171c-5,0-9-4-9-9v-90c0-5,4-9,9-9h126c5,0,9,4,9,9V628.9z"/>
	<path class="st0" d="M450,628.9c0,5-4,9-9,9H315c-5,0-9-4-9-9v-90c0-5,4-9,9-9h126c5,0,9,4,9,9V628.9z"/>
</g>
<g>
	<path class="st0" d="M162,503.6c0,5-4,9-9,9H27c-5,0-9-4-9-9v-90c0-5,4-9,9-9h126c5,0,9,4,9,9V503.6z"/>
	<path class="st0" d="M594,503.6c0,5-4,9-9,9H459c-5,0-9-4-9-9v-90c0-5,4-9,9-9h126c5,0,9,4,9,9V503.6z"/>
	<path class="st0" d="M306,503.6c0,5-4,9-9,9H171c-5,0-9-4-9-9v-90c0-5,4-9,9-9h126c5,0,9,4,9,9V503.6z"/>
	<path class="st0" d="M450,503.6c0,5-4,9-9,9H315c-5,0-9-4-9-9v-90c0-5,4-9,9-9h126c5,0,9,4,9,9V503.6z"/>
</g>
<rect class="st0" width="612" height="792"/>
</svg>
