<?xml version="1.0" encoding="utf-8"?>
<!-- Generator: Adobe Illustrator 20.1.0, SVG Export Plug-In . SVG Version: 6.00 Build 0)  -->
<svg version="1.1" id="Layer_1" xmlns="http://www.w3.org/2000/svg" xmlns:xlink="http://www.w3.org/1999/xlink" x="0px" y="0px"
	 viewBox="0 0 612 792" style="enable-background:new 0 0 612 792;" xml:space="preserve">
<style type="text/css">
	.st0{fill:none;stroke:#000000;stroke-width:2;stroke-miterlimit:10;}
</style>
<path class="st0" d="M112.4,405h180.2c4.9,0,8.9,2.8,8.9,6.1v329.8c0,3.4-4,6.1-8.9,6.1H112.4c-4.9,0-8.9-2.8-8.9-6.1V411.1
	C103.5,407.8,107.5,405,112.4,405z"/>
<path class="st0" d="M112.4,45h180.2c4.9,0,8.9,2.8,8.9,6.1v329.8c0,3.4-4,6.1-8.9,6.1H112.4c-4.9,0-8.9-2.8-8.9-6.1V51.1
	C103.5,47.8,107.5,45,112.4,45z"/>
<path class="st0" d="M319.4,405h180.2c4.9,0,8.9,2.8,8.9,6.1v329.8c0,3.4-4,6.1-8.9,6.1H319.4c-4.9,0-8.9-2.8-8.9-6.1V411.1
	C310.5,407.8,314.5,405,319.4,405z"/>
<path class="st0" d="M319.4,45h180.2c4.9,0,8.9,2.8,8.9,6.1v329.8c0,3.4-4,6.1-8.9,6.1H319.4c-4.9,0-8.9-2.8-8.9-6.1V51.1
	C310.5,47.8,314.5,45,319.4,45z"/>
<rect class="st0" width="612" height="792"/>
</svg>
