<?xml version="1.0" encoding="utf-8"?>
<!-- Generator: Adobe Illustrator 20.1.0, SVG Export Plug-In . SVG Version: 6.00 Build 0)  -->
<svg version="1.1" id="Layer_1" xmlns="http://www.w3.org/2000/svg" xmlns:xlink="http://www.w3.org/1999/xlink" x="0px" y="0px"
	 viewBox="0 0 612 792" style="enable-background:new 0 0 612 792;" xml:space="preserve">
<style type="text/css">
	.st0{fill:none;stroke:#000000;stroke-width:2;}
</style>
<g>
	<rect x="91" y="36.5" class="st0" width="216" height="72"/>
	<rect x="307" y="36.5" class="st0" width="216" height="72"/>
	<rect x="91" y="108.5" class="st0" width="216" height="72"/>
	<rect x="307" y="108.5" class="st0" width="216" height="72"/>
	<rect x="91" y="180.5" class="st0" width="216" height="72"/>
	<rect x="307" y="180.5" class="st0" width="216" height="72"/>
	<rect x="91" y="252.5" class="st0" width="216" height="72"/>
	<rect x="307" y="252.5" class="st0" width="216" height="72"/>
	<rect x="91" y="324.5" class="st0" width="216" height="72"/>
	<rect x="307" y="324.5" class="st0" width="216" height="72"/>
	<rect x="91" y="396.5" class="st0" width="216" height="72"/>
	<rect x="307" y="396.5" class="st0" width="216" height="72"/>
	<rect x="91" y="468.5" class="st0" width="216" height="72"/>
	<rect x="307" y="468.5" class="st0" width="216" height="72"/>
	<rect x="91" y="540.5" class="st0" width="216" height="72"/>
	<rect x="307" y="540.5" class="st0" width="216" height="72"/>
	<rect x="91" y="612.5" class="st0" width="216" height="72"/>
	<rect x="307" y="612.5" class="st0" width="216" height="72"/>
	<rect x="91" y="684.5" class="st0" width="216" height="72"/>
	<rect x="307" y="684.5" class="st0" width="216" height="72"/>
</g>
<rect y="0.5" class="st0" width="612" height="792"/>
</svg>
