<?xml version="1.0" encoding="utf-8"?>
<!-- Generator: Adobe Illustrator 20.1.0, SVG Export Plug-In . SVG Version: 6.00 Build 0)  -->
<svg version="1.1" id="Layer_1" xmlns="http://www.w3.org/2000/svg" xmlns:xlink="http://www.w3.org/1999/xlink" x="0px" y="0px"
	 viewBox="0 0 612 792" style="enable-background:new 0 0 612 792;" xml:space="preserve">
<style type="text/css">
	.st0{fill:none;stroke:#000000;stroke-width:2;}
</style>
<path class="st0" d="M297,273.7c0,3.7-3,6.8-6.8,6.8H33.8c-3.7,0-6.8-3-6.8-6.8v-76.5c0-3.7,3-6.8,6.8-6.8h256.5
	c3.7,0,6.8,3,6.8,6.8V273.7z"/>
<path class="st0" d="M297,487.8c0,3.7-3,6.8-6.8,6.8H33.8c-3.7,0-6.8-3-6.8-6.8v-76.5c0-3.7,3-6.8,6.8-6.8h256.5
	c3.7,0,6.8,3,6.8,6.8V487.8z"/>
<path class="st0" d="M297,380.7c0,3.7-3,6.8-6.8,6.8H33.8c-3.7,0-6.8-3-6.8-6.8v-76.5c0-3.7,3-6.8,6.8-6.8h256.5
	c3.7,0,6.8,3,6.8,6.8V380.7z"/>
<path class="st0" d="M297,594.8c0,3.7-3,6.8-6.8,6.8H33.8c-3.7,0-6.8-3-6.8-6.8v-76.5c0-3.7,3-6.8,6.8-6.8h256.5
	c3.7,0,6.8,3,6.8,6.8V594.8z"/>
<path class="st0" d="M297,701.8c0,3.7-3,6.8-6.8,6.8H33.8c-3.7,0-6.8-3-6.8-6.8v-76.5c0-3.7,3-6.8,6.8-6.8h256.5
	c3.7,0,6.8,3,6.8,6.8V701.8z"/>
<path class="st0" d="M297,166.7c0,3.7-3,6.8-6.8,6.8H33.8c-3.7,0-6.8-3-6.8-6.8V90.2c0-3.7,3-6.8,6.8-6.8h256.5c3.7,0,6.8,3,6.8,6.8
	V166.7z"/>
<g>
	<path class="st0" d="M585,273.7c0,3.7-3,6.8-6.8,6.8H321.8c-3.7,0-6.8-3-6.8-6.8v-76.5c0-3.7,3-6.7,6.8-6.7h256.5
		c3.7,0,6.8,3,6.8,6.7V273.7z"/>
	<path class="st0" d="M585,487.8c0,3.7-3,6.8-6.8,6.8H321.8c-3.7,0-6.8-3-6.8-6.8v-76.5c0-3.7,3-6.8,6.8-6.8h256.5
		c3.7,0,6.8,3,6.8,6.8V487.8z"/>
	<path class="st0" d="M585,380.7c0,3.7-3,6.8-6.8,6.8H321.8c-3.7,0-6.8-3-6.8-6.8v-76.5c0-3.7,3-6.8,6.8-6.8h256.5
		c3.7,0,6.8,3,6.8,6.8V380.7z"/>
	<path class="st0" d="M585,594.8c0,3.7-3,6.8-6.8,6.8H321.8c-3.7,0-6.8-3-6.8-6.8v-76.5c0-3.7,3-6.8,6.8-6.8h256.5
		c3.7,0,6.8,3,6.8,6.8V594.8z"/>
	<path class="st0" d="M585,701.8c0,3.7-3,6.8-6.8,6.8H321.8c-3.7,0-6.8-3-6.8-6.8v-76.5c0-3.7,3-6.8,6.8-6.8h256.5
		c3.7,0,6.8,3,6.8,6.8V701.8z"/>
	<path class="st0" d="M585,166.7c0,3.7-3,6.8-6.8,6.8H321.8c-3.7,0-6.8-3-6.8-6.8V90.2c0-3.7,3-6.8,6.8-6.8h256.5
		c3.7,0,6.8,3,6.8,6.8V166.7z"/>
</g>
<rect class="st0" width="612" height="792"/>
</svg>
