<?xml version="1.0" encoding="utf-8"?>
<!-- Generator: Adobe Illustrator 20.1.0, SVG Export Plug-In . SVG Version: 6.00 Build 0)  -->
<svg version="1.1" id="Layer_1" xmlns="http://www.w3.org/2000/svg" xmlns:xlink="http://www.w3.org/1999/xlink" x="0px" y="0px"
	 viewBox="0 0 612 792" style="enable-background:new 0 0 612 792;" xml:space="preserve">
<style type="text/css">
	.st0{fill:none;stroke:#000000;stroke-width:2;stroke-miterlimit:2.6131;}
</style>
<rect x="27" y="18" class="st0" width="139.5" height="54"/>
<rect x="27" y="666" class="st0" width="139.5" height="54"/>
<rect x="27" y="612" class="st0" width="139.5" height="54"/>
<rect x="27" y="558" class="st0" width="139.5" height="54"/>
<rect x="27" y="504" class="st0" width="139.5" height="54"/>
<rect x="27" y="450" class="st0" width="139.5" height="54"/>
<rect x="27" y="396" class="st0" width="139.5" height="54"/>
<rect x="27" y="342" class="st0" width="139.5" height="54"/>
<rect x="27" y="288" class="st0" width="139.5" height="54"/>
<rect x="27" y="234" class="st0" width="139.5" height="54"/>
<rect x="27" y="180" class="st0" width="139.5" height="54"/>
<rect x="27" y="126" class="st0" width="139.5" height="54"/>
<rect x="27" y="72" class="st0" width="139.5" height="54"/>
<rect x="27" y="720" class="st0" width="139.5" height="54"/>
<rect x="166.5" y="18" class="st0" width="139.5" height="54"/>
<rect x="166.5" y="666" class="st0" width="139.5" height="54"/>
<rect x="166.5" y="612" class="st0" width="139.5" height="54"/>
<rect x="166.5" y="558" class="st0" width="139.5" height="54"/>
<rect x="166.5" y="504" class="st0" width="139.5" height="54"/>
<rect x="166.5" y="450" class="st0" width="139.5" height="54"/>
<rect x="166.5" y="396" class="st0" width="139.5" height="54"/>
<rect x="166.5" y="342" class="st0" width="139.5" height="54"/>
<rect x="166.5" y="288" class="st0" width="139.5" height="54"/>
<rect x="166.5" y="234" class="st0" width="139.5" height="54"/>
<rect x="166.5" y="180" class="st0" width="139.5" height="54"/>
<rect x="166.5" y="126" class="st0" width="139.5" height="54"/>
<rect x="166.5" y="72" class="st0" width="139.5" height="54"/>
<rect x="166.5" y="720" class="st0" width="139.5" height="54"/>
<rect x="306" y="18" class="st0" width="139.5" height="54"/>
<rect x="306" y="666" class="st0" width="139.5" height="54"/>
<rect x="306" y="612" class="st0" width="139.5" height="54"/>
<rect x="306" y="558" class="st0" width="139.5" height="54"/>
<rect x="306" y="504" class="st0" width="139.5" height="54"/>
<rect x="306" y="450" class="st0" width="139.5" height="54"/>
<rect x="306" y="396" class="st0" width="139.5" height="54"/>
<rect x="306" y="342" class="st0" width="139.5" height="54"/>
<rect x="306" y="288" class="st0" width="139.5" height="54"/>
<rect x="306" y="234" class="st0" width="139.5" height="54"/>
<rect x="306" y="180" class="st0" width="139.5" height="54"/>
<rect x="306" y="126" class="st0" width="139.5" height="54"/>
<rect x="306" y="72" class="st0" width="139.5" height="54"/>
<rect x="306" y="720" class="st0" width="139.5" height="54"/>
<rect x="445.5" y="18" class="st0" width="139.5" height="54"/>
<rect x="445.5" y="666" class="st0" width="139.5" height="54"/>
<rect x="445.5" y="612" class="st0" width="139.5" height="54"/>
<rect x="445.5" y="558" class="st0" width="139.5" height="54"/>
<rect x="445.5" y="504" class="st0" width="139.5" height="54"/>
<rect x="445.5" y="450" class="st0" width="139.5" height="54"/>
<rect x="445.5" y="396" class="st0" width="139.5" height="54"/>
<rect x="445.5" y="342" class="st0" width="139.5" height="54"/>
<rect x="445.5" y="288" class="st0" width="139.5" height="54"/>
<rect x="445.5" y="234" class="st0" width="139.5" height="54"/>
<rect x="445.5" y="180" class="st0" width="139.5" height="54"/>
<rect x="445.5" y="126" class="st0" width="139.5" height="54"/>
<rect x="445.5" y="72" class="st0" width="139.5" height="54"/>
<rect x="445.5" y="720" class="st0" width="139.5" height="54"/>
<line class="st0" x1="0" y1="0" x2="0" y2="792"/>
<line class="st0" x1="0" y1="0" x2="612" y2="0"/>
<line class="st0" x1="0" y1="792" x2="612" y2="792"/>
<line class="st0" x1="612" y1="0" x2="612" y2="792"/>
</svg>
