<?xml version="1.0" encoding="utf-8"?>
<!-- Generator: Adobe Illustrator 20.1.0, SVG Export Plug-In . SVG Version: 6.00 Build 0)  -->
<svg version="1.1" id="Layer_1" xmlns="http://www.w3.org/2000/svg" xmlns:xlink="http://www.w3.org/1999/xlink" x="0px" y="0px"
	 viewBox="0 0 612 792" style="enable-background:new 0 0 612 792;" xml:space="preserve">
<style type="text/css">
	.st0{fill:none;stroke:#000000;stroke-width:2;stroke-miterlimit:10;}
	.st1{fill:none;stroke:#000000;stroke-width:2;}
</style>
<g>
	<path class="st0" d="M104.5,36.5H158c5.2,0,9.5,4.3,9.5,9.5v35c0,5.2-4.3,9.5-9.5,9.5H51c-5.2,0-9.5-4.3-9.5-9.5V46
		c0-5.2,4.3-9.5,9.5-9.5H104.5z"/>
	<path class="st0" d="M239.5,36.5H293c5.2,0,9.5,4.3,9.5,9.5v35c0,5.2-4.3,9.5-9.5,9.5H186c-5.2,0-9.5-4.3-9.5-9.5V46
		c0-5.2,4.3-9.5,9.5-9.5H239.5z"/>
	<path class="st0" d="M374.5,36.5H428c5.2,0,9.5,4.3,9.5,9.5v35c0,5.2-4.3,9.5-9.5,9.5H321c-5.2,0-9.5-4.3-9.5-9.5V46
		c0-5.2,4.3-9.5,9.5-9.5H374.5z"/>
	<path class="st0" d="M509.5,36.5H563c5.2,0,9.5,4.3,9.5,9.5v35c0,5.2-4.3,9.5-9.5,9.5H456c-5.2,0-9.5-4.3-9.5-9.5V46
		c0-5.2,4.3-9.5,9.5-9.5H509.5z"/>
</g>
<g>
	<path class="st0" d="M104.5,97H158c5.2,0,9.5,4.3,9.5,9.5v35c0,5.2-4.3,9.5-9.5,9.5H51c-5.2,0-9.5-4.3-9.5-9.5v-35
		c0-5.2,4.3-9.5,9.5-9.5H104.5z"/>
	<path class="st0" d="M239.5,97H293c5.2,0,9.5,4.3,9.5,9.5v35c0,5.2-4.3,9.5-9.5,9.5H186c-5.2,0-9.5-4.3-9.5-9.5v-35
		c0-5.2,4.3-9.5,9.5-9.5H239.5z"/>
	<path class="st0" d="M374.5,97H428c5.2,0,9.5,4.3,9.5,9.5v35c0,5.2-4.3,9.5-9.5,9.5H321c-5.2,0-9.5-4.3-9.5-9.5v-35
		c0-5.2,4.3-9.5,9.5-9.5H374.5z"/>
	<path class="st0" d="M509.5,97H563c5.2,0,9.5,4.3,9.5,9.5v35c0,5.2-4.3,9.5-9.5,9.5H456c-5.2,0-9.5-4.3-9.5-9.5v-35
		c0-5.2,4.3-9.5,9.5-9.5H509.5z"/>
</g>
<g>
	<path class="st0" d="M104.5,157.6H158c5.2,0,9.5,4.3,9.5,9.5v35c0,5.2-4.3,9.5-9.5,9.5H51c-5.2,0-9.5-4.3-9.5-9.5v-35
		c0-5.2,4.3-9.5,9.5-9.5H104.5z"/>
	<path class="st0" d="M239.5,157.6H293c5.2,0,9.5,4.3,9.5,9.5v35c0,5.2-4.3,9.5-9.5,9.5H186c-5.2,0-9.5-4.3-9.5-9.5v-35
		c0-5.2,4.3-9.5,9.5-9.5H239.5z"/>
	<path class="st0" d="M374.5,157.6H428c5.2,0,9.5,4.3,9.5,9.5v35c0,5.2-4.3,9.5-9.5,9.5H321c-5.2,0-9.5-4.3-9.5-9.5v-35
		c0-5.2,4.3-9.5,9.5-9.5H374.5z"/>
	<path class="st0" d="M509.5,157.6H563c5.2,0,9.5,4.3,9.5,9.5v35c0,5.2-4.3,9.5-9.5,9.5H456c-5.2,0-9.5-4.3-9.5-9.5v-35
		c0-5.2,4.3-9.5,9.5-9.5H509.5z"/>
</g>
<g>
	<path class="st0" d="M104.5,218.1H158c5.2,0,9.5,4.3,9.5,9.5v35c0,5.2-4.3,9.5-9.5,9.5H51c-5.2,0-9.5-4.3-9.5-9.5v-35
		c0-5.2,4.3-9.5,9.5-9.5H104.5z"/>
	<path class="st0" d="M239.5,218.1H293c5.2,0,9.5,4.3,9.5,9.5v35c0,5.2-4.3,9.5-9.5,9.5H186c-5.2,0-9.5-4.3-9.5-9.5v-35
		c0-5.2,4.3-9.5,9.5-9.5H239.5z"/>
	<path class="st0" d="M374.5,218.1H428c5.2,0,9.5,4.3,9.5,9.5v35c0,5.2-4.3,9.5-9.5,9.5H321c-5.2,0-9.5-4.3-9.5-9.5v-35
		c0-5.2,4.3-9.5,9.5-9.5H374.5z"/>
	<path class="st0" d="M509.5,218.1H563c5.2,0,9.5,4.3,9.5,9.5v35c0,5.2-4.3,9.5-9.5,9.5H456c-5.2,0-9.5-4.3-9.5-9.5v-35
		c0-5.2,4.3-9.5,9.5-9.5H509.5z"/>
</g>
<g>
	<path class="st0" d="M104.5,278.7H158c5.2,0,9.5,4.3,9.5,9.5v35c0,5.2-4.3,9.5-9.5,9.5H51c-5.2,0-9.5-4.3-9.5-9.5v-35
		c0-5.2,4.3-9.5,9.5-9.5H104.5z"/>
	<path class="st0" d="M239.5,278.7H293c5.2,0,9.5,4.3,9.5,9.5v35c0,5.2-4.3,9.5-9.5,9.5H186c-5.2,0-9.5-4.3-9.5-9.5v-35
		c0-5.2,4.3-9.5,9.5-9.5H239.5z"/>
	<path class="st0" d="M374.5,278.7H428c5.2,0,9.5,4.3,9.5,9.5v35c0,5.2-4.3,9.5-9.5,9.5H321c-5.2,0-9.5-4.3-9.5-9.5v-35
		c0-5.2,4.3-9.5,9.5-9.5H374.5z"/>
	<path class="st0" d="M509.5,278.7H563c5.2,0,9.5,4.3,9.5,9.5v35c0,5.2-4.3,9.5-9.5,9.5H456c-5.2,0-9.5-4.3-9.5-9.5v-35
		c0-5.2,4.3-9.5,9.5-9.5H509.5z"/>
</g>
<g>
	<path class="st0" d="M104.5,339.2H158c5.2,0,9.5,4.3,9.5,9.5v35c0,5.2-4.3,9.5-9.5,9.5H51c-5.2,0-9.5-4.3-9.5-9.5v-35
		c0-5.2,4.3-9.5,9.5-9.5H104.5z"/>
	<path class="st0" d="M239.5,339.2H293c5.2,0,9.5,4.3,9.5,9.5v35c0,5.2-4.3,9.5-9.5,9.5H186c-5.2,0-9.5-4.3-9.5-9.5v-35
		c0-5.2,4.3-9.5,9.5-9.5H239.5z"/>
	<path class="st0" d="M374.5,339.2H428c5.2,0,9.5,4.3,9.5,9.5v35c0,5.2-4.3,9.5-9.5,9.5H321c-5.2,0-9.5-4.3-9.5-9.5v-35
		c0-5.2,4.3-9.5,9.5-9.5H374.5z"/>
	<path class="st0" d="M509.5,339.2H563c5.2,0,9.5,4.3,9.5,9.5v35c0,5.2-4.3,9.5-9.5,9.5H456c-5.2,0-9.5-4.3-9.5-9.5v-35
		c0-5.2,4.3-9.5,9.5-9.5H509.5z"/>
</g>
<g>
	<path class="st0" d="M104.5,460.3H158c5.2,0,9.5,4.3,9.5,9.5v35c0,5.2-4.3,9.5-9.5,9.5H51c-5.2,0-9.5-4.3-9.5-9.5v-35
		c0-5.2,4.3-9.5,9.5-9.5H104.5z"/>
	<path class="st0" d="M239.5,460.3H293c5.2,0,9.5,4.3,9.5,9.5v35c0,5.2-4.3,9.5-9.5,9.5H186c-5.2,0-9.5-4.3-9.5-9.5v-35
		c0-5.2,4.3-9.5,9.5-9.5H239.5z"/>
	<path class="st0" d="M374.5,460.3H428c5.2,0,9.5,4.3,9.5,9.5v35c0,5.2-4.3,9.5-9.5,9.5H321c-5.2,0-9.5-4.3-9.5-9.5v-35
		c0-5.2,4.3-9.5,9.5-9.5H374.5z"/>
	<path class="st0" d="M509.5,460.3H563c5.2,0,9.5,4.3,9.5,9.5v35c0,5.2-4.3,9.5-9.5,9.5H456c-5.2,0-9.5-4.3-9.5-9.5v-35
		c0-5.2,4.3-9.5,9.5-9.5H509.5z"/>
</g>
<g>
	<path class="st0" d="M104.5,520.9H158c5.2,0,9.5,4.3,9.5,9.5v35c0,5.2-4.3,9.5-9.5,9.5H51c-5.2,0-9.5-4.3-9.5-9.5v-35
		c0-5.2,4.3-9.5,9.5-9.5H104.5z"/>
	<path class="st0" d="M239.5,520.9H293c5.2,0,9.5,4.3,9.5,9.5v35c0,5.2-4.3,9.5-9.5,9.5H186c-5.2,0-9.5-4.3-9.5-9.5v-35
		c0-5.2,4.3-9.5,9.5-9.5H239.5z"/>
	<path class="st0" d="M374.5,520.9H428c5.2,0,9.5,4.3,9.5,9.5v35c0,5.2-4.3,9.5-9.5,9.5H321c-5.2,0-9.5-4.3-9.5-9.5v-35
		c0-5.2,4.3-9.5,9.5-9.5H374.5z"/>
	<path class="st0" d="M509.5,520.9H563c5.2,0,9.5,4.3,9.5,9.5v35c0,5.2-4.3,9.5-9.5,9.5H456c-5.2,0-9.5-4.3-9.5-9.5v-35
		c0-5.2,4.3-9.5,9.5-9.5H509.5z"/>
</g>
<g>
	<path class="st0" d="M104.5,581.4H158c5.2,0,9.5,4.3,9.5,9.5v35c0,5.2-4.3,9.5-9.5,9.5H51c-5.2,0-9.5-4.3-9.5-9.5v-35
		c0-5.2,4.3-9.5,9.5-9.5H104.5z"/>
	<path class="st0" d="M239.5,581.4H293c5.2,0,9.5,4.3,9.5,9.5v35c0,5.2-4.3,9.5-9.5,9.5H186c-5.2,0-9.5-4.3-9.5-9.5v-35
		c0-5.2,4.3-9.5,9.5-9.5H239.5z"/>
	<path class="st0" d="M374.5,581.4H428c5.2,0,9.5,4.3,9.5,9.5v35c0,5.2-4.3,9.5-9.5,9.5H321c-5.2,0-9.5-4.3-9.5-9.5v-35
		c0-5.2,4.3-9.5,9.5-9.5H374.5z"/>
	<path class="st0" d="M509.5,581.4H563c5.2,0,9.5,4.3,9.5,9.5v35c0,5.2-4.3,9.5-9.5,9.5H456c-5.2,0-9.5-4.3-9.5-9.5v-35
		c0-5.2,4.3-9.5,9.5-9.5H509.5z"/>
</g>
<g>
	<path class="st0" d="M104.5,641.9H158c5.2,0,9.5,4.3,9.5,9.5v35c0,5.2-4.3,9.5-9.5,9.5H51c-5.2,0-9.5-4.3-9.5-9.5v-35
		c0-5.2,4.3-9.5,9.5-9.5H104.5z"/>
	<path class="st0" d="M239.5,641.9H293c5.2,0,9.5,4.3,9.5,9.5v35c0,5.2-4.3,9.5-9.5,9.5H186c-5.2,0-9.5-4.3-9.5-9.5v-35
		c0-5.2,4.3-9.5,9.5-9.5H239.5z"/>
	<path class="st0" d="M374.5,641.9H428c5.2,0,9.5,4.3,9.5,9.5v35c0,5.2-4.3,9.5-9.5,9.5H321c-5.2,0-9.5-4.3-9.5-9.5v-35
		c0-5.2,4.3-9.5,9.5-9.5H374.5z"/>
	<path class="st0" d="M509.5,641.9H563c5.2,0,9.5,4.3,9.5,9.5v35c0,5.2-4.3,9.5-9.5,9.5H456c-5.2,0-9.5-4.3-9.5-9.5v-35
		c0-5.2,4.3-9.5,9.5-9.5H509.5z"/>
</g>
<g>
	<path class="st0" d="M104.5,702.5H158c5.2,0,9.5,4.3,9.5,9.5v35c0,5.2-4.3,9.5-9.5,9.5H51c-5.2,0-9.5-4.3-9.5-9.5v-35
		c0-5.2,4.3-9.5,9.5-9.5H104.5z"/>
	<path class="st0" d="M239.5,702.5H293c5.2,0,9.5,4.3,9.5,9.5v35c0,5.2-4.3,9.5-9.5,9.5H186c-5.2,0-9.5-4.3-9.5-9.5v-35
		c0-5.2,4.3-9.5,9.5-9.5H239.5z"/>
	<path class="st0" d="M374.5,702.5H428c5.2,0,9.5,4.3,9.5,9.5v35c0,5.2-4.3,9.5-9.5,9.5H321c-5.2,0-9.5-4.3-9.5-9.5v-35
		c0-5.2,4.3-9.5,9.5-9.5H374.5z"/>
	<path class="st0" d="M509.5,702.5H563c5.2,0,9.5,4.3,9.5,9.5v35c0,5.2-4.3,9.5-9.5,9.5H456c-5.2,0-9.5-4.3-9.5-9.5v-35
		c0-5.2,4.3-9.5,9.5-9.5H509.5z"/>
</g>
<g>
	<path class="st0" d="M104.5,399.8H158c5.2,0,9.5,4.3,9.5,9.5v35c0,5.2-4.3,9.5-9.5,9.5H51c-5.2,0-9.5-4.3-9.5-9.5v-35
		c0-5.2,4.3-9.5,9.5-9.5H104.5z"/>
	<path class="st0" d="M239.5,399.8H293c5.2,0,9.5,4.3,9.5,9.5v35c0,5.2-4.3,9.5-9.5,9.5H186c-5.2,0-9.5-4.3-9.5-9.5v-35
		c0-5.2,4.3-9.5,9.5-9.5H239.5z"/>
	<path class="st0" d="M374.5,399.8H428c5.2,0,9.5,4.3,9.5,9.5v35c0,5.2-4.3,9.5-9.5,9.5H321c-5.2,0-9.5-4.3-9.5-9.5v-35
		c0-5.2,4.3-9.5,9.5-9.5H374.5z"/>
	<path class="st0" d="M509.5,399.8H563c5.2,0,9.5,4.3,9.5,9.5v35c0,5.2-4.3,9.5-9.5,9.5H456c-5.2,0-9.5-4.3-9.5-9.5v-35
		c0-5.2,4.3-9.5,9.5-9.5H509.5z"/>
</g>
<rect class="st1" width="612" height="792"/>
</svg>
