<?xml version="1.0" encoding="utf-8"?>
<!-- Generator: Adobe Illustrator 20.1.0, SVG Export Plug-In . SVG Version: 6.00 Build 0)  -->
<svg version="1.1" id="Layer_2" xmlns="http://www.w3.org/2000/svg" xmlns:xlink="http://www.w3.org/1999/xlink" x="0px" y="0px"
	 viewBox="0 0 612 792" style="enable-background:new 0 0 612 792;" xml:space="preserve">
<style type="text/css">
	.st0{fill:none;stroke:#000000;stroke-width:2;stroke-miterlimit:10;}
</style>
<g>
	<path class="st0" d="M226.4,34.3h159.1c2,0,3.7,0.9,3.7,2v41c0,1.1-1.7,2-3.7,2H226.4c-2,0-3.7-0.9-3.7-2v-41
		C222.7,35.2,224.4,34.3,226.4,34.3z"/>
	<path class="st0" d="M226.4,683.4h159.1c2,0,3.7,0.9,3.7,2v41c0,1.1-1.7,2-3.7,2H226.4c-2,0-3.7-0.9-3.7-2v-41
		C222.7,684.3,224.4,683.4,226.4,683.4z"/>
	<path class="st0" d="M226.4,629.3h159.1c2,0,3.7,0.9,3.7,2v41c0,1.1-1.7,2-3.7,2H226.4c-2,0-3.7-0.9-3.7-2v-41
		C222.7,630.2,224.4,629.3,226.4,629.3z"/>
	<path class="st0" d="M226.4,575.2h159.1c2,0,3.7,0.9,3.7,2v41c0,1.1-1.7,2-3.7,2H226.4c-2,0-3.7-0.9-3.7-2v-41
		C222.7,576.1,224.4,575.2,226.4,575.2z"/>
	<path class="st0" d="M226.4,521.1h159.1c2,0,3.7,0.9,3.7,2v40.9c0,1.1-1.7,2-3.7,2H226.4c-2,0-3.7-0.9-3.7-2v-40.9
		C222.7,522,224.4,521.1,226.4,521.1z"/>
	<path class="st0" d="M226.4,467h159.1c2,0,3.7,0.9,3.7,2V510c0,1.1-1.7,2-3.7,2H226.4c-2,0-3.7-0.9-3.7-2V469
		C222.7,467.9,224.4,467,226.4,467z"/>
	<path class="st0" d="M226.4,412.9h159.1c2,0,3.7,0.9,3.7,2v41c0,1.1-1.7,2-3.7,2H226.4c-2,0-3.7-0.9-3.7-2v-41
		C222.7,413.8,224.4,412.9,226.4,412.9z"/>
	<path class="st0" d="M226.4,358.8h159.1c2,0,3.7,0.9,3.7,2v41c0,1.1-1.7,2-3.7,2H226.4c-2,0-3.7-0.9-3.7-2v-41
		C222.7,359.7,224.4,358.8,226.4,358.8z"/>
	<path class="st0" d="M226.4,304.7h159.1c2,0,3.7,0.9,3.7,2v41c0,1.1-1.7,2-3.7,2H226.4c-2,0-3.7-0.9-3.7-2v-41
		C222.7,305.6,224.4,304.7,226.4,304.7z"/>
	<path class="st0" d="M226.4,250.6h159.1c2,0,3.7,0.9,3.7,2v41c0,1.1-1.7,2-3.7,2H226.4c-2,0-3.7-0.9-3.7-2v-41
		C222.7,251.5,224.4,250.6,226.4,250.6z"/>
	<path class="st0" d="M226.4,196.5h159.1c2,0,3.7,0.9,3.7,2v40.9c0,1.1-1.7,2-3.7,2H226.4c-2,0-3.7-0.9-3.7-2v-40.9
		C222.7,197.4,224.4,196.5,226.4,196.5z"/>
	<path class="st0" d="M226.4,142.4h159.1c2,0,3.7,0.9,3.7,2v40.9c0,1.1-1.7,2-3.7,2H226.4c-2,0-3.7-0.9-3.7-2v-40.9
		C222.7,143.4,224.4,142.4,226.4,142.4z"/>
	<path class="st0" d="M226.4,88.3h159.1c2,0,3.7,0.9,3.7,2v41c0,1.1-1.7,2-3.7,2H226.4c-2,0-3.7-0.9-3.7-2v-41
		C222.7,89.3,224.4,88.3,226.4,88.3z"/>
	<path class="st0" d="M226.4,737.5h159.1c2,0,3.7,0.9,3.7,2v40.9c0,1.1-1.7,2-3.7,2H226.4c-2,0-3.7-0.9-3.7-2v-40.9
		C222.7,738.4,224.4,737.5,226.4,737.5z"/>
</g>
<g>
	<path class="st0" d="M401.9,34.3H561c2,0,3.7,0.9,3.7,2v41c0,1.1-1.7,2-3.7,2H401.9c-2,0-3.7-0.9-3.7-2v-41
		C398.2,35.2,399.9,34.3,401.9,34.3z"/>
	<path class="st0" d="M401.9,683.4H561c2,0,3.7,0.9,3.7,2v41c0,1.1-1.7,2-3.7,2H401.9c-2,0-3.7-0.9-3.7-2v-41
		C398.2,684.3,399.9,683.4,401.9,683.4z"/>
	<path class="st0" d="M401.9,629.3H561c2,0,3.7,0.9,3.7,2v41c0,1.1-1.7,2-3.7,2H401.9c-2,0-3.7-0.9-3.7-2v-41
		C398.2,630.2,399.9,629.3,401.9,629.3z"/>
	<path class="st0" d="M401.9,575.2H561c2,0,3.7,0.9,3.7,2v41c0,1.1-1.7,2-3.7,2H401.9c-2,0-3.7-0.9-3.7-2v-41
		C398.2,576.1,399.9,575.2,401.9,575.2z"/>
	<path class="st0" d="M401.9,521.1H561c2,0,3.7,0.9,3.7,2v40.9c0,1.1-1.7,2-3.7,2H401.9c-2,0-3.7-0.9-3.7-2v-40.9
		C398.2,522,399.9,521.1,401.9,521.1z"/>
	<path class="st0" d="M401.9,467H561c2,0,3.7,0.9,3.7,2V510c0,1.1-1.7,2-3.7,2H401.9c-2,0-3.7-0.9-3.7-2V469
		C398.2,467.9,399.9,467,401.9,467z"/>
	<path class="st0" d="M401.9,412.9H561c2,0,3.7,0.9,3.7,2v41c0,1.1-1.7,2-3.7,2H401.9c-2,0-3.7-0.9-3.7-2v-41
		C398.2,413.8,399.9,412.9,401.9,412.9z"/>
	<path class="st0" d="M401.9,358.8H561c2,0,3.7,0.9,3.7,2v41c0,1.1-1.7,2-3.7,2H401.9c-2,0-3.7-0.9-3.7-2v-41
		C398.2,359.7,399.9,358.8,401.9,358.8z"/>
	<path class="st0" d="M401.9,304.7H561c2,0,3.7,0.9,3.7,2v41c0,1.1-1.7,2-3.7,2H401.9c-2,0-3.7-0.9-3.7-2v-41
		C398.2,305.6,399.9,304.7,401.9,304.7z"/>
	<path class="st0" d="M401.9,250.6H561c2,0,3.7,0.9,3.7,2v41c0,1.1-1.7,2-3.7,2H401.9c-2,0-3.7-0.9-3.7-2v-41
		C398.2,251.5,399.9,250.6,401.9,250.6z"/>
	<path class="st0" d="M401.9,196.5H561c2,0,3.7,0.9,3.7,2v40.9c0,1.1-1.7,2-3.7,2H401.9c-2,0-3.7-0.9-3.7-2v-40.9
		C398.2,197.4,399.9,196.5,401.9,196.5z"/>
	<path class="st0" d="M401.9,142.4H561c2,0,3.7,0.9,3.7,2v40.9c0,1.1-1.7,2-3.7,2H401.9c-2,0-3.7-0.9-3.7-2v-40.9
		C398.2,143.4,399.9,142.4,401.9,142.4z"/>
	<path class="st0" d="M401.9,88.3H561c2,0,3.7,0.9,3.7,2v41c0,1.1-1.7,2-3.7,2H401.9c-2,0-3.7-0.9-3.7-2v-41
		C398.2,89.3,399.9,88.3,401.9,88.3z"/>
	<path class="st0" d="M401.9,737.5H561c2,0,3.7,0.9,3.7,2v40.9c0,1.1-1.7,2-3.7,2H401.9c-2,0-3.7-0.9-3.7-2v-40.9
		C398.2,738.4,399.9,737.5,401.9,737.5z"/>
</g>
<line class="st0" x1="0" y1="24.3" x2="612" y2="24.3"/>
<g>
	<path class="st0" d="M50.9,34.3h159.1c2,0,3.7,0.9,3.7,2v41c0,1.1-1.7,2-3.7,2H50.9c-2,0-3.7-0.9-3.7-2v-41
		C47.3,35.2,48.9,34.3,50.9,34.3z"/>
	<path class="st0" d="M50.9,683.4h159.1c2,0,3.7,0.9,3.7,2v41c0,1.1-1.7,2-3.7,2H50.9c-2,0-3.7-0.9-3.7-2v-41
		C47.3,684.3,48.9,683.4,50.9,683.4z"/>
	<path class="st0" d="M50.9,629.3h159.1c2,0,3.7,0.9,3.7,2v41c0,1.1-1.7,2-3.7,2H50.9c-2,0-3.7-0.9-3.7-2v-41
		C47.3,630.2,48.9,629.3,50.9,629.3z"/>
	<path class="st0" d="M50.9,575.2h159.1c2,0,3.7,0.9,3.7,2v41c0,1.1-1.7,2-3.7,2H50.9c-2,0-3.7-0.9-3.7-2v-41
		C47.3,576.1,48.9,575.2,50.9,575.2z"/>
	<path class="st0" d="M50.9,521.1h159.1c2,0,3.7,0.9,3.7,2v40.9c0,1.1-1.7,2-3.7,2H50.9c-2,0-3.7-0.9-3.7-2v-40.9
		C47.3,522,48.9,521.1,50.9,521.1z"/>
	<path class="st0" d="M50.9,467h159.1c2,0,3.7,0.9,3.7,2V510c0,1.1-1.7,2-3.7,2H50.9c-2,0-3.7-0.9-3.7-2V469
		C47.3,467.9,48.9,467,50.9,467z"/>
	<path class="st0" d="M50.9,412.9h159.1c2,0,3.7,0.9,3.7,2v41c0,1.1-1.7,2-3.7,2H50.9c-2,0-3.7-0.9-3.7-2v-41
		C47.3,413.8,48.9,412.9,50.9,412.9z"/>
	<path class="st0" d="M50.9,358.8h159.1c2,0,3.7,0.9,3.7,2v41c0,1.1-1.7,2-3.7,2H50.9c-2,0-3.7-0.9-3.7-2v-41
		C47.3,359.7,48.9,358.8,50.9,358.8z"/>
	<path class="st0" d="M50.9,304.7h159.1c2,0,3.7,0.9,3.7,2v41c0,1.1-1.7,2-3.7,2H50.9c-2,0-3.7-0.9-3.7-2v-41
		C47.3,305.6,48.9,304.7,50.9,304.7z"/>
	<path class="st0" d="M50.9,250.6h159.1c2,0,3.7,0.9,3.7,2v41c0,1.1-1.7,2-3.7,2H50.9c-2,0-3.7-0.9-3.7-2v-41
		C47.3,251.5,48.9,250.6,50.9,250.6z"/>
	<path class="st0" d="M50.9,196.5h159.1c2,0,3.7,0.9,3.7,2v40.9c0,1.1-1.7,2-3.7,2H50.9c-2,0-3.7-0.9-3.7-2v-40.9
		C47.3,197.4,48.9,196.5,50.9,196.5z"/>
	<path class="st0" d="M50.9,142.4h159.1c2,0,3.7,0.9,3.7,2v40.9c0,1.1-1.7,2-3.7,2H50.9c-2,0-3.7-0.9-3.7-2v-40.9
		C47.3,143.4,48.9,142.4,50.9,142.4z"/>
	<path class="st0" d="M50.9,88.3h159.1c2,0,3.7,0.9,3.7,2v41c0,1.1-1.7,2-3.7,2H50.9c-2,0-3.7-0.9-3.7-2v-41
		C47.3,89.3,48.9,88.3,50.9,88.3z"/>
	<path class="st0" d="M50.9,737.5h159.1c2,0,3.7,0.9,3.7,2v40.9c0,1.1-1.7,2-3.7,2H50.9c-2,0-3.7-0.9-3.7-2v-40.9
		C47.3,738.4,48.9,737.5,50.9,737.5z"/>
</g>
<rect class="st0" width="612" height="792"/>
</svg>
