<?xml version="1.0" encoding="utf-8"?>
<!-- Generator: Adobe Illustrator 20.1.0, SVG Export Plug-In . SVG Version: 6.00 Build 0)  -->
<svg version="1.1" id="Layer_1" xmlns="http://www.w3.org/2000/svg" xmlns:xlink="http://www.w3.org/1999/xlink" x="0px" y="0px"
	 viewBox="0 0 612 792" style="enable-background:new 0 0 612 792;" xml:space="preserve">
<style type="text/css">
	.st0{fill:none;stroke:#000000;stroke-width:2;stroke-miterlimit:10;}
</style>
<rect x="18" y="13.5" class="st0" width="72" height="45"/>
<rect x="18" y="688.5" class="st0" width="72" height="45"/>
<rect x="18" y="643.5" class="st0" width="72" height="45"/>
<rect x="18" y="598.5" class="st0" width="72" height="45"/>
<rect x="18" y="553.5" class="st0" width="72" height="45"/>
<rect x="18" y="508.5" class="st0" width="72" height="45"/>
<rect x="18" y="418.5" class="st0" width="72" height="45"/>
<rect x="18" y="463.5" class="st0" width="72" height="45"/>
<rect x="18" y="373.5" class="st0" width="72" height="45"/>
<rect x="18" y="328.5" class="st0" width="72" height="45"/>
<rect x="18" y="283.5" class="st0" width="72" height="45"/>
<rect x="18" y="238.5" class="st0" width="72" height="45"/>
<rect x="18" y="193.5" class="st0" width="72" height="45"/>
<rect x="18" y="148.5" class="st0" width="72" height="45"/>
<rect x="18" y="103.5" class="st0" width="72" height="45"/>
<rect x="18" y="58.5" class="st0" width="72" height="45"/>
<rect x="18" y="733.5" class="st0" width="72" height="45"/>
<rect x="90" y="13.5" class="st0" width="72" height="45"/>
<rect x="90" y="688.5" class="st0" width="72" height="45"/>
<rect x="90" y="643.5" class="st0" width="72" height="45"/>
<rect x="90" y="598.5" class="st0" width="72" height="45"/>
<rect x="90" y="553.5" class="st0" width="72" height="45"/>
<rect x="90" y="508.5" class="st0" width="72" height="45"/>
<rect x="90" y="418.5" class="st0" width="72" height="45"/>
<rect x="90" y="463.5" class="st0" width="72" height="45"/>
<rect x="90" y="373.5" class="st0" width="72" height="45"/>
<rect x="90" y="328.5" class="st0" width="72" height="45"/>
<rect x="90" y="283.5" class="st0" width="72" height="45"/>
<rect x="90" y="238.5" class="st0" width="72" height="45"/>
<rect x="90" y="193.5" class="st0" width="72" height="45"/>
<rect x="90" y="148.5" class="st0" width="72" height="45"/>
<rect x="90" y="103.5" class="st0" width="72" height="45"/>
<rect x="90" y="58.5" class="st0" width="72" height="45"/>
<rect x="90" y="733.5" class="st0" width="72" height="45"/>
<rect x="162" y="13.5" class="st0" width="72" height="45"/>
<rect x="162" y="688.5" class="st0" width="72" height="45"/>
<rect x="162" y="643.5" class="st0" width="72" height="45"/>
<rect x="162" y="598.5" class="st0" width="72" height="45"/>
<rect x="162" y="553.5" class="st0" width="72" height="45"/>
<rect x="162" y="508.5" class="st0" width="72" height="45"/>
<rect x="162" y="418.5" class="st0" width="72" height="45"/>
<rect x="162" y="463.5" class="st0" width="72" height="45"/>
<rect x="162" y="373.5" class="st0" width="72" height="45"/>
<rect x="162" y="328.5" class="st0" width="72" height="45"/>
<rect x="162" y="283.5" class="st0" width="72" height="45"/>
<rect x="162" y="238.5" class="st0" width="72" height="45"/>
<rect x="162" y="193.5" class="st0" width="72" height="45"/>
<rect x="162" y="148.5" class="st0" width="72" height="45"/>
<rect x="162" y="103.5" class="st0" width="72" height="45"/>
<rect x="162" y="58.5" class="st0" width="72" height="45"/>
<rect x="162" y="733.5" class="st0" width="72" height="45"/>
<rect x="234" y="13.5" class="st0" width="72" height="45"/>
<rect x="234" y="688.5" class="st0" width="72" height="45"/>
<rect x="234" y="643.5" class="st0" width="72" height="45"/>
<rect x="234" y="598.5" class="st0" width="72" height="45"/>
<rect x="234" y="553.5" class="st0" width="72" height="45"/>
<rect x="234" y="508.5" class="st0" width="72" height="45"/>
<rect x="234" y="418.5" class="st0" width="72" height="45"/>
<rect x="234" y="463.5" class="st0" width="72" height="45"/>
<rect x="234" y="373.5" class="st0" width="72" height="45"/>
<rect x="234" y="328.5" class="st0" width="72" height="45"/>
<rect x="234" y="283.5" class="st0" width="72" height="45"/>
<rect x="234" y="238.5" class="st0" width="72" height="45"/>
<rect x="234" y="193.5" class="st0" width="72" height="45"/>
<rect x="234" y="148.5" class="st0" width="72" height="45"/>
<rect x="234" y="103.5" class="st0" width="72" height="45"/>
<rect x="234" y="58.5" class="st0" width="72" height="45"/>
<rect x="234" y="733.5" class="st0" width="72" height="45"/>
<rect x="306" y="13.5" class="st0" width="72" height="45"/>
<rect x="306" y="688.5" class="st0" width="72" height="45"/>
<rect x="306" y="643.5" class="st0" width="72" height="45"/>
<rect x="306" y="598.5" class="st0" width="72" height="45"/>
<rect x="306" y="553.5" class="st0" width="72" height="45"/>
<rect x="306" y="508.5" class="st0" width="72" height="45"/>
<rect x="306" y="418.5" class="st0" width="72" height="45"/>
<rect x="306" y="463.5" class="st0" width="72" height="45"/>
<rect x="306" y="373.5" class="st0" width="72" height="45"/>
<rect x="306" y="328.5" class="st0" width="72" height="45"/>
<rect x="306" y="283.5" class="st0" width="72" height="45"/>
<rect x="306" y="238.5" class="st0" width="72" height="45"/>
<rect x="306" y="193.5" class="st0" width="72" height="45"/>
<rect x="306" y="148.5" class="st0" width="72" height="45"/>
<rect x="306" y="103.5" class="st0" width="72" height="45"/>
<rect x="306" y="58.5" class="st0" width="72" height="45"/>
<rect x="306" y="733.5" class="st0" width="72" height="45"/>
<rect x="378" y="13.5" class="st0" width="72" height="45"/>
<rect x="378" y="688.5" class="st0" width="72" height="45"/>
<rect x="378" y="643.5" class="st0" width="72" height="45"/>
<rect x="378" y="598.5" class="st0" width="72" height="45"/>
<rect x="378" y="553.5" class="st0" width="72" height="45"/>
<rect x="378" y="508.5" class="st0" width="72" height="45"/>
<rect x="378" y="418.5" class="st0" width="72" height="45"/>
<rect x="378" y="463.5" class="st0" width="72" height="45"/>
<rect x="378" y="373.5" class="st0" width="72" height="45"/>
<rect x="378" y="328.5" class="st0" width="72" height="45"/>
<rect x="378" y="283.5" class="st0" width="72" height="45"/>
<rect x="378" y="238.5" class="st0" width="72" height="45"/>
<rect x="378" y="193.5" class="st0" width="72" height="45"/>
<rect x="378" y="148.5" class="st0" width="72" height="45"/>
<rect x="378" y="103.5" class="st0" width="72" height="45"/>
<rect x="378" y="58.5" class="st0" width="72" height="45"/>
<rect x="378" y="733.5" class="st0" width="72" height="45"/>
<rect x="450" y="13.5" class="st0" width="72" height="45"/>
<rect x="450" y="688.5" class="st0" width="72" height="45"/>
<rect x="450" y="643.5" class="st0" width="72" height="45"/>
<rect x="450" y="598.5" class="st0" width="72" height="45"/>
<rect x="450" y="553.5" class="st0" width="72" height="45"/>
<rect x="450" y="508.5" class="st0" width="72" height="45"/>
<rect x="450" y="418.5" class="st0" width="72" height="45"/>
<rect x="450" y="463.5" class="st0" width="72" height="45"/>
<rect x="450" y="373.5" class="st0" width="72" height="45"/>
<rect x="450" y="328.5" class="st0" width="72" height="45"/>
<rect x="450" y="283.5" class="st0" width="72" height="45"/>
<rect x="450" y="238.5" class="st0" width="72" height="45"/>
<rect x="450" y="193.5" class="st0" width="72" height="45"/>
<rect x="450" y="148.5" class="st0" width="72" height="45"/>
<rect x="450" y="103.5" class="st0" width="72" height="45"/>
<rect x="450" y="58.5" class="st0" width="72" height="45"/>
<rect x="450" y="733.5" class="st0" width="72" height="45"/>
<rect x="522" y="13.5" class="st0" width="72" height="45"/>
<rect x="522" y="688.5" class="st0" width="72" height="45"/>
<rect x="522" y="643.5" class="st0" width="72" height="45"/>
<rect x="522" y="598.5" class="st0" width="72" height="45"/>
<rect x="522" y="553.5" class="st0" width="72" height="45"/>
<rect x="522" y="508.5" class="st0" width="72" height="45"/>
<rect x="522" y="418.5" class="st0" width="72" height="45"/>
<rect x="522" y="463.5" class="st0" width="72" height="45"/>
<rect x="522" y="373.5" class="st0" width="72" height="45"/>
<rect x="522" y="328.5" class="st0" width="72" height="45"/>
<rect x="522" y="283.5" class="st0" width="72" height="45"/>
<rect x="522" y="238.5" class="st0" width="72" height="45"/>
<rect x="522" y="193.5" class="st0" width="72" height="45"/>
<rect x="522" y="148.5" class="st0" width="72" height="45"/>
<rect x="522" y="103.5" class="st0" width="72" height="45"/>
<rect x="522" y="58.5" class="st0" width="72" height="45"/>
<rect x="522" y="733.5" class="st0" width="72" height="45"/>
<rect class="st0" width="612" height="792"/>
</svg>
