<?xml version="1.0" encoding="utf-8"?>
<!-- Generator: Adobe Illustrator 23.0.2, SVG Export Plug-In . SVG Version: 6.00 Build 0)  -->
<svg version="1.1" id="Layer_1" xmlns="http://www.w3.org/2000/svg" xmlns:xlink="http://www.w3.org/1999/xlink" x="0px" y="0px"
	 viewBox="0 0 612 792" style="enable-background:new 0 0 612 792;" xml:space="preserve">
<style type="text/css">
	.st0{fill:none;stroke:#000000;stroke-width:2;}
</style>
<rect class="st0" width="612" height="792"/>
<g>
	<g>
		<path class="st0" d="M103.5,90h-27C74,90,72,88,72,85.5v-27c0-2.5,2-4.5,4.5-4.5h27c2.5,0,4.5,2,4.5,4.5v27
			C108,88,106,90,103.5,90z"/>
		<path class="st0" d="M157.5,90h-27c-2.5,0-4.5-2-4.5-4.5v-27c0-2.5,2-4.5,4.5-4.5h27c2.5,0,4.5,2,4.5,4.5v27
			C162,88,160,90,157.5,90z"/>
		<path class="st0" d="M211.5,90h-27c-2.5,0-4.5-2-4.5-4.5v-27c0-2.5,2-4.5,4.5-4.5h27c2.5,0,4.5,2,4.5,4.5v27
			C216,88,214,90,211.5,90z"/>
		<path class="st0" d="M265.5,90h-27c-2.5,0-4.5-2-4.5-4.5v-27c0-2.5,2-4.5,4.5-4.5h27c2.5,0,4.5,2,4.5,4.5v27
			C270,88,268,90,265.5,90z"/>
		<path class="st0" d="M319.5,90h-27c-2.5,0-4.5-2-4.5-4.5v-27c0-2.5,2-4.5,4.5-4.5h27c2.5,0,4.5,2,4.5,4.5v27
			C324,88,322,90,319.5,90z"/>
		<path class="st0" d="M373.5,90h-27c-2.5,0-4.5-2-4.5-4.5v-27c0-2.5,2-4.5,4.5-4.5h27c2.5,0,4.5,2,4.5,4.5v27
			C378,88,376,90,373.5,90z"/>
		<path class="st0" d="M427.5,90h-27c-2.5,0-4.5-2-4.5-4.5v-27c0-2.5,2-4.5,4.5-4.5h27c2.5,0,4.5,2,4.5,4.5v27
			C432,88,430,90,427.5,90z"/>
		<path class="st0" d="M481.5,90h-27c-2.5,0-4.5-2-4.5-4.5v-27c0-2.5,2-4.5,4.5-4.5h27c2.5,0,4.5,2,4.5,4.5v27
			C486,88,484,90,481.5,90z"/>
		<path class="st0" d="M535.5,90h-27c-2.5,0-4.5-2-4.5-4.5v-27c0-2.5,2-4.5,4.5-4.5h27c2.5,0,4.5,2,4.5,4.5v27
			C540,88,538,90,535.5,90z"/>
	</g>
	<g>
		<path class="st0" d="M103.5,144h-27c-2.5,0-4.5-2-4.5-4.5v-27c0-2.5,2-4.5,4.5-4.5h27c2.5,0,4.5,2,4.5,4.5v27
			C108,142,106,144,103.5,144z"/>
		<path class="st0" d="M157.5,144h-27c-2.5,0-4.5-2-4.5-4.5v-27c0-2.5,2-4.5,4.5-4.5h27c2.5,0,4.5,2,4.5,4.5v27
			C162,142,160,144,157.5,144z"/>
		<path class="st0" d="M211.5,144h-27c-2.5,0-4.5-2-4.5-4.5v-27c0-2.5,2-4.5,4.5-4.5h27c2.5,0,4.5,2,4.5,4.5v27
			C216,142,214,144,211.5,144z"/>
		<path class="st0" d="M265.5,144h-27c-2.5,0-4.5-2-4.5-4.5v-27c0-2.5,2-4.5,4.5-4.5h27c2.5,0,4.5,2,4.5,4.5v27
			C270,142,268,144,265.5,144z"/>
		<path class="st0" d="M319.5,144h-27c-2.5,0-4.5-2-4.5-4.5v-27c0-2.5,2-4.5,4.5-4.5h27c2.5,0,4.5,2,4.5,4.5v27
			C324,142,322,144,319.5,144z"/>
		<path class="st0" d="M373.5,144h-27c-2.5,0-4.5-2-4.5-4.5v-27c0-2.5,2-4.5,4.5-4.5h27c2.5,0,4.5,2,4.5,4.5v27
			C378,142,376,144,373.5,144z"/>
		<path class="st0" d="M427.5,144h-27c-2.5,0-4.5-2-4.5-4.5v-27c0-2.5,2-4.5,4.5-4.5h27c2.5,0,4.5,2,4.5,4.5v27
			C432,142,430,144,427.5,144z"/>
		<path class="st0" d="M481.5,144h-27c-2.5,0-4.5-2-4.5-4.5v-27c0-2.5,2-4.5,4.5-4.5h27c2.5,0,4.5,2,4.5,4.5v27
			C486,142,484,144,481.5,144z"/>
		<path class="st0" d="M535.5,144h-27c-2.5,0-4.5-2-4.5-4.5v-27c0-2.5,2-4.5,4.5-4.5h27c2.5,0,4.5,2,4.5,4.5v27
			C540,142,538,144,535.5,144z"/>
	</g>
	<g>
		<path class="st0" d="M103.5,198h-27c-2.5,0-4.5-2-4.5-4.5v-27c0-2.5,2-4.5,4.5-4.5h27c2.5,0,4.5,2,4.5,4.5v27
			C108,196,106,198,103.5,198z"/>
		<path class="st0" d="M157.5,198h-27c-2.5,0-4.5-2-4.5-4.5v-27c0-2.5,2-4.5,4.5-4.5h27c2.5,0,4.5,2,4.5,4.5v27
			C162,196,160,198,157.5,198z"/>
		<path class="st0" d="M211.5,198h-27c-2.5,0-4.5-2-4.5-4.5v-27c0-2.5,2-4.5,4.5-4.5h27c2.5,0,4.5,2,4.5,4.5v27
			C216,196,214,198,211.5,198z"/>
		<path class="st0" d="M265.5,198h-27c-2.5,0-4.5-2-4.5-4.5v-27c0-2.5,2-4.5,4.5-4.5h27c2.5,0,4.5,2,4.5,4.5v27
			C270,196,268,198,265.5,198z"/>
		<path class="st0" d="M319.5,198h-27c-2.5,0-4.5-2-4.5-4.5v-27c0-2.5,2-4.5,4.5-4.5h27c2.5,0,4.5,2,4.5,4.5v27
			C324,196,322,198,319.5,198z"/>
		<path class="st0" d="M373.5,198h-27c-2.5,0-4.5-2-4.5-4.5v-27c0-2.5,2-4.5,4.5-4.5h27c2.5,0,4.5,2,4.5,4.5v27
			C378,196,376,198,373.5,198z"/>
		<path class="st0" d="M427.5,198h-27c-2.5,0-4.5-2-4.5-4.5v-27c0-2.5,2-4.5,4.5-4.5h27c2.5,0,4.5,2,4.5,4.5v27
			C432,196,430,198,427.5,198z"/>
		<path class="st0" d="M481.5,198h-27c-2.5,0-4.5-2-4.5-4.5v-27c0-2.5,2-4.5,4.5-4.5h27c2.5,0,4.5,2,4.5,4.5v27
			C486,196,484,198,481.5,198z"/>
		<path class="st0" d="M535.5,198h-27c-2.5,0-4.5-2-4.5-4.5v-27c0-2.5,2-4.5,4.5-4.5h27c2.5,0,4.5,2,4.5,4.5v27
			C540,196,538,198,535.5,198z"/>
	</g>
	<g>
		<path class="st0" d="M103.5,252h-27c-2.5,0-4.5-2-4.5-4.5v-27c0-2.5,2-4.5,4.5-4.5h27c2.5,0,4.5,2,4.5,4.5v27
			C108,250,106,252,103.5,252z"/>
		<path class="st0" d="M157.5,252h-27c-2.5,0-4.5-2-4.5-4.5v-27c0-2.5,2-4.5,4.5-4.5h27c2.5,0,4.5,2,4.5,4.5v27
			C162,250,160,252,157.5,252z"/>
		<path class="st0" d="M211.5,252h-27c-2.5,0-4.5-2-4.5-4.5v-27c0-2.5,2-4.5,4.5-4.5h27c2.5,0,4.5,2,4.5,4.5v27
			C216,250,214,252,211.5,252z"/>
		<path class="st0" d="M265.5,252h-27c-2.5,0-4.5-2-4.5-4.5v-27c0-2.5,2-4.5,4.5-4.5h27c2.5,0,4.5,2,4.5,4.5v27
			C270,250,268,252,265.5,252z"/>
		<path class="st0" d="M319.5,252h-27c-2.5,0-4.5-2-4.5-4.5v-27c0-2.5,2-4.5,4.5-4.5h27c2.5,0,4.5,2,4.5,4.5v27
			C324,250,322,252,319.5,252z"/>
		<path class="st0" d="M373.5,252h-27c-2.5,0-4.5-2-4.5-4.5v-27c0-2.5,2-4.5,4.5-4.5h27c2.5,0,4.5,2,4.5,4.5v27
			C378,250,376,252,373.5,252z"/>
		<path class="st0" d="M427.5,252h-27c-2.5,0-4.5-2-4.5-4.5v-27c0-2.5,2-4.5,4.5-4.5h27c2.5,0,4.5,2,4.5,4.5v27
			C432,250,430,252,427.5,252z"/>
		<path class="st0" d="M481.5,252h-27c-2.5,0-4.5-2-4.5-4.5v-27c0-2.5,2-4.5,4.5-4.5h27c2.5,0,4.5,2,4.5,4.5v27
			C486,250,484,252,481.5,252z"/>
		<path class="st0" d="M535.5,252h-27c-2.5,0-4.5-2-4.5-4.5v-27c0-2.5,2-4.5,4.5-4.5h27c2.5,0,4.5,2,4.5,4.5v27
			C540,250,538,252,535.5,252z"/>
	</g>
	<g>
		<path class="st0" d="M103.5,306h-27c-2.5,0-4.5-2-4.5-4.5v-27c0-2.5,2-4.5,4.5-4.5h27c2.5,0,4.5,2,4.5,4.5v27
			C108,304,106,306,103.5,306z"/>
		<path class="st0" d="M157.5,306h-27c-2.5,0-4.5-2-4.5-4.5v-27c0-2.5,2-4.5,4.5-4.5h27c2.5,0,4.5,2,4.5,4.5v27
			C162,304,160,306,157.5,306z"/>
		<path class="st0" d="M211.5,306h-27c-2.5,0-4.5-2-4.5-4.5v-27c0-2.5,2-4.5,4.5-4.5h27c2.5,0,4.5,2,4.5,4.5v27
			C216,304,214,306,211.5,306z"/>
		<path class="st0" d="M265.5,306h-27c-2.5,0-4.5-2-4.5-4.5v-27c0-2.5,2-4.5,4.5-4.5h27c2.5,0,4.5,2,4.5,4.5v27
			C270,304,268,306,265.5,306z"/>
		<path class="st0" d="M319.5,306h-27c-2.5,0-4.5-2-4.5-4.5v-27c0-2.5,2-4.5,4.5-4.5h27c2.5,0,4.5,2,4.5,4.5v27
			C324,304,322,306,319.5,306z"/>
		<path class="st0" d="M373.5,306h-27c-2.5,0-4.5-2-4.5-4.5v-27c0-2.5,2-4.5,4.5-4.5h27c2.5,0,4.5,2,4.5,4.5v27
			C378,304,376,306,373.5,306z"/>
		<path class="st0" d="M427.5,306h-27c-2.5,0-4.5-2-4.5-4.5v-27c0-2.5,2-4.5,4.5-4.5h27c2.5,0,4.5,2,4.5,4.5v27
			C432,304,430,306,427.5,306z"/>
		<path class="st0" d="M481.5,306h-27c-2.5,0-4.5-2-4.5-4.5v-27c0-2.5,2-4.5,4.5-4.5h27c2.5,0,4.5,2,4.5,4.5v27
			C486,304,484,306,481.5,306z"/>
		<path class="st0" d="M535.5,306h-27c-2.5,0-4.5-2-4.5-4.5v-27c0-2.5,2-4.5,4.5-4.5h27c2.5,0,4.5,2,4.5,4.5v27
			C540,304,538,306,535.5,306z"/>
	</g>
	<g>
		<path class="st0" d="M103.5,360h-27c-2.5,0-4.5-2-4.5-4.5v-27c0-2.5,2-4.5,4.5-4.5h27c2.5,0,4.5,2,4.5,4.5v27
			C108,358,106,360,103.5,360z"/>
		<path class="st0" d="M157.5,360h-27c-2.5,0-4.5-2-4.5-4.5v-27c0-2.5,2-4.5,4.5-4.5h27c2.5,0,4.5,2,4.5,4.5v27
			C162,358,160,360,157.5,360z"/>
		<path class="st0" d="M211.5,360h-27c-2.5,0-4.5-2-4.5-4.5v-27c0-2.5,2-4.5,4.5-4.5h27c2.5,0,4.5,2,4.5,4.5v27
			C216,358,214,360,211.5,360z"/>
		<path class="st0" d="M265.5,360h-27c-2.5,0-4.5-2-4.5-4.5v-27c0-2.5,2-4.5,4.5-4.5h27c2.5,0,4.5,2,4.5,4.5v27
			C270,358,268,360,265.5,360z"/>
		<path class="st0" d="M319.5,360h-27c-2.5,0-4.5-2-4.5-4.5v-27c0-2.5,2-4.5,4.5-4.5h27c2.5,0,4.5,2,4.5,4.5v27
			C324,358,322,360,319.5,360z"/>
		<path class="st0" d="M373.5,360h-27c-2.5,0-4.5-2-4.5-4.5v-27c0-2.5,2-4.5,4.5-4.5h27c2.5,0,4.5,2,4.5,4.5v27
			C378,358,376,360,373.5,360z"/>
		<path class="st0" d="M427.5,360h-27c-2.5,0-4.5-2-4.5-4.5v-27c0-2.5,2-4.5,4.5-4.5h27c2.5,0,4.5,2,4.5,4.5v27
			C432,358,430,360,427.5,360z"/>
		<path class="st0" d="M481.5,360h-27c-2.5,0-4.5-2-4.5-4.5v-27c0-2.5,2-4.5,4.5-4.5h27c2.5,0,4.5,2,4.5,4.5v27
			C486,358,484,360,481.5,360z"/>
		<path class="st0" d="M535.5,360h-27c-2.5,0-4.5-2-4.5-4.5v-27c0-2.5,2-4.5,4.5-4.5h27c2.5,0,4.5,2,4.5,4.5v27
			C540,358,538,360,535.5,360z"/>
	</g>
	<g>
		<path class="st0" d="M103.5,414h-27c-2.5,0-4.5-2-4.5-4.5v-27c0-2.5,2-4.5,4.5-4.5h27c2.5,0,4.5,2,4.5,4.5v27
			C108,412,106,414,103.5,414z"/>
		<path class="st0" d="M157.5,414h-27c-2.5,0-4.5-2-4.5-4.5v-27c0-2.5,2-4.5,4.5-4.5h27c2.5,0,4.5,2,4.5,4.5v27
			C162,412,160,414,157.5,414z"/>
		<path class="st0" d="M211.5,414h-27c-2.5,0-4.5-2-4.5-4.5v-27c0-2.5,2-4.5,4.5-4.5h27c2.5,0,4.5,2,4.5,4.5v27
			C216,412,214,414,211.5,414z"/>
		<path class="st0" d="M265.5,414h-27c-2.5,0-4.5-2-4.5-4.5v-27c0-2.5,2-4.5,4.5-4.5h27c2.5,0,4.5,2,4.5,4.5v27
			C270,412,268,414,265.5,414z"/>
		<path class="st0" d="M319.5,414h-27c-2.5,0-4.5-2-4.5-4.5v-27c0-2.5,2-4.5,4.5-4.5h27c2.5,0,4.5,2,4.5,4.5v27
			C324,412,322,414,319.5,414z"/>
		<path class="st0" d="M373.5,414h-27c-2.5,0-4.5-2-4.5-4.5v-27c0-2.5,2-4.5,4.5-4.5h27c2.5,0,4.5,2,4.5,4.5v27
			C378,412,376,414,373.5,414z"/>
		<path class="st0" d="M427.5,414h-27c-2.5,0-4.5-2-4.5-4.5v-27c0-2.5,2-4.5,4.5-4.5h27c2.5,0,4.5,2,4.5,4.5v27
			C432,412,430,414,427.5,414z"/>
		<path class="st0" d="M481.5,414h-27c-2.5,0-4.5-2-4.5-4.5v-27c0-2.5,2-4.5,4.5-4.5h27c2.5,0,4.5,2,4.5,4.5v27
			C486,412,484,414,481.5,414z"/>
		<path class="st0" d="M535.5,414h-27c-2.5,0-4.5-2-4.5-4.5v-27c0-2.5,2-4.5,4.5-4.5h27c2.5,0,4.5,2,4.5,4.5v27
			C540,412,538,414,535.5,414z"/>
	</g>
	<g>
		<path class="st0" d="M103.5,468h-27c-2.5,0-4.5-2-4.5-4.5v-27c0-2.5,2-4.5,4.5-4.5h27c2.5,0,4.5,2,4.5,4.5v27
			C108,466,106,468,103.5,468z"/>
		<path class="st0" d="M157.5,468h-27c-2.5,0-4.5-2-4.5-4.5v-27c0-2.5,2-4.5,4.5-4.5h27c2.5,0,4.5,2,4.5,4.5v27
			C162,466,160,468,157.5,468z"/>
		<path class="st0" d="M211.5,468h-27c-2.5,0-4.5-2-4.5-4.5v-27c0-2.5,2-4.5,4.5-4.5h27c2.5,0,4.5,2,4.5,4.5v27
			C216,466,214,468,211.5,468z"/>
		<path class="st0" d="M265.5,468h-27c-2.5,0-4.5-2-4.5-4.5v-27c0-2.5,2-4.5,4.5-4.5h27c2.5,0,4.5,2,4.5,4.5v27
			C270,466,268,468,265.5,468z"/>
		<path class="st0" d="M319.5,468h-27c-2.5,0-4.5-2-4.5-4.5v-27c0-2.5,2-4.5,4.5-4.5h27c2.5,0,4.5,2,4.5,4.5v27
			C324,466,322,468,319.5,468z"/>
		<path class="st0" d="M373.5,468h-27c-2.5,0-4.5-2-4.5-4.5v-27c0-2.5,2-4.5,4.5-4.5h27c2.5,0,4.5,2,4.5,4.5v27
			C378,466,376,468,373.5,468z"/>
		<path class="st0" d="M427.5,468h-27c-2.5,0-4.5-2-4.5-4.5v-27c0-2.5,2-4.5,4.5-4.5h27c2.5,0,4.5,2,4.5,4.5v27
			C432,466,430,468,427.5,468z"/>
		<path class="st0" d="M481.5,468h-27c-2.5,0-4.5-2-4.5-4.5v-27c0-2.5,2-4.5,4.5-4.5h27c2.5,0,4.5,2,4.5,4.5v27
			C486,466,484,468,481.5,468z"/>
		<path class="st0" d="M535.5,468h-27c-2.5,0-4.5-2-4.5-4.5v-27c0-2.5,2-4.5,4.5-4.5h27c2.5,0,4.5,2,4.5,4.5v27
			C540,466,538,468,535.5,468z"/>
	</g>
	<g>
		<path class="st0" d="M103.5,522h-27c-2.5,0-4.5-2-4.5-4.5v-27c0-2.5,2-4.5,4.5-4.5h27c2.5,0,4.5,2,4.5,4.5v27
			C108,520,106,522,103.5,522z"/>
		<path class="st0" d="M157.5,522h-27c-2.5,0-4.5-2-4.5-4.5v-27c0-2.5,2-4.5,4.5-4.5h27c2.5,0,4.5,2,4.5,4.5v27
			C162,520,160,522,157.5,522z"/>
		<path class="st0" d="M211.5,522h-27c-2.5,0-4.5-2-4.5-4.5v-27c0-2.5,2-4.5,4.5-4.5h27c2.5,0,4.5,2,4.5,4.5v27
			C216,520,214,522,211.5,522z"/>
		<path class="st0" d="M265.5,522h-27c-2.5,0-4.5-2-4.5-4.5v-27c0-2.5,2-4.5,4.5-4.5h27c2.5,0,4.5,2,4.5,4.5v27
			C270,520,268,522,265.5,522z"/>
		<path class="st0" d="M319.5,522h-27c-2.5,0-4.5-2-4.5-4.5v-27c0-2.5,2-4.5,4.5-4.5h27c2.5,0,4.5,2,4.5,4.5v27
			C324,520,322,522,319.5,522z"/>
		<path class="st0" d="M373.5,522h-27c-2.5,0-4.5-2-4.5-4.5v-27c0-2.5,2-4.5,4.5-4.5h27c2.5,0,4.5,2,4.5,4.5v27
			C378,520,376,522,373.5,522z"/>
		<path class="st0" d="M427.5,522h-27c-2.5,0-4.5-2-4.5-4.5v-27c0-2.5,2-4.5,4.5-4.5h27c2.5,0,4.5,2,4.5,4.5v27
			C432,520,430,522,427.5,522z"/>
		<path class="st0" d="M481.5,522h-27c-2.5,0-4.5-2-4.5-4.5v-27c0-2.5,2-4.5,4.5-4.5h27c2.5,0,4.5,2,4.5,4.5v27
			C486,520,484,522,481.5,522z"/>
		<path class="st0" d="M535.5,522h-27c-2.5,0-4.5-2-4.5-4.5v-27c0-2.5,2-4.5,4.5-4.5h27c2.5,0,4.5,2,4.5,4.5v27
			C540,520,538,522,535.5,522z"/>
	</g>
	<g>
		<path class="st0" d="M103.5,576h-27c-2.5,0-4.5-2-4.5-4.5v-27c0-2.5,2-4.5,4.5-4.5h27c2.5,0,4.5,2,4.5,4.5v27
			C108,574,106,576,103.5,576z"/>
		<path class="st0" d="M157.5,576h-27c-2.5,0-4.5-2-4.5-4.5v-27c0-2.5,2-4.5,4.5-4.5h27c2.5,0,4.5,2,4.5,4.5v27
			C162,574,160,576,157.5,576z"/>
		<path class="st0" d="M211.5,576h-27c-2.5,0-4.5-2-4.5-4.5v-27c0-2.5,2-4.5,4.5-4.5h27c2.5,0,4.5,2,4.5,4.5v27
			C216,574,214,576,211.5,576z"/>
		<path class="st0" d="M265.5,576h-27c-2.5,0-4.5-2-4.5-4.5v-27c0-2.5,2-4.5,4.5-4.5h27c2.5,0,4.5,2,4.5,4.5v27
			C270,574,268,576,265.5,576z"/>
		<path class="st0" d="M319.5,576h-27c-2.5,0-4.5-2-4.5-4.5v-27c0-2.5,2-4.5,4.5-4.5h27c2.5,0,4.5,2,4.5,4.5v27
			C324,574,322,576,319.5,576z"/>
		<path class="st0" d="M373.5,576h-27c-2.5,0-4.5-2-4.5-4.5v-27c0-2.5,2-4.5,4.5-4.5h27c2.5,0,4.5,2,4.5,4.5v27
			C378,574,376,576,373.5,576z"/>
		<path class="st0" d="M427.5,576h-27c-2.5,0-4.5-2-4.5-4.5v-27c0-2.5,2-4.5,4.5-4.5h27c2.5,0,4.5,2,4.5,4.5v27
			C432,574,430,576,427.5,576z"/>
		<path class="st0" d="M481.5,576h-27c-2.5,0-4.5-2-4.5-4.5v-27c0-2.5,2-4.5,4.5-4.5h27c2.5,0,4.5,2,4.5,4.5v27
			C486,574,484,576,481.5,576z"/>
		<path class="st0" d="M535.5,576h-27c-2.5,0-4.5-2-4.5-4.5v-27c0-2.5,2-4.5,4.5-4.5h27c2.5,0,4.5,2,4.5,4.5v27
			C540,574,538,576,535.5,576z"/>
	</g>
	<g>
		<path class="st0" d="M103.5,630h-27c-2.5,0-4.5-2-4.5-4.5v-27c0-2.5,2-4.5,4.5-4.5h27c2.5,0,4.5,2,4.5,4.5v27
			C108,628,106,630,103.5,630z"/>
		<path class="st0" d="M157.5,630h-27c-2.5,0-4.5-2-4.5-4.5v-27c0-2.5,2-4.5,4.5-4.5h27c2.5,0,4.5,2,4.5,4.5v27
			C162,628,160,630,157.5,630z"/>
		<path class="st0" d="M211.5,630h-27c-2.5,0-4.5-2-4.5-4.5v-27c0-2.5,2-4.5,4.5-4.5h27c2.5,0,4.5,2,4.5,4.5v27
			C216,628,214,630,211.5,630z"/>
		<path class="st0" d="M265.5,630h-27c-2.5,0-4.5-2-4.5-4.5v-27c0-2.5,2-4.5,4.5-4.5h27c2.5,0,4.5,2,4.5,4.5v27
			C270,628,268,630,265.5,630z"/>
		<path class="st0" d="M319.5,630h-27c-2.5,0-4.5-2-4.5-4.5v-27c0-2.5,2-4.5,4.5-4.5h27c2.5,0,4.5,2,4.5,4.5v27
			C324,628,322,630,319.5,630z"/>
		<path class="st0" d="M373.5,630h-27c-2.5,0-4.5-2-4.5-4.5v-27c0-2.5,2-4.5,4.5-4.5h27c2.5,0,4.5,2,4.5,4.5v27
			C378,628,376,630,373.5,630z"/>
		<path class="st0" d="M427.5,630h-27c-2.5,0-4.5-2-4.5-4.5v-27c0-2.5,2-4.5,4.5-4.5h27c2.5,0,4.5,2,4.5,4.5v27
			C432,628,430,630,427.5,630z"/>
		<path class="st0" d="M481.5,630h-27c-2.5,0-4.5-2-4.5-4.5v-27c0-2.5,2-4.5,4.5-4.5h27c2.5,0,4.5,2,4.5,4.5v27
			C486,628,484,630,481.5,630z"/>
		<path class="st0" d="M535.5,630h-27c-2.5,0-4.5-2-4.5-4.5v-27c0-2.5,2-4.5,4.5-4.5h27c2.5,0,4.5,2,4.5,4.5v27
			C540,628,538,630,535.5,630z"/>
	</g>
	<g>
		<path class="st0" d="M103.5,684h-27c-2.5,0-4.5-2-4.5-4.5v-27c0-2.5,2-4.5,4.5-4.5h27c2.5,0,4.5,2,4.5,4.5v27
			C108,682,106,684,103.5,684z"/>
		<path class="st0" d="M157.5,684h-27c-2.5,0-4.5-2-4.5-4.5v-27c0-2.5,2-4.5,4.5-4.5h27c2.5,0,4.5,2,4.5,4.5v27
			C162,682,160,684,157.5,684z"/>
		<path class="st0" d="M211.5,684h-27c-2.5,0-4.5-2-4.5-4.5v-27c0-2.5,2-4.5,4.5-4.5h27c2.5,0,4.5,2,4.5,4.5v27
			C216,682,214,684,211.5,684z"/>
		<path class="st0" d="M265.5,684h-27c-2.5,0-4.5-2-4.5-4.5v-27c0-2.5,2-4.5,4.5-4.5h27c2.5,0,4.5,2,4.5,4.5v27
			C270,682,268,684,265.5,684z"/>
		<path class="st0" d="M319.5,684h-27c-2.5,0-4.5-2-4.5-4.5v-27c0-2.5,2-4.5,4.5-4.5h27c2.5,0,4.5,2,4.5,4.5v27
			C324,682,322,684,319.5,684z"/>
		<path class="st0" d="M373.5,684h-27c-2.5,0-4.5-2-4.5-4.5v-27c0-2.5,2-4.5,4.5-4.5h27c2.5,0,4.5,2,4.5,4.5v27
			C378,682,376,684,373.5,684z"/>
		<path class="st0" d="M427.5,684h-27c-2.5,0-4.5-2-4.5-4.5v-27c0-2.5,2-4.5,4.5-4.5h27c2.5,0,4.5,2,4.5,4.5v27
			C432,682,430,684,427.5,684z"/>
		<path class="st0" d="M481.5,684h-27c-2.5,0-4.5-2-4.5-4.5v-27c0-2.5,2-4.5,4.5-4.5h27c2.5,0,4.5,2,4.5,4.5v27
			C486,682,484,684,481.5,684z"/>
		<path class="st0" d="M535.5,684h-27c-2.5,0-4.5-2-4.5-4.5v-27c0-2.5,2-4.5,4.5-4.5h27c2.5,0,4.5,2,4.5,4.5v27
			C540,682,538,684,535.5,684z"/>
	</g>
	<g>
		<path class="st0" d="M103.5,738h-27c-2.5,0-4.5-2-4.5-4.5v-27c0-2.5,2-4.5,4.5-4.5h27c2.5,0,4.5,2,4.5,4.5v27
			C108,736,106,738,103.5,738z"/>
		<path class="st0" d="M157.5,738h-27c-2.5,0-4.5-2-4.5-4.5v-27c0-2.5,2-4.5,4.5-4.5h27c2.5,0,4.5,2,4.5,4.5v27
			C162,736,160,738,157.5,738z"/>
		<path class="st0" d="M211.5,738h-27c-2.5,0-4.5-2-4.5-4.5v-27c0-2.5,2-4.5,4.5-4.5h27c2.5,0,4.5,2,4.5,4.5v27
			C216,736,214,738,211.5,738z"/>
		<path class="st0" d="M265.5,738h-27c-2.5,0-4.5-2-4.5-4.5v-27c0-2.5,2-4.5,4.5-4.5h27c2.5,0,4.5,2,4.5,4.5v27
			C270,736,268,738,265.5,738z"/>
		<path class="st0" d="M319.5,738h-27c-2.5,0-4.5-2-4.5-4.5v-27c0-2.5,2-4.5,4.5-4.5h27c2.5,0,4.5,2,4.5,4.5v27
			C324,736,322,738,319.5,738z"/>
		<path class="st0" d="M373.5,738h-27c-2.5,0-4.5-2-4.5-4.5v-27c0-2.5,2-4.5,4.5-4.5h27c2.5,0,4.5,2,4.5,4.5v27
			C378,736,376,738,373.5,738z"/>
		<path class="st0" d="M427.5,738h-27c-2.5,0-4.5-2-4.5-4.5v-27c0-2.5,2-4.5,4.5-4.5h27c2.5,0,4.5,2,4.5,4.5v27
			C432,736,430,738,427.5,738z"/>
		<path class="st0" d="M481.5,738h-27c-2.5,0-4.5-2-4.5-4.5v-27c0-2.5,2-4.5,4.5-4.5h27c2.5,0,4.5,2,4.5,4.5v27
			C486,736,484,738,481.5,738z"/>
		<path class="st0" d="M535.5,738h-27c-2.5,0-4.5-2-4.5-4.5v-27c0-2.5,2-4.5,4.5-4.5h27c2.5,0,4.5,2,4.5,4.5v27
			C540,736,538,738,535.5,738z"/>
	</g>
</g>
</svg>
