<?xml version="1.0" encoding="utf-8"?>
<!-- Generator: Adobe Illustrator 20.1.0, SVG Export Plug-In . SVG Version: 6.00 Build 0)  -->
<svg version="1.1" id="Layer_1" xmlns="http://www.w3.org/2000/svg" xmlns:xlink="http://www.w3.org/1999/xlink" x="0px" y="0px"
	 viewBox="0 0 612 792" style="enable-background:new 0 0 612 792;" xml:space="preserve">
<style type="text/css">
	.st0{fill:none;stroke:#000000;stroke-width:2;}
</style>
<path class="st0" d="M70,52c0,5-4,9-9,9H34c-5,0-9-4-9-9V34c0-5,4-9,9-9h27c5,0,9,4,9,9V52z"/>
<path class="st0" d="M589,52c0,5-4,9-9,9h-27c-5,0-9-4-9-9V34c0-5,4-9,9-9h27c5,0,9,4,9,9V52z"/>
<path class="st0" d="M127.6,52c0,5-4,9-9,9h-27c-5,0-9-4-9-9V34c0-5,4-9,9-9h27c5,0,9,4,9,9V52z"/>
<path class="st0" d="M185.3,52c0,5-4,9-9,9h-27c-5,0-9-4-9-9V34c0-5,4-9,9-9h27c5,0,9,4,9,9V52z"/>
<path class="st0" d="M243,52c0,5-4,9-9,9h-27c-5,0-9-4-9-9V34c0-5,4-9,9-9h27c5,0,9,4,9,9V52z"/>
<path class="st0" d="M300.7,52c0,5-4,9-9,9h-27c-5,0-9-4-9-9V34c0-5,4-9,9-9h27c5,0,9,4,9,9V52z"/>
<path class="st0" d="M358.3,52c0,5-4,9-9,9h-27c-5,0-9-4-9-9V34c0-5,4-9,9-9h27c5,0,9,4,9,9V52z"/>
<path class="st0" d="M416,52c0,5-4,9-9,9h-27c-5,0-9-4-9-9V34c0-5,4-9,9-9h27c5,0,9,4,9,9V52z"/>
<path class="st0" d="M473.7,52c0,5-4,9-9,9h-27c-5,0-9-4-9-9V34c0-5,4-9,9-9h27c5,0,9,4,9,9V52z"/>
<path class="st0" d="M531.4,52c0,5-4,9-9,9h-27c-5,0-9-4-9-9V34c0-5,4-9,9-9h27c5,0,9,4,9,9V52z"/>
<path class="st0" d="M70,760c0,5-4,9-9,9H34c-5,0-9-4-9-9v-18c0-5,4-9,9-9h27c5,0,9,4,9,9V760z"/>
<path class="st0" d="M589,760c0,5-4,9-9,9h-27c-5,0-9-4-9-9v-18c0-5,4-9,9-9h27c5,0,9,4,9,9V760z"/>
<path class="st0" d="M127.6,760c0,5-4,9-9,9h-27c-5,0-9-4-9-9v-18c0-5,4-9,9-9h27c5,0,9,4,9,9V760z"/>
<path class="st0" d="M185.3,760c0,5-4,9-9,9h-27c-5,0-9-4-9-9v-18c0-5,4-9,9-9h27c5,0,9,4,9,9V760z"/>
<path class="st0" d="M243,760c0,5-4,9-9,9h-27c-5,0-9-4-9-9v-18c0-5,4-9,9-9h27c5,0,9,4,9,9V760z"/>
<path class="st0" d="M300.7,760c0,5-4,9-9,9h-27c-5,0-9-4-9-9v-18c0-5,4-9,9-9h27c5,0,9,4,9,9V760z"/>
<path class="st0" d="M358.3,760c0,5-4,9-9,9h-27c-5,0-9-4-9-9v-18c0-5,4-9,9-9h27c5,0,9,4,9,9V760z"/>
<path class="st0" d="M416,760c0,5-4,9-9,9h-27c-5,0-9-4-9-9v-18c0-5,4-9,9-9h27c5,0,9,4,9,9V760z"/>
<path class="st0" d="M473.7,760c0,5-4,9-9,9h-27c-5,0-9-4-9-9v-18c0-5,4-9,9-9h27c5,0,9,4,9,9V760z"/>
<path class="st0" d="M531.4,760c0,5-4,9-9,9h-27c-5,0-9-4-9-9v-18c0-5,4-9,9-9h27c5,0,9,4,9,9V760z"/>
<path class="st0" d="M70,99.2c0,5-4,9-9,9H34c-5,0-9-4-9-9v-18c0-5,4-9,9-9h27c5,0,9,4,9,9V99.2z"/>
<path class="st0" d="M589,99.2c0,5-4,9-9,9h-27c-5,0-9-4-9-9v-18c0-5,4-9,9-9h27c5,0,9,4,9,9V99.2z"/>
<path class="st0" d="M127.6,99.2c0,5-4,9-9,9h-27c-5,0-9-4-9-9v-18c0-5,4-9,9-9h27c5,0,9,4,9,9V99.2z"/>
<path class="st0" d="M185.3,99.2c0,5-4,9-9,9h-27c-5,0-9-4-9-9v-18c0-5,4-9,9-9h27c5,0,9,4,9,9V99.2z"/>
<path class="st0" d="M243,99.2c0,5-4,9-9,9h-27c-5,0-9-4-9-9v-18c0-5,4-9,9-9h27c5,0,9,4,9,9V99.2z"/>
<path class="st0" d="M300.7,99.2c0,5-4,9-9,9h-27c-5,0-9-4-9-9v-18c0-5,4-9,9-9h27c5,0,9,4,9,9V99.2z"/>
<path class="st0" d="M358.3,99.2c0,5-4,9-9,9h-27c-5,0-9-4-9-9v-18c0-5,4-9,9-9h27c5,0,9,4,9,9V99.2z"/>
<path class="st0" d="M416,99.2c0,5-4,9-9,9h-27c-5,0-9-4-9-9v-18c0-5,4-9,9-9h27c5,0,9,4,9,9V99.2z"/>
<path class="st0" d="M473.7,99.2c0,5-4,9-9,9h-27c-5,0-9-4-9-9v-18c0-5,4-9,9-9h27c5,0,9,4,9,9V99.2z"/>
<path class="st0" d="M531.4,99.2c0,5-4,9-9,9h-27c-5,0-9-4-9-9v-18c0-5,4-9,9-9h27c5,0,9,4,9,9V99.2z"/>
<path class="st0" d="M70,146.4c0,5-4,9-9,9H34c-5,0-9-4-9-9v-18c0-5,4-9,9-9h27c5,0,9,4,9,9V146.4z"/>
<path class="st0" d="M589,146.4c0,5-4,9-9,9h-27c-5,0-9-4-9-9v-18c0-5,4-9,9-9h27c5,0,9,4,9,9V146.4z"/>
<path class="st0" d="M127.6,146.4c0,5-4,9-9,9h-27c-5,0-9-4-9-9v-18c0-5,4-9,9-9h27c5,0,9,4,9,9V146.4z"/>
<path class="st0" d="M185.3,146.4c0,5-4,9-9,9h-27c-5,0-9-4-9-9v-18c0-5,4-9,9-9h27c5,0,9,4,9,9V146.4z"/>
<path class="st0" d="M243,146.4c0,5-4,9-9,9h-27c-5,0-9-4-9-9v-18c0-5,4-9,9-9h27c5,0,9,4,9,9V146.4z"/>
<path class="st0" d="M300.7,146.4c0,5-4,9-9,9h-27c-5,0-9-4-9-9v-18c0-5,4-9,9-9h27c5,0,9,4,9,9V146.4z"/>
<path class="st0" d="M358.3,146.4c0,5-4,9-9,9h-27c-5,0-9-4-9-9v-18c0-5,4-9,9-9h27c5,0,9,4,9,9V146.4z"/>
<path class="st0" d="M416,146.4c0,5-4,9-9,9h-27c-5,0-9-4-9-9v-18c0-5,4-9,9-9h27c5,0,9,4,9,9V146.4z"/>
<path class="st0" d="M473.7,146.4c0,5-4,9-9,9h-27c-5,0-9-4-9-9v-18c0-5,4-9,9-9h27c5,0,9,4,9,9V146.4z"/>
<path class="st0" d="M531.4,146.4c0,5-4,9-9,9h-27c-5,0-9-4-9-9v-18c0-5,4-9,9-9h27c5,0,9,4,9,9V146.4z"/>
<path class="st0" d="M70,193.6c0,5-4,9-9,9H34c-5,0-9-4-9-9v-18c0-5,4-9,9-9h27c5,0,9,4,9,9V193.6z"/>
<path class="st0" d="M589,193.6c0,5-4,9-9,9h-27c-5,0-9-4-9-9v-18c0-5,4-9,9-9h27c5,0,9,4,9,9V193.6z"/>
<path class="st0" d="M127.6,193.6c0,5-4,9-9,9h-27c-5,0-9-4-9-9v-18c0-5,4-9,9-9h27c5,0,9,4,9,9V193.6z"/>
<path class="st0" d="M185.3,193.6c0,5-4,9-9,9h-27c-5,0-9-4-9-9v-18c0-5,4-9,9-9h27c5,0,9,4,9,9V193.6z"/>
<path class="st0" d="M243,193.6c0,5-4,9-9,9h-27c-5,0-9-4-9-9v-18c0-5,4-9,9-9h27c5,0,9,4,9,9V193.6z"/>
<path class="st0" d="M300.7,193.6c0,5-4,9-9,9h-27c-5,0-9-4-9-9v-18c0-5,4-9,9-9h27c5,0,9,4,9,9V193.6z"/>
<path class="st0" d="M358.3,193.6c0,5-4,9-9,9h-27c-5,0-9-4-9-9v-18c0-5,4-9,9-9h27c5,0,9,4,9,9V193.6z"/>
<path class="st0" d="M416,193.6c0,5-4,9-9,9h-27c-5,0-9-4-9-9v-18c0-5,4-9,9-9h27c5,0,9,4,9,9V193.6z"/>
<path class="st0" d="M473.7,193.6c0,5-4,9-9,9h-27c-5,0-9-4-9-9v-18c0-5,4-9,9-9h27c5,0,9,4,9,9V193.6z"/>
<path class="st0" d="M531.4,193.6c0,5-4,9-9,9h-27c-5,0-9-4-9-9v-18c0-5,4-9,9-9h27c5,0,9,4,9,9V193.6z"/>
<path class="st0" d="M70,240.8c0,5-4,9-9,9H34c-5,0-9-4-9-9v-18c0-5,4-9,9-9h27c5,0,9,4,9,9V240.8z"/>
<path class="st0" d="M589,240.8c0,5-4,9-9,9h-27c-5,0-9-4-9-9v-18c0-5,4-9,9-9h27c5,0,9,4,9,9V240.8z"/>
<path class="st0" d="M127.6,240.8c0,5-4,9-9,9h-27c-5,0-9-4-9-9v-18c0-5,4-9,9-9h27c5,0,9,4,9,9V240.8z"/>
<path class="st0" d="M185.3,240.8c0,5-4,9-9,9h-27c-5,0-9-4-9-9v-18c0-5,4-9,9-9h27c5,0,9,4,9,9V240.8z"/>
<path class="st0" d="M243,240.8c0,5-4,9-9,9h-27c-5,0-9-4-9-9v-18c0-5,4-9,9-9h27c5,0,9,4,9,9V240.8z"/>
<path class="st0" d="M300.7,240.8c0,5-4,9-9,9h-27c-5,0-9-4-9-9v-18c0-5,4-9,9-9h27c5,0,9,4,9,9V240.8z"/>
<path class="st0" d="M358.3,240.8c0,5-4,9-9,9h-27c-5,0-9-4-9-9v-18c0-5,4-9,9-9h27c5,0,9,4,9,9V240.8z"/>
<path class="st0" d="M416,240.8c0,5-4,9-9,9h-27c-5,0-9-4-9-9v-18c0-5,4-9,9-9h27c5,0,9,4,9,9V240.8z"/>
<path class="st0" d="M473.7,240.8c0,5-4,9-9,9h-27c-5,0-9-4-9-9v-18c0-5,4-9,9-9h27c5,0,9,4,9,9V240.8z"/>
<path class="st0" d="M531.4,240.8c0,5-4,9-9,9h-27c-5,0-9-4-9-9v-18c0-5,4-9,9-9h27c5,0,9,4,9,9V240.8z"/>
<path class="st0" d="M70,288c0,5-4,9-9,9H34c-5,0-9-4-9-9v-18c0-5,4-9,9-9h27c5,0,9,4,9,9V288z"/>
<path class="st0" d="M589,288c0,5-4,9-9,9h-27c-5,0-9-4-9-9v-18c0-5,4-9,9-9h27c5,0,9,4,9,9V288z"/>
<path class="st0" d="M127.6,288c0,5-4,9-9,9h-27c-5,0-9-4-9-9v-18c0-5,4-9,9-9h27c5,0,9,4,9,9V288z"/>
<path class="st0" d="M185.3,288c0,5-4,9-9,9h-27c-5,0-9-4-9-9v-18c0-5,4-9,9-9h27c5,0,9,4,9,9V288z"/>
<path class="st0" d="M243,288c0,5-4,9-9,9h-27c-5,0-9-4-9-9v-18c0-5,4-9,9-9h27c5,0,9,4,9,9V288z"/>
<path class="st0" d="M300.7,288c0,5-4,9-9,9h-27c-5,0-9-4-9-9v-18c0-5,4-9,9-9h27c5,0,9,4,9,9V288z"/>
<path class="st0" d="M358.3,288c0,5-4,9-9,9h-27c-5,0-9-4-9-9v-18c0-5,4-9,9-9h27c5,0,9,4,9,9V288z"/>
<path class="st0" d="M416,288c0,5-4,9-9,9h-27c-5,0-9-4-9-9v-18c0-5,4-9,9-9h27c5,0,9,4,9,9V288z"/>
<path class="st0" d="M473.7,288c0,5-4,9-9,9h-27c-5,0-9-4-9-9v-18c0-5,4-9,9-9h27c5,0,9,4,9,9V288z"/>
<path class="st0" d="M531.4,288c0,5-4,9-9,9h-27c-5,0-9-4-9-9v-18c0-5,4-9,9-9h27c5,0,9,4,9,9V288z"/>
<path class="st0" d="M70,335.2c0,5-4,9-9,9H34c-5,0-9-4-9-9v-18c0-5,4-9,9-9h27c5,0,9,4,9,9V335.2z"/>
<path class="st0" d="M589,335.2c0,5-4,9-9,9h-27c-5,0-9-4-9-9v-18c0-5,4-9,9-9h27c5,0,9,4,9,9V335.2z"/>
<path class="st0" d="M127.6,335.2c0,5-4,9-9,9h-27c-5,0-9-4-9-9v-18c0-5,4-9,9-9h27c5,0,9,4,9,9V335.2z"/>
<path class="st0" d="M185.3,335.2c0,5-4,9-9,9h-27c-5,0-9-4-9-9v-18c0-5,4-9,9-9h27c5,0,9,4,9,9V335.2z"/>
<path class="st0" d="M243,335.2c0,5-4,9-9,9h-27c-5,0-9-4-9-9v-18c0-5,4-9,9-9h27c5,0,9,4,9,9V335.2z"/>
<path class="st0" d="M300.7,335.2c0,5-4,9-9,9h-27c-5,0-9-4-9-9v-18c0-5,4-9,9-9h27c5,0,9,4,9,9V335.2z"/>
<path class="st0" d="M358.3,335.2c0,5-4,9-9,9h-27c-5,0-9-4-9-9v-18c0-5,4-9,9-9h27c5,0,9,4,9,9V335.2z"/>
<path class="st0" d="M416,335.2c0,5-4,9-9,9h-27c-5,0-9-4-9-9v-18c0-5,4-9,9-9h27c5,0,9,4,9,9V335.2z"/>
<path class="st0" d="M473.7,335.2c0,5-4,9-9,9h-27c-5,0-9-4-9-9v-18c0-5,4-9,9-9h27c5,0,9,4,9,9V335.2z"/>
<path class="st0" d="M531.4,335.2c0,5-4,9-9,9h-27c-5,0-9-4-9-9v-18c0-5,4-9,9-9h27c5,0,9,4,9,9V335.2z"/>
<path class="st0" d="M70,382.4c0,5-4,9-9,9H34c-5,0-9-4-9-9v-18c0-5,4-9,9-9h27c5,0,9,4,9,9V382.4z"/>
<path class="st0" d="M589,382.4c0,5-4,9-9,9h-27c-5,0-9-4-9-9v-18c0-5,4-9,9-9h27c5,0,9,4,9,9V382.4z"/>
<path class="st0" d="M127.6,382.4c0,5-4,9-9,9h-27c-5,0-9-4-9-9v-18c0-5,4-9,9-9h27c5,0,9,4,9,9V382.4z"/>
<path class="st0" d="M185.3,382.4c0,5-4,9-9,9h-27c-5,0-9-4-9-9v-18c0-5,4-9,9-9h27c5,0,9,4,9,9V382.4z"/>
<path class="st0" d="M243,382.4c0,5-4,9-9,9h-27c-5,0-9-4-9-9v-18c0-5,4-9,9-9h27c5,0,9,4,9,9V382.4z"/>
<path class="st0" d="M300.7,382.4c0,5-4,9-9,9h-27c-5,0-9-4-9-9v-18c0-5,4-9,9-9h27c5,0,9,4,9,9V382.4z"/>
<path class="st0" d="M358.3,382.4c0,5-4,9-9,9h-27c-5,0-9-4-9-9v-18c0-5,4-9,9-9h27c5,0,9,4,9,9V382.4z"/>
<path class="st0" d="M416,382.4c0,5-4,9-9,9h-27c-5,0-9-4-9-9v-18c0-5,4-9,9-9h27c5,0,9,4,9,9V382.4z"/>
<path class="st0" d="M473.7,382.4c0,5-4,9-9,9h-27c-5,0-9-4-9-9v-18c0-5,4-9,9-9h27c5,0,9,4,9,9V382.4z"/>
<path class="st0" d="M531.4,382.4c0,5-4,9-9,9h-27c-5,0-9-4-9-9v-18c0-5,4-9,9-9h27c5,0,9,4,9,9V382.4z"/>
<path class="st0" d="M70,429.6c0,5-4,9-9,9H34c-5,0-9-4-9-9v-18c0-5,4-9,9-9h27c5,0,9,4,9,9V429.6z"/>
<path class="st0" d="M589,429.6c0,5-4,9-9,9h-27c-5,0-9-4-9-9v-18c0-5,4-9,9-9h27c5,0,9,4,9,9V429.6z"/>
<path class="st0" d="M127.6,429.6c0,5-4,9-9,9h-27c-5,0-9-4-9-9v-18c0-5,4-9,9-9h27c5,0,9,4,9,9V429.6z"/>
<path class="st0" d="M185.3,429.6c0,5-4,9-9,9h-27c-5,0-9-4-9-9v-18c0-5,4-9,9-9h27c5,0,9,4,9,9V429.6z"/>
<path class="st0" d="M243,429.6c0,5-4,9-9,9h-27c-5,0-9-4-9-9v-18c0-5,4-9,9-9h27c5,0,9,4,9,9V429.6z"/>
<path class="st0" d="M300.7,429.6c0,5-4,9-9,9h-27c-5,0-9-4-9-9v-18c0-5,4-9,9-9h27c5,0,9,4,9,9V429.6z"/>
<path class="st0" d="M358.3,429.6c0,5-4,9-9,9h-27c-5,0-9-4-9-9v-18c0-5,4-9,9-9h27c5,0,9,4,9,9V429.6z"/>
<path class="st0" d="M416,429.6c0,5-4,9-9,9h-27c-5,0-9-4-9-9v-18c0-5,4-9,9-9h27c5,0,9,4,9,9V429.6z"/>
<path class="st0" d="M473.7,429.6c0,5-4,9-9,9h-27c-5,0-9-4-9-9v-18c0-5,4-9,9-9h27c5,0,9,4,9,9V429.6z"/>
<path class="st0" d="M531.4,429.6c0,5-4,9-9,9h-27c-5,0-9-4-9-9v-18c0-5,4-9,9-9h27c5,0,9,4,9,9V429.6z"/>
<path class="st0" d="M70,476.8c0,5-4,9-9,9H34c-5,0-9-4-9-9v-18c0-5,4-9,9-9h27c5,0,9,4,9,9V476.8z"/>
<path class="st0" d="M589,476.8c0,5-4,9-9,9h-27c-5,0-9-4-9-9v-18c0-5,4-9,9-9h27c5,0,9,4,9,9V476.8z"/>
<path class="st0" d="M127.6,476.8c0,5-4,9-9,9h-27c-5,0-9-4-9-9v-18c0-5,4-9,9-9h27c5,0,9,4,9,9V476.8z"/>
<path class="st0" d="M185.3,476.8c0,5-4,9-9,9h-27c-5,0-9-4-9-9v-18c0-5,4-9,9-9h27c5,0,9,4,9,9V476.8z"/>
<path class="st0" d="M243,476.8c0,5-4,9-9,9h-27c-5,0-9-4-9-9v-18c0-5,4-9,9-9h27c5,0,9,4,9,9V476.8z"/>
<path class="st0" d="M300.7,476.8c0,5-4,9-9,9h-27c-5,0-9-4-9-9v-18c0-5,4-9,9-9h27c5,0,9,4,9,9V476.8z"/>
<path class="st0" d="M358.3,476.8c0,5-4,9-9,9h-27c-5,0-9-4-9-9v-18c0-5,4-9,9-9h27c5,0,9,4,9,9V476.8z"/>
<path class="st0" d="M416,476.8c0,5-4,9-9,9h-27c-5,0-9-4-9-9v-18c0-5,4-9,9-9h27c5,0,9,4,9,9V476.8z"/>
<path class="st0" d="M473.7,476.8c0,5-4,9-9,9h-27c-5,0-9-4-9-9v-18c0-5,4-9,9-9h27c5,0,9,4,9,9V476.8z"/>
<path class="st0" d="M531.4,476.8c0,5-4,9-9,9h-27c-5,0-9-4-9-9v-18c0-5,4-9,9-9h27c5,0,9,4,9,9V476.8z"/>
<path class="st0" d="M70,524c0,5-4,9-9,9H34c-5,0-9-4-9-9v-18c0-5,4-9,9-9h27c5,0,9,4,9,9V524z"/>
<path class="st0" d="M589,524c0,5-4,9-9,9h-27c-5,0-9-4-9-9v-18c0-5,4-9,9-9h27c5,0,9,4,9,9V524z"/>
<path class="st0" d="M127.6,524c0,5-4,9-9,9h-27c-5,0-9-4-9-9v-18c0-5,4-9,9-9h27c5,0,9,4,9,9V524z"/>
<path class="st0" d="M185.3,524c0,5-4,9-9,9h-27c-5,0-9-4-9-9v-18c0-5,4-9,9-9h27c5,0,9,4,9,9V524z"/>
<path class="st0" d="M243,524c0,5-4,9-9,9h-27c-5,0-9-4-9-9v-18c0-5,4-9,9-9h27c5,0,9,4,9,9V524z"/>
<path class="st0" d="M300.7,524c0,5-4,9-9,9h-27c-5,0-9-4-9-9v-18c0-5,4-9,9-9h27c5,0,9,4,9,9V524z"/>
<path class="st0" d="M358.3,524c0,5-4,9-9,9h-27c-5,0-9-4-9-9v-18c0-5,4-9,9-9h27c5,0,9,4,9,9V524z"/>
<path class="st0" d="M416,524c0,5-4,9-9,9h-27c-5,0-9-4-9-9v-18c0-5,4-9,9-9h27c5,0,9,4,9,9V524z"/>
<path class="st0" d="M473.7,524c0,5-4,9-9,9h-27c-5,0-9-4-9-9v-18c0-5,4-9,9-9h27c5,0,9,4,9,9V524z"/>
<path class="st0" d="M531.4,524c0,5-4,9-9,9h-27c-5,0-9-4-9-9v-18c0-5,4-9,9-9h27c5,0,9,4,9,9V524z"/>
<path class="st0" d="M70,571.2c0,5-4,9-9,9H34c-5,0-9-4-9-9v-18c0-5,4-9,9-9h27c5,0,9,4,9,9V571.2z"/>
<path class="st0" d="M589,571.2c0,5-4,9-9,9h-27c-5,0-9-4-9-9v-18c0-5,4-9,9-9h27c5,0,9,4,9,9V571.2z"/>
<path class="st0" d="M127.6,571.2c0,5-4,9-9,9h-27c-5,0-9-4-9-9v-18c0-5,4-9,9-9h27c5,0,9,4,9,9V571.2z"/>
<path class="st0" d="M185.3,571.2c0,5-4,9-9,9h-27c-5,0-9-4-9-9v-18c0-5,4-9,9-9h27c5,0,9,4,9,9V571.2z"/>
<path class="st0" d="M243,571.2c0,5-4,9-9,9h-27c-5,0-9-4-9-9v-18c0-5,4-9,9-9h27c5,0,9,4,9,9V571.2z"/>
<path class="st0" d="M300.7,571.2c0,5-4,9-9,9h-27c-5,0-9-4-9-9v-18c0-5,4-9,9-9h27c5,0,9,4,9,9V571.2z"/>
<path class="st0" d="M358.3,571.2c0,5-4,9-9,9h-27c-5,0-9-4-9-9v-18c0-5,4-9,9-9h27c5,0,9,4,9,9V571.2z"/>
<path class="st0" d="M416,571.2c0,5-4,9-9,9h-27c-5,0-9-4-9-9v-18c0-5,4-9,9-9h27c5,0,9,4,9,9V571.2z"/>
<path class="st0" d="M473.7,571.2c0,5-4,9-9,9h-27c-5,0-9-4-9-9v-18c0-5,4-9,9-9h27c5,0,9,4,9,9V571.2z"/>
<path class="st0" d="M531.4,571.2c0,5-4,9-9,9h-27c-5,0-9-4-9-9v-18c0-5,4-9,9-9h27c5,0,9,4,9,9V571.2z"/>
<path class="st0" d="M70,618.4c0,5-4,9-9,9H34c-5,0-9-4-9-9v-18c0-5,4-9,9-9h27c5,0,9,4,9,9V618.4z"/>
<path class="st0" d="M589,618.4c0,5-4,9-9,9h-27c-5,0-9-4-9-9v-18c0-5,4-9,9-9h27c5,0,9,4,9,9V618.4z"/>
<path class="st0" d="M127.6,618.4c0,5-4,9-9,9h-27c-5,0-9-4-9-9v-18c0-5,4-9,9-9h27c5,0,9,4,9,9V618.4z"/>
<path class="st0" d="M185.3,618.4c0,5-4,9-9,9h-27c-5,0-9-4-9-9v-18c0-5,4-9,9-9h27c5,0,9,4,9,9V618.4z"/>
<path class="st0" d="M243,618.4c0,5-4,9-9,9h-27c-5,0-9-4-9-9v-18c0-5,4-9,9-9h27c5,0,9,4,9,9V618.4z"/>
<path class="st0" d="M300.7,618.4c0,5-4,9-9,9h-27c-5,0-9-4-9-9v-18c0-5,4-9,9-9h27c5,0,9,4,9,9V618.4z"/>
<path class="st0" d="M358.3,618.4c0,5-4,9-9,9h-27c-5,0-9-4-9-9v-18c0-5,4-9,9-9h27c5,0,9,4,9,9V618.4z"/>
<path class="st0" d="M416,618.4c0,5-4,9-9,9h-27c-5,0-9-4-9-9v-18c0-5,4-9,9-9h27c5,0,9,4,9,9V618.4z"/>
<path class="st0" d="M473.7,618.4c0,5-4,9-9,9h-27c-5,0-9-4-9-9v-18c0-5,4-9,9-9h27c5,0,9,4,9,9V618.4z"/>
<path class="st0" d="M531.4,618.4c0,5-4,9-9,9h-27c-5,0-9-4-9-9v-18c0-5,4-9,9-9h27c5,0,9,4,9,9V618.4z"/>
<path class="st0" d="M70,665.6c0,5-4,9-9,9H34c-5,0-9-4-9-9v-18c0-5,4-9,9-9h27c5,0,9,4,9,9V665.6z"/>
<path class="st0" d="M589,665.6c0,5-4,9-9,9h-27c-5,0-9-4-9-9v-18c0-5,4-9,9-9h27c5,0,9,4,9,9V665.6z"/>
<path class="st0" d="M127.6,665.6c0,5-4,9-9,9h-27c-5,0-9-4-9-9v-18c0-5,4-9,9-9h27c5,0,9,4,9,9V665.6z"/>
<path class="st0" d="M185.3,665.6c0,5-4,9-9,9h-27c-5,0-9-4-9-9v-18c0-5,4-9,9-9h27c5,0,9,4,9,9V665.6z"/>
<path class="st0" d="M243,665.6c0,5-4,9-9,9h-27c-5,0-9-4-9-9v-18c0-5,4-9,9-9h27c5,0,9,4,9,9V665.6z"/>
<path class="st0" d="M300.7,665.6c0,5-4,9-9,9h-27c-5,0-9-4-9-9v-18c0-5,4-9,9-9h27c5,0,9,4,9,9V665.6z"/>
<path class="st0" d="M358.3,665.6c0,5-4,9-9,9h-27c-5,0-9-4-9-9v-18c0-5,4-9,9-9h27c5,0,9,4,9,9V665.6z"/>
<path class="st0" d="M416,665.6c0,5-4,9-9,9h-27c-5,0-9-4-9-9v-18c0-5,4-9,9-9h27c5,0,9,4,9,9V665.6z"/>
<path class="st0" d="M473.7,665.6c0,5-4,9-9,9h-27c-5,0-9-4-9-9v-18c0-5,4-9,9-9h27c5,0,9,4,9,9V665.6z"/>
<path class="st0" d="M531.4,665.6c0,5-4,9-9,9h-27c-5,0-9-4-9-9v-18c0-5,4-9,9-9h27c5,0,9,4,9,9V665.6z"/>
<path class="st0" d="M70,712.8c0,5-4,9-9,9H34c-5,0-9-4-9-9v-18c0-5,4-9,9-9h27c5,0,9,4,9,9V712.8z"/>
<path class="st0" d="M589,712.8c0,5-4,9-9,9h-27c-5,0-9-4-9-9v-18c0-5,4-9,9-9h27c5,0,9,4,9,9V712.8z"/>
<path class="st0" d="M127.6,712.8c0,5-4,9-9,9h-27c-5,0-9-4-9-9v-18c0-5,4-9,9-9h27c5,0,9,4,9,9V712.8z"/>
<path class="st0" d="M185.3,712.8c0,5-4,9-9,9h-27c-5,0-9-4-9-9v-18c0-5,4-9,9-9h27c5,0,9,4,9,9V712.8z"/>
<path class="st0" d="M243,712.8c0,5-4,9-9,9h-27c-5,0-9-4-9-9v-18c0-5,4-9,9-9h27c5,0,9,4,9,9V712.8z"/>
<path class="st0" d="M300.7,712.8c0,5-4,9-9,9h-27c-5,0-9-4-9-9v-18c0-5,4-9,9-9h27c5,0,9,4,9,9V712.8z"/>
<path class="st0" d="M358.3,712.8c0,5-4,9-9,9h-27c-5,0-9-4-9-9v-18c0-5,4-9,9-9h27c5,0,9,4,9,9V712.8z"/>
<path class="st0" d="M416,712.8c0,5-4,9-9,9h-27c-5,0-9-4-9-9v-18c0-5,4-9,9-9h27c5,0,9,4,9,9V712.8z"/>
<path class="st0" d="M473.7,712.8c0,5-4,9-9,9h-27c-5,0-9-4-9-9v-18c0-5,4-9,9-9h27c5,0,9,4,9,9V712.8z"/>
<path class="st0" d="M531.4,712.8c0,5-4,9-9,9h-27c-5,0-9-4-9-9v-18c0-5,4-9,9-9h27c5,0,9,4,9,9V712.8z"/>
<rect class="st0" width="612" height="792"/>
</svg>
