<?xml version="1.0" encoding="utf-8"?>
<!-- Generator: Adobe Illustrator 20.1.0, SVG Export Plug-In . SVG Version: 6.00 Build 0)  -->
<svg version="1.1" id="Layer_2" xmlns="http://www.w3.org/2000/svg" xmlns:xlink="http://www.w3.org/1999/xlink" x="0px" y="0px"
	 viewBox="0 0 612 792" style="enable-background:new 0 0 612 792;" xml:space="preserve">
<style type="text/css">
	.st0{fill:none;stroke:#000000;stroke-width:2;}
</style>
<g>
	<g>
		<path class="st0" d="M85.4,40.3c-0.2,0-4.4,0.1-4.4,4.4v27c0,0.2,0.1,4.4,4.4,4.4h135c0.2,0,4.4-0.1,4.4-4.4v-27
			c0-0.2-0.1-4.4-4.4-4.4H85.4z"/>
		<path class="st0" d="M85.4,715.9c-0.2,0-4.4,0.1-4.4,4.4v27c0,0.2,0.1,4.4,4.4,4.4h135c0.2,0,4.4-0.1,4.4-4.4v-27
			c0-0.2-0.1-4.4-4.4-4.4H85.4z"/>
		<path class="st0" d="M85.4,85.4c-0.2,0-4.4,0.1-4.4,4.4v27c0,0.2,0.1,4.4,4.4,4.4h135c0.2,0,4.4-0.1,4.4-4.4v-27
			c0-0.2-0.1-4.4-4.4-4.4H85.4z"/>
		<path class="st0" d="M85.4,130.4c-0.2,0-4.4,0.1-4.4,4.4v27c0,0.2,0.1,4.4,4.4,4.4h135c0.2,0,4.4-0.1,4.4-4.4v-27
			c0-0.2-0.1-4.4-4.4-4.4H85.4z"/>
		<path class="st0" d="M85.4,175.4c-0.2,0-4.4,0.1-4.4,4.4v27c0,0.2,0.1,4.4,4.4,4.4h135c0.2,0,4.4-0.1,4.4-4.4v-27
			c0-0.2-0.1-4.4-4.4-4.4H85.4z"/>
		<path class="st0" d="M85.4,220.5c-0.2,0-4.4,0.1-4.4,4.4v27c0,0.2,0.1,4.4,4.4,4.4h135c0.2,0,4.4-0.1,4.4-4.4v-27
			c0-0.2-0.1-4.4-4.4-4.4H85.4z"/>
		<path class="st0" d="M85.4,265.5c-0.2,0-4.4,0.1-4.4,4.4v27c0,0.2,0.1,4.4,4.4,4.4h135c0.2,0,4.4-0.1,4.4-4.4v-27
			c0-0.2-0.1-4.4-4.4-4.4H85.4z"/>
		<path class="st0" d="M85.4,310.6c-0.2,0-4.4,0.1-4.4,4.4v27c0,0.2,0.1,4.4,4.4,4.4h135c0.2,0,4.4-0.1,4.4-4.4v-27
			c0-0.2-0.1-4.4-4.4-4.4H85.4z"/>
		<path class="st0" d="M85.4,355.6c-0.2,0-4.4,0.1-4.4,4.4v27c0,0.2,0.1,4.4,4.4,4.4h135c0.2,0,4.4-0.1,4.4-4.4v-27
			c0-0.2-0.1-4.4-4.4-4.4H85.4z"/>
		<path class="st0" d="M85.4,400.6c-0.2,0-4.4,0.1-4.4,4.4v27c0,0.2,0.1,4.4,4.4,4.4h135c0.2,0,4.4-0.1,4.4-4.4v-27
			c0-0.2-0.1-4.4-4.4-4.4H85.4z"/>
		<path class="st0" d="M85.4,445.7c-0.2,0-4.4,0.1-4.4,4.4v27c0,0.2,0.1,4.4,4.4,4.4h135c0.2,0,4.4-0.1,4.4-4.4v-27
			c0-0.2-0.1-4.4-4.4-4.4H85.4z"/>
		<path class="st0" d="M85.4,490.7c-0.2,0-4.4,0.1-4.4,4.4v27c0,0.2,0.1,4.4,4.4,4.4h135c0.2,0,4.4-0.1,4.4-4.4v-27
			c0-0.2-0.1-4.4-4.4-4.4H85.4z"/>
		<path class="st0" d="M85.4,535.8c-0.2,0-4.4,0.1-4.4,4.4v27c0,0.2,0.1,4.4,4.4,4.4h135c0.2,0,4.4-0.1,4.4-4.4v-27
			c0-0.2-0.1-4.4-4.4-4.4H85.4z"/>
		<path class="st0" d="M85.4,580.8c-0.2,0-4.4,0.1-4.4,4.4v27c0,0.2,0.1,4.4,4.4,4.4h135c0.2,0,4.4-0.1,4.4-4.4v-27
			c0-0.2-0.1-4.4-4.4-4.4H85.4z"/>
		<path class="st0" d="M85.4,625.8c-0.2,0-4.4,0.1-4.4,4.4v27c0,0.2,0.1,4.4,4.4,4.4h135c0.2,0,4.4-0.1,4.4-4.4v-27
			c0-0.2-0.1-4.4-4.4-4.4H85.4z"/>
		<path class="st0" d="M85.4,670.9c-0.2,0-4.4,0.1-4.4,4.4v27c0,0.2,0.1,4.4,4.4,4.4h135c0.2,0,4.4-0.1,4.4-4.4v-27
			c0-0.2-0.1-4.4-4.4-4.4H85.4z"/>
	</g>
	<g>
		<path class="st0" d="M238.5,40.3c-0.2,0-4.4,0.1-4.4,4.4v27c0,0.2,0.1,4.4,4.4,4.4h135c0.2,0,4.4-0.1,4.4-4.4v-27
			c0-0.2-0.1-4.4-4.4-4.4H238.5z"/>
		<path class="st0" d="M238.5,715.9c-0.2,0-4.4,0.1-4.4,4.4v27c0,0.2,0.1,4.4,4.4,4.4h135c0.2,0,4.4-0.1,4.4-4.4v-27
			c0-0.2-0.1-4.4-4.4-4.4H238.5z"/>
		<path class="st0" d="M238.5,85.4c-0.2,0-4.4,0.1-4.4,4.4v27c0,0.2,0.1,4.4,4.4,4.4h135c0.2,0,4.4-0.1,4.4-4.4v-27
			c0-0.2-0.1-4.4-4.4-4.4H238.5z"/>
		<path class="st0" d="M238.5,130.4c-0.2,0-4.4,0.1-4.4,4.4v27c0,0.2,0.1,4.4,4.4,4.4h135c0.2,0,4.4-0.1,4.4-4.4v-27
			c0-0.2-0.1-4.4-4.4-4.4H238.5z"/>
		<path class="st0" d="M238.5,175.4c-0.2,0-4.4,0.1-4.4,4.4v27c0,0.2,0.1,4.4,4.4,4.4h135c0.2,0,4.4-0.1,4.4-4.4v-27
			c0-0.2-0.1-4.4-4.4-4.4H238.5z"/>
		<path class="st0" d="M238.5,220.5c-0.2,0-4.4,0.1-4.4,4.4v27c0,0.2,0.1,4.4,4.4,4.4h135c0.2,0,4.4-0.1,4.4-4.4v-27
			c0-0.2-0.1-4.4-4.4-4.4H238.5z"/>
		<path class="st0" d="M238.5,265.5c-0.2,0-4.4,0.1-4.4,4.4v27c0,0.2,0.1,4.4,4.4,4.4h135c0.2,0,4.4-0.1,4.4-4.4v-27
			c0-0.2-0.1-4.4-4.4-4.4H238.5z"/>
		<path class="st0" d="M238.5,310.6c-0.2,0-4.4,0.1-4.4,4.4v27c0,0.2,0.1,4.4,4.4,4.4h135c0.2,0,4.4-0.1,4.4-4.4v-27
			c0-0.2-0.1-4.4-4.4-4.4H238.5z"/>
		<path class="st0" d="M238.5,355.6c-0.2,0-4.4,0.1-4.4,4.4v27c0,0.2,0.1,4.4,4.4,4.4h135c0.2,0,4.4-0.1,4.4-4.4v-27
			c0-0.2-0.1-4.4-4.4-4.4H238.5z"/>
		<path class="st0" d="M238.5,400.6c-0.2,0-4.4,0.1-4.4,4.4v27c0,0.2,0.1,4.4,4.4,4.4h135c0.2,0,4.4-0.1,4.4-4.4v-27
			c0-0.2-0.1-4.4-4.4-4.4H238.5z"/>
		<path class="st0" d="M238.5,445.7c-0.2,0-4.4,0.1-4.4,4.4v27c0,0.2,0.1,4.4,4.4,4.4h135c0.2,0,4.4-0.1,4.4-4.4v-27
			c0-0.2-0.1-4.4-4.4-4.4H238.5z"/>
		<path class="st0" d="M238.5,490.7c-0.2,0-4.4,0.1-4.4,4.4v27c0,0.2,0.1,4.4,4.4,4.4h135c0.2,0,4.4-0.1,4.4-4.4v-27
			c0-0.2-0.1-4.4-4.4-4.4H238.5z"/>
		<path class="st0" d="M238.5,535.8c-0.2,0-4.4,0.1-4.4,4.4v27c0,0.2,0.1,4.4,4.4,4.4h135c0.2,0,4.4-0.1,4.4-4.4v-27
			c0-0.2-0.1-4.4-4.4-4.4H238.5z"/>
		<path class="st0" d="M238.5,580.8c-0.2,0-4.4,0.1-4.4,4.4v27c0,0.2,0.1,4.4,4.4,4.4h135c0.2,0,4.4-0.1,4.4-4.4v-27
			c0-0.2-0.1-4.4-4.4-4.4H238.5z"/>
		<path class="st0" d="M238.5,625.8c-0.2,0-4.4,0.1-4.4,4.4v27c0,0.2,0.1,4.4,4.4,4.4h135c0.2,0,4.4-0.1,4.4-4.4v-27
			c0-0.2-0.1-4.4-4.4-4.4H238.5z"/>
		<path class="st0" d="M238.5,670.9c-0.2,0-4.4,0.1-4.4,4.4v27c0,0.2,0.1,4.4,4.4,4.4h135c0.2,0,4.4-0.1,4.4-4.4v-27
			c0-0.2-0.1-4.4-4.4-4.4H238.5z"/>
	</g>
	<g>
		<path class="st0" d="M391.6,40.3c-0.2,0-4.4,0.1-4.4,4.4v27c0,0.2,0.1,4.4,4.4,4.4h135c0.2,0,4.4-0.1,4.4-4.4v-27
			c0-0.2-0.1-4.4-4.4-4.4H391.6z"/>
		<path class="st0" d="M391.6,715.9c-0.2,0-4.4,0.1-4.4,4.4v27c0,0.2,0.1,4.4,4.4,4.4h135c0.2,0,4.4-0.1,4.4-4.4v-27
			c0-0.2-0.1-4.4-4.4-4.4H391.6z"/>
		<path class="st0" d="M391.6,85.4c-0.2,0-4.4,0.1-4.4,4.4v27c0,0.2,0.1,4.4,4.4,4.4h135c0.2,0,4.4-0.1,4.4-4.4v-27
			c0-0.2-0.1-4.4-4.4-4.4H391.6z"/>
		<path class="st0" d="M391.6,130.4c-0.2,0-4.4,0.1-4.4,4.4v27c0,0.2,0.1,4.4,4.4,4.4h135c0.2,0,4.4-0.1,4.4-4.4v-27
			c0-0.2-0.1-4.4-4.4-4.4H391.6z"/>
		<path class="st0" d="M391.6,175.4c-0.2,0-4.4,0.1-4.4,4.4v27c0,0.2,0.1,4.4,4.4,4.4h135c0.2,0,4.4-0.1,4.4-4.4v-27
			c0-0.2-0.1-4.4-4.4-4.4H391.6z"/>
		<path class="st0" d="M391.6,220.5c-0.2,0-4.4,0.1-4.4,4.4v27c0,0.2,0.1,4.4,4.4,4.4h135c0.2,0,4.4-0.1,4.4-4.4v-27
			c0-0.2-0.1-4.4-4.4-4.4H391.6z"/>
		<path class="st0" d="M391.6,265.5c-0.2,0-4.4,0.1-4.4,4.4v27c0,0.2,0.1,4.4,4.4,4.4h135c0.2,0,4.4-0.1,4.4-4.4v-27
			c0-0.2-0.1-4.4-4.4-4.4H391.6z"/>
		<path class="st0" d="M391.6,310.6c-0.2,0-4.4,0.1-4.4,4.4v27c0,0.2,0.1,4.4,4.4,4.4h135c0.2,0,4.4-0.1,4.4-4.4v-27
			c0-0.2-0.1-4.4-4.4-4.4H391.6z"/>
		<path class="st0" d="M391.6,355.6c-0.2,0-4.4,0.1-4.4,4.4v27c0,0.2,0.1,4.4,4.4,4.4h135c0.2,0,4.4-0.1,4.4-4.4v-27
			c0-0.2-0.1-4.4-4.4-4.4H391.6z"/>
		<path class="st0" d="M391.6,400.6c-0.2,0-4.4,0.1-4.4,4.4v27c0,0.2,0.1,4.4,4.4,4.4h135c0.2,0,4.4-0.1,4.4-4.4v-27
			c0-0.2-0.1-4.4-4.4-4.4H391.6z"/>
		<path class="st0" d="M391.6,445.7c-0.2,0-4.4,0.1-4.4,4.4v27c0,0.2,0.1,4.4,4.4,4.4h135c0.2,0,4.4-0.1,4.4-4.4v-27
			c0-0.2-0.1-4.4-4.4-4.4H391.6z"/>
		<path class="st0" d="M391.6,490.7c-0.2,0-4.4,0.1-4.4,4.4v27c0,0.2,0.1,4.4,4.4,4.4h135c0.2,0,4.4-0.1,4.4-4.4v-27
			c0-0.2-0.1-4.4-4.4-4.4H391.6z"/>
		<path class="st0" d="M391.6,535.8c-0.2,0-4.4,0.1-4.4,4.4v27c0,0.2,0.1,4.4,4.4,4.4h135c0.2,0,4.4-0.1,4.4-4.4v-27
			c0-0.2-0.1-4.4-4.4-4.4H391.6z"/>
		<path class="st0" d="M391.6,580.8c-0.2,0-4.4,0.1-4.4,4.4v27c0,0.2,0.1,4.4,4.4,4.4h135c0.2,0,4.4-0.1,4.4-4.4v-27
			c0-0.2-0.1-4.4-4.4-4.4H391.6z"/>
		<path class="st0" d="M391.6,625.8c-0.2,0-4.4,0.1-4.4,4.4v27c0,0.2,0.1,4.4,4.4,4.4h135c0.2,0,4.4-0.1,4.4-4.4v-27
			c0-0.2-0.1-4.4-4.4-4.4H391.6z"/>
		<path class="st0" d="M391.6,670.9c-0.2,0-4.4,0.1-4.4,4.4v27c0,0.2,0.1,4.4,4.4,4.4h135c0.2,0,4.4-0.1,4.4-4.4v-27
			c0-0.2-0.1-4.4-4.4-4.4H391.6z"/>
	</g>
</g>
<rect class="st0" width="612" height="792"/>
</svg>
