<?xml version="1.0" encoding="utf-8"?>
<!-- Generator: Adobe Illustrator 21.1.0, SVG Export Plug-In . SVG Version: 6.00 Build 0)  -->
<svg version="1.1" id="Layer_1" xmlns="http://www.w3.org/2000/svg" xmlns:xlink="http://www.w3.org/1999/xlink" x="0px" y="0px"
	 viewBox="0 0 614 794" style="enable-background:new 0 0 614 794;" xml:space="preserve">
<style type="text/css">
	.st0{fill:none;stroke:#231F20;stroke-width:2;stroke-miterlimit:10;}
</style>
<title>SL677</title>
<path class="st0" d="M27.1,37h252c2.5,0,4.5,2,4.5,4.5v90c0,2.5-2,4.5-4.5,4.5h-252c-2.5,0-4.5-2-4.5-4.5v-90
	C22.6,39,24.6,37,27.1,37z"/>
<path class="st0" d="M334.9,37h252c2.5,0,4.5,2,4.5,4.5v90c0,2.5-2,4.5-4.5,4.5h-252c-2.5,0-4.5-2-4.5-4.5v-90
	C330.4,39,332.4,37,334.9,37z"/>
<path class="st0" d="M27.1,658h252c2.5,0,4.5,2,4.5,4.5v90c0,2.5-2,4.5-4.5,4.5h-252c-2.5,0-4.5-2-4.5-4.5v-90
	C22.6,660,24.6,658,27.1,658z"/>
<path class="st0" d="M334.9,658h252c2.5,0,4.5,2,4.5,4.5v90c0,2.5-2,4.5-4.5,4.5h-252c-2.5,0-4.5-2-4.5-4.5v-90
	C330.4,660,332.4,658,334.9,658z"/>
<path class="st0" d="M27.1,285.4h252c2.5,0,4.5,2,4.5,4.5v90c0,2.5-2,4.5-4.5,4.5h-252c-2.5,0-4.5-2-4.5-4.5v-90
	C22.6,287.4,24.6,285.4,27.1,285.4z"/>
<path class="st0" d="M334.9,285.4h252c2.5,0,4.5,2,4.5,4.5v90c0,2.5-2,4.5-4.5,4.5h-252c-2.5,0-4.5-2-4.5-4.5v-90
	C330.4,287.4,332.4,285.4,334.9,285.4z"/>
<path class="st0" d="M27.1,409.6h252c2.5,0,4.5,2,4.5,4.5v90c0,2.5-2,4.5-4.5,4.5h-252c-2.5,0-4.5-2-4.5-4.5v-90
	C22.6,411.6,24.6,409.6,27.1,409.6z"/>
<path class="st0" d="M334.9,409.6h252c2.5,0,4.5,2,4.5,4.5v90c0,2.5-2,4.5-4.5,4.5h-252c-2.5,0-4.5-2-4.5-4.5v-90
	C330.4,411.6,332.4,409.6,334.9,409.6z"/>
<path class="st0" d="M27.1,533.8h252c2.5,0,4.5,2,4.5,4.5v90c0,2.5-2,4.5-4.5,4.5h-252c-2.5,0-4.5-2-4.5-4.5v-90
	C22.6,535.8,24.6,533.8,27.1,533.8z"/>
<path class="st0" d="M334.9,533.8h252c2.5,0,4.5,2,4.5,4.5v90c0,2.5-2,4.5-4.5,4.5h-252c-2.5,0-4.5-2-4.5-4.5v-90
	C330.4,535.8,332.4,533.8,334.9,533.8z"/>
<path class="st0" d="M27.1,161.2h252c2.5,0,4.5,2,4.5,4.5v90c0,2.5-2,4.5-4.5,4.5h-252c-2.5,0-4.5-2-4.5-4.5v-90
	C22.6,163.2,24.6,161.2,27.1,161.2z"/>
<path class="st0" d="M334.9,161.2h252c2.5,0,4.5,2,4.5,4.5v90c0,2.5-2,4.5-4.5,4.5h-252c-2.5,0-4.5-2-4.5-4.5v-90
	C330.4,163.2,332.4,161.2,334.9,161.2z"/>
<rect x="1" y="1" class="st0" width="612" height="792"/>
</svg>
