<?xml version="1.0" encoding="utf-8"?>
<!-- Generator: Adobe Illustrator 21.1.0, SVG Export Plug-In . SVG Version: 6.00 Build 0)  -->
<svg version="1.1" id="Layer_1" xmlns="http://www.w3.org/2000/svg" xmlns:xlink="http://www.w3.org/1999/xlink" x="0px" y="0px"
	 viewBox="0 0 614.5 794.5" style="enable-background:new 0 0 614.5 794.5;" xml:space="preserve">
<style type="text/css">
	.st0{fill:none;stroke:#231F20;stroke-width:2;}
</style>
<title>SL681</title>
<g id="Layer_1_1_">
	<ellipse class="st0" cx="40.3" cy="54.7" rx="19.8" ry="16.2"/>
	<ellipse class="st0" cx="575.7" cy="54.7" rx="19.8" ry="16.2"/>
	<ellipse class="st0" cx="508.8" cy="54.7" rx="19.8" ry="16.2"/>
	<ellipse class="st0" cx="441.9" cy="54.7" rx="19.8" ry="16.2"/>
	<ellipse class="st0" cx="374.9" cy="54.7" rx="19.8" ry="16.2"/>
	<ellipse class="st0" cx="241.1" cy="54.7" rx="19.8" ry="16.2"/>
	<ellipse class="st0" cx="174.1" cy="54.7" rx="19.8" ry="16.2"/>
	<ellipse class="st0" cx="107.2" cy="54.7" rx="19.8" ry="16.2"/>
	<ellipse class="st0" cx="308" cy="54.7" rx="19.8" ry="16.2"/>
	<ellipse class="st0" cx="40.3" cy="741.3" rx="19.8" ry="16.2"/>
	<ellipse class="st0" cx="575.7" cy="741.3" rx="19.8" ry="16.2"/>
	<ellipse class="st0" cx="508.8" cy="741.3" rx="19.8" ry="16.2"/>
	<ellipse class="st0" cx="441.9" cy="741.3" rx="19.8" ry="16.2"/>
	<ellipse class="st0" cx="374.9" cy="741.3" rx="19.8" ry="16.2"/>
	<ellipse class="st0" cx="241.1" cy="741.3" rx="19.8" ry="16.2"/>
	<ellipse class="st0" cx="174.1" cy="741.3" rx="19.8" ry="16.2"/>
	<ellipse class="st0" cx="107.2" cy="741.3" rx="19.8" ry="16.2"/>
	<ellipse class="st0" cx="308" cy="741.3" rx="19.8" ry="16.2"/>
	<ellipse class="st0" cx="40.3" cy="103.7" rx="19.8" ry="16.2"/>
	<ellipse class="st0" cx="575.7" cy="103.7" rx="19.8" ry="16.2"/>
	<ellipse class="st0" cx="508.8" cy="103.7" rx="19.8" ry="16.2"/>
	<ellipse class="st0" cx="441.9" cy="103.7" rx="19.8" ry="16.2"/>
	<ellipse class="st0" cx="374.9" cy="103.7" rx="19.8" ry="16.2"/>
	<ellipse class="st0" cx="241.1" cy="103.7" rx="19.8" ry="16.2"/>
	<ellipse class="st0" cx="174.1" cy="103.7" rx="19.8" ry="16.2"/>
	<ellipse class="st0" cx="107.2" cy="103.7" rx="19.8" ry="16.2"/>
	<ellipse class="st0" cx="308" cy="103.7" rx="19.8" ry="16.2"/>
	<ellipse class="st0" cx="40.3" cy="152.8" rx="19.8" ry="16.2"/>
	<ellipse class="st0" cx="575.7" cy="152.8" rx="19.8" ry="16.2"/>
	<ellipse class="st0" cx="508.8" cy="152.8" rx="19.8" ry="16.2"/>
	<ellipse class="st0" cx="441.9" cy="152.8" rx="19.8" ry="16.2"/>
	<ellipse class="st0" cx="374.9" cy="152.8" rx="19.8" ry="16.2"/>
	<ellipse class="st0" cx="241.1" cy="152.8" rx="19.8" ry="16.2"/>
	<ellipse class="st0" cx="174.1" cy="152.8" rx="19.8" ry="16.2"/>
	<ellipse class="st0" cx="107.2" cy="152.8" rx="19.8" ry="16.2"/>
	<ellipse class="st0" cx="308" cy="152.8" rx="19.8" ry="16.2"/>
	<ellipse class="st0" cx="40.3" cy="201.8" rx="19.8" ry="16.2"/>
	<ellipse class="st0" cx="575.7" cy="201.8" rx="19.8" ry="16.2"/>
	<ellipse class="st0" cx="508.8" cy="201.8" rx="19.8" ry="16.2"/>
	<ellipse class="st0" cx="441.9" cy="201.8" rx="19.8" ry="16.2"/>
	<ellipse class="st0" cx="374.9" cy="201.8" rx="19.8" ry="16.2"/>
	<ellipse class="st0" cx="241.1" cy="201.8" rx="19.8" ry="16.2"/>
	<ellipse class="st0" cx="174.1" cy="201.8" rx="19.8" ry="16.2"/>
	<ellipse class="st0" cx="107.2" cy="201.8" rx="19.8" ry="16.2"/>
	<ellipse class="st0" cx="308" cy="201.8" rx="19.8" ry="16.2"/>
	<ellipse class="st0" cx="40.3" cy="250.9" rx="19.8" ry="16.2"/>
	<ellipse class="st0" cx="575.7" cy="250.9" rx="19.8" ry="16.2"/>
	<ellipse class="st0" cx="508.8" cy="250.9" rx="19.8" ry="16.2"/>
	<ellipse class="st0" cx="441.9" cy="250.9" rx="19.8" ry="16.2"/>
	<ellipse class="st0" cx="374.9" cy="250.9" rx="19.8" ry="16.2"/>
	<ellipse class="st0" cx="241.1" cy="250.9" rx="19.8" ry="16.2"/>
	<ellipse class="st0" cx="174.1" cy="250.9" rx="19.8" ry="16.2"/>
	<ellipse class="st0" cx="107.2" cy="250.9" rx="19.8" ry="16.2"/>
	<ellipse class="st0" cx="308" cy="250.9" rx="19.8" ry="16.2"/>
	<ellipse class="st0" cx="40.3" cy="299.9" rx="19.8" ry="16.2"/>
	<ellipse class="st0" cx="575.7" cy="299.9" rx="19.8" ry="16.2"/>
	<ellipse class="st0" cx="508.8" cy="299.9" rx="19.8" ry="16.2"/>
	<ellipse class="st0" cx="441.9" cy="299.9" rx="19.8" ry="16.2"/>
	<ellipse class="st0" cx="374.9" cy="299.9" rx="19.8" ry="16.2"/>
	<ellipse class="st0" cx="241.1" cy="299.9" rx="19.8" ry="16.2"/>
	<ellipse class="st0" cx="174.1" cy="299.9" rx="19.8" ry="16.2"/>
	<ellipse class="st0" cx="107.2" cy="299.9" rx="19.8" ry="16.2"/>
	<ellipse class="st0" cx="308" cy="299.9" rx="19.8" ry="16.2"/>
	<ellipse class="st0" cx="40.3" cy="349" rx="19.8" ry="16.2"/>
	<ellipse class="st0" cx="575.7" cy="349" rx="19.8" ry="16.2"/>
	<ellipse class="st0" cx="508.8" cy="349" rx="19.8" ry="16.2"/>
	<ellipse class="st0" cx="441.9" cy="349" rx="19.8" ry="16.2"/>
	<ellipse class="st0" cx="374.9" cy="349" rx="19.8" ry="16.2"/>
	<ellipse class="st0" cx="241.1" cy="349" rx="19.8" ry="16.2"/>
	<ellipse class="st0" cx="174.1" cy="349" rx="19.8" ry="16.2"/>
	<ellipse class="st0" cx="107.2" cy="349" rx="19.8" ry="16.2"/>
	<ellipse class="st0" cx="308" cy="349" rx="19.8" ry="16.2"/>
	<ellipse class="st0" cx="40.3" cy="398" rx="19.8" ry="16.2"/>
	<ellipse class="st0" cx="575.7" cy="398" rx="19.8" ry="16.2"/>
	<ellipse class="st0" cx="508.8" cy="398" rx="19.8" ry="16.2"/>
	<ellipse class="st0" cx="441.9" cy="398" rx="19.8" ry="16.2"/>
	<ellipse class="st0" cx="374.9" cy="398" rx="19.8" ry="16.2"/>
	<ellipse class="st0" cx="241.1" cy="398" rx="19.8" ry="16.2"/>
	<ellipse class="st0" cx="174.1" cy="398" rx="19.8" ry="16.2"/>
	<ellipse class="st0" cx="107.2" cy="398" rx="19.8" ry="16.2"/>
	<ellipse class="st0" cx="308" cy="398" rx="19.8" ry="16.2"/>
	<ellipse class="st0" cx="40.3" cy="447" rx="19.8" ry="16.2"/>
	<ellipse class="st0" cx="575.7" cy="447" rx="19.8" ry="16.2"/>
	<ellipse class="st0" cx="508.8" cy="447" rx="19.8" ry="16.2"/>
	<ellipse class="st0" cx="441.9" cy="447" rx="19.8" ry="16.2"/>
	<ellipse class="st0" cx="374.9" cy="447" rx="19.8" ry="16.2"/>
	<ellipse class="st0" cx="241.1" cy="447" rx="19.8" ry="16.2"/>
	<ellipse class="st0" cx="174.1" cy="447" rx="19.8" ry="16.2"/>
	<ellipse class="st0" cx="107.2" cy="447" rx="19.8" ry="16.2"/>
	<ellipse class="st0" cx="308" cy="447" rx="19.8" ry="16.2"/>
	<ellipse class="st0" cx="40.3" cy="496.1" rx="19.8" ry="16.2"/>
	<ellipse class="st0" cx="575.7" cy="496.1" rx="19.8" ry="16.2"/>
	<ellipse class="st0" cx="508.8" cy="496.1" rx="19.8" ry="16.2"/>
	<ellipse class="st0" cx="441.9" cy="496.1" rx="19.8" ry="16.2"/>
	<ellipse class="st0" cx="374.9" cy="496.1" rx="19.8" ry="16.2"/>
	<ellipse class="st0" cx="241.1" cy="496.1" rx="19.8" ry="16.2"/>
	<ellipse class="st0" cx="174.1" cy="496.1" rx="19.8" ry="16.2"/>
	<ellipse class="st0" cx="107.2" cy="496.1" rx="19.8" ry="16.2"/>
	<ellipse class="st0" cx="308" cy="496.1" rx="19.8" ry="16.2"/>
	<ellipse class="st0" cx="40.3" cy="545.1" rx="19.8" ry="16.2"/>
	<ellipse class="st0" cx="575.7" cy="545.1" rx="19.8" ry="16.2"/>
	<ellipse class="st0" cx="508.8" cy="545.1" rx="19.8" ry="16.2"/>
	<ellipse class="st0" cx="441.9" cy="545.1" rx="19.8" ry="16.2"/>
	<ellipse class="st0" cx="374.9" cy="545.1" rx="19.8" ry="16.2"/>
	<ellipse class="st0" cx="241.1" cy="545.1" rx="19.8" ry="16.2"/>
	<ellipse class="st0" cx="174.1" cy="545.1" rx="19.8" ry="16.2"/>
	<ellipse class="st0" cx="107.2" cy="545.1" rx="19.8" ry="16.2"/>
	<ellipse class="st0" cx="308" cy="545.1" rx="19.8" ry="16.2"/>
	<ellipse class="st0" cx="40.3" cy="594.2" rx="19.8" ry="16.2"/>
	<ellipse class="st0" cx="575.7" cy="594.2" rx="19.8" ry="16.2"/>
	<ellipse class="st0" cx="508.8" cy="594.2" rx="19.8" ry="16.2"/>
	<ellipse class="st0" cx="441.9" cy="594.2" rx="19.8" ry="16.2"/>
	<ellipse class="st0" cx="374.9" cy="594.2" rx="19.8" ry="16.2"/>
	<ellipse class="st0" cx="241.1" cy="594.2" rx="19.8" ry="16.2"/>
	<ellipse class="st0" cx="174.1" cy="594.2" rx="19.8" ry="16.2"/>
	<ellipse class="st0" cx="107.2" cy="594.2" rx="19.8" ry="16.2"/>
	<ellipse class="st0" cx="308" cy="594.2" rx="19.8" ry="16.2"/>
	<ellipse class="st0" cx="40.3" cy="643.2" rx="19.8" ry="16.2"/>
	<ellipse class="st0" cx="575.7" cy="643.2" rx="19.8" ry="16.2"/>
	<ellipse class="st0" cx="508.8" cy="643.2" rx="19.8" ry="16.2"/>
	<ellipse class="st0" cx="441.9" cy="643.2" rx="19.8" ry="16.2"/>
	<ellipse class="st0" cx="374.9" cy="643.2" rx="19.8" ry="16.2"/>
	<ellipse class="st0" cx="241.1" cy="643.2" rx="19.8" ry="16.2"/>
	<ellipse class="st0" cx="174.1" cy="643.2" rx="19.8" ry="16.2"/>
	<ellipse class="st0" cx="107.2" cy="643.2" rx="19.8" ry="16.2"/>
	<ellipse class="st0" cx="308" cy="643.2" rx="19.8" ry="16.2"/>
	<ellipse class="st0" cx="40.3" cy="692.3" rx="19.8" ry="16.2"/>
	<ellipse class="st0" cx="575.7" cy="692.3" rx="19.8" ry="16.2"/>
	<ellipse class="st0" cx="508.8" cy="692.3" rx="19.8" ry="16.2"/>
	<ellipse class="st0" cx="441.9" cy="692.3" rx="19.8" ry="16.2"/>
	<ellipse class="st0" cx="374.9" cy="692.3" rx="19.8" ry="16.2"/>
	<ellipse class="st0" cx="241.1" cy="692.3" rx="19.8" ry="16.2"/>
	<ellipse class="st0" cx="174.1" cy="692.3" rx="19.8" ry="16.2"/>
	<ellipse class="st0" cx="107.2" cy="692.3" rx="19.8" ry="16.2"/>
	<ellipse class="st0" cx="308" cy="692.3" rx="19.8" ry="16.2"/>
</g>
<rect x="1.2" y="1.2" class="st0" width="612" height="792"/>
</svg>
