<?xml version="1.0" encoding="utf-8"?>
<!-- Generator: Adobe Illustrator 20.1.0, SVG Export Plug-In . SVG Version: 6.00 Build 0)  -->
<svg version="1.1" id="Layer_2" xmlns="http://www.w3.org/2000/svg" xmlns:xlink="http://www.w3.org/1999/xlink" x="0px" y="0px"
	 viewBox="0 0 612 792" style="enable-background:new 0 0 612 792;" xml:space="preserve">
<style type="text/css">
	.st0{fill:none;stroke:#000000;stroke-width:2;}
</style>
<rect x="36" y="45" class="st0" width="90" height="54"/>
<rect x="486" y="45" class="st0" width="90" height="54"/>
<rect x="396" y="45" class="st0" width="90" height="54"/>
<rect x="306" y="45" class="st0" width="90" height="54"/>
<rect x="216" y="45" class="st0" width="90" height="54"/>
<rect x="126" y="45" class="st0" width="90" height="54"/>
<rect x="36" y="693" class="st0" width="90" height="54"/>
<rect x="486" y="693" class="st0" width="90" height="54"/>
<rect x="396" y="693" class="st0" width="90" height="54"/>
<rect x="306" y="693" class="st0" width="90" height="54"/>
<rect x="216" y="693" class="st0" width="90" height="54"/>
<rect x="126" y="693" class="st0" width="90" height="54"/>
<rect x="36" y="639" class="st0" width="90" height="54"/>
<rect x="486" y="639" class="st0" width="90" height="54"/>
<rect x="396" y="639" class="st0" width="90" height="54"/>
<rect x="306" y="639" class="st0" width="90" height="54"/>
<rect x="216" y="639" class="st0" width="90" height="54"/>
<rect x="126" y="639" class="st0" width="90" height="54"/>
<rect x="36" y="99" class="st0" width="90" height="54"/>
<rect x="486" y="99" class="st0" width="90" height="54"/>
<rect x="396" y="99" class="st0" width="90" height="54"/>
<rect x="306" y="99" class="st0" width="90" height="54"/>
<rect x="216" y="99" class="st0" width="90" height="54"/>
<rect x="126" y="99" class="st0" width="90" height="54"/>
<rect x="36" y="153" class="st0" width="90" height="54"/>
<rect x="486" y="153" class="st0" width="90" height="54"/>
<rect x="396" y="153" class="st0" width="90" height="54"/>
<rect x="306" y="153" class="st0" width="90" height="54"/>
<rect x="216" y="153" class="st0" width="90" height="54"/>
<rect x="126" y="153" class="st0" width="90" height="54"/>
<rect x="36" y="207" class="st0" width="90" height="54"/>
<rect x="486" y="207" class="st0" width="90" height="54"/>
<rect x="396" y="207" class="st0" width="90" height="54"/>
<rect x="306" y="207" class="st0" width="90" height="54"/>
<rect x="216" y="207" class="st0" width="90" height="54"/>
<rect x="126" y="207" class="st0" width="90" height="54"/>
<rect x="36" y="261" class="st0" width="90" height="54"/>
<rect x="486" y="261" class="st0" width="90" height="54"/>
<rect x="396" y="261" class="st0" width="90" height="54"/>
<rect x="306" y="261" class="st0" width="90" height="54"/>
<rect x="216" y="261" class="st0" width="90" height="54"/>
<rect x="126" y="261" class="st0" width="90" height="54"/>
<rect x="36" y="315" class="st0" width="90" height="54"/>
<rect x="486" y="315" class="st0" width="90" height="54"/>
<rect x="396" y="315" class="st0" width="90" height="54"/>
<rect x="306" y="315" class="st0" width="90" height="54"/>
<rect x="216" y="315" class="st0" width="90" height="54"/>
<rect x="126" y="315" class="st0" width="90" height="54"/>
<rect x="36" y="369" class="st0" width="90" height="54"/>
<rect x="486" y="369" class="st0" width="90" height="54"/>
<rect x="396" y="369" class="st0" width="90" height="54"/>
<rect x="306" y="369" class="st0" width="90" height="54"/>
<rect x="216" y="369" class="st0" width="90" height="54"/>
<rect x="126" y="369" class="st0" width="90" height="54"/>
<rect x="36" y="423" class="st0" width="90" height="54"/>
<rect x="486" y="423" class="st0" width="90" height="54"/>
<rect x="396" y="423" class="st0" width="90" height="54"/>
<rect x="306" y="423" class="st0" width="90" height="54"/>
<rect x="216" y="423" class="st0" width="90" height="54"/>
<rect x="126" y="423" class="st0" width="90" height="54"/>
<rect x="36" y="531" class="st0" width="90" height="54"/>
<rect x="486" y="531" class="st0" width="90" height="54"/>
<rect x="396" y="531" class="st0" width="90" height="54"/>
<rect x="306" y="531" class="st0" width="90" height="54"/>
<rect x="216" y="531" class="st0" width="90" height="54"/>
<rect x="126" y="531" class="st0" width="90" height="54"/>
<rect x="36" y="585" class="st0" width="90" height="54"/>
<rect x="486" y="585" class="st0" width="90" height="54"/>
<rect x="396" y="585" class="st0" width="90" height="54"/>
<rect x="306" y="585" class="st0" width="90" height="54"/>
<rect x="216" y="585" class="st0" width="90" height="54"/>
<rect x="126" y="585" class="st0" width="90" height="54"/>
<rect x="36" y="477" class="st0" width="90" height="54"/>
<rect x="486" y="477" class="st0" width="90" height="54"/>
<rect x="396" y="477" class="st0" width="90" height="54"/>
<rect x="306" y="477" class="st0" width="90" height="54"/>
<rect x="216" y="477" class="st0" width="90" height="54"/>
<rect x="126" y="477" class="st0" width="90" height="54"/>
<rect x="0" y="0" class="st0" width="612" height="792"/>
</svg>
