<?xml version="1.0" encoding="utf-8"?>
<!-- Generator: Adobe Illustrator 20.1.0, SVG Export Plug-In . SVG Version: 6.00 Build 0)  -->
<svg version="1.1" id="Layer_1" xmlns="http://www.w3.org/2000/svg" xmlns:xlink="http://www.w3.org/1999/xlink" x="0px" y="0px"
	 viewBox="0 0 612 792" style="enable-background:new 0 0 612 792;" xml:space="preserve">
<style type="text/css">
	.st0{fill:none;stroke:#000000;stroke-width:2;}
</style>
<g>
	<g>
		<path class="st0" d="M135,87.5c0,2.5-2,4.5-4.5,4.5h-90C38,92,36,90,36,87.5v-45c0-2.5,2-4.5,4.5-4.5h90c2.5,0,4.5,2,4.5,4.5V87.5
			z"/>
		<path class="st0" d="M576,87.5c0,2.5-2,4.5-4.5,4.5h-90c-2.5,0-4.5-2-4.5-4.5v-45c0-2.5,2-4.5,4.5-4.5h90c2.5,0,4.5,2,4.5,4.5
			V87.5z"/>
		<path class="st0" d="M465.8,87.5c0,2.5-2,4.5-4.5,4.5h-90c-2.5,0-4.5-2-4.5-4.5v-45c0-2.5,2-4.5,4.5-4.5h90c2.5,0,4.5,2,4.5,4.5
			V87.5z"/>
		<path class="st0" d="M355.5,87.5c0,2.5-2,4.5-4.5,4.5h-90c-2.5,0-4.5-2-4.5-4.5v-45c0-2.5,2-4.5,4.5-4.5h90c2.5,0,4.5,2,4.5,4.5
			V87.5z"/>
		<path class="st0" d="M245.3,87.5c0,2.5-2,4.5-4.5,4.5h-90c-2.5,0-4.5-2-4.5-4.5v-45c0-2.5,2-4.5,4.5-4.5h90c2.5,0,4.5,2,4.5,4.5
			V87.5z"/>
	</g>
	<g>
		<path class="st0" d="M576,753.5c0,2.5-2,4.5-4.5,4.5h-90c-2.5,0-4.5-2-4.5-4.5v-45c0-2.5,2-4.5,4.5-4.5h90c2.5,0,4.5,2,4.5,4.5
			V753.5z"/>
		<path class="st0" d="M135,753.5c0,2.5-2,4.5-4.5,4.5h-90c-2.5,0-4.5-2-4.5-4.5v-45c0-2.5,2-4.5,4.5-4.5h90c2.5,0,4.5,2,4.5,4.5
			V753.5z"/>
		<path class="st0" d="M465.8,753.5c0,2.5-2,4.5-4.5,4.5h-90c-2.5,0-4.5-2-4.5-4.5v-45c0-2.5,2-4.5,4.5-4.5h90c2.5,0,4.5,2,4.5,4.5
			V753.5z"/>
		<path class="st0" d="M355.5,753.5c0,2.5-2,4.5-4.5,4.5h-90c-2.5,0-4.5-2-4.5-4.5v-45c0-2.5,2-4.5,4.5-4.5h90c2.5,0,4.5,2,4.5,4.5
			V753.5z"/>
		<path class="st0" d="M245.3,753.5c0,2.5-2,4.5-4.5,4.5h-90c-2.5,0-4.5-2-4.5-4.5v-45c0-2.5,2-4.5,4.5-4.5h90c2.5,0,4.5,2,4.5,4.5
			V753.5z"/>
	</g>
	<g>
		<path class="st0" d="M576,154.1c0,2.5-2,4.5-4.5,4.5h-90c-2.5,0-4.5-2-4.5-4.5v-45c0-2.5,2-4.5,4.5-4.5h90c2.5,0,4.5,2,4.5,4.5
			V154.1z"/>
		<path class="st0" d="M135,154.1c0,2.5-2,4.5-4.5,4.5h-90c-2.5,0-4.5-2-4.5-4.5v-45c0-2.5,2-4.5,4.5-4.5h90c2.5,0,4.5,2,4.5,4.5
			V154.1z"/>
		<path class="st0" d="M465.8,154.1c0,2.5-2,4.5-4.5,4.5h-90c-2.5,0-4.5-2-4.5-4.5v-45c0-2.5,2-4.5,4.5-4.5h90c2.5,0,4.5,2,4.5,4.5
			V154.1z"/>
		<path class="st0" d="M355.5,154.1c0,2.5-2,4.5-4.5,4.5h-90c-2.5,0-4.5-2-4.5-4.5v-45c0-2.5,2-4.5,4.5-4.5h90c2.5,0,4.5,2,4.5,4.5
			V154.1z"/>
		<path class="st0" d="M245.3,154.1c0,2.5-2,4.5-4.5,4.5h-90c-2.5,0-4.5-2-4.5-4.5v-45c0-2.5,2-4.5,4.5-4.5h90c2.5,0,4.5,2,4.5,4.5
			V154.1z"/>
	</g>
	<g>
		<path class="st0" d="M576,220.7c0,2.5-2,4.5-4.5,4.5h-90c-2.5,0-4.5-2-4.5-4.5v-45c0-2.5,2-4.5,4.5-4.5h90c2.5,0,4.5,2,4.5,4.5
			V220.7z"/>
		<path class="st0" d="M135,220.7c0,2.5-2,4.5-4.5,4.5h-90c-2.5,0-4.5-2-4.5-4.5v-45c0-2.5,2-4.5,4.5-4.5h90c2.5,0,4.5,2,4.5,4.5
			V220.7z"/>
		<path class="st0" d="M465.8,220.7c0,2.5-2,4.5-4.5,4.5h-90c-2.5,0-4.5-2-4.5-4.5v-45c0-2.5,2-4.5,4.5-4.5h90c2.5,0,4.5,2,4.5,4.5
			V220.7z"/>
		<path class="st0" d="M355.5,220.7c0,2.5-2,4.5-4.5,4.5h-90c-2.5,0-4.5-2-4.5-4.5v-45c0-2.5,2-4.5,4.5-4.5h90c2.5,0,4.5,2,4.5,4.5
			V220.7z"/>
		<path class="st0" d="M245.3,220.7c0,2.5-2,4.5-4.5,4.5h-90c-2.5,0-4.5-2-4.5-4.5v-45c0-2.5,2-4.5,4.5-4.5h90c2.5,0,4.5,2,4.5,4.5
			V220.7z"/>
	</g>
	<g>
		<path class="st0" d="M576,287.3c0,2.5-2,4.5-4.5,4.5h-90c-2.5,0-4.5-2-4.5-4.5v-45c0-2.5,2-4.5,4.5-4.5h90c2.5,0,4.5,2,4.5,4.5
			V287.3z"/>
		<path class="st0" d="M135,287.3c0,2.5-2,4.5-4.5,4.5h-90c-2.5,0-4.5-2-4.5-4.5v-45c0-2.5,2-4.5,4.5-4.5h90c2.5,0,4.5,2,4.5,4.5
			V287.3z"/>
		<path class="st0" d="M465.8,287.3c0,2.5-2,4.5-4.5,4.5h-90c-2.5,0-4.5-2-4.5-4.5v-45c0-2.5,2-4.5,4.5-4.5h90c2.5,0,4.5,2,4.5,4.5
			V287.3z"/>
		<path class="st0" d="M355.5,287.3c0,2.5-2,4.5-4.5,4.5h-90c-2.5,0-4.5-2-4.5-4.5v-45c0-2.5,2-4.5,4.5-4.5h90c2.5,0,4.5,2,4.5,4.5
			V287.3z"/>
		<path class="st0" d="M245.3,287.3c0,2.5-2,4.5-4.5,4.5h-90c-2.5,0-4.5-2-4.5-4.5v-45c0-2.5,2-4.5,4.5-4.5h90c2.5,0,4.5,2,4.5,4.5
			V287.3z"/>
	</g>
	<g>
		<path class="st0" d="M576,353.9c0,2.5-2,4.5-4.5,4.5h-90c-2.5,0-4.5-2-4.5-4.5v-45c0-2.5,2-4.5,4.5-4.5h90c2.5,0,4.5,2,4.5,4.5
			V353.9z"/>
		<path class="st0" d="M135,353.9c0,2.5-2,4.5-4.5,4.5h-90c-2.5,0-4.5-2-4.5-4.5v-45c0-2.5,2-4.5,4.5-4.5h90c2.5,0,4.5,2,4.5,4.5
			V353.9z"/>
		<path class="st0" d="M465.8,353.9c0,2.5-2,4.5-4.5,4.5h-90c-2.5,0-4.5-2-4.5-4.5v-45c0-2.5,2-4.5,4.5-4.5h90c2.5,0,4.5,2,4.5,4.5
			V353.9z"/>
		<path class="st0" d="M355.5,353.9c0,2.5-2,4.5-4.5,4.5h-90c-2.5,0-4.5-2-4.5-4.5v-45c0-2.5,2-4.5,4.5-4.5h90c2.5,0,4.5,2,4.5,4.5
			V353.9z"/>
		<path class="st0" d="M245.3,353.9c0,2.5-2,4.5-4.5,4.5h-90c-2.5,0-4.5-2-4.5-4.5v-45c0-2.5,2-4.5,4.5-4.5h90c2.5,0,4.5,2,4.5,4.5
			V353.9z"/>
	</g>
	<g>
		<path class="st0" d="M576,420.5c0,2.5-2,4.5-4.5,4.5h-90c-2.5,0-4.5-2-4.5-4.5v-45c0-2.5,2-4.5,4.5-4.5h90c2.5,0,4.5,2,4.5,4.5
			V420.5z"/>
		<path class="st0" d="M135,420.5c0,2.5-2,4.5-4.5,4.5h-90c-2.5,0-4.5-2-4.5-4.5v-45c0-2.5,2-4.5,4.5-4.5h90c2.5,0,4.5,2,4.5,4.5
			V420.5z"/>
		<path class="st0" d="M465.8,420.5c0,2.5-2,4.5-4.5,4.5h-90c-2.5,0-4.5-2-4.5-4.5v-45c0-2.5,2-4.5,4.5-4.5h90c2.5,0,4.5,2,4.5,4.5
			V420.5z"/>
		<path class="st0" d="M355.5,420.5c0,2.5-2,4.5-4.5,4.5h-90c-2.5,0-4.5-2-4.5-4.5v-45c0-2.5,2-4.5,4.5-4.5h90c2.5,0,4.5,2,4.5,4.5
			V420.5z"/>
		<path class="st0" d="M245.3,420.5c0,2.5-2,4.5-4.5,4.5h-90c-2.5,0-4.5-2-4.5-4.5v-45c0-2.5,2-4.5,4.5-4.5h90c2.5,0,4.5,2,4.5,4.5
			V420.5z"/>
	</g>
	<g>
		<path class="st0" d="M576,487.1c0,2.5-2,4.5-4.5,4.5h-90c-2.5,0-4.5-2-4.5-4.5v-45c0-2.5,2-4.5,4.5-4.5h90c2.5,0,4.5,2,4.5,4.5
			V487.1z"/>
		<path class="st0" d="M135,487.1c0,2.5-2,4.5-4.5,4.5h-90c-2.5,0-4.5-2-4.5-4.5v-45c0-2.5,2-4.5,4.5-4.5h90c2.5,0,4.5,2,4.5,4.5
			V487.1z"/>
		<path class="st0" d="M465.8,487.1c0,2.5-2,4.5-4.5,4.5h-90c-2.5,0-4.5-2-4.5-4.5v-45c0-2.5,2-4.5,4.5-4.5h90c2.5,0,4.5,2,4.5,4.5
			V487.1z"/>
		<path class="st0" d="M355.5,487.1c0,2.5-2,4.5-4.5,4.5h-90c-2.5,0-4.5-2-4.5-4.5v-45c0-2.5,2-4.5,4.5-4.5h90c2.5,0,4.5,2,4.5,4.5
			V487.1z"/>
		<path class="st0" d="M245.3,487.1c0,2.5-2,4.5-4.5,4.5h-90c-2.5,0-4.5-2-4.5-4.5v-45c0-2.5,2-4.5,4.5-4.5h90c2.5,0,4.5,2,4.5,4.5
			V487.1z"/>
	</g>
	<g>
		<path class="st0" d="M576,553.7c0,2.5-2,4.5-4.5,4.5h-90c-2.5,0-4.5-2-4.5-4.5v-45c0-2.5,2-4.5,4.5-4.5h90c2.5,0,4.5,2,4.5,4.5
			V553.7z"/>
		<path class="st0" d="M135,553.7c0,2.5-2,4.5-4.5,4.5h-90c-2.5,0-4.5-2-4.5-4.5v-45c0-2.5,2-4.5,4.5-4.5h90c2.5,0,4.5,2,4.5,4.5
			V553.7z"/>
		<path class="st0" d="M465.8,553.7c0,2.5-2,4.5-4.5,4.5h-90c-2.5,0-4.5-2-4.5-4.5v-45c0-2.5,2-4.5,4.5-4.5h90c2.5,0,4.5,2,4.5,4.5
			V553.7z"/>
		<path class="st0" d="M355.5,553.7c0,2.5-2,4.5-4.5,4.5h-90c-2.5,0-4.5-2-4.5-4.5v-45c0-2.5,2-4.5,4.5-4.5h90c2.5,0,4.5,2,4.5,4.5
			V553.7z"/>
		<path class="st0" d="M245.3,553.7c0,2.5-2,4.5-4.5,4.5h-90c-2.5,0-4.5-2-4.5-4.5v-45c0-2.5,2-4.5,4.5-4.5h90c2.5,0,4.5,2,4.5,4.5
			V553.7z"/>
	</g>
	<g>
		<path class="st0" d="M576,620.3c0,2.5-2,4.5-4.5,4.5h-90c-2.5,0-4.5-2-4.5-4.5v-45c0-2.5,2-4.5,4.5-4.5h90c2.5,0,4.5,2,4.5,4.5
			V620.3z"/>
		<path class="st0" d="M135,620.3c0,2.5-2,4.5-4.5,4.5h-90c-2.5,0-4.5-2-4.5-4.5v-45c0-2.5,2-4.5,4.5-4.5h90c2.5,0,4.5,2,4.5,4.5
			V620.3z"/>
		<path class="st0" d="M465.8,620.3c0,2.5-2,4.5-4.5,4.5h-90c-2.5,0-4.5-2-4.5-4.5v-45c0-2.5,2-4.5,4.5-4.5h90c2.5,0,4.5,2,4.5,4.5
			V620.3z"/>
		<path class="st0" d="M355.5,620.3c0,2.5-2,4.5-4.5,4.5h-90c-2.5,0-4.5-2-4.5-4.5v-45c0-2.5,2-4.5,4.5-4.5h90c2.5,0,4.5,2,4.5,4.5
			V620.3z"/>
		<path class="st0" d="M245.3,620.3c0,2.5-2,4.5-4.5,4.5h-90c-2.5,0-4.5-2-4.5-4.5v-45c0-2.5,2-4.5,4.5-4.5h90c2.5,0,4.5,2,4.5,4.5
			V620.3z"/>
	</g>
	<g>
		<path class="st0" d="M576,686.9c0,2.5-2,4.5-4.5,4.5h-90c-2.5,0-4.5-2-4.5-4.5v-45c0-2.5,2-4.5,4.5-4.5h90c2.5,0,4.5,2,4.5,4.5
			V686.9z"/>
		<path class="st0" d="M135,686.9c0,2.5-2,4.5-4.5,4.5h-90c-2.5,0-4.5-2-4.5-4.5v-45c0-2.5,2-4.5,4.5-4.5h90c2.5,0,4.5,2,4.5,4.5
			V686.9z"/>
		<path class="st0" d="M465.8,686.9c0,2.5-2,4.5-4.5,4.5h-90c-2.5,0-4.5-2-4.5-4.5v-45c0-2.5,2-4.5,4.5-4.5h90c2.5,0,4.5,2,4.5,4.5
			V686.9z"/>
		<path class="st0" d="M355.5,686.9c0,2.5-2,4.5-4.5,4.5h-90c-2.5,0-4.5-2-4.5-4.5v-45c0-2.5,2-4.5,4.5-4.5h90c2.5,0,4.5,2,4.5,4.5
			V686.9z"/>
		<path class="st0" d="M245.3,686.9c0,2.5-2,4.5-4.5,4.5h-90c-2.5,0-4.5-2-4.5-4.5v-45c0-2.5,2-4.5,4.5-4.5h90c2.5,0,4.5,2,4.5,4.5
			V686.9z"/>
	</g>
</g>
<rect class="st0" width="612" height="792"/>
</svg>
