<?xml version="1.0" encoding="utf-8"?>
<!-- Generator: Adobe Illustrator 20.1.0, SVG Export Plug-In . SVG Version: 6.00 Build 0)  -->
<svg version="1.1" id="Layer_1" xmlns="http://www.w3.org/2000/svg" xmlns:xlink="http://www.w3.org/1999/xlink" x="0px" y="0px"
	 viewBox="0 0 612 792" style="enable-background:new 0 0 612 792;" xml:space="preserve">
<style type="text/css">
	.st0{fill:none;stroke:#000000;stroke-width:2;}
</style>
<g>
	<rect x="0.8" class="st0" width="611.2" height="792"/>
</g>
<g>
	<g>
		<g>
			<path class="st0" d="M215,750.3c0,5-4,9-9,9H69.2c-5,0-9-4-9-9V635.1c0-5,4-9,9-9H206c5,0,9,4,9,9V750.3z"/>
		</g>
		<g>
			<path class="st0" d="M552.6,750.3c0,5-4,9-9,9H406.8c-5,0-9-4-9-9V635.1c0-5,4-9,9-9h136.8c5,0,9,4,9,9V750.3z"/>
		</g>
		<g>
			<path class="st0" d="M383.8,750.3c0,5-4,9-9,9H238c-5,0-9-4-9-9V635.1c0-5,4-9,9-9h136.8c5,0,9,4,9,9V750.3z"/>
		</g>
	</g>
	<g>
		<g>
			<path class="st0" d="M215,309.1c0,5-4,9-9,9H69.2c-5,0-9-4-9-9V193.9c0-5,4-9,9-9H206c5,0,9,4,9,9V309.1z"/>
		</g>
		<g>
			<path class="st0" d="M552.6,309.1c0,5-4,9-9,9H406.8c-5,0-9-4-9-9V193.9c0-5,4-9,9-9h136.8c5,0,9,4,9,9V309.1z"/>
		</g>
		<g>
			<path class="st0" d="M383.8,309.1c0,5-4,9-9,9H238c-5,0-9-4-9-9V193.9c0-5,4-9,9-9h136.8c5,0,9,4,9,9V309.1z"/>
		</g>
	</g>
	<g>
		<g>
			<path class="st0" d="M215,456.2c0,5-4,9-9,9H69.2c-5,0-9-4-9-9V341c0-5,4-9,9-9H206c5,0,9,4,9,9V456.2z"/>
		</g>
		<g>
			<path class="st0" d="M552.6,456.2c0,5-4,9-9,9H406.8c-5,0-9-4-9-9V341c0-5,4-9,9-9h136.8c5,0,9,4,9,9V456.2z"/>
		</g>
		<g>
			<path class="st0" d="M383.8,456.2c0,5-4,9-9,9H238c-5,0-9-4-9-9V341c0-5,4-9,9-9h136.8c5,0,9,4,9,9V456.2z"/>
		</g>
	</g>
	<g>
		<g>
			<path class="st0" d="M215,603.2c0,5-4,9-9,9H69.2c-5,0-9-4-9-9V488c0-5,4-9,9-9H206c5,0,9,4,9,9V603.2z"/>
		</g>
		<g>
			<path class="st0" d="M552.6,603.2c0,5-4,9-9,9H406.8c-5,0-9-4-9-9V488c0-5,4-9,9-9h136.8c5,0,9,4,9,9V603.2z"/>
		</g>
		<g>
			<path class="st0" d="M383.8,603.2c0,5-4,9-9,9H238c-5,0-9-4-9-9V488c0-5,4-9,9-9h136.8c5,0,9,4,9,9V603.2z"/>
		</g>
	</g>
	<g>
		<g>
			<path class="st0" d="M215,162c0,5-4,9-9,9H69.2c-5,0-9-4-9-9V46.8c0-5,4-9,9-9H206c5,0,9,4,9,9V162z"/>
		</g>
		<g>
			<path class="st0" d="M552.6,162c0,5-4,9-9,9H406.8c-5,0-9-4-9-9V46.8c0-5,4-9,9-9h136.8c5,0,9,4,9,9V162z"/>
		</g>
		<g>
			<path class="st0" d="M383.8,162c0,5-4,9-9,9H238c-5,0-9-4-9-9V46.8c0-5,4-9,9-9h136.8c5,0,9,4,9,9V162z"/>
		</g>
	</g>
</g>
</svg>
