<?xml version="1.0" encoding="utf-8"?>
<!-- Generator: Adobe Illustrator 21.1.0, SVG Export Plug-In . SVG Version: 6.00 Build 0)  -->
<svg version="1.1" id="Layer_1" xmlns="http://www.w3.org/2000/svg" xmlns:xlink="http://www.w3.org/1999/xlink" x="0px" y="0px"
	 viewBox="0 0 614 794" style="enable-background:new 0 0 614 794;" xml:space="preserve">
<style type="text/css">
	.st0{fill:none;stroke:#231F20;stroke-width:2;}
</style>
<title>SL709</title>
<g id="Layer_1_1_">
	<circle class="st0" cx="44.3" cy="44.3" r="21.7"/>
	<circle class="st0" cx="569.7" cy="44.3" r="21.7"/>
	<circle class="st0" cx="511.3" cy="44.3" r="21.7"/>
	<circle class="st0" cx="453" cy="44.3" r="21.7"/>
	<circle class="st0" cx="394.6" cy="44.3" r="21.7"/>
	<circle class="st0" cx="336.2" cy="44.3" r="21.7"/>
	<circle class="st0" cx="277.8" cy="44.3" r="21.7"/>
	<circle class="st0" cx="219.4" cy="44.3" r="21.7"/>
	<circle class="st0" cx="161" cy="44.3" r="21.7"/>
	<circle class="st0" cx="102.7" cy="44.3" r="21.7"/>
	<circle class="st0" cx="44.3" cy="749.7" r="21.7"/>
	<circle class="st0" cx="569.7" cy="749.7" r="21.7"/>
	<circle class="st0" cx="511.3" cy="749.7" r="21.7"/>
	<circle class="st0" cx="453" cy="749.7" r="21.7"/>
	<circle class="st0" cx="394.6" cy="749.7" r="21.7"/>
	<circle class="st0" cx="336.2" cy="749.7" r="21.7"/>
	<circle class="st0" cx="277.8" cy="749.7" r="21.7"/>
	<circle class="st0" cx="219.4" cy="749.7" r="21.7"/>
	<circle class="st0" cx="161" cy="749.7" r="21.7"/>
	<circle class="st0" cx="102.7" cy="749.7" r="21.7"/>
	<circle class="st0" cx="44.3" cy="98.5" r="21.7"/>
	<circle class="st0" cx="569.7" cy="98.5" r="21.7"/>
	<circle class="st0" cx="511.3" cy="98.5" r="21.7"/>
	<circle class="st0" cx="453" cy="98.5" r="21.7"/>
	<circle class="st0" cx="394.6" cy="98.5" r="21.7"/>
	<circle class="st0" cx="336.2" cy="98.5" r="21.7"/>
	<circle class="st0" cx="277.8" cy="98.5" r="21.7"/>
	<circle class="st0" cx="219.4" cy="98.5" r="21.7"/>
	<circle class="st0" cx="161" cy="98.5" r="21.7"/>
	<circle class="st0" cx="102.7" cy="98.5" r="21.7"/>
	<circle class="st0" cx="44.3" cy="152.8" r="21.7"/>
	<circle class="st0" cx="569.7" cy="152.8" r="21.7"/>
	<circle class="st0" cx="511.3" cy="152.8" r="21.7"/>
	<circle class="st0" cx="453" cy="152.8" r="21.7"/>
	<circle class="st0" cx="394.6" cy="152.8" r="21.7"/>
	<circle class="st0" cx="336.2" cy="152.8" r="21.7"/>
	<circle class="st0" cx="277.8" cy="152.8" r="21.7"/>
	<circle class="st0" cx="219.4" cy="152.8" r="21.7"/>
	<circle class="st0" cx="161" cy="152.8" r="21.7"/>
	<circle class="st0" cx="102.7" cy="152.8" r="21.7"/>
	<circle class="st0" cx="44.3" cy="207.1" r="21.7"/>
	<circle class="st0" cx="569.7" cy="207.1" r="21.7"/>
	<circle class="st0" cx="511.3" cy="207.1" r="21.7"/>
	<circle class="st0" cx="453" cy="207.1" r="21.7"/>
	<circle class="st0" cx="394.6" cy="207.1" r="21.7"/>
	<circle class="st0" cx="336.2" cy="207.1" r="21.7"/>
	<circle class="st0" cx="277.8" cy="207.1" r="21.7"/>
	<circle class="st0" cx="219.4" cy="207.1" r="21.7"/>
	<circle class="st0" cx="161" cy="207.1" r="21.7"/>
	<circle class="st0" cx="102.7" cy="207.1" r="21.7"/>
	<circle class="st0" cx="44.3" cy="261.3" r="21.7"/>
	<circle class="st0" cx="569.7" cy="261.3" r="21.7"/>
	<circle class="st0" cx="511.3" cy="261.3" r="21.7"/>
	<circle class="st0" cx="453" cy="261.3" r="21.7"/>
	<circle class="st0" cx="394.6" cy="261.3" r="21.7"/>
	<circle class="st0" cx="336.2" cy="261.3" r="21.7"/>
	<circle class="st0" cx="277.8" cy="261.3" r="21.7"/>
	<circle class="st0" cx="219.4" cy="261.3" r="21.7"/>
	<circle class="st0" cx="161" cy="261.3" r="21.7"/>
	<circle class="st0" cx="102.7" cy="261.3" r="21.7"/>
	<circle class="st0" cx="44.3" cy="315.6" r="21.7"/>
	<circle class="st0" cx="569.7" cy="315.6" r="21.7"/>
	<circle class="st0" cx="511.3" cy="315.6" r="21.7"/>
	<circle class="st0" cx="453" cy="315.6" r="21.7"/>
	<circle class="st0" cx="394.6" cy="315.6" r="21.7"/>
	<circle class="st0" cx="336.2" cy="315.6" r="21.7"/>
	<circle class="st0" cx="277.8" cy="315.6" r="21.7"/>
	<circle class="st0" cx="219.4" cy="315.6" r="21.7"/>
	<circle class="st0" cx="161" cy="315.6" r="21.7"/>
	<circle class="st0" cx="102.7" cy="315.6" r="21.7"/>
	<circle class="st0" cx="44.3" cy="369.9" r="21.7"/>
	<circle class="st0" cx="569.7" cy="369.9" r="21.7"/>
	<circle class="st0" cx="511.3" cy="369.9" r="21.7"/>
	<circle class="st0" cx="453" cy="369.9" r="21.7"/>
	<circle class="st0" cx="394.6" cy="369.9" r="21.7"/>
	<circle class="st0" cx="336.2" cy="369.9" r="21.7"/>
	<circle class="st0" cx="277.8" cy="369.9" r="21.7"/>
	<circle class="st0" cx="219.4" cy="369.9" r="21.7"/>
	<circle class="st0" cx="161" cy="369.9" r="21.7"/>
	<circle class="st0" cx="102.7" cy="369.9" r="21.7"/>
	<circle class="st0" cx="44.3" cy="424.1" r="21.7"/>
	<circle class="st0" cx="569.7" cy="424.1" r="21.7"/>
	<circle class="st0" cx="511.3" cy="424.1" r="21.7"/>
	<circle class="st0" cx="453" cy="424.1" r="21.7"/>
	<circle class="st0" cx="394.6" cy="424.1" r="21.7"/>
	<circle class="st0" cx="336.2" cy="424.1" r="21.7"/>
	<circle class="st0" cx="277.8" cy="424.1" r="21.7"/>
	<circle class="st0" cx="219.4" cy="424.1" r="21.7"/>
	<circle class="st0" cx="161" cy="424.1" r="21.7"/>
	<circle class="st0" cx="102.7" cy="424.1" r="21.7"/>
	<circle class="st0" cx="44.3" cy="478.4" r="21.7"/>
	<circle class="st0" cx="569.7" cy="478.4" r="21.7"/>
	<circle class="st0" cx="511.3" cy="478.4" r="21.7"/>
	<circle class="st0" cx="453" cy="478.4" r="21.7"/>
	<circle class="st0" cx="394.6" cy="478.4" r="21.7"/>
	<circle class="st0" cx="336.2" cy="478.4" r="21.7"/>
	<circle class="st0" cx="277.8" cy="478.4" r="21.7"/>
	<circle class="st0" cx="219.4" cy="478.4" r="21.7"/>
	<circle class="st0" cx="161" cy="478.4" r="21.7"/>
	<circle class="st0" cx="102.7" cy="478.4" r="21.7"/>
	<circle class="st0" cx="44.3" cy="532.7" r="21.7"/>
	<circle class="st0" cx="569.7" cy="532.7" r="21.7"/>
	<circle class="st0" cx="511.3" cy="532.7" r="21.7"/>
	<circle class="st0" cx="453" cy="532.7" r="21.7"/>
	<circle class="st0" cx="394.6" cy="532.7" r="21.7"/>
	<circle class="st0" cx="336.2" cy="532.7" r="21.7"/>
	<circle class="st0" cx="277.8" cy="532.7" r="21.7"/>
	<circle class="st0" cx="219.4" cy="532.7" r="21.7"/>
	<circle class="st0" cx="161" cy="532.7" r="21.7"/>
	<circle class="st0" cx="102.7" cy="532.7" r="21.7"/>
	<circle class="st0" cx="44.3" cy="586.9" r="21.7"/>
	<circle class="st0" cx="569.7" cy="586.9" r="21.7"/>
	<circle class="st0" cx="511.3" cy="586.9" r="21.7"/>
	<circle class="st0" cx="453" cy="586.9" r="21.7"/>
	<circle class="st0" cx="394.6" cy="586.9" r="21.7"/>
	<circle class="st0" cx="336.2" cy="586.9" r="21.7"/>
	<circle class="st0" cx="277.8" cy="586.9" r="21.7"/>
	<circle class="st0" cx="219.4" cy="586.9" r="21.7"/>
	<circle class="st0" cx="161" cy="586.9" r="21.7"/>
	<circle class="st0" cx="102.7" cy="586.9" r="21.7"/>
	<circle class="st0" cx="44.3" cy="641.2" r="21.7"/>
	<circle class="st0" cx="569.7" cy="641.2" r="21.7"/>
	<circle class="st0" cx="511.3" cy="641.2" r="21.7"/>
	<circle class="st0" cx="453" cy="641.2" r="21.7"/>
	<circle class="st0" cx="394.6" cy="641.2" r="21.7"/>
	<circle class="st0" cx="336.2" cy="641.2" r="21.7"/>
	<circle class="st0" cx="277.8" cy="641.2" r="21.7"/>
	<circle class="st0" cx="219.4" cy="641.2" r="21.7"/>
	<circle class="st0" cx="161" cy="641.2" r="21.7"/>
	<circle class="st0" cx="102.7" cy="641.2" r="21.7"/>
	<circle class="st0" cx="44.3" cy="695.5" r="21.7"/>
	<circle class="st0" cx="569.7" cy="695.5" r="21.7"/>
	<circle class="st0" cx="511.3" cy="695.5" r="21.7"/>
	<circle class="st0" cx="453" cy="695.5" r="21.7"/>
	<circle class="st0" cx="394.6" cy="695.5" r="21.7"/>
	<circle class="st0" cx="336.2" cy="695.5" r="21.7"/>
	<circle class="st0" cx="277.8" cy="695.5" r="21.7"/>
	<circle class="st0" cx="219.4" cy="695.5" r="21.7"/>
	<circle class="st0" cx="161" cy="695.5" r="21.7"/>
	<circle class="st0" cx="102.7" cy="695.5" r="21.7"/>
</g>
<rect x="1" y="1" class="st0" width="612" height="792"/>
</svg>
