<?xml version="1.0" encoding="utf-8"?>
<!-- Generator: Adobe Illustrator 21.1.0, SVG Export Plug-In . SVG Version: 6.00 Build 0)  -->
<svg version="1.1" id="Layer_1" xmlns="http://www.w3.org/2000/svg" xmlns:xlink="http://www.w3.org/1999/xlink" x="0px" y="0px"
	 viewBox="0 0 614 794" style="enable-background:new 0 0 614 794;" xml:space="preserve">
<style type="text/css">
	.st0{fill:none;stroke:#231F20;stroke-width:2;}
</style>
<title>SL712</title>
<path class="st0" d="M207.6,82.3c0,4.9-4,8.9-9,8.9l0,0h-179c-4.9,0-9-3.9-9-8.8l0,0V29c0-4.9,4-8.9,9-8.9l0,0h179.1
	c4.9,0,9,3.9,9,8.8l0,0L207.6,82.3z"/>
<path class="st0" d="M603.4,82.3c0,4.9-4,8.9-9,8.9l0,0H415.3c-4.9,0-9-3.9-9-8.8l0,0V29c0-4.9,4-8.9,9-8.9l0,0h179.1
	c4.9,0,9,3.9,9,8.8l0,0V82.3z"/>
<path class="st0" d="M405.5,82.3c0,4.9-4,8.9-9,8.9l0,0H217.4c-4.9,0-9-3.9-9-8.8l0,0V29c0-4.9,4-8.9,9-8.9l0,0h179.1
	c4.9,0,8.9,3.9,9,8.8c0,0,0,0,0,0.1V82.3z"/>
<path class="st0" d="M207.6,237.1c0,4.9-4,8.9-9,8.9l0,0h-179c-4.9,0-9-3.9-9-8.8l0,0v-53.3c0-4.9,4-8.9,9-8.9l0,0h179.1
	c4.9,0,9,3.9,9,8.8l0,0L207.6,237.1z"/>
<path class="st0" d="M603.4,237.1c0,4.9-4,8.9-9,8.9l0,0H415.3c-4.9,0-9-3.9-9-8.8l0,0v-53.3c0-4.9,4-8.9,8.9-8.9c0,0,0,0,0.1,0
	h179.1c4.9,0,8.9,3.9,9,8.8c0,0,0,0,0,0.1V237.1z"/>
<path class="st0" d="M405.5,237.1c0,4.9-4,8.9-9,8.9l0,0H217.4c-4.9,0-9-3.9-9-8.8l0,0v-53.3c0-4.9,4-8.9,9-8.9l0,0h179.1
	c4.9,0,9,3.9,9,8.8l0,0V237.1z"/>
<path class="st0" d="M207.6,159.7c0,4.9-4,8.9-9,8.9l0,0h-179c-4.9,0-9-3.9-9-8.8l0,0v-53.3c0-4.9,4-8.9,9-8.9l0,0h179.1
	c4.9,0,9,3.9,9,8.8l0,0L207.6,159.7z"/>
<path class="st0" d="M603.4,159.7c0,4.9-4,8.9-9,8.9l0,0H415.3c-4.9,0-9-3.9-9-8.8l0,0v-53.3c0-4.9,4-8.9,9-8.9l0,0h179.1
	c4.9,0,9,3.9,9,8.8l0,0V159.7z"/>
<path class="st0" d="M405.5,159.7c0,4.9-4,8.9-9,8.9l0,0H217.4c-4.9,0-9-3.9-9-8.8l0,0v-53.3c0-4.9,4-8.9,9-8.9l0,0h179.1
	c4.9,0,8.9,3.9,9,8.8c0,0,0,0,0,0.1V159.7z"/>
<path class="st0" d="M207.6,347.2c0,4.9-4,8.9-9,8.9l0,0h-179c-4.9,0-9-3.9-9-8.8l0,0V294c0-4.9,4-8.9,9-8.9l0,0h179.1
	c4.9,0,9,3.9,9,8.8l0,0L207.6,347.2z"/>
<path class="st0" d="M603.4,347.2c0,4.9-4,8.9-9,8.9l0,0H415.3c-4.9,0-9-3.9-9-8.8l0,0V294c0-4.9,4-8.9,9-8.9l0,0h179.1
	c4.9,0,9,3.9,9,8.8l0,0V347.2z"/>
<path class="st0" d="M405.5,347.2c0,4.9-4,8.9-9,8.9l0,0H217.4c-4.9,0-9-3.9-9-8.8l0,0V294c0-4.9,4-8.9,9-8.9l0,0h179.1
	c4.9,0,8.9,3.9,9,8.8c0,0,0,0,0,0.1V347.2z"/>
<path class="st0" d="M207.6,502c0,4.9-4,8.9-9,8.9l0,0h-179c-4.9,0-9-3.9-9-8.8l0,0v-53.2c0-4.9,4-8.9,9-8.9l0,0h179.1
	c4.9,0,9,3.9,9,8.8l0,0L207.6,502z"/>
<path class="st0" d="M603.4,502c0,4.9-4,8.9-9,8.9l0,0H415.3c-4.9,0-9-3.9-9-8.8l0,0v-53.2c0-4.9,4-8.9,9-8.9l0,0h179.1
	c4.9,0,9,3.9,9,8.8l0,0V502z"/>
<path class="st0" d="M405.5,502c0,4.9-4,8.9-9,8.9l0,0H217.4c-4.9,0-9-3.9-9-8.8l0,0v-53.2c0-4.9,4-8.9,9-8.9l0,0h179.1
	c4.9,0,9,3.9,9,8.8l0,0V502z"/>
<path class="st0" d="M207.6,424.6c0,4.9-4,8.9-9,8.9l0,0h-179c-4.9,0-9-3.9-9-8.8l0,0v-53.3c0-4.9,4-8.9,9-8.9l0,0h179.1
	c4.9,0,9,3.9,9,8.8l0,0L207.6,424.6z"/>
<path class="st0" d="M603.4,424.6c0,4.9-4,8.9-9,8.9l0,0H415.3c-4.9,0-9-3.9-9-8.8l0,0v-53.3c0-4.9,4-8.9,9-8.9l0,0h179.1
	c4.9,0,9,3.9,9,8.8l0,0V424.6z"/>
<path class="st0" d="M405.5,424.6c0,4.9-4,8.9-9,8.9l0,0H217.4c-4.9,0-9-3.9-9-8.8l0,0v-53.3c0-4.9,4-8.9,9-8.9l0,0h179.1
	c4.9,0,8.9,3.9,9,8.8c0,0,0,0,0,0.1V424.6z"/>
<path class="st0" d="M207.6,609.3c0,4.9-4,8.9-9,8.9l0,0h-179c-4.9,0-9-3.9-9-8.8l0,0V556c0-4.9,4-8.9,9-8.9l0,0h179.1
	c4.9,0,9,3.9,9,8.8l0,0L207.6,609.3z"/>
<path class="st0" d="M603.4,609.3c0,4.9-4,8.9-9,8.9l0,0H415.3c-4.9,0-9-3.9-9-8.8l0,0V556c0-4.9,4-8.9,9-8.9l0,0h179.1
	c4.9,0,9,3.9,9,8.8l0,0V609.3z"/>
<path class="st0" d="M405.5,609.3c0,4.9-4,8.9-9,8.9l0,0H217.4c-4.9,0-9-3.9-9-8.8l0,0V556c0-4.9,4-8.9,9-8.9l0,0h179.1
	c4.9,0,9,3.9,9,8.8l0,0V609.3z"/>
<path class="st0" d="M207.6,764.1c0,4.9-4,8.9-9,8.9l0,0h-179c-4.9,0-9-3.9-9-8.8l0,0v-53.3c0-4.9,4-8.9,9-8.9l0,0h179.1
	c4.9,0,9,3.9,9,8.8l0,0L207.6,764.1z"/>
<path class="st0" d="M603.4,764.1c0,4.9-4,8.9-9,8.9l0,0H415.3c-4.9,0-9-3.9-9-8.8l0,0v-53.3c0-4.9,4-8.9,9-8.9l0,0h179.1
	c4.9,0,9,3.9,9,8.8l0,0V764.1z"/>
<path class="st0" d="M405.5,764.1c0,4.9-4,8.9-9,8.9l0,0H217.4c-4.9,0-9-3.9-9-8.8l0,0v-53.3c0-4.9,4-8.9,9-8.9l0,0h179.1
	c4.9,0,9,3.9,9,8.8l0,0V764.1z"/>
<path class="st0" d="M207.6,686.7c0,4.9-4,8.9-9,8.9l0,0h-179c-4.9,0-9-3.9-9-8.8l0,0v-53.3c0-4.9,4-8.9,8.9-8.9c0,0,0,0,0.1,0
	h179.1c4.9,0,8.9,3.9,9,8.8c0,0,0,0,0,0.1L207.6,686.7z"/>
<path class="st0" d="M603.4,686.7c0,4.9-4,8.9-9,8.9l0,0H415.3c-4.9,0-9-3.9-9-8.8l0,0v-53.3c0-4.9,4-8.9,9-8.9l0,0h179.1
	c4.9,0,9,3.9,9,8.8l0,0V686.7z"/>
<path class="st0" d="M405.5,686.7c0,4.9-4,8.9-9,8.9l0,0H217.4c-4.9,0-9-3.9-9-8.8l0,0v-53.3c0-4.9,4-8.9,8.9-8.9c0,0,0,0,0.1,0
	h179.1c4.9,0,8.9,3.9,9,8.8c0,0,0,0,0,0.1V686.7z"/>
<rect x="1" y="1" class="st0" width="612" height="792"/>
</svg>
