<?xml version="1.0" encoding="utf-8"?>
<!-- Generator: Adobe Illustrator 21.1.0, SVG Export Plug-In . SVG Version: 6.00 Build 0)  -->
<svg version="1.1" id="Template" xmlns="http://www.w3.org/2000/svg" xmlns:xlink="http://www.w3.org/1999/xlink" x="0px" y="0px"
	 viewBox="0 0 614 794" style="enable-background:new 0 0 614 794;" xml:space="preserve">
<style type="text/css">
	.st0{fill:none;stroke:#231F20;stroke-width:2;}
</style>
<title>SL719</title>
<path class="st0" d="M26.2,22.6h151.2c2,0,3.6,1.6,3.6,3.6v57.6c0,2-1.6,3.6-3.6,3.6H26.2c-2,0-3.6-1.6-3.6-3.6V26.2
	C22.6,24.2,24.2,22.6,26.2,22.6z"/>
<path class="st0" d="M436.6,22.6h151.2c2,0,3.6,1.6,3.6,3.6v57.6c0,2-1.6,3.6-3.6,3.6H436.6c-2,0-3.6-1.6-3.6-3.6V26.2
	C433,24.2,434.6,22.6,436.6,22.6z"/>
<path class="st0" d="M231.4,22.6h151.2c2,0,3.6,1.6,3.6,3.6v57.6c0,2-1.6,3.6-3.6,3.6H231.4c-2,0-3.6-1.6-3.6-3.6V26.2
	C227.8,24.2,229.4,22.6,231.4,22.6z"/>
<path class="st0" d="M26.2,706.6h151.2c2,0,3.6,1.6,3.6,3.6v57.6c0,2-1.6,3.6-3.6,3.6H26.2c-2,0-3.6-1.6-3.6-3.6v-57.6
	C22.6,708.2,24.2,706.6,26.2,706.6z"/>
<path class="st0" d="M436.6,706.6h151.2c2,0,3.6,1.6,3.6,3.6v57.6c0,2-1.6,3.6-3.6,3.6H436.6c-2,0-3.6-1.6-3.6-3.6v-57.6
	C433,708.2,434.6,706.6,436.6,706.6z"/>
<path class="st0" d="M231.4,706.6h151.2c2,0,3.6,1.6,3.6,3.6v57.6c0,2-1.6,3.6-3.6,3.6H231.4c-2,0-3.6-1.6-3.6-3.6v-57.6
	C227.8,708.2,229.4,706.6,231.4,706.6z"/>
<path class="st0" d="M26.2,98.6h151.2c2,0,3.6,1.6,3.6,3.6v57.6c0,2-1.6,3.6-3.6,3.6H26.2c-2,0-3.6-1.6-3.6-3.6v-57.6
	C22.6,100.2,24.2,98.6,26.2,98.6z"/>
<path class="st0" d="M436.6,98.6h151.2c2,0,3.6,1.6,3.6,3.6v57.6c0,2-1.6,3.6-3.6,3.6H436.6c-2,0-3.6-1.6-3.6-3.6v-57.6
	C433,100.2,434.6,98.6,436.6,98.6z"/>
<path class="st0" d="M231.4,98.6h151.2c2,0,3.6,1.6,3.6,3.6v57.6c0,2-1.6,3.6-3.6,3.6H231.4c-2,0-3.6-1.6-3.6-3.6v-57.6
	C227.8,100.2,229.4,98.6,231.4,98.6z"/>
<path class="st0" d="M26.2,174.6h151.2c2,0,3.6,1.6,3.6,3.6v57.6c0,2-1.6,3.6-3.6,3.6H26.2c-2,0-3.6-1.6-3.6-3.6v-57.6
	C22.6,176.2,24.2,174.6,26.2,174.6z"/>
<path class="st0" d="M436.6,174.6h151.2c2,0,3.6,1.6,3.6,3.6v57.6c0,2-1.6,3.6-3.6,3.6H436.6c-2,0-3.6-1.6-3.6-3.6v-57.6
	C433,176.2,434.6,174.6,436.6,174.6z"/>
<path class="st0" d="M231.4,174.6h151.2c2,0,3.6,1.6,3.6,3.6v57.6c0,2-1.6,3.6-3.6,3.6H231.4c-2,0-3.6-1.6-3.6-3.6v-57.6
	C227.8,176.2,229.4,174.6,231.4,174.6z"/>
<path class="st0" d="M26.2,250.6h151.2c2,0,3.6,1.6,3.6,3.6v57.6c0,2-1.6,3.6-3.6,3.6H26.2c-2,0-3.6-1.6-3.6-3.6v-57.6
	C22.6,252.2,24.2,250.6,26.2,250.6z"/>
<path class="st0" d="M436.6,250.6h151.2c2,0,3.6,1.6,3.6,3.6v57.6c0,2-1.6,3.6-3.6,3.6H436.6c-2,0-3.6-1.6-3.6-3.6v-57.6
	C433,252.2,434.6,250.6,436.6,250.6z"/>
<path class="st0" d="M231.4,250.6h151.2c2,0,3.6,1.6,3.6,3.6v57.6c0,2-1.6,3.6-3.6,3.6H231.4c-2,0-3.6-1.6-3.6-3.6v-57.6
	C227.8,252.2,229.4,250.6,231.4,250.6z"/>
<path class="st0" d="M26.2,326.6h151.2c2,0,3.6,1.6,3.6,3.6v57.6c0,2-1.6,3.6-3.6,3.6H26.2c-2,0-3.6-1.6-3.6-3.6v-57.6
	C22.6,328.2,24.2,326.6,26.2,326.6z"/>
<path class="st0" d="M436.6,326.6h151.2c2,0,3.6,1.6,3.6,3.6v57.6c0,2-1.6,3.6-3.6,3.6H436.6c-2,0-3.6-1.6-3.6-3.6v-57.6
	C433,328.2,434.6,326.6,436.6,326.6z"/>
<path class="st0" d="M231.4,326.6h151.2c2,0,3.6,1.6,3.6,3.6v57.6c0,2-1.6,3.6-3.6,3.6H231.4c-2,0-3.6-1.6-3.6-3.6v-57.6
	C227.8,328.2,229.4,326.6,231.4,326.6z"/>
<path class="st0" d="M26.2,402.6h151.2c2,0,3.6,1.6,3.6,3.6v57.6c0,2-1.6,3.6-3.6,3.6H26.2c-2,0-3.6-1.6-3.6-3.6v-57.6
	C22.6,404.2,24.2,402.6,26.2,402.6z"/>
<path class="st0" d="M436.6,402.6h151.2c2,0,3.6,1.6,3.6,3.6v57.6c0,2-1.6,3.6-3.6,3.6H436.6c-2,0-3.6-1.6-3.6-3.6v-57.6
	C433,404.2,434.6,402.6,436.6,402.6z"/>
<path class="st0" d="M231.4,402.6h151.2c2,0,3.6,1.6,3.6,3.6v57.6c0,2-1.6,3.6-3.6,3.6H231.4c-2,0-3.6-1.6-3.6-3.6v-57.6
	C227.8,404.2,229.4,402.6,231.4,402.6z"/>
<path class="st0" d="M26.2,478.6h151.2c2,0,3.6,1.6,3.6,3.6v57.6c0,2-1.6,3.6-3.6,3.6H26.2c-2,0-3.6-1.6-3.6-3.6v-57.6
	C22.6,480.2,24.2,478.6,26.2,478.6z"/>
<path class="st0" d="M436.6,478.6h151.2c2,0,3.6,1.6,3.6,3.6v57.6c0,2-1.6,3.6-3.6,3.6H436.6c-2,0-3.6-1.6-3.6-3.6v-57.6
	C433,480.2,434.6,478.6,436.6,478.6z"/>
<path class="st0" d="M231.4,478.6h151.2c2,0,3.6,1.6,3.6,3.6v57.6c0,2-1.6,3.6-3.6,3.6H231.4c-2,0-3.6-1.6-3.6-3.6v-57.6
	C227.8,480.2,229.4,478.6,231.4,478.6z"/>
<path class="st0" d="M26.2,554.6h151.2c2,0,3.6,1.6,3.6,3.6v57.6c0,2-1.6,3.6-3.6,3.6H26.2c-2,0-3.6-1.6-3.6-3.6v-57.6
	C22.6,556.2,24.2,554.6,26.2,554.6z"/>
<path class="st0" d="M436.6,554.6h151.2c2,0,3.6,1.6,3.6,3.6v57.6c0,2-1.6,3.6-3.6,3.6H436.6c-2,0-3.6-1.6-3.6-3.6v-57.6
	C433,556.2,434.6,554.6,436.6,554.6z"/>
<path class="st0" d="M231.4,554.6h151.2c2,0,3.6,1.6,3.6,3.6v57.6c0,2-1.6,3.6-3.6,3.6H231.4c-2,0-3.6-1.6-3.6-3.6v-57.6
	C227.8,556.2,229.4,554.6,231.4,554.6z"/>
<path class="st0" d="M26.2,630.6h151.2c2,0,3.6,1.6,3.6,3.6v57.6c0,2-1.6,3.6-3.6,3.6H26.2c-2,0-3.6-1.6-3.6-3.6v-57.6
	C22.6,632.2,24.2,630.6,26.2,630.6z"/>
<path class="st0" d="M436.6,630.6h151.2c2,0,3.6,1.6,3.6,3.6v57.6c0,2-1.6,3.6-3.6,3.6H436.6c-2,0-3.6-1.6-3.6-3.6v-57.6
	C433,632.2,434.6,630.6,436.6,630.6z"/>
<path class="st0" d="M231.4,630.6h151.2c2,0,3.6,1.6,3.6,3.6v57.6c0,2-1.6,3.6-3.6,3.6H231.4c-2,0-3.6-1.6-3.6-3.6v-57.6
	C227.8,632.2,229.4,630.6,231.4,630.6z"/>
<rect x="1" y="1" class="st0" width="612" height="792"/>
</svg>
