<?xml version="1.0" encoding="utf-8"?>
<!-- Generator: Adobe Illustrator 21.1.0, SVG Export Plug-In . SVG Version: 6.00 Build 0)  -->
<svg version="1.1" id="Template" xmlns="http://www.w3.org/2000/svg" xmlns:xlink="http://www.w3.org/1999/xlink" x="0px" y="0px"
	 viewBox="0 0 614 794" style="enable-background:new 0 0 614 794;" xml:space="preserve">
<style type="text/css">
	.st0{fill:none;stroke:#231F20;stroke-width:2;}
</style>
<title>SL714</title>
<rect x="1" y="1" class="st0" width="612" height="792"/>
<circle class="st0" cx="56.4" cy="69.4" r="32.4"/>
<circle class="st0" cx="560.4" cy="69.4" r="32.4"/>
<circle class="st0" cx="476.4" cy="69.4" r="32.4"/>
<circle class="st0" cx="392.4" cy="69.4" r="32.4"/>
<circle class="st0" cx="308.4" cy="69.4" r="32.4"/>
<circle class="st0" cx="224.4" cy="69.4" r="32.4"/>
<circle class="st0" cx="140.4" cy="69.4" r="32.4"/>
<circle class="st0" cx="56.4" cy="724.6" r="32.4"/>
<circle class="st0" cx="560.4" cy="724.6" r="32.4"/>
<circle class="st0" cx="476.4" cy="724.6" r="32.4"/>
<circle class="st0" cx="392.4" cy="724.6" r="32.4"/>
<circle class="st0" cx="308.4" cy="724.6" r="32.4"/>
<circle class="st0" cx="224.4" cy="724.6" r="32.4"/>
<circle class="st0" cx="140.4" cy="724.6" r="32.4"/>
<circle class="st0" cx="56.4" cy="151.3" r="32.4"/>
<circle class="st0" cx="560.4" cy="151.3" r="32.4"/>
<circle class="st0" cx="476.4" cy="151.3" r="32.4"/>
<circle class="st0" cx="392.4" cy="151.3" r="32.4"/>
<circle class="st0" cx="308.4" cy="151.3" r="32.4"/>
<circle class="st0" cx="224.4" cy="151.3" r="32.4"/>
<circle class="st0" cx="140.4" cy="151.3" r="32.4"/>
<circle class="st0" cx="56.4" cy="233.2" r="32.4"/>
<circle class="st0" cx="560.4" cy="233.2" r="32.4"/>
<circle class="st0" cx="476.4" cy="233.2" r="32.4"/>
<circle class="st0" cx="392.4" cy="233.2" r="32.4"/>
<circle class="st0" cx="308.4" cy="233.2" r="32.4"/>
<circle class="st0" cx="224.4" cy="233.2" r="32.4"/>
<circle class="st0" cx="140.4" cy="233.2" r="32.4"/>
<circle class="st0" cx="56.4" cy="315.1" r="32.4"/>
<circle class="st0" cx="560.4" cy="315.1" r="32.4"/>
<circle class="st0" cx="476.4" cy="315.1" r="32.4"/>
<circle class="st0" cx="392.4" cy="315.1" r="32.4"/>
<circle class="st0" cx="308.4" cy="315.1" r="32.4"/>
<circle class="st0" cx="224.4" cy="315.1" r="32.4"/>
<circle class="st0" cx="140.4" cy="315.1" r="32.4"/>
<circle class="st0" cx="56.4" cy="397" r="32.4"/>
<circle class="st0" cx="560.4" cy="397" r="32.4"/>
<circle class="st0" cx="476.4" cy="397" r="32.4"/>
<circle class="st0" cx="392.4" cy="397" r="32.4"/>
<circle class="st0" cx="308.4" cy="397" r="32.4"/>
<circle class="st0" cx="224.4" cy="397" r="32.4"/>
<circle class="st0" cx="140.4" cy="397" r="32.4"/>
<circle class="st0" cx="56.4" cy="478.9" r="32.4"/>
<circle class="st0" cx="560.4" cy="478.9" r="32.4"/>
<circle class="st0" cx="476.4" cy="478.9" r="32.4"/>
<circle class="st0" cx="392.4" cy="478.9" r="32.4"/>
<circle class="st0" cx="308.4" cy="478.9" r="32.4"/>
<circle class="st0" cx="224.4" cy="478.9" r="32.4"/>
<circle class="st0" cx="140.4" cy="478.9" r="32.4"/>
<circle class="st0" cx="56.4" cy="560.8" r="32.4"/>
<circle class="st0" cx="560.4" cy="560.8" r="32.4"/>
<circle class="st0" cx="476.4" cy="560.8" r="32.4"/>
<circle class="st0" cx="392.4" cy="560.8" r="32.4"/>
<circle class="st0" cx="308.4" cy="560.8" r="32.4"/>
<circle class="st0" cx="224.4" cy="560.8" r="32.4"/>
<circle class="st0" cx="140.4" cy="560.8" r="32.4"/>
<circle class="st0" cx="56.4" cy="642.7" r="32.4"/>
<circle class="st0" cx="560.4" cy="642.7" r="32.4"/>
<circle class="st0" cx="476.4" cy="642.7" r="32.4"/>
<circle class="st0" cx="392.4" cy="642.7" r="32.4"/>
<circle class="st0" cx="308.4" cy="642.7" r="32.4"/>
<circle class="st0" cx="224.4" cy="642.7" r="32.4"/>
<circle class="st0" cx="140.4" cy="642.7" r="32.4"/>
</svg>
