<?xml version="1.0" encoding="utf-8"?>
<!-- Generator: Adobe Illustrator 21.1.0, SVG Export Plug-In . SVG Version: 6.00 Build 0)  -->
<svg version="1.1" id="Layer_1" xmlns="http://www.w3.org/2000/svg" xmlns:xlink="http://www.w3.org/1999/xlink" x="0px" y="0px"
	 viewBox="0 0 614 794" style="enable-background:new 0 0 614 794;" xml:space="preserve">
<style type="text/css">
	.st0{fill:none;stroke:#231F20;stroke-width:2;}
</style>
<title>SL725</title>
<path class="st0" d="M52.8,22.6h130.5c8.7,0,15.8,7.1,15.8,15.7v130.5c0,8.7-7.1,15.8-15.8,15.8H52.8c-8.7,0-15.8-7.1-15.8-15.8
	V38.3C37,29.7,44.1,22.6,52.8,22.6z"/>
<path class="st0" d="M430.8,22.6h130.5c8.7,0,15.8,7.1,15.8,15.7v130.5c0,8.7-7.1,15.8-15.8,15.8H430.8c-8.7,0-15.8-7.1-15.8-15.8
	V38.3C415,29.7,422.1,22.6,430.8,22.6z"/>
<path class="st0" d="M241.8,22.6h130.5c8.7,0,15.8,7.1,15.8,15.7v130.5c0,8.7-7.1,15.8-15.8,15.8H241.8c-8.7,0-15.8-7.1-15.8-15.8
	V38.3C226,29.7,233.1,22.6,241.8,22.6z"/>
<path class="st0" d="M52.8,609.4h130.5c8.7,0,15.8,7.1,15.8,15.8v130.5c0,8.7-7.1,15.8-15.8,15.8H52.8c-8.7,0-15.8-7.1-15.8-15.8
	V625.2C37,616.5,44.1,609.4,52.8,609.4z"/>
<path class="st0" d="M430.8,609.4h130.5c8.7,0,15.8,7.1,15.8,15.8v130.5c0,8.7-7.1,15.8-15.8,15.8H430.8c-8.7,0-15.8-7.1-15.8-15.8
	V625.2C415,616.5,422.1,609.4,430.8,609.4z"/>
<path class="st0" d="M241.8,609.4h130.5c8.7,0,15.8,7.1,15.8,15.8v130.5c0,8.7-7.1,15.8-15.8,15.8H241.8c-8.7,0-15.8-7.1-15.8-15.8
	V625.2C226,616.5,233.1,609.4,241.8,609.4z"/>
<path class="st0" d="M52.8,199.6h130.5c8.7,0,15.8,7.1,15.8,15.8v130.5c0,8.7-7.1,15.8-15.8,15.8H52.8c-8.7,0-15.8-7.1-15.8-15.8
	V215.3C37,206.6,44.1,199.6,52.8,199.6z"/>
<path class="st0" d="M430.8,199.6h130.5c8.7,0,15.8,7.1,15.8,15.8v130.5c0,8.7-7.1,15.8-15.8,15.8H430.8c-8.7,0-15.8-7.1-15.8-15.8
	V215.3C415,206.6,422.1,199.6,430.8,199.6z"/>
<path class="st0" d="M241.8,199.6h130.5c8.7,0,15.8,7.1,15.8,15.8v130.5c0,8.7-7.1,15.8-15.8,15.8H241.8c-8.7,0-15.8-7.1-15.8-15.8
	V215.3C226,206.6,233.1,199.6,241.8,199.6z"/>
<path class="st0" d="M52.8,432.7h130.5c8.7,0,15.8,7.1,15.8,15.8V579c0,8.7-7.1,15.8-15.8,15.8H52.8c-8.7,0-15.8-7.1-15.8-15.8
	V448.4C37,439.7,44.1,432.7,52.8,432.7z"/>
<path class="st0" d="M430.8,432.7h130.5c8.7,0,15.8,7.1,15.8,15.8V579c0,8.7-7.1,15.8-15.8,15.8H430.8c-8.7,0-15.8-7.1-15.8-15.8
	V448.4C415,439.7,422.1,432.7,430.8,432.7z"/>
<path class="st0" d="M241.8,432.7h130.5c8.7,0,15.8,7.1,15.8,15.8V579c0,8.7-7.1,15.8-15.8,15.8H241.8c-8.7,0-15.8-7.1-15.8-15.8
	V448.4C226,439.7,233.1,432.7,241.8,432.7z"/>
<rect x="1" y="1" class="st0" width="612" height="792"/>
</svg>
