<?xml version="1.0" encoding="utf-8"?>
<!-- Generator: Adobe Illustrator 21.1.0, SVG Export Plug-In . SVG Version: 6.00 Build 0)  -->
<svg version="1.1" id="Layer_1" xmlns="http://www.w3.org/2000/svg" xmlns:xlink="http://www.w3.org/1999/xlink" x="0px" y="0px"
	 viewBox="0 0 614 794" style="enable-background:new 0 0 614 794;" xml:space="preserve">
<style type="text/css">
	.st0{fill:none;stroke:#231F20;stroke-width:2;}
</style>
<title>SL730</title>
<ellipse class="st0" cx="157.6" cy="68.1" rx="135" ry="31.1"/>
<ellipse class="st0" cx="456.4" cy="68.1" rx="135" ry="31.1"/>
<ellipse class="st0" cx="157.6" cy="725.9" rx="135" ry="31.1"/>
<ellipse class="st0" cx="456.4" cy="725.9" rx="135" ry="31.1"/>
<ellipse class="st0" cx="157.6" cy="141.2" rx="135" ry="31.1"/>
<ellipse class="st0" cx="456.4" cy="141.2" rx="135" ry="31.1"/>
<ellipse class="st0" cx="157.6" cy="214.3" rx="135" ry="31.1"/>
<ellipse class="st0" cx="456.4" cy="214.3" rx="135" ry="31.1"/>
<ellipse class="st0" cx="157.6" cy="287.4" rx="135" ry="31.1"/>
<ellipse class="st0" cx="456.4" cy="287.4" rx="135" ry="31.1"/>
<ellipse class="st0" cx="157.6" cy="579.7" rx="135" ry="31.1"/>
<ellipse class="st0" cx="456.4" cy="579.7" rx="135" ry="31.1"/>
<ellipse class="st0" cx="157.6" cy="652.8" rx="135" ry="31.1"/>
<ellipse class="st0" cx="456.4" cy="652.8" rx="135" ry="31.1"/>
<ellipse class="st0" cx="157.6" cy="360.5" rx="135" ry="31.1"/>
<ellipse class="st0" cx="456.4" cy="360.5" rx="135" ry="31.1"/>
<ellipse class="st0" cx="157.6" cy="433.5" rx="135" ry="31.1"/>
<ellipse class="st0" cx="456.4" cy="433.5" rx="135" ry="31.1"/>
<ellipse class="st0" cx="157.6" cy="506.6" rx="135" ry="31.1"/>
<ellipse class="st0" cx="456.4" cy="506.6" rx="135" ry="31.1"/>
<rect x="1" y="1" class="st0" width="612" height="792"/>
</svg>
