<?xml version="1.0" encoding="utf-8"?>
<!-- Generator: Adobe Illustrator 21.1.0, SVG Export Plug-In . SVG Version: 6.00 Build 0)  -->
<svg version="1.1" id="Layer_1" xmlns="http://www.w3.org/2000/svg" xmlns:xlink="http://www.w3.org/1999/xlink" x="0px" y="0px"
	 viewBox="0 0 614 794" style="enable-background:new 0 0 614 794;" xml:space="preserve">
<style type="text/css">
	.st0{fill:none;stroke:#231F20;stroke-width:2;stroke-miterlimit:10;}
</style>
<title>SL749</title>
<path class="st0" d="M45.6,38h90c5,0,9,4,9,9v144c0,5-4,9-9,9h-90c-5,0-9-4-9-9V47C36.6,42.1,40.6,38,45.6,38z"/>
<path class="st0" d="M153.6,38h90c5,0,9,4,9,9v144c0,5-4,9-9,9h-90c-5,0-9-4-9-9V47C144.6,42.1,148.6,38,153.6,38z"/>
<path class="st0" d="M262,38h90c5,0,9,4,9,9v144c0,5-4,9-9,9h-90c-5,0-9-4-9-9V47C253.1,42.1,257.1,38,262,38z"/>
<path class="st0" d="M370,38h90c5,0,9,4,9,9v144c0,5-4,9-9,9h-90c-5,0-9-4-9-9V47C361,42.1,365.1,38,370,38z"/>
<path class="st0" d="M478,38h90c5,0,9,4,9,9v144c0,5-4,9-9,9h-90c-5,0-9-4-9-9V47C469,42.1,473.1,38,478,38z"/>
<path class="st0" d="M45.6,224h90c5,0,9,4,9,9v144c0,5-4,9-9,9h-90c-5,0-9-4-9-9V233C36.6,228,40.6,224,45.6,224z"/>
<path class="st0" d="M153.6,224h90c5,0,9,4,9,9v144c0,5-4,9-9,9h-90c-5,0-9-4-9-9V233C144.6,228,148.6,224,153.6,224z"/>
<path class="st0" d="M262,224h90c5,0,9,4,9,9v144c0,5-4,9-9,9h-90c-5,0-9-4-9-9V233C253.1,228,257.1,224,262,224z"/>
<path class="st0" d="M370,224h90c5,0,9,4,9,9v144c0,5-4,9-9,9h-90c-5,0-9-4-9-9V233C361,228,365.1,224,370,224z"/>
<path class="st0" d="M478,224h90c5,0,9,4,9,9v144c0,5-4,9-9,9h-90c-5,0-9-4-9-9V233C469,228,473.1,224,478,224z"/>
<path class="st0" d="M45.6,410h90c5,0,9,4,9,9v144c0,5-4,9-9,9h-90c-5,0-9-4-9-9V419C36.6,414,40.6,410,45.6,410z"/>
<path class="st0" d="M153.6,410h90c5,0,9,4,9,9v144c0,5-4,9-9,9h-90c-5,0-9-4-9-9V419C144.6,414,148.6,410,153.6,410z"/>
<path class="st0" d="M262,410h90c5,0,9,4,9,9v144c0,5-4,9-9,9h-90c-5,0-9-4-9-9V419C253.1,414,257.1,410,262,410z"/>
<path class="st0" d="M370,410h90c5,0,9,4,9,9v144c0,5-4,9-9,9h-90c-5,0-9-4-9-9V419C361,414,365.1,410,370,410z"/>
<path class="st0" d="M478,410h90c5,0,9,4,9,9v144c0,5-4,9-9,9h-90c-5,0-9-4-9-9V419C469,414,473.1,410,478,410z"/>
<path class="st0" d="M45.6,597.6h90c5,0,9,4,9,9v144c0,5-4,9-9,9h-90c-5,0-9-4-9-9v-144C36.6,601.7,40.6,597.6,45.6,597.6z"/>
<path class="st0" d="M153.6,595.8h90c5,0,9,4,9,9v144c0,5-4,9-9,9h-90c-5,0-9-4-9-9v-144C144.6,599.8,148.6,595.8,153.6,595.8z"/>
<path class="st0" d="M262,595.8h90c5,0,9,4,9,9v144c0,5-4,9-9,9h-90c-5,0-9-4-9-9v-144C253.1,599.8,257.1,595.8,262,595.8z"/>
<path class="st0" d="M370,595.8h90c5,0,9,4,9,9v144c0,5-4,9-9,9h-90c-5,0-9-4-9-9v-144C361,599.8,365.1,595.8,370,595.8z"/>
<path class="st0" d="M478,595.8h90c5,0,9,4,9,9v144c0,5-4,9-9,9h-90c-5,0-9-4-9-9v-144C469,599.8,473.1,595.8,478,595.8z"/>
<rect x="1" y="1" class="st0" width="612" height="792"/>
</svg>
