<?xml version="1.0" encoding="utf-8"?>
<!-- Generator: Adobe Illustrator 21.1.0, SVG Export Plug-In . SVG Version: 6.00 Build 0)  -->
<svg version="1.1" id="Layer_1" xmlns="http://www.w3.org/2000/svg" xmlns:xlink="http://www.w3.org/1999/xlink" x="0px" y="0px"
	 viewBox="0 0 614 794" style="enable-background:new 0 0 614 794;" xml:space="preserve">
<style type="text/css">
	.st0{fill:none;stroke:#231F20;stroke-width:2;stroke-miterlimit:10;}
</style>
<title>SL741</title>
<path class="st0" d="M100,26.2h414c3.8,0,6.8,3.1,6.8,6.8v162c0,3.8-3.1,6.8-6.8,6.8H100c-3.8,0-6.8-3.1-6.8-6.8V33
	C93.2,29.3,96.2,26.2,100,26.2z"/>
<path class="st0" d="M100,592.1h414c3.8,0,6.8,3.1,6.8,6.8v162c0,3.8-3.1,6.8-6.8,6.8H100c-3.8,0-6.8-3.1-6.8-6.8V599
	C93.2,595.2,96.2,592.1,100,592.1z"/>
<path class="st0" d="M100,214.8h414c3.8,0,6.8,3.1,6.8,6.8v162c0,3.8-3.1,6.8-6.8,6.8H100c-3.8,0-6.8-3.1-6.8-6.8v-162
	C93.2,217.9,96.2,214.8,100,214.8z"/>
<path class="st0" d="M100,403.5h414c3.8,0,6.8,3.1,6.8,6.8v162c0,3.8-3.1,6.8-6.8,6.8H100c-3.8,0-6.8-3.1-6.8-6.8v-162
	C93.2,406.5,96.2,403.5,100,403.5z"/>
<rect x="1" y="1" class="st0" width="612" height="792"/>
</svg>
