<?xml version="1.0" encoding="utf-8"?>
<!-- Generator: Adobe Illustrator 21.1.0, SVG Export Plug-In . SVG Version: 6.00 Build 0)  -->
<svg version="1.1" id="Layer_1" xmlns="http://www.w3.org/2000/svg" xmlns:xlink="http://www.w3.org/1999/xlink" x="0px" y="0px"
	 viewBox="0 0 614 794" style="enable-background:new 0 0 614 794;" xml:space="preserve">
<style type="text/css">
	.st0{fill:none;stroke:#231F20;stroke-width:2;stroke-miterlimit:10;}
</style>
<title>SL740</title>
<path class="st0" d="M51.8,40.6h204.3c6.2,0,11.3,5,11.3,11.3v204.3c0,6.2-5,11.3-11.3,11.3H51.8c-6.2,0-11.3-5-11.3-11.3V51.8
	C40.6,45.6,45.6,40.6,51.8,40.6z"/>
<path class="st0" d="M357.9,40.6h204.3c6.2,0,11.3,5,11.3,11.3v204.3c0,6.2-5,11.3-11.3,11.3H357.9c-6.2,0-11.3-5-11.3-11.3V51.8
	C346.6,45.6,351.6,40.6,357.9,40.6z"/>
<path class="st0" d="M51.8,526.6h204.3c6.2,0,11.3,5,11.3,11.3v204.3c0,6.2-5,11.3-11.3,11.3H51.8c-6.2,0-11.3-5-11.3-11.3V537.8
	C40.6,531.6,45.6,526.6,51.8,526.6z"/>
<path class="st0" d="M357.9,526.6h204.3c6.2,0,11.3,5,11.3,11.3v204.3c0,6.2-5,11.3-11.3,11.3H357.9c-6.2,0-11.3-5-11.3-11.3V537.8
	C346.6,531.6,351.6,526.6,357.9,526.6z"/>
<path class="st0" d="M51.8,283.6h204.3c6.2,0,11.3,5,11.3,11.3v204.3c0,6.2-5,11.3-11.3,11.3H51.8c-6.2,0-11.3-5-11.3-11.3V294.9
	C40.6,288.6,45.6,283.6,51.8,283.6z"/>
<path class="st0" d="M357.9,283.6h204.3c6.2,0,11.3,5,11.3,11.3v204.3c0,6.2-5,11.3-11.3,11.3H357.9c-6.2,0-11.3-5-11.3-11.3V294.9
	C346.6,288.6,351.6,283.6,357.9,283.6z"/>
<rect x="1" y="1" class="st0" width="612" height="792"/>
</svg>
