<?xml version="1.0" encoding="utf-8"?>
<!-- Generator: Adobe Illustrator 21.1.0, SVG Export Plug-In . SVG Version: 6.00 Build 0)  -->
<svg version="1.1" id="Layer_1" xmlns="http://www.w3.org/2000/svg" xmlns:xlink="http://www.w3.org/1999/xlink" x="0px" y="0px"
	 viewBox="0 0 614 794" style="enable-background:new 0 0 614 794;" xml:space="preserve">
<style type="text/css">
	.st0{fill:none;stroke:#231F20;stroke-width:2;}
</style>
<title>SL745</title>
<polygon class="st0" points="479.2,37.3 467.6,47.7 467.2,48.1 467.2,48.5 467.2,75 467.2,75.4 467.6,75.8 479.2,86.2 479.6,86.5 
	480.1,86.5 576.7,86.5 577.2,86.5 577.6,86.2 589.3,75.8 589.6,75.4 589.6,75 589.6,48.5 589.6,48.1 589.3,47.7 577.6,37.3 
	577.2,37 576.7,37 480.1,37 479.6,37 "/>
<polygon class="st0" points="479.2,707.8 467.6,718.2 467.2,718.6 467.2,719 467.2,745.5 467.2,745.9 467.6,746.3 479.2,756.7 
	479.6,757 480.1,757 576.7,757 577.2,757 577.6,756.7 589.3,746.3 589.6,745.9 589.6,745.5 589.6,719 589.6,718.6 589.3,718.2 
	577.6,707.8 577.2,707.5 576.7,707.5 480.1,707.5 479.6,707.5 "/>
<polygon class="st0" points="479.2,109.9 467.6,120.4 467.2,120.7 467.2,121.1 467.2,147.6 467.2,148.1 467.6,148.4 479.2,158.8 
	479.6,159.1 480.1,159.1 576.7,159.1 577.2,159.1 577.6,158.8 589.3,148.4 589.6,148.1 589.6,147.6 589.6,121.1 589.6,120.7 
	589.3,120.4 577.6,109.9 577.2,109.6 576.7,109.6 480.1,109.6 479.6,109.6 "/>
<polygon class="st0" points="479.2,182.9 467.6,193.4 467.2,193.7 467.2,194.1 467.2,220.6 467.2,221.1 467.6,221.4 479.2,231.8 
	479.6,232.1 480.1,232.1 576.7,232.1 577.2,232.1 577.6,231.8 589.3,221.4 589.6,221.1 589.6,220.6 589.6,194.1 589.6,193.7 
	589.3,193.4 577.6,182.9 577.2,182.6 576.7,182.6 480.1,182.6 479.6,182.6 "/>
<polygon class="st0" points="479.2,256.4 467.6,266.9 467.2,267.2 467.2,267.6 467.2,294.1 467.2,294.6 467.6,294.9 479.2,305.3 
	479.6,305.6 480.1,305.6 576.7,305.6 577.2,305.6 577.6,305.3 589.3,294.9 589.6,294.6 589.6,294.1 589.6,267.6 589.6,267.2 
	589.3,266.9 577.6,256.4 577.2,256.1 576.7,256.1 480.1,256.1 479.6,256.1 "/>
<polygon class="st0" points="479.2,329.9 467.6,340.4 467.2,340.7 467.2,341.1 467.2,367.6 467.2,368.1 467.6,368.4 479.2,378.8 
	479.6,379.1 480.1,379.1 576.7,379.1 577.2,379.1 577.6,378.8 589.3,368.4 589.6,368.1 589.6,367.6 589.6,341.1 589.6,340.7 
	589.3,340.4 577.6,329.9 577.2,329.6 576.7,329.6 480.1,329.6 479.6,329.6 "/>
<polygon class="st0" points="479.2,414.2 467.6,424.6 467.2,424.9 467.2,425.4 467.2,451.9 467.2,452.3 467.6,452.6 479.2,463.1 
	479.6,463.4 480.1,463.4 576.7,463.4 577.2,463.4 577.6,463.1 589.3,452.6 589.6,452.3 589.6,451.9 589.6,425.4 589.6,424.9 
	589.3,424.6 577.6,414.2 577.2,413.9 576.7,413.9 480.1,413.9 479.6,413.9 "/>
<polygon class="st0" points="479.2,487.4 467.6,497.8 467.2,498.1 467.2,498.6 467.2,525 467.2,525.5 467.6,525.8 479.2,536.2 
	479.6,536.5 480.1,536.5 576.7,536.5 577.2,536.5 577.6,536.2 589.3,525.8 589.6,525.5 589.6,525 589.6,498.6 589.6,498.1 
	589.3,497.8 577.6,487.4 577.2,487 576.7,487 480.1,487 479.6,487 "/>
<polygon class="st0" points="479.2,561.2 467.6,571.6 467.2,571.9 467.2,572.4 467.2,598.9 467.2,599.3 467.6,599.7 479.2,610.1 
	479.6,610.4 480.1,610.4 576.7,610.4 577.2,610.4 577.6,610.1 589.3,599.7 589.6,599.3 589.6,598.9 589.6,572.4 589.6,571.9 
	589.3,571.6 577.6,561.2 577.2,560.9 576.7,560.9 480.1,560.9 479.6,560.9 "/>
<polygon class="st0" points="479.2,634.6 467.6,645 467.2,645.3 467.2,645.8 467.2,672.3 467.2,672.7 467.6,673 479.2,683.5 
	479.6,683.8 480.1,683.8 576.7,683.8 577.2,683.8 577.6,683.5 589.3,673 589.6,672.7 589.6,672.3 589.6,645.8 589.6,645.3 
	589.3,645 577.6,634.6 577.2,634.3 576.7,634.3 480.1,634.3 479.6,634.3 "/>
<polygon class="st0" points="338.5,37.3 326.9,47.7 326.5,48.1 326.5,48.5 326.5,75 326.5,75.4 326.9,75.8 338.5,86.2 338.9,86.5 
	339.4,86.5 436,86.5 436.5,86.5 436.9,86.2 448.5,75.8 448.9,75.4 448.9,75 448.9,48.5 448.9,48.1 448.5,47.7 436.9,37.3 436.5,37 
	436,37 339.4,37 338.9,37 "/>
<polygon class="st0" points="338.5,707.8 326.9,718.2 326.5,718.6 326.5,719 326.5,745.5 326.5,745.9 326.9,746.3 338.5,756.7 
	338.9,757 339.4,757 436,757 436.5,757 436.9,756.7 448.5,746.3 448.9,745.9 448.9,745.5 448.9,719 448.9,718.6 448.5,718.2 
	436.9,707.8 436.5,707.5 436,707.5 339.4,707.5 338.9,707.5 "/>
<polygon class="st0" points="338.5,109.9 326.9,120.4 326.5,120.7 326.5,121.1 326.5,147.6 326.5,148.1 326.9,148.4 338.5,158.8 
	338.9,159.1 339.4,159.1 436,159.1 436.5,159.1 436.9,158.8 448.5,148.4 448.9,148.1 448.9,147.6 448.9,121.1 448.9,120.7 
	448.5,120.4 436.9,109.9 436.5,109.6 436,109.6 339.4,109.6 338.9,109.6 "/>
<polygon class="st0" points="338.5,182.9 326.9,193.4 326.5,193.7 326.5,194.1 326.5,220.6 326.5,221.1 326.9,221.4 338.5,231.8 
	338.9,232.1 339.4,232.1 436,232.1 436.5,232.1 436.9,231.8 448.5,221.4 448.9,221.1 448.9,220.6 448.9,194.1 448.9,193.7 
	448.5,193.4 436.9,182.9 436.5,182.6 436,182.6 339.4,182.6 338.9,182.6 "/>
<polygon class="st0" points="338.5,256.4 326.9,266.9 326.5,267.2 326.5,267.6 326.5,294.1 326.5,294.6 326.9,294.9 338.5,305.3 
	338.9,305.6 339.4,305.6 436,305.6 436.5,305.6 436.9,305.3 448.5,294.9 448.9,294.6 448.9,294.1 448.9,267.6 448.9,267.2 
	448.5,266.9 436.9,256.4 436.5,256.1 436,256.1 339.4,256.1 338.9,256.1 "/>
<polygon class="st0" points="338.5,329.9 326.9,340.4 326.5,340.7 326.5,341.1 326.5,367.6 326.5,368.1 326.9,368.4 338.5,378.8 
	338.9,379.1 339.4,379.1 436,379.1 436.5,379.1 436.9,378.8 448.5,368.4 448.9,368.1 448.9,367.6 448.9,341.1 448.9,340.7 
	448.5,340.4 436.9,329.9 436.5,329.6 436,329.6 339.4,329.6 338.9,329.6 "/>
<polygon class="st0" points="338.5,414.2 326.9,424.6 326.5,424.9 326.5,425.4 326.5,451.9 326.5,452.3 326.9,452.6 338.5,463.1 
	338.9,463.4 339.4,463.4 436,463.4 436.5,463.4 436.9,463.1 448.5,452.6 448.9,452.3 448.9,451.9 448.9,425.4 448.9,424.9 
	448.5,424.6 436.9,414.2 436.5,413.9 436,413.9 339.4,413.9 338.9,413.9 "/>
<polygon class="st0" points="338.5,487.4 326.9,497.8 326.5,498.1 326.5,498.6 326.5,525 326.5,525.5 326.9,525.8 338.5,536.2 
	338.9,536.5 339.4,536.5 436,536.5 436.5,536.5 436.9,536.2 448.5,525.8 448.9,525.5 448.9,525 448.9,498.6 448.9,498.1 
	448.5,497.8 436.9,487.4 436.5,487 436,487 339.4,487 338.9,487 "/>
<polygon class="st0" points="338.5,561.2 326.9,571.6 326.5,571.9 326.5,572.4 326.5,598.9 326.5,599.3 326.9,599.7 338.5,610.1 
	338.9,610.4 339.4,610.4 436,610.4 436.5,610.4 436.9,610.1 448.5,599.7 448.9,599.3 448.9,598.9 448.9,572.4 448.9,571.9 
	448.5,571.6 436.9,561.2 436.5,560.9 436,560.9 339.4,560.9 338.9,560.9 "/>
<polygon class="st0" points="338.5,634.6 326.9,645 326.5,645.3 326.5,645.8 326.5,672.3 326.5,672.7 326.9,673 338.5,683.5 
	338.9,683.8 339.4,683.8 436,683.8 436.5,683.8 436.9,683.5 448.5,673 448.9,672.7 448.9,672.3 448.9,645.8 448.9,645.3 448.5,645 
	436.9,634.6 436.5,634.3 436,634.3 339.4,634.3 338.9,634.3 "/>
<polygon class="st0" points="36.4,37.3 24.8,47.7 24.4,48.1 24.4,48.5 24.4,75 24.4,75.4 24.8,75.8 36.4,86.2 36.8,86.5 37.3,86.5 
	133.9,86.5 134.4,86.5 134.8,86.2 146.4,75.8 146.8,75.4 146.8,75 146.8,48.5 146.8,48.1 146.4,47.7 134.8,37.3 134.4,37 133.9,37 
	37.3,37 36.8,37 "/>
<polygon class="st0" points="36.4,707.8 24.8,718.2 24.4,718.6 24.4,719 24.4,745.5 24.4,745.9 24.8,746.3 36.4,756.7 36.8,757 
	37.3,757 133.9,757 134.4,757 134.8,756.7 146.4,746.3 146.8,745.9 146.8,745.5 146.8,719 146.8,718.6 146.4,718.2 134.8,707.8 
	134.4,707.5 133.9,707.5 37.3,707.5 36.8,707.5 "/>
<polygon class="st0" points="36.4,109.9 24.8,120.4 24.4,120.7 24.4,121.1 24.4,147.6 24.4,148.1 24.8,148.4 36.4,158.8 36.8,159.1 
	37.3,159.1 133.9,159.1 134.4,159.1 134.8,158.8 146.4,148.4 146.8,148.1 146.8,147.6 146.8,121.1 146.8,120.7 146.4,120.4 
	134.8,109.9 134.4,109.6 133.9,109.6 37.3,109.6 36.8,109.6 "/>
<polygon class="st0" points="36.4,182.9 24.8,193.4 24.4,193.7 24.4,194.1 24.4,220.6 24.4,221.1 24.8,221.4 36.4,231.8 36.8,232.1 
	37.3,232.1 133.9,232.1 134.4,232.1 134.8,231.8 146.4,221.4 146.8,221.1 146.8,220.6 146.8,194.1 146.8,193.7 146.4,193.4 
	134.8,182.9 134.4,182.6 133.9,182.6 37.3,182.6 36.8,182.6 "/>
<polygon class="st0" points="36.4,256.4 24.8,266.9 24.4,267.2 24.4,267.6 24.4,294.1 24.4,294.6 24.8,294.9 36.4,305.3 36.8,305.6 
	37.3,305.6 133.9,305.6 134.4,305.6 134.8,305.3 146.4,294.9 146.8,294.6 146.8,294.1 146.8,267.6 146.8,267.2 146.4,266.9 
	134.8,256.4 134.4,256.1 133.9,256.1 37.3,256.1 36.8,256.1 "/>
<polygon class="st0" points="36.4,329.9 24.8,340.4 24.4,340.7 24.4,341.1 24.4,367.6 24.4,368.1 24.8,368.4 36.4,378.8 36.8,379.1 
	37.3,379.1 133.9,379.1 134.4,379.1 134.8,378.8 146.4,368.4 146.8,368.1 146.8,367.6 146.8,341.1 146.8,340.7 146.4,340.4 
	134.8,329.9 134.4,329.6 133.9,329.6 37.3,329.6 36.8,329.6 "/>
<polygon class="st0" points="36.4,414.2 24.8,424.6 24.4,424.9 24.4,425.4 24.4,451.9 24.4,452.3 24.8,452.6 36.4,463.1 36.8,463.4 
	37.3,463.4 133.9,463.4 134.4,463.4 134.8,463.1 146.4,452.6 146.8,452.3 146.8,451.9 146.8,425.4 146.8,424.9 146.4,424.6 
	134.8,414.2 134.4,413.9 133.9,413.9 37.3,413.9 36.8,413.9 "/>
<polygon class="st0" points="36.4,487.4 24.8,497.8 24.4,498.1 24.4,498.6 24.4,525 24.4,525.5 24.8,525.8 36.4,536.2 36.8,536.5 
	37.3,536.5 133.9,536.5 134.4,536.5 134.8,536.2 146.4,525.8 146.8,525.5 146.8,525 146.8,498.6 146.8,498.1 146.4,497.8 
	134.8,487.4 134.4,487 133.9,487 37.3,487 36.8,487 "/>
<polygon class="st0" points="36.4,561.2 24.8,571.6 24.4,571.9 24.4,572.4 24.4,598.9 24.4,599.3 24.8,599.7 36.4,610.1 36.8,610.4 
	37.3,610.4 133.9,610.4 134.4,610.4 134.8,610.1 146.4,599.7 146.8,599.3 146.8,598.9 146.8,572.4 146.8,571.9 146.4,571.6 
	134.8,561.2 134.4,560.9 133.9,560.9 37.3,560.9 36.8,560.9 "/>
<polygon class="st0" points="36.4,634.6 24.8,645 24.4,645.3 24.4,645.8 24.4,672.3 24.4,672.7 24.8,673 36.4,683.5 36.8,683.8 
	37.3,683.8 133.9,683.8 134.4,683.8 134.8,683.5 146.4,673 146.8,672.7 146.8,672.3 146.8,645.8 146.8,645.3 146.4,645 134.8,634.6 
	134.4,634.3 133.9,634.3 37.3,634.3 36.8,634.3 "/>
<polygon class="st0" points="177.1,37.3 165.4,47.7 165.1,48.1 165.1,48.5 165.1,75 165.1,75.4 165.4,75.8 177.1,86.2 177.5,86.5 
	178,86.5 274.6,86.5 275.1,86.5 275.5,86.2 287.1,75.8 287.5,75.4 287.5,75 287.5,48.5 287.5,48.1 287.1,47.7 275.5,37.3 275.1,37 
	274.6,37 178,37 177.5,37 "/>
<polygon class="st0" points="177.1,707.8 165.4,718.2 165.1,718.6 165.1,719 165.1,745.5 165.1,745.9 165.4,746.3 177.1,756.7 
	177.5,757 178,757 274.6,757 275.1,757 275.5,756.7 287.1,746.3 287.5,745.9 287.5,745.5 287.5,719 287.5,718.6 287.1,718.2 
	275.5,707.8 275.1,707.5 274.6,707.5 178,707.5 177.5,707.5 "/>
<polygon class="st0" points="177.1,109.9 165.4,120.4 165.1,120.7 165.1,121.1 165.1,147.6 165.1,148.1 165.4,148.4 177.1,158.8 
	177.5,159.1 178,159.1 274.6,159.1 275.1,159.1 275.5,158.8 287.1,148.4 287.5,148.1 287.5,147.6 287.5,121.1 287.5,120.7 
	287.1,120.4 275.5,109.9 275.1,109.6 274.6,109.6 178,109.6 177.5,109.6 "/>
<polygon class="st0" points="177.1,182.9 165.4,193.4 165.1,193.7 165.1,194.1 165.1,220.6 165.1,221.1 165.4,221.4 177.1,231.8 
	177.5,232.1 178,232.1 274.6,232.1 275.1,232.1 275.5,231.8 287.1,221.4 287.5,221.1 287.5,220.6 287.5,194.1 287.5,193.7 
	287.1,193.4 275.5,182.9 275.1,182.6 274.6,182.6 178,182.6 177.5,182.6 "/>
<polygon class="st0" points="177.1,256.4 165.4,266.9 165.1,267.2 165.1,267.6 165.1,294.1 165.1,294.6 165.4,294.9 177.1,305.3 
	177.5,305.6 178,305.6 274.6,305.6 275.1,305.6 275.5,305.3 287.1,294.9 287.5,294.6 287.5,294.1 287.5,267.6 287.5,267.2 
	287.1,266.9 275.5,256.4 275.1,256.1 274.6,256.1 178,256.1 177.5,256.1 "/>
<polygon class="st0" points="177.1,329.9 165.4,340.4 165.1,340.7 165.1,341.1 165.1,367.6 165.1,368.1 165.4,368.4 177.1,378.8 
	177.5,379.1 178,379.1 274.6,379.1 275.1,379.1 275.5,378.8 287.1,368.4 287.5,368.1 287.5,367.6 287.5,341.1 287.5,340.7 
	287.1,340.4 275.5,329.9 275.1,329.6 274.6,329.6 178,329.6 177.5,329.6 "/>
<polygon class="st0" points="177.1,414.2 165.4,424.6 165.1,424.9 165.1,425.4 165.1,451.9 165.1,452.3 165.4,452.6 177.1,463.1 
	177.5,463.4 178,463.4 274.6,463.4 275.1,463.4 275.5,463.1 287.1,452.6 287.5,452.3 287.5,451.9 287.5,425.4 287.5,424.9 
	287.1,424.6 275.5,414.2 275.1,413.9 274.6,413.9 178,413.9 177.5,413.9 "/>
<polygon class="st0" points="177.1,487.4 165.4,497.8 165.1,498.1 165.1,498.6 165.1,525 165.1,525.5 165.4,525.8 177.1,536.2 
	177.5,536.5 178,536.5 274.6,536.5 275.1,536.5 275.5,536.2 287.1,525.8 287.5,525.5 287.5,525 287.5,498.6 287.5,498.1 
	287.1,497.8 275.5,487.4 275.1,487 274.6,487 178,487 177.5,487 "/>
<polygon class="st0" points="177.1,561.2 165.4,571.6 165.1,571.9 165.1,572.4 165.1,598.9 165.1,599.3 165.4,599.7 177.1,610.1 
	177.5,610.4 178,610.4 274.6,610.4 275.1,610.4 275.5,610.1 287.1,599.7 287.5,599.3 287.5,598.9 287.5,572.4 287.5,571.9 
	287.1,571.6 275.5,561.2 275.1,560.9 274.6,560.9 178,560.9 177.5,560.9 "/>
<polygon class="st0" points="177.1,634.6 165.4,645 165.1,645.3 165.1,645.8 165.1,672.3 165.1,672.7 165.4,673 177.1,683.5 
	177.5,683.8 178,683.8 274.6,683.8 275.1,683.8 275.5,683.5 287.1,673 287.5,672.7 287.5,672.3 287.5,645.8 287.5,645.3 287.1,645 
	275.5,634.6 275.1,634.3 274.6,634.3 178,634.3 177.5,634.3 "/>
<rect x="1" y="1" class="st0" width="612" height="792"/>
</svg>
