<?xml version="1.0" encoding="utf-8"?>
<!-- Generator: Adobe Illustrator 21.1.0, SVG Export Plug-In . SVG Version: 6.00 Build 0)  -->
<svg version="1.1" id="Layer_1" xmlns="http://www.w3.org/2000/svg" xmlns:xlink="http://www.w3.org/1999/xlink" x="0px" y="0px"
	 viewBox="0 0 614 794" style="enable-background:new 0 0 614 794;" xml:space="preserve">
<style type="text/css">
	.st0{fill:none;stroke:#231F20;stroke-width:2;stroke-miterlimit:10;}
</style>
<title>SL743</title>
<rect x="32.5" y="19" class="st0" width="90" height="144"/>
<rect x="392.5" y="19" class="st0" width="90" height="144"/>
<rect x="302.5" y="19" class="st0" width="90" height="144"/>
<rect x="212.5" y="19" class="st0" width="90" height="144"/>
<rect x="122.5" y="19" class="st0" width="90" height="144"/>
<rect x="482.5" y="19" class="st0" width="90" height="144"/>
<rect x="32.5" y="163" class="st0" width="90" height="234"/>
<rect x="482.5" y="163" class="st0" width="90" height="234"/>
<rect x="392.5" y="163" class="st0" width="90" height="234"/>
<rect x="302.5" y="163" class="st0" width="90" height="234"/>
<rect x="212.5" y="163" class="st0" width="90" height="234"/>
<rect x="122.5" y="163" class="st0" width="90" height="234"/>
<rect x="32.5" y="398" class="st0" width="90" height="144"/>
<rect x="392.5" y="398" class="st0" width="90" height="144"/>
<rect x="302.5" y="398" class="st0" width="90" height="144"/>
<rect x="212.5" y="398" class="st0" width="90" height="144"/>
<rect x="122.5" y="398" class="st0" width="90" height="144"/>
<rect x="482.5" y="398" class="st0" width="90" height="144"/>
<rect x="32.5" y="542" class="st0" width="90" height="234"/>
<rect x="482.5" y="542" class="st0" width="90" height="234"/>
<rect x="392.5" y="542" class="st0" width="90" height="234"/>
<rect x="302.5" y="542" class="st0" width="90" height="234"/>
<rect x="212.5" y="542" class="st0" width="90" height="234"/>
<rect x="122.5" y="542" class="st0" width="90" height="234"/>
<rect x="1" y="1" class="st0" width="612" height="792"/>
</svg>
