<?xml version="1.0" encoding="utf-8"?>
<!-- Generator: Adobe Illustrator 22.0.1, SVG Export Plug-In . SVG Version: 6.00 Build 0)  -->
<!DOCTYPE svg PUBLIC "-//W3C//DTD SVG 1.1//EN" "http://www.w3.org/Graphics/SVG/1.1/DTD/svg11.dtd">
<svg version="1.1" id="Layer_1" xmlns="http://www.w3.org/2000/svg" xmlns:xlink="http://www.w3.org/1999/xlink" x="0px" y="0px"
	 viewBox="0 0 612 1008" style="enable-background:new 0 0 612 1008;" xml:space="preserve">
<style type="text/css">
	.st0{fill:none;stroke:#231F20;stroke-width:2;}
</style>
<g>
	<path class="st0" d="M298,73c5,0,9,4,9,9v414c0,5-4,9-9,9H28c-5,0-9-4-9-9V82c0-5,4-9,9-9H298z"/>
	<path class="st0" d="M585,73c5,0,9,4,9,9v414c0,5-4,9-9,9H315c-5,0-9-4-9-9V82c0-5,4-9,9-9H585z"/>
</g>
<path class="st0" d="M298,504c5,0,9,4,9,9v414c0,5-4,9-9,9H28c-5,0-9-4-9-9V513c0-5,4-9,9-9H298z"/>
<path class="st0" d="M585,504c5,0,9,4,9,9v414c0,5-4,9-9,9H315c-5,0-9-4-9-9V513c0-5,4-9,9-9H585z"/>
<rect y="1.1" class="st0" width="612" height="1005.8"/>
</svg>
