<?xml version="1.0" encoding="utf-8"?>
<!-- Generator: Adobe Illustrator 20.1.0, SVG Export Plug-In . SVG Version: 6.00 Build 0)  -->
<svg version="1.1" id="Template" xmlns="http://www.w3.org/2000/svg" xmlns:xlink="http://www.w3.org/1999/xlink" x="0px" y="0px"
	 viewBox="0 0 612 792" style="enable-background:new 0 0 612 792;" xml:space="preserve">
<style type="text/css">
	.st0{fill:none;stroke:#000000;stroke-width:2;stroke-miterlimit:10;}
</style>
<g>
	<g>
		<g>
			<path class="st0" d="M151.2,22.5c-65.6,0-118.8,53.2-118.8,118.8c0,62.6,48.4,113.9,109.8,118.5v-60.1c-28.3-4.3-50-28.8-50-58.4
				c0-32.6,26.4-59,59-59c32.6,0,59,26.4,59,59c0,29.5-21.7,54-50,58.4v60.1c61.4-4.6,109.8-55.9,109.8-118.5
				C270,75.7,216.8,22.5,151.2,22.5z"/>
			<path class="st0" d="M460.8,22.5C395.2,22.5,342,75.7,342,141.3c0,62.6,48.4,113.9,109.8,118.5v-60.1c-28.3-4.3-50-28.8-50-58.4
				c0-32.6,26.4-59,59-59c32.6,0,59,26.4,59,59c0,29.5-21.7,54-50,58.4v60.1c61.4-4.6,109.8-55.9,109.8-118.5
				C579.6,75.7,526.4,22.5,460.8,22.5z"/>
		</g>
		<g>
			<path class="st0" d="M151.2,532.2c-65.6,0-118.8,53.2-118.8,118.8c0,62.6,48.4,113.9,109.8,118.5v-60.1
				c-28.3-4.3-50-28.8-50-58.4c0-32.6,26.4-59,59-59c32.6,0,59,26.4,59,59c0,29.5-21.7,54-50,58.4v60.1
				C221.6,764.9,270,713.6,270,651C270,585.4,216.8,532.2,151.2,532.2z"/>
			<path class="st0" d="M460.8,532.2C395.2,532.2,342,585.4,342,651c0,62.6,48.4,113.9,109.8,118.5v-60.1c-28.3-4.3-50-28.8-50-58.4
				c0-32.6,26.4-59,59-59c32.6,0,59,26.4,59,59c0,29.5-21.7,54-50,58.4v60.1c61.4-4.6,109.8-55.9,109.8-118.5
				C579.6,585.4,526.4,532.2,460.8,532.2z"/>
		</g>
		<g>
			<path class="st0" d="M151.2,277.4c-65.6,0-118.8,53.2-118.8,118.8c0,62.6,48.4,113.9,109.8,118.5v-60.1
				c-28.3-4.3-50-28.8-50-58.4c0-32.6,26.4-59,59-59c32.6,0,59,26.4,59,59c0,29.5-21.7,54-50,58.4v60.1
				C221.6,510,270,458.8,270,396.2C270,330.6,216.8,277.4,151.2,277.4z"/>
			<path class="st0" d="M460.8,277.4c-65.6,0-118.8,53.2-118.8,118.8c0,62.6,48.4,113.9,109.8,118.5v-60.1
				c-28.3-4.3-50-28.8-50-58.4c0-32.6,26.4-59,59-59c32.6,0,59,26.4,59,59c0,29.5-21.7,54-50,58.4v60.1
				c61.4-4.6,109.8-55.9,109.8-118.5C579.6,330.6,526.4,277.4,460.8,277.4z"/>
		</g>
	</g>
	<g>
		<path d="M610,2v788H2V2H610 M612,0H0v792h612V0L612,0z"/>
	</g>
</g>
</svg>
