<?xml version="1.0" encoding="utf-8"?>
<!-- Generator: Adobe Illustrator 21.1.0, SVG Export Plug-In . SVG Version: 6.00 Build 0)  -->
<svg version="1.1" id="Template" xmlns="http://www.w3.org/2000/svg" xmlns:xlink="http://www.w3.org/1999/xlink" x="0px" y="0px"
	 viewBox="0 0 612 792" style="enable-background:new 0 0 612 792;" xml:space="preserve">
<style type="text/css">
	.st0{fill:#231F20;}
	.st1{fill:none;stroke:#231F20;stroke-width:2;stroke-miterlimit:10;}
</style>
<title>SL815</title>
<path class="st0" d="M610,2v788H2V2H610 M612,0H0v792h612V0z"/>
<path class="st1" d="M22.5,36h270c5,0,9,4,9,9v126c0,5-4,9-9,9h-270c-5,0-9-4-9-9V45C13.5,40,17.5,36,22.5,36z"/>
<path class="st1" d="M319.5,36h270c5,0,9,4,9,9v126c0,5-4,9-9,9h-270c-5,0-9-4-9-9V45C310.5,40,314.5,36,319.5,36z"/>
<path class="st1" d="M22.5,612h270c5,0,9,4,9,9v126c0,5-4,9-9,9h-270c-5,0-9-4-9-9V621C13.5,616,17.5,612,22.5,612z"/>
<path class="st1" d="M319.5,612h270c5,0,9,4,9,9v126c0,5-4,9-9,9h-270c-5,0-9-4-9-9V621C310.5,616,314.5,612,319.5,612z"/>
<path class="st1" d="M22.5,228h270c5,0,9,4,9,9v126c0,5-4,9-9,9h-270c-5,0-9-4-9-9V237C13.5,232,17.5,228,22.5,228z"/>
<path class="st1" d="M319.5,228h270c5,0,9,4,9,9v126c0,5-4,9-9,9h-270c-5,0-9-4-9-9V237C310.5,232,314.5,228,319.5,228z"/>
<path class="st1" d="M22.5,420h270c5,0,9,4,9,9v126c0,5-4,9-9,9h-270c-5,0-9-4-9-9V429C13.5,424,17.5,420,22.5,420z"/>
<path class="st1" d="M319.5,420h270c5,0,9,4,9,9v126c0,5-4,9-9,9h-270c-5,0-9-4-9-9V429C310.5,424,314.5,420,319.5,420z"/>
</svg>
