<?xml version="1.0" encoding="utf-8"?>
<!-- Generator: Adobe Illustrator 21.1.0, SVG Export Plug-In . SVG Version: 6.00 Build 0)  -->
<svg version="1.1" id="Template" xmlns="http://www.w3.org/2000/svg" xmlns:xlink="http://www.w3.org/1999/xlink" x="0px" y="0px"
	 viewBox="0 0 612 792" style="enable-background:new 0 0 612 792;" xml:space="preserve">
<style type="text/css">
	.st0{fill:none;stroke:#000000;stroke-width:2;stroke-miterlimit:10;}
</style>
<path class="st0" d="M611,1v790H1V1H611 M612,0H0v792h612V0L612,0z"/>
<g>
	<path class="st0" d="M279,63c0,4.9-4,9-9,9H45c-5,0-9-4.1-9-9V45c0-5,4-9,9-9h225c5,0,9,4,9,9V63z"/>
	<path class="st0" d="M576,63c0,4.9-4,9-9,9H342c-5,0-9-4.1-9-9V45c0-5,4-9,9-9h225c5,0,9,4,9,9V63z"/>
</g>
<g>
	<path class="st0" d="M279,747c0,5-4,9-9,9H45c-5,0-9-4-9-9v-18c0-5,4-9,9-9h225c5,0,9,4,9,9V747z"/>
	<path class="st0" d="M576,747c0,5-4,9-9,9H342c-5,0-9-4-9-9v-18c0-5,4-9,9-9h225c5,0,9,4,9,9V747z"/>
</g>
<g>
	<path class="st0" d="M279,171c0,4.9-4,9-9,9H45c-5,0-9-4.1-9-9v-18c0-4.9,4-9,9-9h225c5,0,9,4.1,9,9V171z"/>
	<path class="st0" d="M576,171c0,4.9-4,9-9,9H342c-5,0-9-4.1-9-9v-18c0-4.9,4-9,9-9h225c5,0,9,4.1,9,9V171z"/>
</g>
<g>
	<path class="st0" d="M279,243c0,4.9-4,9-9,9H45c-5,0-9-4.1-9-9v-18c0-4.9,4-9,9-9h225c5,0,9,4.1,9,9V243z"/>
	<path class="st0" d="M576,243c0,4.9-4,9-9,9H342c-5,0-9-4.1-9-9v-18c0-4.9,4-9,9-9h225c5,0,9,4.1,9,9V243z"/>
</g>
<g>
	<path class="st0" d="M279,315c0,5-4,9-9,9H45c-5,0-9-4-9-9v-18c0-5,4-9,9-9h225c5,0,9,4,9,9V315z"/>
	<path class="st0" d="M576,315c0,5-4,9-9,9H342c-5,0-9-4-9-9v-18c0-5,4-9,9-9h225c5,0,9,4,9,9V315z"/>
</g>
<g>
	<path class="st0" d="M279,387c0,5-4,9-9,9H45c-5,0-9-4-9-9v-18c0-5,4-9,9-9h225c5,0,9,4,9,9V387z"/>
	<path class="st0" d="M576,387c0,5-4,9-9,9H342c-5,0-9-4-9-9v-18c0-5,4-9,9-9h225c5,0,9,4,9,9V387z"/>
</g>
<g>
	<path class="st0" d="M279,459c0,5-4,9-9,9H45c-5,0-9-4-9-9v-18c0-5,4-9,9-9h225c5,0,9,4,9,9V459z"/>
	<path class="st0" d="M576,459c0,5-4,9-9,9H342c-5,0-9-4-9-9v-18c0-5,4-9,9-9h225c5,0,9,4,9,9V459z"/>
</g>
<g>
	<path class="st0" d="M279,531c0,5-4,9-9,9H45c-5,0-9-4-9-9v-18c0-5,4-9,9-9h225c5,0,9,4,9,9V531z"/>
	<path class="st0" d="M576,531c0,5-4,9-9,9H342c-5,0-9-4-9-9v-18c0-5,4-9,9-9h225c5,0,9,4,9,9V531z"/>
</g>
<g>
	<path class="st0" d="M279,603c0,5-4,9-9,9H45c-5,0-9-4-9-9v-18c0-5,4-9,9-9h225c5,0,9,4,9,9V603z"/>
	<path class="st0" d="M576,603c0,5-4,9-9,9H342c-5,0-9-4-9-9v-18c0-5,4-9,9-9h225c5,0,9,4,9,9V603z"/>
</g>
<g>
	<path class="st0" d="M279,675c0,5-4,9-9,9H45c-5,0-9-4-9-9v-18c0-5,4-9,9-9h225c5,0,9,4,9,9V675z"/>
	<path class="st0" d="M576,675c0,5-4,9-9,9H342c-5,0-9-4-9-9v-18c0-5,4-9,9-9h225c5,0,9,4,9,9V675z"/>
</g>
<g>
	<path class="st0" d="M279,99c0,4.9-4,9-9,9H45c-5,0-9-4.1-9-9V81c0-4.9,4-9,9-9h225c5,0,9,4.1,9,9V99z"/>
	<path class="st0" d="M576,99c0,4.9-4,9-9,9H342c-5,0-9-4.1-9-9V81c0-4.9,4-9,9-9h225c5,0,9,4.1,9,9V99z"/>
</g>
<g>
	<path class="st0" d="M279,711c0,5-4,9-9,9H45c-5,0-9-4-9-9v-18c0-5,4-9,9-9h225c5,0,9,4,9,9V711z"/>
	<path class="st0" d="M576,711c0,5-4,9-9,9H342c-5,0-9-4-9-9v-18c0-5,4-9,9-9h225c5,0,9,4,9,9V711z"/>
</g>
<g>
	<path class="st0" d="M279,135c0,4.9-4,9-9,9H45c-5,0-9-4.1-9-9v-18c0-4.9,4-9,9-9h225c5,0,9,4.1,9,9V135z"/>
	<path class="st0" d="M576,135c0,4.9-4,9-9,9H342c-5,0-9-4.1-9-9v-18c0-4.9,4-9,9-9h225c5,0,9,4.1,9,9V135z"/>
</g>
<g>
	<path class="st0" d="M279,207c0,4.9-4,9-9,9H45c-5,0-9-4.1-9-9v-18c0-4.9,4-9,9-9h225c5,0,9,4.1,9,9V207z"/>
	<path class="st0" d="M576,207c0,4.9-4,9-9,9H342c-5,0-9-4.1-9-9v-18c0-4.9,4-9,9-9h225c5,0,9,4.1,9,9V207z"/>
</g>
<g>
	<path class="st0" d="M279,279c0,5-4,9-9,9H45c-5,0-9-4-9-9v-18c0-5,4-9,9-9h225c5,0,9,4,9,9V279z"/>
	<path class="st0" d="M576,279c0,5-4,9-9,9H342c-5,0-9-4-9-9v-18c0-5,4-9,9-9h225c5,0,9,4,9,9V279z"/>
</g>
<g>
	<path class="st0" d="M279,351c0,5-4,9-9,9H45c-5,0-9-4-9-9v-18c0-5,4-9,9-9h225c5,0,9,4,9,9V351z"/>
	<path class="st0" d="M576,351c0,5-4,9-9,9H342c-5,0-9-4-9-9v-18c0-5,4-9,9-9h225c5,0,9,4,9,9V351z"/>
</g>
<g>
	<path class="st0" d="M279,423c0,5-4,9-9,9H45c-5,0-9-4-9-9v-18c0-5,4-9,9-9h225c5,0,9,4,9,9V423z"/>
	<path class="st0" d="M576,423c0,5-4,9-9,9H342c-5,0-9-4-9-9v-18c0-5,4-9,9-9h225c5,0,9,4,9,9V423z"/>
</g>
<g>
	<path class="st0" d="M279,495c0,5-4,9-9,9H45c-5,0-9-4-9-9v-18c0-5,4-9,9-9h225c5,0,9,4,9,9V495z"/>
	<path class="st0" d="M576,495c0,5-4,9-9,9H342c-5,0-9-4-9-9v-18c0-5,4-9,9-9h225c5,0,9,4,9,9V495z"/>
</g>
<g>
	<path class="st0" d="M279,567c0,5-4,9-9,9H45c-5,0-9-4-9-9v-18c0-5,4-9,9-9h225c5,0,9,4,9,9V567z"/>
	<path class="st0" d="M576,567c0,5-4,9-9,9H342c-5,0-9-4-9-9v-18c0-5,4-9,9-9h225c5,0,9,4,9,9V567z"/>
</g>
<g>
	<path class="st0" d="M279,639c0,5-4,9-9,9H45c-5,0-9-4-9-9v-18c0-5,4-9,9-9h225c5,0,9,4,9,9V639z"/>
	<path class="st0" d="M576,639c0,5-4,9-9,9H342c-5,0-9-4-9-9v-18c0-5,4-9,9-9h225c5,0,9,4,9,9V639z"/>
</g>
</svg>
