<?xml version="1.0" encoding="utf-8"?>
<!-- Generator: Adobe Illustrator 21.1.0, SVG Export Plug-In . SVG Version: 6.00 Build 0)  -->
<svg version="1.1" id="Layer_1" xmlns="http://www.w3.org/2000/svg" xmlns:xlink="http://www.w3.org/1999/xlink" x="0px" y="0px"
	 viewBox="0 0 612 792" style="enable-background:new 0 0 612 792;" xml:space="preserve">
<style type="text/css">
	.st0{fill:none;stroke:#000000;stroke-width:2;stroke-miterlimit:10;}
</style>
<g id="Template">
	<g>
		<path d="M610,2v788H2V2H610 M612,0H0v792h612V0L612,0z"/>
	</g>
	<g>
		<path class="st0" d="M63,252c-5,0-9-4-9-9V45c0-5,4-9,9-9h126c5,0,9,4,9,9v198c0,5-4,9-9,9H63z"/>
		<path class="st0" d="M243,252c-5,0-9-4-9-9V45c0-5,4-9,9-9h126c5,0,9,4,9,9v198c0,5-4,9-9,9H243z"/>
		<path class="st0" d="M423,252c-5,0-9-4-9-9V45c0-5,4-9,9-9h126c5,0,9,4,9,9v198c0,5-4,9-9,9H423z"/>
	</g>
	<g>
		<path class="st0" d="M63,756c-5,0-9-4-9-9V549c0-5,4-9,9-9h126c5,0,9,4,9,9v198c0,5-4,9-9,9H63z"/>
		<path class="st0" d="M243,756c-5,0-9-4-9-9V549c0-5,4-9,9-9h126c5,0,9,4,9,9v198c0,5-4,9-9,9H243z"/>
		<path class="st0" d="M423,756c-5,0-9-4-9-9V549c0-5,4-9,9-9h126c5,0,9,4,9,9v198c0,5-4,9-9,9H423z"/>
	</g>
	<g>
		<path class="st0" d="M63,504c-5,0-9-4-9-9V297c0-5,4-9,9-9h126c5,0,9,4,9,9v198c0,5-4,9-9,9H63z"/>
		<path class="st0" d="M243,504c-5,0-9-4-9-9V297c0-5,4-9,9-9h126c5,0,9,4,9,9v198c0,5-4,9-9,9H243z"/>
		<path class="st0" d="M423,504c-5,0-9-4-9-9V297c0-5,4-9,9-9h126c5,0,9,4,9,9v198c0,5-4,9-9,9H423z"/>
	</g>
</g>
<g id="Artwork">
</g>
</svg>
