<?xml version="1.0" encoding="utf-8"?>
<!-- Generator: Adobe Illustrator 20.1.0, SVG Export Plug-In . SVG Version: 6.00 Build 0)  -->
<svg version="1.1" id="Layer_3" xmlns="http://www.w3.org/2000/svg" xmlns:xlink="http://www.w3.org/1999/xlink" x="0px" y="0px"
	 viewBox="0 0 792 1224" style="enable-background:new 0 0 792 1224;" xml:space="preserve">
<style type="text/css">
	.st0{fill:none;stroke:#231F20;stroke-width:2;}
</style>
<g>
	<g>
		<rect x="0.5" y="0.5" class="st0" width="791.4" height="1223"/>
		<path class="st0" d="M792.4,1223.5h-0.5v-0.5v0.5H792.4v0.5H0V0h792.4V1223.5L792.4,1223.5z M791.4,1223l0-1222H1v1222H791.4
			L791.4,1223z"/>
	</g>
	<g>
		<g>
			<path class="st0" d="M701.2,1124.6c-30.1,0-54.5-24.4-54.5-54.5l0,0c0-30.1,24.4-54.5,54.5-54.5l0,0c30.1,0,54.5,24.4,54.5,54.5
				l0,0h-0.5h-0.5c0-14.8-6-28.1-15.7-37.8l0,0c-9.7-9.7-23-15.7-37.8-15.7l0,0c-14.8,0-28.1,6-37.8,15.7l0,0
				c-9.7,9.7-15.7,23-15.7,37.8l0,0c0,14.8,6,28.1,15.7,37.8l0,0c9.7,9.7,23,15.7,37.8,15.7l0,0c14.8,0,28.1-6,37.8-15.7l0,0
				c9.7-9.7,15.7-23,15.7-37.8l0,0h0.5h0.5C755.6,1100.2,731.3,1124.6,701.2,1124.6L701.2,1124.6z"/>
		</g>
		<g>
			<path class="st0" d="M701.2,265.3c-30.1,0-54.5-24.4-54.5-54.5l0,0c0-30.1,24.4-54.5,54.5-54.5l0,0c30.1,0,54.5,24.4,54.5,54.5
				l0,0h-0.5h-0.5c0-14.8-6-28.1-15.7-37.8l0,0c-9.7-9.7-23-15.7-37.8-15.7l0,0c-14.8,0-28.1,6-37.8,15.7l0,0
				c-9.7,9.7-15.7,23-15.7,37.8l0,0c0,14.8,6,28.1,15.7,37.8l0,0c9.7,9.7,23,15.7,37.8,15.7l0,0c14.8,0,28.1-6,37.8-15.7l0,0
				c9.7-9.7,15.7-23,15.7-37.8l0,0h0.5h0.5C755.6,240.9,731.3,265.3,701.2,265.3L701.2,265.3z"/>
		</g>
		<g>
			<path class="st0" d="M701.2,408.5c-30.1,0-54.5-24.4-54.5-54.5l0,0c0-30.1,24.4-54.5,54.5-54.5l0,0c30.1,0,54.5,24.4,54.5,54.5
				l0,0h-0.5h-0.5c0-14.8-6-28.1-15.7-37.8l0,0c-9.7-9.7-23-15.7-37.8-15.7l0,0c-14.8,0-28.1,6-37.8,15.7l0,0
				c-9.7,9.7-15.7,23-15.7,37.8l0,0c0,14.8,6,28.1,15.7,37.8l0,0c9.7,9.7,23,15.7,37.8,15.7l0,0c14.8,0,28.1-6,37.8-15.7l0,0
				c9.7-9.7,15.7-23,15.7-37.8l0,0h0.5h0.5C755.6,384.1,731.3,408.5,701.2,408.5L701.2,408.5z"/>
		</g>
		<g>
			<path class="st0" d="M701.2,551.7c-30.1,0-54.5-24.4-54.5-54.5l0,0c0-30.1,24.4-54.5,54.5-54.5l0,0c30.1,0,54.5,24.4,54.5,54.5
				l0,0h-0.5h-0.5c0-14.8-6-28.1-15.7-37.8l0,0c-9.7-9.7-23-15.7-37.8-15.7l0,0c-14.8,0-28.1,6-37.8,15.7l0,0
				c-9.7,9.7-15.7,23-15.7,37.8l0,0c0,14.8,6,28.1,15.7,37.8l0,0c9.7,9.7,23,15.7,37.8,15.7l0,0c14.8,0,28.1-6,37.8-15.7l0,0
				c9.7-9.7,15.7-23,15.7-37.8l0,0h0.5h0.5C755.6,527.3,731.3,551.7,701.2,551.7L701.2,551.7z"/>
		</g>
		<g>
			<path class="st0" d="M701.2,694.9c-30.1,0-54.5-24.4-54.5-54.5l0,0c0-30.1,24.4-54.5,54.5-54.5l0,0c30.1,0,54.5,24.4,54.5,54.5
				l0,0h-0.5h-0.5c0-14.8-6-28.1-15.7-37.8l0,0c-9.7-9.7-23-15.7-37.8-15.7l0,0c-14.8,0-28.1,6-37.8,15.7l0,0
				c-9.7,9.7-15.7,23-15.7,37.8l0,0c0,14.8,6,28.1,15.7,37.8l0,0c9.7,9.7,23,15.7,37.8,15.7l0,0c14.8,0,28.1-6,37.8-15.7l0,0
				c9.7-9.7,15.7-23,15.7-37.8l0,0h0.5h0.5C755.6,670.6,731.3,694.9,701.2,694.9L701.2,694.9z"/>
		</g>
		<g>
			<path class="st0" d="M701.2,838.2c-30.1,0-54.5-24.4-54.5-54.5l0,0c0-30.1,24.4-54.5,54.5-54.5l0,0c30.1,0,54.5,24.4,54.5,54.5
				l0,0h-0.5h-0.5c0-14.8-6-28.1-15.7-37.8l0,0c-9.7-9.7-23-15.7-37.8-15.7l0,0c-14.8,0-28.1,6-37.8,15.7l0,0
				c-9.7,9.7-15.7,23-15.7,37.8l0,0c0,14.8,6,28.1,15.7,37.8l0,0c9.7,9.7,23,15.7,37.8,15.7l0,0c14.8,0,28.1-6,37.8-15.7l0,0
				c9.7-9.7,15.7-23,15.7-37.8l0,0h0.5h0.5C755.6,813.8,731.3,838.2,701.2,838.2L701.2,838.2z"/>
		</g>
		<g>
			<path class="st0" d="M701.2,981.4c-30.1,0-54.5-24.4-54.5-54.5l0,0c0-30.1,24.4-54.5,54.5-54.5l0,0c30.1,0,54.5,24.4,54.5,54.5
				l0,0h-0.5h-0.5c0-14.8-6-28.1-15.7-37.8l0,0c-9.7-9.7-23-15.7-37.8-15.7l0,0c-14.8,0-28.1,6-37.8,15.7l0,0
				c-9.7,9.7-15.7,23-15.7,37.8l0,0c0,14.8,6,28.1,15.7,37.8l0,0c9.7,9.7,23,15.7,37.8,15.7l0,0c14.8,0,28.1-6,37.8-15.7l0,0
				c9.7-9.7,15.7-23,15.7-37.8l0,0h0.5h0.5C755.6,957,731.3,981.4,701.2,981.4L701.2,981.4z"/>
		</g>
	</g>
	<g>
		<g>
			<path class="st0" d="M90.7,1124.6c-30.1,0-54.5-24.4-54.5-54.5l0,0c0-30.1,24.4-54.5,54.5-54.5l0,0c30.1,0,54.5,24.4,54.5,54.5
				l0,0h-0.5h-0.5c0-14.8-6-28.1-15.7-37.8l0,0c-9.7-9.7-23-15.7-37.8-15.7l0,0c-14.8,0-28.1,6-37.8,15.7l0,0
				c-9.7,9.7-15.7,23-15.7,37.8l0,0c0,14.8,6,28.1,15.7,37.8l0,0c9.7,9.7,23,15.7,37.8,15.7l0,0c14.8,0,28.1-6,37.8-15.7l0,0
				c9.7-9.7,15.7-23,15.7-37.8l0,0h0.5h0.5C145.1,1100.2,120.8,1124.6,90.7,1124.6L90.7,1124.6z"/>
		</g>
		<g>
			<path class="st0" d="M90.7,265.3c-30.1,0-54.5-24.4-54.5-54.5l0,0c0-30.1,24.4-54.5,54.5-54.5l0,0c30.1,0,54.5,24.4,54.5,54.5
				l0,0h-0.5h-0.5c0-14.8-6-28.1-15.7-37.8l0,0c-9.7-9.7-23-15.7-37.8-15.7l0,0c-14.8,0-28.1,6-37.8,15.7l0,0
				c-9.7,9.7-15.7,23-15.7,37.8l0,0c0,14.8,6,28.1,15.7,37.8l0,0c9.7,9.7,23,15.7,37.8,15.7l0,0c14.8,0,28.1-6,37.8-15.7l0,0
				c9.7-9.7,15.7-23,15.7-37.8l0,0h0.5h0.5C145.1,240.9,120.8,265.3,90.7,265.3L90.7,265.3z"/>
		</g>
		<g>
			<path class="st0" d="M90.7,408.5c-30.1,0-54.5-24.4-54.5-54.5l0,0c0-30.1,24.4-54.5,54.5-54.5l0,0c30.1,0,54.5,24.4,54.5,54.5
				l0,0h-0.5h-0.5c0-14.8-6-28.1-15.7-37.8l0,0c-9.7-9.7-23-15.7-37.8-15.7l0,0c-14.8,0-28.1,6-37.8,15.7l0,0
				c-9.7,9.7-15.7,23-15.7,37.8l0,0c0,14.8,6,28.1,15.7,37.8l0,0c9.7,9.7,23,15.7,37.8,15.7l0,0c14.8,0,28.1-6,37.8-15.7l0,0
				c9.7-9.7,15.7-23,15.7-37.8l0,0h0.5h0.5C145.1,384.1,120.8,408.5,90.7,408.5L90.7,408.5z"/>
		</g>
		<g>
			<path class="st0" d="M90.7,551.7c-30.1,0-54.5-24.4-54.5-54.5l0,0c0-30.1,24.4-54.5,54.5-54.5l0,0c30.1,0,54.5,24.4,54.5,54.5
				l0,0h-0.5h-0.5c0-14.8-6-28.1-15.7-37.8l0,0c-9.7-9.7-23-15.7-37.8-15.7l0,0c-14.8,0-28.1,6-37.8,15.7l0,0
				c-9.7,9.7-15.7,23-15.7,37.8l0,0c0,14.8,6,28.1,15.7,37.8l0,0c9.7,9.7,23,15.7,37.8,15.7l0,0c14.8,0,28.1-6,37.8-15.7l0,0
				c9.7-9.7,15.7-23,15.7-37.8l0,0h0.5h0.5C145.1,527.3,120.8,551.7,90.7,551.7L90.7,551.7z"/>
		</g>
		<g>
			<path class="st0" d="M90.7,694.9c-30.1,0-54.5-24.4-54.5-54.5l0,0c0-30.1,24.4-54.5,54.5-54.5l0,0c30.1,0,54.5,24.4,54.5,54.5
				l0,0h-0.5h-0.5c0-14.8-6-28.1-15.7-37.8l0,0c-9.7-9.7-23-15.7-37.8-15.7l0,0c-14.8,0-28.1,6-37.8,15.7l0,0
				c-9.7,9.7-15.7,23-15.7,37.8l0,0c0,14.8,6,28.1,15.7,37.8l0,0c9.7,9.7,23,15.7,37.8,15.7l0,0c14.8,0,28.1-6,37.8-15.7l0,0
				c9.7-9.7,15.7-23,15.7-37.8l0,0h0.5h0.5C145.1,670.6,120.8,694.9,90.7,694.9L90.7,694.9z"/>
		</g>
		<g>
			<path class="st0" d="M90.7,838.2c-30.1,0-54.5-24.4-54.5-54.5l0,0c0-30.1,24.4-54.5,54.5-54.5l0,0c30.1,0,54.5,24.4,54.5,54.5
				l0,0h-0.5h-0.5c0-14.8-6-28.1-15.7-37.8l0,0c-9.7-9.7-23-15.7-37.8-15.7l0,0c-14.8,0-28.1,6-37.8,15.7l0,0
				c-9.7,9.7-15.7,23-15.7,37.8l0,0c0,14.8,6,28.1,15.7,37.8l0,0c9.7,9.7,23,15.7,37.8,15.7l0,0c14.8,0,28.1-6,37.8-15.7l0,0
				c9.7-9.7,15.7-23,15.7-37.8l0,0h0.5h0.5C145.1,813.8,120.8,838.2,90.7,838.2L90.7,838.2z"/>
		</g>
		<g>
			<path class="st0" d="M90.7,981.4c-30.1,0-54.5-24.4-54.5-54.5l0,0c0-30.1,24.4-54.5,54.5-54.5l0,0c30.1,0,54.5,24.4,54.5,54.5
				l0,0h-0.5h-0.5c0-14.8-6-28.1-15.7-37.8l0,0c-9.7-9.7-23-15.7-37.8-15.7l0,0c-14.8,0-28.1,6-37.8,15.7l0,0
				c-9.7,9.7-15.7,23-15.7,37.8l0,0c0,14.8,6,28.1,15.7,37.8l0,0c9.7,9.7,23,15.7,37.8,15.7l0,0c14.8,0,28.1-6,37.8-15.7l0,0
				c9.7-9.7,15.7-23,15.7-37.8l0,0h0.5h0.5C145.1,957,120.8,981.4,90.7,981.4L90.7,981.4z"/>
		</g>
	</g>
	<g>
		<g>
			<path class="st0" d="M212.8,1124.6c-30.1,0-54.5-24.4-54.5-54.5l0,0c0-30.1,24.4-54.5,54.5-54.5l0,0c30.1,0,54.5,24.4,54.5,54.5
				l0,0h-0.5h-0.5c0-14.8-6-28.1-15.7-37.8l0,0c-9.7-9.7-23-15.7-37.8-15.7l0,0c-14.8,0-28.1,6-37.8,15.7l0,0
				c-9.7,9.7-15.7,23-15.7,37.8l0,0c0,14.8,6,28.1,15.7,37.8l0,0c9.7,9.7,23,15.7,37.8,15.7l0,0c14.8,0,28.1-6,37.8-15.7l0,0
				c9.7-9.7,15.7-23,15.7-37.8l0,0h0.5h0.5C267.2,1100.2,242.9,1124.6,212.8,1124.6L212.8,1124.6z"/>
		</g>
		<g>
			<path class="st0" d="M212.8,265.3c-30.1,0-54.5-24.4-54.5-54.5l0,0c0-30.1,24.4-54.5,54.5-54.5l0,0c30.1,0,54.5,24.4,54.5,54.5
				l0,0h-0.5h-0.5c0-14.8-6-28.1-15.7-37.8l0,0c-9.7-9.7-23-15.7-37.8-15.7l0,0c-14.8,0-28.1,6-37.8,15.7l0,0
				c-9.7,9.7-15.7,23-15.7,37.8l0,0c0,14.8,6,28.1,15.7,37.8l0,0c9.7,9.7,23,15.7,37.8,15.7l0,0c14.8,0,28.1-6,37.8-15.7l0,0
				c9.7-9.7,15.7-23,15.7-37.8l0,0h0.5h0.5C267.2,240.9,242.9,265.3,212.8,265.3L212.8,265.3z"/>
		</g>
		<g>
			<path class="st0" d="M212.8,408.5c-30.1,0-54.5-24.4-54.5-54.5l0,0c0-30.1,24.4-54.5,54.5-54.5l0,0c30.1,0,54.5,24.4,54.5,54.5
				l0,0h-0.5h-0.5c0-14.8-6-28.1-15.7-37.8l0,0c-9.7-9.7-23-15.7-37.8-15.7l0,0c-14.8,0-28.1,6-37.8,15.7l0,0
				c-9.7,9.7-15.7,23-15.7,37.8l0,0c0,14.8,6,28.1,15.7,37.8l0,0c9.7,9.7,23,15.7,37.8,15.7l0,0c14.8,0,28.1-6,37.8-15.7l0,0
				c9.7-9.7,15.7-23,15.7-37.8l0,0h0.5h0.5C267.2,384.1,242.9,408.5,212.8,408.5L212.8,408.5z"/>
		</g>
		<g>
			<path class="st0" d="M212.8,551.7c-30.1,0-54.5-24.4-54.5-54.5l0,0c0-30.1,24.4-54.5,54.5-54.5l0,0c30.1,0,54.5,24.4,54.5,54.5
				l0,0h-0.5h-0.5c0-14.8-6-28.1-15.7-37.8l0,0c-9.7-9.7-23-15.7-37.8-15.7l0,0c-14.8,0-28.1,6-37.8,15.7l0,0
				c-9.7,9.7-15.7,23-15.7,37.8l0,0c0,14.8,6,28.1,15.7,37.8l0,0c9.7,9.7,23,15.7,37.8,15.7l0,0c14.8,0,28.1-6,37.8-15.7l0,0
				c9.7-9.7,15.7-23,15.7-37.8l0,0h0.5h0.5C267.2,527.3,242.9,551.7,212.8,551.7L212.8,551.7z"/>
		</g>
		<g>
			<path class="st0" d="M212.8,694.9c-30.1,0-54.5-24.4-54.5-54.5l0,0c0-30.1,24.4-54.5,54.5-54.5l0,0c30.1,0,54.5,24.4,54.5,54.5
				l0,0h-0.5h-0.5c0-14.8-6-28.1-15.7-37.8l0,0c-9.7-9.7-23-15.7-37.8-15.7l0,0c-14.8,0-28.1,6-37.8,15.7l0,0
				c-9.7,9.7-15.7,23-15.7,37.8l0,0c0,14.8,6,28.1,15.7,37.8l0,0c9.7,9.7,23,15.7,37.8,15.7l0,0c14.8,0,28.1-6,37.8-15.7l0,0
				c9.7-9.7,15.7-23,15.7-37.8l0,0h0.5h0.5C267.2,670.6,242.9,694.9,212.8,694.9L212.8,694.9z"/>
		</g>
		<g>
			<path class="st0" d="M212.8,838.2c-30.1,0-54.5-24.4-54.5-54.5l0,0c0-30.1,24.4-54.5,54.5-54.5l0,0c30.1,0,54.5,24.4,54.5,54.5
				l0,0h-0.5h-0.5c0-14.8-6-28.1-15.7-37.8l0,0c-9.7-9.7-23-15.7-37.8-15.7l0,0c-14.8,0-28.1,6-37.8,15.7l0,0
				c-9.7,9.7-15.7,23-15.7,37.8l0,0c0,14.8,6,28.1,15.7,37.8l0,0c9.7,9.7,23,15.7,37.8,15.7l0,0c14.8,0,28.1-6,37.8-15.7l0,0
				c9.7-9.7,15.7-23,15.7-37.8l0,0h0.5h0.5C267.2,813.8,242.9,838.2,212.8,838.2L212.8,838.2z"/>
		</g>
		<g>
			<path class="st0" d="M212.8,981.4c-30.1,0-54.5-24.4-54.5-54.5l0,0c0-30.1,24.4-54.5,54.5-54.5l0,0c30.1,0,54.5,24.4,54.5,54.5
				l0,0h-0.5h-0.5c0-14.8-6-28.1-15.7-37.8l0,0c-9.7-9.7-23-15.7-37.8-15.7l0,0c-14.8,0-28.1,6-37.8,15.7l0,0
				c-9.7,9.7-15.7,23-15.7,37.8l0,0c0,14.8,6,28.1,15.7,37.8l0,0c9.7,9.7,23,15.7,37.8,15.7l0,0c14.8,0,28.1-6,37.8-15.7l0,0
				c9.7-9.7,15.7-23,15.7-37.8l0,0h0.5h0.5C267.2,957,242.9,981.4,212.8,981.4L212.8,981.4z"/>
		</g>
	</g>
	<g>
		<g>
			<path class="st0" d="M334.9,1124.6c-30.1,0-54.5-24.4-54.5-54.5l0,0c0-30.1,24.4-54.5,54.5-54.5l0,0c30.1,0,54.5,24.4,54.5,54.5
				l0,0h-0.5h-0.5c0-14.8-6-28.1-15.7-37.8l0,0c-9.7-9.7-23-15.7-37.8-15.7l0,0c-14.8,0-28.1,6-37.8,15.7l0,0
				c-9.7,9.7-15.7,23-15.7,37.8l0,0c0,14.8,6,28.1,15.7,37.8l0,0c9.7,9.7,23,15.7,37.8,15.7l0,0c14.8,0,28.1-6,37.8-15.7l0,0
				c9.7-9.7,15.7-23,15.7-37.8l0,0h0.5h0.5C389.3,1100.2,365,1124.6,334.9,1124.6L334.9,1124.6z"/>
		</g>
		<g>
			<path class="st0" d="M334.9,265.3c-30.1,0-54.5-24.4-54.5-54.5l0,0c0-30.1,24.4-54.5,54.5-54.5l0,0c30.1,0,54.5,24.4,54.5,54.5
				l0,0h-0.5h-0.5c0-14.8-6-28.1-15.7-37.8l0,0c-9.7-9.7-23-15.7-37.8-15.7l0,0c-14.8,0-28.1,6-37.8,15.7l0,0
				c-9.7,9.7-15.7,23-15.7,37.8l0,0c0,14.8,6,28.1,15.7,37.8l0,0c9.7,9.7,23,15.7,37.8,15.7l0,0c14.8,0,28.1-6,37.8-15.7l0,0
				c9.7-9.7,15.7-23,15.7-37.8l0,0h0.5h0.5C389.3,240.9,365,265.3,334.9,265.3L334.9,265.3z"/>
		</g>
		<g>
			<path class="st0" d="M334.9,408.5c-30.1,0-54.5-24.4-54.5-54.5l0,0c0-30.1,24.4-54.5,54.5-54.5l0,0c30.1,0,54.5,24.4,54.5,54.5
				l0,0h-0.5h-0.5c0-14.8-6-28.1-15.7-37.8l0,0c-9.7-9.7-23-15.7-37.8-15.7l0,0c-14.8,0-28.1,6-37.8,15.7l0,0
				c-9.7,9.7-15.7,23-15.7,37.8l0,0c0,14.8,6,28.1,15.7,37.8l0,0c9.7,9.7,23,15.7,37.8,15.7l0,0c14.8,0,28.1-6,37.8-15.7l0,0
				c9.7-9.7,15.7-23,15.7-37.8l0,0h0.5h0.5C389.3,384.1,365,408.5,334.9,408.5L334.9,408.5z"/>
		</g>
		<g>
			<path class="st0" d="M334.9,551.7c-30.1,0-54.5-24.4-54.5-54.5l0,0c0-30.1,24.4-54.5,54.5-54.5l0,0c30.1,0,54.5,24.4,54.5,54.5
				l0,0h-0.5h-0.5c0-14.8-6-28.1-15.7-37.8l0,0c-9.7-9.7-23-15.7-37.8-15.7l0,0c-14.8,0-28.1,6-37.8,15.7l0,0
				c-9.7,9.7-15.7,23-15.7,37.8l0,0c0,14.8,6,28.1,15.7,37.8l0,0c9.7,9.7,23,15.7,37.8,15.7l0,0c14.8,0,28.1-6,37.8-15.7l0,0
				c9.7-9.7,15.7-23,15.7-37.8l0,0h0.5h0.5C389.3,527.3,365,551.7,334.9,551.7L334.9,551.7z"/>
		</g>
		<g>
			<path class="st0" d="M334.9,694.9c-30.1,0-54.5-24.4-54.5-54.5l0,0c0-30.1,24.4-54.5,54.5-54.5l0,0c30.1,0,54.5,24.4,54.5,54.5
				l0,0h-0.5h-0.5c0-14.8-6-28.1-15.7-37.8l0,0c-9.7-9.7-23-15.7-37.8-15.7l0,0c-14.8,0-28.1,6-37.8,15.7l0,0
				c-9.7,9.7-15.7,23-15.7,37.8l0,0c0,14.8,6,28.1,15.7,37.8l0,0c9.7,9.7,23,15.7,37.8,15.7l0,0c14.8,0,28.1-6,37.8-15.7l0,0
				c9.7-9.7,15.7-23,15.7-37.8l0,0h0.5h0.5C389.3,670.6,365,694.9,334.9,694.9L334.9,694.9z"/>
		</g>
		<g>
			<path class="st0" d="M334.9,838.1c-30.1,0-54.5-24.4-54.5-54.5l0,0c0-30.1,24.4-54.5,54.5-54.5l0,0c30.1,0,54.5,24.4,54.5,54.5
				l0,0h-0.5h-0.5c0-14.8-6-28.1-15.7-37.8l0,0c-9.7-9.7-23-15.7-37.8-15.7l0,0c-14.8,0-28.1,6-37.8,15.7l0,0
				c-9.7,9.7-15.7,23-15.7,37.8l0,0c0,14.8,6,28.1,15.7,37.8l0,0c9.7,9.7,23,15.7,37.8,15.7l0,0c14.8,0,28.1-6,37.8-15.7l0,0
				c9.7-9.7,15.7-23,15.7-37.8l0,0h0.5h0.5C389.3,813.8,365,838.1,334.9,838.1L334.9,838.1z"/>
		</g>
		<g>
			<path class="st0" d="M334.9,981.4c-30.1,0-54.5-24.4-54.5-54.5l0,0c0-30.1,24.4-54.5,54.5-54.5l0,0c30.1,0,54.5,24.4,54.5,54.5
				l0,0h-0.5h-0.5c0-14.8-6-28.1-15.7-37.8l0,0c-9.7-9.7-23-15.7-37.8-15.7l0,0c-14.8,0-28.1,6-37.8,15.7l0,0
				c-9.7,9.7-15.7,23-15.7,37.8l0,0c0,14.8,6,28.1,15.7,37.8l0,0c9.7,9.7,23,15.7,37.8,15.7l0,0c14.8,0,28.1-6,37.8-15.7l0,0
				c9.7-9.7,15.7-23,15.7-37.8l0,0h0.5h0.5C389.3,957,365,981.4,334.9,981.4L334.9,981.4z"/>
		</g>
	</g>
	<g>
		<g>
			<path class="st0" d="M457,1124.6c-30.1,0-54.5-24.4-54.5-54.5l0,0c0-30.1,24.4-54.5,54.5-54.5l0,0c30.1,0,54.5,24.4,54.5,54.5
				l0,0h-0.5h-0.5c0-14.8-6-28.1-15.7-37.8l0,0c-9.7-9.7-23-15.7-37.8-15.7l0,0c-14.8,0-28.1,6-37.8,15.7l0,0
				c-9.7,9.7-15.7,23-15.7,37.8l0,0c0,14.8,6,28.1,15.7,37.8l0,0c9.7,9.7,23,15.7,37.8,15.7l0,0c14.8,0,28.1-6,37.8-15.7l0,0
				c9.7-9.7,15.7-23,15.7-37.8l0,0h0.5h0.5C511.4,1100.2,487.1,1124.6,457,1124.6L457,1124.6z"/>
		</g>
		<g>
			<path class="st0" d="M457,265.3c-30.1,0-54.5-24.4-54.5-54.5l0,0c0-30.1,24.4-54.5,54.5-54.5l0,0c30.1,0,54.5,24.4,54.5,54.5l0,0
				h-0.5h-0.5c0-14.8-6-28.1-15.7-37.8l0,0c-9.7-9.7-23-15.7-37.8-15.7l0,0c-14.8,0-28.1,6-37.8,15.7l0,0
				c-9.7,9.7-15.7,23-15.7,37.8l0,0c0,14.8,6,28.1,15.7,37.8l0,0c9.7,9.7,23,15.7,37.8,15.7l0,0c14.8,0,28.1-6,37.8-15.7l0,0
				c9.7-9.7,15.7-23,15.7-37.8l0,0h0.5h0.5C511.4,240.9,487.1,265.3,457,265.3L457,265.3z"/>
		</g>
		<g>
			<path class="st0" d="M457,408.5c-30.1,0-54.5-24.4-54.5-54.5l0,0c0-30.1,24.4-54.5,54.5-54.5l0,0c30.1,0,54.5,24.4,54.5,54.5l0,0
				h-0.5h-0.5c0-14.8-6-28.1-15.7-37.8l0,0c-9.7-9.7-23-15.7-37.8-15.7l0,0c-14.8,0-28.1,6-37.8,15.7l0,0
				c-9.7,9.7-15.7,23-15.7,37.8l0,0c0,14.8,6,28.1,15.7,37.8l0,0c9.7,9.7,23,15.7,37.8,15.7l0,0c14.8,0,28.1-6,37.8-15.7l0,0
				c9.7-9.7,15.7-23,15.7-37.8l0,0h0.5h0.5C511.4,384.1,487.1,408.5,457,408.5L457,408.5z"/>
		</g>
		<g>
			<path class="st0" d="M457,551.7c-30.1,0-54.5-24.4-54.5-54.5l0,0c0-30.1,24.4-54.5,54.5-54.5l0,0c30.1,0,54.5,24.4,54.5,54.5l0,0
				h-0.5h-0.5c0-14.8-6-28.1-15.7-37.8l0,0c-9.7-9.7-23-15.7-37.8-15.7l0,0c-14.8,0-28.1,6-37.8,15.7l0,0
				c-9.7,9.7-15.7,23-15.7,37.8l0,0c0,14.8,6,28.1,15.7,37.8l0,0c9.7,9.7,23,15.7,37.8,15.7l0,0c14.8,0,28.1-6,37.8-15.7l0,0
				c9.7-9.7,15.7-23,15.7-37.8l0,0h0.5h0.5C511.4,527.3,487.1,551.7,457,551.7L457,551.7z"/>
		</g>
		<g>
			<path class="st0" d="M457,694.9c-30.1,0-54.5-24.4-54.5-54.5l0,0c0-30.1,24.4-54.5,54.5-54.5l0,0c30.1,0,54.5,24.4,54.5,54.5l0,0
				h-0.5h-0.5c0-14.8-6-28.1-15.7-37.8l0,0c-9.7-9.7-23-15.7-37.8-15.7l0,0c-14.8,0-28.1,6-37.8,15.7l0,0
				c-9.7,9.7-15.7,23-15.7,37.8l0,0c0,14.8,6,28.1,15.7,37.8l0,0c9.7,9.7,23,15.7,37.8,15.7l0,0c14.8,0,28.1-6,37.8-15.7l0,0
				c9.7-9.7,15.7-23,15.7-37.8l0,0h0.5h0.5C511.4,670.6,487.1,694.9,457,694.9L457,694.9z"/>
		</g>
		<g>
			<path class="st0" d="M457,838.2c-30.1,0-54.5-24.4-54.5-54.5l0,0c0-30.1,24.4-54.5,54.5-54.5l0,0c30.1,0,54.5,24.4,54.5,54.5l0,0
				h-0.5h-0.5c0-14.8-6-28.1-15.7-37.8l0,0c-9.7-9.7-23-15.7-37.8-15.7l0,0c-14.8,0-28.1,6-37.8,15.7l0,0
				c-9.7,9.7-15.7,23-15.7,37.8l0,0c0,14.8,6,28.1,15.7,37.8l0,0c9.7,9.7,23,15.7,37.8,15.7l0,0c14.8,0,28.1-6,37.8-15.7l0,0
				c9.7-9.7,15.7-23,15.7-37.8l0,0h0.5h0.5C511.4,813.8,487.1,838.1,457,838.2L457,838.2z"/>
		</g>
		<g>
			<path class="st0" d="M457,981.4c-30.1,0-54.5-24.4-54.5-54.5l0,0c0-30.1,24.4-54.5,54.5-54.5l0,0c30.1,0,54.5,24.4,54.5,54.5l0,0
				h-0.5h-0.5c0-14.8-6-28.1-15.7-37.8l0,0c-9.7-9.7-23-15.7-37.8-15.7l0,0c-14.8,0-28.1,6-37.8,15.7l0,0
				c-9.7,9.7-15.7,23-15.7,37.8l0,0c0,14.8,6,28.1,15.7,37.8l0,0c9.7,9.7,23,15.7,37.8,15.7l0,0c14.8,0,28.1-6,37.8-15.7l0,0
				c9.7-9.7,15.7-23,15.7-37.8l0,0h0.5h0.5C511.4,957,487.1,981.4,457,981.4L457,981.4z"/>
		</g>
	</g>
	<g>
		<g>
			<path class="st0" d="M579.1,1124.6c-30.1,0-54.5-24.4-54.5-54.5l0,0c0-30.1,24.4-54.5,54.5-54.5l0,0c30.1,0,54.5,24.4,54.5,54.5
				l0,0H633h-0.5c0-14.8-6-28.1-15.7-37.8l0,0c-9.7-9.7-23-15.7-37.8-15.7l0,0c-14.8,0-28.1,6-37.8,15.7l0,0
				c-9.7,9.7-15.7,23-15.7,37.8l0,0c0,14.8,6,28.1,15.7,37.8l0,0c9.7,9.7,23,15.7,37.8,15.7l0,0c14.8,0,28.1-6,37.8-15.7l0,0
				c9.7-9.7,15.7-23,15.7-37.8l0,0h0.5h0.5C633.5,1100.2,609.2,1124.6,579.1,1124.6L579.1,1124.6z"/>
		</g>
		<g>
			<path class="st0" d="M579.1,265.3c-30.1,0-54.5-24.4-54.5-54.5l0,0c0-30.1,24.4-54.5,54.5-54.5l0,0c30.1,0,54.5,24.4,54.5,54.5
				l0,0H633h-0.5c0-14.8-6-28.1-15.7-37.8l0,0c-9.7-9.7-23-15.7-37.8-15.7l0,0c-14.8,0-28.1,6-37.8,15.7l0,0
				c-9.7,9.7-15.7,23-15.7,37.8l0,0c0,14.8,6,28.1,15.7,37.8l0,0c9.7,9.7,23,15.7,37.8,15.7l0,0c14.8,0,28.1-6,37.8-15.7l0,0
				c9.7-9.7,15.7-23,15.7-37.8l0,0h0.5h0.5C633.5,240.9,609.2,265.3,579.1,265.3L579.1,265.3z"/>
		</g>
		<g>
			<path class="st0" d="M579.1,408.5c-30.1,0-54.5-24.4-54.5-54.5l0,0c0-30.1,24.4-54.5,54.5-54.5l0,0c30.1,0,54.5,24.4,54.5,54.5
				l0,0H633h-0.5c0-14.8-6-28.1-15.7-37.8l0,0c-9.7-9.7-23-15.7-37.8-15.7l0,0c-14.8,0-28.1,6-37.8,15.7l0,0
				c-9.7,9.7-15.7,23-15.7,37.8l0,0c0,14.8,6,28.1,15.7,37.8l0,0c9.7,9.7,23,15.7,37.8,15.7l0,0c14.8,0,28.1-6,37.8-15.7l0,0
				c9.7-9.7,15.7-23,15.7-37.8l0,0h0.5h0.5C633.5,384.1,609.2,408.5,579.1,408.5L579.1,408.5z"/>
		</g>
		<g>
			<path class="st0" d="M579.1,551.7c-30.1,0-54.5-24.4-54.5-54.5l0,0c0-30.1,24.4-54.5,54.5-54.5l0,0c30.1,0,54.5,24.4,54.5,54.5
				l0,0H633h-0.5c0-14.8-6-28.1-15.7-37.8l0,0c-9.7-9.7-23-15.7-37.8-15.7l0,0c-14.8,0-28.1,6-37.8,15.7l0,0
				c-9.7,9.7-15.7,23-15.7,37.8l0,0c0,14.8,6,28.1,15.7,37.8l0,0c9.7,9.7,23,15.7,37.8,15.7l0,0c14.8,0,28.1-6,37.8-15.7l0,0
				c9.7-9.7,15.7-23,15.7-37.8l0,0h0.5h0.5C633.5,527.3,609.2,551.7,579.1,551.7L579.1,551.7z"/>
		</g>
		<g>
			<path class="st0" d="M579.1,694.9c-30.1,0-54.5-24.4-54.5-54.5l0,0c0-30.1,24.4-54.5,54.5-54.5l0,0c30.1,0,54.5,24.4,54.5,54.5
				l0,0H633h-0.5c0-14.8-6-28.1-15.7-37.8l0,0c-9.7-9.7-23-15.7-37.8-15.7l0,0c-14.8,0-28.1,6-37.8,15.7l0,0
				c-9.7,9.7-15.7,23-15.7,37.8l0,0c0,14.8,6,28.1,15.7,37.8l0,0c9.7,9.7,23,15.7,37.8,15.7l0,0c14.8,0,28.1-6,37.8-15.7l0,0
				c9.7-9.7,15.7-23,15.7-37.8l0,0h0.5h0.5C633.5,670.6,609.2,694.9,579.1,694.9L579.1,694.9z"/>
		</g>
		<g>
			<path class="st0" d="M579.1,838.1c-30.1,0-54.5-24.4-54.5-54.5l0,0c0-30.1,24.4-54.5,54.5-54.5l0,0c30.1,0,54.5,24.4,54.5,54.5
				l0,0H633h-0.5c0-14.8-6-28.1-15.7-37.8l0,0c-9.7-9.7-23-15.7-37.8-15.7l0,0c-14.8,0-28.1,6-37.8,15.7l0,0
				c-9.7,9.7-15.7,23-15.7,37.8l0,0c0,14.8,6,28.1,15.7,37.8l0,0c9.7,9.7,23,15.7,37.8,15.7l0,0c14.8,0,28.1-6,37.8-15.7l0,0
				c9.7-9.7,15.7-23,15.7-37.8l0,0h0.5h0.5C633.5,813.8,609.2,838.1,579.1,838.1L579.1,838.1z"/>
		</g>
		<g>
			<path class="st0" d="M579.1,981.4c-30.1,0-54.5-24.4-54.5-54.5l0,0c0-30.1,24.4-54.5,54.5-54.5l0,0c30.1,0,54.5,24.4,54.5,54.5
				l0,0H633h-0.5c0-14.8-6-28.1-15.7-37.8l0,0c-9.7-9.7-23-15.7-37.8-15.7l0,0c-14.8,0-28.1,6-37.8,15.7l0,0
				c-9.7,9.7-15.7,23-15.7,37.8l0,0c0,14.8,6,28.1,15.7,37.8l0,0c9.7,9.7,23,15.7,37.8,15.7l0,0c14.8,0,28.1-6,37.8-15.7l0,0
				c9.7-9.7,15.7-23,15.7-37.8l0,0h0.5h0.5C633.5,957,609.2,981.4,579.1,981.4L579.1,981.4z"/>
		</g>
	</g>
</g>
</svg>
