<?xml version="1.0" encoding="utf-8"?>
<!-- Generator: Adobe Illustrator 20.1.0, SVG Export Plug-In . SVG Version: 6.00 Build 0)  -->
<svg version="1.1" id="Layer_1" xmlns="http://www.w3.org/2000/svg" xmlns:xlink="http://www.w3.org/1999/xlink" x="0px" y="0px"
	 viewBox="0 0 792 1224" style="enable-background:new 0 0 792 1224;" xml:space="preserve">
<style type="text/css">
	.st0{fill:#EC008C;stroke:#000000;stroke-width:2;}
	.st1{fill:none;stroke:#000000;stroke-width:2;}
</style>
<g>
	<g>
		<path class="st0" d="M738.1,1145.9c0,3.2-2.3,5.8-5,5.8H527.1c-2.8,0-5-2.6-5-5.8V77.6c0-3.2,2.3-5.8,5-5.8H733c2.8,0,5,2.6,5,5.8
			V1145.9 M737.3,1145.9V77.6c0-2.8-1.9-5.1-4.3-5.1H527.1c-2.4,0-4.3,2.3-4.3,5.1v1068.4c0,2.8,1.9,5.1,4.3,5.1H733
			C735.4,1151,737.3,1148.7,737.3,1145.9"/>
		<path class="st0" d="M269.9,1146.4c0,3.2-2.3,5.8-5,5.8H59c-2.8,0-5-2.6-5-5.8V78.1c0-3.2,2.3-5.8,5-5.8h205.9c2.8,0,5,2.6,5,5.8
			V1146.4 M269.2,1146.4V78.1c0-2.8-1.9-5.1-4.3-5.1H59c-2.4,0-4.3,2.3-4.3,5.1v1068.4c0,2.8,1.9,5.1,4.3,5.1h205.9
			C267.3,1151.5,269.2,1149.2,269.2,1146.4"/>
		<path class="st0" d="M504.1,1146c0,3.2-2.3,5.8-5,5.8H293.2c-2.8,0-5-2.6-5-5.8V77.6c0-3.2,2.3-5.8,5-5.8h205.9c2.8,0,5,2.6,5,5.8
			V1146 M503.4,1146V77.6c0-2.8-1.9-5.1-4.3-5.1H293.2c-2.4,0-4.3,2.3-4.3,5.1V1146c0,2.8,1.9,5.1,4.3,5.1h205.9
			C501.5,1151,503.4,1148.8,503.4,1146"/>
	</g>
	<rect class="st1" width="792" height="1224"/>
</g>
</svg>
