<?xml version="1.0" encoding="utf-8"?>
<!-- Generator: Adobe Illustrator 20.1.0, SVG Export Plug-In . SVG Version: 6.00 Build 0)  -->
<svg version="1.1" id="Layer_1" xmlns="http://www.w3.org/2000/svg" xmlns:xlink="http://www.w3.org/1999/xlink" x="0px" y="0px"
	 viewBox="0 0 792 1224" style="enable-background:new 0 0 792 1224;" xml:space="preserve">
<style type="text/css">
	.st0{fill:none;stroke:#000000;stroke-width:2;}
</style>
<path class="st0" d="M41,251.1c-2.8,0-5-2.3-5-5V40.1c0-2.8,2.3-5,5-5h709.9c2.8,0,5,2.3,5,5V246c0,2.8-2.3,5-5,5H41z"/>
<path class="st0" d="M41.2,486.2c-2.8,0-5-2.3-5-5V275.2c0-2.8,2.3-5,5-5h709.9c2.8,0,5,2.3,5,5v205.9c0,2.8-2.3,5-5,5H41.2z"/>
<path class="st0" d="M41,721.9c-2.8,0-5-2.3-5-5V511c0-2.8,2.3-5,5-5h709.9c2.8,0,5,2.3,5,5v205.9c0,2.8-2.3,5-5,5L41,721.9z"/>
<path class="st0" d="M40.9,956c-2.8,0-5-2.3-5-5V745c0-2.8,2.3-5,5-5h709.9c2.8,0,5,2.3,5,5V951c0,2.8-2.3,5-5,5H40.9z"/>
<path class="st0" d="M40.9,1190.9c-2.8,0-5-2.3-5-5V980c0-2.8,2.3-5,5-5h709.9c2.8,0,5,2.3,5,5v205.9c0,2.8-2.3,5-5,5H40.9z"/>
<rect y="1" class="st0" width="792" height="1224"/>
</svg>
