<?xml version="1.0" encoding="utf-8"?>
<!-- Generator: Adobe Illustrator 21.1.0, SVG Export Plug-In . SVG Version: 6.00 Build 0)  -->
<svg version="1.1" id="Template" xmlns="http://www.w3.org/2000/svg" xmlns:xlink="http://www.w3.org/1999/xlink" x="0px" y="0px"
	 viewBox="0 0 614 794" style="enable-background:new 0 0 614 794;" xml:space="preserve">
<style type="text/css">
	.st0{fill:none;stroke:#231F20;stroke-width:2;}
</style>
<title>SL939</title>
<rect x="1" y="1" class="st0" width="612" height="792"/>
<circle class="st0" cx="88.3" cy="105.4" r="68.4"/>
<circle class="st0" cx="234.1" cy="105.4" r="68.4"/>
<circle class="st0" cx="379.9" cy="105.4" r="68.4"/>
<circle class="st0" cx="525.7" cy="105.4" r="68.4"/>
<circle class="st0" cx="88.3" cy="251.2" r="68.4"/>
<circle class="st0" cx="234.1" cy="251.2" r="68.4"/>
<circle class="st0" cx="379.9" cy="251.2" r="68.4"/>
<circle class="st0" cx="525.7" cy="251.2" r="68.4"/>
<circle class="st0" cx="88.3" cy="397" r="68.4"/>
<circle class="st0" cx="234.1" cy="397" r="68.4"/>
<circle class="st0" cx="379.9" cy="397" r="68.4"/>
<circle class="st0" cx="525.7" cy="397" r="68.4"/>
<circle class="st0" cx="88.3" cy="542.8" r="68.4"/>
<circle class="st0" cx="234.1" cy="542.8" r="68.4"/>
<circle class="st0" cx="379.9" cy="542.8" r="68.4"/>
<circle class="st0" cx="525.7" cy="542.8" r="68.4"/>
<circle class="st0" cx="88.3" cy="688.6" r="68.4"/>
<circle class="st0" cx="234.1" cy="688.6" r="68.4"/>
<circle class="st0" cx="379.9" cy="688.6" r="68.4"/>
<circle class="st0" cx="525.7" cy="688.6" r="68.4"/>
</svg>
