<?xml version="1.0" encoding="utf-8"?>
<!-- Generator: Adobe Illustrator 21.1.0, SVG Export Plug-In . SVG Version: 6.00 Build 0)  -->
<svg version="1.1" id="Template" xmlns="http://www.w3.org/2000/svg" xmlns:xlink="http://www.w3.org/1999/xlink" x="0px" y="0px"
	 viewBox="0 0 614 794" style="enable-background:new 0 0 614 794;" xml:space="preserve">
<style type="text/css">
	.st0{fill:none;stroke:#231F20;stroke-width:2;stroke-miterlimit:2.61;}
	.st1{fill:none;stroke:#231F20;stroke-width:2;stroke-miterlimit:10;}
</style>
<title>SL973</title>
<path class="st0" d="M32,30.8h262c7.1,0,13,5.5,13,12.2v335.6c0,6.7-5.8,12.2-13,12.2H32c-7.1,0-13-5.5-13-12.2V43
	C19,36.3,24.8,30.8,32,30.8L32,30.8z"/>
<path class="st0" d="M320,30.8h262c7.1,0,13,5.5,13,12.2v335.6c0,6.7-5.8,12.2-13,12.2H320c-7.1,0-13-5.5-13-12.2V43
	C307,36.3,312.8,30.8,320,30.8L320,30.8z"/>
<path class="st0" d="M32,403.2h262c7.1,0,13,5.5,13,12.2V751c0,6.7-5.8,12.2-13,12.2H32c-7.1,0-13-5.5-13-12.2V415.5
	C19,408.7,24.8,403.2,32,403.2L32,403.2z"/>
<path class="st0" d="M320,403.2h262c7.1,0,13,5.5,13,12.2V751c0,6.7-5.8,12.2-13,12.2H320c-7.1,0-13-5.5-13-12.2V415.5
	C307,408.7,312.8,403.2,320,403.2L320,403.2z"/>
<rect x="1" y="1" class="st1" width="612" height="792"/>
</svg>
