<?xml version="1.0" encoding="utf-8"?>
<!-- Generator: Adobe Illustrator 20.1.0, SVG Export Plug-In . SVG Version: 6.00 Build 0)  -->
<svg version="1.1" id="Layer_1" xmlns="http://www.w3.org/2000/svg" xmlns:xlink="http://www.w3.org/1999/xlink" x="0px" y="0px"
	 viewBox="0 0 612 792" style="enable-background:new 0 0 612 792;" xml:space="preserve">
<style type="text/css">
	.st0{fill:none;stroke:#000000;stroke-width:2;stroke-miterlimit:10;}
</style>
<path class="st0" d="M84.7,65.3h205.3c4.2,0,7.6,2.7,7.6,6v120.4c0,3.3-3.4,6-7.6,6H84.7c-4.2,0-7.6-2.7-7.6-6V71.2
	C77,67.9,80.5,65.3,84.7,65.3z"/>
<path class="st0" d="M322.1,594.5h205.3c4.2,0,7.6,2.7,7.6,6v120.4c0,3.3-3.4,6-7.6,6H322.1c-4.2,0-7.6-2.7-7.6-6V600.4
	C314.5,597.1,317.9,594.5,322.1,594.5z"/>
<path class="st0" d="M84.7,594.5h205.3c4.2,0,7.6,2.7,7.6,6v120.4c0,3.3-3.4,6-7.6,6H84.7c-4.2,0-7.6-2.7-7.6-6V600.4
	C77,597.1,80.5,594.5,84.7,594.5z"/>
<path class="st0" d="M322.1,65.3h205.3c4.2,0,7.6,2.7,7.6,6v120.4c0,3.3-3.4,6-7.6,6H322.1c-4.2,0-7.6-2.7-7.6-6V71.2
	C314.5,67.9,317.9,65.3,322.1,65.3z"/>
<path class="st0" d="M84.7,197.6h205.3c4.2,0,7.6,2.7,7.6,6v120.4c0,3.3-3.4,6-7.6,6H84.7c-4.2,0-7.6-2.7-7.6-6V203.5
	C77,200.2,80.5,197.6,84.7,197.6z"/>
<path class="st0" d="M84.7,329.9h205.3c4.2,0,7.6,2.7,7.6,6v120.4c0,3.3-3.4,6-7.6,6H84.7c-4.2,0-7.6-2.7-7.6-6V335.8
	C77,332.5,80.5,329.9,84.7,329.9z"/>
<path class="st0" d="M84.7,462.2h205.3c4.2,0,7.6,2.7,7.6,6v120.4c0,3.3-3.4,6-7.6,6H84.7c-4.2,0-7.6-2.7-7.6-6V468.1
	C77,464.8,80.5,462.2,84.7,462.2z"/>
<path class="st0" d="M322.1,197.6h205.3c4.2,0,7.6,2.7,7.6,6v120.4c0,3.3-3.4,6-7.6,6H322.1c-4.2,0-7.6-2.7-7.6-6V203.5
	C314.5,200.2,317.9,197.6,322.1,197.6z"/>
<path class="st0" d="M322.1,329.9h205.3c4.2,0,7.6,2.7,7.6,6v120.4c0,3.3-3.4,6-7.6,6H322.1c-4.2,0-7.6-2.7-7.6-6V335.8
	C314.5,332.5,317.9,329.9,322.1,329.9z"/>
<path class="st0" d="M322.1,462.2h205.3c4.2,0,7.6,2.7,7.6,6v120.4c0,3.3-3.4,6-7.6,6H322.1c-4.2,0-7.6-2.7-7.6-6V468.1
	C314.5,464.8,317.9,462.2,322.1,462.2z"/>
<rect class="st0" width="612" height="792"/>
</svg>
