<?xml version="1.0" encoding="utf-8"?>
<!-- Generator: Adobe Illustrator 20.1.0, SVG Export Plug-In . SVG Version: 6.00 Build 0)  -->
<svg version="1.1" id="Layer_1" xmlns="http://www.w3.org/2000/svg" xmlns:xlink="http://www.w3.org/1999/xlink" x="0px" y="0px"
	 viewBox="0 0 612 792" style="enable-background:new 0 0 612 792;" xml:space="preserve">
<style type="text/css">
	.st0{fill:none;stroke:#000000;stroke-width:2;stroke-miterlimit:10;}
</style>
<path class="st0" d="M306.4,49.5c90.7,0,164.7,74,164.7,164.7s-74,164.7-164.7,164.7c-90.7,0-164.7-74-164.7-164.7
	S215.7,49.5,306.4,49.5z"/>
<path class="st0" d="M306.4,155.7c32.2,0,58.5,26.3,58.5,58.5c0,32.2-26.3,58.5-58.5,58.5c-32.2,0-58.5-26.3-58.5-58.5
	C247.9,182,274.2,155.7,306.4,155.7z"/>
<path class="st0" d="M306.4,413.1c90.7,0,164.7,74,164.7,164.7s-74,164.7-164.7,164.7c-90.7,0-164.7-74-164.7-164.7
	S215.7,413.1,306.4,413.1z"/>
<path class="st0" d="M306.4,519.3c32.2,0,58.5,26.3,58.5,58.5c0,32.2-26.3,58.5-58.5,58.5c-32.2,0-58.5-26.3-58.5-58.5
	C247.9,545.6,274.2,519.3,306.4,519.3z"/>
<path class="st0" d="M56.9,282.6h66.2c1.6,0,2.9,3.9,2.9,8.6v209.5c0,4.7-1.3,8.6-2.9,8.6H56.9c-1.6,0-2.9-3.9-2.9-8.6V291.2
	C54,286.5,55.3,282.6,56.9,282.6z"/>
<path class="st0" d="M488.9,282.6h66.2c1.6,0,2.9,3.9,2.9,8.6v209.5c0,4.7-1.3,8.6-2.9,8.6h-66.2c-1.6,0-2.9-3.9-2.9-8.6V291.2
	C486,286.5,487.3,282.6,488.9,282.6z"/>
<rect class="st0" width="612" height="792"/>
</svg>
