<?xml version="1.0" encoding="utf-8"?>
<!-- Generator: Adobe Illustrator 20.1.0, SVG Export Plug-In . SVG Version: 6.00 Build 0)  -->
<svg version="1.1" id="Layer_1" xmlns="http://www.w3.org/2000/svg" xmlns:xlink="http://www.w3.org/1999/xlink" x="0px" y="0px"
	 viewBox="0 0 612 792" style="enable-background:new 0 0 612 792;" xml:space="preserve">
<style type="text/css">
	.st0{fill:none;stroke:#000000;stroke-width:2;stroke-miterlimit:10;}
</style>
<path class="st0" d="M106.3,708h399.5c5.8,0,10.5,1.2,10.5,2.6v42.7c0,1.5-4.7,2.6-10.5,2.6H106.3c-5.8,0-10.5-1.2-10.5-2.6v-42.7
	C95.8,709.2,100.5,708,106.3,708z"/>
<path class="st0" d="M106.3,36h399.5c5.8,0,10.5,1.2,10.5,2.6v42.7c0,1.5-4.7,2.6-10.5,2.6H106.3c-5.8,0-10.5-1.2-10.5-2.6V38.6
	C95.8,37.2,100.5,36,106.3,36z"/>
<path class="st0" d="M106.3,660h399.5c5.8,0,10.5,1.2,10.5,2.6v42.7c0,1.5-4.7,2.6-10.5,2.6H106.3c-5.8,0-10.5-1.2-10.5-2.6v-42.7
	C95.8,661.2,100.5,660,106.3,660z"/>
<path class="st0" d="M106.3,612h399.5c5.8,0,10.5,1.2,10.5,2.6v42.7c0,1.5-4.7,2.6-10.5,2.6H106.3c-5.8,0-10.5-1.2-10.5-2.6v-42.7
	C95.8,613.2,100.5,612,106.3,612z"/>
<path class="st0" d="M106.3,564h399.5c5.8,0,10.5,1.2,10.5,2.6v42.7c0,1.5-4.7,2.6-10.5,2.6H106.3c-5.8,0-10.5-1.2-10.5-2.6v-42.7
	C95.8,565.2,100.5,564,106.3,564z"/>
<path class="st0" d="M106.3,516h399.5c5.8,0,10.5,1.2,10.5,2.6v42.7c0,1.5-4.7,2.6-10.5,2.6H106.3c-5.8,0-10.5-1.2-10.5-2.6v-42.7
	C95.8,517.2,100.5,516,106.3,516z"/>
<path class="st0" d="M106.3,468h399.5c5.8,0,10.5,1.2,10.5,2.6v42.7c0,1.5-4.7,2.6-10.5,2.6H106.3c-5.8,0-10.5-1.2-10.5-2.6v-42.7
	C95.8,469.2,100.5,468,106.3,468z"/>
<path class="st0" d="M106.3,420h399.5c5.8,0,10.5,1.2,10.5,2.6v42.7c0,1.5-4.7,2.6-10.5,2.6H106.3c-5.8,0-10.5-1.2-10.5-2.6v-42.7
	C95.8,421.2,100.5,420,106.3,420z"/>
<path class="st0" d="M106.3,372h399.5c5.8,0,10.5,1.2,10.5,2.6v42.7c0,1.5-4.7,2.6-10.5,2.6H106.3c-5.8,0-10.5-1.2-10.5-2.6v-42.7
	C95.8,373.2,100.5,372,106.3,372z"/>
<path class="st0" d="M106.3,324h399.5c5.8,0,10.5,1.2,10.5,2.6v42.7c0,1.5-4.7,2.6-10.5,2.6H106.3c-5.8,0-10.5-1.2-10.5-2.6v-42.7
	C95.8,325.2,100.5,324,106.3,324z"/>
<path class="st0" d="M106.3,276h399.5c5.8,0,10.5,1.2,10.5,2.6v42.7c0,1.5-4.7,2.6-10.5,2.6H106.3c-5.8,0-10.5-1.2-10.5-2.6v-42.7
	C95.8,277.2,100.5,276,106.3,276z"/>
<path class="st0" d="M106.3,228h399.5c5.8,0,10.5,1.2,10.5,2.6v42.7c0,1.5-4.7,2.6-10.5,2.6H106.3c-5.8,0-10.5-1.2-10.5-2.6v-42.7
	C95.8,229.2,100.5,228,106.3,228z"/>
<path class="st0" d="M106.3,180h399.5c5.8,0,10.5,1.2,10.5,2.6v42.7c0,1.5-4.7,2.6-10.5,2.6H106.3c-5.8,0-10.5-1.2-10.5-2.6v-42.7
	C95.8,181.2,100.5,180,106.3,180z"/>
<path class="st0" d="M106.3,132h399.5c5.8,0,10.5,1.2,10.5,2.6v42.7c0,1.5-4.7,2.6-10.5,2.6H106.3c-5.8,0-10.5-1.2-10.5-2.6v-42.7
	C95.8,133.2,100.5,132,106.3,132z"/>
<path class="st0" d="M106.3,84h399.5c5.8,0,10.5,1.2,10.5,2.6v42.7c0,1.5-4.7,2.6-10.5,2.6H106.3c-5.8,0-10.5-1.2-10.5-2.6V86.6
	C95.8,85.2,100.5,84,106.3,84z"/>
<rect class="st0" width="612" height="792"/>
</svg>
