<?xml version="1.0" encoding="utf-8"?>
<!-- Generator: Adobe Illustrator 20.1.0, SVG Export Plug-In . SVG Version: 6.00 Build 0)  -->
<svg version="1.1" id="Layer_1" xmlns="http://www.w3.org/2000/svg" xmlns:xlink="http://www.w3.org/1999/xlink" x="0px" y="0px"
	 viewBox="0 0 612 792" style="enable-background:new 0 0 612 792;" xml:space="preserve">
<style type="text/css">
	.st0{fill:none;stroke:#000000;stroke-width:2;stroke-miterlimit:10;}
</style>
<path class="st0" d="M110.5,209.3c31.1,0,56.5,25.4,56.5,56.5c0,31.1-25.4,56.5-56.5,56.5S54,297,54,265.9
	C54,234.7,79.4,209.3,110.5,209.3z"/>
<path class="st0" d="M110.5,244.5c11.8,0,21.4,9.6,21.4,21.4c0,11.8-9.6,21.4-21.4,21.4s-21.4-9.6-21.4-21.4
	C89.1,254.1,98.7,244.5,110.5,244.5z"/>
<path class="st0" d="M110.5,339.5c31.1,0,56.5,25.4,56.5,56.5s-25.4,56.5-56.5,56.5S54,427.1,54,396S79.4,339.5,110.5,339.5z"/>
<path class="st0" d="M110.5,374.6c11.8,0,21.4,9.6,21.4,21.4s-9.6,21.4-21.4,21.4s-21.4-9.6-21.4-21.4S98.7,374.6,110.5,374.6z"/>
<path class="st0" d="M110.5,469.6c31.1,0,56.5,25.4,56.5,56.5c0,31.1-25.4,56.5-56.5,56.5S54,557.3,54,526.1
	C54,495,79.4,469.6,110.5,469.6z"/>
<path class="st0" d="M110.5,504.8c11.8,0,21.4,9.6,21.4,21.4s-9.6,21.4-21.4,21.4s-21.4-9.6-21.4-21.4S98.7,504.8,110.5,504.8z"/>
<path class="st0" d="M110.5,79.2c31.1,0,56.5,25.4,56.5,56.5c0,31.1-25.4,56.5-56.5,56.5S54,166.9,54,135.7
	C54,104.6,79.4,79.2,110.5,79.2z"/>
<path class="st0" d="M110.5,114.3c11.8,0,21.4,9.6,21.4,21.4c0,11.8-9.6,21.4-21.4,21.4s-21.4-9.6-21.4-21.4
	C89.1,123.9,98.7,114.3,110.5,114.3z"/>
<path class="st0" d="M110.5,599.8c31.1,0,56.5,25.4,56.5,56.5c0,31.1-25.4,56.5-56.5,56.5S54,687.4,54,656.3
	C54,625.1,79.4,599.8,110.5,599.8z"/>
<path class="st0" d="M110.5,634.9c11.8,0,21.4,9.6,21.4,21.4c0,11.8-9.6,21.4-21.4,21.4s-21.4-9.6-21.4-21.4
	C89.1,644.5,98.7,634.9,110.5,634.9z"/>
<path class="st0" d="M240.8,209.3c31.1,0,56.5,25.4,56.5,56.5c0,31.1-25.4,56.5-56.5,56.5s-56.5-25.4-56.5-56.5
	C184.3,234.7,209.7,209.3,240.8,209.3z"/>
<path class="st0" d="M240.8,244.5c11.8,0,21.4,9.6,21.4,21.4c0,11.8-9.6,21.4-21.4,21.4s-21.4-9.6-21.4-21.4
	C219.5,254.1,229.1,244.5,240.8,244.5z"/>
<path class="st0" d="M240.8,339.5c31.1,0,56.5,25.4,56.5,56.5s-25.4,56.5-56.5,56.5s-56.5-25.4-56.5-56.5S209.7,339.5,240.8,339.5z"
	/>
<path class="st0" d="M240.8,374.6c11.8,0,21.4,9.6,21.4,21.4s-9.6,21.4-21.4,21.4s-21.4-9.6-21.4-21.4S229.1,374.6,240.8,374.6z"/>
<path class="st0" d="M240.8,469.6c31.1,0,56.5,25.4,56.5,56.5c0,31.1-25.4,56.5-56.5,56.5s-56.5-25.4-56.5-56.5
	C184.3,495,209.7,469.6,240.8,469.6z"/>
<path class="st0" d="M240.8,504.8c11.8,0,21.4,9.6,21.4,21.4s-9.6,21.4-21.4,21.4s-21.4-9.6-21.4-21.4S229.1,504.8,240.8,504.8z"/>
<path class="st0" d="M240.8,79.2c31.1,0,56.5,25.4,56.5,56.5c0,31.1-25.4,56.5-56.5,56.5s-56.5-25.4-56.5-56.5
	C184.3,104.6,209.7,79.2,240.8,79.2z"/>
<path class="st0" d="M240.8,114.3c11.8,0,21.4,9.6,21.4,21.4c0,11.8-9.6,21.4-21.4,21.4s-21.4-9.6-21.4-21.4
	C219.5,123.9,229.1,114.3,240.8,114.3z"/>
<path class="st0" d="M240.8,599.8c31.1,0,56.5,25.4,56.5,56.5c0,31.1-25.4,56.5-56.5,56.5s-56.5-25.4-56.5-56.5
	C184.3,625.1,209.7,599.8,240.8,599.8z"/>
<path class="st0" d="M240.8,634.9c11.8,0,21.4,9.6,21.4,21.4c0,11.8-9.6,21.4-21.4,21.4s-21.4-9.6-21.4-21.4
	C219.5,644.5,229.1,634.9,240.8,634.9z"/>
<path class="st0" d="M371.2,209.3c31.1,0,56.5,25.4,56.5,56.5c0,31.1-25.4,56.5-56.5,56.5s-56.5-25.4-56.5-56.5
	C314.6,234.7,340,209.3,371.2,209.3z"/>
<path class="st0" d="M371.2,244.5c11.8,0,21.4,9.6,21.4,21.4c0,11.8-9.6,21.4-21.4,21.4s-21.4-9.6-21.4-21.4
	C349.8,254.1,359.4,244.5,371.2,244.5z"/>
<path class="st0" d="M371.2,339.5c31.1,0,56.5,25.4,56.5,56.5s-25.4,56.5-56.5,56.5s-56.5-25.4-56.5-56.5S340,339.5,371.2,339.5z"/>
<path class="st0" d="M371.2,374.6c11.8,0,21.4,9.6,21.4,21.4s-9.6,21.4-21.4,21.4s-21.4-9.6-21.4-21.4S359.4,374.6,371.2,374.6z"/>
<path class="st0" d="M371.2,469.6c31.1,0,56.5,25.4,56.5,56.5c0,31.1-25.4,56.5-56.5,56.5s-56.5-25.4-56.5-56.5
	C314.6,495,340,469.6,371.2,469.6z"/>
<path class="st0" d="M371.2,504.8c11.8,0,21.4,9.6,21.4,21.4s-9.6,21.4-21.4,21.4s-21.4-9.6-21.4-21.4S359.4,504.8,371.2,504.8z"/>
<path class="st0" d="M371.2,79.2c31.1,0,56.5,25.4,56.5,56.5c0,31.1-25.4,56.5-56.5,56.5s-56.5-25.4-56.5-56.5
	C314.6,104.6,340,79.2,371.2,79.2z"/>
<path class="st0" d="M371.2,114.3c11.8,0,21.4,9.6,21.4,21.4c0,11.8-9.6,21.4-21.4,21.4s-21.4-9.6-21.4-21.4
	C349.8,123.9,359.4,114.3,371.2,114.3z"/>
<path class="st0" d="M371.2,599.8c31.1,0,56.5,25.4,56.5,56.5c0,31.1-25.4,56.5-56.5,56.5s-56.5-25.4-56.5-56.5
	C314.6,625.1,340,599.8,371.2,599.8z"/>
<path class="st0" d="M371.2,634.9c11.8,0,21.4,9.6,21.4,21.4c0,11.8-9.6,21.4-21.4,21.4s-21.4-9.6-21.4-21.4
	C349.8,644.5,359.4,634.9,371.2,634.9z"/>
<path class="st0" d="M501.5,209.3c31.1,0,56.5,25.4,56.5,56.5c0,31.1-25.4,56.5-56.5,56.5S445,297,445,265.9
	C445,234.7,470.3,209.3,501.5,209.3z"/>
<path class="st0" d="M501.5,244.5c11.8,0,21.4,9.6,21.4,21.4c0,11.8-9.6,21.4-21.4,21.4s-21.4-9.6-21.4-21.4
	C480.1,254.1,489.7,244.5,501.5,244.5z"/>
<path class="st0" d="M501.5,339.5c31.1,0,56.5,25.4,56.5,56.5s-25.4,56.5-56.5,56.5S445,427.1,445,396S470.3,339.5,501.5,339.5z"/>
<path class="st0" d="M501.5,374.6c11.8,0,21.4,9.6,21.4,21.4s-9.6,21.4-21.4,21.4s-21.4-9.6-21.4-21.4S489.7,374.6,501.5,374.6z"/>
<path class="st0" d="M501.5,469.6c31.1,0,56.5,25.4,56.5,56.5c0,31.1-25.4,56.5-56.5,56.5S445,557.3,445,526.1
	C445,495,470.3,469.6,501.5,469.6z"/>
<path class="st0" d="M501.5,504.8c11.8,0,21.4,9.6,21.4,21.4s-9.6,21.4-21.4,21.4s-21.4-9.6-21.4-21.4S489.7,504.8,501.5,504.8z"/>
<path class="st0" d="M501.5,79.2c31.1,0,56.5,25.4,56.5,56.5c0,31.1-25.4,56.5-56.5,56.5S445,166.9,445,135.7
	C445,104.6,470.3,79.2,501.5,79.2z"/>
<path class="st0" d="M501.5,114.3c11.8,0,21.4,9.6,21.4,21.4c0,11.8-9.6,21.4-21.4,21.4s-21.4-9.6-21.4-21.4
	C480.1,123.9,489.7,114.3,501.5,114.3z"/>
<path class="st0" d="M501.5,599.8c31.1,0,56.5,25.4,56.5,56.5c0,31.1-25.4,56.5-56.5,56.5S445,687.4,445,656.3
	C445,625.1,470.3,599.8,501.5,599.8z"/>
<path class="st0" d="M501.5,634.9c11.8,0,21.4,9.6,21.4,21.4c0,11.8-9.6,21.4-21.4,21.4s-21.4-9.6-21.4-21.4
	C480.1,644.5,489.7,634.9,501.5,634.9z"/>
<rect class="st0" width="612" height="792"/>
</svg>
