<?xml version="1.0" standalone="no"?>
<!DOCTYPE svg PUBLIC "-//W3C//DTD SVG 20010904//EN"
 "http://www.w3.org/TR/2001/REC-SVG-20010904/DTD/svg10.dtd">
<svg version="1.0" xmlns="http://www.w3.org/2000/svg"
 width="2429.000000pt" height="2215.000000pt" viewBox="0 0 2429.000000 2215.000000"
 preserveAspectRatio="xMidYMid meet">

<g transform="translate(0.000000,2215.000000) scale(0.100000,-0.100000)"
fill="#000000" stroke="none">
<path d="M11625 21390 c-595 -45 -1067 -329 -1179 -710 -54 -181 -16 -349 117
-528 37 -49 39 -54 27 -82 -13 -32 -12 -35 45 -94 l20 -21 -505 -3 -505 -2
-71 -213 c-40 -116 -120 -351 -179 -522 -58 -170 -160 -467 -226 -660 l-120
-350 1 -473 1 -473 -23 6 c-13 3 -243 60 -513 126 -456 112 -495 120 -567 117
-142 -8 -262 -92 -331 -233 -41 -82 -480 -1010 -802 -1694 l-139 -295 -4 -86
c-5 -107 12 -174 65 -250 64 -92 114 -118 443 -231 162 -55 453 -155 645 -221
193 -66 417 -143 499 -171 130 -45 146 -52 120 -58 -16 -4 -657 -111 -1424
-238 -767 -127 -1406 -235 -1420 -240 -14 -5 -115 -47 -225 -94 -223 -95
-1248 -528 -1392 -588 -51 -22 -135 -56 -185 -78 -51 -21 -169 -71 -263 -110
-93 -40 -237 -101 -320 -136 -1467 -617 -2019 -852 -2074 -882 -109 -60 -176
-109 -250 -182 -275 -272 -348 -690 -180 -1040 51 -108 123 -204 210 -284 75
-69 235 -169 339 -212 105 -44 359 -150 595 -250 291 -124 645 -272 830 -350
83 -34 285 -120 450 -190 165 -70 368 -155 450 -190 83 -34 323 -136 535 -225
212 -89 426 -179 475 -200 89 -37 329 -138 640 -270 88 -38 183 -77 210 -88
28 -11 75 -31 105 -45 45 -21 308 -67 1475 -261 781 -130 1425 -236 1430 -236
34 0 -49 -32 -330 -128 -1045 -358 -1232 -424 -1273 -448 -60 -35 -115 -96
-148 -164 -21 -42 -29 -74 -32 -137 -5 -99 6 -150 60 -263 38 -79 68 -142 168
-355 21 -44 99 -210 175 -370 75 -159 154 -326 175 -370 300 -637 387 -817
412 -852 69 -96 161 -144 288 -150 79 -4 105 0 390 71 168 41 391 95 495 121
105 25 196 48 203 50 10 4 12 -90 12 -473 l-1 -477 70 -200 c38 -110 99 -288
136 -395 210 -611 279 -812 331 -967 l59 -173 496 0 c273 0 499 -3 503 -7 3
-4 -10 -24 -31 -45 -35 -36 -37 -40 -26 -69 11 -30 9 -36 -32 -94 -154 -215
-174 -410 -65 -629 84 -169 242 -313 467 -425 485 -240 1152 -237 1639 7 367
184 571 501 510 792 -18 85 -69 197 -123 267 -34 44 -35 48 -23 81 12 33 11
36 -24 71 -20 20 -36 40 -36 44 0 4 223 8 497 9 l496 3 24 70 c14 39 51 147
83 240 32 94 106 310 165 480 59 171 140 407 180 525 40 118 89 261 109 317
l36 102 0 471 c0 403 2 470 14 470 14 0 146 -32 776 -186 205 -51 233 -55 310
-51 108 5 163 29 240 103 60 57 69 72 175 299 23 50 140 297 260 550 120 253
234 496 255 540 21 44 78 166 128 270 236 497 226 472 220 588 -7 132 -76 250
-183 313 -23 13 -246 94 -496 180 -250 86 -589 202 -754 259 -165 57 -313 108
-330 115 l-30 13 30 7 c17 5 660 112 1430 240 770 127 1407 235 1416 240 17 9
238 103 589 250 102 42 374 157 605 255 231 97 488 205 570 240 83 35 254 107
380 160 393 166 1056 446 1150 485 50 21 164 69 255 107 91 38 318 134 505
213 226 95 377 165 449 208 278 167 440 427 462 740 16 215 -58 450 -197 624
-117 148 -268 247 -572 375 -111 47 -303 128 -427 180 -340 143 -410 173 -470
198 -30 12 -327 137 -660 278 -333 140 -794 335 -1025 432 -231 97 -521 220
-645 272 -124 53 -265 112 -315 133 -242 101 -538 225 -605 255 -70 31 -174
49 -1475 265 -770 127 -1413 235 -1430 239 -25 6 -5 15 150 68 99 34 306 105
460 158 154 53 431 148 615 211 416 142 448 161 518 312 24 51 27 69 27 162
l0 105 -76 160 c-128 270 -599 1264 -646 1365 -228 488 -247 524 -303 581 -75
76 -151 111 -249 116 -69 4 -107 -3 -401 -76 -179 -44 -401 -98 -495 -121 -93
-22 -178 -43 -187 -46 -17 -5 -18 22 -18 467 l0 472 -96 281 c-53 155 -120
351 -149 436 -30 85 -112 326 -183 535 -72 209 -139 405 -150 435 l-19 55
-496 3 c-274 1 -497 5 -497 9 0 4 16 24 36 44 35 36 36 39 24 68 -11 28 -10
34 24 82 164 227 175 458 35 696 -39 66 -169 201 -250 260 -275 201 -732 314
-1144 283z m320 -50 c542 -51 977 -309 1096 -650 30 -86 33 -239 5 -320 -22
-65 -85 -177 -128 -226 -28 -31 -29 -37 -18 -64 14 -33 2 -55 -57 -104 -29
-25 -37 -26 -142 -26 l-111 0 0 -26 0 -26 108 2 c59 1 344 1 634 1 l526 -1 45
-132 c25 -73 97 -284 160 -468 64 -184 165 -479 225 -655 61 -176 120 -348
132 -382 21 -61 21 -71 18 -562 -2 -276 0 -501 3 -501 4 0 10 -21 13 -47 14
-97 16 -103 42 -103 24 0 25 2 17 48 -4 26 -7 62 -8 81 l0 35 170 42 c834 205
843 207 918 202 132 -9 224 -79 295 -223 22 -44 133 -278 247 -520 114 -242
309 -654 432 -915 124 -261 232 -493 240 -515 18 -52 18 -169 -1 -223 -20 -56
-68 -125 -109 -156 -43 -33 -75 -46 -297 -122 -102 -34 -329 -112 -505 -172
-176 -61 -452 -156 -614 -211 -162 -56 -296 -99 -298 -97 -3 2 -10 36 -16 75
-10 69 -18 80 -46 62 -11 -7 -11 -20 -2 -73 6 -36 11 -67 11 -71 0 -3 -21 -7
-47 -9 -42 -3 -48 -6 -49 -25 -1 -21 3 -23 47 -23 l49 0 1 -57 c1 -32 2 -62 4
-68 1 -5 3 -16 3 -22 1 -7 11 -13 21 -13 24 0 28 11 29 83 0 33 3 62 7 65 8 9
2895 -473 2904 -484 3 -5 19 -10 36 -12 16 -2 128 -45 250 -97 292 -124 1294
-546 1370 -578 33 -13 249 -104 480 -202 231 -98 462 -195 513 -216 120 -51
246 -104 407 -172 72 -30 405 -170 740 -311 619 -261 719 -308 838 -397 222
-167 350 -447 334 -732 -7 -124 -27 -206 -77 -314 -108 -233 -279 -380 -598
-512 -64 -27 -178 -75 -252 -106 -74 -31 -175 -74 -225 -95 -49 -20 -306 -129
-570 -240 -264 -112 -505 -213 -535 -225 -30 -12 -188 -79 -350 -148 -162 -69
-322 -136 -355 -150 -33 -13 -206 -86 -385 -162 -179 -76 -350 -148 -380 -160
-30 -13 -260 -109 -510 -215 -589 -249 -663 -280 -672 -280 -5 0 -8 32 -8 70
0 68 -1 70 -25 70 -25 0 -25 -1 -25 -82 l0 -83 -1443 -239 c-793 -132 -1447
-241 -1454 -243 -6 -3 -13 6 -15 19 -2 15 -11 24 -25 26 -22 3 -28 -6 -24 -35
1 -10 -20 -13 -79 -13 -79 0 -80 0 -80 -25 0 -24 2 -25 76 -25 l77 0 -7 -32
c-3 -18 -9 -56 -13 -85 -6 -51 -5 -53 19 -53 23 0 25 5 36 77 7 42 13 78 15
79 2 2 148 -47 637 -216 162 -56 453 -156 645 -221 196 -68 373 -134 403 -152
60 -36 124 -122 143 -190 6 -23 9 -78 7 -122 -5 -79 -8 -85 -154 -395 -83
-173 -298 -630 -479 -1014 -294 -622 -335 -704 -377 -748 -54 -56 -129 -93
-209 -103 -57 -7 -58 -7 -847 187 l-253 63 6 55 c11 96 11 95 -11 98 -24 3
-28 -7 -40 -95 -3 -29 -9 -53 -13 -53 -3 0 -5 -224 -3 -497 l3 -498 -81 -235
c-45 -129 -108 -311 -140 -405 -200 -587 -344 -1005 -356 -1034 l-14 -33 -602
3 -603 4 0 -25 c0 -25 1 -25 89 -27 l89 -1 45 -45 c44 -44 45 -46 32 -76 -12
-29 -10 -34 24 -75 96 -118 152 -275 143 -401 -31 -427 -558 -767 -1227 -792
-756 -28 -1398 372 -1367 852 7 117 72 257 164 356 20 22 23 31 14 47 -18 33
-13 48 28 93 l38 43 117 -1 116 -1 0 26 0 27 -634 -3 -634 -4 -22 68 c-13 38
-56 166 -97 284 -41 118 -82 240 -93 270 -44 133 -263 769 -311 905 l-54 150
-5 487 -5 487 79 3 c73 3 79 5 82 26 4 21 1 22 -80 22 l-84 0 -12 80 c-12 78
-20 89 -48 72 -10 -7 -10 -23 -1 -81 6 -40 9 -74 7 -75 -3 -3 -748 -186 -947
-233 -104 -24 -118 -26 -174 -14 -74 15 -118 37 -175 87 -42 36 -90 123 -212
389 -24 53 -97 207 -263 555 -27 58 -66 141 -87 185 -84 179 -122 259 -210
445 -51 107 -107 227 -125 265 -18 39 -51 110 -74 158 -76 162 -76 267 1 389
54 86 94 106 443 226 176 61 460 158 630 217 171 59 393 135 495 170 102 35
192 66 201 70 13 5 18 -7 28 -69 12 -72 14 -76 38 -76 28 0 27 -12 7 120 -6
36 -4 40 15 40 16 0 21 6 21 25 0 20 -5 25 -25 25 -25 0 -25 1 -25 78 0 75 -1
79 -22 77 -21 -1 -23 -7 -26 -79 -2 -67 -5 -76 -20 -73 -9 3 -664 112 -1454
244 l-1438 238 0 83 c0 81 0 82 -25 82 -24 0 -25 -2 -25 -70 0 -38 -4 -70 -9
-70 -5 0 -82 31 -172 69 -363 153 -1009 426 -1094 461 -49 21 -134 56 -187 79
-54 23 -140 58 -190 80 -51 21 -196 82 -323 136 -126 54 -270 114 -320 135
-49 20 -450 189 -890 375 -440 186 -885 374 -990 417 -325 136 -483 247 -601
424 -64 97 -97 173 -125 292 -18 73 -20 107 -16 217 6 155 22 217 87 350 81
165 190 279 362 381 89 53 186 95 733 324 50 21 194 81 320 135 127 53 286
121 355 150 69 29 197 83 285 120 209 88 363 153 625 263 118 50 319 134 445
188 127 53 313 131 415 174 102 43 320 135 485 205 165 70 383 162 485 205
173 73 266 110 350 140 19 7 686 121 1483 254 l1447 243 0 -24 c0 -18 5 -23
25 -23 20 0 25 5 25 25 0 24 3 25 55 25 52 0 55 1 55 25 0 23 -3 25 -51 25
l-51 0 6 33 c19 110 19 115 -4 122 -12 4 -23 5 -25 3 -2 -2 -9 -35 -15 -73 -6
-38 -12 -71 -14 -72 -2 -2 -68 19 -147 46 -79 27 -308 105 -509 174 -1102 378
-1022 347 -1086 411 -67 68 -97 143 -97 246 -1 82 -1 82 157 414 36 76 66 139
66 141 0 1 33 71 74 156 40 85 167 352 281 594 413 875 388 825 438 875 64 64
128 92 217 98 69 4 109 -4 490 -98 228 -57 456 -112 505 -124 102 -25 98 -18
80 -133 -7 -52 -7 -53 18 -53 23 0 26 5 32 48 4 26 10 61 14 77 l7 30 72 -1
c50 -2 75 2 83 12 22 27 -6 41 -79 41 l-67 0 -3 475 -2 476 34 98 c33 95 176
513 348 1014 147 431 169 495 185 538 l16 42 603 0 604 0 0 25 c0 25 -1 25
-84 25 l-83 0 -47 50 c-46 49 -46 50 -30 75 16 24 15 26 -35 92 -62 82 -116
189 -132 263 -15 71 -6 189 21 268 144 416 792 703 1445 642z"/>
<path d="M11615 21120 c-404 -28 -745 -186 -838 -387 -33 -73 -30 -180 7 -253
155 -299 785 -459 1356 -344 274 56 510 197 582 349 33 71 38 168 12 231 -83
203 -421 372 -794 398 -169 12 -217 13 -325 6z m306 -50 c431 -42 749 -216
784 -426 25 -158 -147 -329 -422 -419 -438 -143 -1029 -85 -1321 129 -188 138
-213 299 -72 450 182 194 618 306 1031 266z"/>
<path d="M11000 19925 l0 -25 105 0 105 0 0 25 0 25 -105 0 -105 0 0 -25z"/>
<path d="M11320 19925 l0 -25 105 0 105 0 0 25 0 25 -105 0 -105 0 0 -25z"/>
<path d="M11640 19925 c0 -25 0 -25 99 -25 81 0 100 3 105 16 11 29 -4 34
-105 34 -99 0 -99 0 -99 -25z"/>
<path d="M11952 19928 c3 -22 8 -23 106 -26 l102 -3 0 26 0 25 -106 0 c-104 0
-105 0 -102 -22z"/>
<path d="M12270 19925 l0 -25 105 0 105 0 0 25 0 25 -105 0 -105 0 0 -25z"/>
<path d="M9378 17252 c-20 -4 -25 -41 -5 -43 6 -1 54 -3 105 -5 l92 -3 0 29 0
29 -87 -2 c-49 -1 -96 -3 -105 -5z"/>
<path d="M9680 17230 l0 -32 103 4 c101 3 102 3 102 28 0 25 -1 25 -102 28
l-103 4 0 -32z"/>
<path d="M10000 17230 l0 -31 95 2 c99 3 129 15 107 42 -8 9 -43 14 -107 16
l-95 2 0 -31z"/>
<path d="M10314 17246 c-3 -9 -3 -23 0 -32 5 -13 23 -15 106 -13 l100 3 0 26
0 26 -100 3 c-83 2 -101 0 -106 -13z"/>
<path d="M10630 17230 l0 -32 103 4 c101 3 102 3 102 28 0 25 -1 25 -102 28
l-103 4 0 -32z"/>
<path d="M10950 17230 l0 -31 94 2 c99 2 111 5 111 29 0 24 -12 27 -111 29
l-94 2 0 -31z"/>
<path d="M11264 17246 c-3 -9 -3 -23 0 -32 5 -13 22 -15 103 -12 97 3 98 3 98
28 0 25 -1 25 -98 28 -81 3 -98 1 -103 -12z"/>
<path d="M11584 17246 c-3 -9 -3 -23 0 -32 5 -13 22 -15 103 -12 97 3 98 3 98
28 0 25 -1 25 -98 28 -81 3 -98 1 -103 -12z"/>
<path d="M11904 17245 c-14 -37 2 -45 88 -44 91 0 113 6 113 29 0 23 -22 29
-113 29 -65 1 -84 -2 -88 -14z"/>
<path d="M12213 17244 c-13 -36 3 -42 104 -41 97 2 98 2 98 27 0 25 -1 25 -98
27 -76 1 -100 -2 -104 -13z"/>
<path d="M12548 17253 c-10 -2 -18 -13 -18 -23 0 -24 40 -32 135 -28 67 3 70
4 70 28 0 25 -1 25 -85 27 -47 0 -93 -1 -102 -4z"/>
<path d="M12853 17244 c-13 -34 4 -41 100 -43 99 -2 115 5 100 44 -8 22 -192
20 -200 -1z"/>
<path d="M13163 17243 c-13 -33 4 -39 106 -42 l101 -2 0 31 0 31 -101 -2 c-73
-2 -102 -6 -106 -16z"/>
<path d="M13483 17244 c-14 -36 3 -42 104 -41 97 2 98 2 98 27 0 25 -1 25 -98
27 -77 1 -99 -2 -104 -13z"/>
<path d="M13800 17230 l0 -26 99 -3 c82 -2 99 0 104 13 4 9 4 23 0 32 -5 13
-22 15 -104 13 l-99 -3 0 -26z"/>
<path d="M14113 17243 c-13 -33 4 -39 106 -42 l101 -2 0 31 0 31 -101 -2 c-73
-2 -102 -6 -106 -16z"/>
<path d="M8995 16928 c-8 -36 -25 -151 -25 -170 0 -12 8 -18 24 -18 22 0 24 6
39 98 11 72 12 99 3 104 -20 14 -36 8 -41 -14z"/>
<path d="M14502 16942 c-10 -7 -9 -27 4 -105 16 -90 19 -97 41 -97 26 0 27 4
13 86 -6 32 -13 74 -16 92 -5 32 -17 39 -42 24z"/>
<path d="M8945 16618 c-2 -7 -10 -52 -18 -100 -13 -85 -13 -87 7 -92 27 -7 31
2 45 93 7 42 15 84 17 94 4 13 -1 17 -21 17 -14 0 -27 -6 -30 -12z"/>
<path d="M14546 16603 c3 -16 10 -61 17 -102 12 -75 21 -88 46 -72 12 8 12 22
2 88 -17 108 -19 113 -46 113 -21 0 -24 -4 -19 -27z"/>
<path d="M8882 16243 c-7 -43 -15 -88 -18 -100 -4 -16 0 -23 16 -28 12 -4 24
-4 27 -2 6 7 33 153 33 185 0 16 -6 22 -23 22 -22 0 -25 -6 -35 -77z"/>
<path d="M14601 16293 c2 -71 25 -178 39 -180 35 -6 38 10 21 107 -15 84 -19
95 -39 98 -18 3 -22 -1 -21 -25z"/>
<path d="M8831 15938 c-7 -40 -15 -88 -18 -105 -5 -30 -3 -33 20 -33 27 0 26
-3 47 119 13 72 9 91 -18 91 -16 0 -21 -13 -31 -72z"/>
<path d="M14650 15993 c0 -10 7 -56 15 -103 8 -47 15 -86 15 -88 0 -2 10 -2
23 0 26 4 26 -2 8 116 -13 86 -15 92 -37 92 -16 0 -24 -6 -24 -17z"/>
<path d="M8781 15638 c-26 -157 -27 -148 3 -148 14 0 26 3 26 8 0 4 7 47 16
96 12 73 13 91 2 97 -27 18 -36 7 -47 -53z"/>
<path d="M14712 15691 c-11 -6 -10 -24 2 -97 9 -49 16 -92 16 -96 0 -5 12 -8
26 -8 24 0 26 3 21 28 -3 15 -11 62 -17 105 -12 75 -20 86 -48 68z"/>
<path d="M8736 15368 c-9 -43 -26 -155 -26 -171 0 -11 8 -17 23 -17 21 0 24 7
40 97 9 53 15 98 14 99 -1 1 -12 5 -24 8 -18 6 -23 3 -27 -16z"/>
<path d="M14772 15382 c-19 -3 -23 -8 -19 -25 3 -12 11 -57 18 -99 11 -72 14
-78 35 -78 13 0 24 6 24 13 0 14 -31 192 -33 192 -1 1 -13 -1 -25 -3z"/>
<path d="M8685 15058 c-2 -7 -10 -51 -18 -98 -13 -82 -13 -85 6 -93 11 -4 24
-4 27 0 4 4 14 52 22 106 l15 97 -24 0 c-13 0 -26 -6 -28 -12z"/>
<path d="M14801 15063 c5 -54 37 -197 44 -200 6 -1 16 1 24 6 12 8 12 22 2 88
-17 109 -19 113 -47 113 -13 0 -24 -3 -23 -7z"/>
<path d="M8619 14668 c-18 -118 -18 -112 8 -116 24 -4 25 -3 43 102 16 92 14
106 -14 106 -22 0 -24 -6 -37 -92z"/>
<path d="M14860 14737 c0 -22 14 -113 26 -165 3 -17 11 -22 27 -20 26 4 25 -3
7 116 -13 85 -15 92 -37 92 -17 0 -23 -6 -23 -23z"/>
<path d="M8820 14265 l0 -25 105 0 105 0 0 25 0 25 -105 0 -105 0 0 -25z"/>
<path d="M9132 14268 c3 -22 7 -23 108 -23 101 0 105 1 108 23 3 22 2 22 -108
22 -110 0 -111 0 -108 -22z"/>
<path d="M9450 14265 l0 -25 105 0 105 0 0 25 0 25 -105 0 -105 0 0 -25z"/>
<path d="M9770 14265 l0 -25 105 0 105 0 0 25 0 25 -105 0 -105 0 0 -25z"/>
<path d="M10084 14265 l0 -25 106 0 c105 0 106 0 108 25 l2 25 -108 0 -108 0
0 -25z"/>
<path d="M10400 14265 l0 -25 105 0 105 0 0 25 0 25 -105 0 -105 0 0 -25z"/>
<path d="M10720 14265 l0 -25 105 0 105 0 0 25 0 25 -105 0 -105 0 0 -25z"/>
<path d="M11037 14283 c-2 -5 -3 -15 -3 -23 1 -12 21 -16 102 -18 86 -2 103 0
108 14 3 8 4 20 0 25 -6 11 -201 12 -207 2z"/>
<path d="M11350 14265 l0 -25 105 0 105 0 0 25 0 25 -105 0 -105 0 0 -25z"/>
<path d="M11670 14265 l0 -25 105 0 105 0 0 25 0 25 -105 0 -105 0 0 -25z"/>
<path d="M11984 14265 l0 -25 108 0 108 0 -2 25 c-2 25 -3 25 -108 25 l-106 0
0 -25z"/>
<path d="M12300 14265 l0 -25 105 0 105 0 0 25 0 25 -105 0 -105 0 0 -25z"/>
<path d="M12620 14265 l0 -25 105 0 105 0 0 25 0 25 -105 0 -105 0 0 -25z"/>
<path d="M12938 14283 c-3 -4 -4 -15 -4 -23 1 -12 20 -15 106 -15 98 0 105 1
105 20 0 19 -8 20 -102 23 -56 1 -103 -1 -105 -5z"/>
<path d="M13250 14265 l0 -25 105 0 105 0 0 25 0 25 -105 0 -105 0 0 -25z"/>
<path d="M13570 14265 l0 -25 105 0 105 0 0 25 0 25 -105 0 -105 0 0 -25z"/>
<path d="M13882 14265 l-2 -25 108 0 108 0 0 25 0 25 -106 0 c-105 0 -106 0
-108 -25z"/>
<path d="M14200 14265 l0 -25 105 0 105 0 0 25 0 25 -105 0 -105 0 0 -25z"/>
<path d="M14520 14265 l0 -25 105 0 105 0 0 25 0 25 -105 0 -105 0 0 -25z"/>
<path d="M8550 13975 l0 -105 25 0 25 0 0 105 0 105 -25 0 -25 0 0 -105z"/>
<path d="M14935 13873 c3 -121 1 -113 25 -113 24 0 22 -8 25 113 l3 97 -28 0
-28 0 3 -97z"/>
<path d="M8568 13763 c-16 -4 -18 -18 -18 -104 0 -99 0 -99 25 -99 l25 0 0
105 c0 58 -3 104 -7 104 -5 -1 -16 -3 -25 -6z"/>
<path d="M14937 13646 c-3 -8 -5 -55 -5 -105 l1 -91 27 0 27 0 1 91 c1 104 -3
119 -28 119 -10 0 -20 -6 -23 -14z"/>
<path d="M5590 13526 l0 -106 25 0 25 0 0 100 c0 55 -4 100 -9 100 -5 0 -16 3
-25 6 -14 5 -16 -7 -16 -100z"/>
<path d="M17900 13523 l0 -103 25 0 25 0 0 103 0 102 -25 0 -25 0 0 -102z"/>
<path d="M8557 13443 c-4 -3 -7 -51 -7 -105 0 -98 0 -98 25 -98 l25 0 0 105
c0 95 -2 105 -18 105 -10 0 -22 -3 -25 -7z"/>
<path d="M14939 13338 c-5 -14 -6 -171 -2 -187 3 -12 13 -21 23 -21 23 0 29
25 26 123 -2 76 -3 82 -24 85 -12 2 -22 2 -23 0z"/>
<path d="M5590 13205 l0 -105 25 0 25 0 0 105 0 105 -25 0 -25 0 0 -105z"/>
<path d="M17900 13205 l0 -105 25 0 25 0 0 105 0 105 -25 0 -25 0 0 -105z"/>
<path d="M8552 13028 c3 -98 4 -103 26 -106 22 -3 22 -2 22 102 l0 106 -25 0
-26 0 3 -102z"/>
<path d="M14939 13008 c-4 -37 -5 -175 -1 -185 2 -7 12 -13 22 -13 24 0 27 12
25 105 -3 108 -2 105 -25 105 -11 0 -21 -6 -21 -12z"/>
<path d="M5590 12891 c0 -99 6 -115 38 -104 8 3 12 33 12 104 0 99 0 99 -25
99 -25 0 -25 0 -25 -99z"/>
<path d="M17902 12888 c3 -95 4 -103 23 -103 19 0 20 8 23 103 l3 102 -26 0
-26 0 3 -102z"/>
<path d="M8563 12813 c-9 -3 -13 -34 -13 -104 l0 -99 25 0 26 0 -3 102 c-3 98
-8 112 -35 101z"/>
<path d="M14936 12702 c-3 -5 -4 -52 -3 -105 2 -97 2 -97 27 -97 l26 0 -1 103
c0 97 -1 102 -22 105 -11 2 -24 -1 -27 -6z"/>
<path d="M5590 12574 l0 -104 25 0 26 0 -3 103 c-3 98 -4 102 -25 103 -22 1
-23 -1 -23 -102z"/>
<path d="M17900 12576 l0 -106 25 0 26 0 -3 103 c-3 97 -4 102 -25 105 -23 3
-23 2 -23 -102z"/>
<path d="M8557 12493 c-4 -3 -7 -51 -7 -105 0 -98 0 -98 25 -98 l25 0 0 105
c0 95 -2 105 -18 105 -10 0 -22 -3 -25 -7z"/>
<path d="M14931 12298 c3 -109 5 -118 29 -118 24 0 26 9 29 118 l3 92 -32 0
-32 0 3 -92z"/>
<path d="M5590 12255 l0 -105 25 0 25 0 0 105 0 105 -25 0 -25 0 0 -105z"/>
<path d="M17900 12255 l0 -105 25 0 25 0 0 105 0 105 -25 0 -25 0 0 -105z"/>
<path d="M8552 12078 c3 -98 4 -103 26 -106 22 -3 22 -2 22 102 l0 106 -25 0
-26 0 3 -102z"/>
<path d="M14931 11983 c2 -106 6 -123 29 -123 23 0 27 17 29 123 l2 87 -31 0
-31 0 2 -87z"/>
<path d="M5590 11935 c0 -103 0 -105 23 -101 21 3 22 8 25 104 l3 102 -26 0
-25 0 0 -105z"/>
<path d="M17900 11937 l0 -103 25 0 25 0 0 103 0 103 -25 0 -25 0 0 -103z"/>
<path d="M8555 11861 c-3 -2 -5 -49 -5 -103 0 -98 0 -98 25 -98 l25 0 0 103
c0 97 -1 103 -20 103 -12 0 -23 -2 -25 -5z"/>
<path d="M14936 11751 c-4 -6 -6 -53 -5 -106 l1 -95 28 0 28 0 -1 103 c-2 96
-3 102 -24 105 -11 2 -24 -1 -27 -7z"/>
<path d="M5603 11723 c-9 -3 -13 -33 -13 -104 0 -99 0 -99 25 -99 25 0 25 0
25 99 0 99 -6 115 -37 104z"/>
<path d="M17906 11723 c-3 -4 -6 -51 -6 -105 0 -98 0 -98 25 -98 l25 0 0 103
c0 94 -2 103 -19 104 -10 1 -22 -1 -25 -4z"/>
<path d="M8550 11445 l0 -105 25 0 25 0 0 105 0 105 -25 0 -25 0 0 -105z"/>
<path d="M14934 11427 c-3 -8 -4 -55 -2 -103 3 -87 3 -89 28 -89 l25 0 0 100
c0 96 -1 100 -23 103 -13 2 -24 -3 -28 -11z"/>
<path d="M5590 11305 l0 -105 25 0 25 0 0 105 0 105 -25 0 -25 0 0 -105z"/>
<path d="M17900 11305 l0 -105 25 0 25 0 0 105 0 105 -25 0 -25 0 0 -105z"/>
<path d="M8550 11125 l0 -105 25 0 25 0 0 105 0 105 -25 0 -25 0 0 -105z"/>
<path d="M1710 11075 l0 -75 1420 0 1420 0 0 75 0 75 -1420 0 -1420 0 0 -75z
m2798 -2 l3 -23 -1375 0 c-948 0 -1377 3 -1381 10 -4 6 -4 18 -1 26 5 12 184
14 1378 12 l1373 -3 3 -22z"/>
<path d="M19150 11075 l0 -75 1260 0 1260 0 0 75 0 75 -1260 0 -1260 0 0 -75z
m2478 -2 l3 -23 -1215 0 c-836 0 -1217 3 -1221 10 -4 6 -4 18 -1 26 5 12 164
14 1218 12 l1213 -3 3 -22z"/>
<path d="M14931 11020 l1 -100 28 0 28 0 1 100 2 100 -31 0 -31 0 2 -100z"/>
<path d="M5590 10984 c0 -104 0 -105 23 -102 21 3 22 8 25 106 l3 102 -26 0
-25 0 0 -106z"/>
<path d="M17900 10985 l0 -105 25 0 25 0 0 105 0 105 -25 0 -25 0 0 -105z"/>
<path d="M8563 10913 c-9 -3 -13 -34 -13 -104 l0 -99 25 0 26 0 -3 102 c-3 98
-8 112 -35 101z"/>
<path d="M14935 10801 c-3 -6 -5 -54 -4 -106 l2 -95 27 0 28 0 -1 103 c-2 96
-3 102 -24 105 -11 2 -24 -2 -28 -7z"/>
<path d="M5590 10676 l0 -106 25 0 26 0 -3 103 c-3 97 -4 102 -25 105 -23 3
-23 2 -23 -102z"/>
<path d="M17900 10675 l0 -105 25 0 25 0 0 105 0 105 -25 0 -25 0 0 -105z"/>
<path d="M8557 10593 c-4 -3 -7 -51 -7 -105 0 -98 0 -98 25 -98 l25 0 0 105
c0 95 -2 105 -18 105 -10 0 -22 -3 -25 -7z"/>
<path d="M14930 10401 c0 -102 5 -121 30 -121 25 0 30 19 30 121 l0 89 -30 0
-30 0 0 -89z"/>
<path d="M5590 10355 l0 -105 25 0 25 0 0 105 0 105 -25 0 -25 0 0 -105z"/>
<path d="M17900 10355 l0 -105 25 0 25 0 0 105 0 105 -25 0 -25 0 0 -105z"/>
<path d="M8550 10175 l0 -105 25 0 25 0 0 105 0 105 -25 0 -25 0 0 -105z"/>
<path d="M14935 10157 c-3 -7 -5 -54 -3 -103 3 -88 3 -89 28 -89 l25 0 0 100
c0 96 -1 100 -23 103 -12 2 -24 -3 -27 -11z"/>
<path d="M5590 10041 c0 -89 2 -99 19 -104 11 -3 22 -2 25 1 3 3 6 50 6 104 0
98 0 98 -25 98 -25 0 -25 0 -25 -99z"/>
<path d="M17902 10038 c3 -99 4 -103 26 -104 21 -1 22 1 22 102 l0 104 -25 0
-26 0 3 -102z"/>
<path d="M8557 9963 c-4 -3 -7 -51 -7 -105 0 -98 0 -98 25 -98 l25 0 0 105 c0
95 -2 105 -18 105 -10 0 -22 -3 -25 -7z"/>
<path d="M14935 9837 c-3 -12 -5 -58 -3 -102 3 -78 4 -80 28 -80 24 0 25 2 28
80 4 99 -2 125 -28 125 -12 0 -22 -9 -25 -23z"/>
<path d="M5590 9725 l0 -105 25 0 26 0 -3 102 c-3 96 -4 101 -25 104 -23 4
-23 2 -23 -101z"/>
<path d="M17900 9723 l0 -103 25 0 25 0 0 103 0 103 -25 0 -25 0 0 -103z"/>
<path d="M8557 9643 c-4 -3 -7 -51 -7 -105 0 -98 0 -98 25 -98 l25 0 0 105 c0
95 -2 105 -18 105 -10 0 -22 -3 -25 -7z"/>
<path d="M14937 9533 c-3 -4 -4 -51 -3 -103 1 -94 1 -95 26 -95 l25 0 0 100
c0 95 -1 100 -22 103 -11 2 -23 0 -26 -5z"/>
<path d="M5590 9405 l0 -105 25 0 25 0 0 105 0 105 -25 0 -25 0 0 -105z"/>
<path d="M17900 9405 l0 -105 25 0 25 0 0 105 0 105 -25 0 -25 0 0 -105z"/>
<path d="M8552 9228 c3 -98 4 -103 26 -106 22 -3 22 -2 22 102 l0 106 -25 0
-26 0 3 -102z"/>
<path d="M14931 9120 l-2 -100 31 0 31 0 -2 100 -1 100 -28 0 -28 0 -1 -100z"/>
<path d="M5590 9084 c0 -104 0 -105 23 -102 21 3 22 8 25 106 l3 102 -26 0
-25 0 0 -106z"/>
<path d="M17900 9084 c0 -104 0 -105 23 -102 21 3 22 8 25 106 l3 102 -26 0
-25 0 0 -106z"/>
<path d="M8563 9013 c-9 -3 -13 -34 -13 -104 l0 -99 25 0 26 0 -3 102 c-3 98
-8 112 -35 101z"/>
<path d="M14937 8903 c-3 -4 -5 -52 -6 -105 l-2 -98 31 0 31 0 -3 103 c-3 96
-4 102 -25 105 -11 2 -23 0 -26 -5z"/>
<path d="M5603 8873 c-9 -3 -13 -34 -13 -104 l0 -99 25 0 26 0 -3 102 c-3 98
-8 112 -35 101z"/>
<path d="M17906 8872 c-3 -3 -6 -50 -6 -104 l0 -98 25 0 26 0 -3 102 c-3 86
-6 102 -20 104 -9 1 -19 -1 -22 -4z"/>
<path d="M8557 8693 c-4 -3 -7 -51 -7 -105 0 -98 0 -98 25 -98 l25 0 0 105 c0
95 -2 105 -18 105 -10 0 -22 -3 -25 -7z"/>
<path d="M14933 8488 c2 -103 2 -103 27 -103 25 0 25 0 27 103 l1 102 -28 0
-28 0 1 -102z"/>
<path d="M8552 8278 c3 -98 4 -103 26 -106 22 -3 22 -2 22 102 l0 106 -25 0
-26 0 3 -102z"/>
<path d="M14931 8171 c-2 -103 5 -119 44 -105 13 5 15 25 14 105 l-1 99 -28 0
-28 0 -1 -99z"/>
<path d="M8760 7885 l0 -25 105 0 105 0 0 25 0 25 -105 0 -105 0 0 -25z"/>
<path d="M9080 7885 l0 -26 103 3 c94 3 102 4 102 23 0 19 -8 20 -102 23
l-103 3 0 -26z"/>
<path d="M9394 7895 c-11 -29 7 -35 107 -35 99 0 99 0 99 25 l0 25 -100 0
c-79 0 -102 -3 -106 -15z"/>
<path d="M9710 7885 l0 -25 105 0 105 0 0 25 0 25 -105 0 -105 0 0 -25z"/>
<path d="M10030 7885 l0 -25 103 0 c101 0 104 1 102 23 -2 21 -6 22 -103 25
l-102 3 0 -26z"/>
<path d="M10344 7895 c-11 -29 7 -35 107 -35 99 0 99 0 99 25 l0 25 -100 0
c-79 0 -102 -3 -106 -15z"/>
<path d="M10660 7885 l0 -25 105 0 105 0 0 25 0 25 -105 0 -105 0 0 -25z"/>
<path d="M10980 7885 l0 -25 104 0 c94 0 104 2 101 18 -2 9 -4 20 -4 25 -1 4
-46 7 -101 7 l-100 0 0 -25z"/>
<path d="M11299 7903 c0 -5 -2 -16 -4 -25 -3 -16 7 -18 101 -18 l104 0 0 25 0
25 -100 0 c-55 0 -100 -3 -101 -7z"/>
<path d="M11610 7885 l0 -25 105 0 105 0 0 25 0 25 -105 0 -105 0 0 -25z"/>
<path d="M11930 7885 l0 -26 103 3 c94 3 102 4 102 23 0 19 -8 20 -102 23
l-103 3 0 -26z"/>
<path d="M12249 7908 c0 -2 -2 -13 -3 -25 -3 -23 -1 -23 101 -23 l103 0 0 25
0 25 -100 0 c-55 0 -100 -1 -101 -2z"/>
<path d="M12560 7885 l0 -25 105 0 105 0 0 25 0 25 -105 0 -105 0 0 -25z"/>
<path d="M12880 7885 l0 -26 103 3 c94 3 102 4 102 23 0 19 -8 20 -102 23
l-103 3 0 -26z"/>
<path d="M13196 7894 c-11 -29 4 -34 105 -34 99 0 99 0 99 25 0 25 0 25 -99
25 -81 0 -100 -3 -105 -16z"/>
<path d="M13510 7885 l0 -25 105 0 105 0 0 25 0 25 -105 0 -105 0 0 -25z"/>
<path d="M13830 7885 l0 -25 104 0 c101 0 103 1 102 23 -1 21 -5 22 -103 25
l-103 3 0 -26z"/>
<path d="M14147 7903 c-2 -5 -3 -15 -3 -23 1 -12 21 -16 104 -18 l102 -3 0 26
0 25 -99 0 c-55 0 -102 -3 -104 -7z"/>
<path d="M14460 7885 l0 -25 105 0 105 0 0 25 0 25 -105 0 -105 0 0 -25z"/>
<path d="M8617 7593 c-14 -3 -17 -11 -13 -26 3 -12 11 -57 18 -99 10 -72 13
-78 35 -78 28 0 28 6 8 120 -8 47 -15 86 -15 88 0 2 -9 1 -33 -5z"/>
<path d="M14885 7578 c-2 -7 -9 -47 -15 -88 -6 -41 -14 -83 -16 -92 -4 -14 1
-18 20 -18 15 0 27 7 30 18 13 48 28 162 23 176 -8 19 -36 21 -42 4z"/>
<path d="M8669 7180 c9 -56 19 -101 24 -100 4 0 15 0 25 0 17 0 17 5 3 100
-15 97 -16 100 -41 100 l-26 0 15 -100z"/>
<path d="M14835 7267 c-2 -7 -9 -41 -15 -77 -6 -36 -13 -77 -16 -92 -5 -25 -3
-28 20 -28 14 0 26 1 26 3 0 1 7 40 15 87 8 47 15 90 15 96 0 16 -40 25 -45
11z"/>
<path d="M8714 6915 c10 -90 27 -155 39 -155 32 1 34 15 19 113 -15 92 -17 97
-40 97 -24 0 -25 -2 -18 -55z"/>
<path d="M14771 6893 c-7 -38 -14 -82 -17 -99 -5 -26 -2 -32 17 -37 13 -4 24
-5 25 -4 3 3 34 179 34 195 0 6 -11 12 -24 12 -22 0 -25 -6 -35 -67z"/>
<path d="M8760 6644 c0 -9 7 -56 16 -105 16 -84 18 -89 42 -89 21 0 24 3 19
28 -3 15 -11 62 -17 105 -12 71 -15 77 -36 77 -15 0 -24 -6 -24 -16z"/>
<path d="M14730 6648 c0 -2 -7 -41 -15 -88 -20 -114 -20 -120 8 -120 21 0 24
7 36 78 7 42 15 89 18 105 5 24 3 27 -21 27 -14 0 -26 -1 -26 -2z"/>
<path d="M8823 6342 c-9 -6 -9 -28 2 -97 8 -50 15 -93 15 -97 0 -5 12 -8 26
-8 26 0 26 2 20 43 -27 170 -30 180 -63 159z"/>
<path d="M14675 6318 c-11 -53 -25 -143 -25 -165 0 -17 6 -23 23 -23 20 0 23
8 38 98 11 68 12 99 5 104 -20 14 -36 8 -41 -14z"/>
<path d="M8882 6032 c-24 -4 -24 0 2 -142 10 -56 14 -65 31 -62 11 2 22 6 24
8 4 4 -19 163 -28 184 -3 9 -15 14 -29 12z"/>
<path d="M14625 6017 c-2 -7 -9 -46 -15 -87 -6 -41 -14 -82 -16 -91 -3 -12 3
-18 21 -21 28 -6 27 -8 45 96 15 86 13 103 -11 109 -11 3 -22 0 -24 -6z"/>
<path d="M8914 5698 c3 -13 10 -50 16 -83 18 -98 20 -105 33 -105 32 1 34 14
18 110 -16 91 -18 95 -44 98 -24 3 -27 1 -23 -20z"/>
<path d="M14557 5613 c-9 -53 -15 -98 -14 -99 1 -1 12 -4 23 -8 20 -6 23 -1
38 81 21 117 21 123 -7 123 -22 0 -25 -6 -40 -97z"/>
<path d="M8970 5388 c0 -13 7 -58 15 -101 8 -43 15 -81 15 -84 0 -2 10 -3 23
-1 26 4 26 -2 8 116 -13 86 -15 92 -37 92 -18 0 -24 -6 -24 -22z"/>
<path d="M14511 5333 c-7 -38 -14 -82 -17 -100 -5 -26 -2 -32 16 -38 12 -4 23
-5 25 -3 3 3 35 181 35 198 0 6 -11 10 -24 10 -22 0 -25 -6 -35 -67z"/>
<path d="M9360 4915 l0 -25 105 0 105 0 0 25 0 25 -105 0 -105 0 0 -25z"/>
<path d="M9680 4915 l0 -25 105 0 105 0 0 25 0 25 -105 0 -105 0 0 -25z"/>
<path d="M10000 4915 l0 -26 103 3 c94 3 102 4 102 23 0 19 -8 20 -102 23
l-103 3 0 -26z"/>
<path d="M10312 4918 c3 -22 8 -23 106 -26 l102 -3 0 26 0 25 -106 0 c-104 0
-105 0 -102 -22z"/>
<path d="M10630 4915 l0 -25 105 0 105 0 0 25 0 25 -105 0 -105 0 0 -25z"/>
<path d="M10950 4915 c0 -25 0 -25 99 -25 97 0 99 0 103 25 l5 25 -103 0 -104
0 0 -25z"/>
<path d="M11260 4915 l0 -25 105 0 105 0 0 25 0 25 -105 0 -105 0 0 -25z"/>
<path d="M11580 4915 l0 -25 105 0 105 0 0 25 0 25 -105 0 -105 0 0 -25z"/>
<path d="M11900 4915 l0 -25 100 0 c55 0 100 3 101 8 0 4 2 15 4 25 3 15 -7
17 -101 17 l-104 0 0 -25z"/>
<path d="M12210 4915 l0 -25 105 0 105 0 0 25 0 25 -105 0 -105 0 0 -25z"/>
<path d="M12530 4915 l0 -25 105 0 105 0 0 25 0 25 -105 0 -105 0 0 -25z"/>
<path d="M12850 4915 l0 -26 103 3 c94 3 102 4 102 23 0 19 -8 20 -102 23
l-103 3 0 -26z"/>
<path d="M13160 4915 l0 -25 105 0 105 0 0 25 0 25 -105 0 -105 0 0 -25z"/>
<path d="M13480 4915 l0 -26 103 3 c97 3 102 4 105 26 3 22 2 22 -102 22
l-106 0 0 -25z"/>
<path d="M13800 4915 l0 -26 103 3 c94 3 102 4 102 23 0 19 -8 20 -102 23
l-103 3 0 -26z"/>
<path d="M14110 4915 l0 -25 105 0 105 0 0 25 0 25 -105 0 -105 0 0 -25z"/>
<path d="M11060 2220 l0 -27 105 -1 105 0 0 29 0 28 -105 -1 -105 0 0 -28z"/>
<path d="M11380 2221 l0 -28 93 0 c109 0 115 1 113 30 -1 21 -6 22 -103 24
l-103 2 0 -28z"/>
<path d="M11699 2247 c-8 -9 -4 -47 5 -50 6 -2 53 -4 104 -4 l92 0 0 28 0 28
-100 -1 c-55 0 -101 -1 -101 -1z"/>
<path d="M12010 2221 l0 -29 105 0 105 1 0 27 0 28 -105 0 -105 1 0 -28z"/>
<path d="M12330 2220 l0 -28 99 1 c55 1 102 4 105 7 3 3 3 15 0 26 -5 18 -14
20 -105 21 l-99 1 0 -28z"/>
<path d="M11560 2040 c-192 -22 -342 -65 -500 -143 -186 -91 -290 -221 -290
-361 0 -224 263 -413 680 -488 164 -30 476 -30 640 0 268 48 509 162 602 284
57 75 73 118 73 203 0 68 -5 88 -28 133 -38 72 -87 124 -172 180 -122 83 -288
143 -490 178 -98 17 -413 26 -515 14z m550 -69 c375 -78 610 -244 610 -431 0
-276 -468 -488 -1025 -467 -243 10 -423 51 -601 138 -297 144 -361 360 -163
544 110 101 338 195 549 224 41 6 86 13 100 15 14 3 117 3 230 1 154 -3 229
-9 300 -24z"/>
</g>
</svg>
