<?xml version="1.0" standalone="no"?>
<!DOCTYPE svg PUBLIC "-//W3C//DTD SVG 20010904//EN"
 "http://www.w3.org/TR/2001/REC-SVG-20010904/DTD/svg10.dtd">
<svg version="1.0" xmlns="http://www.w3.org/2000/svg"
 width="2248.000000pt" height="2891.000000pt" viewBox="0 0 2248.000000 2891.000000"
 preserveAspectRatio="xMidYMid meet">

<g transform="translate(0.000000,2891.000000) scale(0.100000,-0.100000)"
fill="#000000" stroke="none">
<path d="M10867 28068 c-522 -64 -1112 -465 -1736 -1179 -189 -216 -219 -252
-364 -434 -70 -88 -142 -178 -159 -200 -33 -40 -535 -710 -687 -917 l-84 -114
-130 -12 c-889 -85 -1710 -631 -2112 -1406 -144 -276 -240 -581 -287 -916 -20
-143 -17 -594 4 -737 44 -291 129 -574 234 -785 19 -37 34 -75 34 -84 0 -9
-76 -195 -169 -413 -343 -802 -485 -1161 -614 -1556 -173 -524 -248 -919 -249
-1295 0 -269 38 -489 121 -687 l30 -73 -46 -20 c-194 -86 -394 -261 -526 -463
-53 -79 -75 -106 -87 -101 -8 3 -51 8 -95 11 -280 17 -541 -171 -636 -458 -21
-66 -24 -91 -23 -224 0 -144 1 -154 32 -234 100 -264 320 -430 576 -434 50 -1
107 1 126 6 l36 7 74 -112 c119 -181 290 -340 465 -433 39 -20 71 -38 73 -40
4 -4 -73 -49 -503 -297 -698 -403 -1163 -672 -1505 -868 -140 -81 -331 -191
-425 -245 -93 -54 -296 -171 -450 -260 -501 -289 -754 -436 -1075 -621 l-314
-182 -97 -328 c-53 -181 -127 -431 -163 -556 l-67 -228 209 -362 c552 -956
741 -1284 884 -1533 85 -148 181 -315 213 -370 86 -148 486 -841 658 -1140
364 -633 427 -742 547 -950 70 -121 188 -326 262 -455 75 -129 330 -572 568
-985 238 -412 511 -887 608 -1055 96 -168 196 -341 222 -385 26 -44 136 -235
245 -425 109 -190 253 -439 320 -555 67 -115 210 -363 317 -550 317 -552 368
-639 381 -652 7 -6 263 -75 570 -152 l559 -141 366 212 c202 116 408 235 457
263 50 29 209 121 355 205 146 84 310 179 365 211 55 31 217 124 359 207 l259
150 85 -56 c181 -118 403 -188 634 -199 l127 -6 12 -36 c42 -134 161 -266 303
-337 447 -221 995 114 996 610 0 139 -46 273 -130 379 l-39 48 29 49 c110 186
170 419 170 658 l0 124 38 -23 c50 -30 235 -137 477 -277 459 -264 1179 -679
1295 -747 69 -40 217 -125 330 -190 113 -65 273 -158 355 -205 83 -48 449
-260 815 -470 366 -211 729 -421 808 -467 79 -45 147 -83 152 -83 6 0 10 -5
10 -11 0 -6 9 -8 23 -3 12 4 267 69 566 145 299 75 547 141 552 146 4 4 73
121 152 258 79 138 240 417 357 620 117 204 270 469 340 590 69 121 160 279
202 350 41 72 171 297 288 500 184 320 822 1426 1093 1895 49 85 149 259 222
385 193 336 617 1073 780 1355 78 135 204 353 280 485 161 280 306 533 507
880 163 283 358 622 668 1160 117 204 234 406 260 450 26 44 100 171 164 283
l118 204 -30 106 c-27 96 -236 808 -275 939 -8 28 -13 53 -11 56 3 3 -77 52
-178 110 -101 58 -223 129 -273 157 -49 29 -196 113 -325 188 -129 74 -334
192 -455 262 -121 70 -308 178 -415 240 -107 62 -235 136 -285 164 -88 52
-758 438 -1190 686 -213 123 -276 160 -680 393 -104 61 -256 148 -337 195 -82
46 -148 87 -148 91 0 4 21 17 48 30 207 100 416 305 557 545 9 15 18 16 85 6
233 -33 483 94 610 309 227 384 44 890 -367 1016 -65 20 -207 29 -270 17 -29
-5 -53 -6 -53 -2 0 3 -28 49 -62 101 -118 179 -298 341 -480 434 l-95 49 34
83 c76 189 103 338 110 601 10 361 -35 662 -168 1127 -132 463 -310 917 -817
2089 l-61 139 34 66 c237 469 318 1109 214 1681 -80 437 -258 831 -537 1185
-79 100 -290 309 -403 398 -201 159 -462 311 -674 395 -287 113 -497 162 -847
198 l-57 5 -83 112 c-153 209 -650 872 -702 937 -29 36 -96 121 -151 190 -815
1033 -1483 1536 -2115 1593 -25 2 -76 0 -113 -5z m35 -60 c-11 -18 -63 -109
-117 -203 -54 -93 -181 -314 -283 -490 -101 -176 -254 -441 -339 -590 -86
-148 -188 -326 -229 -395 -69 -119 -641 -1112 -972 -1685 -85 -148 -188 -326
-228 -395 -99 -172 -775 -1343 -969 -1680 -87 -151 -190 -331 -230 -400 -40
-69 -207 -357 -370 -640 -163 -283 -332 -576 -375 -650 -43 -74 -138 -238
-210 -365 -73 -126 -174 -302 -225 -390 -51 -88 -168 -290 -260 -450 -92 -159
-191 -330 -219 -380 -52 -88 -210 -363 -516 -895 -84 -146 -183 -317 -220
-380 -37 -63 -145 -251 -241 -417 -96 -167 -176 -303 -179 -303 -10 0 -60 138
-85 233 -40 150 -57 286 -57 477 0 266 32 503 112 829 121 492 310 999 775
2081 l156 365 -25 50 c-143 285 -232 599 -267 939 -15 152 -6 512 16 656 57
368 170 691 348 992 194 327 516 651 860 865 353 221 809 372 1203 399 l96 7
107 145 c206 281 618 829 726 966 842 1067 1444 1567 2060 1711 55 13 117 24
138 24 l39 1 -20 -32z m228 12 c292 -59 602 -221 929 -484 146 -118 466 -432
637 -626 296 -335 567 -682 1189 -1523 l130 -175 75 -7 c570 -48 1071 -245
1510 -595 759 -605 1109 -1615 909 -2620 -38 -188 -110 -404 -198 -593 l-41
-88 156 -362 c308 -711 435 -1024 569 -1397 169 -471 270 -867 311 -1217 23
-196 15 -535 -15 -687 -19 -95 -90 -318 -105 -334 -8 -8 0 -22 -161 258 -140
242 -290 503 -451 780 -298 516 -1191 2062 -1397 2420 -93 162 -218 378 -277
480 -59 102 -241 417 -405 700 -163 283 -348 603 -410 710 -294 509 -570 988
-765 1325 -117 204 -263 456 -323 560 -61 105 -149 258 -197 340 -358 621
-533 923 -655 1135 -78 135 -213 369 -301 520 -87 151 -180 313 -207 360 -28
47 -107 184 -177 305 -69 121 -204 355 -299 520 -96 165 -175 303 -178 308 -7
12 45 8 147 -13z m-25 -267 c82 -142 196 -339 253 -438 198 -341 250 -431 422
-730 95 -165 255 -442 355 -615 100 -173 269 -466 375 -650 106 -184 248 -429
315 -545 201 -346 423 -730 520 -900 51 -88 278 -482 505 -875 227 -393 437
-755 465 -805 71 -125 222 -385 390 -675 78 -135 204 -353 280 -485 216 -373
667 -1154 1080 -1870 241 -416 397 -686 500 -865 61 -107 163 -283 225 -390
62 -107 169 -292 237 -410 l123 -215 -6192 -3 c-3405 -1 -6193 0 -6196 3 -4 4
45 90 295 525 50 85 143 247 208 360 65 113 191 331 280 485 89 154 233 404
320 555 228 395 438 759 505 875 67 115 420 727 585 1015 123 212 248 429 370
640 43 74 110 191 150 260 40 69 107 186 150 260 79 136 324 562 530 920 126
218 253 438 370 640 43 74 111 191 150 260 40 69 156 271 260 450 103 179 247
429 320 555 485 841 671 1164 770 1335 62 107 173 299 246 425 72 127 215 374
317 550 101 176 222 386 269 468 47 81 88 147 93 147 4 0 74 -116 155 -257z
m6055 -11733 l0 -1230 -6210 0 -6210 0 0 1230 0 1230 6210 0 6210 0 0 -1230z
m130 1176 c135 -73 234 -149 334 -257 65 -71 161 -205 187 -262 11 -24 17 -28
38 -23 15 3 64 9 111 12 352 27 658 -298 637 -676 -10 -180 -68 -311 -192
-435 -86 -87 -179 -141 -285 -166 -64 -15 -199 -16 -252 -1 l-37 10 -41 -69
c-96 -161 -224 -304 -361 -402 -62 -44 -206 -127 -221 -127 -5 0 -8 549 -8
1220 0 1157 1 1219 18 1213 9 -4 42 -20 72 -37z m-12580 -1186 c0 -912 -3
-1220 -11 -1220 -19 0 -170 85 -229 130 -126 94 -262 244 -346 386 -48 79 -49
80 -79 71 -54 -16 -215 -12 -280 7 -200 59 -351 205 -422 408 -38 106 -44 281
-14 394 90 330 401 528 722 458 23 -5 30 1 67 63 86 144 220 294 340 380 62
45 230 143 245 143 4 0 7 -549 7 -1220z m12440 -1255 c0 -5 -152 -270 -378
-660 -42 -71 -182 -314 -312 -540 -297 -516 -825 -1431 -943 -1635 -49 -85
-174 -301 -277 -480 -387 -671 -805 -1396 -1070 -1855 -48 -82 -130 -224 -182
-315 -52 -91 -288 -500 -525 -910 -236 -410 -483 -837 -548 -950 -149 -259
-156 -270 -583 -1010 -195 -338 -388 -671 -427 -740 -102 -178 -696 -1207
-833 -1444 -83 -144 -118 -196 -124 -185 -47 78 -144 245 -293 504 -98 171
-243 423 -323 560 -79 138 -204 354 -277 480 -73 127 -190 329 -260 450 -70
121 -203 351 -295 510 -92 160 -252 436 -355 615 -103 179 -254 440 -335 580
-81 140 -173 300 -205 355 -32 55 -117 204 -190 330 -73 127 -190 329 -260
450 -70 121 -169 292 -220 380 -50 88 -152 264 -225 390 -73 127 -176 304
-228 395 -52 91 -150 260 -217 375 -67 116 -208 361 -315 545 -106 184 -267
463 -358 620 -90 157 -225 391 -300 520 -74 129 -165 287 -202 350 -37 63
-110 189 -162 280 -178 309 -367 636 -635 1100 -348 602 -523 907 -529 923 -6
16 293 17 6190 17 3408 0 6196 -2 6196 -5z m-12288 -255 c187 -326 652 -1131
698 -1210 21 -36 123 -211 226 -390 103 -179 245 -426 317 -550 267 -462 307
-532 474 -820 93 -162 255 -441 358 -620 103 -179 229 -397 280 -485 50 -88
152 -263 225 -390 73 -126 184 -318 245 -425 62 -107 153 -265 202 -350 50
-85 159 -274 243 -420 84 -146 201 -348 260 -450 59 -102 209 -363 335 -580
207 -359 372 -645 555 -960 37 -63 195 -338 352 -610 157 -272 395 -684 528
-915 134 -231 311 -537 393 -680 82 -143 184 -318 225 -390 128 -221 154 -267
150 -271 -3 -2 -69 -41 -149 -87 -639 -369 -1294 -748 -1444 -835 -327 -189
-524 -302 -528 -302 -3 0 -36 55 -75 123 -38 67 -111 194 -162 282 -207 359
-396 685 -446 770 -53 92 -392 679 -1244 2155 -166 289 -333 577 -370 640 -37
63 -128 221 -203 350 -326 566 -478 829 -598 1038 -178 308 -361 624 -524 907
-76 132 -169 294 -208 360 -38 66 -112 194 -165 285 -117 204 -610 1057 -782
1355 -136 235 -378 653 -598 1035 -74 129 -159 276 -188 325 -29 50 -118 205
-199 345 -81 140 -217 376 -302 523 -86 147 -154 269 -152 271 2 1 144 83 314
181 171 98 362 208 425 245 63 37 309 179 545 315 237 137 522 301 635 367
112 65 207 115 211 110 3 -4 67 -113 141 -242z m12953 -110 c1133 -654 1325
-765 1418 -817 42 -24 77 -49 77 -54 0 -10 -110 -204 -498 -874 -257 -445
-368 -637 -444 -770 -41 -71 -160 -276 -263 -455 -103 -179 -249 -431 -323
-560 -75 -129 -184 -318 -242 -420 -59 -102 -174 -302 -257 -445 -252 -437
-342 -592 -453 -785 -59 -102 -168 -291 -242 -420 -125 -216 -212 -368 -508
-880 -59 -102 -160 -277 -225 -390 -175 -304 -317 -550 -508 -880 -94 -162
-203 -351 -242 -420 -40 -69 -141 -244 -225 -390 -84 -146 -221 -382 -303
-525 -204 -354 -430 -747 -542 -940 -121 -209 -570 -987 -764 -1325 -84 -146
-156 -269 -160 -273 -5 -5 -30 5 -57 21 -27 16 -211 123 -409 237 -198 114
-389 224 -425 245 -88 52 -908 524 -995 573 -60 34 -234 136 -243 142 -2 2
149 265 334 586 185 321 380 658 432 749 52 91 154 266 225 390 72 124 231
401 355 615 324 563 701 1216 802 1390 48 83 172 299 277 480 105 182 293 508
418 725 126 217 262 454 303 525 69 119 292 507 897 1555 126 217 329 571 453
785 123 215 282 489 352 610 70 121 223 387 340 590 117 204 252 438 300 520
48 83 149 258 225 390 288 499 468 811 481 832 l14 22 72 -41 c40 -22 289
-166 553 -318z m-15229 -932 c25 -43 265 -458 504 -873 70 -121 279 -483 465
-805 186 -322 363 -628 393 -680 197 -342 453 -786 557 -965 67 -115 208 -361
315 -545 106 -184 223 -387 260 -450 37 -63 147 -254 245 -425 98 -170 199
-346 225 -390 26 -44 133 -228 237 -410 105 -181 274 -474 375 -650 102 -176
211 -365 243 -420 32 -55 218 -377 413 -715 195 -338 422 -732 505 -875 82
-143 198 -343 257 -445 59 -102 226 -390 370 -640 145 -250 388 -673 542 -939
154 -266 276 -487 271 -491 -9 -9 -207 -124 -1093 -635 -173 -100 -477 -275
-674 -389 -276 -160 -361 -205 -368 -194 -5 7 -16 26 -25 42 -15 29 -359 626
-642 1116 -82 140 -337 584 -568 985 -231 402 -480 834 -553 960 -73 127 -193
336 -268 465 -74 129 -165 287 -202 350 -140 241 -225 390 -490 850 -151 261
-355 617 -455 790 -184 318 -598 1037 -773 1340 -212 368 -287 498 -452 785
-95 165 -221 383 -280 485 -58 102 -158 275 -222 385 -63 110 -202 351 -308
535 -283 492 -359 623 -550 955 -96 165 -199 345 -231 400 -31 55 -84 147
-118 205 -33 57 -57 107 -53 110 4 4 263 155 577 335 314 181 667 385 785 453
118 69 320 185 448 259 129 74 248 143 265 154 18 10 35 19 40 19 4 0 19 -19
33 -42z m16895 -29 c157 -90 914 -527 1164 -672 105 -61 219 -127 255 -147 77
-44 423 -244 498 -289 29 -17 58 -31 64 -31 15 0 10 -11 -115 -227 -63 -109
-253 -439 -422 -733 -170 -294 -357 -618 -415 -720 -59 -102 -150 -259 -202
-350 -52 -91 -205 -356 -340 -590 -135 -234 -337 -585 -450 -780 -113 -195
-342 -593 -510 -885 -168 -291 -331 -575 -363 -630 -32 -55 -100 -174 -153
-265 -52 -91 -143 -248 -202 -350 -59 -102 -221 -383 -360 -625 -139 -242
-369 -640 -510 -885 -273 -473 -415 -719 -605 -1050 -65 -113 -152 -263 -193
-335 -42 -71 -157 -272 -257 -445 -100 -173 -277 -481 -395 -685 -248 -429
-557 -967 -639 -1109 -31 -54 -61 -100 -67 -103 -6 -2 -210 112 -455 253 -517
298 -792 457 -1234 711 -176 102 -342 198 -368 214 -27 16 -53 29 -58 29 -17
0 -10 16 74 161 262 455 719 1246 842 1459 40 69 124 215 187 325 64 110 224
387 355 615 132 228 292 505 355 615 63 110 159 277 213 370 111 192 266 461
407 705 52 91 204 354 338 585 309 536 1095 1898 1445 2505 114 197 280 485
860 1490 576 997 714 1237 913 1583 113 196 208 357 212 357 3 0 62 -32 131
-71z m2037 -1279 c12 -41 80 -274 152 -518 l130 -442 -206 -358 c-190 -330
-276 -478 -645 -1117 -73 -126 -164 -286 -204 -355 -73 -128 -275 -477 -605
-1050 -103 -179 -290 -503 -415 -720 -126 -217 -277 -480 -338 -585 -60 -104
-179 -311 -265 -460 -143 -250 -495 -860 -685 -1190 -44 -77 -102 -176 -127
-220 -26 -44 -108 -186 -182 -315 -185 -322 -463 -804 -568 -985 -47 -82 -149
-258 -224 -390 -76 -132 -189 -328 -251 -435 -62 -107 -182 -314 -266 -460
-84 -146 -188 -326 -231 -400 -43 -74 -106 -186 -141 -247 -50 -92 -68 -114
-92 -122 -54 -18 -1037 -263 -1040 -259 -3 3 103 189 400 703 73 127 235 408
360 625 210 364 567 984 747 1295 80 139 414 718 533 925 106 184 813 1411
1023 1775 64 110 165 286 225 390 60 105 135 235 167 290 32 55 167 289 300
520 298 517 439 763 585 1015 62 107 199 346 305 530 238 414 394 684 470 815
32 55 109 188 170 295 62 107 172 299 245 425 191 330 447 775 551 957 49 86
92 153 95 150 3 -4 15 -41 27 -82z m-21056 3 c24 -43 121 -211 215 -373 194
-336 326 -565 458 -795 50 -88 236 -410 412 -715 176 -305 382 -663 458 -795
76 -132 159 -276 185 -320 26 -44 118 -204 205 -355 187 -326 348 -605 475
-825 51 -88 162 -281 247 -430 86 -148 188 -326 228 -395 40 -69 227 -393 415
-720 189 -327 382 -662 430 -745 48 -82 132 -229 187 -325 105 -182 482 -835
908 -1575 286 -496 344 -597 700 -1215 144 -250 339 -589 433 -752 95 -163
172 -299 172 -302 0 -9 -1065 265 -1073 277 -4 7 -71 122 -149 257 -77 135
-189 328 -248 430 -59 102 -178 309 -265 460 -87 151 -215 374 -285 495 -116
199 -421 729 -908 1575 -96 168 -196 341 -222 385 -26 44 -137 235 -245 425
-109 190 -273 473 -363 630 -91 157 -233 404 -317 550 -84 146 -221 384 -306
530 -84 146 -201 348 -259 450 -59 102 -270 469 -470 815 -199 347 -404 702
-455 790 -51 88 -228 396 -395 685 -166 289 -353 614 -416 722 -98 168 -113
200 -105 220 6 13 40 127 76 253 37 127 80 273 95 325 15 52 49 167 75 255 55
189 53 185 59 185 2 0 24 -35 48 -77z m10488 -8333 c0 -234 -65 -474 -178
-654 l-30 -50 40 -45 c22 -25 55 -76 74 -113 137 -272 45 -603 -219 -789 -267
-187 -617 -161 -834 63 -50 52 -106 143 -128 208 l-16 47 -127 6 c-243 10
-447 72 -634 193 -38 24 -68 47 -68 51 0 5 24 21 53 37 55 32 681 392 832 480
50 29 241 140 425 246 184 106 438 253 565 326 161 94 232 130 237 121 4 -7 8
-64 8 -127z"/>
<path d="M4708 13917 c-42 -24 -55 -36 -49 -46 7 -11 16 -10 47 9 67 40 73 46
66 58 -5 8 -25 1 -64 -21z"/>
<path d="M4393 13737 c-82 -46 -115 -77 -82 -77 21 0 199 105 199 118 0 21
-22 13 -117 -41z"/>
<path d="M4038 13532 c-70 -42 -95 -61 -89 -71 6 -10 33 1 109 46 92 53 113
72 86 79 -5 2 -53 -23 -106 -54z"/>
<path d="M3690 13330 c-47 -27 -89 -51 -95 -54 -6 -2 -6 -8 1 -16 9 -9 33 0
105 42 86 50 118 78 87 78 -7 0 -51 -23 -98 -50z"/>
<path d="M3373 13148 c-36 -20 -50 -33 -46 -43 4 -12 16 -9 64 17 54 30 69 48
43 54 -5 1 -32 -12 -61 -28z"/>
<path d="M5346 11191 c-6 -10 39 -97 56 -107 26 -16 24 16 -5 64 -32 52 -41
60 -51 43z"/>
<path d="M5495 10931 c-8 -14 105 -203 119 -198 16 6 12 17 -45 117 -50 87
-62 100 -74 81z"/>
<path d="M5690 10584 c0 -7 82 -153 104 -186 7 -10 17 -14 24 -9 16 9 -88 194
-112 199 -9 2 -16 0 -16 -4z"/>
<path d="M5901 10241 c-10 -7 -1 -30 43 -105 53 -90 68 -107 79 -88 3 4 -20
51 -52 104 -42 71 -60 95 -70 89z"/>
<path d="M6096 9891 c-8 -13 105 -203 118 -198 16 6 12 17 -45 117 -49 87 -62
100 -73 81z"/>
<path d="M6290 9545 c0 -6 86 -161 104 -187 8 -10 17 -14 25 -9 10 7 -1 32
-44 105 -31 53 -63 96 -71 96 -8 0 -14 -2 -14 -5z"/>
<path d="M6501 9201 c-10 -7 0 -31 44 -105 55 -92 68 -106 79 -88 3 6 -91 180
-108 199 -1 1 -8 -2 -15 -6z"/>
<path d="M6696 8852 c-8 -13 105 -204 117 -199 17 6 13 17 -44 117 -49 86 -62
100 -73 82z"/>
<path d="M6896 8502 c-3 -6 91 -180 108 -199 1 -1 8 2 15 6 10 7 1 30 -43 105
-53 91 -68 107 -80 88z"/>
<path d="M7103 8162 c-9 -6 2 -34 40 -101 48 -87 69 -112 83 -98 5 4 -103 208
-110 207 0 0 -6 -4 -13 -8z"/>
<path d="M7296 7812 c-7 -12 102 -197 116 -197 19 0 11 21 -44 118 -47 82 -60
97 -72 79z"/>
<path d="M7497 7462 c-3 -4 20 -51 52 -104 42 -71 60 -95 70 -89 10 7 1 30
-43 105 -53 90 -68 107 -79 88z"/>
<path d="M7702 7121 c-9 -5 3 -33 44 -104 53 -92 67 -107 78 -89 3 6 -90 181
-105 197 -3 2 -10 0 -17 -4z"/>
<path d="M7896 6772 c-4 -6 93 -183 110 -201 2 -3 9 0 15 6 7 7 -7 40 -46 107
-54 91 -67 106 -79 88z"/>
<path d="M8098 6424 c-4 -3 7 -29 24 -57 37 -64 36 -63 49 -50 7 7 1 25 -18
58 -28 48 -43 61 -55 49z"/>
<path d="M10193 4426 c-48 -27 -69 -56 -43 -56 19 0 110 55 110 67 0 22 -15
20 -67 -11z"/>
<path d="M9880 4245 c-52 -30 -95 -60 -95 -67 0 -19 22 -11 118 44 48 28 87
57 87 64 0 21 -7 18 -110 -41z"/>
<path d="M9528 4042 c-54 -31 -98 -63 -98 -69 0 -21 14 -16 107 38 102 59 111
66 98 78 -6 6 -47 -12 -107 -47z"/>
<path d="M9169 3834 c-111 -65 -100 -57 -91 -71 10 -15 202 93 202 113 0 22
-9 18 -111 -42z"/>
<path d="M8862 3658 c-46 -26 -69 -58 -42 -58 15 0 110 61 110 70 0 20 -19 17
-68 -12z"/>
<path d="M17135 13940 c-9 -14 -3 -20 57 -54 32 -19 48 -23 53 -16 9 14 3 20
-57 54 -32 19 -48 23 -53 16z"/>
<path d="M17396 13781 c-8 -12 190 -125 204 -116 17 10 6 19 -89 74 -91 52
-106 58 -115 42z"/>
<path d="M17755 13580 c-9 -14 -15 -10 95 -74 66 -39 98 -52 105 -45 12 13 -6
26 -116 87 -50 27 -80 39 -84 32z"/>
<path d="M18106 13375 c-7 -20 190 -133 206 -117 7 7 -16 25 -73 59 -128 76
-126 75 -133 58z"/>
<path d="M18460 13167 c0 -17 108 -79 115 -66 9 14 -1 25 -51 53 -52 29 -64
32 -64 13z"/>
<path d="M16511 11148 c-28 -49 -31 -68 -11 -68 11 0 70 102 64 112 -11 17
-25 6 -53 -44z"/>
<path d="M16336 10844 c-51 -87 -60 -114 -36 -114 4 0 24 28 43 63 19 34 44
78 56 98 18 31 19 38 7 42 -10 4 -31 -22 -70 -89z"/>
<path d="M16177 10568 c-89 -146 -106 -188 -79 -188 8 0 114 184 114 197 -1
18 -22 13 -35 -9z"/>
<path d="M15936 10151 c-31 -54 -56 -102 -56 -105 0 -3 6 -6 14 -6 14 0 116
166 116 188 0 36 -25 10 -74 -77z"/>
<path d="M15749 9828 c-23 -40 -48 -84 -56 -97 -11 -16 -12 -26 -4 -34 6 -6
13 -9 15 -6 17 16 114 194 110 201 -11 18 -25 4 -65 -64z"/>
<path d="M15576 9528 c-66 -108 -97 -171 -87 -181 6 -6 12 -9 15 -6 13 14 106
187 106 197 0 20 -18 14 -34 -10z"/>
<path d="M15336 9111 c-31 -54 -56 -102 -56 -105 0 -3 6 -6 14 -6 8 0 39 43
69 95 43 74 52 96 42 105 -10 8 -25 -12 -69 -89z"/>
<path d="M15152 8792 c-56 -96 -72 -129 -65 -136 13 -13 22 -4 53 52 18 31 43
76 57 98 19 34 21 43 9 47 -10 4 -27 -15 -54 -61z"/>
<path d="M14977 8488 c-89 -146 -106 -188 -79 -188 8 0 114 184 114 197 -1 18
-22 13 -35 -9z"/>
<path d="M14736 8071 c-31 -54 -56 -102 -56 -105 0 -3 6 -6 14 -6 13 0 103
143 113 179 3 10 0 21 -5 25 -6 3 -35 -39 -66 -93z"/>
<path d="M14552 7753 c-64 -110 -73 -131 -61 -138 6 -4 12 -5 14 -3 16 16 113
194 109 200 -11 18 -25 5 -62 -59z"/>
<path d="M14376 7448 c-69 -112 -97 -171 -85 -179 14 -8 19 -2 82 112 20 36
37 71 37 77 0 20 -19 13 -34 -10z"/>
<path d="M14137 7031 c-32 -54 -57 -101 -57 -104 0 -4 6 -7 14 -7 14 0 116
166 116 188 0 34 -23 10 -73 -77z"/>
<path d="M13935 6684 c-39 -67 -53 -100 -46 -107 6 -6 12 -9 15 -6 12 13 106
179 106 188 0 34 -25 9 -75 -75z"/>
<path d="M13761 6380 c-34 -55 -38 -70 -18 -70 12 0 68 85 68 105 1 26 -22 11
-50 -35z"/>
<path d="M11655 4440 c-4 -6 -5 -13 -4 -14 17 -13 98 -56 107 -56 24 0 11 20
-29 45 -54 35 -66 39 -74 25z"/>
<path d="M11917 4287 c-7 -18 192 -132 206 -118 6 6 9 12 6 14 -9 8 -197 117
-202 117 -3 0 -7 -6 -10 -13z"/>
<path d="M12277 4083 c-10 -9 -8 -23 2 -23 6 0 47 -22 93 -50 85 -51 108 -59
108 -37 0 6 -43 36 -94 65 -101 56 -99 55 -109 45z"/>
<path d="M12628 3878 c-3 -7 13 -23 36 -37 147 -86 159 -92 167 -79 6 9 -20
29 -84 66 -111 66 -114 67 -119 50z"/>
<path d="M12983 3674 c-3 -8 -4 -16 -2 -18 20 -14 100 -56 108 -56 28 0 6 29
-44 58 -46 26 -57 29 -62 16z"/>
</g>
</svg>
